<?xml version="1.0" standalone="no"?>
<!DOCTYPE svg PUBLIC "-//W3C//DTD SVG 1.1//EN" "http://www.w3.org/Graphics/SVG/1.1/DTD/svg11.dtd" >
<svg xmlns="http://www.w3.org/2000/svg">
<metadata></metadata>
<defs>
<font id="concourse_t8italic" horiz-adv-x="1146" >
<font-face units-per-em="2048" ascent="1520" descent="-528" />
<missing-glyph horiz-adv-x="491" />
<glyph unicode="&#xfb01;" horiz-adv-x="1433" d="M20 -231l148 870h-143l47 270l157 84l4 19q22 133 115.5 242.5t224.5 142.5h338v-223q-106 -14 -166.5 -70.5t-68.5 -128.5h164l-58 -322l-143 -28l-115 -654l-12 -182zM772 -10l131 758l17 206l495 31l-141 -805l-10 -170zM967 1233q0 78 64.5 130t189.5 52 q124 0 189 -52.5t65 -129.5q0 -74 -66.5 -124t-187.5 -50q-129 0 -191.5 49.5t-62.5 124.5z" />
<glyph unicode="&#xfb02;" horiz-adv-x="1433" d="M20 -231l148 870h-143l47 270l157 84l4 19q22 133 115.5 242.5t224.5 142.5h338v-223q-106 -14 -166.5 -70.5t-68.5 -128.5h164l-58 -322l-143 -28l-115 -654l-12 -182zM770 -10l131 704l70 451l22 241l506 31l-143 -753l-66 -420l-20 -234z" />
<glyph horiz-adv-x="2048" />
<glyph horiz-adv-x="2048" />
<glyph unicode="&#xd;" horiz-adv-x="2048" />
<glyph unicode=" "  horiz-adv-x="491" />
<glyph unicode="&#x09;" horiz-adv-x="491" />
<glyph unicode="&#xa0;" horiz-adv-x="491" />
<glyph unicode="!" horiz-adv-x="778" d="M63 207q0 95 66.5 162t161.5 67t161 -67t66 -162t-66 -161t-161 -66t-161.5 66t-66.5 161zM180 518l35 381l76 483l500 21l-170 -481l-140 -383z" />
<glyph unicode="&#x22;" horiz-adv-x="1105" d="M197 725l59 664l393 10l-176 -664zM647 725l60 664l393 10l-176 -664z" />
<glyph unicode="#" d="M59 449l35 210l211 -36l62 256l-183 32l41 222l195 -35l98 401l158 -35l-96 -395l151 -27l105 431l157 -35l-102 -422l196 -35l-40 -221l-209 37l-62 -258l180 -31l-34 -211l-197 35l-111 -461l-157 37l108 450l-151 27l-117 -487l-158 36l115 480zM465 594l151 -27 l62 256l-152 27z" />
<glyph unicode="$" horiz-adv-x="1167" d="M-29 186l133 291q162 -100 353 -110l57 208q-22 11 -37 21q-58 27 -98.5 49t-89.5 57t-79 71t-50.5 87t-20.5 109q0 77 37 146.5t106 125t178.5 88.5t244.5 33h6l49 172l137 -21l-43 -163q195 -29 328 -121l-127 -289q-89 47 -157.5 73t-145.5 36l-50 -179l25 -10 q189 -87 266.5 -178.5t77.5 -202.5q0 -87 -35 -158.5t-92 -118t-132.5 -79t-153.5 -47.5t-158 -17l-62 -206l-137 20l53 195q-111 13 -213 45.5t-170 72.5zM537 993q0 -18 15.5 -33.5t55.5 -39.5l37 135q-55 -1 -81.5 -18.5t-26.5 -43.5zM565 371q103 14 103 80 q0 20 -13.5 36t-46.5 37z" />
<glyph unicode="%" horiz-adv-x="1372" d="M74 61l551 637l563 693l123 -64l-588 -674l-526 -659zM84 1034q0 156 106.5 268.5t241.5 112.5q127 0 200 -76t73 -202q0 -152 -105 -264.5t-248 -112.5q-121 0 -194.5 75.5t-73.5 198.5zM301 1083q-11 -65 8 -104t62 -39q38 0 71 39t45 104q12 68 -7 110t-64 42 q-38 0 -70.5 -43.5t-44.5 -108.5zM698 252q0 156 107 268.5t242 112.5q127 0 199.5 -76.5t72.5 -202.5q0 -152 -105 -264.5t-247 -112.5q-121 0 -195 76t-74 199zM915 301q-11 -65 8 -104t62 -39q38 0 71.5 39t45.5 104q12 68 -7.5 110t-64.5 42q-38 0 -70.5 -43.5 t-44.5 -108.5z" />
<glyph unicode="&#x26;" horiz-adv-x="1556" d="M39 379q0 82 30.5 159t79 132.5t103 95t108.5 59.5l2 11q-114 90 -114 213q0 104 71.5 190t197 135t278.5 49q235 0 415 -92l-125 -334h-10q-111 66 -231 66q-71 0 -115.5 -31.5t-44.5 -75.5q0 -34 26 -64t81 -48l-21 -148q-123 -15 -199.5 -76t-76.5 -141 q0 -69 65.5 -104t161.5 -35q158 0 250 59.5t92 147.5q0 6 -1 18t-1 17l-115 -19l-39 258l545 90l39 -256l-109 -18q15 -53 15 -105q0 -159 -101 -289t-268.5 -202t-363.5 -72q-155 0 -276.5 32t-196.5 88t-113.5 129.5t-38.5 160.5z" />
<glyph unicode="'" horiz-adv-x="655" d="M197 725l59 664l393 10l-176 -664z" />
<glyph unicode="(" horiz-adv-x="1044" d="M104 375q0 166 46 322t123 282.5t185 241t224.5 201.5t249.5 159l145 -238q-119 -75 -217.5 -171.5t-175.5 -215.5t-119.5 -264.5t-42.5 -302.5q0 -189 62 -333.5t182 -272.5l-211 -217q-216 170 -333.5 368.5t-117.5 440.5z" />
<glyph unicode=")" horiz-adv-x="1044" d="M-74 -197q119 75 217.5 171.5t175.5 216t119.5 265t42.5 302.5q0 189 -61.5 333.5t-181.5 272.5l211 217q450 -355 450 -809q0 -166 -46 -322t-122.5 -282.5t-184.5 -241t-224.5 -201.5t-249.5 -159z" />
<glyph unicode="*" horiz-adv-x="1126" d="M125 737l358 152l-333 69l151 299l248 -243l-12 403l346 -74l-197 -354l338 152l14 -369l-350 78l279 -301l-295 -166l-105 383l-245 -317z" />
<glyph unicode="+" horiz-adv-x="1126" d="M68 483v267h362v362h266v-362h363v-267h-363v-362h-266v362h-362z" />
<glyph unicode="," horiz-adv-x="696" d="M-141 -307l164 319l79 246l426 8v-14l-196 -324l-193 -243l-280 -9v17z" />
<glyph unicode="-" horiz-adv-x="778" d="M18 307l52 326l614 20l-51 -325z" />
<glyph unicode="." horiz-adv-x="696" d="M41 207q0 95 66 162t161 67t161.5 -67t66.5 -162t-66.5 -161t-161.5 -66t-161 66t-66 161z" />
<glyph unicode="/" horiz-adv-x="1167" d="M-154 -328l1086 1762h348l-1087 -1762h-347z" />
<glyph unicode="0" horiz-adv-x="1372" d="M47 508q0 182 45 335t121 258.5t176.5 179.5t209.5 108t222 34q238 0 375 -134.5t137 -389.5q0 -201 -61 -375.5t-165 -295.5t-245 -190t-297 -69q-112 0 -205 32.5t-163.5 96.5t-110 169t-39.5 241zM498 551q0 -105 36.5 -159t98.5 -54q64 0 122.5 75t92.5 190.5 t33 232.5q0 99 -32.5 158t-94.5 59q-64 0 -123 -67.5t-96 -184.5t-37 -250z" />
<glyph unicode="1" d="M188 938l39 405l770 66l23 -25l-213 -1206l-10 -168l-486 -20l170 975z" />
<glyph unicode="2" horiz-adv-x="1269" d="M25 276q281 169 443 291.5t224 206t62 160.5q0 100 -140 100q-76 0 -167 -26t-175 -76l-102 328q116 70 285 116.5t333 46.5q98 0 181.5 -20t150 -60t104.5 -107t38 -155q0 -96 -47.5 -194t-130.5 -185.5t-184.5 -164.5t-221.5 -144l4 -16l453 31l-58 -388l-1032 -30z " />
<glyph unicode="3" horiz-adv-x="1228" d="M-72 45l119 336h12q121 -62 334 -62q120 0 187 36t67 98q0 50 -46 72.5t-128 17.5l-301 -15l68 344l295 -14q80 -3 131 23.5t51 89.5q0 50 -51.5 76t-141.5 26q-123 0 -305 -41h-12l-33 318q71 29 207 51t283 22q255 0 402.5 -91.5t147.5 -250.5q0 -143 -91.5 -242 t-241.5 -137l-2 -10q113 -28 179 -101t66 -169q0 -212 -200 -332.5t-541 -120.5q-263 0 -455 76z" />
<glyph unicode="4" horiz-adv-x="1351" d="M45 545l821 837l377 21l-129 -764l141 6l-55 -319l-145 -2l-23 -123l-12 -191l-445 -20l56 332l-565 -15zM446 618l9 -10l231 13l59 292l-10 2z" />
<glyph unicode="5" horiz-adv-x="1228" d="M-35 -4l109 360q63 -18 192 -18q85 0 156 8.5t127.5 26t88.5 48t32 71.5q0 61 -102 93.5t-267 32.5q-80 0 -203 -10l-14 6l215 768l948 21l-82 -361h-602l-45 -149q50 4 78 4q264 0 405.5 -102.5t141.5 -280.5q0 -249 -242.5 -397t-675.5 -148q-160 0 -260 27z" />
<glyph unicode="6" horiz-adv-x="1310" d="M33 430q0 154 50 291.5t139 244.5t208.5 193t260 142.5t292.5 87.5t307 34l-90 -348q-187 -3 -360 -73.5t-244 -159.5l6 -6q140 45 260 45q71 0 136 -22t119 -64.5t86 -113.5t32 -161q0 -106 -40 -197.5t-105.5 -155.5t-150 -109.5t-173 -67t-174.5 -21.5 q-148 0 -258 35.5t-174.5 99.5t-95.5 145.5t-31 180.5zM489 391.5q8 -40.5 43 -67.5t91 -27q68 0 114 45.5t49 128.5q1 66 -33.5 102.5t-93.5 36.5q-75 0 -135 -47q-25 -39 -34 -85t-1 -86.5z" />
<glyph unicode="7" horiz-adv-x="1208" d="M90 -10q92 274 259.5 546t359.5 474l-2 16l-570 -29l88 385l1082 21l26 -55q-578 -714 -704 -1338z" />
<glyph unicode="8" horiz-adv-x="1310" d="M12 313q0 72 30 138t78.5 114t101 82t104.5 53v13q-95 68 -130.5 137.5t-35.5 150.5q0 83 41.5 159t117 134.5t190 93.5t251.5 35q229 0 372.5 -89t143.5 -240q0 -124 -75.5 -208t-227.5 -149v-12q137 -77 188 -153t51 -171q0 -123 -83 -221.5t-232.5 -154.5t-337.5 -56 q-254 0 -400.5 94.5t-146.5 249.5zM451 385q0 -53 40 -85t107 -32q65 0 107.5 37t42.5 90q0 48 -38 92t-137 93q-59 -41 -90.5 -93.5t-31.5 -101.5zM584 1014q0 -97 155 -178q59 46 88 88t29 92t-35.5 79t-101.5 29q-61 0 -98 -32.5t-37 -77.5z" />
<glyph unicode="9" horiz-adv-x="1310" d="M82 889q0 97 46.5 192t128.5 171.5t207.5 123.5t270.5 47q133 0 238.5 -38t172.5 -105t101.5 -155t34.5 -191q0 -199 -75 -366t-214.5 -290.5t-336.5 -207t-443 -121.5l-76 321l8 13q235 35 396 107.5t194 166.5l-6 6q-107 -51 -270 -51q-69 0 -133.5 22t-120.5 65.5 t-89.5 118.5t-33.5 171zM532 907q0 -60 34.5 -92.5t92.5 -32.5q80 0 138 49q23 37 31.5 82t1 86.5t-41.5 69t-90 27.5q-69 0 -117.5 -56t-48.5 -133z" />
<glyph unicode=":" horiz-adv-x="737" d="M66 207q0 95 66 162t161 67t161 -67t66 -162t-66 -161t-161 -66t-161 66t-66 161zM166 739q0 96 66 163t161 67t161.5 -67.5t66.5 -162.5t-66.5 -161t-161.5 -66t-161 66t-66 161z" />
<glyph unicode=";" horiz-adv-x="778" d="M-98 -307l164 319l79 246l426 8v-14l-196 -324l-193 -243l-280 -9v17zM207 739q0 96 66 163t161 67t161.5 -67.5t66.5 -162.5t-66.5 -161t-161.5 -66t-161 66t-66 161z" />
<glyph unicode="&#x3c;" horiz-adv-x="1126" d="M102 573v168l828 430l123 -235l-572 -274l572 -283l-113 -236z" />
<glyph unicode="=" horiz-adv-x="1126" d="M88 258v266h950v-266h-950zM88 692v266h950v-266h-950z" />
<glyph unicode="&#x3e;" horiz-adv-x="1126" d="M74 379l571 283l-571 274l123 235l827 -430v-168l-838 -430z" />
<glyph unicode="?" horiz-adv-x="1044" d="M55 207q0 95 66.5 162t161.5 67t161 -67t66 -162t-66 -161t-161 -66t-161.5 66t-66.5 161zM135 684q0 64 25 114t64.5 80t87.5 52.5t96.5 37t88 27t64.5 28.5t25 36q0 41 -109 41q-47 0 -106 -15t-103 -43l-59 293q179 88 407 88q78 0 149 -16.5t132.5 -50t98 -92.5 t36.5 -136q0 -81 -39 -143t-97.5 -95.5t-126.5 -60t-126.5 -41.5t-97.5 -36t-39 -47q0 -11 16.5 -19t42.5 -8q49 0 101 18l43 -172q-112 -47 -277 -47q-131 0 -214 54t-83 153z" />
<glyph unicode="@" horiz-adv-x="1556" d="M96 594q0 238 113.5 431t310.5 301t438 108q91 0 170.5 -14t147.5 -43.5t115 -73t71 -106.5t17 -140l-49 -539q-6 -106 53 -168l-2 -20l-281 -70l-45 111h-14q-98 -95 -232 -95q-138 0 -228.5 86t-90.5 244q0 169 120 279t300 110q84 0 153 -16l4 41q6 66 -56 103.5 t-175 37.5q-119 0 -218.5 -43t-166.5 -117.5t-104 -177.5t-37 -221q0 -131 38 -231t104 -158.5t147 -87.5t175 -29q83 0 158 21t121 53h10l101 -254q-170 -98 -422 -98q-61 0 -125 9.5t-138 35t-141.5 63.5t-131 100t-109.5 140t-73.5 188t-27.5 240zM885 629q0 -42 30 -65 t74 -23q88 0 144 59l10 131q-77 14 -113 14q-65 0 -105 -31t-40 -85z" />
<glyph unicode="A" horiz-adv-x="1536" d="M-106 0l899 1382l440 21l170 -1393l-469 -20l-12 211l-420 -15l-107 -176l-495 -20zM694 514l215 10l-10 342h-14z" />
<glyph unicode="B" horiz-adv-x="1310" d="M-39 -10l135 737l84 500l6 155l607 21h26q107 1 191 -21q94 -24 151 -70t86 -104.5t29 -126.5q0 -43 -13.5 -90t-41.5 -97.5t-80 -95.5t-121 -73l-2 -10q106 -31 161.5 -101.5t55.5 -162.5q0 -83 -32.5 -153.5t-88 -122t-131 -88t-161 -56t-177.5 -21.5zM485 350l129 6 q59 3 97 34.5t39 86.5q0 43 -31 67q-29 23 -71 23h-7l-121 -6zM567 831l99 7q60 3 98.5 33t38.5 83q0 46 -33 72q-30 24 -67 23h-9l-88 -7z" />
<glyph unicode="C" horiz-adv-x="1290" d="M45 569q0 174 64 331.5t174 272.5t266.5 182.5t333.5 67.5q240 0 430 -112l-82 -420h-10q-150 102 -322 102q-62 0 -122.5 -21t-114 -62t-86.5 -113.5t-33 -165.5q0 -51 18 -92t46.5 -66.5t67 -42.5t77 -24t79.5 -7q159 0 334 82h11l-80 -430q-67 -35 -182.5 -58.5 t-213.5 -23.5q-295 0 -475 167.5t-180 432.5z" />
<glyph unicode="D" horiz-adv-x="1433" d="M-37 -10l131 704l76 480l16 208l482 21q18 1 35 1q133 0 250 -34q132 -38 229.5 -113.5t153 -193.5t55.5 -264q0 -177 -65.5 -323t-181 -245.5t-273.5 -156.5t-343 -64zM502 410l86 4q51 2 103.5 24t99.5 62.5t76.5 108t29.5 149.5q0 60 -19.5 106.5t-49.5 72.5 q-31 27 -65 39q-31 12 -62 11h-5l-94 -4l-55 -278z" />
<glyph unicode="E" d="M-37 -10l135 719l72 465l16 208l1014 21l-88 -389l-512 -21l-25 -139l472 20l-80 -335l-451 -21l-24 -139l557 20l-88 -389z" />
<glyph unicode="F" horiz-adv-x="1085" d="M-37 -10l213 1214l10 178l971 21l-67 -389l-469 -13l-31 -176l397 17l-63 -365l-398 -16l-51 -283l-10 -168z" />
<glyph unicode="G" horiz-adv-x="1474" d="M45 553q0 185 63.5 346t176 276.5t274 181.5t350.5 66q162 0 312 -59.5t233 -153.5l-246 -301h-10q-129 105 -295 105q-50 0 -101 -13.5t-99.5 -43t-86.5 -71.5t-61 -105t-23 -138q0 -72 25.5 -125.5t67.5 -82.5t87.5 -42.5t92.5 -13.5q102 0 176 41l20 110l-303 -10 l58 318l678 20l-123 -698q-244 -191 -609 -191q-291 0 -474 162.5t-183 421.5z" />
<glyph unicode="H" horiz-adv-x="1495" d="M-37 -10l129 682l72 442l22 268l523 21l-97 -518l349 20l32 205l27 272l518 21l-131 -696l-76 -465l-16 -232l-522 -20l98 522l-348 -20l-41 -242l-17 -240z" />
<glyph unicode="I" horiz-adv-x="675" d="M-31 -10l140 749l57 377l27 266l520 21l-131 -698l-74 -474l-19 -221z" />
<glyph unicode="J" horiz-adv-x="1044" d="M-84 49l102 389h13q76 -49 180 -49q99 0 164 57t84 164l110 619l6 153l512 21l-147 -854q-23 -132 -74 -234t-117.5 -166t-152.5 -105.5t-171.5 -58t-180.5 -16.5q-206 0 -328 80z" />
<glyph unicode="K" horiz-adv-x="1515" d="M-39 -10l133 741l84 492l8 159l512 21l-92 -535h15l403 514l569 21v-10l-585 -709l399 -664v-10l-561 -20l-285 557h-14l-68 -404l-4 -133z" />
<glyph unicode="L" horiz-adv-x="1085" d="M-37 -10l119 643l82 502l22 247l512 21l-176 -1010l461 10l-68 -393z" />
<glyph unicode="M" horiz-adv-x="1822" d="M-88 -10l494 1382l382 21l125 -658h11l364 637l377 21l6 -1192l12 -191l-477 -20l2 561h-10l-283 -545l-256 -12l-73 557h-11l-129 -379l-38 -162z" />
<glyph unicode="N" horiz-adv-x="1556" d="M-39 -10l244 1392l413 21l375 -696h15l75 452l19 223l502 21l-244 -1393l-414 -20l-377 690h-14l-72 -440l-20 -230z" />
<glyph unicode="O" horiz-adv-x="1617" d="M45 571q0 111 27 217.5t77.5 201t127.5 174t173 137t218.5 90t259.5 32.5q177 0 324 -74.5t236 -217.5t89 -328q0 -188 -66.5 -345t-183 -264t-277 -166t-345.5 -59q-133 0 -251.5 40t-210 114t-145 190t-53.5 258zM543 618q0 -112 61.5 -165.5t157.5 -53.5 q61 0 118 24.5t102 69.5q46 45 72 116q26 68 25 151v6q-1 107 -62.5 167t-156.5 60q-58 0 -114 -25t-101.5 -70.5t-73.5 -118.5t-28 -161z" />
<glyph unicode="P" horiz-adv-x="1290" d="M-37 -10l125 682l90 551l8 159l525 21q20 1 39 1q240 0 387 -106q159 -114 159 -325q0 -105 -40.5 -194.5t-108.5 -152t-156.5 -106.5t-185 -65t-193.5 -21l-94 -6l-41 -235l-12 -183zM580 772l82 4q77 6 117 49.5t40 110.5q0 42 -30 70q-26 24 -69 24h-13l-82 -4z" />
<glyph unicode="Q" horiz-adv-x="1617" d="M45 571q0 111 27 217.5t77.5 201t127.5 174t173 137t218.5 90t259.5 32.5q177 0 324 -74.5t236 -217.5t89 -328q0 -180 -66 -330.5t-181.5 -253.5t-273.5 -160.5t-341 -58.5v-16q85 -42 193 -64q105 -21 199 -21q2 0 4 1q96 0 171 18l8 -8l-141 -367q-58 -7 -115.5 -7 t-113.5 7q-114 14 -207 45t-179.5 64t-182.5 58.5t-181 27.5l-10 10l174 338q-134 72 -211.5 195.5t-77.5 289.5zM543 618q0 -112 61.5 -165.5t157.5 -53.5q61 0 118 24.5t102 69.5t72 116q25 68 25 151v6q-1 107 -62.5 167t-156.5 60q-58 0 -114 -25t-101.5 -70.5 t-73.5 -118.5t-28 -161z" />
<glyph unicode="R" horiz-adv-x="1392" d="M-37 -10l201 1149l22 243l643 21h7q116 0 209 -30q96 -31 156 -84.5t92 -121.5t32 -143q0 -166 -81 -272t-245 -172l299 -549v-11l-530 -30l-217 502h-21l-43 -242l-22 -240zM584 793l102 6q61 0 103 39t42 96q0 43 -27.5 70.5t-76.5 27.5l-102 -6z" />
<glyph unicode="S" horiz-adv-x="1228" d="M-76 170l238 354q192 -155 395 -155q115 0 115 53q1 16 -15.5 27.5t-52.5 25.5q-64 26 -108 46t-97.5 48t-89 53.5t-71.5 60.5t-57.5 72t-34.5 83.5t-13 99.5q0 72 19.5 140t65 131.5t111.5 110.5t166 75t222 28q309 0 534 -153l-211 -367q-71 56 -167 88.5t-168 32.5 q-105 0 -105 -49q0 -40 141 -92q207 -80 299.5 -177.5t92.5 -246.5q0 -78 -20.5 -145t-55.5 -116.5t-84.5 -89t-106 -65t-121 -42.5t-127.5 -24.5t-129 -7.5q-179 0 -333 57t-232 144z" />
<glyph unicode="T" horiz-adv-x="1249" d="M74 989l67 393l1205 21l-68 -393l-352 -9l-95 -493l-43 -258l-18 -240l-512 -20l111 596l65 411z" />
<glyph unicode="U" horiz-adv-x="1454" d="M53 516l119 666l14 200l512 21l-149 -832q-4 -23 -5 -43q0 -50 28 -83q38 -46 116 -46q66 0 116.5 46t63.5 126l105 629l12 182l512 21l-149 -862q-46 -259 -252 -415.5t-504 -156.5q-95 0 -175.5 18.5t-137.5 50.5t-102.5 75t-70.5 93q-26 48 -43 102q-17 52 -17 103 q0 52 7 105z" />
<glyph unicode="V" horiz-adv-x="1474" d="M115 1382l479 21l129 -739h10l363 718l497 21l13 -8l-799 -1385l-379 -20z" />
<glyph unicode="W" horiz-adv-x="1966" d="M106 1382l474 21l63 -670h10l269 649l340 21l38 -670h11l272 649l500 19l10 -17l-663 -1374l-408 -20l-47 600h-12l-252 -580l-408 -20z" />
<glyph unicode="X" horiz-adv-x="1495" d="M-109 6l564 688l-324 688l510 21l156 -373l256 352l540 21l11 -14l-562 -693l338 -686l-512 -20l-168 368l-258 -348l-542 -20z" />
<glyph unicode="Y" horiz-adv-x="1413" d="M104 1382l471 21l162 -459h11l278 438l512 21l6 -19l-616 -841l-94 -533l-492 -20l94 553z" />
<glyph unicode="Z" horiz-adv-x="1290" d="M-109 4l725 983l-2 6l-501 -10l67 389l1221 31l6 -10l-743 -990l2 -8l540 15l-67 -390l-1239 -30z" />
<glyph unicode="[" horiz-adv-x="1044" d="M55 -336l174 930l146 889l651 -8l-51 -297l-270 4l-115 -594l-98 -623l282 4l-53 -297z" />
<glyph unicode="\" horiz-adv-x="1167" d="M133 1434h328l592 -1762h-328z" />
<glyph unicode="]" horiz-adv-x="1044" d="M-23 -328l52 297l270 -4l115 594l98 623l-283 -4l54 297l665 8l-174 -930l-145 -889z" />
<glyph unicode="^" horiz-adv-x="1085" d="M61 643l455 772h55l453 -772l-119 -68l-352 615h-16l-359 -615z" />
<glyph unicode="_" horiz-adv-x="1085" d="M-201 -461l21 256h1188l-21 -256h-1188z" />
<glyph unicode="`" horiz-adv-x="1024" d="M158 1260v20h356l217 -315v-17h-248z" />
<glyph unicode="a" d="M-16 250q0 80 26 151q110 89 277.5 139t322.5 52l4 26q5 34 -13.5 52.5t-44.5 23t-69 4.5q-67 0 -152.5 -25t-160.5 -63l-86 262q107 54 253 94t300 40q101 0 184 -27.5t142 -79.5t84 -136q14 -48 14 -103q0 -42 -8 -87l-58 -313q-8 -47 -8 -81q0 -67 31 -85v-18 l-330 -113q-28 15 -51 59.5t-23 79.5h-10q-60 -47 -156.5 -85t-191.5 -50q-134 24 -205 102t-71 181zM412 365q-7 -20 -7 -38q-1 -19 7 -35q14 -33 55 -42q74 6 119 51l10 113q-13 2 -27 2q-33 0 -73 -10q-56 -14 -84 -41z" />
<glyph unicode="b" horiz-adv-x="1228" d="M-31 131l101 545l94 551l8 159l498 31l-95 -540h11q50 47 140.5 87.5t166.5 43.5q281 -93 281 -392q0 -293 -200.5 -470t-529.5 -177q-138 0 -266.5 39t-208.5 123zM465 326q22 -29 61 -29q63 0 114.5 73.5t51.5 200.5q0 79 -55 105q-57 -6 -111 -60z" />
<glyph unicode="c" horiz-adv-x="983" d="M-10 389q0 134 53.5 250.5t143 196t208.5 125t248 45.5q193 0 340 -78l-59 -312h-11q-97 62 -229 62q-92 0 -153.5 -64t-61.5 -149q0 -48 16.5 -82t45 -51.5t59.5 -25t67 -7.5q122 0 213 51h11l-52 -309q-138 -72 -337 -72q-233 0 -367.5 115t-134.5 305z" />
<glyph unicode="d" horiz-adv-x="1228" d="M-10 362q0 157 69.5 304.5t196 243.5t276.5 96q78 0 128.5 -30.5t76.5 -68.5h11l36 283l15 196l504 31l-140 -774l-84 -465l-2 -168l-415 -20l-9 129h-10q-63 -52 -158 -93.5t-196 -58.5q-55 10 -106.5 39.5t-95.5 77.5t-70.5 120t-26.5 158zM469 416q0 -42 21 -74.5 t49 -38.5q23 3 57.5 22.5t56.5 41.5l45 286q-29 29 -57 29q-62 0 -117 -81.5t-55 -184.5z" />
<glyph unicode="e" horiz-adv-x="1105" d="M-10 350q0 138 54.5 261t145.5 209t212 136t251 50q96 0 173.5 -29t126 -79t74.5 -113.5t26 -135.5q0 -85 -19 -157q-120 -50 -286 -76q-135 -22 -261 -22q-29 0 -57 1q0 -110 193 -110q92 0 195.5 21t158.5 54l10 -6l-78 -295q-89 -48 -215.5 -69t-240.5 -21 q-204 0 -333.5 101t-129.5 280zM453 561q21 -1 40 0q110 0 169 19q2 15 2 29q0 39 -16 65q-20 34 -54 35q-42 0 -85 -43.5t-56 -104.5z" />
<glyph unicode="f" horiz-adv-x="819" d="M20 -231l148 870h-143l47 270l157 84l4 19q22 133 115.5 242.5t224.5 142.5h338v-223q-106 -14 -166.5 -70.5t-68.5 -128.5h164l-58 -322l-143 -28l-115 -654l-12 -182z" />
<glyph unicode="g" horiz-adv-x="1228" d="M-27 -344l101 301h10q97 -63 262 -63q40 0 82.5 9.5t84.5 29t71 57.5t34 88l13 63h-17q-72 -48 -167 -85t-183 -44q-274 104 -274 359q0 155 71.5 300.5t201 240t282.5 94.5q151 0 254 -140h12l98 117l305 -16l-147 -824q-24 -133 -79.5 -235.5t-125 -164t-157.5 -100.5 t-169.5 -53t-168.5 -14q-253 0 -394 80zM469 416q0 -38 20 -65.5t48 -33.5q23 3 59.5 22.5t58.5 41.5l47 272q-29 29 -57 29q-62 0 -119 -82t-57 -184z" />
<glyph unicode="h" horiz-adv-x="1228" d="M-51 -10l114 641l99 575l10 180l504 31l-113 -555h12q49 57 131 100.5t168 43.5q140 0 224 -98q63 -74 64 -177q0 -34 -7 -72l-84 -487l-8 -162l-492 -20l99 575q6 33 -9 53.5t-43 20.5q-53 0 -94 -37l-65 -412l-13 -180z" />
<glyph unicode="i" horiz-adv-x="614" d="M-47 -10l131 758l16 206l496 31l-141 -805l-11 -170zM147 1233q0 78 64.5 130t189.5 52q124 0 189 -52.5t65 -129.5q0 -74 -66.5 -124t-187.5 -50q-129 0 -191.5 49.5t-62.5 124.5z" />
<glyph unicode="j" horiz-adv-x="614" d="M-203 -307q71 60 107 136.5t59 225.5l125 711l12 188l496 31l-166 -948q-43 -295 -201 -428l-424 -33zM147 1233q0 78 64.5 130t189.5 52q124 0 189 -52.5t65 -129.5q0 -74 -66.5 -124t-187.5 -50q-129 0 -191.5 49.5t-62.5 124.5z" />
<glyph unicode="k" horiz-adv-x="1249" d="M-51 -10l213 1224l10 172l498 31l-138 -772h15l244 320l522 20v-10l-404 -481l230 -474v-10l-498 -20l-145 385h-13l-37 -219l-6 -146z" />
<glyph unicode="l" horiz-adv-x="614" d="M-49 -10l131 704l70 451l22 241l506 31l-143 -753l-66 -420l-20 -234z" />
<glyph unicode="m" horiz-adv-x="1822" d="M-51 -10l137 786l12 189l437 20l6 -156h10q148 177 330 177q106 0 173.5 -50.5t90.5 -134.5h10q69 88 158 136.5t184 48.5q141 0 211 -107q48 -74 49 -177q0 -46 -10 -97l-80 -445l-10 -170l-492 -20l101 590q2 9 2 17q0 42 -47 42q-36 0 -86 -35l-74 -409l-12 -185 l-492 -20l100 590q2 10 2 18q0 41 -47 41q-37 0 -86 -35l-71 -397l-15 -197z" />
<glyph unicode="n" horiz-adv-x="1228" d="M-51 -10l127 733l22 242l439 20l4 -145h12q55 76 139.5 121t181.5 45q144 0 228 -108q61 -79 61 -190q0 -40 -8 -83l-74 -398l-18 -217l-492 -20l97 567q7 40 -6.5 61t-43.5 21q-23 0 -51 -12t-43 -25l-59 -342l-25 -250z" />
<glyph unicode="o" horiz-adv-x="1187" d="M-10 385q0 92 28.5 181.5t85.5 169t134.5 140t183 95.5t223.5 35q222 0 355 -120t133 -311q0 -82 -27 -166t-82.5 -163t-132.5 -140.5t-186 -99t-234 -37.5q-208 0 -344.5 113t-136.5 303zM469 481q-9 -53 -9 -91q0 -101 64 -101q38 0 73 46.5t52 145.5q11 60 11 103 q0 104 -64 104q-90 0 -127 -207z" />
<glyph unicode="p" horiz-adv-x="1228" d="M-121 -418l125 692l88 517l10 176l426 18l2 -160h7q44 61 148 117t208 66q119 -33 200 -125.5t81 -239.5q0 -149 -49.5 -278t-128.5 -213.5t-176 -132.5t-195 -48q-46 0 -81.5 9.5t-59 27.5t-36.5 32t-26 34h-14l-39 -277v-194zM465 326q22 -29 61 -29q63 0 114.5 74.5 t51.5 199.5q0 79 -55 105q-57 -6 -111 -60z" />
<glyph unicode="q" horiz-adv-x="1228" d="M-10 344q0 148 50 276t130 210.5t176 129t191 46.5q185 0 272 -142h6l100 119l297 -16l-211 -1196l-8 -168l-485 -21l90 512h-14q-57 -47 -148 -84t-178 -41q-111 36 -189.5 138.5t-78.5 236.5zM469 416q0 -43 19.5 -75t46.5 -38q22 3 56 22.5t54 41.5l57 286 q-29 29 -57 29q-62 0 -119 -82t-57 -184z" />
<glyph unicode="r" horiz-adv-x="901" d="M-51 -10l137 792l12 183l365 20l-4 -219h20q29 70 101 125t143.5 79.5t124.5 24.5h59l-94 -438h-33q-73 -6 -133.5 -42t-97 -87t-58.5 -100t-30 -95l-41 -223z" />
<glyph unicode="s" horiz-adv-x="983" d="M-80 80l164 291q62 -40 155 -66t160 -26q93 0 93 30q0 22 -89 43q-5 1 -8 2t-7.5 2t-8.5 2q-186 48 -261 121t-75 172q0 110 73 193t180 122.5t226 39.5q261 0 459 -134l-164 -260q-54 30 -136.5 57t-150.5 27q-63 0 -63 -22q0 -29 108 -58q173 -45 241.5 -113t68.5 -165 q0 -84 -32 -150t-82.5 -106t-118.5 -66.5t-133.5 -36.5t-133.5 -10q-266 0 -465 111z" />
<glyph unicode="t" horiz-adv-x="819" d="M29 639l47 270l157 84l27 267l500 51l-60 -336h140l-58 -326l-139 -20l-74 -402l-18 -217l-492 -20l113 649h-143z" />
<glyph unicode="u" horiz-adv-x="1228" d="M6 332l82 465l10 168l492 20l-98 -567q-2 -13 -2 -23q0 -27 13 -41q18 -18 46 -18q27 0 54 17t36 40l74 410l8 162l491 20l-137 -788l-12 -187l-438 -20l-9 135h-14q-58 -70 -144 -113t-182 -43q-136 0 -218 99q-60 73 -60 182q0 39 8 82z" />
<glyph unicode="v" d="M18 965l435 20l61 -502h12l213 482l457 20l10 -16l-598 -959l-327 -20z" />
<glyph unicode="w" horiz-adv-x="1597" d="M18 965l420 20l51 -471h15l166 451l303 20l18 -471h15l188 451l448 18l15 -16l-516 -957l-365 -20l-14 461h-12l-170 -441l-365 -20z" />
<glyph unicode="x" horiz-adv-x="1167" d="M-104 4l383 494l-226 467l457 20l82 -268l143 248l465 20l6 -12l-387 -496l228 -467l-449 -20l-82 266l-143 -246l-471 -20z" />
<glyph unicode="y" d="M-90 -307q86 57 175 174t138 248l-192 850l436 20l45 -500h8l199 480l479 20l8 -16l-600 -1006l-192 -346l-498 -41z" />
<glyph unicode="z" horiz-adv-x="1044" d="M-92 2l485 639v4l-338 -27l58 336l940 31l6 -12l-492 -641v-4l371 28l-57 -336l-967 -30z" />
<glyph unicode="{" horiz-adv-x="1044" d="M127 465l41 225q83 0 148 53.5t79 130.5q9 55 -6.5 150t-7.5 147q30 167 190.5 235.5t509.5 68.5l-45 -267q-86 0 -137 -7t-83.5 -29.5t-39.5 -63.5q-8 -49 1 -105.5t18.5 -105t3.5 -80.5q-9 -53 -60.5 -100.5t-128.5 -77.5t-159 -35l-11 -61q128 -6 208 -66t65 -145 q-6 -37 -59 -126.5t-62 -137.5q-7 -32 -2.5 -56t25 -40t68.5 -24.5t128 -8.5l-47 -267q-336 10 -479 89t-115 235q8 47 59.5 140t59.5 136q15 89 -31 141t-131 52z" />
<glyph unicode="|" horiz-adv-x="1126" d="M422 -471v2007h283v-2007h-283z" />
<glyph unicode="}" horiz-adv-x="1044" d="M-78 -328l45 267q86 0 137 7t83.5 29.5t39.5 63.5q10 61 -9 158.5t-13 132.5q9 53 60.5 100.5t128.5 77.5t159 35l10 61q-128 6 -207.5 66t-64.5 145q6 37 59 126.5t62 137.5q7 31 2.5 55.5t-25 40.5t-68.5 24.5t-128 8.5l47 267q336 -10 479 -89t115 -235 q-8 -47 -59.5 -140.5t-59.5 -136.5q-15 -89 31 -140.5t131 -51.5l-41 -225q-83 0 -148.5 -54t-79.5 -131q-9 -55 7 -150t8 -147q-30 -167 -191 -235t-510 -68z" />
<glyph unicode="~" horiz-adv-x="1085" d="M66 416q0 159 83 251.5t201 92.5q51 0 100 -21t86 -51t71.5 -59.5t70.5 -50.5t70 -21q64 0 102.5 58t38.5 141h139q0 -149 -78.5 -246.5t-204.5 -97.5q-52 0 -100 20.5t-84 50t-69.5 59t-70 50t-71.5 20.5q-67 0 -110 -56t-43 -140h-131z" />
<glyph unicode="&#xa1;" horiz-adv-x="778" d="M-12 -246l170 482l139 382l301 21l-35 -381l-76 -483zM260 950q0 95 66 161.5t161 66.5t161.5 -66.5t66.5 -161.5t-66.5 -162t-161.5 -67t-161 67t-66 162z" />
<glyph unicode="&#xa2;" horiz-adv-x="962" d="M82 588q0 120 52 229.5t135.5 186t191 122t215.5 45.5h10l57 203l138 -31l-52 -186q85 -17 172 -74l-131 -274q-58 45 -133 63l-110 -385q88 7 196 74l23 -276q-57 -36 -135 -60.5t-154 -27.5l-68 -238l-135 31l60 217q-156 29 -244 130t-88 251zM424 629q0 -98 82 -127 l106 377q-77 -16 -132.5 -85t-55.5 -165z" />
<glyph unicode="&#xa3;" horiz-adv-x="1228" d="M8 174q99 54 168.5 136t99 161.5t29.5 153.5v6h-174l35 194h115q-17 117 -17 160q0 92 32.5 167t87 124.5t128.5 83t153 48.5t164 15q227 0 383 -92l-137 -297q-33 26 -86.5 46t-105.5 20q-96 0 -156.5 -43t-60.5 -135q0 -39 14 -97h248l-35 -194h-168v-8 q0 -82 -57.5 -157t-180.5 -134l11 -29q132 59 227 59q46 0 108.5 -26.5t96.5 -26.5q83 0 151 45h13l-41 -293q-54 -43 -127 -67.5t-144 -24.5q-68 0 -183 48.5t-185 48.5q-152 0 -346 -86z" />
<glyph unicode="&#xa4;" horiz-adv-x="1310" d="M168.5 937.5q2.5 24.5 18.5 45.5t37.5 38.5t44.5 19.5t38 -11l94 -96q116 76 254 76q139 0 248 -70l88 92q15 16 40 11.5t47.5 -23t41.5 -43t22.5 -48.5t-9.5 -40l-93 -88q68 -111 68 -244q0 -136 -76 -256l98 -94q16 -16 13.5 -40.5t-18 -46t-37 -39.5t-44 -20t-38.5 13 l-103 102q-110 -72 -248 -72q-134 0 -243 64l-86 -90q-16 -17 -41.5 -14.5t-49 19.5t-43 40t-22 47t13.5 41l90 88q-71 109 -71 258q0 136 71 250l-92 90q-16 16 -13.5 40.5zM432 555q0 -104 62 -171t163 -67q93 0 155 68t62 170q0 105 -62.5 172.5t-156.5 67.5 q-103 0 -163 -68t-60 -172z" />
<glyph unicode="&#xa5;" horiz-adv-x="1372" d="M125 1382l440 21l148 -500h10l297 479l453 19l12 -21l-570 -796v-2h144l-31 -174h-145l-13 -70h146l-31 -174h-145l-2 -12l-4 -142l-512 -20l28 174h-143l31 174h143l12 70h-143l31 174h143v2z" />
<glyph unicode="&#xa6;" horiz-adv-x="1126" d="M422 246h283v-717h-283v717zM422 819v717h283v-717h-283z" />
<glyph unicode="&#xa7;" horiz-adv-x="1310" d="M-39 -211l127 299q84 -46 194.5 -76t219.5 -30q157 0 157 69q0 32 -35 56.5t-118 54.5q-125 44 -209.5 90.5t-128 95t-61 93.5t-17.5 98q0 86 53 166.5t148 144.5q-84 84 -84 188q0 158 153.5 271.5t417.5 113.5q139 0 264.5 -34.5t208.5 -81.5l-135 -312 q-74 53 -180.5 85t-218.5 32q-113 0 -113 -59q0 -25 44 -50.5t183 -76.5q106 -39 176.5 -81.5t108 -89.5t52 -93.5t14.5 -104.5q0 -81 -48.5 -158t-140.5 -139q74 -86 74 -190q0 -99 -46.5 -176.5t-129 -126t-190.5 -73t-236 -24.5q-162 0 -300.5 36t-203.5 83zM434 621 q0 -50 63.5 -94.5t211.5 -94.5q37 -14 90 -37q32 46 32 101q0 53 -50 95t-163 81q-63 20 -135 53q-49 -52 -49 -104z" />
<glyph unicode="&#xa8;" horiz-adv-x="1024" d="M164 1102q0 67 48.5 112.5t111.5 45.5q65 0 110 -45t45 -113q0 -64 -45 -109t-110 -45q-64 0 -112 44t-48 110zM578 1102q0 67 46.5 112.5t110.5 45.5q60 0 109 -45t49 -113q0 -65 -49 -109.5t-109 -44.5q-64 0 -110.5 45t-46.5 109z" />
<glyph unicode="&#xa9;" horiz-adv-x="1617" d="M170 662q0 129 51 247t137 203.5t204.5 136.5t248.5 51q180 0 327 -86.5t228.5 -232t81.5 -319.5q0 -131 -47 -248.5t-129 -204.5t-202 -138t-259 -51q-175 0 -321.5 81t-233 229t-86.5 332zM291 657q0 -228 148.5 -376t373.5 -148q222 0 368 148t146 376 q0 235 -147.5 385t-368.5 150q-143 0 -262 -68.5t-188.5 -192t-69.5 -274.5zM446 655q0 180 111 288t272 108q71 0 137.5 -21.5t106.5 -48.5l-33 -166l-14 8q-14 8 -19.5 10.5t-21.5 10.5t-26.5 12t-28.5 9.5t-32.5 8.5t-33.5 5t-37 2q-83 0 -140.5 -55.5t-57.5 -166.5 q0 -90 55.5 -148t144.5 -58q111 0 222 71l36 -164q-46 -34 -116.5 -55.5t-143.5 -21.5q-168 0 -274.5 107t-106.5 265z" />
<glyph unicode="&#xaa;" horiz-adv-x="901" d="M57 788q0 83 29 152q86 65 212.5 102t246.5 39l6 21q5 36 -21.5 48.5t-76.5 12.5q-102 0 -250 -67l-66 200q206 103 426 103q104 0 182 -35.5t117.5 -112.5t20.5 -184l-43 -229q-20 -108 16 -129v-25l-246 -86q-25 11 -43 47.5t-18 67.5h-12q-44 -53 -110.5 -82 t-141.5 -29q-98 0 -163 50t-65 136zM375 866q0 -23 14.5 -36t38.5 -13q35 0 63.5 28t32.5 99q-32 5 -75.5 -6.5t-65.5 -32.5q0 -5 -4 -17.5t-4 -21.5z" />
<glyph unicode="&#xab;" horiz-adv-x="1433" d="M88 459l4 18l559 473l154 -168l-338 -342l170 -342l-207 -116zM600 459l4 18l559 473l154 -168l-338 -342l170 -342l-207 -116z" />
<glyph unicode="&#xac;" horiz-adv-x="1085" d="M68 502v139h936v-535h-140v396h-796z" />
<glyph unicode="&#xad;" horiz-adv-x="778" d="M18 307l52 326l614 20l-51 -325z" />
<glyph unicode="&#xae;" d="M115 965q0 128 61.5 233.5t166.5 165t230 59.5q197 0 328 -131t131 -327q0 -128 -62 -234t-167 -165.5t-230 -59.5q-193 0 -325.5 128t-132.5 331zM221 963q0 -159 99 -258t255 -99q146 0 248.5 100.5t102.5 256.5q0 157 -102.5 258.5t-250.5 101.5q-159 0 -255.5 -103.5 t-96.5 -256.5zM383 725v510h180q89 0 139 -40.5t50 -109.5q0 -55 -31 -91t-84 -50l178 -211v-8h-141l-164 203h-6v-203h-121zM504 1026h71q23 0 39.5 13t16.5 44q0 25 -19 39.5t-43 14.5h-65v-111z" />
<glyph unicode="&#xaf;" horiz-adv-x="1024" d="M262 928v133h500v-133h-500z" />
<glyph unicode="&#xb0;" horiz-adv-x="757" d="M145 1128q0 121 86.5 208t206.5 87q122 0 208.5 -86.5t86.5 -208.5q0 -120 -87 -206t-208 -86q-120 0 -206.5 86t-86.5 206zM305 1128q0 -60 37 -103.5t94 -43.5q59 0 97 43.5t38 103.5q0 62 -38.5 107t-96.5 45q-57 0 -94 -45t-37 -107z" />
<glyph unicode="&#xb1;" horiz-adv-x="1126" d="M88 0v266h950v-266h-950zM88 668v266h342v321h266v-321h342v-266h-342v-322h-266v322h-342z" />
<glyph unicode="&#xb2;" horiz-adv-x="737" d="M98 987q229 136 317.5 219.5t88.5 143.5q0 59 -72 59q-94 0 -190 -57l-56 180q69 46 164 73t187 27q121 0 195.5 -45.5t74.5 -138.5q0 -92 -77.5 -184t-199.5 -162l2 -10l224 18l-45 -250l-607 -20z" />
<glyph unicode="&#xb3;" horiz-adv-x="737" d="M86 879l72 186h8q78 -35 184 -35q63 0 95 19.5t32 54.5q0 48 -84 45l-170 -8l41 186l154 -8q35 -2 62.5 14.5t27.5 48.5q0 26 -25.5 40t-70.5 14q-79 0 -166 -31h-6l-17 176q108 51 281 51q142 0 224.5 -50.5t82.5 -137.5q0 -75 -48 -127.5t-124 -79.5v-8 q57 -19 90 -56.5t33 -87.5q0 -52 -23 -94t-61.5 -68.5t-83 -45t-95 -27.5t-89 -12.5t-72.5 -3.5q-147 0 -252 45z" />
<glyph unicode="&#xb4;" horiz-adv-x="1024" d="M303 948v17l227 315h367v-20l-336 -312h-258z" />
<glyph unicode="&#xb6;" horiz-adv-x="1658" d="M143 821q0 169 101 301t269 201.5t372 69.5h755l-38 -230h-97l-233 -1308l-8 -166l-297 -21l262 1495h-103l-229 -1288l-12 -186l-297 -21l127 738q-268 0 -420 110.5t-152 304.5zM584 817q0 -94 43 -148.5t125 -54.5l98 549q-109 0 -187.5 -99.5t-78.5 -246.5z" />
<glyph unicode="&#xb7;" horiz-adv-x="696" d="M115 631q0 95 66 162t161 67t161 -67t66 -162t-66 -161.5t-161 -66.5t-161 66.5t-66 161.5z" />
<glyph unicode="&#xb8;" horiz-adv-x="1024" d="M315 -215l162 276h187l-105 -163q88 -5 149.5 -42.5t61.5 -101.5q0 -82 -115.5 -141t-322.5 -72l-15 123q78 5 130.5 22t52.5 40q0 24 -31.5 36.5t-83.5 12.5q-31 0 -63 -4z" />
<glyph unicode="&#xb9;" horiz-adv-x="737" d="M231 1337v240l428 47l33 -25l-96 -559l-10 -180l-289 -20l86 512z" />
<glyph unicode="&#xba;" horiz-adv-x="901" d="M51 920q0 71 22 140.5t66 130.5t104 107.5t141.5 73.5t172.5 27q170 0 272.5 -92t102.5 -240q0 -63 -20.5 -128t-63.5 -126t-102 -108.5t-143 -76t-181 -28.5q-161 0 -266 87t-105 233zM418.5 879q10.5 -33 44.5 -33q30 0 57 36t39 113q14 88 4 124t-45 36 q-71 0 -98 -160q-12 -83 -1.5 -116z" />
<glyph unicode="&#xbb;" horiz-adv-x="1433" d="M55 150l338 342l-170 342l207 116l342 -477l-4 -18l-559 -473zM567 150l338 342l-170 342l207 116l342 -477l-4 -18l-559 -473z" />
<glyph unicode="&#xbc;" horiz-adv-x="1679" d="M238 -39l612 746l573 733l105 -64l-598 -714l-588 -768zM242 1133v239l428 47l32 -24l-96 -559l-10 -181l-289 -20l86 512zM797 88l4 133l426 453l248 20l-70 -420l86 5l-33 -177l-86 -4l-12 -65l-8 -105l-250 -20l33 190zM1026 264l4 -6l137 6l29 178l-4 2z" />
<glyph unicode="&#xbd;" horiz-adv-x="1679" d="M238 -39l612 746l573 733l105 -64l-598 -714l-588 -768zM242 1133v239l428 47l32 -24l-96 -559l-10 -181l-289 -20l86 512zM868 55q229 136 317.5 219.5t88.5 143.5q0 59 -72 59q-94 0 -190 -57l-56 180q69 46 164 73t187 27q121 0 195.5 -45.5t74.5 -138.5 q0 -92 -77.5 -184t-199.5 -162l3 -10l223 18l-45 -250l-607 -20z" />
<glyph unicode="&#xbe;" horiz-adv-x="1679" d="M127 674l72 186h8q78 -35 184 -35q63 0 95 19.5t32 54.5q0 48 -84 45l-170 -8l41 186l154 -8q35 -2 62.5 15t27.5 49q0 53 -96 53q-79 0 -166 -31h-6l-17 176q108 51 281 51q142 0 224.5 -50.5t82.5 -137.5q0 -75 -48 -127.5t-124 -79.5v-8q57 -19 90 -56t33 -87 q0 -62 -33.5 -110t-81.5 -74t-110 -42t-109 -21t-90 -5q-147 0 -252 45zM238 -39l612 746l573 733l105 -64l-598 -714l-588 -768zM797 88l4 133l426 453l248 20l-70 -420l86 5l-33 -177l-86 -4l-12 -65l-8 -105l-250 -20l33 190zM1026 264l4 -6l137 6l29 178l-4 2z" />
<glyph unicode="&#xbf;" horiz-adv-x="1044" d="M12 49q0 70 29 126t75.5 90t103 60t112.5 43t102.5 31.5t75.5 33t29 40.5q0 11 -17 19t-43 8q-45 0 -100 -19l-43 172q112 47 276 47q132 0 214.5 -53.5t82.5 -152.5q0 -64 -25 -114t-64.5 -80t-87.5 -52.5t-96 -37t-87.5 -27t-64.5 -28.5t-25 -36q0 -41 108 -41 q47 0 106 15t103 42l60 -293q-179 -88 -408 -88q-78 0 -149 16.5t-132.5 50t-98 92.5t-36.5 136zM535 971q0 95 66 161t161 66t161 -66t66 -161q0 -96 -66 -163t-161 -67t-161 67t-66 163z" />
<glyph unicode="&#xc0;" horiz-adv-x="1536" d="M-106 0l899 1382l440 21l170 -1393l-469 -20l-12 211l-420 -15l-107 -176l-495 -20zM676 1765v21h356l217 -275v-16h-258zM694 514l215 10l-10 342h-14z" />
<glyph unicode="&#xc1;" horiz-adv-x="1536" d="M-106 0l899 1382l440 21l170 -1393l-469 -20l-12 211l-420 -15l-107 -176l-495 -20zM694 514l215 10l-10 342h-14zM831 1495v16l218 275h366v-21l-325 -270h-259z" />
<glyph unicode="&#xc2;" horiz-adv-x="1536" d="M-106 0l899 1382l440 21l170 -1393l-469 -20l-12 211l-420 -15l-107 -176l-495 -20zM682 1495v16l348 275h146l229 -275v-16h-217l-123 98l-186 -98h-197zM694 514l215 10l-10 342h-14z" />
<glyph unicode="&#xc3;" horiz-adv-x="1536" d="M-106 0l899 1382l440 21l170 -1393l-469 -20l-12 211l-420 -15l-107 -176l-495 -20zM664 1534q0 141 73.5 232.5t180.5 91.5q40 0 77.5 -21t62 -46t54.5 -46t57 -21q34 0 53 34.5t19 88.5h195q0 -142 -69.5 -232.5t-182.5 -90.5q-44 0 -84 20.5t-64 45t-51 45t-49 20.5 q-38 0 -60 -34t-22 -87h-190zM694 514l215 10l-10 342h-14z" />
<glyph unicode="&#xc4;" horiz-adv-x="1536" d="M-106 0l899 1382l440 21l170 -1393l-469 -20l-12 211l-420 -15l-107 -176l-495 -20zM692 1669q0 67 48.5 112.5t111.5 45.5q65 0 110.5 -45t45.5 -113q0 -64 -45.5 -108.5t-110.5 -44.5q-64 0 -112 43.5t-48 109.5zM694 514l215 10l-10 342h-14zM1106 1669q0 66 47 112 t111 46q60 0 108.5 -45t48.5 -113q0 -65 -48.5 -109t-108.5 -44q-64 0 -111 44.5t-47 108.5z" />
<glyph unicode="&#xc5;" horiz-adv-x="1536" d="M-106 0l899 1382l440 21l170 -1393l-469 -20l-12 211l-420 -15l-107 -176l-495 -20zM694 514l215 10l-10 342h-14zM842 1722q0 97 67 164.5t164 67.5t164.5 -67.5t67.5 -164.5t-67.5 -164t-164.5 -67t-164 67t-67 164zM995 1722q0 -34 21.5 -58t54.5 -24t55.5 24t22.5 58 q0 35 -22.5 60.5t-55.5 25.5t-54.5 -25.5t-21.5 -60.5z" />
<glyph unicode="&#xc6;" horiz-adv-x="2068" d="M-106 0l1038 1378l196 4l111 2l883 19l-88 -389l-512 -21l-25 -139l471 20l-80 -335l-450 -21l-25 -139l557 20l-88 -389l-977 -20l39 211l-414 -15l-124 -176l-506 -20zM766 518l240 10l34 181l35 225h-12z" />
<glyph unicode="&#xc7;" horiz-adv-x="1290" d="M45 569q0 174 64 331.5t174 272.5t266.5 182.5t333.5 67.5q240 0 430 -112l-82 -420h-10q-150 102 -322 102q-62 0 -122.5 -21t-114 -62t-86.5 -113.5t-33 -165.5q0 -51 18 -92t46.5 -66.5t67 -42.5t77 -24t79.5 -7q159 0 334 82h11l-80 -430q-56 -29 -146.5 -50.5 t-179.5 -27.5l-47 -75q88 -5 149.5 -42.5t61.5 -101.5q0 -82 -115.5 -141t-322.5 -72l-15 123q78 5 130.5 22t52.5 40q0 24 -31.5 36.5t-83.5 12.5q-32 0 -64 -4l-6 14l111 190q-249 31 -397 193t-148 401z" />
<glyph unicode="&#xc8;" d="M-37 -10l135 719l72 465l16 208l1014 21l-88 -389l-512 -21l-25 -139l472 20l-80 -335l-451 -21l-24 -139l557 20l-88 -389zM362 1765v21h357l217 -275v-16h-258z" />
<glyph unicode="&#xc9;" d="M-37 -10l135 719l72 465l16 208l1014 21l-88 -389l-512 -21l-25 -139l472 20l-80 -335l-451 -21l-24 -139l557 20l-88 -389zM518 1495v16l217 275h367v-21l-326 -270h-258z" />
<glyph unicode="&#xca;" d="M-37 -10l135 719l72 465l16 208l1014 21l-88 -389l-512 -21l-25 -139l472 20l-80 -335l-451 -21l-24 -139l557 20l-88 -389zM369 1495v16l348 275h145l230 -275v-16h-218l-122 98l-187 -98h-196z" />
<glyph unicode="&#xcb;" d="M-37 -10l135 719l72 465l16 208l1014 21l-88 -389l-512 -21l-25 -139l472 20l-80 -335l-451 -21l-24 -139l557 20l-88 -389zM379 1669q0 67 48.5 112.5t111.5 45.5q65 0 110 -45t45 -113q0 -64 -45 -108.5t-110 -44.5q-64 0 -112 43.5t-48 109.5zM793 1669 q0 67 46.5 112.5t110.5 45.5q60 0 109 -45t49 -113q0 -65 -49 -109t-109 -44q-64 0 -110.5 44.5t-46.5 108.5z" />
<glyph unicode="&#xcc;" horiz-adv-x="675" d="M-31 -10l140 749l57 377l27 266l520 21l-131 -698l-74 -474l-19 -221zM102 1765v21h357l217 -275v-16h-258z" />
<glyph unicode="&#xcd;" horiz-adv-x="675" d="M-31 -10l140 749l57 377l27 266l520 21l-131 -698l-74 -474l-19 -221zM258 1495v16l217 275h367v-21l-326 -270h-258z" />
<glyph unicode="&#xce;" horiz-adv-x="675" d="M-31 -10l140 749l57 377l27 266l520 21l-131 -698l-74 -474l-19 -221zM109 1495v16l348 275h145l229 -275v-16h-217l-122 98l-187 -98h-196z" />
<glyph unicode="&#xcf;" horiz-adv-x="675" d="M-31 -10l140 749l57 377l27 266l520 21l-131 -698l-74 -474l-19 -221zM119 1669q0 67 48.5 112.5t111.5 45.5q65 0 110 -45t45 -113q0 -64 -45 -108.5t-110 -44.5q-64 0 -112 43.5t-48 109.5zM532 1669q0 66 47 112t111 46q60 0 109 -45t49 -113q0 -65 -49 -109t-109 -44 q-64 0 -111 44.5t-47 108.5z" />
<glyph unicode="&#xd0;" horiz-adv-x="1433" d="M-39 590l21 186l124 4l64 394l16 208l482 21q153 5 285 -33t229.5 -113.5t153 -193.5t55.5 -264q0 -177 -65.5 -323t-181 -245.5t-273.5 -156.5t-343 -64l-565 -20l113 602zM502 410l86 4q51 2 103.5 24t99.5 62.5t76.5 108t29.5 149.5q0 60 -19.5 106.5t-50 72.5 t-64.5 38.5t-67 11.5l-94 -4l-39 -190l131 4l-20 -187l-144 -4z" />
<glyph unicode="&#xd1;" horiz-adv-x="1556" d="M-39 -10l244 1392l413 21l375 -696h15l75 452l19 223l502 21l-244 -1393l-414 -20l-377 690h-14l-72 -440l-20 -230zM545 1534q0 141 73.5 232.5t180.5 91.5q40 0 78 -21t62 -46t54.5 -46t57.5 -21q34 0 52.5 34t18.5 89h195q0 -142 -69.5 -232.5t-182.5 -90.5 q-44 0 -84 20.5t-64 45t-51 45t-49 20.5q-38 0 -60 -34t-22 -87h-190z" />
<glyph unicode="&#xd2;" horiz-adv-x="1617" d="M45 571q0 111 27 217.5t77.5 201t127.5 174t173 137t218.5 90t259.5 32.5q177 0 324 -74.5t236 -217.5t89 -328q0 -188 -66.5 -345t-183 -264t-277 -166t-345.5 -59q-133 0 -251.5 40t-210 114t-145 190t-53.5 258zM543 618q0 -112 61.5 -165.5t157.5 -53.5 q61 0 118 24.5t102 69.5t71.5 116t25.5 157q-1 107 -62.5 167t-156.5 60q-58 0 -114 -25t-101.5 -70.5t-73.5 -118.5t-28 -161zM590 1765v21h356l217 -275v-16h-258z" />
<glyph unicode="&#xd3;" horiz-adv-x="1617" d="M45 571q0 111 27 217.5t77.5 201t127.5 174t173 137t218.5 90t259.5 32.5q177 0 324 -74.5t236 -217.5t89 -328q0 -188 -66.5 -345t-183 -264t-277 -166t-345.5 -59q-133 0 -251.5 40t-210 114t-145 190t-53.5 258zM543 618q0 -112 61.5 -165.5t157.5 -53.5 q61 0 118 24.5t102 69.5t71.5 116t25.5 157q-1 107 -62.5 167t-156.5 60q-58 0 -114 -25t-101.5 -70.5t-73.5 -118.5t-28 -161zM745 1495v16l218 275h366v-21l-325 -270h-259z" />
<glyph unicode="&#xd4;" horiz-adv-x="1617" d="M45 571q0 111 27 217.5t77.5 201t127.5 174t173 137t218.5 90t259.5 32.5q177 0 324 -74.5t236 -217.5t89 -328q0 -188 -66.5 -345t-183 -264t-277 -166t-345.5 -59q-133 0 -251.5 40t-210 114t-145 190t-53.5 258zM543 618q0 -112 61.5 -165.5t157.5 -53.5 q61 0 118 24.5t102 69.5t71.5 116t25.5 157q-1 107 -62.5 167t-156.5 60q-58 0 -114 -25t-101.5 -70.5t-73.5 -118.5t-28 -161zM596 1495v16l348 275h146l229 -275v-16h-217l-123 98l-186 -98h-197z" />
<glyph unicode="&#xd5;" horiz-adv-x="1617" d="M45 571q0 111 27 217.5t77.5 201t127.5 174t173 137t218.5 90t259.5 32.5q177 0 324 -74.5t236 -217.5t89 -328q0 -188 -66.5 -345t-183 -264t-277 -166t-345.5 -59q-133 0 -251.5 40t-210 114t-145 190t-53.5 258zM543 618q0 -112 61.5 -165.5t157.5 -53.5 q61 0 118 24.5t102 69.5t71.5 116t25.5 157q-1 107 -62.5 167t-156.5 60q-58 0 -114 -25t-101.5 -70.5t-73.5 -118.5t-28 -161zM578 1534q0 141 73 232.5t180 91.5q40 0 78 -21t62 -46t54.5 -46t57.5 -21q34 0 53 34.5t19 88.5h195q0 -142 -69.5 -232.5t-182.5 -90.5 q-44 0 -84 20.5t-64 45t-51 45t-49 20.5q-38 0 -60 -34t-22 -87h-190z" />
<glyph unicode="&#xd6;" horiz-adv-x="1617" d="M45 571q0 111 27 217.5t77.5 201t127.5 174t173 137t218.5 90t259.5 32.5q177 0 324 -74.5t236 -217.5t89 -328q0 -188 -66.5 -345t-183 -264t-277 -166t-345.5 -59q-133 0 -251.5 40t-210 114t-145 190t-53.5 258zM543 618q0 -112 61.5 -165.5t157.5 -53.5 q61 0 118 24.5t102 69.5t71.5 116t25.5 157q-1 107 -62.5 167t-156.5 60q-58 0 -114 -25t-101.5 -70.5t-73.5 -118.5t-28 -161zM606 1669q0 67 48.5 112.5t111.5 45.5q65 0 110.5 -45t45.5 -113q0 -64 -45.5 -108.5t-110.5 -44.5q-64 0 -112 43.5t-48 109.5zM1020 1669 q0 66 47 112t111 46q60 0 108.5 -45t48.5 -113q0 -65 -48.5 -109t-108.5 -44q-64 0 -111 44.5t-47 108.5z" />
<glyph unicode="&#xd7;" horiz-adv-x="1126" d="M78 319l297 297l-297 297l188 189l297 -297l297 297l189 -189l-297 -297l297 -297l-189 -188l-297 297l-297 -297z" />
<glyph unicode="&#xd8;" horiz-adv-x="1617" d="M45 571q0 111 27 217.5t77.5 201t127.5 174t173 137t218.5 90t259.5 32.5q192 0 346 -88l98 117l90 -66l-96 -116q99 -82 155 -201.5t56 -265.5q0 -188 -66.5 -345t-183 -264t-277 -166t-345.5 -59q-197 0 -351 80l-123 -147l-90 69l117 140q-213 168 -213 460zM543 618 q0 -76 30 -126l396 475q-50 26 -109 26q-58 0 -114 -25t-101.5 -70.5t-73.5 -118.5t-28 -161zM659 418q42 -19 103 -19t118 24.5t102 69.5t71.5 116t25.5 157q-3 70 -30 123z" />
<glyph unicode="&#xd9;" horiz-adv-x="1454" d="M46.5 414.5q0.5 52.5 6.5 101.5l119 666l14 200l512 21l-149 -832q-15 -80 22.5 -126t116.5 -46q66 0 116.5 46t63.5 126l105 629l12 182l512 21l-149 -862q-46 -259 -252 -415.5t-504 -156.5q-95 0 -175.5 18.5t-137.5 50.5t-102.5 75t-71 92.5t-42.5 103t-16.5 106z M506 1765v21h356l217 -275v-16h-258z" />
<glyph unicode="&#xda;" horiz-adv-x="1454" d="M46.5 414.5q0.5 52.5 6.5 101.5l119 666l14 200l512 21l-149 -832q-15 -80 22.5 -126t116.5 -46q66 0 116.5 46t63.5 126l105 629l12 182l512 21l-149 -862q-46 -259 -252 -415.5t-504 -156.5q-95 0 -175.5 18.5t-137.5 50.5t-102.5 75t-71 92.5t-42.5 103t-16.5 106z M662 1495v16l217 275h366v-21l-325 -270h-258z" />
<glyph unicode="&#xdb;" horiz-adv-x="1454" d="M46.5 414.5q0.5 52.5 6.5 101.5l119 666l14 200l512 21l-149 -832q-15 -80 22.5 -126t116.5 -46q66 0 116.5 46t63.5 126l105 629l12 182l512 21l-149 -862q-46 -259 -252 -415.5t-504 -156.5q-95 0 -175.5 18.5t-137.5 50.5t-102.5 75t-71 92.5t-42.5 103t-16.5 106z M512 1495v16l348 275h146l229 -275v-16h-217l-123 98l-186 -98h-197z" />
<glyph unicode="&#xdc;" horiz-adv-x="1454" d="M46.5 414.5q0.5 52.5 6.5 101.5l119 666l14 200l512 21l-149 -832q-15 -80 22.5 -126t116.5 -46q66 0 116.5 46t63.5 126l105 629l12 182l512 21l-149 -862q-46 -259 -252 -415.5t-504 -156.5q-95 0 -175.5 18.5t-137.5 50.5t-102.5 75t-71 92.5t-42.5 103t-16.5 106z M522 1669q0 67 48.5 112.5t111.5 45.5q65 0 110.5 -45t45.5 -113q0 -64 -45.5 -108.5t-110.5 -44.5q-64 0 -112 43.5t-48 109.5zM936 1669q0 66 47 112t111 46q60 0 108.5 -45t48.5 -113q0 -65 -48.5 -109t-108.5 -44q-64 0 -111 44.5t-47 108.5z" />
<glyph unicode="&#xdd;" horiz-adv-x="1413" d="M104 1382l471 21l162 -459h11l278 438l512 21l6 -19l-616 -841l-94 -533l-492 -20l94 553zM612 1495v16l217 275h367v-21l-326 -270h-258z" />
<glyph unicode="&#xde;" horiz-adv-x="1290" d="M-37 -10l211 1200l12 192l502 21l-39 -217l88 2q248 0 391.5 -105.5t143.5 -306.5q0 -111 -42.5 -205t-111.5 -156.5t-159 -107t-184 -64.5t-187 -20l-109 -2l-6 -43l-8 -168zM541 561l94 6q75 0 115 42.5t43 107.5q0 46 -30 75t-83 29l-94 -6z" />
<glyph unicode="&#xdf;" horiz-adv-x="1536" d="M2 -231l145 870h-122l47 270l137 82l2 17q15 82 64.5 154t131 130t204 91.5t270.5 33.5q226 0 374.5 -84t190.5 -237.5t-43 -370.5q-117 17 -201 4t-84 -57q0 -24 62 -43q256 -80 256 -275q0 -121 -64.5 -209.5t-171 -131t-239.5 -42.5q-225 0 -347 82l125 279 q113 -58 222 -58q73 0 73 35q0 24 -67 49q-131 39 -184.5 105.5t-53.5 159.5q0 119 84 210t223 115q13 60 -35 96.5t-133 36.5q-91 0 -145 -44t-64 -105l-165 -965l-11 -178z" />
<glyph unicode="&#xe0;" d="M-16 250q0 80 26 151q110 89 277.5 139t322.5 52l4 26q5 34 -13.5 52.5t-44.5 23t-69 4.5q-67 0 -152.5 -25t-160.5 -63l-86 262q107 54 253 94t300 40q101 0 184 -27.5t142 -79.5t84 -136t6 -190l-58 -313q-24 -139 23 -166v-18l-330 -113q-28 15 -51 59.5t-23 79.5h-10 q-60 -47 -156.5 -85t-191.5 -50q-134 24 -205 102t-71 181zM303 1409v21h356l218 -316v-16h-248zM412 365q-14 -40 0.5 -73t54.5 -42q74 6 119 51l10 113q-44 6 -100 -8t-84 -41z" />
<glyph unicode="&#xe1;" d="M-16 250q0 80 26 151q110 89 277.5 139t322.5 52l4 26q5 34 -13.5 52.5t-44.5 23t-69 4.5q-67 0 -152.5 -25t-160.5 -63l-86 262q107 54 253 94t300 40q101 0 184 -27.5t142 -79.5t84 -136t6 -190l-58 -313q-24 -139 23 -166v-18l-330 -113q-28 15 -51 59.5t-23 79.5h-10 q-60 -47 -156.5 -85t-191.5 -50q-134 24 -205 102t-71 181zM412 365q-14 -40 0.5 -73t54.5 -42q74 6 119 51l10 113q-44 6 -100 -8t-84 -41zM449 1098v16l227 316h366v-21l-335 -311h-258z" />
<glyph unicode="&#xe2;" d="M-16 250q0 80 26 151q110 89 277.5 139t322.5 52l4 26q5 34 -13.5 52.5t-44.5 23t-69 4.5q-67 0 -152.5 -25t-160.5 -63l-86 262q107 54 253 94t300 40q101 0 184 -27.5t142 -79.5t84 -136t6 -190l-58 -313q-24 -139 23 -166v-18l-330 -113q-28 15 -51 59.5t-23 79.5h-10 q-60 -47 -156.5 -85t-191.5 -50q-134 24 -205 102t-71 181zM315 1098v16l340 316h125l258 -316v-16h-211l-135 112l-174 -112h-203zM412 365q-14 -40 0.5 -73t54.5 -42q74 6 119 51l10 113q-44 6 -100 -8t-84 -41z" />
<glyph unicode="&#xe3;" d="M-16 250q0 80 26 151q110 89 277.5 139t322.5 52l4 26q5 34 -13.5 52.5t-44.5 23t-69 4.5q-67 0 -152.5 -25t-160.5 -63l-86 262q107 54 253 94t300 40q101 0 184 -27.5t142 -79.5t84 -136t6 -190l-58 -313q-24 -139 23 -166v-18l-330 -113q-28 15 -51 59.5t-23 79.5h-10 q-60 -47 -156.5 -85t-191.5 -50q-134 24 -205 102t-71 181zM281 1116q0 141 73.5 232.5t180.5 91.5q40 0 77.5 -21t62 -45.5t54.5 -45.5t57 -21q34 0 53 34.5t19 88.5h195q0 -142 -69.5 -233t-182.5 -91q-44 0 -84 20.5t-64 45t-51 45t-49 20.5q-38 0 -60 -34t-22 -87h-190z M412 365q-14 -40 0.5 -73t54.5 -42q74 6 119 51l10 113q-44 6 -100 -8t-84 -41z" />
<glyph unicode="&#xe4;" d="M-16 250q0 80 26 151q110 89 277.5 139t322.5 52l4 26q5 34 -13.5 52.5t-44.5 23t-69 4.5q-67 0 -152.5 -25t-160.5 -63l-86 262q107 54 253 94t300 40q101 0 184 -27.5t142 -79.5t84 -136t6 -190l-58 -313q-24 -139 23 -166v-18l-330 -113q-28 15 -51 59.5t-23 79.5h-10 q-60 -47 -156.5 -85t-191.5 -50q-134 24 -205 102t-71 181zM309 1251q0 67 48.5 112.5t111.5 45.5q65 0 110.5 -45t45.5 -113q0 -64 -45.5 -108.5t-110.5 -44.5q-64 0 -112 43.5t-48 109.5zM412 365q-14 -40 0.5 -73t54.5 -42q74 6 119 51l10 113q-44 6 -100 -8t-84 -41z M723 1251q0 66 47 112t111 46q60 0 108.5 -45t48.5 -113q0 -65 -48.5 -109t-108.5 -44q-64 0 -111 44.5t-47 108.5z" />
<glyph unicode="&#xe5;" d="M-16 250q0 80 26 151q110 89 277.5 139t322.5 52l4 26q5 34 -13.5 52.5t-44.5 23t-69 4.5q-67 0 -152.5 -25t-160.5 -63l-86 262q107 54 253 94t300 40q101 0 184 -27.5t142 -79.5t84 -136t6 -190l-58 -313q-24 -139 23 -166v-18l-330 -113q-28 15 -51 59.5t-23 79.5h-10 q-60 -47 -156.5 -85t-191.5 -50q-134 24 -205 102t-71 181zM412 365q-14 -40 0.5 -73t54.5 -42q74 6 119 51l10 113q-44 6 -100 -8t-84 -41zM459 1305q0 97 67 164t164 67t164.5 -67t67.5 -164t-67.5 -164.5t-164.5 -67.5t-164 67.5t-67 164.5zM612 1305q0 -34 21.5 -58 t54.5 -24t55.5 24t22.5 58q0 35 -22.5 60.5t-55.5 25.5t-54.5 -25.5t-21.5 -60.5z" />
<glyph unicode="&#xe6;" horiz-adv-x="1679" d="M-16 242q0 81 26 161q115 86 283 136.5t325 52.5l7 26q8 48 -27 64t-100 16q-137 0 -324 -88l-86 262q107 54 253 94t300 40t256 -121q156 121 330 121q96 0 173 -29t126 -79t74.5 -113.5t25.5 -135.5q0 -89 -18 -157q-120 -50 -286 -76.5t-318 -20.5q0 -110 192 -110 q92 0 195.5 21t158.5 54l11 -6l-78 -295q-89 -48 -216 -69t-241 -21q-118 0 -210 44t-146 128q-152 -134 -389 -172q-130 18 -213.5 89.5t-83.5 183.5zM422 365q-14 -40 0.5 -73t54.5 -42q69 5 131 63l-8 101q-44 6 -96.5 -8t-81.5 -41zM1026 561q139 -4 209 19 q7 60 -13.5 94.5t-54.5 34.5q-42 0 -85 -43.5t-56 -104.5z" />
<glyph unicode="&#xe7;" horiz-adv-x="983" d="M-10 389q0 134 53.5 250.5t143 196t208.5 125t248 45.5q193 0 340 -78l-59 -312h-11q-97 62 -229 62q-92 0 -153.5 -64t-61.5 -149q0 -48 16.5 -82t45 -51.5t59.5 -25t67 -7.5q122 0 213 51h11l-52 -309q-118 -60 -270 -70l-47 -73q88 -5 149.5 -42.5t61.5 -101.5 q0 -82 -115.5 -141t-322.5 -72l-15 123q78 5 130.5 22t52.5 40q0 24 -31.5 36.5t-83.5 12.5q-32 0 -64 -4l-6 14l113 192q-185 26 -288 136t-103 276z" />
<glyph unicode="&#xe8;" horiz-adv-x="1105" d="M-10 350q0 138 54.5 261t145.5 209t212 136t251 50q96 0 173.5 -29t126 -79t74.5 -113.5t26 -135.5q0 -85 -19 -157q-120 -50 -286 -76.5t-318 -20.5q0 -110 193 -110q92 0 195.5 21t158.5 54l10 -6l-78 -295q-89 -48 -215.5 -69t-240.5 -21q-204 0 -333.5 101 t-129.5 280zM276 1409v21h357l217 -316v-16h-248zM453 561q139 -4 209 19q7 60 -13.5 94.5t-54.5 34.5q-42 0 -85 -43.5t-56 -104.5z" />
<glyph unicode="&#xe9;" horiz-adv-x="1105" d="M-10 350q0 138 54.5 261t145.5 209t212 136t251 50q96 0 173.5 -29t126 -79t74.5 -113.5t26 -135.5q0 -85 -19 -157q-120 -50 -286 -76.5t-318 -20.5q0 -110 193 -110q92 0 195.5 21t158.5 54l10 -6l-78 -295q-89 -48 -215.5 -69t-240.5 -21q-204 0 -333.5 101 t-129.5 280zM422 1098v16l227 316h367v-21l-336 -311h-258zM453 561q139 -4 209 19q7 60 -13.5 94.5t-54.5 34.5q-42 0 -85 -43.5t-56 -104.5z" />
<glyph unicode="&#xea;" horiz-adv-x="1105" d="M-10 350q0 138 54.5 261t145.5 209t212 136t251 50q96 0 173.5 -29t126 -79t74.5 -113.5t26 -135.5q0 -85 -19 -157q-120 -50 -286 -76.5t-318 -20.5q0 -110 193 -110q92 0 195.5 21t158.5 54l10 -6l-78 -295q-89 -48 -215.5 -69t-240.5 -21q-204 0 -333.5 101 t-129.5 280zM289 1098v16l340 316h125l258 -316v-16h-211l-135 112l-174 -112h-203zM453 561q139 -4 209 19q7 60 -13.5 94.5t-54.5 34.5q-42 0 -85 -43.5t-56 -104.5z" />
<glyph unicode="&#xeb;" horiz-adv-x="1105" d="M-10 350q0 138 54.5 261t145.5 209t212 136t251 50q96 0 173.5 -29t126 -79t74.5 -113.5t26 -135.5q0 -85 -19 -157q-120 -50 -286 -76.5t-318 -20.5q0 -110 193 -110q92 0 195.5 21t158.5 54l10 -6l-78 -295q-89 -48 -215.5 -69t-240.5 -21q-204 0 -333.5 101 t-129.5 280zM283 1251q0 67 48 112.5t111 45.5q65 0 110.5 -45t45.5 -113q0 -64 -45.5 -108.5t-110.5 -44.5q-64 0 -111.5 43.5t-47.5 109.5zM453 561q139 -4 209 19q7 60 -13.5 94.5t-54.5 34.5q-42 0 -85 -43.5t-56 -104.5zM696 1251q0 66 47 112t111 46q60 0 109 -45 t49 -113q0 -65 -49 -109t-109 -44q-64 0 -111 44.5t-47 108.5z" />
<glyph unicode="&#xec;" horiz-adv-x="614" d="M-47 -10l131 758l16 206l496 31l-141 -805l-11 -170zM23 1409v21h356l217 -316v-16h-248z" />
<glyph unicode="&#xed;" horiz-adv-x="614" d="M-47 -10l131 758l16 206l496 31l-141 -805l-11 -170zM168 1098v16l227 316h367v-21l-336 -311h-258z" />
<glyph unicode="&#xee;" horiz-adv-x="614" d="M-47 -10l131 758l16 206l496 31l-141 -805l-11 -170zM35 1098v16l340 316h125l258 -316v-16h-211l-135 112l-174 -112h-203z" />
<glyph unicode="&#xef;" horiz-adv-x="614" d="M-47 -10l131 758l16 206l496 31l-141 -805l-11 -170zM29 1251q0 67 48 112.5t111 45.5q65 0 110.5 -45t45.5 -113q0 -64 -45.5 -108.5t-110.5 -44.5q-64 0 -111.5 43.5t-47.5 109.5zM442 1251q0 66 47 112t111 46q60 0 109 -45t49 -113q0 -65 -49 -109t-109 -44 q-64 0 -111 44.5t-47 108.5z" />
<glyph unicode="&#xf0;" horiz-adv-x="1187" d="M-10 397q0 112 49.5 215.5t130 175.5t184.5 115t211 43q89 0 137.5 -12t88.5 -39l8 4q-13 47 -60.5 94t-117.5 86l-64 -86l-123 82l47 62q-53 16 -116 26l127 281q91 -26 174 -62l73 97l123 -82l-61 -82q338 -200 338 -598q0 -219 -78.5 -388.5t-224 -263.5t-336.5 -94 q-226 0 -368 118t-142 308zM465 481q-34 -192 55 -192q38 0 73 46.5t52 145.5q37 207 -53 207t-127 -207z" />
<glyph unicode="&#xf1;" horiz-adv-x="1228" d="M-51 -10l127 733l22 242l439 20l4 -145h12q55 76 139.5 121t181.5 45q144 0 227.5 -108t53.5 -273l-74 -398l-18 -217l-492 -20l97 567q7 40 -6.5 61t-43.5 21q-23 0 -51 -12t-43 -25l-59 -342l-25 -250zM295 1116q0 141 73.5 232.5t180.5 91.5q40 0 78 -21t62 -45.5 t54.5 -45.5t57.5 -21q34 0 52.5 34t18.5 89h195q0 -142 -69.5 -233t-182.5 -91q-44 0 -84 20.5t-64 45t-51 45t-49 20.5q-38 0 -60 -34t-22 -87h-190z" />
<glyph unicode="&#xf2;" horiz-adv-x="1187" d="M-10 385q0 92 28.5 181.5t85.5 169t134.5 140t183 95.5t223.5 35q222 0 355 -120t133 -311q0 -82 -27 -166t-82.5 -163t-132.5 -140.5t-186 -99t-234 -37.5q-208 0 -344.5 113t-136.5 303zM301 1409v21h356l217 -316v-16h-247zM469 481q-34 -192 55 -192q38 0 73 46.5 t52 145.5q37 207 -53 207t-127 -207z" />
<glyph unicode="&#xf3;" horiz-adv-x="1187" d="M-10 385q0 92 28.5 181.5t85.5 169t134.5 140t183 95.5t223.5 35q222 0 355 -120t133 -311q0 -82 -27 -166t-82.5 -163t-132.5 -140.5t-186 -99t-234 -37.5q-208 0 -344.5 113t-136.5 303zM446 1098v16l228 316h366v-21l-335 -311h-259zM469 481q-34 -192 55 -192 q38 0 73 46.5t52 145.5q37 207 -53 207t-127 -207z" />
<glyph unicode="&#xf4;" horiz-adv-x="1187" d="M-10 385q0 92 28.5 181.5t85.5 169t134.5 140t183 95.5t223.5 35q222 0 355 -120t133 -311q0 -82 -27 -166t-82.5 -163t-132.5 -140.5t-186 -99t-234 -37.5q-208 0 -344.5 113t-136.5 303zM313 1098v16l340 316h125l258 -316v-16h-211l-135 112l-174 -112h-203zM469 481 q-34 -192 55 -192q38 0 73 46.5t52 145.5q37 207 -53 207t-127 -207z" />
<glyph unicode="&#xf5;" horiz-adv-x="1187" d="M-10 385q0 92 28.5 181.5t85.5 169t134.5 140t183 95.5t223.5 35q222 0 355 -120t133 -311q0 -82 -27 -166t-82.5 -163t-132.5 -140.5t-186 -99t-234 -37.5q-208 0 -344.5 113t-136.5 303zM279 1116q0 141 73 232.5t180 91.5q40 0 78 -21t62 -45.5t54.5 -45.5t57.5 -21 q34 0 53 34.5t19 88.5h195q0 -142 -69.5 -233t-182.5 -91q-44 0 -84 20.5t-64 45t-51 45t-49 20.5q-38 0 -60 -34t-22 -87h-190zM469 481q-34 -192 55 -192q38 0 73 46.5t52 145.5q37 207 -53 207t-127 -207z" />
<glyph unicode="&#xf6;" horiz-adv-x="1187" d="M-10 385q0 92 28.5 181.5t85.5 169t134.5 140t183 95.5t223.5 35q222 0 355 -120t133 -311q0 -82 -27 -166t-82.5 -163t-132.5 -140.5t-186 -99t-234 -37.5q-208 0 -344.5 113t-136.5 303zM307 1251q0 67 48.5 112.5t111.5 45.5q65 0 110.5 -45t45.5 -113 q0 -64 -45.5 -108.5t-110.5 -44.5q-64 0 -112 43.5t-48 109.5zM469 481q-34 -192 55 -192q38 0 73 46.5t52 145.5q37 207 -53 207t-127 -207zM721 1251q0 66 47 112t111 46q60 0 108.5 -45t48.5 -113q0 -65 -48.5 -109t-108.5 -44q-64 0 -111 44.5t-47 108.5z" />
<glyph unicode="&#xf7;" horiz-adv-x="1126" d="M68 483v267h991v-267h-991zM377 223q0 77 53.5 132t132.5 55q77 0 132 -55t55 -132q0 -79 -55 -133.5t-132 -54.5q-79 0 -132.5 54t-53.5 134zM377 1010q0 79 53.5 133.5t132.5 54.5q77 0 132 -55t55 -133t-55 -132.5t-132 -54.5q-79 0 -132.5 54.5t-53.5 132.5z" />
<glyph unicode="&#xf8;" horiz-adv-x="1187" d="M-10 385q0 92 28.5 181.5t85.5 169t134.5 140t183 95.5t223.5 35q148 0 266 -62l80 82l94 -76l-73 -76q121 -118 121 -299q0 -82 -27 -166t-82.5 -163t-132.5 -140.5t-186 -99t-234 -37.5q-138 0 -256 56l-78 -91l-94 76l72 82q-125 112 -125 293zM463 453l188 196 q-14 39 -55 39q-90 0 -127 -207zM471 319q13 -30 53 -30q38 0 73 46.5t52 145.5q4 20 4 29z" />
<glyph unicode="&#xf9;" horiz-adv-x="1228" d="M6 332l82 465l10 168l492 20l-98 -567q-7 -45 11 -63.5t46 -18.5q27 0 54 17t36 40l74 410l8 162l491 20l-137 -788l-12 -187l-438 -20l-9 135h-14q-58 -70 -144 -113t-182 -43q-136 0 -217.5 99t-52.5 264zM322 1409v21h356l217 -316v-16h-248z" />
<glyph unicode="&#xfa;" horiz-adv-x="1228" d="M6 332l82 465l10 168l492 20l-98 -567q-7 -45 11 -63.5t46 -18.5q27 0 54 17t36 40l74 410l8 162l491 20l-137 -788l-12 -187l-438 -20l-9 135h-14q-58 -70 -144 -113t-182 -43q-136 0 -217.5 99t-52.5 264zM467 1098v16l227 316h367v-21l-336 -311h-258z" />
<glyph unicode="&#xfb;" horiz-adv-x="1228" d="M6 332l82 465l10 168l492 20l-98 -567q-7 -45 11 -63.5t46 -18.5q27 0 54 17t36 40l74 410l8 162l491 20l-137 -788l-12 -187l-438 -20l-9 135h-14q-58 -70 -144 -113t-182 -43q-136 0 -217.5 99t-52.5 264zM334 1098v16l340 316h125l258 -316v-16h-211l-135 112 l-174 -112h-203z" />
<glyph unicode="&#xfc;" horiz-adv-x="1228" d="M6 332l82 465l10 168l492 20l-98 -567q-7 -45 11 -63.5t46 -18.5q27 0 54 17t36 40l74 410l8 162l491 20l-137 -788l-12 -187l-438 -20l-9 135h-14q-58 -70 -144 -113t-182 -43q-136 0 -217.5 99t-52.5 264zM328 1251q0 67 48 112.5t111 45.5q65 0 110.5 -45t45.5 -113 q0 -64 -45.5 -108.5t-110.5 -44.5q-64 0 -111.5 43.5t-47.5 109.5zM741 1251q0 66 47 112t111 46q60 0 109 -45t49 -113q0 -65 -49 -109t-109 -44q-64 0 -111 44.5t-47 108.5z" />
<glyph unicode="&#xfd;" d="M-90 -307q86 57 175 174t138 248l-192 850l436 20l45 -500h8l199 480l479 20l8 -16l-600 -1006l-192 -346l-498 -41zM410 1098v16l227 316h367v-21l-336 -311h-258z" />
<glyph unicode="&#xfe;" horiz-adv-x="1228" d="M-121 -418l125 692l154 938l10 177l496 28l-113 -571h6q40 53 138.5 102.5t197.5 59.5q119 -33 200 -125.5t81 -239.5q0 -149 -49.5 -278t-128.5 -213.5t-176 -132.5t-195 -48q-46 0 -81.5 9.5t-59 27.5t-36.5 32t-26 34h-14l-39 -277v-194zM465 326q22 -29 61 -29 q63 0 114.5 74.5t51.5 199.5q0 79 -55 105q-57 -6 -111 -60z" />
<glyph unicode="&#xff;" d="M-90 -307q86 57 175 174t138 248l-192 850l436 20l45 -500h8l199 480l479 20l8 -16l-600 -1006l-192 -346l-498 -41zM270 1251q0 67 48.5 112.5t111.5 45.5q65 0 110.5 -45t45.5 -113q0 -64 -45.5 -108.5t-110.5 -44.5q-64 0 -112 43.5t-48 109.5zM684 1251q0 66 47 112 t111 46q60 0 108.5 -45t48.5 -113q0 -65 -48.5 -109t-108.5 -44q-64 0 -111 44.5t-47 108.5z" />
<glyph unicode="&#x152;" horiz-adv-x="2088" d="M45 571q0 111 27 217.5t77.5 201t127.5 174t173 137t218.5 90t259.5 32.5q127 0 239 -41l975 21l-88 -389l-512 -21l-24 -139l471 20l-80 -335l-451 -21l-24 -139l557 20l-88 -389l-990 -20q-115 -21 -208 -21q-133 0 -251.5 40t-210 114t-145 190t-53.5 258zM543 618 q0 -111 59 -165t150 -54q58 0 113 24.5t99 69.5t70 116t25 157q-1 107 -59.5 167t-149.5 60q-120 0 -213.5 -101.5t-93.5 -273.5z" />
<glyph unicode="&#x153;" horiz-adv-x="1740" d="M-10 385q0 92 28.5 181.5t85.5 169t134.5 140t183 95.5t223.5 35q187 0 309 -119q160 119 334 119q96 0 173.5 -29t126 -79t74.5 -113.5t26 -135.5q0 -85 -19 -157q-120 -50 -286 -76.5t-318 -20.5q0 -110 192 -110q92 0 196 21t159 54l10 -6l-78 -295q-89 -48 -216 -69 t-241 -21q-80 0 -154.5 27t-129.5 70q-179 -97 -332 -97q-208 0 -344.5 113t-136.5 303zM469 481q-34 -192 55 -192q38 0 73 46.5t52 145.5q37 207 -53 207t-127 -207zM1087 561q139 -4 209 19q7 60 -13 94.5t-54 34.5q-43 0 -86 -43.5t-56 -104.5z" />
<glyph unicode="&#x178;" horiz-adv-x="1413" d="M104 1382l471 21l162 -459h11l278 438l512 21l6 -19l-616 -841l-94 -533l-492 -20l94 553zM473 1669q0 67 48.5 112.5t111.5 45.5q65 0 110 -45t45 -113q0 -64 -45 -108.5t-110 -44.5q-64 0 -112 43.5t-48 109.5zM887 1669q0 67 46.5 112.5t110.5 45.5q60 0 109 -45 t49 -113q0 -65 -49 -109t-109 -44q-64 0 -110.5 44.5t-46.5 108.5z" />
<glyph unicode="&#x2c6;" horiz-adv-x="1024" d="M170 948v17l340 315h125l258 -315v-17h-211l-135 113l-174 -113h-203z" />
<glyph unicode="&#x2dc;" horiz-adv-x="1024" d="M135 967q0 141 73.5 232t180.5 91q40 0 78 -21t62 -45.5t54.5 -45.5t57.5 -21q34 0 53 34.5t19 88.5h194q0 -142 -69.5 -233t-182.5 -91q-44 0 -84 20.5t-63.5 45t-50.5 45t-49 20.5q-38 0 -60 -33.5t-22 -86.5h-191z" />
<glyph unicode="&#x2000;" horiz-adv-x="977" />
<glyph unicode="&#x2001;" horiz-adv-x="1954" />
<glyph unicode="&#x2002;" horiz-adv-x="977" />
<glyph unicode="&#x2003;" horiz-adv-x="1954" />
<glyph unicode="&#x2004;" horiz-adv-x="651" />
<glyph unicode="&#x2005;" horiz-adv-x="488" />
<glyph unicode="&#x2006;" horiz-adv-x="325" />
<glyph unicode="&#x2007;" horiz-adv-x="325" />
<glyph unicode="&#x2008;" horiz-adv-x="244" />
<glyph unicode="&#x2009;" horiz-adv-x="390" />
<glyph unicode="&#x200a;" horiz-adv-x="108" />
<glyph unicode="&#x2010;" horiz-adv-x="778" d="M18 307l52 326l614 20l-51 -325z" />
<glyph unicode="&#x2011;" horiz-adv-x="778" d="M18 307l52 326l614 20l-51 -325z" />
<glyph unicode="&#x2012;" horiz-adv-x="778" d="M18 307l52 326l614 20l-51 -325z" />
<glyph unicode="&#x2013;" horiz-adv-x="1024" d="M31 301l51 326l860 32l-51 -325z" />
<glyph unicode="&#x2014;" horiz-adv-x="2048" d="M150 365v262h1671v-262h-1671z" />
<glyph unicode="&#x2018;" horiz-adv-x="819" d="M143 786v15l236 358l186 230l283 8l2 -17l-172 -295l-109 -290z" />
<glyph unicode="&#x2019;" horiz-adv-x="819" d="M119 803l172 295l108 291l426 8v-15l-235 -358l-187 -229l-282 -9z" />
<glyph unicode="&#x201a;" horiz-adv-x="819" d="M-31 -354l172 295l109 290l426 9v-15l-236 -358l-186 -229l-283 -9z" />
<glyph unicode="&#x201c;" horiz-adv-x="1331" d="M143 786v15l236 358l186 230l283 8l2 -17l-172 -295l-109 -290zM655 786v15l236 358l186 230l283 8l2 -17l-172 -295l-109 -290z" />
<glyph unicode="&#x201d;" horiz-adv-x="1331" d="M119 803l172 295l108 291l426 8v-15l-235 -358l-187 -229l-282 -9zM631 803l172 295l108 291l426 8v-15l-235 -358l-187 -229l-282 -9z" />
<glyph unicode="&#x201e;" horiz-adv-x="1331" d="M-31 -354l172 295l109 290l426 9v-15l-236 -358l-186 -229l-283 -9zM481 -354l172 295l109 290l426 9v-15l-236 -358l-186 -229l-283 -9z" />
<glyph unicode="&#x2022;" horiz-adv-x="983" d="M186 541q0 115 81.5 196.5t197.5 81.5q115 0 196.5 -81.5t81.5 -196.5q0 -116 -81.5 -197.5t-196.5 -81.5t-197 82t-82 197z" />
<glyph unicode="&#x2026;" horiz-adv-x="2170" d="M41 207q0 95 66 162t161 67t161.5 -67t66.5 -162t-66.5 -161t-161.5 -66t-161 66t-66 161zM778 207q0 95 66.5 162t161.5 67t161 -67t66 -162t-66 -161t-161 -66t-161.5 66t-66.5 161zM1516 207q0 95 66 162t161 67t161 -67t66 -162t-66 -161t-161 -66t-161 66t-66 161z " />
<glyph unicode="&#x202f;" horiz-adv-x="390" />
<glyph unicode="&#x2039;" horiz-adv-x="921" d="M88 459l4 18l559 473l154 -168l-338 -342l170 -342l-207 -116z" />
<glyph unicode="&#x203a;" horiz-adv-x="921" d="M55 150l338 342l-170 342l207 116l342 -477l-4 -18l-559 -473z" />
<glyph unicode="&#x205f;" horiz-adv-x="488" />
<glyph unicode="&#x20ac;" horiz-adv-x="1351" d="M61 492l72 174h98q1 12 11 61h-131l75 174h107q65 157 183 276t264 182.5t298 63.5q119 0 211.5 -24.5t175.5 -83.5l-186 -359q-112 64 -225 64q-63 0 -132.5 -30t-121.5 -89h450l-75 -174h-461q-8 -39 -10 -61h448l-72 -174h-344q31 -56 83.5 -87.5t115.5 -31.5 q130 0 240 55l69 -365q-60 -41 -167.5 -67.5t-227.5 -26.5q-252 0 -406.5 145t-175.5 378h-166z" />
<glyph unicode="&#x2122;" horiz-adv-x="1413" d="M131 1264v129h500v-129h-180v-404h-140v404h-180zM635 860l104 533h101l114 -289h9l112 289h103l104 -533h-141l-41 246h-10l-107 -250h-51l-107 250h-8l-43 -246h-139z" />
<glyph unicode="&#xe000;" horiz-adv-x="983" d="M0 0v983h983v-983h-983z" />
</font>
</defs>
</svg>
