<?xml version="1.0" standalone="no"?>
<!DOCTYPE svg PUBLIC "-//W3C//DTD SVG 1.1//EN" "http://www.w3.org/Graphics/SVG/1.1/DTD/svg11.dtd" >
<svg xmlns="http://www.w3.org/2000/svg">
<metadata></metadata>
<defs>
<font id="concourse_c4regular" horiz-adv-x="1085" >
<font-face units-per-em="2048" ascent="1520" descent="-528" />
<missing-glyph horiz-adv-x="573" />
<glyph unicode="&#xfb01;" horiz-adv-x="1638" d="M190 0v1024h697v-162h-508v-270h446v-162h-446v-430h-189zM1227 0v1024h188v-1024h-188z" />
<glyph unicode="&#xfb02;" horiz-adv-x="1945" d="M190 0v1024h697v-162h-508v-270h446v-162h-446v-430h-189zM1194 0v1024h188v-862h455v-162h-643z" />
<glyph horiz-adv-x="2048" />
<glyph horiz-adv-x="2048" />
<glyph unicode="&#xd;" horiz-adv-x="2048" />
<glyph unicode=" "  horiz-adv-x="573" />
<glyph unicode="&#x09;" horiz-adv-x="573" />
<glyph unicode="&#xa0;" horiz-adv-x="573" />
<glyph unicode="!" horiz-adv-x="819" d="M287 109q0 51 36 86.5t87 35.5t86.5 -35.5t35.5 -86.5t-35.5 -87t-86.5 -36t-87 36t-36 87zM289 1393h225l-29 -482l-20 -505h-119l-22 503z" />
<glyph unicode="&#x22;" horiz-adv-x="860" d="M172 1393h209l-49 -562h-113zM479 1393h209l-49 -562h-113z" />
<glyph unicode="#" horiz-adv-x="1146" d="M74 530l20 119l246 -43l74 318l-217 39l20 118l225 -41l101 433l106 -25l-98 -426l197 -35l114 467l107 -24l-113 -461l223 -39l-20 -119l-232 39l-77 -318l206 -34l-20 -119l-215 37l-129 -537l-107 25l129 530l-194 35l-131 -569l-107 24l131 563zM449 586l194 -33 l76 317l-197 35z" />
<glyph unicode="$" horiz-adv-x="1064" d="M141 166l39 178q137 -93 258 -115l45 441l-10 6q-47 25 -75.5 41t-69.5 42.5t-65 52t-48.5 59t-35.5 74t-11 87.5q0 62 24 119.5t70 105t121 76.5t168 29l18 172l105 -10l-19 -170q119 -19 230 -84l-29 -166q-117 70 -217 88l-39 -393h2q178 -92 250 -185t72 -204 q0 -91 -34 -160.5t-92 -109.5t-126.5 -60t-145.5 -21l-18 -196l-105 10l19 193q-84 13 -164.5 42t-116.5 58zM338 1044q0 -57 32 -96t132 -96l33 346q-197 -11 -197 -154zM543 223q107 3 158 52.5t51 123.5q0 64 -34.5 110t-135.5 105z" />
<glyph unicode="%" horiz-adv-x="1495" d="M143 1081q0 144 80.5 239t202.5 95q133 0 214 -93.5t81 -240.5q0 -139 -83.5 -230t-205.5 -91q-124 0 -206.5 90.5t-82.5 230.5zM178 35l555 706l467 670l117 -51l-522 -662l-502 -716zM293 1083q0 -88 39.5 -141t105.5 -53q57 0 95 53t38 141q0 92 -37.5 147.5 t-101.5 55.5q-61 0 -100 -57.5t-39 -145.5zM774 299q0 144 80.5 239t202.5 95q133 0 214 -93.5t81 -240.5q0 -139 -83.5 -230.5t-205.5 -91.5q-124 0 -206.5 91t-82.5 231zM924 301q0 -88 39.5 -141.5t105.5 -53.5q57 0 95 53t38 142q0 92 -37.5 147.5t-101.5 55.5 q-61 0 -100 -57.5t-39 -145.5z" />
<glyph unicode="&#x26;" horiz-adv-x="1515" d="M186 397q0 302 301 445v10q-178 87 -178 238q0 141 119.5 237t294.5 96q172 0 332 -102l-68 -164q-61 45 -121 68.5t-137 23.5q-95 0 -159 -46t-64 -118q0 -71 47.5 -121t132.5 -65v-129q-136 -15 -220.5 -110t-84.5 -238q0 -128 100 -203.5t248 -75.5q163 0 262 79 t99 202q0 87 -43 154l-173 -41l-32 151l479 109l33 -148l-144 -35q50 -83 50 -194q0 -105 -45 -192t-121 -142.5t-174 -86t-207 -30.5q-232 0 -379.5 123.5t-147.5 304.5z" />
<glyph unicode="'" horiz-adv-x="552" d="M172 1393h209l-49 -562h-113z" />
<glyph unicode="(" horiz-adv-x="901" d="M227 557q0 316 130 559t339 389l92 -114q-161 -125 -257.5 -338t-96.5 -465q0 -516 354 -832l-92 -118q-92 74 -171 163.5t-148.5 204t-109.5 257t-40 294.5z" />
<glyph unicode=")" horiz-adv-x="901" d="M113 -244q354 316 354 832q0 252 -96.5 465t-257.5 338l92 114q209 -146 339 -389t130 -559q0 -152 -40 -294.5t-109.5 -257t-148.5 -204t-171 -163.5z" />
<glyph unicode="*" horiz-adv-x="1269" d="M236 965l63 180l291 -141l-51 389h209l-74 -394l299 166l61 -190l-344 -53l287 -279l-143 -121l-201 352l-197 -362l-141 129l272 277z" />
<glyph unicode="+" d="M68 547v139h405v406h139v-406h406v-139h-406v-406h-139v406h-405z" />
<glyph unicode="," horiz-adv-x="696" d="M131 -309l174 489h217v-10l-260 -489h-131v10z" />
<glyph unicode="-" horiz-adv-x="880" d="M174 406v172h533v-172h-533z" />
<glyph unicode="." horiz-adv-x="737" d="M246 109q0 51 36 86.5t87 35.5t87 -35.5t36 -86.5t-36 -87t-87 -36t-87 36t-36 87z" />
<glyph unicode="/" horiz-adv-x="1126" d="M113 -328l737 1762h164l-738 -1762h-163z" />
<glyph unicode="0" horiz-adv-x="1310" d="M143 711q0 186 40 325.5t111.5 222.5t163 123.5t201.5 40.5q112 0 204 -45t160.5 -131.5t106 -223.5t37.5 -312q0 -190 -37.5 -334t-106 -232t-160 -132t-204.5 -44q-88 0 -163.5 24t-141.5 79.5t-112 140t-72.5 211t-26.5 287.5zM340 715q0 -160 27 -276.5t74 -179.5 t101.5 -91.5t119.5 -28.5q151 0 230 138.5t79 437.5q0 258 -87.5 398t-232.5 140q-134 0 -222.5 -135.5t-88.5 -402.5z" />
<glyph unicode="1" horiz-adv-x="1024" d="M201 1354l417 53l35 -25v-1382h-188v1217l-252 -29z" />
<glyph unicode="2" horiz-adv-x="1208" d="M98 72q205 176 350 320.5t228.5 256.5t120.5 196.5t37 155.5q0 124 -67.5 188t-184.5 64q-178 0 -361 -123l-12 181q45 35 150 73.5t235 38.5q94 0 172 -22t139 -66.5t95 -120.5t34 -176q0 -195 -152 -405t-448 -445l4 -12l617 19v-195h-936z" />
<glyph unicode="3" horiz-adv-x="1167" d="M131 217l6 6q190 -86 369 -86q127 0 209 71t82 200q0 101 -72.5 166t-198.5 61l-256 -8l17 178l231 -8q106 -3 180 67.5t74 173.5q0 102 -77.5 163t-205.5 61q-121 0 -278 -72l-8 6l16 164q138 63 297 63q129 0 229.5 -38.5t162 -120.5t61.5 -197q0 -122 -65.5 -209 t-176.5 -115v-20q125 -28 195.5 -122.5t70.5 -209.5q0 -75 -19.5 -137.5t-51.5 -105t-76.5 -75.5t-90 -52t-96.5 -31.5t-92 -16.5t-80 -4q-192 0 -350 76z" />
<glyph unicode="4" horiz-adv-x="1228" d="M121 483l622 910h201v-824l160 4v-163h-160v-410h-186v410h-604zM360 578l13 -23l385 10v565h-27z" />
<glyph unicode="5" horiz-adv-x="1208" d="M162 -8l33 166q89 -21 194 -21q217 0 342 92t125 250q0 150 -127 224.5t-354 74.5q-63 0 -176 -10l-9 6l78 619h744l-23 -179l-571 21l-43 -313q82 4 114 4q140 0 249.5 -34.5t177.5 -95t103.5 -139t35.5 -170.5q0 -121 -55 -220.5t-149 -163.5t-216 -99t-258 -35 q-137 0 -215 23z" />
<glyph unicode="6" horiz-adv-x="1208" d="M154 535q0 168 47.5 311t129 245.5t191.5 176.5t234.5 112t257.5 43l-27 -163q-251 -17 -415 -155.5t-193 -328.5l14 -12q99 55 230 55q68 0 132 -15.5t122.5 -49.5t102 -83.5t69.5 -122.5t26 -161q0 -98 -39.5 -180t-103 -132.5t-138.5 -78t-151 -27.5q-103 0 -186 30.5 t-138.5 82.5t-93.5 124.5t-54.5 154.5t-16.5 174zM348 500q0 -167 80 -269t211 -102q109 0 176.5 65t67.5 179q0 81 -25.5 141t-71 93.5t-100 49t-119.5 15.5q-116 0 -207 -58q-12 -52 -12 -114z" />
<glyph unicode="7" horiz-adv-x="1126" d="M125 1208l18 185h861l20 -25q-204 -375 -314 -706t-128 -662h-226q53 329 165 651t259 566l-8 10z" />
<glyph unicode="8" horiz-adv-x="1187" d="M133 348q0 116 78.5 213t196.5 156v12q-234 156 -234 344q0 145 122 247.5t314 102.5q170 0 287 -89.5t117 -237.5q0 -122 -64.5 -215t-187.5 -152v-12q156 -91 224.5 -184t68.5 -205q0 -156 -131.5 -257.5t-333.5 -101.5q-203 0 -330 107t-127 272zM315 348 q0 -103 79 -164t204 -61q117 0 190.5 60.5t73.5 146.5q0 40 -16 77.5t-42 67.5t-66.5 60.5t-81.5 54.5t-95 51l-14 6q-117 -50 -174.5 -129t-57.5 -170zM367 1081q0 -80 60.5 -146.5t190.5 -139.5q216 126 216 280q0 85 -64 143t-170 58q-110 0 -171.5 -58.5t-61.5 -136.5z " />
<glyph unicode="9" horiz-adv-x="1208" d="M133 1006q0 112 53.5 206.5t153.5 152.5t225 58q103 0 186 -30t139 -82.5t93.5 -125t54.5 -154t17 -173.5q0 -670 -678 -889l-72 131l2 11q111 38 197.5 83.5t158.5 106t116 140t55 175.5l-15 13q-101 -56 -233 -56q-86 0 -164.5 26t-144.5 76.5t-105 136t-39 194.5z M324 1020q0 -74 26 -131t71 -92t101 -52.5t119 -17.5q122 0 211 57q8 41 8 109q0 167 -80.5 270t-210.5 103q-108 0 -176.5 -66t-68.5 -180z" />
<glyph unicode=":" horiz-adv-x="737" d="M246 109q0 51 36 86.5t87 35.5t87 -35.5t36 -86.5t-36 -87t-87 -36t-87 36t-36 87zM246 764q0 51 36 87t87 36t87 -36t36 -87t-36 -87t-87 -36t-87 36t-36 87z" />
<glyph unicode=";" horiz-adv-x="778" d="M156 -309l174 489h217v-10l-260 -489h-131v10zM285 764q0 51 36 87t87 36t86.5 -36t35.5 -87t-35.5 -87t-86.5 -36t-87 36t-36 87z" />
<glyph unicode="&#x3c;" d="M102 594v127l828 389l51 -133l-702 -320l702 -319l-51 -133z" />
<glyph unicode="=" d="M88 334v139h909v-139h-909zM88 743v140h909v-140h-909z" />
<glyph unicode="&#x3e;" d="M104 338l703 319l-703 320l52 133l827 -389v-127l-827 -389z" />
<glyph unicode="?" horiz-adv-x="1105" d="M233 1214l19 162q107 47 235 47q209 0 325 -104.5t116 -274.5q0 -97 -38.5 -177t-102 -130.5t-133.5 -82t-146 -44.5v-176h-168v305q393 36 393 316q0 97 -72 154t-196 57q-46 0 -105.5 -14t-107.5 -38h-19zM305 109q0 51 36 86.5t87 35.5t87 -35.5t36 -86.5t-36 -87 t-87 -36t-87 36t-36 87z" />
<glyph unicode="@" horiz-adv-x="1597" d="M236 604q0 127 26.5 247t81 226t131.5 185.5t185.5 125.5t234.5 46q204 0 321.5 -94.5t104.5 -282.5l-39 -568q-5 -92 53 -147l-2 -20l-159 -50l-37 90h-31q-94 -73 -232 -73q-109 0 -183.5 79t-74.5 220q0 155 96 256.5t234 101.5q114 0 199 -16l10 110 q11 132 -58.5 188t-205.5 56q-139 0 -251.5 -86t-176.5 -242.5t-64 -353.5q0 -158 35 -278.5t98 -193.5t144.5 -109.5t179.5 -36.5q163 0 254 73h10l58 -120q-63 -55 -153.5 -82t-170.5 -27q-205 0 -345 96.5t-206.5 268.5t-66.5 411zM778 588q0 -152 146 -152q99 0 192 49 l21 306q-71 14 -166 14q-85 0 -139 -57t-54 -160z" />
<glyph unicode="A" horiz-adv-x="1495" d="M98 0l627 1434h41l631 -1434h-205l-154 362h-585l-150 -362h-205zM522 530h447l-217 514h-15z" />
<glyph unicode="B" horiz-adv-x="1290" d="M242 0v1393h381q215 0 324.5 -94t109.5 -244q0 -92 -55 -188t-146 -126v-10q132 -35 203 -123.5t71 -208.5q0 -191 -128 -295t-355 -104h-405zM434 162h223q41 0 78 6t75.5 23t65.5 43t44.5 69.5t17.5 99.5q0 114 -83.5 178t-201.5 64h-219v-483zM434 805h223 q89 0 148 59t59 160q0 99 -68 153t-184 54h-178v-426z" />
<glyph unicode="C" horiz-adv-x="1474" d="M160 674q0 172 57 315.5t154.5 237t225 145t269.5 51.5q130 0 251 -42.5t196 -96.5l-45 -170q-198 135 -400 135h-6q-100 -1 -188.5 -36t-159.5 -103t-112.5 -178t-41.5 -250q0 -236 141 -387.5t365 -151.5q118 0 215.5 38t208.5 108l51 -164q-89 -68 -218 -112t-261 -44 q-153 0 -285 55.5t-223 151t-142.5 224.5t-51.5 274z" />
<glyph unicode="D" horiz-adv-x="1515" d="M242 0v1393h391q205 0 368.5 -85.5t259 -248.5t95.5 -375q0 -156 -53.5 -284.5t-149 -216t-228.5 -135.5t-290 -48h-393zM434 168h209q239 0 375.5 141.5t136.5 378.5q0 111 -29.5 202t-79 152t-116.5 103t-139.5 61t-149.5 19h-207v-1057z" />
<glyph unicode="E" horiz-adv-x="1228" d="M242 0v1393h788v-168h-596v-416h535v-168h-535v-473h617v-168h-809z" />
<glyph unicode="F" horiz-adv-x="1167" d="M242 0v1393h766v-168h-574v-416h512v-168h-512v-641h-192z" />
<glyph unicode="G" horiz-adv-x="1576" d="M160 674q0 158 50.5 295.5t141.5 238t224 158t290 57.5q130 0 252.5 -44t198.5 -99l-49 -170q-64 54 -169.5 96.5t-236.5 42.5q-80 0 -153 -21.5t-137 -67.5t-111 -112t-74 -160t-27 -206q0 -242 143.5 -390.5t370.5 -148.5q221 0 306 101v331h-373v168h569v-575 q-212 -199 -512 -199q-158 0 -292.5 58.5t-223 156.5t-138.5 225t-50 265z" />
<glyph unicode="H" horiz-adv-x="1576" d="M242 0v1393h192v-584h709v584h192v-1393h-192v641h-709v-641h-192z" />
<glyph unicode="I" horiz-adv-x="716" d="M262 0v1393h193v-1393h-193z" />
<glyph unicode="J" horiz-adv-x="1024" d="M123 23l51 167q73 -51 160 -51q128 0 192 83t64 261v910h192v-940q0 -240 -118.5 -362t-319.5 -122q-129 0 -221 54z" />
<glyph unicode="K" horiz-adv-x="1372" d="M242 0v1393h192v-635h21l553 635h213v-21l-566 -651l639 -701v-20h-231l-571 627l-58 -58v-569h-192z" />
<glyph unicode="L" horiz-adv-x="1146" d="M242 0v1393h192v-1225h594v-168h-786z" />
<glyph unicode="M" horiz-adv-x="1925" d="M190 0l205 1413h41l529 -1063h8l516 1063h41l205 -1413h-197l-108 881h-15l-442 -901h-21l-442 901h-14l-109 -881h-197z" />
<glyph unicode="N" horiz-adv-x="1699" d="M242 0v1413h61l946 -1018h17v998h192v-1413h-61l-946 1015h-17v-995h-192z" />
<glyph unicode="O" horiz-adv-x="1699" d="M160 686q0 162 58 302.5t154 234.5t221 147t259 53q110 0 213 -32.5t189 -96.5t150 -152.5t100 -205.5t36 -250q0 -194 -87.5 -357.5t-246 -261.5t-354.5 -98q-190 0 -348.5 93t-251 258t-92.5 366zM360 690q0 -143 58 -266t173 -202t265 -79q106 0 197.5 45t153.5 120 t97 174.5t35 207.5q0 245 -141.5 402t-355.5 157q-94 0 -180.5 -39t-153.5 -109t-107.5 -177t-40.5 -234z" />
<glyph unicode="P" horiz-adv-x="1187" d="M242 0v1393h344q214 0 343.5 -108.5t129.5 -293.5q0 -196 -136 -315q-134 -117 -349 -117h-7h-133v-559h-192zM434 721h144q124 0 202 64t78 202q0 113 -73 178.5t-197 65.5h-154v-510z" />
<glyph unicode="Q" horiz-adv-x="1699" d="M160 711q0 142 51 272t139.5 227t217 155t274.5 58q153 0 284 -55.5t221.5 -151t141.5 -226.5t51 -279q0 -141 -46.5 -268.5t-132 -227t-217 -160.5t-290.5 -65h-45l-8 -10q91 -79 249 -144q144 -60 272 -60q12 0 24 1l-56 -193q-82 0 -163 21t-149.5 55t-135 76 t-129 85.5t-121 80.5t-121 64.5t-119.5 35.5l70 133q-129 102 -195.5 253.5t-66.5 322.5zM360 715q0 -108 33 -206.5t93 -175.5t153 -123t205 -46q93 0 173.5 30.5t139 83t100 122.5t62 150.5t20.5 164.5q0 70 -19 143.5t-59.5 143.5t-97.5 125t-140.5 88.5t-180.5 33.5 q-112 0 -205 -47t-152.5 -124t-92 -171.5t-32.5 -191.5z" />
<glyph unicode="R" horiz-adv-x="1331" d="M242 0v1393h385q222 0 342.5 -105.5t120.5 -300.5q0 -149 -87.5 -256.5t-246.5 -134.5l436 -569v-27h-217l-430 578h-111v-578h-192zM434 737h205q119 0 186.5 61.5t67.5 190.5q0 121 -73.5 181.5t-201.5 60.5h-184v-494z" />
<glyph unicode="S" horiz-adv-x="1208" d="M160 98l49 178q173 -137 375 -137q132 0 193 59.5t61 151.5q0 83 -53 140t-195 141q-78 46 -124 75t-96.5 65t-77 64t-50 64t-32.5 74.5t-9 85.5q0 69 27 132.5t78.5 116t137 84t193.5 31.5q106 0 203.5 -34t165.5 -82l-45 -168q-154 116 -320 116q-248 0 -248 -182 q0 -71 57 -126.5t226 -147.5q193 -104 276.5 -208.5t83.5 -230.5q0 -191 -123.5 -291t-330.5 -100q-133 0 -249 39t-173 90z" />
<glyph unicode="T" horiz-adv-x="1290" d="M98 1225v168h1094v-168h-451v-1225h-192v1225h-451z" />
<glyph unicode="U" horiz-adv-x="1576" d="M242 485v908h192v-873q0 -196 93.5 -288.5t260.5 -92.5q165 0 260 91.5t95 289.5v873h192v-897q0 -82 -20.5 -158t-64 -143.5t-106.5 -117.5t-154.5 -79t-201.5 -29q-124 0 -220.5 29.5t-157 78t-99 117t-54 139.5t-15.5 152z" />
<glyph unicode="V" horiz-adv-x="1454" d="M119 1393h207l399 -983h20l383 983h207l-587 -1424h-41z" />
<glyph unicode="W" horiz-adv-x="1986" d="M119 1393h207l331 -951h17l293 971h53l305 -971h16l320 951h207l-512 -1424h-62l-288 930h-17l-297 -930h-61z" />
<glyph unicode="X" horiz-adv-x="1433" d="M129 0l477 702l-465 691h224l354 -535l356 535h217l-465 -686l478 -707h-224l-366 553l-369 -553h-217z" />
<glyph unicode="Y" horiz-adv-x="1372" d="M98 1393h213l371 -586h16l363 586h213l-492 -772v-621h-192v621z" />
<glyph unicode="Z" horiz-adv-x="1413" d="M131 20l838 1192l-11 13h-747v168h1081l11 -11l-846 -1202l10 -12h797v-168h-1121z" />
<glyph unicode="[" horiz-adv-x="942" d="M307 -336l17 930l-17 889l500 -8v-144l-295 8l-12 -751l12 -781l307 9v-144z" />
<glyph unicode="\" horiz-adv-x="1126" d="M113 1434h163l738 -1762h-164z" />
<glyph unicode="]" horiz-adv-x="942" d="M123 -184l307 -9l12 781l-12 751l-295 -8v144l500 8l-17 -889l17 -930l-512 8v144z" />
<glyph unicode="^" d="M61 643l455 772h55l453 -772l-119 -68l-352 615h-16l-359 -615z" />
<glyph unicode="_" d="M-51 -287h1188v-143h-1188v143z" />
<glyph unicode="`" horiz-adv-x="1024" d="M256 1249v21h172l197 -336v-16h-125z" />
<glyph unicode="a" horiz-adv-x="1167" d="M78 0l483 1034h41l488 -1034h-195l-100 221h-424l-97 -221h-196zM438 379h287l-137 307h-15z" />
<glyph unicode="b" horiz-adv-x="1064" d="M190 0v1024h351q89 0 156.5 -23t105 -62t56 -84.5t18.5 -96.5q0 -159 -146 -219v-9q93 -17 151 -86t58 -159q0 -133 -100 -209t-275 -76h-375zM379 156h217q63 0 107.5 37.5t44.5 107.5q0 67 -46 106t-114 39h-209v-290zM379 596h168q68 0 102.5 37t34.5 104q0 63 -38 97 t-101 34h-166v-272z" />
<glyph unicode="c" horiz-adv-x="1167" d="M119 500q0 124 46 228.5t123.5 172.5t176.5 105.5t207 37.5t204 -32.5t156 -75.5l-61 -160q-142 98 -297 98h-6q-69 -1 -131 -23t-114 -65t-83 -115.5t-31 -166.5q0 -155 103 -254.5t260 -99.5q161 0 301 108l71 -154q-73 -54 -173.5 -89t-202.5 -35q-158 0 -284.5 70 t-195.5 188.5t-69 261.5z" />
<glyph unicode="d" horiz-adv-x="1187" d="M190 0v1024h340q149 0 271.5 -63t195 -179t72.5 -262q0 -164 -70.5 -283t-190.5 -178t-276 -59h-342zM379 162h162q158 0 247 96t89 266q0 97 -51.5 176.5t-128.5 120.5t-158 41h-160v-700z" />
<glyph unicode="e" horiz-adv-x="1064" d="M190 0v1024h687v-162h-498v-260h436v-162h-436v-278h518v-162h-707z" />
<glyph unicode="f" horiz-adv-x="1003" d="M190 0v1024h697v-162h-508v-270h446v-162h-446v-430h-189z" />
<glyph unicode="g" horiz-adv-x="1249" d="M119 500q0 124 46 228.5t123.5 172.5t176.5 105.5t207 37.5q106 0 201 -32.5t153 -75.5l-55 -170q-150 108 -298 108h-5q-69 -1 -131 -23t-114 -65t-83 -115.5t-31 -166.5q0 -155 103 -254.5t260 -99.5q141 0 221 53v209h-260v161h452v-469q-72 -55 -185.5 -89.5 t-231.5 -34.5q-158 0 -284.5 70t-195.5 188.5t-69 261.5z" />
<glyph unicode="h" horiz-adv-x="1249" d="M190 0v1024h189v-422h491v422h189v-1024h-189v440h-491v-440h-189z" />
<glyph unicode="i" horiz-adv-x="634" d="M223 0v1024h189v-1024h-189z" />
<glyph unicode="j" horiz-adv-x="921" d="M72 33l51 168q73 -51 160 -51q130 0 195 69t65 223v582h188v-612q0 -216 -118 -324t-320 -108q-130 0 -221 53z" />
<glyph unicode="k" horiz-adv-x="1146" d="M190 0v1024h189v-463h8l440 463h220v-10l-465 -486l497 -518v-10h-241l-402 426l-57 -61v-365h-189z" />
<glyph unicode="l" horiz-adv-x="942" d="M190 0v1024h189v-862h455v-162h-644z" />
<glyph unicode="m" horiz-adv-x="1515" d="M150 0l163 1034h41l408 -731h6l393 731h41l164 -1034h-190l-82 578h-7l-321 -588h-16l-322 588h-6l-82 -578h-190z" />
<glyph unicode="n" horiz-adv-x="1331" d="M190 0v1034h62l684 -676h16v666h189v-1034h-62l-684 674h-16v-664h-189z" />
<glyph unicode="o" horiz-adv-x="1331" d="M119 500q0 160 77.5 286t202 192t269.5 66q106 0 204 -38.5t174 -107t121 -172.5t45 -226q0 -136 -69.5 -254.5t-195.5 -192t-279 -73.5q-152 0 -278 68.5t-198.5 188t-72.5 263.5zM311 504q0 -93 41 -172.5t125 -130.5t195 -51q153 0 250.5 106t97.5 248 q0 162 -102.5 266t-251.5 104q-94 0 -173.5 -41.5t-130.5 -127.5t-51 -201z" />
<glyph unicode="p" horiz-adv-x="1044" d="M190 0v1024h375q160 0 260.5 -88t100.5 -236q0 -44 -11.5 -87.5t-40 -87.5t-70.5 -77t-108.5 -54t-148.5 -21h-168v-373h-189zM379 528h174q86 0 133 44.5t47 129.5q0 83 -48 124.5t-128 41.5h-178v-340z" />
<glyph unicode="q" horiz-adv-x="1331" d="M119 510q0 118 45 219.5t121 169.5t175.5 106.5t207.5 38.5q143 0 266 -63.5t200.5 -187.5t77.5 -283q0 -99 -41 -192t-112 -163t-173.5 -112.5t-217.5 -42.5h-15l-4 -8q71 -53 188 -88q100 -30 200 -30l34 1l-55 -186q-98 0 -189.5 30.5t-163.5 75.5t-138.5 91.5 t-140 84.5t-142.5 47l51 115q-83 70 -128.5 167t-45.5 210zM311 514q0 -140 98 -242t263 -102q102 0 183 49.5t123 127.5t42 167q0 157 -102.5 258.5t-251.5 101.5q-146 0 -250.5 -96.5t-104.5 -263.5z" />
<glyph unicode="r" horiz-adv-x="1146" d="M190 0v1024h396q159 0 259.5 -87t100.5 -226q0 -119 -62 -196t-179 -103l333 -385v-27h-213l-327 393h-119v-393h-189zM379 543h194q85 0 133 44.5t48 125.5q0 79 -48 119t-128 40h-199v-329z" />
<glyph unicode="s" horiz-adv-x="1064" d="M139 88l49 166q167 -111 324 -111q102 0 157.5 36t55.5 89q0 59 -56.5 102.5t-191.5 96.5q-160 63 -228.5 129.5t-68.5 165.5q0 114 94.5 198t266.5 84q199 0 342 -96l-47 -157q-61 42 -139.5 67t-153.5 25q-87 0 -134 -30t-47 -77q0 -51 48.5 -88.5t201.5 -101.5 q160 -67 230.5 -144.5t70.5 -181.5q0 -137 -109.5 -208.5t-293.5 -71.5q-120 0 -222 32.5t-149 75.5z" />
<glyph unicode="t" horiz-adv-x="1126" d="M119 862v162h889v-162h-353v-862h-188v862h-348z" />
<glyph unicode="u" horiz-adv-x="1290" d="M190 434v590h189v-555q0 -165 70.5 -242t195.5 -77q122 0 194.5 78.5t71.5 240.5v555h189v-580q0 -90 -27.5 -171t-81 -147.5t-143 -106t-203.5 -39.5q-103 0 -183 26t-130.5 68.5t-83 102t-45.5 122.5t-13 135z" />
<glyph unicode="v" horiz-adv-x="1126" d="M78 1024h201l282 -649h8l279 649h201l-471 -1034h-29z" />
<glyph unicode="w" horiz-adv-x="1617" d="M78 1024h201l262 -639h8l233 649h54l245 -649h9l249 639h201l-436 -1034h-53l-230 618h-16l-238 -618h-53z" />
<glyph unicode="x" horiz-adv-x="1126" d="M78 0l381 518l-369 506h221l254 -354l256 354h215l-368 -502l381 -522h-222l-266 369l-268 -369h-215z" />
<glyph unicode="y" d="M57 1024h201l283 -440h8l278 440h201l-391 -608v-416h-188v416z" />
<glyph unicode="z" horiz-adv-x="1146" d="M115 20l592 832l-7 10h-542v162h864l10 -10l-600 -844l6 -8h586v-162h-897z" />
<glyph unicode="{" horiz-adv-x="942" d="M164 506v164q108 0 182 54.5t74 129.5q0 67 -32 180t-32 178q0 99 42 155t142 82t279 26v-134q-147 0 -209.5 -32t-62.5 -129q0 -74 35.5 -193t35.5 -164q0 -79 -73.5 -133t-186.5 -74v-51q110 -9 185 -65t75 -142q0 -48 -35.5 -169.5t-35.5 -192.5q0 -41 4.5 -67 t20.5 -52t45 -40t79 -23t123 -9v-133q-119 0 -203 13t-135.5 35t-80 60.5t-38.5 80.5t-10 104q0 60 34 176t34 172q0 92 -71 142.5t-185 50.5z" />
<glyph unicode="|" d="M473 -471v2007h139v-2007h-139z" />
<glyph unicode="}" horiz-adv-x="942" d="M123 -195q73 0 123 9t79 23t45 40t20.5 52t4.5 67q0 71 -35.5 192.5t-35.5 169.5q0 86 75 142t185 65v51q-113 20 -186.5 74t-73.5 133q0 45 35.5 164t35.5 193q0 97 -62.5 129t-209.5 32v134q179 0 279 -26t142 -82t42 -155q0 -65 -32 -178t-32 -180q0 -75 74 -129.5 t182 -54.5v-164q-114 0 -185 -50.5t-71 -142.5q0 -56 34 -172t34 -176q0 -62 -10 -104t-38.5 -80.5t-80 -60.5t-135.5 -35t-203 -13v133z" />
<glyph unicode="~" d="M66 416q0 159 83 251.5t201 92.5q51 0 100 -21t86 -51t71.5 -59.5t70.5 -50.5t70 -21q64 0 102.5 58t38.5 141h139q0 -149 -78.5 -246.5t-204.5 -97.5q-52 0 -100 20.5t-84 50t-69.5 59t-70 50t-71.5 20.5q-67 0 -110 -56t-43 -140h-131z" />
<glyph unicode="&#xa1;" horiz-adv-x="819" d="M287 1044q0 51 36 87t87 36t86.5 -36t35.5 -87t-35.5 -86.5t-86.5 -35.5t-87 35.5t-36 86.5zM305 -240l29 482l20 506h119l23 -504l34 -484h-225z" />
<glyph unicode="&#xa2;" horiz-adv-x="983" d="M156 655q0 209 118 354.5t283 159.5l25 226l104 -11l-22 -217q56 -8 101 -30.5t103 -63.5l-61 -141q-79 69 -160 80l-69 -658h16q112 0 219 84l41 -143q-50 -42 -123.5 -70t-148.5 -28h-21l-20 -197l-105 10l21 203q-138 39 -219.5 157t-81.5 285zM344 659 q0 -211 131 -278l66 625q-88 -28 -142.5 -121.5t-54.5 -225.5z" />
<glyph unicode="&#xa3;" horiz-adv-x="1126" d="M129 113q195 173 195 430q0 47 -11 119h-163v112h143q-4 22 -15 74t-16.5 80t-10.5 68.5t-5 72.5q0 92 32 162t86.5 111t121 61t141.5 20q93 0 176.5 -22t121.5 -42.5t58 -37.5l-43 -154q-46 35 -124.5 60.5t-162.5 25.5q-96 0 -156.5 -53t-60.5 -164q0 -17 1 -35 t4 -39.5t5 -35t8 -40t7.5 -35.5t9 -40t8.5 -37h324v-112h-301q12 -78 12 -113q0 -200 -168 -326l16 -20q51 37 119 37q66 0 120.5 -21t108 -42t115.5 -21q85 0 158 55l12 -4l33 -156q-38 -34 -96 -52.5t-107 -18.5q-61 0 -118.5 21.5t-118 43t-127.5 21.5q-110 0 -260 -86z " />
<glyph unicode="&#xa4;" horiz-adv-x="1372" d="M211 941.5q2 20.5 15.5 38.5t32 33t37.5 16.5t32 -9.5l94 -96q120 86 264 86q145 0 258 -80l88 92q21 22 59.5 -0.5t60 -62.5t1.5 -60l-92 -88q78 -115 78 -254q0 -143 -86 -266l98 -94q13 -13 11.5 -34t-14.5 -39.5t-31 -33.5t-37 -16.5t-33 10.5l-103 102 q-114 -82 -258 -82q-141 0 -254 74l-86 -90q-13 -15 -35.5 -13t-42.5 16.5t-36 34t-18.5 40t11.5 35.5l90 88q-82 114 -82 268q0 141 82 260l-92 90q-14 14 -12 34.5zM377 555q0 -143 86 -236.5t225 -93.5q129 0 216 94.5t87 235.5q0 146 -86.5 239t-218.5 93 q-144 0 -226.5 -94t-82.5 -238z" />
<glyph unicode="&#xa5;" horiz-adv-x="1290" d="M78 1393h213l350 -586h16l342 586h213l-471 -772v-74h244v-113h-244v-100h244v-113h-244v-221h-192v221h-244v113h244v100h-244v113h244v74z" />
<glyph unicode="&#xa6;" d="M473 246h139v-717h-139v717zM473 819v717h139v-717h-139z" />
<glyph unicode="&#xa7;" horiz-adv-x="1351" d="M258 -221l49 178q175 -117 365 -117q114 0 168.5 46.5t54.5 113.5q0 72 -55 124t-193 105q-200 76 -294.5 171.5t-94.5 226.5q0 139 115 270q-60 44 -87.5 95t-27.5 118q0 60 24.5 115t72.5 100t128 71.5t181 26.5q102 0 197 -28t161 -68l-45 -168q-154 96 -309 96 q-111 0 -164 -35t-53 -96q0 -50 58.5 -92.5t223.5 -109.5q106 -42 180 -91t115 -103t58.5 -108t17.5 -116q0 -140 -121 -254q111 -103 111 -240q0 -168 -115 -254t-309 -86q-131 0 -244.5 32.5t-167.5 76.5zM451 641q0 -136 282 -244q50 -19 117 -53q55 55 55 150 q0 82 -56 140t-202 120q-61 24 -137 61q-59 -79 -59 -174z" />
<glyph unicode="&#xa8;" horiz-adv-x="1024" d="M252 1038q0 41 29.5 71t70.5 30t71 -30t30 -71t-30 -70.5t-71 -29.5t-70.5 29.5t-29.5 70.5zM571 1038q0 41 30 71t71 30t70.5 -30t29.5 -71t-29.5 -70.5t-70.5 -29.5t-71 29.5t-30 70.5z" />
<glyph unicode="&#xa9;" horiz-adv-x="1802" d="M272 662q0 170 83 314t228.5 229t319.5 85q181 0 325.5 -85t223 -228.5t78.5 -314.5q0 -173 -78 -316.5t-222.5 -229t-326.5 -85.5q-178 0 -321.5 79.5t-226.5 224.5t-83 327zM373 657q0 -232 151 -383t381 -151q227 0 376 151t149 383q0 119 -40.5 221.5t-111 173 t-168 110.5t-207.5 40q-107 0 -204.5 -41.5t-169 -112.5t-114 -173t-42.5 -218zM559 655q0 171 102.5 273t249.5 102q72 0 138.5 -21t105.5 -48l-22 -105q-109 66 -224 66q-95 0 -162 -68t-67 -195q0 -108 64.5 -177.5t166.5 -69.5q117 0 232 71l26 -102q-46 -34 -117 -56 t-143 -22q-154 0 -252 101.5t-98 250.5z" />
<glyph unicode="&#xaa;" horiz-adv-x="962" d="M98 631l367 782h31l368 -782h-172l-63 147h-299l-60 -147h-172zM383 907h190l-90 215h-10z" />
<glyph unicode="&#xab;" horiz-adv-x="1310" d="M174 455v26l404 459l104 -74l-279 -385v-20l279 -393l-104 -76zM604 455v26l404 459l104 -74l-278 -385v-20l278 -393l-104 -76z" />
<glyph unicode="&#xac;" d="M68 502v139h936v-535h-140v396h-796z" />
<glyph unicode="&#xad;" horiz-adv-x="880" d="M174 406v172h533v-172h-533z" />
<glyph unicode="&#xae;" horiz-adv-x="1331" d="M227 985q0 122 59.5 223t160 158t219.5 57q188 0 313 -125.5t125 -312.5q0 -122 -59 -223t-159.5 -158t-219.5 -57q-184 0 -311.5 122t-127.5 316zM313 983q0 -159 99.5 -257.5t255.5 -98.5q146 0 248 100t102 256q0 157 -102.5 258.5t-249.5 101.5q-159 0 -256 -103.5 t-97 -256.5zM506 745v510h149q85 0 132 -38.5t47 -108.5q0 -55 -32.5 -94t-92.5 -49l168 -211v-9h-91l-163 213h-37v-213h-80zM586 1026h71q97 0 97 82q0 38 -28.5 59t-74.5 21h-65v-162z" />
<glyph unicode="&#xaf;" horiz-adv-x="1024" d="M262 918v112h500v-112h-500z" />
<glyph unicode="&#xb0;" horiz-adv-x="860" d="M137 1128q0 121 86.5 208t206.5 87q122 0 208.5 -86.5t86.5 -208.5q0 -120 -87 -206t-208 -86q-120 0 -206.5 86t-86.5 206zM276 1128q0 -69 43 -118t109 -49q68 0 112 49t44 118q0 71 -44 121.5t-112 50.5q-66 0 -109 -50.5t-43 -121.5z" />
<glyph unicode="&#xb1;" d="M88 82v139h909v-139h-909zM88 731v139h385v406h139v-406h385v-139h-385v-405h-139v405h-385z" />
<glyph unicode="&#xb2;" horiz-adv-x="696" d="M70 895q385 341 385 506q0 108 -117 108q-99 0 -188 -57l-17 119q24 18 81.5 39.5t129.5 21.5q113 0 182.5 -51.5t69.5 -159.5q0 -189 -287 -428l6 -16l293 10v-137h-526z" />
<glyph unicode="&#xb3;" horiz-adv-x="696" d="M113 1006q106 -50 204 -50q61 0 100.5 30.5t39.5 86.5q0 51 -36 80.5t-102 28.5l-137 -4l11 118l122 -4q53 -1 91 35t38 84q0 51 -34 76.5t-91 25.5q-78 0 -169 -43l10 127q78 35 178 35q102 0 174 -51t72 -143q0 -68 -40 -119t-104 -66v-12q74 -14 115 -63.5t41 -112.5 q0 -61 -25.5 -107.5t-67.5 -72.5t-89 -38.5t-97 -12.5q-118 0 -202 40z" />
<glyph unicode="&#xb4;" horiz-adv-x="1024" d="M399 918v16l197 336h172v-21l-244 -331h-125z" />
<glyph unicode="&#xb6;" horiz-adv-x="1495" d="M229 940q0 136 70.5 240t189 158.5t265.5 54.5h581v-148h-121v-1567h-163v1567h-123v-1567h-164v820q-237 0 -386 120.5t-149 321.5zM430 942q0 -130 88.5 -208.5t245.5 -78.5v590q-150 0 -242 -84t-92 -219z" />
<glyph unicode="&#xb7;" horiz-adv-x="737" d="M246 532q0 51 36 87t87 36t87 -36t36 -87t-36 -86.5t-87 -35.5t-87 35.5t-36 86.5z" />
<glyph unicode="&#xb8;" horiz-adv-x="1024" d="M348 -195l119 236h108l-83 -164q92 0 148 -33.5t56 -97.5q0 -77 -82 -131t-211 -74l-16 80q87 9 139 38.5t52 70.5q0 65 -158 65q-34 0 -62 -4z" />
<glyph unicode="&#xb9;" horiz-adv-x="696" d="M166 1593l266 31l19 -14v-766h-134v647l-145 -12z" />
<glyph unicode="&#xba;" horiz-adv-x="1024" d="M100 1014q0 120 58.5 215t152.5 144.5t203 49.5q108 0 200.5 -48.5t151 -143.5t58.5 -217q0 -102 -52 -191.5t-147 -144.5t-211 -55q-175 0 -294.5 112.5t-119.5 278.5zM266 1016q0 -100 67 -173t183 -73q106 0 174 74t68 172q0 114 -71.5 187t-174.5 73 q-101 0 -173.5 -70t-72.5 -190z" />
<glyph unicode="&#xbb;" horiz-adv-x="1310" d="M199 68l278 393v20l-278 385l104 74l404 -459v-26l-404 -463zM629 68l278 393v20l-278 385l104 74l404 -459v-26l-404 -463z" />
<glyph unicode="&#xbc;" horiz-adv-x="1617" d="M199 1389l266 30l18 -14v-766h-133v647l-145 -12zM266 -49l502 758l451 723l94 -54l-486 -714l-467 -770zM864 182l326 502h135v-434l88 2v-119h-88v-215h-129v215h-313zM1022 252l6 -12l168 4v268h-14z" />
<glyph unicode="&#xbd;" horiz-adv-x="1617" d="M199 1389l266 30l18 -14v-766h-133v647l-145 -12zM266 -49l502 758l451 723l94 -54l-486 -714l-467 -770zM954 -37q385 341 385 506q0 109 -116 109q-98 0 -189 -58l-16 119q24 18 81.5 39.5t129.5 21.5q113 0 182.5 -51.5t69.5 -159.5q0 -189 -287 -428l6 -16l293 10 v-137h-526z" />
<glyph unicode="&#xbe;" horiz-adv-x="1617" d="M145 801q104 -49 205 -49q61 0 100 30t39 86q0 51 -35.5 80.5t-101.5 28.5l-137 -4l10 119l123 -5q53 -1 91 35t38 84q0 51 -34.5 77t-90.5 26q-79 0 -170 -43l11 127q75 34 178 34q102 0 173.5 -51t71.5 -143q0 -68 -39.5 -118.5t-103.5 -65.5v-13q74 -14 115 -63.5 t41 -112.5q0 -61 -25.5 -107.5t-67.5 -72.5t-89 -38.5t-97 -12.5q-116 0 -203 41zM266 -49l502 758l451 723l94 -54l-486 -714l-467 -770zM864 182l326 502h135v-434l88 2v-119h-88v-215h-129v215h-313zM1022 252l6 -12l168 4v268h-14z" />
<glyph unicode="&#xbf;" horiz-adv-x="1105" d="M178 139q0 97 38.5 177t102 130.5t133.5 82t146 44.5v177h168v-306q-393 -36 -393 -315q0 -97 72 -154t196 -57q47 0 106.5 13.5t106.5 37.5h18l-18 -162q-107 -47 -236 -47q-209 0 -324.5 104.5t-115.5 274.5zM555 1075q0 51 36 87t87 36t87 -36t36 -87t-36 -87t-87 -36 t-87 36t-36 87z" />
<glyph unicode="&#xc0;" horiz-adv-x="1495" d="M98 0l627 1434h41l631 -1434h-205l-154 362h-585l-150 -362h-205zM471 1765v21h182l217 -254v-16h-125zM522 530h447l-217 514h-15z" />
<glyph unicode="&#xc1;" horiz-adv-x="1495" d="M98 0l627 1434h41l631 -1434h-205l-154 362h-585l-150 -362h-205zM522 530h447l-217 514h-15zM625 1516v16l217 254h182v-21l-274 -249h-125z" />
<glyph unicode="&#xc2;" horiz-adv-x="1495" d="M98 0l627 1434h41l631 -1434h-205l-154 362h-585l-150 -362h-205zM471 1516v16l248 254h57l248 -254v-16h-115l-161 131l-162 -131h-115zM522 530h447l-217 514h-15z" />
<glyph unicode="&#xc3;" horiz-adv-x="1495" d="M98 0l627 1434h41l631 -1434h-205l-154 362h-585l-150 -362h-205zM463 1530q0 114 50 180t122 66q36 0 69.5 -20.5t54.5 -45t46 -45t47 -20.5q34 0 53 37t19 90h106q0 -99 -48 -172.5t-122 -73.5q-30 0 -57 13.5t-46.5 32t-37 37.5t-36 32.5t-36.5 13.5 q-37 0 -59.5 -35.5t-22.5 -89.5h-102zM522 530h447l-217 514h-15z" />
<glyph unicode="&#xc4;" horiz-adv-x="1495" d="M98 0l627 1434h41l631 -1434h-205l-154 362h-585l-150 -362h-205zM487 1616q0 41 30 70.5t71 29.5t70.5 -29.5t29.5 -70.5t-29.5 -70.5t-70.5 -29.5t-71 29.5t-30 70.5zM522 530h447l-217 514h-15zM807 1616q0 41 29.5 70.5t70.5 29.5t71 -29.5t30 -70.5t-30 -70.5 t-71 -29.5t-70.5 29.5t-29.5 70.5z" />
<glyph unicode="&#xc5;" horiz-adv-x="1495" d="M98 0l627 1434h41l631 -1434h-205l-154 362h-585l-150 -362h-205zM522 530h447l-217 514h-15zM555 1657q0 79 56.5 135.5t136.5 56.5t136 -56.5t56 -135.5q0 -80 -56.5 -136.5t-135.5 -56.5q-80 0 -136.5 57t-56.5 136zM649 1655q0 -45 26.5 -75t69.5 -30q44 0 71.5 30 t27.5 75t-28 76.5t-71 31.5t-69.5 -31t-26.5 -77z" />
<glyph unicode="&#xc6;" horiz-adv-x="2007" d="M84 0l911 1393h813v-168h-596v-416h535v-168h-535v-473h617v-168h-809v362h-496l-235 -362h-205zM633 530h387v576h-12z" />
<glyph unicode="&#xc7;" horiz-adv-x="1474" d="M160 674q0 172 57 315.5t154.5 237t225 145t269.5 51.5q130 0 251 -42.5t196 -96.5l-45 -170q-201 137 -406 135q-100 -1 -188.5 -36t-159.5 -103t-112.5 -178t-41.5 -250q0 -236 141 -387.5t365 -151.5q118 0 215.5 38t208.5 108l51 -164q-88 -66 -211 -109.5 t-251 -46.5l-48 -92q92 0 148.5 -33.5t56.5 -97.5q0 -77 -82 -131t-211 -74l-16 80q87 9 139 38.5t52 70.5q0 65 -158 65q-34 0 -62 -4l-10 14l84 170q-180 20 -320.5 118t-216 250t-75.5 331z" />
<glyph unicode="&#xc8;" horiz-adv-x="1228" d="M242 0v1393h788v-168h-596v-416h535v-168h-535v-473h617v-168h-809zM369 1765v21h182l217 -254v-16h-125z" />
<glyph unicode="&#xc9;" horiz-adv-x="1228" d="M242 0v1393h788v-168h-596v-416h535v-168h-535v-473h617v-168h-809zM522 1516v16l217 254h183v-21l-275 -249h-125z" />
<glyph unicode="&#xca;" horiz-adv-x="1228" d="M242 0v1393h788v-168h-596v-416h535v-168h-535v-473h617v-168h-809zM369 1516v16l247 254h58l248 -254v-16h-115l-162 131l-162 -131h-114z" />
<glyph unicode="&#xcb;" horiz-adv-x="1228" d="M242 0v1393h788v-168h-596v-416h535v-168h-535v-473h617v-168h-809zM385 1616q0 41 29.5 70.5t70.5 29.5t71 -29.5t30 -70.5t-30 -70.5t-71 -29.5t-70.5 29.5t-29.5 70.5zM705 1616q0 41 29.5 70.5t70.5 29.5t70.5 -29.5t29.5 -70.5t-29.5 -70.5t-70.5 -29.5t-70.5 29.5 t-29.5 70.5z" />
<glyph unicode="&#xcc;" horiz-adv-x="716" d="M82 1765v21h182l217 -254v-16h-125zM262 0v1393h193v-1393h-193z" />
<glyph unicode="&#xcd;" horiz-adv-x="716" d="M236 1516v16l217 254h182v-21l-275 -249h-124zM262 0v1393h193v-1393h-193z" />
<glyph unicode="&#xce;" horiz-adv-x="716" d="M82 1516v16l248 254h57l248 -254v-16h-115l-162 131l-161 -131h-115zM262 0v1393h193v-1393h-193z" />
<glyph unicode="&#xcf;" horiz-adv-x="716" d="M98 1616q0 41 30 70.5t71 29.5t70.5 -29.5t29.5 -70.5t-29.5 -70.5t-70.5 -29.5t-71 29.5t-30 70.5zM262 0v1393h193v-1393h-193zM418 1616q0 41 29.5 70.5t70.5 29.5t70.5 -29.5t29.5 -70.5t-29.5 -70.5t-70.5 -29.5t-70.5 29.5t-29.5 70.5z" />
<glyph unicode="&#xd0;" horiz-adv-x="1515" d="M72 621v124h170v648h391q205 0 368.5 -85.5t259 -248.5t95.5 -375q0 -156 -53.5 -284.5t-149 -216t-228.5 -135.5t-290 -48h-393v621h-170zM434 168h209q239 0 375.5 141.5t136.5 378.5q0 111 -29.5 202t-79 152t-116.5 103t-139.5 61t-149.5 19h-207v-480h309v-124h-309 v-453z" />
<glyph unicode="&#xd1;" horiz-adv-x="1699" d="M242 0v1413h61l946 -1018h17v998h192v-1413h-61l-946 1015h-17v-995h-192zM565 1489q0 114 50 180t122 66q36 0 69.5 -20.5t54.5 -45t46 -45t47 -20.5q34 0 53 37t19 90h107q0 -99 -48 -172.5t-122 -73.5q-30 0 -57 13.5t-46.5 32.5t-37 37.5t-36 32t-36.5 13.5 q-37 0 -59.5 -35.5t-22.5 -89.5h-103z" />
<glyph unicode="&#xd2;" horiz-adv-x="1699" d="M160 686q0 162 58 302.5t154 234.5t221 147t259 53q110 0 213 -32.5t189 -96.5t150 -152.5t100 -205.5t36 -250q0 -194 -87.5 -357.5t-246 -261.5t-354.5 -98q-190 0 -348.5 93t-251 258t-92.5 366zM360 690q0 -143 58 -266t173 -202t265 -79q106 0 197.5 45t153.5 120 t97 174.5t35 207.5q0 245 -141.5 402t-355.5 157q-94 0 -180.5 -39t-153.5 -109t-107.5 -177t-40.5 -234zM573 1765v21h183l217 -254v-16h-125z" />
<glyph unicode="&#xd3;" horiz-adv-x="1699" d="M160 686q0 162 58 302.5t154 234.5t221 147t259 53q110 0 213 -32.5t189 -96.5t150 -152.5t100 -205.5t36 -250q0 -194 -87.5 -357.5t-246 -261.5t-354.5 -98q-190 0 -348.5 93t-251 258t-92.5 366zM360 690q0 -143 58 -266t173 -202t265 -79q106 0 197.5 45t153.5 120 t97 174.5t35 207.5q0 245 -141.5 402t-355.5 157q-94 0 -180.5 -39t-153.5 -109t-107.5 -177t-40.5 -234zM727 1516v16l217 254h182v-21l-274 -249h-125z" />
<glyph unicode="&#xd4;" horiz-adv-x="1699" d="M160 686q0 162 58 302.5t154 234.5t221 147t259 53q110 0 213 -32.5t189 -96.5t150 -152.5t100 -205.5t36 -250q0 -194 -87.5 -357.5t-246 -261.5t-354.5 -98q-190 0 -348.5 93t-251 258t-92.5 366zM360 690q0 -143 58 -266t173 -202t265 -79q106 0 197.5 45t153.5 120 t97 174.5t35 207.5q0 245 -141.5 402t-355.5 157q-94 0 -180.5 -39t-153.5 -109t-107.5 -177t-40.5 -234zM573 1516v16l248 254h58l247 -254v-16h-114l-162 131l-162 -131h-115z" />
<glyph unicode="&#xd5;" horiz-adv-x="1699" d="M160 686q0 162 58 302.5t154 234.5t221 147t259 53q110 0 213 -32.5t189 -96.5t150 -152.5t100 -205.5t36 -250q0 -194 -87.5 -357.5t-246 -261.5t-354.5 -98q-190 0 -348.5 93t-251 258t-92.5 366zM360 690q0 -143 58 -266t173 -202t265 -79q106 0 197.5 45t153.5 120 t97 174.5t35 207.5q0 245 -141.5 402t-355.5 157q-94 0 -180.5 -39t-153.5 -109t-107.5 -177t-40.5 -234zM565 1530q0 114 50 180t122 66q36 0 69.5 -20.5t54.5 -45t46 -45t47 -20.5q34 0 53 37t19 90h107q0 -99 -48 -172.5t-122 -73.5q-30 0 -57 13.5t-46.5 32t-37 37.5 t-36 32.5t-36.5 13.5q-37 0 -59.5 -35.5t-22.5 -89.5h-103z" />
<glyph unicode="&#xd6;" horiz-adv-x="1699" d="M160 686q0 162 58 302.5t154 234.5t221 147t259 53q110 0 213 -32.5t189 -96.5t150 -152.5t100 -205.5t36 -250q0 -194 -87.5 -357.5t-246 -261.5t-354.5 -98q-190 0 -348.5 93t-251 258t-92.5 366zM360 690q0 -143 58 -266t173 -202t265 -79q106 0 197.5 45t153.5 120 t97 174.5t35 207.5q0 245 -141.5 402t-355.5 157q-94 0 -180.5 -39t-153.5 -109t-107.5 -177t-40.5 -234zM590 1616q0 41 29.5 70.5t70.5 29.5t71 -29.5t30 -70.5t-30 -70.5t-71 -29.5t-70.5 29.5t-29.5 70.5zM909 1616q0 41 30 70.5t71 29.5t70.5 -29.5t29.5 -70.5 t-29.5 -70.5t-70.5 -29.5t-71 29.5t-30 70.5z" />
<glyph unicode="&#xd7;" d="M109 270l335 336l-335 336l98 98l336 -335l336 335l98 -98l-336 -336l336 -336l-98 -98l-336 336l-336 -336z" />
<glyph unicode="&#xd8;" horiz-adv-x="1699" d="M160 686q0 162 58 302.5t154 234.5t221 147t259 53q227 0 405 -133l140 172l80 -63l-142 -176q205 -212 205 -537q0 -194 -87.5 -357.5t-246 -261.5t-354.5 -98q-231 0 -412 135l-143 -180l-80 64l148 184q-97 97 -151 229.5t-54 284.5zM360 690q0 -217 123 -371l660 826 q-132 104 -301 104q-94 0 -180.5 -39t-153.5 -109t-107.5 -177t-40.5 -234zM555 248q127 -105 301 -105q106 0 197.5 45t153.5 120t97 174.5t35 207.5q0 227 -125 381z" />
<glyph unicode="&#xd9;" horiz-adv-x="1576" d="M242 485v908h192v-873q0 -196 93.5 -288.5t260.5 -92.5q165 0 260 91.5t95 289.5v873h192v-897q0 -82 -20.5 -158t-64 -143.5t-106.5 -117.5t-154.5 -79t-201.5 -29q-124 0 -220.5 29.5t-157 78t-99 117t-54 139.5t-15.5 152zM514 1745v20h182l217 -254v-16h-125z" />
<glyph unicode="&#xda;" horiz-adv-x="1576" d="M242 485v908h192v-873q0 -196 93.5 -288.5t260.5 -92.5q165 0 260 91.5t95 289.5v873h192v-897q0 -82 -20.5 -158t-64 -143.5t-106.5 -117.5t-154.5 -79t-201.5 -29q-124 0 -220.5 29.5t-157 78t-99 117t-54 139.5t-15.5 152zM668 1495v16l217 254h182v-20l-274 -250 h-125z" />
<glyph unicode="&#xdb;" horiz-adv-x="1576" d="M242 485v908h192v-873q0 -196 93.5 -288.5t260.5 -92.5q165 0 260 91.5t95 289.5v873h192v-897q0 -82 -20.5 -158t-64 -143.5t-106.5 -117.5t-154.5 -79t-201.5 -29q-124 0 -220.5 29.5t-157 78t-99 117t-54 139.5t-15.5 152zM514 1495v16l248 254h57l248 -254v-16h-115 l-161 131l-162 -131h-115z" />
<glyph unicode="&#xdc;" horiz-adv-x="1576" d="M242 485v908h192v-873q0 -196 93.5 -288.5t260.5 -92.5q165 0 260 91.5t95 289.5v873h192v-897q0 -82 -20.5 -158t-64 -143.5t-106.5 -117.5t-154.5 -79t-201.5 -29q-124 0 -220.5 29.5t-157 78t-99 117t-54 139.5t-15.5 152zM530 1595q0 41 30 71t71 30t70.5 -30 t29.5 -71t-29.5 -70.5t-70.5 -29.5t-71 29.5t-30 70.5zM850 1595q0 41 29.5 71t70.5 30t71 -30t30 -71t-30 -70.5t-71 -29.5t-70.5 29.5t-29.5 70.5z" />
<glyph unicode="&#xdd;" horiz-adv-x="1372" d="M98 1393h213l371 -586h16l363 586h213l-492 -772v-621h-192v621zM565 1495v16l217 254h183v-20l-275 -250h-125z" />
<glyph unicode="&#xde;" horiz-adv-x="1187" d="M242 0v1393h192v-269h152q214 0 343.5 -108t129.5 -293q0 -196 -136 -315t-356 -117h-133v-291h-192zM434 453h144q124 0 202 64t78 202q0 113 -73 178.5t-197 65.5h-154v-510z" />
<glyph unicode="&#xdf;" horiz-adv-x="1269" d="M190 0v864q50 71 160 125.5t256 54.5q191 0 296.5 -74.5t105.5 -176.5q0 -43 -19.5 -77.5t-47 -56.5t-55.5 -41.5t-47.5 -41.5t-19.5 -48q0 -22 25.5 -42t64 -36t83.5 -38.5t83.5 -46.5t64 -62.5t25.5 -85.5q0 -79 -53 -134.5t-130 -79t-169 -23.5q-98 0 -177 19.5 t-112 47.5l49 162q106 -59 242 -59q74 0 116 19.5t42 47.5t-35.5 52t-86.5 45.5t-102 46.5t-86.5 65t-35.5 90q0 39 19 71t46 54t54 42t46 44.5t19 52.5q0 46 -58 69t-139 23q-84 0 -145 -25.5t-90 -62.5v-784h-189z" />
<glyph unicode="&#xe0;" horiz-adv-x="1167" d="M78 0l483 1034h41l488 -1034h-195l-100 221h-424l-97 -221h-196zM328 1458v21h172l196 -336v-17h-125zM438 379h287l-137 307h-15z" />
<glyph unicode="&#xe1;" horiz-adv-x="1167" d="M78 0l483 1034h41l488 -1034h-195l-100 221h-424l-97 -221h-196zM438 379h287l-137 307h-15zM471 1126v17l197 336h172v-21l-244 -332h-125z" />
<glyph unicode="&#xe2;" horiz-adv-x="1167" d="M78 0l483 1034h41l488 -1034h-195l-100 221h-424l-97 -221h-196zM307 1126v17l248 336h57l248 -336v-17h-115l-161 193l-162 -193h-115zM438 379h287l-137 307h-15z" />
<glyph unicode="&#xe3;" horiz-adv-x="1167" d="M78 0l483 1034h41l488 -1034h-195l-100 221h-424l-97 -221h-196zM299 1161q0 114 50 180t122 66q36 0 69.5 -20.5t54.5 -45t46 -45t47 -20.5q34 0 53 37t19 90h106q0 -99 -48 -172.5t-122 -73.5q-30 0 -57 13.5t-46.5 32.5t-37 37.5t-36 32t-36.5 13.5q-37 0 -59.5 -35.5 t-22.5 -89.5h-102zM438 379h287l-137 307h-15z" />
<glyph unicode="&#xe4;" horiz-adv-x="1167" d="M78 0l483 1034h41l488 -1034h-195l-100 221h-424l-97 -221h-196zM324 1247q0 41 29.5 71t70.5 30t70.5 -30t29.5 -71t-29.5 -70.5t-70.5 -29.5t-70.5 29.5t-29.5 70.5zM438 379h287l-137 307h-15zM643 1247q0 41 29.5 71t70.5 30t71 -30t30 -71t-30 -70.5t-71 -29.5 t-70.5 29.5t-29.5 70.5z" />
<glyph unicode="&#xe5;" horiz-adv-x="1167" d="M78 0l483 1034h41l488 -1034h-195l-100 221h-424l-97 -221h-196zM391 1288q0 80 56.5 136.5t136.5 56.5q79 0 135.5 -56.5t56.5 -136.5t-56 -136t-136 -56t-136.5 56.5t-56.5 135.5zM438 379h287l-137 307h-15zM485 1286q0 -45 26.5 -74.5t70.5 -29.5t71 29.5t27 74.5 t-27.5 77t-70.5 32t-70 -31.5t-27 -77.5z" />
<glyph unicode="&#xe6;" horiz-adv-x="1638" d="M57 0l705 1024h688v-162h-498v-260h437v-162h-437v-278h518v-162h-706v221h-356l-150 -221h-201zM514 379h250v354h-8z" />
<glyph unicode="&#xe7;" horiz-adv-x="1167" d="M119 500q0 124 46 228.5t123.5 172.5t176.5 105.5t207 37.5t204 -32.5t156 -75.5l-61 -160q-145 100 -303 98q-69 -1 -131 -23t-114 -65t-83 -115.5t-31 -166.5q0 -155 103 -254.5t260 -99.5q161 0 301 108l71 -154q-68 -50 -160.5 -84t-187.5 -38l-53 -105 q92 0 148.5 -33.5t56.5 -97.5q0 -77 -82 -131t-211 -74l-16 80q87 9 138.5 38.5t51.5 70.5q0 65 -158 65q-33 0 -61 -4l-10 14l90 181q-210 25 -340.5 169.5t-130.5 344.5z" />
<glyph unicode="&#xe8;" horiz-adv-x="1064" d="M190 0v1024h687v-162h-498v-260h436v-162h-436v-278h518v-162h-707zM283 1458v21h172l196 -336v-17h-125z" />
<glyph unicode="&#xe9;" horiz-adv-x="1064" d="M190 0v1024h687v-162h-498v-260h436v-162h-436v-278h518v-162h-707zM426 1126v17l197 336h172v-21l-244 -332h-125z" />
<glyph unicode="&#xea;" horiz-adv-x="1064" d="M190 0v1024h687v-162h-498v-260h436v-162h-436v-278h518v-162h-707zM262 1126v17l248 336h57l248 -336v-17h-115l-161 193l-162 -193h-115z" />
<glyph unicode="&#xeb;" horiz-adv-x="1064" d="M190 0v1024h687v-162h-498v-260h436v-162h-436v-278h518v-162h-707zM279 1247q0 41 29.5 71t70.5 30t70.5 -30t29.5 -71t-29.5 -70.5t-70.5 -29.5t-70.5 29.5t-29.5 70.5zM598 1247q0 41 29.5 71t70.5 30t71 -30t30 -71t-30 -70.5t-71 -29.5t-70.5 29.5t-29.5 70.5z" />
<glyph unicode="&#xec;" horiz-adv-x="634" d="M51 1458v21h172l197 -336v-17h-125zM223 0v1024h189v-1024h-189z" />
<glyph unicode="&#xed;" horiz-adv-x="634" d="M195 1126v17l196 336h172v-21l-244 -332h-124zM223 0v1024h189v-1024h-189z" />
<glyph unicode="&#xee;" horiz-adv-x="634" d="M31 1126v17l248 336h57l248 -336v-17h-115l-162 193l-162 -193h-114zM223 0v1024h189v-1024h-189z" />
<glyph unicode="&#xef;" horiz-adv-x="634" d="M47 1247q0 41 29.5 71t70.5 30t71 -30t30 -71t-30 -70.5t-71 -29.5t-70.5 29.5t-29.5 70.5zM223 0v1024h189v-1024h-189zM367 1247q0 41 29.5 71t70.5 30t70.5 -30t29.5 -71t-29.5 -70.5t-70.5 -29.5t-70.5 29.5t-29.5 70.5z" />
<glyph unicode="&#xf0;" horiz-adv-x="1187" d="M51 455v125h139v444h340q149 0 271.5 -63t195 -179t72.5 -262q0 -164 -70.5 -283t-190.5 -178t-276 -59h-342v455h-139zM379 162h162q158 0 247 96t89 266q0 97 -51.5 176.5t-128.5 120.5t-158 41h-160v-282h209v-125h-209v-293z" />
<glyph unicode="&#xf1;" horiz-adv-x="1331" d="M190 0v1034h62l684 -676h16v666h189v-1034h-62l-684 674h-16v-664h-189zM381 1161q0 114 50 180t122 66q36 0 69.5 -20.5t54.5 -45t46 -45t47 -20.5q34 0 53 37t19 90h106q0 -99 -48 -172.5t-122 -73.5q-30 0 -57 13.5t-46.5 32.5t-37 37.5t-36 32t-36.5 13.5 q-37 0 -59.5 -35.5t-22.5 -89.5h-102z" />
<glyph unicode="&#xf2;" horiz-adv-x="1331" d="M119 500q0 160 77.5 286t202 192t269.5 66q106 0 204 -38.5t174 -107t121 -172.5t45 -226q0 -136 -69.5 -254.5t-195.5 -192t-279 -73.5q-152 0 -278 68.5t-198.5 188t-72.5 263.5zM311 504q0 -93 41 -172.5t125 -130.5t195 -51q153 0 250.5 106t97.5 248 q0 162 -102.5 266t-251.5 104q-94 0 -173.5 -41.5t-130.5 -127.5t-51 -201zM410 1458v21h172l196 -336v-17h-125z" />
<glyph unicode="&#xf3;" horiz-adv-x="1331" d="M119 500q0 160 77.5 286t202 192t269.5 66q106 0 204 -38.5t174 -107t121 -172.5t45 -226q0 -136 -69.5 -254.5t-195.5 -192t-279 -73.5q-152 0 -278 68.5t-198.5 188t-72.5 263.5zM311 504q0 -93 41 -172.5t125 -130.5t195 -51q153 0 250.5 106t97.5 248 q0 162 -102.5 266t-251.5 104q-94 0 -173.5 -41.5t-130.5 -127.5t-51 -201zM553 1126v17l197 336h172v-21l-244 -332h-125z" />
<glyph unicode="&#xf4;" horiz-adv-x="1331" d="M119 500q0 160 77.5 286t202 192t269.5 66q106 0 204 -38.5t174 -107t121 -172.5t45 -226q0 -136 -69.5 -254.5t-195.5 -192t-279 -73.5q-152 0 -278 68.5t-198.5 188t-72.5 263.5zM311 504q0 -93 41 -172.5t125 -130.5t195 -51q153 0 250.5 106t97.5 248 q0 162 -102.5 266t-251.5 104q-94 0 -173.5 -41.5t-130.5 -127.5t-51 -201zM389 1126v17l248 336h57l248 -336v-17h-115l-161 193l-162 -193h-115z" />
<glyph unicode="&#xf5;" horiz-adv-x="1331" d="M119 500q0 160 77.5 286t202 192t269.5 66q106 0 204 -38.5t174 -107t121 -172.5t45 -226q0 -136 -69.5 -254.5t-195.5 -192t-279 -73.5q-152 0 -278 68.5t-198.5 188t-72.5 263.5zM311 504q0 -93 41 -172.5t125 -130.5t195 -51q153 0 250.5 106t97.5 248 q0 162 -102.5 266t-251.5 104q-94 0 -173.5 -41.5t-130.5 -127.5t-51 -201zM381 1161q0 114 50 180t122 66q36 0 69.5 -20.5t54.5 -45t46 -45t47 -20.5q34 0 53 37t19 90h106q0 -99 -48 -172.5t-122 -73.5q-30 0 -57 13.5t-46.5 32.5t-37 37.5t-36 32t-36.5 13.5 q-37 0 -59.5 -35.5t-22.5 -89.5h-102z" />
<glyph unicode="&#xf6;" horiz-adv-x="1331" d="M119 500q0 160 77.5 286t202 192t269.5 66q106 0 204 -38.5t174 -107t121 -172.5t45 -226q0 -136 -69.5 -254.5t-195.5 -192t-279 -73.5q-152 0 -278 68.5t-198.5 188t-72.5 263.5zM311 504q0 -93 41 -172.5t125 -130.5t195 -51q153 0 250.5 106t97.5 248 q0 162 -102.5 266t-251.5 104q-94 0 -173.5 -41.5t-130.5 -127.5t-51 -201zM406 1247q0 41 29.5 71t70.5 30t70.5 -30t29.5 -71t-29.5 -70.5t-70.5 -29.5t-70.5 29.5t-29.5 70.5zM725 1247q0 41 29.5 71t70.5 30t71 -30t30 -71t-30 -70.5t-71 -29.5t-70.5 29.5t-29.5 70.5z " />
<glyph unicode="&#xf7;" d="M68 547v139h950v-139h-950zM420 281q0 51 36 86.5t87 35.5t87 -35.5t36 -86.5t-36 -87t-87 -36t-87 36t-36 87zM420 952q0 51 36 87t87 36t87 -36t36 -87t-36 -87t-87 -36t-87 36t-36 87z" />
<glyph unicode="&#xf8;" horiz-adv-x="1331" d="M119 500q0 160 77.5 286t202 192t269.5 66q170 0 315 -96l96 113l74 -55l-100 -115q159 -156 159 -391q0 -136 -69.5 -254.5t-195.5 -192t-279 -73.5q-178 0 -318 92l-106 -125l-74 55l109 127q-76 70 -118 166t-42 205zM311 504q0 -142 84 -238l471 547q-89 61 -200 61 q-94 0 -173.5 -41.5t-130.5 -127.5t-51 -201zM467 207q85 -57 205 -57q153 0 250.5 106t97.5 248q0 144 -86 246z" />
<glyph unicode="&#xf9;" horiz-adv-x="1290" d="M190 434v590h189v-555q0 -165 70.5 -242t195.5 -77q122 0 194.5 78.5t71.5 240.5v555h189v-580q0 -90 -27.5 -171t-81 -147.5t-143 -106t-203.5 -39.5q-103 0 -183 26t-130.5 68.5t-83 102t-45.5 122.5t-13 135zM389 1458v21h172l197 -336v-17h-125z" />
<glyph unicode="&#xfa;" horiz-adv-x="1290" d="M190 434v590h189v-555q0 -165 70.5 -242t195.5 -77q122 0 194.5 78.5t71.5 240.5v555h189v-580q0 -90 -27.5 -171t-81 -147.5t-143 -106t-203.5 -39.5q-103 0 -183 26t-130.5 68.5t-83 102t-45.5 122.5t-13 135zM532 1126v17l197 336h172v-21l-244 -332h-125z" />
<glyph unicode="&#xfb;" horiz-adv-x="1290" d="M190 434v590h189v-555q0 -165 70.5 -242t195.5 -77q122 0 194.5 78.5t71.5 240.5v555h189v-580q0 -90 -27.5 -171t-81 -147.5t-143 -106t-203.5 -39.5q-103 0 -183 26t-130.5 68.5t-83 102t-45.5 122.5t-13 135zM369 1126v17l247 336h58l248 -336v-17h-115l-162 193 l-162 -193h-114z" />
<glyph unicode="&#xfc;" horiz-adv-x="1290" d="M190 434v590h189v-555q0 -165 70.5 -242t195.5 -77q122 0 194.5 78.5t71.5 240.5v555h189v-580q0 -90 -27.5 -171t-81 -147.5t-143 -106t-203.5 -39.5q-103 0 -183 26t-130.5 68.5t-83 102t-45.5 122.5t-13 135zM385 1247q0 41 29.5 71t70.5 30t71 -30t30 -71t-30 -70.5 t-71 -29.5t-70.5 29.5t-29.5 70.5zM705 1247q0 41 29.5 71t70.5 30t70.5 -30t29.5 -71t-29.5 -70.5t-70.5 -29.5t-70.5 29.5t-29.5 70.5z" />
<glyph unicode="&#xfd;" d="M57 1024h201l283 -440h8l278 440h201l-391 -608v-416h-188v416zM430 1126v17l197 336h172v-21l-244 -332h-125z" />
<glyph unicode="&#xfe;" horiz-adv-x="1024" d="M190 0v1024h189v-164h186q160 0 260.5 -88t100.5 -235q0 -44 -11.5 -87.5t-40 -87.5t-70.5 -77.5t-108.5 -54.5t-148.5 -21h-168v-209h-189zM379 365h174q86 0 133 44.5t47 129.5q0 83 -48 124.5t-128 41.5h-178v-340z" />
<glyph unicode="&#xff;" d="M57 1024h201l283 -440h8l278 440h201l-391 -608v-416h-188v416zM283 1247q0 41 29.5 71t70.5 30t70.5 -30t29.5 -71t-29.5 -70.5t-70.5 -29.5t-70.5 29.5t-29.5 70.5zM602 1247q0 41 29.5 71t70.5 30t71 -30t30 -71t-30 -70.5t-71 -29.5t-70.5 29.5t-29.5 70.5z" />
<glyph unicode="&#x152;" horiz-adv-x="2048" d="M160 686q0 162 58 302.5t154 234.5t221 147t259 53q107 0 209 -30h788v-168h-596v-416h535v-168h-535v-473h617v-168h-809q-114 -31 -209 -31q-190 0 -348.5 93t-251 258t-92.5 366zM360 690q0 -143 58 -266t173 -202t265 -79q113 0 205 47v1008q-102 51 -219 51 q-94 0 -180.5 -39t-153.5 -109t-107.5 -177t-40.5 -234z" />
<glyph unicode="&#x153;" horiz-adv-x="1699" d="M119 500q0 160 77.5 286t202 192t269.5 66q84 0 157 -20h686v-162h-497v-260h436v-162h-436v-278h518v-162h-707v2q-77 -22 -157 -22q-152 0 -278 68.5t-198.5 188t-72.5 263.5zM311 504q0 -93 41 -172.5t125 -130.5t195 -51q86 0 153 34v654q-71 36 -159 36 q-94 0 -173.5 -41.5t-130.5 -127.5t-51 -201z" />
<glyph unicode="&#x178;" horiz-adv-x="1372" d="M98 1393h213l371 -586h16l363 586h213l-492 -772v-621h-192v621zM428 1595q0 41 29.5 71t70.5 30t71 -30t30 -71t-30 -70.5t-71 -29.5t-70.5 29.5t-29.5 70.5zM748 1595q0 41 29.5 71t70.5 30t70.5 -30t29.5 -71t-29.5 -70.5t-70.5 -29.5t-70.5 29.5t-29.5 70.5z" />
<glyph unicode="&#x2c6;" horiz-adv-x="1024" d="M236 918v16l247 336h58l247 -336v-16h-114l-162 192l-162 -192h-114z" />
<glyph unicode="&#x2dc;" horiz-adv-x="1024" d="M227 952q0 114 50 180t122 66q36 0 69.5 -20.5t54.5 -45t46 -45t47 -20.5q34 0 53 37t19 90h107q0 -99 -48 -172.5t-122 -73.5q-30 0 -57 13.5t-46.5 32t-37 37.5t-36 32.5t-36.5 13.5q-37 0 -59.5 -35.5t-22.5 -89.5h-103z" />
<glyph unicode="&#x2000;" horiz-adv-x="924" />
<glyph unicode="&#x2001;" horiz-adv-x="1849" />
<glyph unicode="&#x2002;" horiz-adv-x="924" />
<glyph unicode="&#x2003;" horiz-adv-x="1849" />
<glyph unicode="&#x2004;" horiz-adv-x="616" />
<glyph unicode="&#x2005;" horiz-adv-x="462" />
<glyph unicode="&#x2006;" horiz-adv-x="308" />
<glyph unicode="&#x2007;" horiz-adv-x="308" />
<glyph unicode="&#x2008;" horiz-adv-x="231" />
<glyph unicode="&#x2009;" horiz-adv-x="369" />
<glyph unicode="&#x200a;" horiz-adv-x="102" />
<glyph unicode="&#x2010;" horiz-adv-x="880" d="M174 406v172h533v-172h-533z" />
<glyph unicode="&#x2011;" horiz-adv-x="880" d="M174 406v172h533v-172h-533z" />
<glyph unicode="&#x2012;" horiz-adv-x="880" d="M174 406v172h533v-172h-533z" />
<glyph unicode="&#x2013;" horiz-adv-x="1167" d="M174 406v172h819v-172h-819z" />
<glyph unicode="&#x2014;" horiz-adv-x="2232" d="M281 418v149h1671v-149h-1671z" />
<glyph unicode="&#x2018;" horiz-adv-x="614" d="M125 889l229 504h129l-141 -504h-217z" />
<glyph unicode="&#x2019;" horiz-adv-x="614" d="M131 889l141 504h217l-229 -504h-129z" />
<glyph unicode="&#x201a;" horiz-adv-x="614" d="M131 -268l141 504h217l-229 -504h-129z" />
<glyph unicode="&#x201c;" horiz-adv-x="1003" d="M125 889l229 504h129l-141 -504h-217zM514 889l229 504h129l-141 -504h-217z" />
<glyph unicode="&#x201d;" horiz-adv-x="1003" d="M131 889l141 504h217l-229 -504h-129zM520 889l142 504h217l-230 -504h-129z" />
<glyph unicode="&#x201e;" horiz-adv-x="1003" d="M131 -268l141 504h217l-229 -504h-129zM520 -268l142 504h217l-230 -504h-129z" />
<glyph unicode="&#x2022;" horiz-adv-x="1167" d="M305 541q0 115 81.5 196.5t197.5 81.5t197 -81.5t81 -196.5q0 -116 -81.5 -197.5t-196.5 -81.5q-116 0 -197.5 82t-81.5 197z" />
<glyph unicode="&#x2026;" horiz-adv-x="2048" d="M246 109q0 51 36 86.5t87 35.5t87 -35.5t36 -86.5t-36 -87t-87 -36t-87 36t-36 87zM901 109q0 51 36 86.5t87 35.5t87 -35.5t36 -86.5t-36 -87t-87 -36t-87 36t-36 87zM1556 109q0 51 36 86.5t87 35.5t87 -35.5t36 -86.5t-36 -87t-87 -36t-87 36t-36 87z" />
<glyph unicode="&#x202f;" horiz-adv-x="369" />
<glyph unicode="&#x2039;" horiz-adv-x="880" d="M174 455v26l404 459l104 -74l-279 -385v-20l279 -393l-104 -76z" />
<glyph unicode="&#x203a;" horiz-adv-x="880" d="M199 68l278 393v20l-278 385l104 74l404 -459v-26l-404 -463z" />
<glyph unicode="&#x205f;" horiz-adv-x="462" />
<glyph unicode="&#x20ac;" horiz-adv-x="1351" d="M102 526l29 113h90v35q0 42 2 65h-121l29 113h105q24 133 83.5 241.5t142 180t184 110.5t210.5 39q162 0 326 -67l-45 -170q-135 66 -285 63q-146 -2 -262 -104t-154 -293h613l-29 -113h-596q-2 -18 -2 -57v-43h573l-28 -113h-531q36 -174 143 -278.5t257 -104.5 q155 0 301 76l65 -156q-174 -94 -371 -94q-231 0 -394 156.5t-204 400.5h-131z" />
<glyph unicode="&#x2122;" horiz-adv-x="1597" d="M244 1300v93h479v-93h-191v-440h-98v440h-190zM737 860l88 537h45l158 -348h8l154 348h45l88 -537h-96l-49 297h-11l-133 -305h-10l-133 305h-8l-52 -297h-94z" />
<glyph unicode="&#xe000;" horiz-adv-x="1024" d="M0 0v1024h1024v-1024h-1024z" />
</font>
</defs>
</svg>
