<?xml version="1.0" standalone="no"?>
<!DOCTYPE svg PUBLIC "-//W3C//DTD SVG 1.1//EN" "http://www.w3.org/Graphics/SVG/1.1/DTD/svg11.dtd" >
<svg xmlns="http://www.w3.org/2000/svg">
<metadata></metadata>
<defs>
<font id="concourse_t7regular" horiz-adv-x="1024" >
<font-face units-per-em="2048" ascent="1520" descent="-528" />
<missing-glyph horiz-adv-x="471" />
<glyph unicode="&#xfb01;" horiz-adv-x="1290" d="M41 678v223l133 76v47q0 102 73 204t195 154l308 35l18 -203q-108 -18 -166.5 -88t-58.5 -153v-15h164v-280h-164v-678h-369v678h-133zM807 1233q0 72 60.5 124t146.5 52t146.5 -52t60.5 -124t-60.5 -124t-146.5 -52t-146.5 52t-60.5 124zM829 0v930l369 39v-969h-369z " />
<glyph unicode="&#xfb02;" horiz-adv-x="1290" d="M41 678v223l133 76v47q0 102 73 204t195 154l308 35l18 -203q-108 -18 -166.5 -88t-58.5 -153v-15h164v-280h-164v-678h-369v678h-133zM829 0v1386l369 31v-1417h-369z" />
<glyph horiz-adv-x="2048" />
<glyph horiz-adv-x="2048" />
<glyph unicode="&#xd;" horiz-adv-x="2048" />
<glyph unicode=" "  horiz-adv-x="471" />
<glyph unicode="&#x09;" horiz-adv-x="471" />
<glyph unicode="&#xa0;" horiz-adv-x="471" />
<glyph unicode="!" horiz-adv-x="716" d="M154 1393h409l-39 -482l-41 -424h-241l-43 422zM176 182q0 78 54 131.5t135 53.5q89 0 140.5 -56.5t51.5 -136.5q0 -79 -53.5 -133.5t-134.5 -54.5q-85 0 -139 54t-54 142z" />
<glyph unicode="&#x22;" horiz-adv-x="1044" d="M131 1393h332l-60 -643h-215zM582 1393h331l-59 -643h-215z" />
<glyph unicode="#" horiz-adv-x="1105" d="M41 459l29 180l211 -37l65 277l-182 32l35 191l194 -35l105 432l157 -35l-102 -424l152 -26l110 459l158 -35l-111 -453l199 -35l-35 -190l-209 37l-67 -279l182 -31l-29 -180l-196 35l-117 -487l-158 36l115 478l-150 26l-125 -514l-157 37l123 506zM440 573l150 -26 l67 276l-151 27z" />
<glyph unicode="$" horiz-adv-x="1044" d="M59 176l80 281q162 -97 310 -109l22 240q-4 2 -17.5 7.5t-21.5 10.5q-59 27 -101.5 50.5t-92 61t-80 77.5t-51.5 96.5t-21 122.5q0 70 29 132t84 110t142.5 76.5t197.5 29.5l18 172l125 -12l-16 -168q165 -23 290 -94l-69 -299q-158 86 -260 104l-21 -205l27 -10 q103 -46 174 -97t109 -104.5t53.5 -105.5t15.5 -113q0 -75 -26 -137t-68.5 -103.5t-101.5 -70.5t-121.5 -43t-130.5 -17l-21 -198l-125 12l19 193q-98 11 -191.5 41.5t-159.5 68.5zM399 1014q0 -31 21.5 -53t83.5 -52l16 166q-60 0 -90.5 -16.5t-30.5 -44.5zM555 348 q57 6 86 27t29 53t-20 54.5t-77 52.5z" />
<glyph unicode="%" horiz-adv-x="1392" d="M92 1081q0 144 83.5 239t209.5 95q138 0 221.5 -93.5t83.5 -240.5q0 -139 -86.5 -230t-212.5 -91q-128 0 -213.5 90.5t-85.5 230.5zM137 49l490 649l501 713l115 -63l-516 -695l-475 -671zM303 1083q0 -65 25.5 -104t68.5 -39q34 0 58 39t24 104q0 68 -23.5 110t-64.5 42 q-38 0 -63 -43.5t-25 -108.5zM702 299q0 144 83.5 239t209.5 95q138 0 221.5 -93.5t83.5 -240.5q0 -139 -86.5 -230.5t-212.5 -91.5q-128 0 -213.5 91t-85.5 231zM913 301q0 -64 26 -103.5t69 -39.5q34 0 58 39t24 104q0 68 -24 110t-65 42q-38 0 -63 -43.5t-25 -108.5z" />
<glyph unicode="&#x26;" horiz-adv-x="1454" d="M68 408q0 271 262 407v10q-160 99 -160 254q0 97 67 176.5t178 123.5t240 44q123 0 216.5 -24.5t187.5 -67.5l-90 -280h-11q-121 59 -239 59q-82 0 -131 -28.5t-49 -77.5q0 -95 123 -127v-150q-94 -15 -160 -80.5t-66 -152.5q0 -99 74 -152t192 -53q132 0 219 58.5 t87 146.5q0 48 -15 88l-141 -33l-57 242l546 127l58 -240l-131 -31q59 -97 59 -198q0 -141 -83.5 -251t-231.5 -169.5t-336 -59.5q-140 0 -256.5 35.5t-192.5 95.5t-117.5 139.5t-41.5 168.5z" />
<glyph unicode="'" horiz-adv-x="593" d="M131 1393h332l-60 -643h-215z" />
<glyph unicode="(" horiz-adv-x="921" d="M113 573q0 165 47.5 316.5t132 273.5t187 218.5t225.5 174.5l155 -204q-389 -296 -389 -779q0 -225 111.5 -424.5t308.5 -343.5l-186 -215q-592 435 -592 983z" />
<glyph unicode=")" horiz-adv-x="921" d="M31 -195q197 144 308.5 343.5t111.5 424.5q0 483 -390 779l156 204q123 -78 225.5 -174.5t187 -218.5t132 -273.5t47.5 -316.5q0 -548 -592 -983z" />
<glyph unicode="*" horiz-adv-x="1085" d="M119 909l71 265l291 -158l-75 377h290l-98 -383l295 188l76 -278l-332 -27l301 -242l-207 -186l-190 336l-181 -348l-217 204l299 234z" />
<glyph unicode="+" horiz-adv-x="1085" d="M68 504v225h362v363h225v-363h363v-225h-363v-363h-225v363h-362z" />
<glyph unicode="," horiz-adv-x="634" d="M20 -309l189 551h383v-11l-359 -550h-213v10z" />
<glyph unicode="-" horiz-adv-x="757" d="M92 348v285h574v-285h-574z" />
<glyph unicode="." horiz-adv-x="593" d="M106 176q0 78 56.5 134.5t134.5 56.5t134 -56.5t56 -134.5t-56 -134t-134 -56t-134.5 56t-56.5 134z" />
<glyph unicode="/" horiz-adv-x="1044" d="M20 -328l758 1762h246l-758 -1762h-246z" />
<glyph unicode="0" horiz-adv-x="1269" d="M61 711q0 176 46 314t126 224t183 130t223 44q126 0 229.5 -45.5t179.5 -132.5t118 -223.5t42 -310.5q0 -179 -42 -321t-118 -233.5t-180 -139.5t-229 -48q-96 0 -180.5 26.5t-158 84.5t-126.5 143t-83 210t-30 278zM451 715q0 -422 190 -422q89 0 133.5 96.5t44.5 325.5 q0 385 -188 385q-80 0 -130 -92t-50 -293z" />
<glyph unicode="1" horiz-adv-x="1064" d="M119 1350l649 61l27 -25v-1386h-385v1022l-265 -27z" />
<glyph unicode="2" horiz-adv-x="1208" d="M53 154q172 135 302.5 259t205.5 221.5t111.5 172.5t36.5 129q0 78 -43.5 112.5t-139.5 34.5q-80 0 -174 -35t-168 -87l-82 309q70 65 203.5 109t282.5 44q82 0 156 -13.5t141 -44t116 -75t78 -112t29 -150.5q0 -184 -124 -360t-353 -324l4 -10l493 31v-365h-1028z" />
<glyph unicode="3" horiz-adv-x="1167" d="M63 373h11q208 -84 391 -84q106 0 169.5 34.5t63.5 104.5q0 59 -50 96.5t-138 34.5l-307 -12l16 305l283 -12q87 -3 129.5 35t42.5 92q0 65 -53 100t-158 35q-148 0 -311 -72h-17l19 330q168 63 391 63q142 0 257 -39.5t188 -124.5t73 -202q0 -243 -232 -340v-10 q111 -28 183.5 -118t72.5 -206q0 -73 -23 -133.5t-60 -102.5t-88 -74.5t-103 -51.5t-109.5 -31t-103.5 -16.5t-88 -4.5q-248 0 -440 76z" />
<glyph unicode="4" horiz-adv-x="1249" d="M61 489l584 904h410v-762l123 4v-287h-123v-348h-379v348h-582zM428 608l248 8v404h-10l-238 -404v-8z" />
<glyph unicode="5" horiz-adv-x="1167" d="M84 -2l33 295q84 -23 194 -23q189 0 286 58.5t97 140.5q0 90 -103.5 140t-283.5 50q-116 0 -192 -10l-13 6l99 738h835l-20 -324l-545 21l-25 -187q54 4 82 4q115 0 209.5 -23.5t160 -64t110.5 -95.5t65.5 -117t20.5 -130q0 -123 -58.5 -221t-161 -160t-236.5 -94.5 t-290 -32.5q-162 0 -264 29z" />
<glyph unicode="6" horiz-adv-x="1208" d="M72 535q0 167 53 308.5t145.5 242.5t219 174t272 110.5t305.5 42.5l-29 -299q-222 -13 -362 -95t-184 -200l6 -6q95 68 229 68q58 0 117.5 -17.5t116 -54.5t100 -89t70 -128t26.5 -164q0 -111 -41.5 -199.5t-113 -144.5t-165.5 -85.5t-202 -29.5q-118 0 -213 30.5 t-159.5 82.5t-108 124.5t-63 154.5t-19.5 174zM469 578q-26 -126 16.5 -223t139.5 -97q63 0 103 44t40 132q0 100 -46 150.5t-116 50.5q-71 0 -137 -57z" />
<glyph unicode="7" horiz-adv-x="1146" d="M84 1055l20 338h1024l21 -25q-457 -700 -471 -1368h-430q41 296 158.5 579.5t279.5 489.5l-8 8z" />
<glyph unicode="8" horiz-adv-x="1208" d="M61 348q0 122 80.5 216t184.5 132v4q-224 150 -224 342q0 79 33 147t96 121t163.5 83t226.5 30q210 0 347.5 -98t137.5 -260q0 -110 -52.5 -186t-174.5 -142v-6q150 -88 209 -179t59 -194q0 -173 -146 -281t-401 -108q-247 0 -393 106t-146 273zM438 399q0 -70 49 -110.5 t125 -40.5q69 0 116.5 31.5t47.5 91.5q0 53 -52.5 104t-174.5 111q-56 -32 -83.5 -82.5t-27.5 -104.5zM469 1032q0 -40 42 -84.5t155 -105.5q82 59 82 164q0 61 -40.5 100t-105.5 39q-59 0 -96 -33t-37 -80z" />
<glyph unicode="9" horiz-adv-x="1208" d="M55 950q0 109 44 200t117.5 150t167.5 91t196 32q136 0 244 -46t176.5 -127t104.5 -188.5t36 -234.5q0 -148 -42 -272t-113.5 -213.5t-176 -161.5t-218 -118.5t-251.5 -81.5l-127 266v16q214 44 353.5 128.5t168.5 195.5l-6 6q-92 -80 -264 -80q-55 0 -111 17t-110 53.5 t-96 87t-67.5 123.5t-25.5 157zM444 938q0 -87 45 -133.5t113 -46.5q77 0 141 67q13 46 10 100.5t-15.5 101t-49 77.5t-90.5 31q-70 0 -112 -54.5t-42 -142.5z" />
<glyph unicode=":" horiz-adv-x="675" d="M147 176q0 78 56.5 134.5t134.5 56.5t134 -56.5t56 -134.5t-56 -134t-134 -56t-134.5 56t-56.5 134zM147 729q0 78 56.5 134.5t134.5 56.5t134 -56.5t56 -134.5t-56 -134t-134 -56t-134.5 56t-56.5 134z" />
<glyph unicode=";" horiz-adv-x="675" d="M20 -309l189 551h383v-11l-359 -550h-213v10zM180 729q0 78 56.5 134.5t134.5 56.5t134 -56.5t56 -134.5t-56 -134t-134 -56t-134.5 56t-56.5 134z" />
<glyph unicode="&#x3c;" horiz-adv-x="1085" d="M102 573v168l828 410l92 -205l-621 -284l621 -293l-92 -205z" />
<glyph unicode="=" horiz-adv-x="1085" d="M88 299v225h909v-225h-909zM88 692v226h909v-226h-909z" />
<glyph unicode="&#x3e;" horiz-adv-x="1085" d="M63 369l621 293l-621 284l93 205l827 -410v-168l-827 -409z" />
<glyph unicode="?" horiz-adv-x="1003" d="M145 1092l19 284q107 47 266 47q224 0 358 -108t134 -281q0 -91 -40.5 -165t-107.5 -121t-140.5 -76t-152.5 -41v-144h-270v355q352 20 352 182q0 55 -46.5 87t-119.5 32q-131 0 -233 -51h-19zM156 182q0 79 53.5 132t134.5 53q90 0 141.5 -56.5t51.5 -136.5 q0 -79 -54 -133.5t-135 -54.5q-85 0 -138.5 53.5t-53.5 142.5z" />
<glyph unicode="@" horiz-adv-x="1474" d="M92 594q0 174 63 329.5t170.5 267.5t257.5 177.5t318 65.5q108 0 199 -22.5t160.5 -67t105 -118.5t27.5 -169l-50 -549q-8 -102 54 -168l-2 -21l-242 -59l-53 121h-15q-97 -94 -231 -94q-132 0 -220.5 84t-88.5 235q0 156 114.5 257.5t284.5 101.5q88 0 168 -17l12 92 q10 81 -51.5 116.5t-181.5 35.5q-228 0 -380.5 -169t-152.5 -421q0 -110 25 -200t66.5 -149.5t99 -100t120 -58.5t130.5 -18q193 0 288 74h11l90 -224q-160 -98 -402 -98q-106 0 -204 26.5t-188 86t-156.5 146.5t-106 217.5t-39.5 289.5zM799 625q0 -109 125 -109 q78 0 161 49l15 183q-91 14 -135 14q-73 0 -119.5 -37t-46.5 -100z" />
<glyph unicode="A" horiz-adv-x="1433" d="M10 0l539 1393h328l546 -1393h-389l-88 219h-463l-84 -219h-389zM590 510h248l-113 389h-18z" />
<glyph unicode="B" horiz-adv-x="1249" d="M113 0v1393h516q248 0 374.5 -97t126.5 -252q0 -56 -18.5 -113.5t-62.5 -113t-107 -82.5v-10q128 -37 192 -124.5t64 -199.5q0 -190 -145 -295.5t-400 -105.5h-540zM494 303h178q54 0 94.5 34.5t40.5 96.5q0 57 -40 94t-97 37h-176v-262zM494 823h131q55 0 94 35.5 t39 91.5q0 59 -39.5 97t-97.5 38h-127v-262z" />
<glyph unicode="C" horiz-adv-x="1331" d="M72 674q0 161 57.5 302t154 238t227 153t273.5 56q124 0 240 -32t246 -113l-113 -322h-10q-73 59 -161 89q-83 28 -161 28h-10q-146 -2 -245 -103t-99 -286q0 -90 29 -160.5t79 -114t115 -65.5t140 -22q85 0 174.5 33t148.5 85h10l113 -311q-208 -160 -500 -160 q-209 0 -371 91t-249.5 251t-87.5 363z" />
<glyph unicode="D" horiz-adv-x="1413" d="M113 0v1393h479q156 0 291 -47t237.5 -134.5t161.5 -223.5t59 -304q0 -200 -99 -357t-269 -242t-379 -85h-481zM498 328h104q150 0 250 100.5t100 259.5q0 95 -31.5 170t-82.5 118.5t-109.5 66t-118.5 22.5h-112v-737z" />
<glyph unicode="E" horiz-adv-x="1105" d="M113 0v1393h897v-336h-512v-195h442v-315h-442v-211h532v-336h-917z" />
<glyph unicode="F" horiz-adv-x="1064" d="M113 0v1393h897v-336h-512v-215h442v-326h-442v-516h-385z" />
<glyph unicode="G" horiz-adv-x="1474" d="M72 674q0 152 52 288.5t145.5 238.5t232.5 162t303 60q147 0 277 -44t225 -111l-119 -310h-10q-67 56 -154.5 90.5t-181.5 34.5q-162 0 -266.5 -108t-104.5 -293q0 -89 29 -161t78 -117t110.5 -69t128.5 -24q108 0 187 62v162h-285v309h643v-680q-100 -86 -245.5 -140.5 t-325.5 -54.5q-208 0 -371 85.5t-255.5 247t-92.5 372.5z" />
<glyph unicode="H" horiz-adv-x="1454" d="M113 0v1393h385v-519h458v519h385v-1393h-385v535h-458v-535h-385z" />
<glyph unicode="I" horiz-adv-x="655" d="M135 0v1393h385v-1393h-385z" />
<glyph unicode="J" d="M37 47l82 322h10q73 -58 188 -58q92 0 150.5 64t58.5 182v836h385v-910q0 -124 -46 -224.5t-122.5 -162t-169.5 -94.5t-192 -33q-220 0 -344 78z" />
<glyph unicode="K" horiz-adv-x="1392" d="M113 0v1393h385v-551h14l381 551h446v-11l-477 -651l516 -725v-6h-471l-395 590h-14v-590h-385z" />
<glyph unicode="L" horiz-adv-x="1064" d="M113 0v1393h385v-1053h506v-340h-891z" />
<glyph unicode="M" horiz-adv-x="1781" d="M51 0l232 1393h239l371 -770h8l359 770h239l232 -1393h-400l-90 629h-10l-279 -629h-123l-278 629h-10l-90 -629h-400z" />
<glyph unicode="N" horiz-adv-x="1556" d="M113 0v1393h286l650 -752h10v752h385v-1393h-291l-645 741h-10v-741h-385z" />
<glyph unicode="O" horiz-adv-x="1597" d="M72 686q0 161 59 300t158 234t232 149t280 54q148 0 280.5 -53t231 -147.5t156 -234t57.5 -302.5q0 -158 -55.5 -293t-152 -227.5t-230.5 -144.5t-287 -52q-214 0 -378.5 86t-257.5 249.5t-93 381.5zM471 690q0 -180 93.5 -279.5t244.5 -99.5q141 0 229 100.5t88 278.5 q0 183 -95 287t-236 104q-137 0 -230.5 -103t-93.5 -288z" />
<glyph unicode="P" horiz-adv-x="1208" d="M113 0v1393h512q253 0 394.5 -121.5t141.5 -349.5q0 -204 -151 -339q-150 -134 -384 -134h-3h-125v-449h-385zM498 748h92q72 0 127 46t55 128q0 79 -51 121t-131 42h-92v-337z" />
<glyph unicode="Q" horiz-adv-x="1597" d="M72 694q0 194 93.5 361.5t258.5 267.5t362 100q158 0 295 -54.5t235 -150t154 -231.5t56 -293q0 -161 -57.5 -296.5t-155.5 -226t-229.5 -141t-278.5 -50.5v-15q159 -75 364 -75q76 0 158 10l6 -13l-106 -319h-19q-120 0 -234 23q-123 25 -217.5 63t-180 76t-174 66 t-166.5 30l-5 10l121 277q-126 88 -203 241.5t-77 339.5zM471 690q0 -180 93.5 -279.5t244.5 -99.5q141 0 229 100.5t88 278.5q0 183 -95 287t-236 104q-137 0 -230.5 -103t-93.5 -288z" />
<glyph unicode="R" horiz-adv-x="1310" d="M113 0v1393h520q244 0 384 -115t140 -299q0 -142 -69.5 -241.5t-188.5 -145.5l401 -582v-10h-430l-346 555h-26v-555h-385zM498 795h116q69 0 111.5 36t42.5 109q0 67 -42.5 107t-113.5 40h-114v-292z" />
<glyph unicode="S" horiz-adv-x="1167" d="M53 117l113 332q84 -63 183.5 -99.5t191.5 -36.5q88 0 130 24.5t42 63.5q0 10 -3 19t-10 18t-14.5 16.5t-20.5 15.5t-23 14t-28.5 15t-29.5 14t-32.5 15t-33.5 15q-108 50 -183 98t-130.5 106.5t-82 128.5t-26.5 156q0 74 33 143.5t92.5 125t151.5 89t202 33.5 q263 0 494 -131l-104 -338q-189 125 -369 125q-115 0 -115 -67q0 -16 12.5 -33t30 -31.5t50.5 -33t60 -32t72 -34.5q29 -14 44 -21q105 -50 176 -105.5t108 -113.5t51.5 -112t14.5 -117q0 -107 -46.5 -189t-124.5 -128.5t-169 -69.5t-191 -23q-151 0 -291.5 41.5 t-224.5 106.5z" />
<glyph unicode="T" horiz-adv-x="1187" d="M41 1053v340h1106v-340h-361v-1053h-385v1053h-360z" />
<glyph unicode="U" horiz-adv-x="1454" d="M113 506v887h385v-840q0 -107 55.5 -174.5t173.5 -67.5q104 0 166.5 57t62.5 185v840h385v-861q0 -111 -38 -210.5t-111.5 -179t-193.5 -126.5t-271 -47q-136 0 -244 31t-176 82t-113 122t-63 145t-18 157z" />
<glyph unicode="V" horiz-adv-x="1351" d="M-10 1393h420l266 -772h8l258 772h420l-553 -1393h-266z" />
<glyph unicode="W" horiz-adv-x="1843" d="M-10 1393h409l179 -740h10l200 740h267l200 -740h11l178 740h409l-430 -1393h-297l-198 690h-10l-201 -690h-297z" />
<glyph unicode="X" horiz-adv-x="1372" d="M0 0l455 711l-435 682h431l235 -381l246 381h430l-447 -682l457 -711h-430l-256 412l-256 -412h-430z" />
<glyph unicode="Y" horiz-adv-x="1290" d="M-20 1393h409l256 -467l256 467h410l-473 -803v-590h-385v590z" />
<glyph unicode="Z" horiz-adv-x="1290" d="M29 18l626 1041l-6 6h-579v328h1181l11 -13l-629 -1044l6 -8h598v-328h-1198z" />
<glyph unicode="[" horiz-adv-x="921" d="M205 -336l16 930l-16 889l612 -8v-256l-264 8l-12 -639l12 -668l276 8v-256z" />
<glyph unicode="\" horiz-adv-x="1044" d="M20 1434h246l758 -1762h-246z" />
<glyph unicode="]" horiz-adv-x="921" d="M92 -72l277 -8l12 668l-12 639l-265 -8v256l613 8l-17 -889l17 -930l-625 8v256z" />
<glyph unicode="^" horiz-adv-x="1085" d="M61 643l455 772h55l453 -772l-119 -68l-352 615h-16l-359 -615z" />
<glyph unicode="_" horiz-adv-x="1085" d="M-51 -225h1188v-226h-1188v226z" />
<glyph unicode="`" d="M178 1260v20h295l217 -315v-17h-207z" />
<glyph unicode="a" d="M43 264q0 148 109 231t286 83q26 0 48.5 -2t54 -7t43.5 -6v47q0 45 -36.5 68.5t-96.5 23.5q-141 0 -271 -73l-71 264q71 39 188.5 66.5t230.5 27.5q82 0 152.5 -20.5t128 -63t90.5 -116t33 -171.5v-358q0 -107 65 -160v-28l-239 -101q-40 8 -70.5 40t-40.5 67h-10 q-114 -105 -279 -105q-135 0 -225 78.5t-90 214.5zM389 305q0 -40 22 -63t56 -23q74 0 117 68v94q-40 25 -95 25q-42 0 -71 -29.5t-29 -71.5z" />
<glyph unicode="b" horiz-adv-x="1105" d="M86 117v1269l369 31v-502h10q85 72 194 72q183 0 291.5 -137.5t108.5 -345.5q0 -238 -143.5 -385.5t-399.5 -147.5q-271 0 -430 146zM455 299q30 -37 92 -37q64 0 103.5 55.5t39.5 174.5q0 93 -36 148.5t-97 55.5q-31 0 -60 -17.5t-42 -35.5v-344z" />
<glyph unicode="c" horiz-adv-x="901" d="M47 451q0 114 42 214.5t111.5 170.5t163 110.5t193.5 40.5q157 0 279 -76v-286h-13q-89 71 -196 71q-90 0 -150.5 -63t-60.5 -156q0 -103 61 -159t146 -56q117 0 211 62h12v-277q-119 -76 -309 -76q-123 0 -218.5 38.5t-154 106t-88 152.5t-29.5 183z" />
<glyph unicode="d" horiz-adv-x="1105" d="M47 434q0 150 48.5 275.5t140.5 201.5t210 76q131 0 197 -72h8v471l369 31v-1417h-303l-35 100h-10q-42 -51 -96 -82t-91 -39t-73 -8q-158 0 -261.5 123.5t-103.5 339.5zM416 455q0 -95 35 -144t94 -49q29 0 59 14t47 41v328q-10 20 -38 35.5t-62 15.5q-64 0 -99.5 -66.5 t-35.5 -174.5z" />
<glyph unicode="e" d="M47 434q0 119 41 223.5t109.5 176t159 112.5t188.5 41q94 0 176 -34t137.5 -90.5t87 -130t31.5 -152.5q0 -104 -33 -185h-549q0 -143 221 -143q82 0 172.5 20t135.5 52h8l-21 -261q-67 -44 -175 -68t-214 -24q-100 0 -183.5 27t-150 81t-104 145t-37.5 210zM399 555h263 v11q0 62 -32 100q-35 42 -87 41q-55 0 -96.5 -44.5t-47.5 -107.5z" />
<glyph unicode="f" horiz-adv-x="737" d="M41 678v223l133 76v47q0 102 73 204t195 154l308 35l18 -203q-108 -18 -166.5 -88t-58.5 -153v-15h164v-280h-164v-678h-369v678h-133z" />
<glyph unicode="g" horiz-adv-x="1105" d="M47 455q0 145 60 265.5t173.5 193.5t258.5 73q128 0 247 -94l127 72l107 -15v-868q0 -125 -44.5 -223.5t-121.5 -159t-175 -92t-210 -31.5q-223 0 -363 98l89 275q45 -35 114 -55.5t137 -20.5q52 0 98 12t81.5 43.5t36.5 77.5v86h-11q-90 -76 -209 -76q-172 0 -283.5 116 t-111.5 323zM416 465q0 -81 34.5 -119.5t94.5 -38.5q29 0 59 14t47 41v283q-10 20 -38 35.5t-62 15.5q-64 0 -99.5 -64t-35.5 -167z" />
<glyph unicode="h" horiz-adv-x="1105" d="M86 0v1386l369 31v-571h14q91 141 266 141q47 0 95 -18t91.5 -53t71 -95.5t27.5 -136.5v-684h-369v571q0 51 -26.5 80t-61.5 29q-38 0 -66 -19t-42 -45v-616h-369z" />
<glyph unicode="i" horiz-adv-x="552" d="M70 1233q0 72 60 124t146 52t146.5 -52t60.5 -124t-60.5 -124t-146.5 -52t-146 52t-60 124zM92 0v930l369 39v-969h-369z" />
<glyph unicode="j" horiz-adv-x="552" d="M-25 -315q61 45 89 124t28 218v903l369 39v-936q0 -133 -37 -239t-98 -171l-338 -47zM70 1233q0 72 60 124t146 52t146.5 -52t60.5 -124t-60.5 -124t-146.5 -52t-146 52t-60 124z" />
<glyph unicode="k" horiz-adv-x="1126" d="M86 0v1386l369 31v-805h10l250 346h391v-10l-334 -446l354 -488v-14h-403l-258 371h-10v-371h-369z" />
<glyph unicode="l" horiz-adv-x="552" d="M92 0v1386l369 31v-1417h-369z" />
<glyph unicode="m" horiz-adv-x="1658" d="M86 0v958h326l24 -112h15q44 66 120.5 103.5t149.5 37.5q159 0 256 -141h10q55 61 131.5 101t151.5 40q61 0 113.5 -17.5t96 -53.5t68.5 -97t25 -141v-678h-369v567q0 56 -26 84.5t-68 28.5q-61 0 -96 -64v-616h-369v557q0 61 -23.5 92t-64.5 31q-28 0 -56 -17.5 t-46 -44.5v-618h-369z" />
<glyph unicode="n" horiz-adv-x="1105" d="M86 0v958h326l24 -112h15q47 64 119.5 102.5t164.5 38.5q50 0 99 -18.5t91.5 -54.5t68.5 -97t26 -137v-680h-369v561q0 61 -28.5 90t-67.5 29q-60 0 -100 -64v-616h-369z" />
<glyph unicode="o" horiz-adv-x="1085" d="M47 471q0 222 141 369t347 147q221 0 362 -146t141 -370q0 -138 -66.5 -253t-180.5 -181t-248 -66q-209 0 -352.5 138.5t-143.5 361.5zM416 477q0 -215 131 -215q51 0 87 56t36 159q0 109 -33 164t-92 55q-57 0 -93 -57.5t-36 -161.5z" />
<glyph unicode="p" horiz-adv-x="1105" d="M86 -418v1368l92 15l199 -72q50 38 125 66t149 28q79 0 149.5 -29t129.5 -87.5t94 -160t35 -233.5q0 -106 -25 -193.5t-64.5 -144.5t-90.5 -96t-101.5 -55.5t-99.5 -16.5q-61 0 -118 17t-89 41h-14l-2 -422zM455 299q32 -37 98 -37q21 0 43 10t44 32.5t36 66t14 102.5 q0 68 -13 115.5t-34.5 69t-41 30t-40.5 8.5q-62 0 -106 -55v-342z" />
<glyph unicode="q" horiz-adv-x="1105" d="M47 438q0 112 28 206t73.5 156t105.5 105.5t122.5 62.5t125.5 19q144 0 264 -98l156 74l98 -13v-1343l-369 -25v467h-14q-88 -78 -227 -78q-41 0 -86 12.5t-95.5 45.5t-90 83.5t-65.5 135t-26 190.5zM416 455q0 -95 35 -144t94 -49q29 0 59 14t47 41v328q-10 20 -38 35.5 t-62 15.5q-64 0 -99.5 -66.5t-35.5 -174.5z" />
<glyph unicode="r" horiz-adv-x="778" d="M86 0v958h301l29 -180h14q33 76 117.5 133.5t169.5 57.5h31v-357h-46q-59 -6 -108 -32t-78.5 -62.5t-45 -77t-15.5 -78.5v-362h-369z" />
<glyph unicode="s" horiz-adv-x="880" d="M33 80l84 260q59 -35 147.5 -65.5t163.5 -30.5q74 0 74 35q0 28 -90 61q-93 36 -153 67.5t-107 72t-68 91t-21 117.5q0 98 55 167.5t138 100.5t184 31q223 0 383 -108l-59 -248q-58 36 -141.5 60t-151.5 24q-88 0 -88 -33q0 -18 76 -47q80 -30 130 -51.5t103.5 -53.5 t82.5 -66t48 -81.5t19 -106.5q0 -65 -24.5 -118t-64.5 -87t-93.5 -57t-110.5 -33t-117 -10q-224 0 -399 109z" />
<glyph unicode="t" horiz-adv-x="716" d="M31 678v223l143 74v219l369 66v-302h153v-280h-153v-678h-369v678h-143z" />
<glyph unicode="u" horiz-adv-x="1105" d="M86 299v659h369v-561q0 -60 29 -89t63 -29q35 0 65 19.5t39 45.5v614h369v-958h-334l-18 106h-17q-49 -58 -119.5 -96.5t-152.5 -38.5q-57 0 -107.5 18t-93 55t-67.5 102.5t-25 152.5z" />
<glyph unicode="v" d="M-10 958h379l137 -450h12l137 450h379l-389 -958h-266z" />
<glyph unicode="w" horiz-adv-x="1413" d="M-10 958h368l107 -432h12l103 432h254l102 -432h12l107 432h368l-327 -958h-267l-114 422h-13l-118 -422h-267z" />
<glyph unicode="x" horiz-adv-x="1085" d="M10 0l328 479l-328 479h400l133 -239l133 239h399l-327 -479l327 -479h-399l-133 238l-133 -238h-400z" />
<glyph unicode="y" d="M-10 958h379l137 -512h14l135 512h379l-409 -1099q-38 -100 -95 -166t-110 -74l-352 -43l-11 88q91 61 158.5 170t97.5 234z" />
<glyph unicode="z" horiz-adv-x="921" d="M14 12l369 662l-8 4h-312v280h826l6 -8l-365 -659l9 -10h331v-281h-847z" />
<glyph unicode="{" horiz-adv-x="921" d="M113 475v225q91 0 153 48.5t62 115.5q0 65 -32 175t-32 173q0 99 52 154.5t178.5 82t355.5 26.5v-236q-136 0 -194 -24.5t-58 -96.5q0 -62 25.5 -160t25.5 -135q0 -77 -79.5 -132t-200.5 -75v-51q117 -8 198.5 -65.5t81.5 -141.5q0 -40 -25.5 -141t-25.5 -160 q0 -32 4.5 -52.5t19 -41t41.5 -31.5t73.5 -17.5t113.5 -6.5v-236q-127 0 -222 8.5t-159.5 26.5t-106 41t-64 58t-30.5 71.5t-8 87.5q0 59 34 171t34 167q0 81 -60 126.5t-155 45.5z" />
<glyph unicode="|" horiz-adv-x="1085" d="M422 -471v2007h242v-2007h-242z" />
<glyph unicode="}" horiz-adv-x="921" d="M72 -92q67 0 113.5 6.5t73.5 17.5t41.5 31.5t19 41t4.5 52.5q0 59 -26 160t-26 141q0 84 82 141.5t199 65.5v51q-121 20 -201 75.5t-80 131.5q0 37 26 135t26 160q0 72 -58 96.5t-194 24.5v236q229 0 355 -26.5t178 -82t52 -154.5q0 -63 -31.5 -173t-31.5 -175 q0 -67 62 -115.5t153 -48.5v-225q-95 0 -155 -45.5t-60 -126.5q0 -55 34 -167t34 -171q0 -51 -8 -87.5t-30.5 -71.5t-64 -58t-106 -41t-159.5 -26.5t-222 -8.5v236z" />
<glyph unicode="~" horiz-adv-x="1085" d="M66 416q0 159 83 251.5t201 92.5q51 0 100 -21t86 -51t71.5 -59.5t70.5 -50.5t70 -21q64 0 102.5 58t38.5 141h139q0 -149 -78.5 -246.5t-204.5 -97.5q-52 0 -100 20.5t-84 50t-69.5 59t-70 50t-71.5 20.5q-67 0 -110 -56t-43 -140h-131z" />
<glyph unicode="&#xa1;" horiz-adv-x="716" d="M154 -240l39 482l40 424h242l43 -422l45 -484h-409zM160 979q0 79 53.5 133.5t134.5 54.5q86 0 139.5 -53.5t53.5 -142.5q0 -78 -54 -131.5t-135 -53.5q-89 0 -140.5 56.5t-51.5 136.5z" />
<glyph unicode="&#xa2;" horiz-adv-x="880" d="M53 655q0 146 65.5 265t174.5 185t235 66l21 203l125 -10l-23 -207q76 -16 176 -84l-71 -233q-68 56 -142 75l-49 -469q100 10 197 84l51 -235q-47 -38 -117.5 -65t-144.5 -33l-23 -217l-125 10l23 213q-170 30 -271.5 151t-101.5 301zM350 659q0 -160 113 -202l49 463 q-72 -14 -117 -84.5t-45 -176.5z" />
<glyph unicode="&#xa3;" horiz-adv-x="1105" d="M57 133q215 165 215 410q0 26 -8 88h-166v174h125q-49 165 -49 244t25.5 142.5t69.5 106t104.5 71.5t128.5 41.5t145 12.5q199 0 357 -102l-54 -256q-44 34 -116 60t-138 26q-85 0 -136.5 -37t-51.5 -108q0 -64 45 -201h246v-174h-197q4 -28 4 -41q0 -151 -147 -264 l12 -23q80 39 164 39q47 0 114 -37t107 -37q80 0 148 45l12 -4l53 -258q-41 -34 -105.5 -52.5t-117.5 -18.5q-59 0 -115 21.5t-115 43t-124 21.5q-157 0 -342 -86z" />
<glyph unicode="&#xa4;" horiz-adv-x="1269" d="M160 941.5q2 20.5 15 38.5t31.5 33t37.5 16.5t32 -9.5l95 -96q120 86 264 86q145 0 258 -80l88 92q21 22 59.5 -0.5t60 -62.5t1.5 -60l-92 -88q77 -113 77 -254q0 -143 -86 -266l99 -94q13 -13 11.5 -34t-15 -39.5t-31.5 -33.5t-37 -16.5t-33 10.5l-102 102 q-114 -82 -258 -82q-141 0 -254 74l-86 -90q-13 -15 -35.5 -13t-42.5 16.5t-36 34t-18.5 40t11.5 35.5l90 88q-82 114 -82 268q0 141 82 260l-92 90q-14 14 -12 34.5zM387 555q0 -116 68.5 -190t181.5 -74q103 0 172.5 75t69.5 189q0 117 -69.5 191.5t-174.5 74.5 q-115 0 -181.5 -75t-66.5 -191z" />
<glyph unicode="&#xa5;" horiz-adv-x="1290" d="M0 1393h389l256 -488l256 488h389l-471 -803h174v-154h-174v-82h174v-153h-174v-201h-348v201h-174v153h174v82h-174v154h174z" />
<glyph unicode="&#xa6;" horiz-adv-x="1085" d="M422 246h242v-717h-242v717zM422 819v717h242v-717h-242z" />
<glyph unicode="&#xa7;" horiz-adv-x="1269" d="M139 -221l60 278q90 -46 197.5 -76t207.5 -30q170 0 170 84q0 37 -53.5 70t-155.5 71q-129 47 -214 93.5t-130.5 95.5t-63.5 97t-18 109q0 151 131 273q-131 103 -131 241q0 144 123 241t354 97q128 0 248.5 -31.5t202.5 -74.5l-45 -291q-85 53 -194 85t-218 32 q-125 0 -125 -70q0 -32 45 -64t160 -69q109 -35 188 -75t127 -78.5t76.5 -84t38.5 -86.5t10 -92q0 -71 -34.5 -139t-98.5 -123q123 -109 123 -252q0 -113 -64.5 -190.5t-174.5 -113.5t-258 -36q-151 0 -284.5 32.5t-199.5 76.5zM455 621q0 -106 276 -209q13 -5 35.5 -14.5 t28.5 -12.5q20 41 20 88q0 135 -215 209q-64 21 -117 45q-28 -51 -28 -106z" />
<glyph unicode="&#xa8;" d="M172 1085q0 57 44 100.5t101 43.5q58 0 100 -43t42 -101q0 -56 -42 -97.5t-100 -41.5q-57 0 -101 42t-44 97zM565 1085q0 57 43.5 100.5t100.5 43.5q53 0 98 -44t45 -100q0 -55 -44.5 -97t-98.5 -42q-57 0 -100.5 42t-43.5 97z" />
<glyph unicode="&#xa9;" horiz-adv-x="1617" d="M170 662q0 129 51 247t137 203.5t204.5 136.5t248.5 51q180 0 327 -86.5t228.5 -232t81.5 -319.5q0 -131 -47 -248.5t-129 -204.5t-202 -138t-259 -51q-175 0 -321.5 81t-233 229t-86.5 332zM291 657q0 -228 148.5 -376t373.5 -148q222 0 368 148t146 376 q0 235 -147.5 385t-368.5 150q-143 0 -262 -68.5t-188.5 -192t-69.5 -274.5zM446 655q0 180 111 288t272 108q71 0 137.5 -21.5t106.5 -48.5l-33 -166l-14 8q-14 8 -19.5 10.5t-21.5 10.5t-26.5 12t-28.5 9.5t-32.5 8.5t-33.5 5t-37 2q-83 0 -140.5 -55.5t-57.5 -166.5 q0 -90 55.5 -148t144.5 -58q111 0 222 71l36 -164q-46 -34 -116.5 -55.5t-143.5 -21.5q-168 0 -274.5 107t-106.5 265z" />
<glyph unicode="&#xaa;" horiz-adv-x="860" d="M49 821q0 127 84 199t223 72q35 0 115 -13v35q0 72 -102 72q-113 0 -211 -58l-58 197q59 30 150 52t178 22q65 0 121.5 -16.5t103 -50t73.5 -91.5t26 -135l-4 -295q0 -83 59 -127v-8l-197 -80q-33 6 -57 31t-31 53h-8q-41 -37 -101.5 -59.5t-125.5 -22.5 q-104 0 -171 59.5t-67 163.5zM319 877q0 -31 17.5 -49.5t44.5 -18.5q64 0 90 53v68q-26 18 -74 18q-32 0 -55 -21t-23 -50z" />
<glyph unicode="&#xab;" horiz-adv-x="1392" d="M121 459v18l467 463l155 -117l-256 -352l250 -352l-159 -127zM633 459v18l467 463l155 -117l-256 -352l250 -352l-159 -127z" />
<glyph unicode="&#xac;" horiz-adv-x="1085" d="M68 502v139h936v-535h-140v396h-796z" />
<glyph unicode="&#xad;" horiz-adv-x="757" d="M92 348v285h574v-285h-574z" />
<glyph unicode="&#xae;" horiz-adv-x="1146" d="M115 965q0 128 61.5 233.5t166.5 165t230 59.5q197 0 328 -131t131 -327q0 -128 -62 -234t-167 -165.5t-230 -59.5q-193 0 -325.5 128t-132.5 331zM221 963q0 -159 99 -258t255 -99q146 0 248.5 100.5t102.5 256.5q0 157 -102.5 258.5t-250.5 101.5q-159 0 -255.5 -103.5 t-96.5 -256.5zM383 725v510h180q89 0 139 -40.5t50 -109.5q0 -55 -31 -91t-84 -50l178 -211v-8h-141l-164 203h-6v-203h-121zM504 1026h71q23 0 39.5 13t16.5 44q0 25 -19 39.5t-43 14.5h-65v-111z" />
<glyph unicode="&#xaf;" d="M262 928v133h500v-133h-500z" />
<glyph unicode="&#xb0;" horiz-adv-x="757" d="M86 1128q0 121 86.5 208t206.5 87q121 0 208 -86.5t87 -208.5q0 -120 -87 -206t-208 -86q-120 0 -206.5 86t-86.5 206zM246 1128q0 -60 37 -103.5t94 -43.5q59 0 97 43.5t38 103.5q0 62 -38.5 107t-96.5 45q-57 0 -94 -45t-37 -107z" />
<glyph unicode="&#xb1;" horiz-adv-x="1085" d="M88 0v225h909v-225h-909zM88 688v225h342v363h225v-363h342v-225h-342v-362h-225v362h-342z" />
<glyph unicode="&#xb2;" horiz-adv-x="655" d="M31 956q170 134 252 235t82 157q0 42 -24 60.5t-77 18.5q-41 0 -90.5 -19t-87.5 -48l-45 188q122 84 278 84q119 0 202 -52.5t83 -158.5q0 -96 -60.5 -187.5t-172.5 -168.5l6 -10l239 16v-221h-561z" />
<glyph unicode="&#xb3;" horiz-adv-x="655" d="M47 1075h6q106 -45 205 -45q127 0 127 66q0 27 -27 44.5t-75 16.5l-160 -6l10 168l146 -8q48 -1 71 19.5t23 51.5q0 54 -117 54q-75 0 -160 -39h-10l10 200q98 35 215 35q126 0 210.5 -51t84.5 -143q0 -138 -133 -191v-10q69 -22 108.5 -66.5t39.5 -103.5q0 -57 -25 -101 t-60.5 -68t-83.5 -39.5t-85.5 -20t-73.5 -4.5q-144 0 -242 40z" />
<glyph unicode="&#xb4;" d="M334 948v17l217 315h295v-20l-305 -312h-207z" />
<glyph unicode="&#xb6;" horiz-adv-x="1474" d="M96 920q0 215 158 344t408 129h735v-209h-117v-1506h-236v1506h-122v-1506h-236v768q-270 0 -430 128t-160 346zM475 922q0 -120 56.5 -193.5t154.5 -73.5v529q-92 0 -151.5 -73t-59.5 -189z" />
<glyph unicode="&#xb7;" horiz-adv-x="593" d="M106 600q0 78 56.5 134.5t134.5 56.5t134 -56.5t56 -134.5t-56 -134t-134 -56t-134.5 56t-56.5 134z" />
<glyph unicode="&#xb8;" d="M358 -215l119 256h166l-78 -154q94 0 153.5 -34.5t59.5 -102.5q0 -81 -100.5 -137.5t-284.5 -71.5l-16 103q75 8 121.5 30.5t46.5 55.5q0 22 -32.5 33.5t-82.5 11.5q-33 0 -61 -4z" />
<glyph unicode="&#xb9;" horiz-adv-x="655" d="M76 1581l366 43l41 -27v-747h-235v536l-154 -14z" />
<glyph unicode="&#xba;" horiz-adv-x="880" d="M53 991q0 176 109.5 291t271.5 115q173 0 283 -115t110 -291q0 -165 -112.5 -280t-274.5 -115q-165 0 -276 108.5t-111 286.5zM344 995q0 -170 100 -170q39 0 66 44t27 126q0 172 -95 172q-45 0 -71.5 -44.5t-26.5 -127.5z" />
<glyph unicode="&#xbb;" horiz-adv-x="1392" d="M137 823l156 117l467 -463v-18l-457 -467l-160 127l250 352zM649 823l156 117l467 -463v-18l-457 -467l-160 127l250 352z" />
<glyph unicode="&#xbc;" horiz-adv-x="1597" d="M88 1376l367 43l41 -26v-748h-236v537l-154 -15zM258 -39l520 746l482 733l104 -64l-506 -714l-496 -768zM846 203l325 483h232v-418h78v-166h-78v-182h-213v182h-326zM1051 272l4 -10l135 2v211h-8z" />
<glyph unicode="&#xbd;" horiz-adv-x="1597" d="M88 1376l367 43l41 -26v-748h-236v537l-154 -15zM258 -39l520 746l482 733l104 -64l-506 -714l-496 -768zM903 25q170 134 252 234.5t82 156.5q0 43 -23.5 61.5t-76.5 18.5q-41 0 -91 -19.5t-88 -48.5l-45 188q122 84 279 84q119 0 202 -52.5t83 -158.5q0 -95 -61 -186.5 t-173 -169.5l6 -10l240 16v-221h-561z" />
<glyph unicode="&#xbe;" horiz-adv-x="1597" d="M84 870h6q106 -45 205 -45q127 0 127 66q0 27 -27.5 44.5t-75.5 16.5l-159 -6l10 168l145 -8q48 -1 71.5 20t23.5 52q0 53 -117 53q-75 0 -160 -39h-10l10 201q95 34 215 34q126 0 210.5 -51t84.5 -143q0 -138 -133 -191v-10q69 -22 108 -66.5t39 -103.5 q0 -57 -24.5 -101t-60.5 -68t-83.5 -39.5t-85 -20t-73.5 -4.5q-142 0 -242 41zM258 -39l520 746l482 733l104 -64l-506 -714l-496 -768zM846 203l325 483h232v-418h78v-166h-78v-182h-213v182h-326zM1051 272l4 -10l135 2v211h-8z" />
<glyph unicode="&#xbf;" horiz-adv-x="1003" d="M82 150q0 73 27 136t71 107t102.5 78t118 53t121.5 29v143h271v-354q-353 -20 -353 -182q0 -55 46.5 -87t119.5 -32q132 0 234 51h18l-18 -285q-107 -47 -267 -47q-224 0 -357.5 108.5t-133.5 281.5zM467 1010q0 79 53.5 133.5t134.5 54.5q85 0 139 -54t54 -143 q0 -78 -54 -131t-135 -53q-89 0 -140.5 56.5t-51.5 136.5z" />
<glyph unicode="&#xc0;" horiz-adv-x="1433" d="M10 0l539 1393h328l546 -1393h-389l-88 219h-463l-84 -219h-389zM362 1765v21h326l217 -254v-16h-217zM590 510h248l-113 389h-18z" />
<glyph unicode="&#xc1;" horiz-adv-x="1433" d="M10 0l539 1393h328l546 -1393h-389l-88 219h-463l-84 -219h-389zM528 1516v16l217 254h326v-21l-326 -249h-217zM590 510h248l-113 389h-18z" />
<glyph unicode="&#xc2;" horiz-adv-x="1433" d="M10 0l539 1393h328l546 -1393h-389l-88 219h-463l-84 -219h-389zM358 1516v16l279 254h166l278 -254v-16h-207l-155 108l-154 -108h-207zM590 510h248l-113 389h-18z" />
<glyph unicode="&#xc3;" horiz-adv-x="1433" d="M10 0l539 1393h328l546 -1393h-389l-88 219h-463l-84 -219h-389zM369 1550q0 145 60.5 219t154.5 74q37 0 73.5 -20t62 -43.5t57 -43.5t59.5 -20q35 0 55 32t20 85h154q0 -129 -60 -211t-155 -82q-41 0 -79.5 19.5t-62 43t-55 43t-61.5 19.5q-33 0 -51.5 -31t-18.5 -84 h-153zM590 510h248l-113 389h-18z" />
<glyph unicode="&#xc4;" horiz-adv-x="1433" d="M10 0l539 1393h328l546 -1393h-389l-88 219h-463l-84 -219h-389zM377 1653q0 57 44 100t101 43q58 0 100 -43t42 -100q0 -56 -42 -98t-100 -42q-57 0 -101 42.5t-44 97.5zM590 510h248l-113 389h-18zM770 1653q0 57 43 100t100 43q54 0 99 -43.5t45 -99.5 q0 -55 -45 -97.5t-99 -42.5q-57 0 -100 42t-43 98z" />
<glyph unicode="&#xc5;" horiz-adv-x="1433" d="M10 0l539 1393h328l546 -1393h-389l-88 219h-463l-84 -219h-389zM485 1733q0 97 67.5 164t164.5 67t164 -67t67 -164t-67 -164.5t-164 -67.5t-164.5 67.5t-67.5 164.5zM590 510h248l-113 389h-18zM621 1733q0 -44 26 -73.5t68 -29.5q41 0 68.5 30t27.5 73q0 42 -28 74 t-68 32q-41 0 -67.5 -31.5t-26.5 -74.5z" />
<glyph unicode="&#xc6;" horiz-adv-x="1925" d="M10 0l856 1393h963v-336h-512v-187h442v-331h-442v-203h532v-336h-907v219h-410l-133 -219h-389zM702 510h240v389h-20z" />
<glyph unicode="&#xc7;" horiz-adv-x="1331" d="M72 674q0 161 57.5 302t154 238t227 153t273.5 56q124 0 240 -32t246 -113l-113 -322h-10q-72 59 -160.5 89t-171.5 28q-146 -2 -245 -103t-99 -286q0 -90 29 -160.5t79 -114t115 -65.5t140 -22q85 0 174.5 33t148.5 85h10l113 -311q-190 -145 -442 -158l-41 -84 q94 0 153.5 -34.5t59.5 -102.5q0 -81 -100.5 -137.5t-284.5 -71.5l-17 103q75 8 121.5 30.5t46.5 55.5q0 22 -32 33.5t-82 11.5q-34 0 -62 -4l-10 14l88 190q-275 32 -440.5 224t-165.5 475z" />
<glyph unicode="&#xc8;" horiz-adv-x="1105" d="M113 0v1393h897v-336h-512v-195h442v-315h-442v-211h532v-336h-917zM213 1765v21h326l217 -254v-16h-217z" />
<glyph unicode="&#xc9;" horiz-adv-x="1105" d="M113 0v1393h897v-336h-512v-195h442v-315h-442v-211h532v-336h-917zM379 1516v16l217 254h326v-21l-326 -249h-217z" />
<glyph unicode="&#xca;" horiz-adv-x="1105" d="M113 0v1393h897v-336h-512v-195h442v-315h-442v-211h532v-336h-917zM209 1516v16l278 254h166l279 -254v-16h-207l-156 108l-153 -108h-207z" />
<glyph unicode="&#xcb;" horiz-adv-x="1105" d="M113 0v1393h897v-336h-512v-195h442v-315h-442v-211h532v-336h-917zM227 1653q0 57 44.5 100t101.5 43q58 0 99.5 -42.5t41.5 -100.5q0 -56 -41.5 -98t-99.5 -42q-57 0 -101.5 42.5t-44.5 97.5zM621 1653q0 57 43 100t100 43q54 0 98.5 -43.5t44.5 -99.5q0 -55 -45 -97.5 t-98 -42.5q-57 0 -100 42t-43 98z" />
<glyph unicode="&#xcc;" horiz-adv-x="655" d="M-27 1765v21h326l217 -254v-16h-217zM135 0v1393h385v-1393h-385z" />
<glyph unicode="&#xcd;" horiz-adv-x="655" d="M135 0v1393h385v-1393h-385zM139 1516v16l217 254h326v-21l-326 -249h-217z" />
<glyph unicode="&#xce;" horiz-adv-x="655" d="M-31 1516v16l279 254h166l278 -254v-16h-207l-155 108l-154 -108h-207zM135 0v1393h385v-1393h-385z" />
<glyph unicode="&#xcf;" horiz-adv-x="655" d="M-12 1653q0 57 44 100t101 43q58 0 99.5 -42.5t41.5 -100.5q0 -56 -41.5 -98t-99.5 -42q-57 0 -101 42.5t-44 97.5zM135 0v1393h385v-1393h-385zM381 1653q0 57 43 100t100 43q54 0 99 -43.5t45 -99.5q0 -55 -45 -97.5t-99 -42.5q-57 0 -100 42t-43 98z" />
<glyph unicode="&#xd0;" horiz-adv-x="1413" d="M-2 614v146h115v633h479q156 0 291 -47t237.5 -134.5t161.5 -223.5t59 -304q0 -200 -99 -357t-269 -242t-379 -85h-481v614h-115zM498 328h104q150 0 250 100.5t100 259.5q0 95 -31.5 170t-82.5 118.5t-109.5 66t-118.5 22.5h-112v-305h172v-146h-172v-286z" />
<glyph unicode="&#xd1;" horiz-adv-x="1556" d="M113 0v1393h286l650 -752h10v752h385v-1393h-291l-645 741h-10v-741h-385zM399 1550q0 145 60.5 219t154.5 74q37 0 73.5 -20t62 -43.5t57 -43.5t59.5 -20q35 0 55.5 32t20.5 85h154q0 -129 -60 -211t-155 -82q-41 0 -79.5 19.5t-62 43t-55 43t-61.5 19.5 q-33 0 -51.5 -31t-18.5 -84h-154z" />
<glyph unicode="&#xd2;" horiz-adv-x="1597" d="M72 686q0 161 59 300t158 234t232 149t280 54q148 0 280.5 -53t231 -147.5t156 -234t57.5 -302.5q0 -158 -55.5 -293t-152 -227.5t-230.5 -144.5t-287 -52q-214 0 -378.5 86t-257.5 249.5t-93 381.5zM444 1765v21h326l217 -254v-16h-217zM471 690q0 -180 93.5 -279.5 t244.5 -99.5q141 0 229 100.5t88 278.5q0 183 -95 287t-236 104q-137 0 -230.5 -103t-93.5 -288z" />
<glyph unicode="&#xd3;" horiz-adv-x="1597" d="M72 686q0 161 59 300t158 234t232 149t280 54q148 0 280.5 -53t231 -147.5t156 -234t57.5 -302.5q0 -158 -55.5 -293t-152 -227.5t-230.5 -144.5t-287 -52q-214 0 -378.5 86t-257.5 249.5t-93 381.5zM471 690q0 -180 93.5 -279.5t244.5 -99.5q141 0 229 100.5t88 278.5 q0 183 -95 287t-236 104q-137 0 -230.5 -103t-93.5 -288zM610 1516v16l217 254h326v-21l-326 -249h-217z" />
<glyph unicode="&#xd4;" horiz-adv-x="1597" d="M72 686q0 161 59 300t158 234t232 149t280 54q148 0 280.5 -53t231 -147.5t156 -234t57.5 -302.5q0 -158 -55.5 -293t-152 -227.5t-230.5 -144.5t-287 -52q-214 0 -378.5 86t-257.5 249.5t-93 381.5zM440 1516v16l279 254h166l278 -254v-16h-207l-155 108l-154 -108h-207 zM471 690q0 -180 93.5 -279.5t244.5 -99.5q141 0 229 100.5t88 278.5q0 183 -95 287t-236 104q-137 0 -230.5 -103t-93.5 -288z" />
<glyph unicode="&#xd5;" horiz-adv-x="1597" d="M72 686q0 161 59 300t158 234t232 149t280 54q148 0 280.5 -53t231 -147.5t156 -234t57.5 -302.5q0 -158 -55.5 -293t-152 -227.5t-230.5 -144.5t-287 -52q-214 0 -378.5 86t-257.5 249.5t-93 381.5zM451 1550q0 145 60.5 219t154.5 74q37 0 73.5 -20t62 -43.5t57 -43.5 t59.5 -20q35 0 55 32t20 85h154q0 -129 -60 -211t-155 -82q-41 0 -79.5 19.5t-62 43t-55 43t-61.5 19.5q-33 0 -51.5 -31t-18.5 -84h-153zM471 690q0 -180 93.5 -279.5t244.5 -99.5q141 0 229 100.5t88 278.5q0 183 -95 287t-236 104q-137 0 -230.5 -103t-93.5 -288z" />
<glyph unicode="&#xd6;" horiz-adv-x="1597" d="M72 686q0 161 59 300t158 234t232 149t280 54q148 0 280.5 -53t231 -147.5t156 -234t57.5 -302.5q0 -158 -55.5 -293t-152 -227.5t-230.5 -144.5t-287 -52q-214 0 -378.5 86t-257.5 249.5t-93 381.5zM459 1653q0 57 44 100t101 43q58 0 99.5 -42.5t41.5 -100.5 q0 -56 -41.5 -98t-99.5 -42q-57 0 -101 42.5t-44 97.5zM471 690q0 -180 93.5 -279.5t244.5 -99.5q141 0 229 100.5t88 278.5q0 183 -95 287t-236 104q-137 0 -230.5 -103t-93.5 -288zM852 1653q0 57 43 100t100 43q54 0 99 -43.5t45 -99.5q0 -55 -45 -97.5t-99 -42.5 q-57 0 -100 42t-43 98z" />
<glyph unicode="&#xd7;" horiz-adv-x="1085" d="M92 326l291 290l-291 291l160 160l291 -291l291 291l159 -160l-291 -291l291 -290l-159 -160l-291 291l-291 -291z" />
<glyph unicode="&#xd8;" horiz-adv-x="1597" d="M72 686q0 161 59 300t158 234t232 149t280 54q220 0 393 -110l121 160l100 -72l-121 -162q109 -100 170.5 -241.5t61.5 -311.5q0 -158 -55.5 -293t-152 -227.5t-230.5 -144.5t-287 -52q-220 0 -391 94l-134 -178l-100 72l131 176q-112 94 -173.5 235t-61.5 318zM471 690 q0 -150 68 -250l440 584q-77 57 -184 57q-137 0 -230.5 -103t-93.5 -288zM631 356q74 -45 178 -45q141 0 229 100.5t88 278.5q0 142 -63 244z" />
<glyph unicode="&#xd9;" horiz-adv-x="1454" d="M113 506v887h385v-840q0 -107 55.5 -174.5t173.5 -67.5q104 0 166.5 57t62.5 185v840h385v-861q0 -111 -38 -210.5t-111.5 -179t-193.5 -126.5t-271 -47q-136 0 -244 31t-176 82t-113 122t-63 145t-18 157zM373 1765v21h325l217 -254v-16h-217z" />
<glyph unicode="&#xda;" horiz-adv-x="1454" d="M113 506v887h385v-840q0 -107 55.5 -174.5t173.5 -67.5q104 0 166.5 57t62.5 185v840h385v-861q0 -111 -38 -210.5t-111.5 -179t-193.5 -126.5t-271 -47q-136 0 -244 31t-176 82t-113 122t-63 145t-18 157zM539 1516v16l217 254h325v-21l-325 -249h-217z" />
<glyph unicode="&#xdb;" horiz-adv-x="1454" d="M113 506v887h385v-840q0 -107 55.5 -174.5t173.5 -67.5q104 0 166.5 57t62.5 185v840h385v-861q0 -111 -38 -210.5t-111.5 -179t-193.5 -126.5t-271 -47q-136 0 -244 31t-176 82t-113 122t-63 145t-18 157zM369 1516v16l278 254h166l279 -254v-16h-207l-156 108 l-154 -108h-206z" />
<glyph unicode="&#xdc;" horiz-adv-x="1454" d="M113 506v887h385v-840q0 -107 55.5 -174.5t173.5 -67.5q104 0 166.5 57t62.5 185v840h385v-861q0 -111 -38 -210.5t-111.5 -179t-193.5 -126.5t-271 -47q-136 0 -244 31t-176 82t-113 122t-63 145t-18 157zM387 1653q0 57 44 100t101 43q58 0 100 -43t42 -100 q0 -56 -42 -98t-100 -42q-57 0 -101 42.5t-44 97.5zM780 1653q0 57 43.5 100t100.5 43q54 0 98.5 -43.5t44.5 -99.5q0 -55 -45 -97.5t-98 -42.5q-57 0 -100.5 42.5t-43.5 97.5z" />
<glyph unicode="&#xdd;" horiz-adv-x="1290" d="M-20 1393h409l256 -467l256 467h410l-473 -803v-590h-385v590zM457 1516v16l217 254h325v-21l-325 -249h-217z" />
<glyph unicode="&#xde;" horiz-adv-x="1208" d="M113 0v1393h385v-219h127q252 0 394 -122t142 -350q0 -204 -151 -338.5t-387 -134.5h-125v-229h-385zM498 528h92q72 0 127 46t55 128q0 79 -51 121.5t-131 42.5h-92v-338z" />
<glyph unicode="&#xdf;" horiz-adv-x="1392" d="M41 678v223l113 76v29q0 123 72.5 217.5t198.5 144t284 49.5q135 0 246.5 -41.5t192.5 -126t108.5 -212.5t-5.5 -302q-288 28 -288 -47q0 -20 25.5 -37t84.5 -41q88 -34 145.5 -73.5t86 -84.5t39 -87t10.5 -97q0 -141 -104 -219t-267 -78q-218 0 -350 82l86 248 q118 -68 221 -68q74 0 74 39q0 38 -101 76q-150 60 -209 140t-59 194q0 122 72.5 194.5t189.5 92.5q3 68 -48.5 119t-141.5 51q-96 0 -145.5 -56t-49.5 -131v-952h-368v678h-113z" />
<glyph unicode="&#xe0;" d="M43 264q0 148 109 231t286 83q26 0 48.5 -2t54 -7t43.5 -6v47q0 45 -36.5 68.5t-96.5 23.5q-141 0 -271 -73l-71 264q71 39 188.5 66.5t230.5 27.5q82 0 152.5 -20.5t128 -63t90.5 -116t33 -171.5v-358q0 -107 65 -160v-28l-239 -101q-40 8 -70.5 40t-40.5 67h-10 q-114 -105 -279 -105q-135 0 -225 78.5t-90 214.5zM186 1393v20h295l217 -315v-17h-206zM389 305q0 -40 22 -63t56 -23q74 0 117 68v94q-40 25 -95 25q-42 0 -71 -29.5t-29 -71.5z" />
<glyph unicode="&#xe1;" d="M43 264q0 148 109 231t286 83q26 0 48.5 -2t54 -7t43.5 -6v47q0 45 -36.5 68.5t-96.5 23.5q-141 0 -271 -73l-71 264q71 39 188.5 66.5t230.5 27.5q82 0 152.5 -20.5t128 -63t90.5 -116t33 -171.5v-358q0 -107 65 -160v-28l-239 -101q-40 8 -70.5 40t-40.5 67h-10 q-114 -105 -279 -105q-135 0 -225 78.5t-90 214.5zM342 1081v17l217 315h295v-20l-305 -312h-207zM389 305q0 -40 22 -63t56 -23q74 0 117 68v94q-40 25 -95 25q-42 0 -71 -29.5t-29 -71.5z" />
<glyph unicode="&#xe2;" d="M43 264q0 148 109 231t286 83q26 0 48.5 -2t54 -7t43.5 -6v47q0 45 -36.5 68.5t-96.5 23.5q-141 0 -271 -73l-71 264q71 39 188.5 66.5t230.5 27.5q82 0 152.5 -20.5t128 -63t90.5 -116t33 -171.5v-358q0 -107 65 -160v-28l-239 -101q-40 8 -70.5 40t-40.5 67h-10 q-114 -105 -279 -105q-135 0 -225 78.5t-90 214.5zM193 1081v17l268 315h125l268 -315v-17h-186l-146 140l-143 -140h-186zM389 305q0 -40 22 -63t56 -23q74 0 117 68v94q-40 25 -95 25q-42 0 -71 -29.5t-29 -71.5z" />
<glyph unicode="&#xe3;" d="M43 264q0 148 109 231t286 83q26 0 48.5 -2t54 -7t43.5 -6v47q0 45 -36.5 68.5t-96.5 23.5q-141 0 -271 -73l-71 264q71 39 188.5 66.5t230.5 27.5q82 0 152.5 -20.5t128 -63t90.5 -116t33 -171.5v-358q0 -107 65 -160v-28l-239 -101q-40 8 -70.5 40t-40.5 67h-10 q-114 -105 -279 -105q-135 0 -225 78.5t-90 214.5zM172 1116q0 145 60.5 219t154.5 74q37 0 73.5 -20t62 -43.5t57 -43.5t59.5 -20q35 0 55.5 32t20.5 85h153q0 -129 -60 -211t-155 -82q-41 0 -79.5 19.5t-62 43t-55 43t-61.5 19.5q-33 0 -51 -31t-18 -84h-154zM389 305 q0 -40 22 -63t56 -23q74 0 117 68v94q-40 25 -95 25q-42 0 -71 -29.5t-29 -71.5z" />
<glyph unicode="&#xe4;" d="M43 264q0 148 109 231t286 83q26 0 48.5 -2t54 -7t43.5 -6v47q0 45 -36.5 68.5t-96.5 23.5q-141 0 -271 -73l-71 264q71 39 188.5 66.5t230.5 27.5q82 0 152.5 -20.5t128 -63t90.5 -116t33 -171.5v-358q0 -107 65 -160v-28l-239 -101q-40 8 -70.5 40t-40.5 67h-10 q-114 -105 -279 -105q-135 0 -225 78.5t-90 214.5zM180 1219q0 57 44.5 100t101.5 43q58 0 99.5 -42.5t41.5 -100.5q0 -56 -41.5 -98t-99.5 -42q-57 0 -101.5 42.5t-44.5 97.5zM389 305q0 -40 22 -63t56 -23q74 0 117 68v94q-40 25 -95 25q-42 0 -71 -29.5t-29 -71.5z M573 1219q0 57 43.5 100t100.5 43q54 0 98.5 -43.5t44.5 -99.5q0 -55 -45 -97.5t-98 -42.5q-57 0 -100.5 42.5t-43.5 97.5z" />
<glyph unicode="&#xe5;" d="M43 264q0 148 109 231t286 83q26 0 48.5 -2t54 -7t43.5 -6v47q0 45 -36.5 68.5t-96.5 23.5q-141 0 -271 -73l-71 264q71 39 188.5 66.5t230.5 27.5q82 0 152.5 -20.5t128 -63t90.5 -116t33 -171.5v-358q0 -107 65 -160v-28l-239 -101q-40 8 -70.5 40t-40.5 67h-10 q-114 -105 -279 -105q-135 0 -225 78.5t-90 214.5zM289 1298q0 97 67 164.5t164 67.5t164.5 -67.5t67.5 -164.5t-67.5 -164t-164.5 -67t-164 67t-67 164zM389 305q0 -40 22 -63t56 -23q74 0 117 68v94q-40 25 -95 25q-42 0 -71 -29.5t-29 -71.5zM424 1298q0 -44 26 -73 t68 -29q41 0 68.5 29.5t27.5 72.5q0 42 -28 74.5t-68 32.5q-41 0 -67.5 -32t-26.5 -75z" />
<glyph unicode="&#xe6;" horiz-adv-x="1556" d="M43 254q0 161 107 252.5t284 91.5q32 0 146 -14v43q0 45 -37 68.5t-97 23.5q-134 0 -266 -74l-71 248q72 39 187 66.5t228 27.5q182 0 287 -113q126 113 270 113q187 0 307.5 -121.5t120.5 -285.5q0 -107 -32 -185h-541q0 -143 217 -143q81 0 169.5 20t133.5 52h8 l-20 -261q-67 -43 -177 -67.5t-208 -24.5q-238 0 -361 146q-68 -68 -160.5 -107t-193.5 -39q-132 0 -216.5 75t-84.5 208zM385 326q0 -40 22 -63t56 -23q80 0 117 67v84q-40 25 -95 25q-42 0 -71 -26.5t-29 -63.5zM940 555h254q3 70 -30.5 111t-84.5 41q-55 0 -94 -44 t-45 -108z" />
<glyph unicode="&#xe7;" horiz-adv-x="901" d="M47 451q0 114 42 214.5t111.5 170.5t163 110.5t193.5 40.5q157 0 279 -76v-286h-13q-89 71 -196 71q-90 0 -150.5 -63t-60.5 -156q0 -103 61 -159t146 -56q117 0 211 62h12v-277q-100 -65 -258 -74l-43 -86q94 0 153.5 -34.5t59.5 -102.5q0 -81 -100.5 -137.5 t-284.5 -71.5l-17 103q75 8 121.5 30.5t46.5 55.5q0 22 -32 33.5t-82 11.5q-34 0 -62 -4l-10 14l90 195q-127 21 -214.5 91t-127 166.5t-39.5 213.5z" />
<glyph unicode="&#xe8;" d="M47 434q0 119 41 223.5t109.5 176t159 112.5t188.5 41q94 0 176 -34t137.5 -90.5t87 -130t31.5 -152.5q0 -104 -33 -185h-549q0 -143 221 -143q82 0 172.5 20t135.5 52h8l-21 -261q-67 -44 -175 -68t-214 -24q-100 0 -183.5 27t-150 81t-104 145t-37.5 210zM190 1393v20 h295l217 -315v-17h-206zM399 555h263q3 69 -32 110.5t-87 41.5q-55 0 -96.5 -44.5t-47.5 -107.5z" />
<glyph unicode="&#xe9;" d="M47 434q0 119 41 223.5t109.5 176t159 112.5t188.5 41q94 0 176 -34t137.5 -90.5t87 -130t31.5 -152.5q0 -104 -33 -185h-549q0 -143 221 -143q82 0 172.5 20t135.5 52h8l-21 -261q-67 -44 -175 -68t-214 -24q-100 0 -183.5 27t-150 81t-104 145t-37.5 210zM346 1081v17 l217 315h295v-20l-305 -312h-207zM399 555h263q3 69 -32 110.5t-87 41.5q-55 0 -96.5 -44.5t-47.5 -107.5z" />
<glyph unicode="&#xea;" d="M47 434q0 119 41 223.5t109.5 176t159 112.5t188.5 41q94 0 176 -34t137.5 -90.5t87 -130t31.5 -152.5q0 -104 -33 -185h-549q0 -143 221 -143q82 0 172.5 20t135.5 52h8l-21 -261q-67 -44 -175 -68t-214 -24q-100 0 -183.5 27t-150 81t-104 145t-37.5 210zM197 1081v17 l268 315h125l268 -315v-17h-186l-146 140l-143 -140h-186zM399 555h263q3 69 -32 110.5t-87 41.5q-55 0 -96.5 -44.5t-47.5 -107.5z" />
<glyph unicode="&#xeb;" d="M47 434q0 119 41 223.5t109.5 176t159 112.5t188.5 41q94 0 176 -34t137.5 -90.5t87 -130t31.5 -152.5q0 -104 -33 -185h-549q0 -143 221 -143q82 0 172.5 20t135.5 52h8l-21 -261q-67 -44 -175 -68t-214 -24q-100 0 -183.5 27t-150 81t-104 145t-37.5 210zM184 1219 q0 57 44.5 100t101.5 43q58 0 99.5 -42.5t41.5 -100.5q0 -56 -41.5 -98t-99.5 -42q-57 0 -101.5 42.5t-44.5 97.5zM399 555h263q3 69 -32 110.5t-87 41.5q-55 0 -96.5 -44.5t-47.5 -107.5zM578 1219q0 57 43 100t100 43q54 0 98.5 -43.5t44.5 -99.5q0 -55 -45 -97.5 t-98 -42.5q-57 0 -100 42t-43 98z" />
<glyph unicode="&#xec;" horiz-adv-x="552" d="M-57 1393v20h295l217 -315v-17h-207zM92 0v930l369 39v-969h-369z" />
<glyph unicode="&#xed;" horiz-adv-x="552" d="M92 0v930l369 39v-969h-369zM98 1081v17l217 315h295v-20l-305 -312h-207z" />
<glyph unicode="&#xee;" horiz-adv-x="552" d="M-51 1081v17l268 315h125l268 -315v-17h-186l-145 140l-144 -140h-186zM92 0v930l369 39v-969h-369z" />
<glyph unicode="&#xef;" horiz-adv-x="552" d="M-63 1219q0 57 44 100t101 43q58 0 99.5 -42.5t41.5 -100.5q0 -56 -41.5 -98t-99.5 -42q-57 0 -101 42.5t-44 97.5zM92 0v930l369 39v-969h-369zM330 1219q0 57 43 100t100 43q54 0 98.5 -43.5t44.5 -99.5q0 -55 -45 -97.5t-98 -42.5q-57 0 -100 42t-43 98z" />
<glyph unicode="&#xf0;" horiz-adv-x="1085" d="M51 451q0 107 37 202t99 161t144.5 104t170.5 38q71 0 113.5 -14.5t78.5 -46.5l8 4q-38 93 -182 180l-86 -94l-96 88l59 64q-74 28 -145 37l78 249q138 -40 248 -90l94 103l96 -88l-74 -80q98 -64 166.5 -144t105.5 -172t52.5 -185t15.5 -202q0 -276 -137.5 -435 t-349.5 -159q-211 0 -353.5 135.5t-142.5 344.5zM420 483q0 -100 34 -160.5t93 -60.5q53 0 86 60.5t33 160.5q0 213 -115 213q-62 0 -96.5 -59t-34.5 -154z" />
<glyph unicode="&#xf1;" horiz-adv-x="1105" d="M86 0v958h326l24 -112h15q47 64 119.5 102.5t164.5 38.5q50 0 99 -18.5t91.5 -54.5t68.5 -97t26 -137v-680h-369v561q0 61 -28.5 90t-67.5 29q-60 0 -100 -64v-616h-369zM211 1116q0 145 60.5 219t154.5 74q37 0 73.5 -20t62 -43.5t57 -43.5t59.5 -20q35 0 55.5 32 t20.5 85h153q0 -129 -60 -211t-155 -82q-41 0 -79.5 19.5t-62 43t-55 43t-61.5 19.5q-33 0 -51 -31t-18 -84h-154z" />
<glyph unicode="&#xf2;" horiz-adv-x="1085" d="M47 471q0 222 141 369t347 147q221 0 362 -146t141 -370q0 -138 -66.5 -253t-180.5 -181t-248 -66q-209 0 -352.5 138.5t-143.5 361.5zM209 1393v20h295l217 -315v-17h-207zM416 477q0 -215 131 -215q51 0 87 56t36 159q0 109 -33 164t-92 55q-57 0 -93 -57.5t-36 -161.5 z" />
<glyph unicode="&#xf3;" horiz-adv-x="1085" d="M47 471q0 222 141 369t347 147q221 0 362 -146t141 -370q0 -138 -66.5 -253t-180.5 -181t-248 -66q-209 0 -352.5 138.5t-143.5 361.5zM365 1081v17l217 315h295v-20l-306 -312h-206zM416 477q0 -215 131 -215q51 0 87 56t36 159q0 109 -33 164t-92 55q-57 0 -93 -57.5 t-36 -161.5z" />
<glyph unicode="&#xf4;" horiz-adv-x="1085" d="M47 471q0 222 141 369t347 147q221 0 362 -146t141 -370q0 -138 -66.5 -253t-180.5 -181t-248 -66q-209 0 -352.5 138.5t-143.5 361.5zM215 1081v17l268 315h125l269 -315v-17h-187l-145 140l-144 -140h-186zM416 477q0 -215 131 -215q51 0 87 56t36 159q0 109 -33 164 t-92 55q-57 0 -93 -57.5t-36 -161.5z" />
<glyph unicode="&#xf5;" horiz-adv-x="1085" d="M47 471q0 222 141 369t347 147q221 0 362 -146t141 -370q0 -138 -66.5 -253t-180.5 -181t-248 -66q-209 0 -352.5 138.5t-143.5 361.5zM195 1116q0 145 60.5 219t154.5 74q37 0 73.5 -20t62 -43.5t57 -43.5t59.5 -20q35 0 55 32t20 85h154q0 -129 -60 -211t-155 -82 q-41 0 -79.5 19.5t-62 43t-55 43t-61.5 19.5q-33 0 -51.5 -31t-18.5 -84h-153zM416 477q0 -215 131 -215q51 0 87 56t36 159q0 109 -33 164t-92 55q-57 0 -93 -57.5t-36 -161.5z" />
<glyph unicode="&#xf6;" horiz-adv-x="1085" d="M47 471q0 222 141 369t347 147q221 0 362 -146t141 -370q0 -138 -66.5 -253t-180.5 -181t-248 -66q-209 0 -352.5 138.5t-143.5 361.5zM203 1219q0 57 44 100t101 43q58 0 99.5 -42.5t41.5 -100.5q0 -56 -41.5 -98t-99.5 -42q-57 0 -101 42.5t-44 97.5zM416 477 q0 -215 131 -215q51 0 87 56t36 159q0 109 -33 164t-92 55q-57 0 -93 -57.5t-36 -161.5zM596 1219q0 57 43 100t100 43q54 0 99 -43.5t45 -99.5q0 -55 -45 -97.5t-99 -42.5q-57 0 -100 42t-43 98z" />
<glyph unicode="&#xf7;" horiz-adv-x="1085" d="M68 504v225h950v-225h-950zM387 254q0 65 45 110.5t111 45.5q64 0 109.5 -45.5t45.5 -110.5q0 -66 -45 -111t-110 -45q-66 0 -111 45t-45 111zM387 979q0 65 45 110.5t111 45.5q64 0 109.5 -45.5t45.5 -110.5q0 -66 -45 -111t-110 -45q-66 0 -111 45t-45 111z" />
<glyph unicode="&#xf8;" horiz-adv-x="1085" d="M47 471q0 222 141 369t347 147q146 0 268 -72l76 101l94 -68l-76 -106q141 -147 141 -371q0 -138 -66.5 -253t-180.5 -181t-248 -66q-131 0 -244 58l-84 -115l-96 74l82 110q-154 144 -154 373zM416 477q0 -56 8 -92l201 272q-29 39 -80 39q-57 0 -93 -57.5t-36 -161.5z M469 291q29 -29 78 -29q51 0 87 56t36 159q0 43 -6 80z" />
<glyph unicode="&#xf9;" horiz-adv-x="1105" d="M86 299v659h369v-561q0 -60 29 -89t63 -29q35 0 65 19.5t39 45.5v614h369v-958h-334l-18 106h-17q-49 -58 -119.5 -96.5t-152.5 -38.5q-57 0 -107.5 18t-93 55t-67.5 102.5t-25 152.5zM229 1393v20h295l217 -315v-17h-206z" />
<glyph unicode="&#xfa;" horiz-adv-x="1105" d="M86 299v659h369v-561q0 -60 29 -89t63 -29q35 0 65 19.5t39 45.5v614h369v-958h-334l-18 106h-17q-49 -58 -119.5 -96.5t-152.5 -38.5q-57 0 -107.5 18t-93 55t-67.5 102.5t-25 152.5zM385 1081v17l217 315h295v-20l-305 -312h-207z" />
<glyph unicode="&#xfb;" horiz-adv-x="1105" d="M86 299v659h369v-561q0 -60 29 -89t63 -29q35 0 65 19.5t39 45.5v614h369v-958h-334l-18 106h-17q-49 -58 -119.5 -96.5t-152.5 -38.5q-57 0 -107.5 18t-93 55t-67.5 102.5t-25 152.5zM236 1081v17l268 315h125l268 -315v-17h-186l-146 140l-143 -140h-186z" />
<glyph unicode="&#xfc;" horiz-adv-x="1105" d="M86 299v659h369v-561q0 -60 29 -89t63 -29q35 0 65 19.5t39 45.5v614h369v-958h-334l-18 106h-17q-49 -58 -119.5 -96.5t-152.5 -38.5q-57 0 -107.5 18t-93 55t-67.5 102.5t-25 152.5zM223 1219q0 57 44.5 100t101.5 43q58 0 99.5 -42.5t41.5 -100.5q0 -56 -41.5 -98 t-99.5 -42q-57 0 -101.5 42.5t-44.5 97.5zM616 1219q0 57 43.5 100t100.5 43q54 0 98.5 -43.5t44.5 -99.5q0 -55 -45 -97.5t-98 -42.5q-57 0 -100.5 42.5t-43.5 97.5z" />
<glyph unicode="&#xfd;" d="M-10 958h379l137 -512h14l135 512h379l-409 -1099q-38 -100 -95 -166t-110 -74l-352 -43l-11 88q91 61 158.5 170t97.5 234zM340 1081v17l217 315h295v-20l-305 -312h-207z" />
<glyph unicode="&#xfe;" horiz-adv-x="1105" d="M86 -412v1798l369 31v-504h10q31 29 85 51.5t101 22.5q79 0 148.5 -29t128 -87.5t93 -160t34.5 -233.5q0 -106 -24.5 -193.5t-63.5 -144.5t-89.5 -96t-100.5 -55.5t-99 -16.5q-61 0 -118 17t-89 41h-14l-2 -416zM455 299q32 -37 98 -37q49 0 91 50t42 161 q0 68 -12.5 115.5t-33 69t-39.5 30t-40 8.5q-62 0 -106 -55v-342z" />
<glyph unicode="&#xff;" d="M-10 958h379l137 -512h14l135 512h379l-409 -1099q-38 -100 -95 -166t-110 -74l-352 -43l-11 88q91 61 158.5 170t97.5 234zM178 1219q0 57 44.5 100t101.5 43q58 0 99.5 -42.5t41.5 -100.5q0 -56 -41.5 -98t-99.5 -42q-57 0 -101.5 42.5t-44.5 97.5zM571 1219 q0 57 43.5 100t100.5 43q54 0 98.5 -43.5t44.5 -99.5q0 -55 -45 -97.5t-98 -42.5q-57 0 -100.5 42.5t-43.5 97.5z" />
<glyph unicode="&#x152;" horiz-adv-x="2007" d="M72 686q0 161 57 300t154 234t226 149t271 54q116 0 234 -32v2h897v-336h-512v-187h442v-331h-442v-203h532v-336h-915q-115 -31 -236 -31q-208 0 -368 86t-250 249.5t-90 381.5zM471 690q0 -179 82.5 -279t214.5 -100q128 0 207.5 101t79.5 278q0 183 -84 287t-207 104 t-208 -103t-85 -288z" />
<glyph unicode="&#x153;" horiz-adv-x="1638" d="M47 471q0 223 139 369.5t344 146.5q198 0 330 -145q63 69 141.5 107t161.5 38q187 0 307.5 -121.5t120.5 -285.5q0 -107 -32 -185h-541q0 -143 217 -143q81 0 169.5 20t133.5 52h8l-20 -261q-67 -43 -177 -67.5t-208 -24.5q-201 0 -312 117q-126 -117 -290 -117 q-136 0 -247.5 60.5t-178 175.5t-66.5 264zM416 477q0 -215 127 -215q51 0 85 56t34 159q0 219 -121 219q-57 0 -91 -57t-34 -162zM1022 555h254q3 70 -30.5 111t-84.5 41q-55 0 -94 -44t-45 -108z" />
<glyph unicode="&#x178;" horiz-adv-x="1290" d="M-20 1393h409l256 -467l256 467h410l-473 -803v-590h-385v590zM305 1653q0 57 44.5 100t101.5 43q58 0 99.5 -42.5t41.5 -100.5q0 -56 -41.5 -98t-99.5 -42q-57 0 -101.5 42.5t-44.5 97.5zM698 1653q0 57 43.5 100t100.5 43q54 0 98.5 -43.5t44.5 -99.5q0 -55 -45 -97.5 t-98 -42.5q-57 0 -100.5 42.5t-43.5 97.5z" />
<glyph unicode="&#x2c6;" d="M184 948v17l269 315h125l268 -315v-17h-187l-145 139l-143 -139h-187z" />
<glyph unicode="&#x2dc;" d="M164 983q0 145 60.5 219t154.5 74q37 0 73.5 -20t62 -43.5t57 -43.5t59.5 -20q35 0 55.5 32t20.5 85h153q0 -129 -60 -211t-155 -82q-41 0 -79.5 19.5t-62 43t-55 43t-61.5 19.5q-33 0 -51.5 -31t-18.5 -84h-153z" />
<glyph unicode="&#x2000;" horiz-adv-x="982" />
<glyph unicode="&#x2001;" horiz-adv-x="1964" />
<glyph unicode="&#x2002;" horiz-adv-x="982" />
<glyph unicode="&#x2003;" horiz-adv-x="1964" />
<glyph unicode="&#x2004;" horiz-adv-x="654" />
<glyph unicode="&#x2005;" horiz-adv-x="491" />
<glyph unicode="&#x2006;" horiz-adv-x="327" />
<glyph unicode="&#x2007;" horiz-adv-x="327" />
<glyph unicode="&#x2008;" horiz-adv-x="245" />
<glyph unicode="&#x2009;" horiz-adv-x="392" />
<glyph unicode="&#x200a;" horiz-adv-x="109" />
<glyph unicode="&#x2010;" horiz-adv-x="757" d="M92 348v285h574v-285h-574z" />
<glyph unicode="&#x2011;" horiz-adv-x="757" d="M92 348v285h574v-285h-574z" />
<glyph unicode="&#x2012;" horiz-adv-x="757" d="M92 348v285h574v-285h-574z" />
<glyph unicode="&#x2013;" d="M92 348v285h840v-285h-840z" />
<glyph unicode="&#x2014;" horiz-adv-x="2048" d="M188 375v231h1672v-231h-1672z" />
<glyph unicode="&#x2018;" horiz-adv-x="716" d="M102 811v10l299 572h213v-11l-129 -571h-383z" />
<glyph unicode="&#x2019;" horiz-adv-x="716" d="M102 811v10l129 572h383v-11l-299 -571h-213z" />
<glyph unicode="&#x201a;" horiz-adv-x="716" d="M102 -336l129 572h383v-11l-299 -571h-213v10z" />
<glyph unicode="&#x201c;" horiz-adv-x="1228" d="M102 811v10l299 572h213v-11l-129 -571h-383zM614 811v10l299 572h213v-11l-129 -571h-383z" />
<glyph unicode="&#x201d;" horiz-adv-x="1228" d="M102 811v10l129 572h383v-11l-299 -571h-213zM614 811v10l129 572h383v-11l-299 -571h-213z" />
<glyph unicode="&#x201e;" horiz-adv-x="1228" d="M102 -336l129 572h383v-11l-299 -571h-213v10zM614 -336l129 572h383v-11l-299 -571h-213v10z" />
<glyph unicode="&#x2022;" horiz-adv-x="983" d="M213 541q0 115 81.5 196.5t197.5 81.5t197 -81.5t81 -196.5q0 -116 -81.5 -197.5t-196.5 -81.5q-116 0 -197.5 82t-81.5 197z" />
<glyph unicode="&#x2026;" horiz-adv-x="1904" d="M106 176q0 78 56.5 134.5t134.5 56.5t134 -56.5t56 -134.5t-56 -134t-134 -56t-134.5 56t-56.5 134zM762 176q0 78 56 134.5t134 56.5t134.5 -56.5t56.5 -134.5t-56.5 -134t-134.5 -56t-134 56t-56 134zM1417 176q0 78 56.5 134.5t134.5 56.5t134 -56.5t56 -134.5 t-56 -134t-134 -56t-134.5 56t-56.5 134z" />
<glyph unicode="&#x202f;" horiz-adv-x="392" />
<glyph unicode="&#x2039;" horiz-adv-x="880" d="M121 459v18l467 463l155 -117l-256 -352l250 -352l-159 -127z" />
<glyph unicode="&#x203a;" horiz-adv-x="880" d="M137 823l156 117l467 -463v-18l-457 -467l-160 127l250 352z" />
<glyph unicode="&#x205f;" horiz-adv-x="491" />
<glyph unicode="&#x20ac;" horiz-adv-x="1269" d="M47 502l35 153h104v19q0 43 2 63h-131l39 154h115q40 165 139.5 287t235.5 183.5t291 61.5q182 0 321 -88l-92 -307q-118 77 -234 74q-97 -2 -178 -55t-123 -156h490l-39 -154h-483q-2 -18 -2 -55v-27h464l-34 -153h-400q39 -98 117.5 -154.5t181.5 -56.5q138 0 250 65 l86 -293q-154 -94 -340 -94q-251 0 -428 148.5t-229 384.5h-158z" />
<glyph unicode="&#x2122;" horiz-adv-x="1413" d="M131 1264v129h500v-129h-180v-404h-140v404h-180zM635 860l104 533h101l114 -289h9l112 289h103l104 -533h-141l-41 246h-10l-107 -250h-51l-107 250h-8l-43 -246h-139z" />
<glyph unicode="&#xe000;" horiz-adv-x="962" d="M0 0v963h963v-963h-963z" />
</font>
</defs>
</svg>
