<?xml version="1.0" standalone="no"?>
<!DOCTYPE svg PUBLIC "-//W3C//DTD SVG 1.1//EN" "http://www.w3.org/Graphics/SVG/1.1/DTD/svg11.dtd" >
<svg xmlns="http://www.w3.org/2000/svg">
<metadata></metadata>
<defs>
<font id="concourse_c2regular" horiz-adv-x="1085" >
<font-face units-per-em="2048" ascent="1520" descent="-528" />
<missing-glyph horiz-adv-x="573" />
<glyph unicode="&#xfb01;" horiz-adv-x="1638" d="M223 0v1024h654v-74h-572v-391h510v-74h-510v-485h-82zM1280 0v1024h82v-1024h-82z" />
<glyph unicode="&#xfb02;" horiz-adv-x="1945" d="M223 0v1024h654v-74h-572v-391h510v-74h-510v-485h-82zM1227 0v1024h82v-950h508v-74h-590z" />
<glyph horiz-adv-x="2048" />
<glyph horiz-adv-x="2048" />
<glyph unicode="&#xd;" horiz-adv-x="2048" />
<glyph unicode=" "  horiz-adv-x="573" />
<glyph unicode="&#x09;" horiz-adv-x="573" />
<glyph unicode="&#xa0;" horiz-adv-x="573" />
<glyph unicode="!" horiz-adv-x="819" d="M330 76q0 37 23 63.5t57 26.5q32 0 55.5 -26.5t23.5 -63.5q0 -38 -23 -64t-56 -26q-34 0 -57 26t-23 64zM350 1393h103l-9 -482l-10 -505h-57l-12 503z" />
<glyph unicode="&#x22;" horiz-adv-x="860" d="M217 1393h119l-39 -562h-43zM524 1393h119l-39 -562h-43z" />
<glyph unicode="#" horiz-adv-x="1146" d="M72 537l12 75l262 -47l92 393l-237 43l12 76l244 -43l104 447l76 -19l-105 -442l232 -41l117 483l75 -18l-116 -477l235 -41l-12 -76l-242 43l-96 -393l221 -39l-12 -76l-227 39l-134 -549l-75 19l133 544l-225 39l-136 -581l-75 18l135 578zM424 553l225 -41l96 393 l-229 41z" />
<glyph unicode="$" horiz-adv-x="1064" d="M141 193l41 75q113 -107 269 -125l55 559q-171 84 -249.5 165.5t-78.5 185.5q0 133 105.5 221t269.5 88h18l19 172l69 -8l-18 -172q150 -28 264 -121l-45 -66q-126 92 -225 109l-53 -520q1 0 4 -1t4 -1q323 -161 323 -373q0 -160 -111 -240t-290 -82l-18 -194l-70 8 l18 190q-88 12 -176 51t-125 79zM268 1053q0 -78 53 -132.5t195 -129.5l49 493h-10q-141 0 -214 -64t-73 -167zM520 139q140 0 221.5 58.5t81.5 177.5q0 87 -63 158t-187 137z" />
<glyph unicode="%" horiz-adv-x="1495" d="M164 1079q0 144 74.5 239t187.5 95q124 0 199 -93.5t75 -240.5q0 -139 -78 -230t-190 -91q-115 0 -191.5 90.5t-76.5 230.5zM236 18l495 695l471 696l64 -33l-486 -690l-481 -704zM246 1081q0 -110 53.5 -181t138.5 -71q75 0 127.5 70.5t52.5 181.5q0 118 -51 189 t-135 71q-80 0 -133 -73t-53 -187zM795 301q0 144 74.5 239t187.5 95q124 0 199 -93.5t75 -240.5q0 -139 -78 -230t-190 -91q-115 0 -191.5 90.5t-76.5 230.5zM877 303q0 -110 53.5 -181t138.5 -71q75 0 127.5 70.5t52.5 181.5q0 118 -51 189t-135 71q-80 0 -133 -73 t-53 -187z" />
<glyph unicode="&#x26;" horiz-adv-x="1515" d="M225 397q0 336 324 447v10q-74 24 -121.5 68.5t-63.5 88t-16 89.5q0 132 113.5 222.5t269.5 90.5q97 0 168 -20.5t143 -61.5l-41 -71q-129 73 -274 73q-123 0 -206 -70.5t-83 -166.5q0 -81 62.5 -136.5t171.5 -76.5v-76q-154 -19 -255.5 -127.5t-101.5 -267.5 q0 -161 120.5 -257t303.5 -96q181 0 299.5 100.5t118.5 254.5q0 59 -16.5 119.5t-44.5 103.5l-172 -47l-23 76l436 118l23 -73l-180 -49q65 -105 65 -242q0 -103 -42 -187.5t-113 -139t-161.5 -84t-189.5 -29.5q-228 0 -371 120.5t-143 296.5z" />
<glyph unicode="'" horiz-adv-x="552" d="M217 1393h119l-39 -562h-43z" />
<glyph unicode="(" horiz-adv-x="901" d="M236 557q0 297 132 552t357 396l45 -57q-205 -138 -324.5 -375t-119.5 -518q0 -253 122 -482t326 -380l-49 -55q-227 167 -358 404t-131 515z" />
<glyph unicode=")" horiz-adv-x="901" d="M127 -307q204 151 326 380t122 482q0 281 -119.5 518t-324.5 375l45 57q225 -142 357.5 -396.5t132.5 -551.5q0 -277 -131.5 -514.5t-358.5 -404.5z" />
<glyph unicode="*" horiz-adv-x="1269" d="M244 999l32 95l330 -109l-16 408h108l-39 -408l336 129l33 -92l-352 -90l272 -324l-76 -53l-239 342l-236 -352l-73 55l268 332z" />
<glyph unicode="+" d="M68 575v82h434v435h82v-435h434v-82h-434v-434h-82v434h-434z" />
<glyph unicode="," horiz-adv-x="696" d="M137 -319q158 276 234 499h98v-12q-113 -288 -256 -487h-76z" />
<glyph unicode="-" horiz-adv-x="880" d="M195 453v77h491v-77h-491z" />
<glyph unicode="." horiz-adv-x="737" d="M289 76q0 37 23 63.5t57 26.5q32 0 56 -26.5t24 -63.5q0 -38 -23.5 -64t-56.5 -26q-34 0 -57 26t-23 64z" />
<glyph unicode="/" horiz-adv-x="1126" d="M113 -328l819 1762h82l-819 -1762h-82z" />
<glyph unicode="0" horiz-adv-x="1310" d="M174 711q0 138 25 253.5t69 197.5t105 139t133 84.5t153 27.5q212 0 345 -186.5t133 -515.5q0 -180 -35.5 -321t-100 -230t-151 -134.5t-191.5 -45.5q-102 0 -188.5 44t-153.5 131.5t-105 229.5t-38 326zM264 715q0 -319 107 -487.5t291 -168.5q183 0 284 172t101 484 q0 282 -108 450t-284 168q-171 0 -281 -163t-110 -455z" />
<glyph unicode="1" horiz-adv-x="1024" d="M227 1352l365 51l16 -17v-1386h-86v1315l-284 -41z" />
<glyph unicode="2" horiz-adv-x="1208" d="M150 72q283 223 454 401t240 310t69 253q0 133 -89 215t-232 82q-180 0 -330 -125l-37 70q62 58 165.5 96.5t201.5 38.5q185 0 298.5 -101t113.5 -274q0 -111 -48 -224.5t-146.5 -233t-227.5 -238.5t-310 -260l2 -4h770v-78h-874z" />
<glyph unicode="3" horiz-adv-x="1167" d="M166 158l2 2q88 -55 167.5 -78t172.5 -23q166 0 270.5 89.5t104.5 238.5q0 130 -84.5 212.5t-212.5 82.5l-236 -12l17 92h200q121 0 201 77.5t80 198.5q0 142 -87.5 218.5t-225.5 76.5q-145 0 -299 -94h-7l11 90q137 84 299 84q186 0 292.5 -99.5t106.5 -266.5 q0 -106 -62 -193t-169 -123v-8q124 -26 195 -122.5t71 -209.5q0 -188 -129.5 -299.5t-337.5 -111.5q-185 0 -338 86z" />
<glyph unicode="4" horiz-adv-x="1228" d="M150 461l663 932h90v-901h189v-78h-189v-414h-86v414h-635zM274 504l9 -12h534v759h-10z" />
<glyph unicode="5" horiz-adv-x="1208" d="M193 10l22 78q79 -29 184 -29q139 0 245.5 31.5t170.5 87t96.5 126.5t32.5 155q0 169 -129.5 268.5t-333.5 99.5q-135 0 -258 -26l-8 6l74 586h692l-16 -88l-607 10l-51 -418q61 10 178 10q253 0 401 -125.5t148 -314.5q0 -221 -164.5 -354t-472.5 -133q-128 0 -204 30z " />
<glyph unicode="6" horiz-adv-x="1208" d="M174 535q0 128 34 247t92.5 212.5t137 171.5t167.5 130t183 82.5t185 34.5l-17 -80q-137 -12 -260.5 -74.5t-210 -155t-142.5 -203.5t-69 -222l5 -2q69 69 161.5 106t184.5 37q84 0 160.5 -25.5t140 -75t101.5 -132.5t38 -189q0 -128 -59.5 -225t-154.5 -144.5 t-208 -47.5q-116 0 -207 44t-147.5 121t-85.5 176t-29 214zM264 510q0 -200 104 -325.5t271 -125.5q150 0 243 94t93 240q0 74 -22 134.5t-57.5 99t-83.5 64.5t-96.5 37t-99.5 11q-96 0 -187.5 -39.5t-160.5 -115.5q-4 -50 -4 -74z" />
<glyph unicode="7" horiz-adv-x="1126" d="M150 1305l8 88h860l20 -25q-500 -645 -534 -1368h-92q28 369 164 710.5t344 598.5l-5 6z" />
<glyph unicode="8" horiz-adv-x="1187" d="M168 338q0 123 89 224.5t235 158.5v4q-146 73 -211.5 164t-65.5 184q0 146 110.5 243t272.5 97q158 0 265.5 -90t107.5 -238q0 -121 -67 -207t-208 -155v-6q177 -85 249.5 -179.5t72.5 -209.5q0 -154 -119 -251t-305 -97q-188 0 -307 101t-119 257zM258 338 q0 -124 97 -201.5t237 -77.5q151 0 243.5 73t92.5 198q0 114 -92 200.5t-256 155.5q-158 -58 -240 -151t-82 -197zM305 1081q0 -96 71.5 -174t229.5 -151q275 97 275 319q0 118 -78.5 188t-202.5 70q-129 0 -212 -72.5t-83 -179.5z" />
<glyph unicode="9" horiz-adv-x="1208" d="M154 985q0 100 37 183t97 135.5t134.5 81t152.5 28.5q112 0 202 -42.5t148 -117.5t88.5 -176t30.5 -219q0 -153 -35 -283t-97.5 -227t-152 -173t-193.5 -125.5t-228 -80.5l-43 70l2 4q123 24 227 74.5t176.5 115t125.5 143.5t81.5 158t38.5 160l-8 6q-74 -62 -167 -94.5 t-187 -32.5q-63 0 -122 13.5t-116 45t-99 78t-67.5 117.5t-25.5 158zM244 985q0 -72 20 -130t53 -95t78 -62t92 -35t97 -10q106 0 205.5 35.5t160.5 99.5q4 66 4 95q0 200 -103.5 325t-270.5 125q-148 0 -242 -98.5t-94 -249.5z" />
<glyph unicode=":" horiz-adv-x="737" d="M289 76q0 37 23 63.5t57 26.5q32 0 56 -26.5t24 -63.5q0 -38 -23.5 -64t-56.5 -26q-34 0 -57 26t-23 64zM289 731q0 37 23 63.5t57 26.5q32 0 56 -26.5t24 -63.5q0 -38 -23.5 -64t-56.5 -26q-34 0 -57 26t-23 64z" />
<glyph unicode=";" horiz-adv-x="778" d="M162 -319q155 271 233 499h99v-12q-113 -288 -256 -487h-76zM328 731q0 37 23 63.5t57 26.5q32 0 55.5 -26.5t23.5 -63.5q0 -38 -23 -64t-56 -26q-34 0 -57 26t-23 64z" />
<glyph unicode="&#x3c;" d="M102 625v65l828 420l37 -74l-750 -379l750 -378l-37 -74z" />
<glyph unicode="=" d="M88 362v82h909v-82h-909zM88 772v82h909v-82h-909z" />
<glyph unicode="&#x3e;" d="M119 279l749 378l-749 379l37 74l827 -420v-65l-827 -420z" />
<glyph unicode="?" horiz-adv-x="1105" d="M244 1282l8 84q107 47 235 47q199 0 309.5 -101.5t110.5 -267.5q0 -73 -26.5 -136.5t-70 -108t-101 -78t-118.5 -52t-124 -24.5v-211h-86v279q436 38 436 327q0 136 -86 214.5t-239 78.5q-149 0 -240 -51h-8zM344 76q0 37 23 63.5t57 26.5q32 0 56 -26.5t24 -63.5 q0 -38 -23.5 -64t-56.5 -26q-34 0 -57 26t-23 64z" />
<glyph unicode="@" horiz-adv-x="1597" d="M256 604q0 211 83 396t233.5 299t332.5 114q177 0 278.5 -88.5t90.5 -267.5l-39 -568q-3 -50 13 -98t42 -72l-2 -8l-63 -28q-25 20 -37 44.5t-23 65.5h-10q-104 -104 -260 -104q-128 0 -203.5 77.5t-75.5 221.5q0 156 99 257t252 101q54 0 115.5 -13t101.5 -34l10 141 q10 148 -70 219.5t-223 71.5q-150 0 -278 -98.5t-202.5 -266.5t-74.5 -364q0 -170 41 -304.5t111.5 -217.5t161.5 -126.5t196 -43.5q165 0 287 88h6l29 -72q-63 -50 -153.5 -74t-170.5 -24q-269 0 -433.5 208.5t-164.5 567.5zM707 588q0 -121 57.5 -170t159.5 -49 q58 0 126 30t105 76l23 344q-95 53 -207 53q-118 0 -191 -75t-73 -209z" />
<glyph unicode="A" horiz-adv-x="1495" d="M141 27l596 1398h21l596 -1398l-76 -41l-205 481h-651l-205 -481zM455 545h585l-288 682h-7z" />
<glyph unicode="B" horiz-adv-x="1290" d="M272 0v1393h334q107 0 189 -27t131.5 -75t74.5 -110t25 -137q0 -111 -66 -193.5t-176 -115.5v-8q141 -29 228.5 -119t87.5 -229q0 -182 -117 -280.5t-326 -98.5h-385zM358 78h299q161 0 257 74t96 221q0 146 -111 229.5t-276 83.5h-265v-608zM358 764h258q132 0 226 73.5 t94 202.5q0 127 -88 201t-246 74h-244v-551z" />
<glyph unicode="C" horiz-adv-x="1474" d="M190 674q0 137 36 256t99 206.5t148 150.5t185 94.5t208 31.5q245 0 432 -153l-41 -70q-75 64 -179 104q-101 39 -210 39h-6q-117 -2 -221.5 -46.5t-185 -125.5t-127.5 -205t-47 -274q0 -180 72.5 -321.5t206.5 -221.5t306 -80q228 0 416 148l39 -66q-78 -69 -204.5 -115 t-254.5 -46q-195 0 -349 89.5t-238.5 247.5t-84.5 357z" />
<glyph unicode="D" horiz-adv-x="1515" d="M272 0v1393h361q146 0 273 -50.5t219.5 -141t146 -224.5t53.5 -293q0 -207 -89 -363.5t-245 -238.5t-356 -82h-363zM358 78h285q275 0 433.5 167.5t158.5 442.5q0 129 -35 236t-92.5 178t-135 120t-160.5 71t-171 22h-283v-1237z" />
<glyph unicode="E" horiz-adv-x="1228" d="M272 0v1393h732v-78h-646v-551h584v-78h-584v-608h666v-78h-752z" />
<glyph unicode="F" horiz-adv-x="1167" d="M272 0v1393h707v-78h-621v-551h560v-78h-560v-686h-86z" />
<glyph unicode="G" horiz-adv-x="1576" d="M190 674q0 212 85.5 380.5t240 263.5t350.5 95q254 0 434 -151l-43 -70q-163 141 -395 141q-117 0 -222 -44.5t-185 -126t-127 -206t-47 -274.5q0 -279 165 -451t428 -172q114 0 213.5 37.5t155.5 89.5v441h-436v78h522v-558q-92 -77 -210.5 -122t-241.5 -45 q-159 0 -290.5 55t-217.5 150t-132.5 220.5t-46.5 268.5z" />
<glyph unicode="H" horiz-adv-x="1576" d="M272 0v1393h86v-629h861v629h86v-1393h-86v686h-861v-686h-86z" />
<glyph unicode="I" horiz-adv-x="716" d="M315 0v1393h86v-1393h-86z" />
<glyph unicode="J" horiz-adv-x="1024" d="M137 43l37 74q98 -58 191 -58q148 0 224.5 100t76.5 314v920h86v-940q0 -235 -105 -354t-282 -119q-134 0 -228 63z" />
<glyph unicode="K" horiz-adv-x="1372" d="M272 0v1393h86v-748h4l750 762l59 -49v-4l-565 -572l631 -745v-6l-61 -43l-625 743l-193 -192v-539h-86z" />
<glyph unicode="L" horiz-adv-x="1146" d="M272 0v1393h86v-1315h639v-78h-725z" />
<glyph unicode="M" horiz-adv-x="1925" d="M225 6l224 1403l36 4l480 -1231h4l471 1231l37 -4l223 -1403l-84 -18l-182 1157l-13 2l-448 -1167h-21l-448 1167l-12 -2l-183 -1157z" />
<glyph unicode="N" horiz-adv-x="1699" d="M272 0v1391l50 16l1011 -1239l8 4v1221h86v-1393l-49 -14l-1011 1237l-9 -4v-1219h-86z" />
<glyph unicode="O" horiz-adv-x="1699" d="M190 686q0 160 55.5 298.5t148 231t212 145t246.5 52.5q131 0 250 -51.5t209.5 -144t144 -230.5t53.5 -301q0 -143 -47.5 -272t-131.5 -225t-208.5 -152.5t-269.5 -56.5q-146 0 -270.5 55t-210 150t-133.5 225t-48 276zM281 690q0 -172 66.5 -314t198.5 -229.5t306 -87.5 q127 0 235 51t180 137t112 201t40 242q0 280 -159.5 461.5t-407.5 181.5q-114 0 -217.5 -46t-182 -127.5t-125 -204t-46.5 -265.5z" />
<glyph unicode="P" horiz-adv-x="1187" d="M272 0v1393h334q193 0 312.5 -106.5t119.5 -285.5q0 -93 -35.5 -167.5t-96.5 -122t-139.5 -72.5t-168.5 -25h-240v-614h-86zM358 692h240q67 0 127 17t111 52t81.5 95.5t30.5 140.5q0 144 -95 231t-245 87h-250v-623z" />
<glyph unicode="Q" horiz-adv-x="1699" d="M190 711q0 185 87 346.5t238 258.5t327 97q194 0 347.5 -95.5t236.5 -255.5t83 -351q0 -203 -83.5 -366.5t-236 -258t-345.5 -94.5q-82 0 -107 8l-4 -8q151 -144 291 -218q128 -67 272 -67h23l-29 -86q-91 0 -175 23.5t-148.5 62t-125 84.5t-114.5 92t-106 84.5 t-110.5 63.5t-117.5 26l41 80q-244 209 -244 574zM281 715q0 -128 38.5 -244t109 -205t178 -141.5t237.5 -52.5q134 0 244.5 52.5t182 141.5t110 204.5t38.5 244.5q0 81 -21 165t-67 166t-111.5 145.5t-163.5 102.5t-214 39q-121 0 -228.5 -56t-179 -145t-112.5 -198.5 t-41 -218.5z" />
<glyph unicode="R" horiz-adv-x="1331" d="M272 0v1393h334q210 0 331.5 -102t121.5 -277q0 -320 -342 -387l436 -596v-6l-70 -39l-458 628h-267v-614h-86zM358 692h242q77 0 140.5 17t116.5 53t82.5 100t29.5 152q0 141 -97.5 221t-263.5 80h-250v-623z" />
<glyph unicode="S" horiz-adv-x="1208" d="M215 129l45 72h2q133 -142 344 -142q162 0 238 73.5t76 197.5q0 105 -70 182t-246 172q-106 56 -168.5 96.5t-111.5 87.5t-68.5 97t-19.5 114q0 63 25 122.5t71.5 107t118.5 76t159 28.5q109 0 202.5 -39t158.5 -104l-43 -62h-6q-72 68 -146.5 97.5t-165.5 29.5 q-133 0 -208.5 -69.5t-75.5 -171.5q0 -100 71.5 -173t270.5 -178q189 -100 265.5 -192.5t76.5 -231.5q0 -155 -115.5 -247t-292.5 -92q-130 0 -234.5 45t-152.5 104z" />
<glyph unicode="T" horiz-adv-x="1290" d="M129 1315v78h1032v-78h-473v-1315h-86v1315h-473z" />
<glyph unicode="U" horiz-adv-x="1576" d="M272 506v887h86v-873q0 -238 114 -350.5t316 -112.5q199 0 315 112t116 351v873h86v-887q0 -109 -31.5 -202.5t-93 -167t-162 -115t-230.5 -41.5q-114 0 -203.5 28t-147.5 76t-95.5 116t-53.5 143t-16 163z" />
<glyph unicode="V" horiz-adv-x="1454" d="M160 1372l82 31l485 -1231h4l488 1231l75 -31l-557 -1392h-20z" />
<glyph unicode="W" horiz-adv-x="1986" d="M160 1372l84 31l405 -1190h8l322 1206h29l327 -1206h8l400 1190l84 -31l-486 -1392h-28l-316 1171h-4l-319 -1171h-29z" />
<glyph unicode="X" horiz-adv-x="1433" d="M195 27l475 671l-457 660l68 45l440 -633l446 633l66 -47l-463 -658l469 -673l-72 -45l-448 647l-457 -647z" />
<glyph unicode="Y" horiz-adv-x="1372" d="M150 1358l67 45l469 -694h4l461 694l72 -45l-494 -737v-621h-86v621z" />
<glyph unicode="Z" horiz-adv-x="1413" d="M150 10l931 1297l-6 8h-835v78h985l8 -11l-930 -1294l8 -10h899v-78h-1054z" />
<glyph unicode="[" horiz-adv-x="942" d="M362 -336v1819l451 -8v-78l-367 8v-1663l379 8v-78z" />
<glyph unicode="\" horiz-adv-x="1126" d="M113 1434h82l819 -1762h-82z" />
<glyph unicode="]" horiz-adv-x="942" d="M117 -250l379 -8v1663l-367 -8v78l451 8v-1819l-463 8v78z" />
<glyph unicode="^" d="M61 643l465 772h35l463 -772l-74 -51l-397 670h-16l-404 -670z" />
<glyph unicode="_" d="M-51 -348h1188v-82h-1188v82z" />
<glyph unicode="`" horiz-adv-x="1024" d="M276 1282v8h101l207 -325v-7h-54z" />
<glyph unicode="a" horiz-adv-x="1167" d="M111 27l462 1007h21l463 -1007l-72 -37l-137 297h-531l-135 -297zM350 360h465l-231 504h-4z" />
<glyph unicode="b" horiz-adv-x="1064" d="M223 0v1024h287q92 0 161.5 -23t108.5 -62t57.5 -84.5t18.5 -96.5q0 -80 -41 -140.5t-131 -85.5v-8q106 -17 171 -87t65 -163q0 -129 -91.5 -201.5t-253.5 -72.5h-352zM305 74h270q121 0 190 53t69 147q0 101 -83 156t-214 55h-232v-411zM305 559h232q111 0 172 50 t61 139q0 55 -22 95.5t-60 63t-81.5 33t-92.5 10.5h-209v-391z" />
<glyph unicode="c" horiz-adv-x="1167" d="M141 500q0 124 44.5 228.5t119 172.5t169.5 105.5t198 37.5q201 0 344 -108l-39 -66q-69 48 -137 74q-66 25 -164 25h-8q-64 -1 -126 -19t-119.5 -56t-100.5 -91.5t-69 -130.5t-26 -168q0 -196 125.5 -322.5t319.5 -126.5q177 0 325 109l37 -62q-73 -56 -169 -89 t-197 -33q-152 0 -273.5 70t-187.5 188.5t-66 261.5z" />
<glyph unicode="d" horiz-adv-x="1187" d="M223 0v1024h307q145 0 267 -63t196 -181t74 -266q0 -243 -145.5 -378.5t-389.5 -135.5h-309zM305 74h246q200 0 315 116.5t115 321.5q0 199 -129.5 318.5t-319.5 119.5h-227v-876z" />
<glyph unicode="e" horiz-adv-x="1064" d="M223 0v1024h654v-74h-572v-391h510v-74h-510v-411h592v-74h-674z" />
<glyph unicode="f" horiz-adv-x="1003" d="M223 0v1024h654v-74h-572v-391h510v-74h-510v-485h-82z" />
<glyph unicode="g" horiz-adv-x="1249" d="M141 500q0 124 44.5 228.5t119 172.5t169.5 105.5t198 37.5q205 0 344 -106l-41 -66q-127 97 -297 97h-10q-81 -2 -157.5 -31.5t-141 -84.5t-103.5 -145.5t-39 -203.5q0 -196 125.5 -322.5t319.5 -126.5q87 0 166 24.5t133 65.5v314h-338v73h420v-426q-71 -57 -174 -91.5 t-211 -34.5q-152 0 -273.5 70t-187.5 188.5t-66 261.5z" />
<glyph unicode="h" horiz-adv-x="1249" d="M223 0v1024h82v-465h639v465h82v-1024h-82v485h-639v-485h-82z" />
<glyph unicode="i" horiz-adv-x="634" d="M276 0v1024h82v-1024h-82z" />
<glyph unicode="j" horiz-adv-x="921" d="M72 43l37 70q84 -58 194 -58q155 0 234 90t79 297v582h82v-612q0 -216 -106.5 -324t-288.5 -108q-137 0 -231 63z" />
<glyph unicode="k" horiz-adv-x="1146" d="M223 0v1024h82v-571h8l625 587l51 -47v-10l-454 -432l479 -514v-10l-62 -39l-481 518l-166 -160v-346h-82z" />
<glyph unicode="l" horiz-adv-x="942" d="M223 0v1024h82v-950h508v-74h-590z" />
<glyph unicode="m" horiz-adv-x="1515" d="M182 12l189 1022h24l359 -860h10l356 860h25l188 -1022l-84 -18l-145 794h-8l-328 -804h-20l-334 804h-8l-140 -794z" />
<glyph unicode="n" horiz-adv-x="1331" d="M223 0v1024l47 10l750 -882l6 4v868h82v-1024l-47 -10l-750 880l-6 -2v-868h-82z" />
<glyph unicode="o" horiz-adv-x="1331" d="M141 500q0 158 73 284t192.5 193t261.5 67q139 0 257 -65t191.5 -191t73.5 -288q0 -142 -66.5 -260.5t-187 -189t-268.5 -70.5q-150 0 -271.5 71t-188.5 189.5t-67 259.5zM227 504q0 -90 30.5 -171t86 -143t141 -98.5t187.5 -36.5q129 0 229 63t151.5 164.5t51.5 221.5 q0 204 -124.5 334.5t-313.5 130.5q-117 0 -216.5 -56t-161 -163.5t-61.5 -245.5z" />
<glyph unicode="p" horiz-adv-x="1044" d="M223 0v1024h332q155 0 251.5 -79.5t96.5 -213.5q0 -132 -93 -214.5t-263 -82.5h-242v-434h-82zM305 508h248q123 0 193.5 56t70.5 159q0 111 -69 169t-187 58h-256v-442z" />
<glyph unicode="q" horiz-adv-x="1331" d="M141 500q0 158 73 284t192.5 193t261.5 67q139 0 257 -65t191.5 -191t73.5 -288q0 -142 -66.5 -260.5t-187 -189t-268.5 -70.5q-24 0 -70 4l-6 -9q112 -106 222 -156q99 -45 213 -45q14 0 28 1l-15 -82q-113 0 -213.5 37t-172 90t-134.5 106t-128 91t-126 40l35 64 q-76 73 -118 171.5t-42 207.5zM227 504q0 -90 30.5 -171t86 -143t141 -98.5t187.5 -36.5q129 0 229 63t151.5 164.5t51.5 221.5q0 204 -124.5 334.5t-313.5 130.5q-117 0 -216.5 -56t-161 -163.5t-61.5 -245.5z" />
<glyph unicode="r" horiz-adv-x="1146" d="M223 0v1024h352q150 0 239 -80.5t89 -212.5q0 -105 -65 -181.5t-181 -100.5v-7l344 -413v-9l-71 -28l-365 442h-260v-434h-82zM305 508h258q118 0 186 58.5t68 166.5q0 99 -66.5 158t-172.5 59h-273v-442z" />
<glyph unicode="s" horiz-adv-x="1064" d="M156 111l47 65q61 -55 148 -88t186 -33q138 0 205 55t67 138q0 78 -64 135.5t-204 112.5q-187 71 -260.5 135.5t-73.5 161.5q0 101 84.5 176t232.5 75q101 0 195.5 -39.5t152.5 -93.5l-47 -61q-71 58 -142 88.5t-159 30.5q-110 0 -170.5 -49t-60.5 -121t56.5 -119 t223.5 -113q175 -69 248.5 -143.5t73.5 -173.5q0 -117 -90.5 -193.5t-269.5 -76.5q-118 0 -224 39t-155 92z" />
<glyph unicode="t" horiz-adv-x="1126" d="M119 950v74h889v-74h-406v-950h-82v950h-401z" />
<glyph unicode="u" horiz-adv-x="1290" d="M223 414v610h82v-596q0 -194 90 -283.5t250 -89.5q156 0 248 90.5t92 282.5v596h82v-610q0 -89 -25 -165.5t-74.5 -137.5t-132.5 -96t-190 -35q-94 0 -168 24.5t-121 65.5t-77.5 98t-43 117.5t-12.5 128.5z" />
<glyph unicode="v" horiz-adv-x="1126" d="M106 1004l76 30l383 -884h8l369 884l78 -30l-442 -1014h-23z" />
<glyph unicode="w" horiz-adv-x="1617" d="M106 1004l80 30l322 -844h10l281 844h20l293 -844h10l308 844l81 -30l-391 -1014h-20l-285 827h-8l-283 -827h-20z" />
<glyph unicode="x" horiz-adv-x="1126" d="M123 20l389 496l-379 488l70 40l360 -462l363 462l67 -40l-381 -486l392 -498l-72 -40l-371 473l-371 -473z" />
<glyph unicode="y" d="M102 1004l68 40l371 -546h8l366 546l68 -40l-399 -588v-416h-82v416z" />
<glyph unicode="z" horiz-adv-x="1146" d="M135 20l725 924l-2 6h-680v74h823l11 -10l-731 -934l4 -6h719v-74h-857z" />
<glyph unicode="{" horiz-adv-x="942" d="M217 537v102q118 0 197.5 63t79.5 152q0 72 -37 189.5t-37 199.5q0 114 102.5 173t300.5 59v-70q-147 0 -234 -43.5t-87 -130.5q0 -71 40 -192.5t40 -194.5q0 -92 -68.5 -156.5t-171.5 -89.5v-14q99 -9 169.5 -77.5t70.5 -168.5q0 -69 -40 -191t-40 -202q0 -203 321 -203 v-70q-215 0 -309 67.5t-94 194.5q0 79 37 201.5t37 188.5q0 101 -76.5 157t-200.5 56z" />
<glyph unicode="|" d="M500 -471v2007h86v-2007h-86z" />
<glyph unicode="}" horiz-adv-x="942" d="M119 -258q321 0 321 203q0 80 -40 202t-40 191q0 100 70.5 168.5t169.5 77.5v14q-103 25 -171.5 89.5t-68.5 156.5q0 73 40 194.5t40 192.5q0 87 -87 130.5t-234 43.5v70q198 0 300.5 -59t102.5 -173q0 -82 -36.5 -199.5t-36.5 -189.5q0 -89 79 -152t197 -63v-102 q-124 0 -200 -55.5t-76 -157.5q0 -66 36.5 -188.5t36.5 -201.5q0 -127 -94 -194.5t-309 -67.5v70z" />
<glyph unicode="~" d="M76 416q0 159 77.5 251.5t186.5 92.5q55 0 105 -28t87 -68t71.5 -79.5t74.5 -67.5t80 -28q84 0 129 70.5t45 196.5h86q0 -150 -72.5 -247t-189.5 -97q-57 0 -107 27.5t-86 67t-69.5 79t-72.5 67t-81 27.5q-80 0 -129 -75.5t-49 -188.5h-86z" />
<glyph unicode="&#xa1;" horiz-adv-x="819" d="M330 1077q0 38 23.5 64t56.5 26q34 0 56.5 -26t22.5 -64q0 -37 -23 -63.5t-56 -26.5q-32 0 -56 26.5t-24 63.5zM367 -240l8 482l10 506h57l13 -504l14 -484h-102z" />
<glyph unicode="&#xa2;" horiz-adv-x="983" d="M166 655q0 116 34.5 213.5t92 160.5t127.5 99t145 41l23 226l67 -11l-22 -215q67 -6 116.5 -28.5t108.5 -67.5l-41 -69q-92 82 -190 90l-82 -820q12 -2 39 -2q127 0 229 88l31 -65q-50 -42 -124 -70t-149 -28h-34l-19 -197l-72 10l19 199q-134 34 -216.5 148.5 t-82.5 297.5zM252 659q0 -315 221 -374l84 809q-137 -15 -221 -133.5t-84 -301.5z" />
<glyph unicode="&#xa3;" horiz-adv-x="1126" d="M160 72q205 182 205 471q0 55 -15 143h-190v78h174q-1 4 -7.5 31t-8 33t-7 30t-7 32.5t-5.5 28.5t-5 31.5t-3.5 28.5t-3 31t-0.5 28q0 97 30 171.5t82 117.5t114.5 64.5t133.5 21.5q99 0 192.5 -34t143.5 -79l-41 -59l-6 -2q-136 94 -289 94q-118 0 -194 -73t-76 -224 q0 -25 2.5 -51.5t8 -57.5t9.5 -51t13 -58.5t12 -53.5h381v-78h-365q17 -80 17 -137q0 -292 -181 -457l11 -12q105 72 217 72q61 0 110.5 -21t97.5 -42t105 -21q89 0 170 57l8 -2l35 -72q-40 -34 -101 -52.5t-112 -18.5q-56 0 -109 21.5t-108 43t-117 21.5q-110 0 -260 -86z " />
<glyph unicode="&#xa4;" horiz-adv-x="1372" d="M222.5 947q1.5 17 12.5 31.5t25.5 26t30 13t26.5 -7.5l95 -97q125 97 274 97q151 0 268 -90l88 92q17 18 49.5 -1t50.5 -52t1 -50l-92 -88q88 -118 88 -264q0 -148 -97 -276l99 -95q18 -18 3.5 -49.5t-40.5 -44.5t-47 2l-103 103q-120 -93 -268 -93q-147 0 -264 84 l-86 -90q-18 -20 -52.5 -4t-49 44.5t1.5 51.5l90 89q-93 120 -93 278q0 146 93 270l-93 91q-12 12 -10.5 29zM336 555q0 -157 97 -257.5t255 -100.5q148 0 246 101.5t98 256.5q0 161 -97.5 260.5t-248.5 99.5q-163 0 -256.5 -101t-93.5 -259z" />
<glyph unicode="&#xa5;" horiz-adv-x="1290" d="M109 1358l67 45l469 -694h4l461 694l72 -45l-494 -737v-11h268v-78h-268v-133h268v-77h-268v-322h-86v322h-268v77h268v133h-268v78h268v11z" />
<glyph unicode="&#xa6;" d="M500 246h86v-717h-86v717zM500 819v717h86v-717h-86z" />
<glyph unicode="&#xa7;" horiz-adv-x="1351" d="M279 627q0 157 149 276q-73 47 -111 104.5t-38 135.5q0 46 22.5 92.5t65 87t114 65.5t158.5 25q193 0 350 -129l-45 -70q-132 119 -303 119q-132 0 -202 -59.5t-70 -128.5q0 -86 74.5 -145.5t299.5 -153.5q181 -75 260.5 -162t79.5 -190q0 -157 -170 -254 q87 -55 123.5 -115.5t36.5 -144.5q0 -85 -54.5 -154.5t-142 -107t-188.5 -37.5q-259 0 -393 124l43 74q131 -119 344 -119q139 0 218 66t79 164q0 48 -21 87t-67.5 73t-101 61t-142.5 63q-194 79 -281 159t-87 194zM369 631q0 -89 74 -149t243 -130q141 -62 160 -73 q143 76 143 204q0 95 -74.5 162.5t-267.5 149.5q-125 53 -160 73q-57 -42 -87.5 -104.5t-30.5 -132.5z" />
<glyph unicode="&#xa8;" horiz-adv-x="1024" d="M307 1044q0 29 18.5 50.5t43.5 21.5t43 -20t18 -52q0 -30 -18.5 -48.5t-42.5 -18.5q-25 0 -43.5 17.5t-18.5 49.5zM594 1044q0 29 18 50.5t43 21.5t43.5 -20.5t18.5 -51.5q0 -30 -19 -48.5t-43 -18.5q-25 0 -43 17.5t-18 49.5z" />
<glyph unicode="&#xa9;" horiz-adv-x="1802" d="M272 662q0 127 50.5 243t135 200.5t201.5 134.5t244 50q177 0 321.5 -85t225 -228.5t80.5 -314.5q0 -173 -78 -316.5t-222.5 -229t-326.5 -85.5q-172 0 -316 79.5t-229.5 225t-85.5 326.5zM342 657q0 -161 76 -290t204 -199t283 -70q238 0 396.5 157t158.5 402 q0 125 -44 232.5t-119.5 181t-177.5 115t-216 41.5q-150 0 -278 -72t-205.5 -203.5t-77.5 -294.5zM580 641v14q0 99 34.5 176.5t94.5 126.5q2 1 8.5 7t11.5 8l10 8l33 18l25 11q38 11 61 16q10 0 14 2h13q8 2 26 2h15q3 0 8 -1t8 -1q68 -6 131 -33l12 -4l17 -8l10 -6l18 -10 q5 -5 13 -9l8 -6q1 0 2 -1t2 -1l-37 -69q-3 1 -8.5 5.5t-9.5 6.5q-4 4 -8 4l-9 6q-30 19 -65 29l-19 6q-2 2 -6 2q-41 12 -84 12h-10q-1 0 -4.5 -1t-5.5 -1q-13 0 -37 -4q-42 -11 -64 -24l-16 -11l-14 -12l-23 -18l-20 -25l-17 -27l-14 -30q-16 -41 -22 -84v-13 q-3 -15 -3 -28v-15v-12q0 -12 3 -24q3 -34 16 -76q0 -2 4 -10q5 -15 16 -37l25 -33l6 -8q8 -11 29 -27q21 -17 41 -26l10 -5q6 -4 18 -8q27 -9 62 -12h10h12h19h14q2 0 6 1t6 1q11 0 31 4l29 6q16 5 20 8l17 7q2 1 8.5 4t11.5 4l39 22l18 15l39 -62l-4 -4l-26 -18l-17 -11 q-33 -18 -61 -28l-27 -8q-50 -16 -96 -19h-14h-15h-14q-30 0 -57 6l-13 4q-18 3 -39 13q-8 2 -24 10l-10 6q-20 10 -43 29q-48 36 -78 88l-13 22q-35 71 -38 160z" />
<glyph unicode="&#xaa;" horiz-adv-x="962" d="M117 647l358 766h10l361 -766l-74 -26l-90 194h-403l-89 -194zM309 885h340l-170 366h-2z" />
<glyph unicode="&#xab;" horiz-adv-x="1310" d="M174 459v18l465 463l49 -43l-393 -424v-4l393 -434l-49 -43zM604 459v18l465 463l49 -43l-393 -424v-4l393 -434l-49 -43z" />
<glyph unicode="&#xac;" d="M68 543v98h936v-535h-99v437h-837z" />
<glyph unicode="&#xad;" horiz-adv-x="880" d="M195 453v77h491v-77h-491z" />
<glyph unicode="&#xae;" horiz-adv-x="1331" d="M227 985q0 182 128 310t309 128q182 0 311 -128.5t129 -309.5q0 -183 -126 -309.5t-314 -126.5q-182 0 -309.5 127.5t-127.5 308.5zM293 985q0 -156 107.5 -266.5t265.5 -110.5q160 0 266 110.5t106 266.5q0 157 -107 268t-269 111q-155 0 -262 -112t-107 -267zM516 745 v510h150q73 0 120.5 -39.5t47.5 -107.5q0 -53 -33.5 -89t-91.5 -50l157 -207v-4l-55 -19l-168 224h-68v-218h-59zM575 1016h82q51 0 84 22t33 70q0 43 -31.5 68.5t-80.5 25.5h-87v-186z" />
<glyph unicode="&#xaf;" horiz-adv-x="1024" d="M262 958v74h500v-74h-500z" />
<glyph unicode="&#xb0;" horiz-adv-x="860" d="M158 1145q0 112 80.5 193t191.5 81q113 0 194 -81t81 -193q0 -111 -81.5 -192t-193.5 -81q-110 0 -191 81.5t-81 191.5zM248 1145q0 -81 51 -137t129 -56q79 0 134.5 56.5t55.5 136.5t-55.5 137t-134.5 57q-78 0 -129 -56.5t-51 -137.5z" />
<glyph unicode="&#xb1;" d="M88 111v82h909v-82h-909zM88 760v82h414v434h82v-434h413v-82h-413v-434h-82v434h-414z" />
<glyph unicode="&#xb2;" horiz-adv-x="696" d="M92 889q218 181 310 306t92 224q0 64 -42 99.5t-112 35.5q-102 0 -182 -63l-27 63q30 26 87.5 50t123.5 24q102 0 166.5 -51t64.5 -156q0 -217 -348 -491l2 -6h357v-74h-482z" />
<glyph unicode="&#xb3;" horiz-adv-x="696" d="M129 969q104 -58 195 -58q72 0 121 42t49 110q0 62 -40.5 106t-93.5 41l-129 -6l9 82h110q56 0 93.5 37t37.5 98q0 60 -40 96.5t-103 36.5q-82 0 -168 -53l6 80q76 47 158 47q106 0 165.5 -55.5t59.5 -147.5q0 -63 -36.5 -108.5t-90.5 -59.5v-10q64 -14 102.5 -67.5 t38.5 -114.5q0 -103 -71.5 -165t-186.5 -62q-103 0 -184 49z" />
<glyph unicode="&#xb4;" horiz-adv-x="1024" d="M440 958v7l207 325h101v-8l-254 -324h-54z" />
<glyph unicode="&#xb6;" horiz-adv-x="1495" d="M260 961q0 130 64 229.5t171 151t238 51.5h602v-78h-135v-1637h-86v1637h-201v-1637h-86v865h-92q-98 0 -180.5 23t-150 70.5t-106 130.5t-38.5 194zM350 963q0 -173 104 -257.5t281 -84.5h92v694h-96q-175 0 -278 -100t-103 -252z" />
<glyph unicode="&#xb7;" horiz-adv-x="737" d="M289 500q0 37 23 63.5t57 26.5q32 0 56 -26.5t24 -63.5q0 -38 -23.5 -64t-56.5 -26q-34 0 -57 26t-23 64z" />
<glyph unicode="&#xb8;" horiz-adv-x="1024" d="M399 -154l129 195h70l-102 -154q200 0 200 -127q0 -62 -66.5 -106t-174.5 -62l-19 52q189 30 189 108q0 80 -156 80q-33 0 -61 -4z" />
<glyph unicode="&#xb9;" horiz-adv-x="696" d="M164 1595l229 27l19 -12v-760h-80v690l-162 -18z" />
<glyph unicode="&#xba;" horiz-adv-x="1024" d="M121 1014q0 120 55.5 215t145 144.5t192.5 49.5q76 0 146 -29t124 -80.5t86.5 -129.5t32.5 -170q0 -103 -48.5 -192t-139 -144t-201.5 -55q-169 0 -281 112t-112 279zM205 1016q0 -133 85 -224.5t226 -91.5q133 0 218 94.5t85 221.5q0 142 -88.5 236t-218.5 94 q-128 0 -217.5 -90.5t-89.5 -239.5z" />
<glyph unicode="&#xbb;" horiz-adv-x="1310" d="M193 35l393 434v4l-393 424l49 43l465 -463v-18l-465 -467zM623 35l393 434v4l-393 424l49 43l465 -463v-18l-465 -467z" />
<glyph unicode="&#xbc;" horiz-adv-x="1617" d="M197 1391l229 26l18 -12v-760h-79v690l-162 -18zM272 -63l506 778l447 702l53 -33l-451 -696l-501 -788zM874 178l340 506h86v-479h93v-70h-93v-217h-75v217h-332zM975 211l4 -6h246v362h-11z" />
<glyph unicode="&#xbd;" horiz-adv-x="1617" d="M197 1391l229 26l18 -12v-760h-79v690l-162 -18zM272 -63l506 778l447 702l53 -33l-451 -696l-501 -788zM975 -43q218 181 309.5 306t91.5 224q0 64 -41.5 100t-111.5 36q-101 0 -183 -64l-26 64q30 26 87.5 49.5t123.5 23.5q102 0 166.5 -51t64.5 -156q0 -217 -348 -491 l2 -6h356v-74h-481z" />
<glyph unicode="&#xbe;" horiz-adv-x="1617" d="M162 764q102 -57 194 -57q72 0 121 41.5t49 109.5q0 63 -40 107t-93 41l-129 -7l8 82h111q56 0 93.5 37.5t37.5 98.5q0 60 -40 96.5t-103 36.5q-80 0 -168 -54l6 80q76 47 158 47q106 0 165.5 -55t59.5 -147q0 -63 -36.5 -108.5t-90.5 -59.5v-11q64 -14 102.5 -67.5 t38.5 -114.5q0 -103 -71.5 -165t-186.5 -62q-103 0 -184 49zM272 -63l506 778l447 702l53 -33l-451 -696l-501 -788zM874 178l340 506h86v-479h93v-70h-93v-217h-75v217h-332zM975 211l4 -6h246v362h-11z" />
<glyph unicode="&#xbf;" horiz-adv-x="1105" d="M199 129q0 73 26.5 136.5t70 108t101 78t118.5 52t124 24.5v211h86v-278q-436 -38 -436 -328q0 -136 86 -214.5t239 -78.5q149 0 240 51h8l-8 -84q-107 -47 -236 -47q-199 0 -309 101.5t-110 267.5zM602 1098q0 38 23.5 64t56.5 26q34 0 57 -26t23 -64q0 -37 -23 -63.5 t-57 -26.5q-32 0 -56 26.5t-24 63.5z" />
<glyph unicode="&#xc0;" horiz-adv-x="1495" d="M141 27l596 1398h21l596 -1398l-76 -41l-205 481h-651l-205 -481zM455 545h585l-288 682h-7zM512 1745v20h100l207 -254v-16h-53z" />
<glyph unicode="&#xc1;" horiz-adv-x="1495" d="M141 27l596 1398h21l596 -1398l-76 -41l-205 481h-651l-205 -481zM455 545h585l-288 682h-7zM676 1495v16l207 254h100v-20l-254 -250h-53z" />
<glyph unicode="&#xc2;" horiz-adv-x="1495" d="M141 27l596 1398h21l596 -1398l-76 -41l-205 481h-651l-205 -481zM455 545h585l-288 682h-7zM510 1495v16l197 254h77l197 -254v-16h-53l-183 197l-182 -197h-53z" />
<glyph unicode="&#xc3;" horiz-adv-x="1495" d="M141 27l596 1398h21l596 -1398l-76 -41l-205 481h-651l-205 -481zM455 545h585l-288 682h-7zM473 1550q0 104 47 165t115 61q31 0 58 -17t47 -41.5t39 -49t40 -41.5t43 -17q43 0 69.5 46.5t26.5 115.5h62q0 -102 -47 -164t-113 -62q-29 0 -55.5 17t-46 41t-38.5 48 t-40.5 41t-42.5 17q-50 0 -78.5 -44t-28.5 -116h-57z" />
<glyph unicode="&#xc4;" horiz-adv-x="1495" d="M141 27l596 1398h21l596 -1398l-76 -41l-205 481h-651l-205 -481zM455 545h585l-288 682h-7zM543 1602q0 29 18 50t43 21q26 0 44 -20t18 -51q0 -30 -19 -49t-43 -19q-25 0 -43 18t-18 50zM829 1602q0 29 18.5 50t43.5 21t43 -20t18 -51q0 -30 -19 -49t-42 -19 q-25 0 -43.5 18t-18.5 50z" />
<glyph unicode="&#xc5;" horiz-adv-x="1495" d="M141 27l596 1398h21l596 -1398l-76 -41l-205 481h-651l-205 -481zM455 545h585l-288 682h-7zM565 1688q0 75 54 128.5t129 53.5t128.5 -53.5t53.5 -128.5t-53.5 -129t-128.5 -54t-129 54t-54 129zM631 1688q0 -58 31 -90.5t83 -32.5q50 0 83.5 34t33.5 89t-33.5 88.5 t-83.5 33.5q-51 0 -82.5 -34.5t-31.5 -87.5z" />
<glyph unicode="&#xc6;" horiz-adv-x="2007" d="M121 33l923 1360h738v-78h-645v-551h583v-78h-583v-608h665v-78h-751v467h-539l-326 -481zM563 545h488v712h-4z" />
<glyph unicode="&#xc7;" horiz-adv-x="1474" d="M190 674q0 137 36 256t99 206.5t148 150.5t185 94.5t208 31.5q245 0 432 -153l-41 -70q-75 64 -178.5 104t-216.5 39q-117 -2 -221.5 -46.5t-185 -125.5t-127.5 -205t-47 -274q0 -180 72.5 -321.5t206.5 -221.5t306 -80q228 0 416 148l39 -66q-74 -66 -194 -111.5 t-244 -49.5l-62 -93q201 0 201 -127q0 -62 -67 -106t-175 -62l-18 52q88 14 138 41.5t50 66.5q0 80 -155 80q-34 0 -62 -4l-8 18l88 136q-183 11 -325 102.5t-220 245t-78 344.5z" />
<glyph unicode="&#xc8;" horiz-adv-x="1228" d="M272 0v1393h732v-78h-646v-551h584v-78h-584v-608h666v-78h-752zM412 1745v20h100l207 -254v-16h-53z" />
<glyph unicode="&#xc9;" horiz-adv-x="1228" d="M272 0v1393h732v-78h-646v-551h584v-78h-584v-608h666v-78h-752zM575 1495v16l207 254h101v-20l-254 -250h-54z" />
<glyph unicode="&#xca;" horiz-adv-x="1228" d="M272 0v1393h732v-78h-646v-551h584v-78h-584v-608h666v-78h-752zM410 1495v16l196 254h78l197 -254v-16h-54l-182 197l-182 -197h-53z" />
<glyph unicode="&#xcb;" horiz-adv-x="1228" d="M272 0v1393h732v-78h-646v-551h584v-78h-584v-608h666v-78h-752zM442 1602q0 29 18.5 50t43.5 21t43 -20t18 -51q0 -30 -18.5 -49t-42.5 -19q-25 0 -43.5 18t-18.5 50zM729 1602q0 29 18.5 50t43.5 21t43 -20t18 -51q0 -30 -19 -49t-42 -19q-25 0 -43.5 18t-18.5 50z" />
<glyph unicode="&#xcc;" horiz-adv-x="716" d="M123 1745v20h100l207 -254v-16h-53zM315 0v1393h86v-1393h-86z" />
<glyph unicode="&#xcd;" horiz-adv-x="716" d="M287 1495v16l207 254h100v-20l-254 -250h-53zM315 0v1393h86v-1393h-86z" />
<glyph unicode="&#xce;" horiz-adv-x="716" d="M121 1495v16l196 254h78l197 -254v-16h-53l-183 197l-182 -197h-53zM315 0v1393h86v-1393h-86z" />
<glyph unicode="&#xcf;" horiz-adv-x="716" d="M154 1602q0 29 18 50t43 21t43 -20t18 -51q0 -30 -19 -49t-42 -19q-25 0 -43 18t-18 50zM315 0v1393h86v-1393h-86zM440 1602q0 29 18.5 50t43.5 21t43 -20t18 -51q0 -30 -18.5 -49t-42.5 -19q-25 0 -43.5 18t-18.5 50z" />
<glyph unicode="&#xd0;" horiz-adv-x="1515" d="M111 662v73h161v658h361q146 0 273 -50.5t219.5 -141t146 -224.5t53.5 -293q0 -207 -89 -363.5t-245 -238.5t-356 -82h-363v662h-161zM358 78h285q275 0 433.5 167.5t158.5 442.5q0 129 -35 236t-92.5 178t-135 120t-160.5 71t-171 22h-283v-580h342v-73h-342v-584z" />
<glyph unicode="&#xd1;" horiz-adv-x="1699" d="M272 0v1391l50 16l1011 -1239l8 4v1221h86v-1393l-49 -14l-1011 1237l-9 -4v-1219h-86zM575 1550q0 104 47 165t115 61q37 0 71 -26t55 -57t48.5 -57t53.5 -26q43 0 69.5 46.5t26.5 115.5h61q0 -102 -46.5 -164t-112.5 -62q-29 0 -55.5 17t-46.5 41t-39 48t-40.5 41 t-42.5 17q-50 0 -78 -44t-28 -116h-58z" />
<glyph unicode="&#xd2;" horiz-adv-x="1699" d="M190 686q0 160 55.5 298.5t148 231t212 145t246.5 52.5q131 0 250 -51.5t209.5 -144t144 -230.5t53.5 -301q0 -143 -47.5 -272t-131.5 -225t-208.5 -152.5t-269.5 -56.5q-146 0 -270.5 55t-210 150t-133.5 225t-48 276zM281 690q0 -172 66.5 -314t198.5 -229.5t306 -87.5 q127 0 235 51t180 137t112 201t40 242q0 280 -159.5 461.5t-407.5 181.5q-114 0 -217.5 -46t-182 -127.5t-125 -204t-46.5 -265.5zM614 1745v20h101l207 -254v-16h-54z" />
<glyph unicode="&#xd3;" horiz-adv-x="1699" d="M190 686q0 160 55.5 298.5t148 231t212 145t246.5 52.5q131 0 250 -51.5t209.5 -144t144 -230.5t53.5 -301q0 -143 -47.5 -272t-131.5 -225t-208.5 -152.5t-269.5 -56.5q-146 0 -270.5 55t-210 150t-133.5 225t-48 276zM281 690q0 -172 66.5 -314t198.5 -229.5t306 -87.5 q127 0 235 51t180 137t112 201t40 242q0 280 -159.5 461.5t-407.5 181.5q-114 0 -217.5 -46t-182 -127.5t-125 -204t-46.5 -265.5zM778 1495v16l207 254h100v-20l-254 -250h-53z" />
<glyph unicode="&#xd4;" horiz-adv-x="1699" d="M190 686q0 160 55.5 298.5t148 231t212 145t246.5 52.5q131 0 250 -51.5t209.5 -144t144 -230.5t53.5 -301q0 -143 -47.5 -272t-131.5 -225t-208.5 -152.5t-269.5 -56.5q-146 0 -270.5 55t-210 150t-133.5 225t-48 276zM281 690q0 -172 66.5 -314t198.5 -229.5t306 -87.5 q127 0 235 51t180 137t112 201t40 242q0 280 -159.5 461.5t-407.5 181.5q-114 0 -217.5 -46t-182 -127.5t-125 -204t-46.5 -265.5zM612 1495v16l197 254h78l196 -254v-16h-53l-182 197l-182 -197h-54z" />
<glyph unicode="&#xd5;" horiz-adv-x="1699" d="M190 686q0 160 55.5 298.5t148 231t212 145t246.5 52.5q131 0 250 -51.5t209.5 -144t144 -230.5t53.5 -301q0 -143 -47.5 -272t-131.5 -225t-208.5 -152.5t-269.5 -56.5q-146 0 -270.5 55t-210 150t-133.5 225t-48 276zM281 690q0 -172 66.5 -314t198.5 -229.5t306 -87.5 q127 0 235 51t180 137t112 201t40 242q0 280 -159.5 461.5t-407.5 181.5q-114 0 -217.5 -46t-182 -127.5t-125 -204t-46.5 -265.5zM575 1550q0 104 47 165t115 61q37 0 71 -26t55 -57t48.5 -57t53.5 -26q43 0 69.5 46.5t26.5 115.5h61q0 -102 -46.5 -164t-112.5 -62 q-29 0 -55.5 17t-46.5 41t-39 48t-40.5 41t-42.5 17q-50 0 -78 -44t-28 -116h-58z" />
<glyph unicode="&#xd6;" horiz-adv-x="1699" d="M190 686q0 160 55.5 298.5t148 231t212 145t246.5 52.5q131 0 250 -51.5t209.5 -144t144 -230.5t53.5 -301q0 -143 -47.5 -272t-131.5 -225t-208.5 -152.5t-269.5 -56.5q-146 0 -270.5 55t-210 150t-133.5 225t-48 276zM281 690q0 -172 66.5 -314t198.5 -229.5t306 -87.5 q127 0 235 51t180 137t112 201t40 242q0 280 -159.5 461.5t-407.5 181.5q-114 0 -217.5 -46t-182 -127.5t-125 -204t-46.5 -265.5zM645 1602q0 29 18.5 50t43.5 21t43 -20t18 -51q0 -30 -19 -49t-42 -19q-25 0 -43.5 18t-18.5 50zM932 1602q0 29 18 50t43 21q26 0 44 -20 t18 -51q0 -30 -19 -49t-43 -19q-25 0 -43 18t-18 50z" />
<glyph unicode="&#xd7;" d="M158 279l327 327l-327 328l57 57l328 -327l327 327l58 -57l-328 -328l328 -327l-58 -58l-327 328l-328 -328z" />
<glyph unicode="&#xd8;" horiz-adv-x="1699" d="M190 686q0 160 55.5 298.5t148 231t212 145t246.5 52.5q235 0 412 -151l159 204l56 -41l-166 -211q93 -96 144.5 -231t51.5 -297q0 -143 -47.5 -272t-131.5 -225t-208.5 -152.5t-269.5 -56.5q-235 0 -406 135l-167 -215l-56 41l172 219q-98 98 -151.5 233.5t-53.5 292.5z M281 690q0 -136 43.5 -256t124.5 -207l763 971q-148 135 -360 135q-114 0 -217.5 -46t-182 -127.5t-125 -204t-46.5 -265.5zM498 180q146 -121 354 -121q127 0 235 51t180 137t112 201t40 242q0 136 -41 254.5t-116 204.5z" />
<glyph unicode="&#xd9;" horiz-adv-x="1576" d="M272 506v887h86v-873q0 -238 114 -350.5t316 -112.5q199 0 315 112t116 351v873h86v-887q0 -109 -31.5 -202.5t-93 -167t-162 -115t-230.5 -41.5q-114 0 -203.5 28t-147.5 76t-95.5 116t-53.5 143t-16 163zM553 1745v20h100l207 -254v-16h-53z" />
<glyph unicode="&#xda;" horiz-adv-x="1576" d="M272 506v887h86v-873q0 -238 114 -350.5t316 -112.5q199 0 315 112t116 351v873h86v-887q0 -109 -31.5 -202.5t-93 -167t-162 -115t-230.5 -41.5q-114 0 -203.5 28t-147.5 76t-95.5 116t-53.5 143t-16 163zM717 1495v16l207 254h100v-20l-254 -250h-53z" />
<glyph unicode="&#xdb;" horiz-adv-x="1576" d="M272 506v887h86v-873q0 -238 114 -350.5t316 -112.5q199 0 315 112t116 351v873h86v-887q0 -109 -31.5 -202.5t-93 -167t-162 -115t-230.5 -41.5q-114 0 -203.5 28t-147.5 76t-95.5 116t-53.5 143t-16 163zM551 1495v16l197 254h77l197 -254v-16h-53l-183 197l-182 -197 h-53z" />
<glyph unicode="&#xdc;" horiz-adv-x="1576" d="M272 506v887h86v-873q0 -238 114 -350.5t316 -112.5q199 0 315 112t116 351v873h86v-887q0 -109 -31.5 -202.5t-93 -167t-162 -115t-230.5 -41.5q-114 0 -203.5 28t-147.5 76t-95.5 116t-53.5 143t-16 163zM584 1602q0 29 18 50t43 21q26 0 44 -20t18 -51q0 -30 -19 -49 t-43 -19q-25 0 -43 18t-18 50zM870 1602q0 29 18.5 50t43.5 21t43 -20t18 -51q0 -30 -18.5 -49t-42.5 -19q-25 0 -43.5 18t-18.5 50z" />
<glyph unicode="&#xdd;" horiz-adv-x="1372" d="M150 1358l67 45l469 -694h4l461 694l72 -45l-494 -737v-621h-86v621zM614 1495v16l207 254h101v-20l-254 -250h-54z" />
<glyph unicode="&#xde;" horiz-adv-x="1187" d="M272 0v1393h86v-287h248q193 0 312.5 -106t119.5 -285q0 -93 -35.5 -167.5t-96.5 -122t-139.5 -72.5t-168.5 -25h-240v-328h-86zM358 406h240q67 0 127 17t111 52t81.5 95.5t30.5 140.5q0 144 -95 230.5t-245 86.5h-250v-622z" />
<glyph unicode="&#xdf;" horiz-adv-x="1269" d="M223 0v864q45 70 147 125t236 55q153 0 246.5 -71t93.5 -166q0 -50 -22 -89t-53 -63t-62.5 -44.5t-53.5 -45t-22 -53.5q0 -31 30 -55t74.5 -38.5t96.5 -34.5t96.5 -42t74.5 -62.5t30 -93.5q0 -69 -46.5 -117t-115 -68.5t-150.5 -20.5q-95 0 -171 24t-107 57l39 68 q89 -74 241 -74q110 0 167 37t57 94q0 45 -41.5 76.5t-100.5 51.5t-118 41.5t-100.5 59t-41.5 91.5q0 42 22 75.5t53.5 55t62.5 43t53 51.5t22 68q0 69 -75.5 119.5t-178.5 50.5q-108 0 -195 -46t-106 -98v-825h-82z" />
<glyph unicode="&#xe0;" horiz-adv-x="1167" d="M111 27l462 1007h21l463 -1007l-72 -37l-137 297h-531l-135 -297zM348 1470v9h101l206 -326v-6h-53zM350 360h465l-231 504h-4z" />
<glyph unicode="&#xe1;" horiz-adv-x="1167" d="M111 27l462 1007h21l463 -1007l-72 -37l-137 297h-531l-135 -297zM350 360h465l-231 504h-4zM512 1147v6l207 326h100v-9l-254 -323h-53z" />
<glyph unicode="&#xe2;" horiz-adv-x="1167" d="M111 27l462 1007h21l463 -1007l-72 -37l-137 297h-531l-135 -297zM346 1147v12l197 320h78l196 -320v-12h-53l-182 258l-183 -258h-53zM350 360h465l-231 504h-4z" />
<glyph unicode="&#xe3;" horiz-adv-x="1167" d="M111 27l462 1007h21l463 -1007l-72 -37l-137 297h-531l-135 -297zM309 1182q0 104 47 164.5t115 60.5q31 0 58 -17t47 -41.5t39 -49t40 -41.5t43 -17q43 0 70 46.5t27 115.5h61q0 -102 -47 -163.5t-113 -61.5q-35 0 -67.5 25.5t-53.5 56t-48.5 56t-53.5 25.5 q-50 0 -78 -43.5t-28 -115.5h-58zM350 360h465l-231 504h-4z" />
<glyph unicode="&#xe4;" horiz-adv-x="1167" d="M111 27l462 1007h21l463 -1007l-72 -37l-137 297h-531l-135 -297zM350 360h465l-231 504h-4zM379 1233q0 29 18 50.5t43 21.5t43.5 -20.5t18.5 -51.5q0 -30 -19 -49t-43 -19q-25 0 -43 18t-18 50zM666 1233q0 29 18 50.5t43 21.5t43 -20t18 -52q0 -31 -19 -49.5 t-42 -18.5q-25 0 -43 18t-18 50z" />
<glyph unicode="&#xe5;" horiz-adv-x="1167" d="M111 27l462 1007h21l463 -1007l-72 -37l-137 297h-531l-135 -297zM350 360h465l-231 504h-4zM401 1319q0 75 54 128.5t129 53.5t128.5 -53.5t53.5 -128.5t-53.5 -128.5t-128.5 -53.5t-129 53.5t-54 128.5zM467 1319q0 -58 31.5 -90.5t83.5 -32.5q50 0 83 34t33 89t-33 89 t-83 34q-51 0 -83 -35t-32 -88z" />
<glyph unicode="&#xe6;" horiz-adv-x="1638" d="M90 27l707 997h653v-74h-571v-391h510v-74h-510v-411h591v-74h-673v287h-430l-209 -297zM418 360h379v537z" />
<glyph unicode="&#xe7;" horiz-adv-x="1167" d="M141 500q0 124 44.5 228.5t119 172.5t169.5 105.5t198 37.5q201 0 344 -108l-39 -66q-68 49 -136.5 74.5t-172.5 24.5q-64 -1 -126 -19t-119.5 -56t-100.5 -91.5t-69 -130.5t-26 -168q0 -196 125.5 -322.5t319.5 -126.5q177 0 325 109l37 -62q-150 -113 -342 -122 l-61 -93q200 0 200 -127q0 -62 -66.5 -106t-174.5 -62l-19 52q189 30 189 108q0 80 -156 80q-33 0 -61 -4l-8 18l88 136q-213 15 -347.5 162.5t-134.5 355.5z" />
<glyph unicode="&#xe8;" horiz-adv-x="1064" d="M223 0v1024h654v-74h-572v-391h510v-74h-510v-411h592v-74h-674zM313 1470v9h101l207 -326v-6h-54z" />
<glyph unicode="&#xe9;" horiz-adv-x="1064" d="M223 0v1024h654v-74h-572v-391h510v-74h-510v-411h592v-74h-674zM477 1147v6l207 326h100v-9l-254 -323h-53z" />
<glyph unicode="&#xea;" horiz-adv-x="1064" d="M223 0v1024h654v-74h-572v-391h510v-74h-510v-411h592v-74h-674zM311 1147v12l197 320h78l196 -320v-12h-53l-182 258l-182 -258h-54z" />
<glyph unicode="&#xeb;" horiz-adv-x="1064" d="M223 0v1024h654v-74h-572v-391h510v-74h-510v-411h592v-74h-674zM344 1233q0 29 18.5 50.5t43.5 21.5t43 -20t18 -52q0 -31 -18.5 -49.5t-42.5 -18.5q-25 0 -43.5 18t-18.5 50zM631 1233q0 29 18 50.5t43 21.5t43.5 -20.5t18.5 -51.5q0 -30 -19 -49t-43 -19q-25 0 -43 18 t-18 50z" />
<glyph unicode="&#xec;" horiz-adv-x="634" d="M84 1491v8h100l207 -325v-7h-53zM276 0v1024h82v-1024h-82z" />
<glyph unicode="&#xed;" horiz-adv-x="634" d="M248 1167v7l207 325h100v-8l-254 -324h-53zM276 0v1024h82v-1024h-82z" />
<glyph unicode="&#xee;" horiz-adv-x="634" d="M82 1167v13l197 319h77l197 -319v-13h-53l-183 258l-182 -258h-53zM276 0v1024h82v-1024h-82z" />
<glyph unicode="&#xef;" horiz-adv-x="634" d="M115 1253q0 29 18 50.5t43 21.5t43.5 -20.5t18.5 -51.5q0 -30 -19 -48.5t-43 -18.5q-25 0 -43 17.5t-18 49.5zM276 0v1024h82v-1024h-82zM401 1253q0 29 18.5 50.5t43.5 21.5t43 -20t18 -52q0 -30 -18.5 -48.5t-42.5 -18.5q-25 0 -43.5 17.5t-18.5 49.5z" />
<glyph unicode="&#xf0;" horiz-adv-x="1187" d="M102 465v74h121v485h307q145 0 267 -63t196 -181t74 -266q0 -243 -145.5 -378.5t-389.5 -135.5h-309v465h-121zM305 74h246q200 0 315 116.5t115 321.5q0 199 -129.5 318.5t-319.5 119.5h-227v-411h268v-74h-268v-391z" />
<glyph unicode="&#xf1;" horiz-adv-x="1331" d="M223 0v1024l47 10l750 -882l6 4v868h82v-1024l-47 -10l-750 880l-6 -2v-868h-82zM391 1182q0 104 47 164.5t115 60.5q31 0 58 -17t47 -41.5t39 -49t40 -41.5t43 -17q43 0 70 46.5t27 115.5h61q0 -102 -47 -163.5t-113 -61.5q-35 0 -67.5 25.5t-53.5 56t-48.5 56 t-53.5 25.5q-50 0 -78 -43.5t-28 -115.5h-58z" />
<glyph unicode="&#xf2;" horiz-adv-x="1331" d="M141 500q0 158 73 284t192.5 193t261.5 67q139 0 257 -65t191.5 -191t73.5 -288q0 -142 -66.5 -260.5t-187 -189t-268.5 -70.5q-150 0 -271.5 71t-188.5 189.5t-67 259.5zM227 504q0 -90 30.5 -171t86 -143t141 -98.5t187.5 -36.5q129 0 229 63t151.5 164.5t51.5 221.5 q0 204 -124.5 334.5t-313.5 130.5q-117 0 -216.5 -56t-161 -163.5t-61.5 -245.5zM430 1470v9h100l207 -326v-6h-53z" />
<glyph unicode="&#xf3;" horiz-adv-x="1331" d="M141 500q0 158 73 284t192.5 193t261.5 67q139 0 257 -65t191.5 -191t73.5 -288q0 -142 -66.5 -260.5t-187 -189t-268.5 -70.5q-150 0 -271.5 71t-188.5 189.5t-67 259.5zM227 504q0 -90 30.5 -171t86 -143t141 -98.5t187.5 -36.5q129 0 229 63t151.5 164.5t51.5 221.5 q0 204 -124.5 334.5t-313.5 130.5q-117 0 -216.5 -56t-161 -163.5t-61.5 -245.5zM594 1147v6l207 326h100v-9l-254 -323h-53z" />
<glyph unicode="&#xf4;" horiz-adv-x="1331" d="M141 500q0 158 73 284t192.5 193t261.5 67q139 0 257 -65t191.5 -191t73.5 -288q0 -142 -66.5 -260.5t-187 -189t-268.5 -70.5q-150 0 -271.5 71t-188.5 189.5t-67 259.5zM227 504q0 -90 30.5 -171t86 -143t141 -98.5t187.5 -36.5q129 0 229 63t151.5 164.5t51.5 221.5 q0 204 -124.5 334.5t-313.5 130.5q-117 0 -216.5 -56t-161 -163.5t-61.5 -245.5zM428 1147v12l197 320h77l197 -320v-12h-53l-182 258l-183 -258h-53z" />
<glyph unicode="&#xf5;" horiz-adv-x="1331" d="M141 500q0 158 73 284t192.5 193t261.5 67q139 0 257 -65t191.5 -191t73.5 -288q0 -142 -66.5 -260.5t-187 -189t-268.5 -70.5q-150 0 -271.5 71t-188.5 189.5t-67 259.5zM227 504q0 -90 30.5 -171t86 -143t141 -98.5t187.5 -36.5q129 0 229 63t151.5 164.5t51.5 221.5 q0 204 -124.5 334.5t-313.5 130.5q-117 0 -216.5 -56t-161 -163.5t-61.5 -245.5zM391 1182q0 104 47 164.5t115 60.5q31 0 58 -17t47 -41.5t39 -49t40 -41.5t43 -17q43 0 70 46.5t27 115.5h61q0 -102 -47 -163.5t-113 -61.5q-35 0 -67.5 25.5t-53.5 56t-48.5 56t-53.5 25.5 q-50 0 -78 -43.5t-28 -115.5h-58z" />
<glyph unicode="&#xf6;" horiz-adv-x="1331" d="M141 500q0 158 73 284t192.5 193t261.5 67q139 0 257 -65t191.5 -191t73.5 -288q0 -142 -66.5 -260.5t-187 -189t-268.5 -70.5q-150 0 -271.5 71t-188.5 189.5t-67 259.5zM227 504q0 -90 30.5 -171t86 -143t141 -98.5t187.5 -36.5q129 0 229 63t151.5 164.5t51.5 221.5 q0 204 -124.5 334.5t-313.5 130.5q-117 0 -216.5 -56t-161 -163.5t-61.5 -245.5zM461 1233q0 29 18 50.5t43 21.5t43.5 -20.5t18.5 -51.5q0 -30 -19 -49t-43 -19q-25 0 -43 18t-18 50zM748 1233q0 29 18 50.5t43 21.5t43 -20t18 -52q0 -31 -19 -49.5t-42 -18.5q-25 0 -43 18 t-18 50z" />
<glyph unicode="&#xf7;" d="M88 575v82h909v-82h-909zM455 281q0 37 25.5 62.5t62.5 25.5t62.5 -25.5t25.5 -62.5t-25.5 -62.5t-62.5 -25.5t-62.5 25.5t-25.5 62.5zM455 952q0 37 25.5 62.5t62.5 25.5t62.5 -25.5t25.5 -62.5t-25.5 -62.5t-62.5 -25.5t-62.5 25.5t-25.5 62.5z" />
<glyph unicode="&#xf8;" horiz-adv-x="1331" d="M141 500q0 158 73 284t192.5 193t261.5 67q196 0 336 -122l112 120l53 -45l-116 -123q137 -153 137 -374q0 -142 -66.5 -260.5t-187 -189t-268.5 -70.5q-196 0 -340 118l-127 -137l-54 45l132 139q-138 144 -138 355zM227 504q0 -177 105 -301l618 661q-121 105 -284 105 q-117 0 -216.5 -56t-161 -163.5t-61.5 -245.5zM381 154q120 -99 291 -99q129 0 229 63t151.5 164.5t51.5 221.5q0 184 -105 311z" />
<glyph unicode="&#xf9;" horiz-adv-x="1290" d="M223 414v610h82v-596q0 -194 90 -283.5t250 -89.5q156 0 248 90.5t92 282.5v596h82v-610q0 -89 -25 -165.5t-74.5 -137.5t-132.5 -96t-190 -35q-94 0 -168 24.5t-121 65.5t-77.5 98t-43 117.5t-12.5 128.5zM410 1470v9h100l207 -326v-6h-53z" />
<glyph unicode="&#xfa;" horiz-adv-x="1290" d="M223 414v610h82v-596q0 -194 90 -283.5t250 -89.5q156 0 248 90.5t92 282.5v596h82v-610q0 -89 -25 -165.5t-74.5 -137.5t-132.5 -96t-190 -35q-94 0 -168 24.5t-121 65.5t-77.5 98t-43 117.5t-12.5 128.5zM573 1147v6l207 326h101v-9l-254 -323h-54z" />
<glyph unicode="&#xfb;" horiz-adv-x="1290" d="M223 414v610h82v-596q0 -194 90 -283.5t250 -89.5q156 0 248 90.5t92 282.5v596h82v-610q0 -89 -25 -165.5t-74.5 -137.5t-132.5 -96t-190 -35q-94 0 -168 24.5t-121 65.5t-77.5 98t-43 117.5t-12.5 128.5zM408 1147v12l196 320h78l197 -320v-12h-54l-182 258l-182 -258 h-53z" />
<glyph unicode="&#xfc;" horiz-adv-x="1290" d="M223 414v610h82v-596q0 -194 90 -283.5t250 -89.5q156 0 248 90.5t92 282.5v596h82v-610q0 -89 -25 -165.5t-74.5 -137.5t-132.5 -96t-190 -35q-94 0 -168 24.5t-121 65.5t-77.5 98t-43 117.5t-12.5 128.5zM440 1233q0 29 18.5 50.5t43.5 21.5t43 -20t18 -52 q0 -31 -18.5 -49.5t-42.5 -18.5q-25 0 -43.5 18t-18.5 50zM727 1233q0 29 18 50.5t43 21.5t43.5 -20.5t18.5 -51.5q0 -30 -19 -49t-43 -19q-25 0 -43 18t-18 50z" />
<glyph unicode="&#xfd;" d="M102 1004l68 40l371 -546h8l366 546l68 -40l-399 -588v-416h-82v416zM471 1147v6l207 326h100v-9l-254 -323h-53z" />
<glyph unicode="&#xfe;" horiz-adv-x="1024" d="M223 0v1024h82v-215h250q155 0 251.5 -79.5t96.5 -213.5q0 -132 -93 -214.5t-263 -82.5h-242v-219h-82zM305 293h248q123 0 193.5 56t70.5 159q0 111 -69 169t-187 58h-256v-442z" />
<glyph unicode="&#xff;" d="M102 1004l68 40l371 -546h8l366 546l68 -40l-399 -588v-416h-82v416zM338 1233q0 29 18 50.5t43 21.5t43.5 -20.5t18.5 -51.5q0 -30 -19 -49t-43 -19q-25 0 -43 18t-18 50zM625 1233q0 29 18 50.5t43 21.5t43.5 -20.5t18.5 -51.5q0 -30 -19 -49t-43 -19q-25 0 -43 18 t-18 50z" />
<glyph unicode="&#x152;" horiz-adv-x="2048" d="M190 686q0 160 57 298.5t152 231t218 145t255 52.5q121 0 224 -20h727v-78h-645v-551h583v-78h-583v-608h665v-78h-751q-97 -20 -220 -20q-200 0 -357 94.5t-241 255t-84 356.5zM281 690q0 -128 40.5 -242t114.5 -201t187 -137.5t249 -50.5q121 0 220 27v1223 q-93 24 -220 24q-118 0 -225 -46t-188.5 -127.5t-129.5 -204t-48 -265.5z" />
<glyph unicode="&#x153;" horiz-adv-x="1699" d="M141 500q0 159 74 284.5t196 192.5t267 67q87 0 182 -20h651v-74h-571v-391h510v-74h-510v-411h592v-74h-670q-81 -20 -184 -20q-115 0 -215.5 41.5t-170.5 112t-110.5 166t-40.5 200.5zM227 504q0 -121 53 -222t158 -164t244 -63q96 0 176 21v868q-98 25 -182 25 q-121 0 -222.5 -56t-164 -163.5t-62.5 -245.5z" />
<glyph unicode="&#x178;" horiz-adv-x="1372" d="M150 1358l67 45l469 -694h4l461 694l72 -45l-494 -737v-621h-86v621zM481 1602q0 29 18.5 50t43.5 21t43 -20t18 -51q0 -30 -19 -49t-42 -19q-25 0 -43.5 18t-18.5 50zM768 1602q0 29 18 50t43 21q26 0 44 -20t18 -51q0 -30 -19 -49t-43 -19q-25 0 -43 18t-18 50z" />
<glyph unicode="&#x2c6;" horiz-adv-x="1024" d="M274 958v13l197 319h78l196 -319v-13h-53l-182 259l-182 -259h-54z" />
<glyph unicode="&#x2dc;" horiz-adv-x="1024" d="M238 993q0 105 46.5 165.5t114.5 60.5q37 0 71 -26t55 -57t48.5 -57t53.5 -26q43 0 69.5 46t26.5 115h61q0 -102 -46.5 -163.5t-112.5 -61.5q-29 0 -55.5 17t-46.5 41t-39 48t-40.5 41t-42.5 17q-50 0 -78 -44t-28 -116h-57z" />
<glyph unicode="&#x2000;" horiz-adv-x="935" />
<glyph unicode="&#x2001;" horiz-adv-x="1870" />
<glyph unicode="&#x2002;" horiz-adv-x="935" />
<glyph unicode="&#x2003;" horiz-adv-x="1870" />
<glyph unicode="&#x2004;" horiz-adv-x="623" />
<glyph unicode="&#x2005;" horiz-adv-x="467" />
<glyph unicode="&#x2006;" horiz-adv-x="311" />
<glyph unicode="&#x2007;" horiz-adv-x="311" />
<glyph unicode="&#x2008;" horiz-adv-x="233" />
<glyph unicode="&#x2009;" horiz-adv-x="374" />
<glyph unicode="&#x200a;" horiz-adv-x="103" />
<glyph unicode="&#x2010;" horiz-adv-x="880" d="M195 453v77h491v-77h-491z" />
<glyph unicode="&#x2011;" horiz-adv-x="880" d="M195 453v77h491v-77h-491z" />
<glyph unicode="&#x2012;" horiz-adv-x="880" d="M195 453v77h491v-77h-491z" />
<glyph unicode="&#x2013;" horiz-adv-x="1167" d="M195 453v77h778v-77h-778z" />
<glyph unicode="&#x2014;" horiz-adv-x="2232" d="M281 453v77h1671v-77h-1671z" />
<glyph unicode="&#x2018;" horiz-adv-x="614" d="M168 889v12q99 267 248 492h59v-4q-151 -305 -211 -500h-96z" />
<glyph unicode="&#x2019;" horiz-adv-x="614" d="M139 889v4q151 305 211 500h96v-13q-99 -268 -247 -491h-60z" />
<glyph unicode="&#x201a;" horiz-adv-x="614" d="M139 -264q151 305 211 500h96v-13q-99 -268 -247 -491h-60v4z" />
<glyph unicode="&#x201c;" horiz-adv-x="1003" d="M168 889v12q99 267 248 492h59v-4q-151 -305 -211 -500h-96zM557 889v12q99 267 248 492h59v-4q-151 -305 -211 -500h-96z" />
<glyph unicode="&#x201d;" horiz-adv-x="1003" d="M139 889v4q151 305 211 500h96v-13q-99 -268 -247 -491h-60zM528 889v4q151 305 211 500h97v-13q-98 -265 -248 -491h-60z" />
<glyph unicode="&#x201e;" horiz-adv-x="1003" d="M139 -264q151 305 211 500h96v-13q-99 -268 -247 -491h-60v4zM528 -264q151 305 211 500h97v-13q-98 -265 -248 -491h-60v4z" />
<glyph unicode="&#x2022;" horiz-adv-x="1167" d="M360 541q0 92 66 157.5t158 65.5t157.5 -65.5t65.5 -157.5t-65.5 -158t-157.5 -66t-158 66t-66 158z" />
<glyph unicode="&#x2026;" horiz-adv-x="2048" d="M289 76q0 37 23 63.5t57 26.5q32 0 56 -26.5t24 -63.5q0 -38 -23.5 -64t-56.5 -26q-34 0 -57 26t-23 64zM944 76q0 37 23 63.5t57 26.5q32 0 56 -26.5t24 -63.5q0 -38 -23.5 -64t-56.5 -26q-34 0 -57 26t-23 64zM1599 76q0 37 23 63.5t57 26.5q32 0 56 -26.5t24 -63.5 q0 -38 -23.5 -64t-56.5 -26q-34 0 -57 26t-23 64z" />
<glyph unicode="&#x202f;" horiz-adv-x="374" />
<glyph unicode="&#x2039;" horiz-adv-x="880" d="M174 459v18l465 463l49 -43l-393 -424v-4l393 -434l-49 -43z" />
<glyph unicode="&#x203a;" horiz-adv-x="880" d="M193 35l393 434v4l-393 424l49 43l465 -463v-18l-465 -467z" />
<glyph unicode="&#x205f;" horiz-adv-x="467" />
<glyph unicode="&#x20ac;" horiz-adv-x="1351" d="M135 547l21 78h108q-2 16 -2 49q0 55 2 84h-129l21 78h118q22 141 85 254t149.5 182t186 105t202.5 36q176 0 301 -70l-24 -75q-132 67 -279 65q-88 -1 -172 -32.5t-157 -91.5t-126.5 -156.5t-74.5 -216.5h700l-21 -78h-690q-2 -25 -2 -76q0 -39 2 -57h656l-21 -78h-627 q37 -221 181.5 -354.5t355.5 -133.5q160 0 289 76l31 -76q-61 -36 -148 -57.5t-178 -21.5q-235 0 -409 158t-214 409h-135z" />
<glyph unicode="&#x2122;" horiz-adv-x="1597" d="M244 1331v62h479v-62h-205v-471h-69v471h-205zM752 860l88 537h30l158 -389h8l154 389h31l88 -537h-68l-53 338h-10l-144 -346h-10l-143 346h-9l-55 -338h-65z" />
<glyph unicode="&#xe000;" horiz-adv-x="1044" d="M0 0v1044h1044v-1044h-1044z" />
</font>
</defs>
</svg>
