<?xml version="1.0" standalone="no"?>
<!DOCTYPE svg PUBLIC "-//W3C//DTD SVG 1.1//EN" "http://www.w3.org/Graphics/SVG/1.1/DTD/svg11.dtd" >
<svg xmlns="http://www.w3.org/2000/svg">
<metadata></metadata>
<defs>
<font id="concourse_t7italic" horiz-adv-x="1024" >
<font-face units-per-em="2048" ascent="1520" descent="-528" />
<missing-glyph horiz-adv-x="471" />
<glyph unicode="&#xfb01;" horiz-adv-x="1290" d="M27 -211l147 883h-143l39 229l157 76l9 47q18 108 119 222t223 151h262v-203q-98 -16 -164.5 -81t-81.5 -140l-2 -15h153l-49 -268l-153 -20l-119 -703l-8 -157zM709 -10l133 760l10 180l395 39l-141 -797l-8 -162zM899 1233q0 72 60.5 124t146.5 52t146.5 -52t60.5 -124 t-60.5 -124t-146.5 -52t-146.5 52t-60.5 124z" />
<glyph unicode="&#xfb02;" horiz-adv-x="1290" d="M27 -211l147 883h-143l39 229l157 76l9 47q18 108 119 222t223 151h262v-203q-98 -16 -164.5 -81t-81.5 -140l-2 -15h153l-49 -268l-153 -20l-119 -703l-8 -157zM711 -10l137 739l78 498l8 159l403 31l-143 -762l-78 -479l-8 -166z" />
<glyph horiz-adv-x="2048" />
<glyph horiz-adv-x="2048" />
<glyph unicode="&#xd;" horiz-adv-x="2048" />
<glyph unicode=" "  horiz-adv-x="471" />
<glyph unicode="&#x09;" horiz-adv-x="471" />
<glyph unicode="&#xa0;" horiz-adv-x="471" />
<glyph unicode="!" horiz-adv-x="716" d="M70 182q0 79 53.5 132t134.5 53q90 0 141.5 -56.5t51.5 -136.5q0 -79 -54 -133.5t-135 -54.5q-85 0 -138.5 53.5t-53.5 142.5zM178 487l58 422l73 473l410 21l-158 -471l-141 -424z" />
<glyph unicode="&#x22;" horiz-adv-x="1044" d="M197 745l55 644l332 8l-172 -643zM647 745l55 644l332 8l-172 -643z" />
<glyph unicode="#" horiz-adv-x="1105" d="M41 459l29 180l211 -37l65 277l-182 32l35 191l194 -35l105 432l157 -35l-102 -424l152 -26l110 459l158 -35l-111 -453l199 -35l-35 -190l-209 37l-67 -279l182 -31l-29 -180l-196 35l-117 -487l-158 36l115 478l-150 26l-125 -514l-157 37l123 506zM440 573l150 -26 l67 276l-151 27z" />
<glyph unicode="$" horiz-adv-x="1044" d="M-16 197l127 260q138 -90 278 -107l70 248l-39 18q-47 22 -84.5 44.5t-75.5 55.5t-63.5 69t-41.5 85t-16 105q0 74 34 143t96.5 123.5t162 87.5t221.5 33h6l50 172l118 -23l-45 -163q158 -32 267 -109l-123 -278q-131 82 -232 104l-57 -213l27 -12q160 -81 222 -167 t62 -192q0 -197 -144 -306.5t-376 -115.5l-57 -211l-121 25l53 193q-92 14 -176.5 50.5t-142.5 80.5zM457 997q0 -24 18.5 -44.5t67.5 -49.5l47 172q-60 0 -96.5 -22.5t-36.5 -55.5zM498 346q65 6 97 32.5t32 67.5q0 50 -74 101z" />
<glyph unicode="%" horiz-adv-x="1392" d="M90 1024q0 164 101.5 277.5t246.5 113.5q119 0 196 -74.5t77 -193.5q0 -159 -104 -273t-259 -114q-107 0 -182.5 74t-75.5 190zM133 59l500 639l512 703l115 -64l-527 -684l-485 -661zM303 1040q0 -46 19.5 -73t54.5 -27q46 0 83.5 60t37.5 133q0 47 -20 74.5t-56 27.5 q-44 0 -81.5 -59.5t-37.5 -135.5zM692 242q0 164 101.5 277.5t246.5 113.5q119 0 196 -74.5t77 -193.5q0 -159 -104.5 -273.5t-258.5 -114.5q-107 0 -182.5 74.5t-75.5 190.5zM905 258q0 -46 19.5 -73t54.5 -27q44 0 82.5 61t38.5 131q0 47 -20 75t-56 28q-44 0 -81.5 -59.5 t-37.5 -135.5z" />
<glyph unicode="&#x26;" horiz-adv-x="1454" d="M37 354q0 94 28 174t77 138t103.5 98.5t119.5 71.5l2 10q-64 42 -87.5 92.5t-23.5 116.5q0 100 71.5 186t185.5 134t239 48q217 0 372 -71l-106 -291h-10q-96 49 -207 49q-76 0 -125 -31.5t-49 -83.5q0 -85 98 -118l-18 -150q-126 -10 -210.5 -86t-84.5 -170 q0 -84 69.5 -133t184.5 -49q152 0 241.5 70t89.5 173q0 38 -14 78l-127 -20l-35 225l541 90l35 -223l-127 -23q41 -74 41 -174q0 -151 -88.5 -268.5t-247.5 -182.5t-363 -65q-268 0 -421.5 109.5t-153.5 275.5z" />
<glyph unicode="'" horiz-adv-x="593" d="M197 745l55 644l332 8l-172 -643z" />
<glyph unicode="(" horiz-adv-x="921" d="M49 424q0 190 68 371.5t182 325.5t255.5 255.5t297.5 179.5l129 -225q-91 -57 -171 -123.5t-154.5 -154.5t-128 -185t-85.5 -217t-32 -248q0 -181 75 -339t213 -279l-194 -195q-95 66 -174.5 150.5t-144 188.5t-100.5 231.5t-36 263.5z" />
<glyph unicode=")" horiz-adv-x="921" d="M-100 -184q91 57 170.5 123t154.5 154.5t128.5 185t85.5 216.5t32 248q0 181 -75.5 339.5t-213.5 279.5l195 194q95 -66 174.5 -150t143.5 -188t100 -231.5t36 -263.5q0 -153 -44.5 -301.5t-121 -273t-179 -233t-218.5 -190t-239 -135.5z" />
<glyph unicode="*" horiz-adv-x="1085" d="M141 745l342 168l-313 84l125 244l252 -215l4 385l285 -61l-177 -353l328 123l17 -289l-330 43l244 -299l-240 -139l-117 369l-250 -303z" />
<glyph unicode="+" horiz-adv-x="1085" d="M68 504v225h362v363h225v-363h363v-225h-363v-363h-225v363h-362z" />
<glyph unicode="," horiz-adv-x="634" d="M-133 -324l2 11l154 301l69 250l393 8l-2 -10l-184 -297l-221 -254z" />
<glyph unicode="-" horiz-adv-x="757" d="M43 338l20 285l574 20l-21 -285z" />
<glyph unicode="." horiz-adv-x="593" d="M23 176q0 78 56 134.5t134 56.5t134 -56.5t56 -134.5t-56 -134t-134 -56t-134 56t-56 134z" />
<glyph unicode="/" horiz-adv-x="1044" d="M-164 -328l1055 1762h256l-1057 -1762h-254z" />
<glyph unicode="0" horiz-adv-x="1269" d="M47 500q0 182 40 336t108 260.5t157.5 181.5t187 110t199.5 35q224 0 359 -134.5t135 -385.5q0 -146 -29.5 -284t-88.5 -255.5t-140.5 -206t-192.5 -138.5t-237 -50q-108 0 -198 33t-157.5 97t-105 166.5t-37.5 234.5zM436 510q0 -217 137 -217q62 0 115.5 60t86.5 151.5 t51 193t16 189.5q-3 213 -137 213q-79 0 -142.5 -96t-95 -229t-31.5 -265z" />
<glyph unicode="1" horiz-adv-x="1064" d="M178 983l41 367l678 61l23 -25l-203 -1140l-21 -236l-405 -20l176 1020z" />
<glyph unicode="2" horiz-adv-x="1208" d="M-16 184q209 146 363.5 276t239 226.5t124 167.5t39.5 121q0 57 -34 82.5t-106 25.5q-79 0 -179.5 -35.5t-174.5 -86.5l-88 299q257 163 543 163q93 0 173 -19t145 -57.5t102.5 -105t37.5 -154.5q0 -189 -164.5 -382t-441.5 -361l2 -10l500 51l-64 -365l-997 -30z" />
<glyph unicode="3" horiz-adv-x="1167" d="M-49 55l92 307h10q169 -73 350 -73q115 0 188 40t73 122q0 52 -43 81.5t-123 26.5l-310 -12l70 305l281 -12q91 -3 143.5 34.5t52.5 104.5q0 57 -48 90t-122 33q-141 0 -313 -72h-16l-46 299q88 37 220 65.5t274 28.5q129 0 231 -34.5t165 -107.5t63 -175 q0 -141 -81 -243t-216 -156l-2 -11q93 -25 149 -96.5t56 -167.5q0 -100 -40.5 -180.5t-106 -132t-152.5 -86.5t-175.5 -49.5t-179.5 -14.5q-261 0 -444 86z" />
<glyph unicode="4" horiz-adv-x="1249" d="M39 504l737 878l414 21l-131 -752l123 4l-52 -286l-122 -4l-35 -199l-6 -156l-389 -20l61 375l-592 -17zM418 627l2 -11l266 13l72 401h-10z" />
<glyph unicode="5" horiz-adv-x="1167" d="M6 -2l86 289q64 -23 191 -23q183 0 284 65t101 150q0 83 -95.5 129.5t-265.5 46.5q-99 0 -194 -12l-11 6l226 733l835 21l-80 -320l-557 -4l-57 -174q70 4 106 4q121 0 217 -30.5t155 -83t89.5 -120t30.5 -145.5q0 -105 -45 -196.5t-122 -157.5t-179.5 -113.5t-218 -70.5 t-236.5 -23q-162 0 -260 29z" />
<glyph unicode="6" horiz-adv-x="1208" d="M33 432q0 174 64 330.5t175 273t257 202t314 130t341 45.5l-78 -301q-236 -13 -399.5 -94.5t-212.5 -198.5l6 -6q109 68 250 68q67 0 131 -25t118 -71.5t86.5 -122.5t32.5 -170q0 -101 -32.5 -187t-88 -147t-129.5 -104t-157.5 -64t-171.5 -21q-130 0 -228.5 35.5 t-158.5 99t-89.5 146t-29.5 182.5zM420 430q0 -80 38.5 -126t110.5 -46q67 0 113.5 57.5t46.5 155.5q0 83 -38 123.5t-101 40.5q-68 0 -137 -57q-33 -59 -33 -148z" />
<glyph unicode="7" horiz-adv-x="1146" d="M129 -10q88 304 248 594.5t350 498.5l-8 9l-565 -33l75 323l1024 21l17 -25q-582 -704 -711 -1368z" />
<glyph unicode="8" horiz-adv-x="1208" d="M8 301q0 91 53.5 177.5t127.5 142t149 79.5v11q-166 130 -166 303q0 81 36.5 154t104.5 130t173.5 91t234.5 34q195 0 322.5 -89.5t127.5 -239.5q0 -120 -78.5 -217.5t-207.5 -153.5v-8q127 -81 174 -154.5t47 -159.5q0 -187 -160 -309.5t-420 -122.5q-243 0 -380.5 91.5 t-137.5 240.5zM393 387q0 -65 45 -102t121 -37q62 0 113 37t51 104q0 44 -39.5 90t-134.5 103q-75 -30 -115.5 -87t-40.5 -108zM541 1022q0 -92 135 -184q60 38 92.5 91t32.5 99q0 50 -34.5 83.5t-82.5 33.5q-64 0 -103.5 -35t-39.5 -88z" />
<glyph unicode="9" horiz-adv-x="1208" d="M88 883q0 123 53.5 227.5t139.5 171.5t191 104t212 37q230 0 360 -130t130 -339q0 -204 -65.5 -366.5t-192.5 -280t-301.5 -198t-403.5 -129.5l-74 272l2 16q111 25 197 51.5t165 63.5t134.5 85t83.5 107l-6 7q-104 -70 -273 -70q-63 0 -124.5 24.5t-113 69t-83 117 t-31.5 160.5zM479 905q0 -72 35 -111.5t92 -39.5q78 0 154 67q33 84 33 148q0 74 -32.5 117.5t-96.5 43.5q-81 0 -134.5 -68.5t-50.5 -156.5z" />
<glyph unicode=":" horiz-adv-x="675" d="M76 176q0 78 56 134.5t134 56.5t134.5 -56.5t56.5 -134.5t-56.5 -134t-134.5 -56t-134 56t-56 134zM174 729q0 78 56.5 134.5t134.5 56.5t134 -56.5t56 -134.5t-56 -134t-134 -56t-134.5 56t-56.5 134z" />
<glyph unicode=";" horiz-adv-x="675" d="M-133 -324l2 11l154 301l69 250l393 8l-2 -10l-184 -297l-221 -254zM162 729q0 78 56 134.5t134 56.5t134.5 -56.5t56.5 -134.5t-56.5 -134t-134.5 -56t-134 56t-56 134z" />
<glyph unicode="&#x3c;" horiz-adv-x="1085" d="M102 573v168l828 410l92 -205l-621 -284l621 -293l-92 -205z" />
<glyph unicode="=" horiz-adv-x="1085" d="M88 299v225h909v-225h-909zM88 692v226h909v-226h-909z" />
<glyph unicode="&#x3e;" horiz-adv-x="1085" d="M63 369l621 293l-621 284l93 205l827 -410v-168l-827 -409z" />
<glyph unicode="?" horiz-adv-x="1003" d="M80 182q0 79 53.5 132t134.5 53q90 0 141.5 -56.5t51.5 -136.5q0 -79 -54 -133.5t-135 -54.5q-85 0 -138.5 53.5t-53.5 142.5zM123 662q0 59 27.5 105.5t72 76t98 53.5t107 42t98 36t72 42.5t27.5 55.5q0 38 -31 58t-78 20q-107 0 -229 -64l-60 248q180 88 387 88 q103 0 186.5 -30.5t136 -94t52.5 -151.5q0 -76 -30.5 -137t-80 -99t-109 -67.5t-118.5 -49t-108.5 -37t-80 -38t-30.5 -45.5q0 -41 60 -41q59 0 110 26l43 -151q-110 -51 -246 -51q-123 0 -199.5 52.5t-76.5 152.5z" />
<glyph unicode="@" horiz-adv-x="1474" d="M92 594q0 174 63 329.5t170.5 267.5t257.5 177.5t318 65.5q108 0 199 -22.5t160.5 -67t105 -118.5t27.5 -169l-50 -549q-6 -105 54 -168l-2 -21l-242 -59l-53 121h-15q-97 -94 -231 -94q-132 0 -220.5 84t-88.5 235q0 156 114.5 257.5t284.5 101.5q88 0 168 -17l12 92 q10 81 -51.5 116.5t-181.5 35.5q-228 0 -380.5 -169t-152.5 -421q0 -110 25 -200t66.5 -149.5t99 -100t120 -58.5t130.5 -18q193 0 288 74h11l90 -224q-160 -98 -402 -98q-106 0 -204 26.5t-188 86t-156.5 146.5t-106 217.5t-39.5 289.5zM799 625q0 -109 125 -109 q78 0 161 49l15 183q-91 14 -135 14q-73 0 -119.5 -37t-46.5 -100z" />
<glyph unicode="A" horiz-adv-x="1433" d="M-106 4l841 1378l328 21l235 -1393l-370 -20l-37 237l-479 -16l-119 -201l-393 -20zM584 504l266 12l-39 379h-18z" />
<glyph unicode="B" horiz-adv-x="1249" d="M-6 -10l129 721l86 510l8 161l547 15h26q197 1 300 -85q110 -92 110 -239q0 -54 -24 -116.5t-83 -129t-141 -102.5l-2 -10q99 -34 152 -106.5t53 -164.5q0 -137 -77 -236.5t-206 -149t-297 -52.5zM432 305l168 6q59 2 109.5 40.5t50.5 105.5q0 52 -36 85q-34 31 -85 31 h-6l-160 -6zM520 825l139 4q57 2 99.5 41t42.5 95q-1 59 -35 93q-32 32 -81 32h-9l-107 -3z" />
<glyph unicode="C" horiz-adv-x="1331" d="M61 569q0 185 69 346.5t184.5 271.5t266.5 173t314 63q129 0 237.5 -31.5t223.5 -121.5l-191 -312h-10q-56 58 -127.5 86.5t-144.5 28.5q-72 0 -143.5 -28.5t-133.5 -83t-100.5 -146t-38.5 -205.5q0 -142 80.5 -215t212.5 -73q67 0 142.5 25t139.5 67h11l131 -301 q-108 -71 -240.5 -107.5t-257.5 -36.5q-290 0 -457.5 164.5t-167.5 435.5z" />
<glyph unicode="D" horiz-adv-x="1413" d="M-6 -10l129 715l86 534l8 143l428 21q20 1 39 0q165 1 309 -59q161 -68 262 -208t101 -325q0 -174 -66 -322.5t-177 -249t-255.5 -159.5t-302.5 -66zM440 328l133 8q72 5 140 35t124.5 83.5t91 137.5t34.5 186q0 74 -25.5 133t-66.5 94t-91 52q-42 14 -86 14h-16l-109 -6 l-71 -358z" />
<glyph unicode="E" horiz-adv-x="1105" d="M-6 -10l139 743l72 445l16 204l924 21l-70 -336l-508 -14l-32 -191l448 10l-65 -315l-439 -10l-39 -211l539 10l-68 -336z" />
<glyph unicode="F" horiz-adv-x="1064" d="M-6 -10l129 717l88 518l6 157l918 21l-60 -336l-512 -12l-37 -224l441 17l-58 -326l-440 -16l-61 -338l-9 -158z" />
<glyph unicode="G" horiz-adv-x="1474" d="M61 565q0 170 61.5 326t169.5 274t268 188t345 70q150 0 273.5 -44t207.5 -111l-184 -310h-10q-129 125 -311 125q-79 0 -153 -34t-132.5 -95t-93.5 -153t-35 -201q0 -139 81 -214t204 -75q119 0 198 51l29 173l-285 -7l49 306l648 8l-119 -688q-245 -185 -596 -185 q-276 0 -445.5 159.5t-169.5 436.5z" />
<glyph unicode="H" horiz-adv-x="1454" d="M-6 -10l131 710l70 439l22 243l412 21l-97 -539l459 21l43 262l21 235l411 21l-135 -741l-71 -441l-17 -211l-412 -20l101 555l-459 -21l-55 -329l-12 -185z" />
<glyph unicode="I" horiz-adv-x="655" d="M12 -10l146 764l71 442l13 186l411 21l-133 -684l-71 -481l-19 -228z" />
<glyph unicode="J" d="M-63 68l137 301h10q60 -58 168 -58q92 0 161.5 64t90.5 182l123 690l4 135l405 21l-159 -920q-20 -115 -68.5 -206t-111 -147.5t-140 -94t-151 -52t-150.5 -14.5q-212 0 -319 99z" />
<glyph unicode="K" horiz-adv-x="1392" d="M-6 -10l209 1194l14 198l406 21l-97 -561h15l456 540l467 21v-10l-604 -697l416 -680l-4 -6l-443 -20l-333 614h-15l-71 -422l-11 -172z" />
<glyph unicode="L" horiz-adv-x="1064" d="M-6 -10l127 686l84 543l8 163l416 21l-189 -1059l494 16l-60 -340z" />
<glyph unicode="M" horiz-adv-x="1781" d="M-68 -10l474 1399l239 8l229 -774h9l499 766l240 8l-8 -1180l18 -207l-426 -20l21 639h-10l-379 -625l-123 -8l-178 633h-11l-137 -424l-43 -195z" />
<glyph unicode="N" horiz-adv-x="1556" d="M-6 -10l149 815l95 577l286 21l518 -791h11l86 566l16 204l414 21l-137 -739l-107 -654l-291 -20l-516 780h-10l-90 -580l-12 -180z" />
<glyph unicode="O" horiz-adv-x="1597" d="M61 551q0 189 68 353t184 277t272 177.5t328 64.5q181 0 323 -72.5t224 -210.5t82 -319q0 -182 -64.5 -340.5t-176.5 -270.5t-268.5 -176.5t-334.5 -64.5q-290 0 -463.5 155.5t-173.5 426.5zM467 594q0 -136 75 -209.5t203 -73.5q165 0 281 141q114 137 113 346v11 q-1 130 -75.5 201t-195.5 71q-73 0 -143 -32t-128.5 -91t-94 -154t-35.5 -210z" />
<glyph unicode="P" horiz-adv-x="1208" d="M-6 -10l143 794l68 408l12 190l492 17h23q216 0 344 -106q136 -112 136 -310q0 -147 -82 -266.5t-226 -188.5t-322 -75l-129 -4l-43 -269l-11 -170zM506 748l117 4q75 3 135 56q60 52 59 137q0 71 -43 109q-40 36 -102 36h-10l-93 -5z" />
<glyph unicode="Q" horiz-adv-x="1597" d="M61 551q0 189 68 353t184 277t272 177.5t328 64.5q181 0 323 -72.5t224 -210.5t82 -319q0 -177 -64.5 -331.5t-176.5 -264t-268.5 -172.5t-334.5 -63h-16v-15q143 -102 385 -102q60 0 127 6l6 -12l-117 -309h-18q-114 0 -223 24q-116 26 -205 65.5t-170 79t-165 68.5 t-159 31l-4 10l146 264q-108 73 -166 188t-58 263zM467 594q0 -136 75 -209.5t203 -73.5q164 0 281 141q113 137 113 346v11q-1 130 -75.5 201t-195.5 71q-73 0 -143 -32t-128.5 -91t-94 -154t-35.5 -210z" />
<glyph unicode="R" horiz-adv-x="1310" d="M-6 -10l213 1218l10 174l481 21q18 1 35 1q209 0 341 -99q144 -107 143 -275q0 -86 -26.5 -160t-74 -127t-106 -90.5t-127.5 -60.5l315 -572v-10l-412 -20l-260 565h-51l-67 -381l-9 -164zM518 795l117 6q77 0 129 46q51 45 51 127q0 57 -35 88.5t-96 31.5l-115 -7z" />
<glyph unicode="S" horiz-adv-x="1167" d="M-39 168l170 301q75 -72 174.5 -114t198.5 -42q78 0 116.5 24.5t38.5 63.5q0 40 -34 71t-103 69q-130 71 -162 92q-161 106 -194 249q-10 41 -10 87q0 64 21 128t65 123t106 104t151 72t193 27q270 0 482 -182l-183 -295q-75 65 -160 99t-159 34q-62 0 -94.5 -23.5 t-32.5 -64.5q0 -31 34.5 -63t98.5 -70q9 -5 46 -27.5t51 -31.5t49 -32.5t51 -37t45 -39t43.5 -45t34.5 -49t29.5 -56.5t16.5 -61t7 -69q0 -92 -33.5 -167.5t-88.5 -125t-128 -84t-150.5 -49.5t-158.5 -15q-164 0 -309.5 55.5t-221.5 143.5z" />
<glyph unicode="T" horiz-adv-x="1187" d="M102 1042l60 340l1106 21l-60 -340l-350 -8l-100 -492l-56 -350l-14 -203l-409 -20l114 596l74 465z" />
<glyph unicode="U" horiz-adv-x="1454" d="M76 414v19q0 37 8 73l123 690l12 186l406 21l-148 -850q-6 -33 -6 -63q1 -67 31 -113q44 -66 162 -66q104 0 177 58t95 184l117 661l10 168l405 21l-151 -871q-44 -254 -222.5 -408.5t-459.5 -154.5q-84 0 -157.5 13.5t-129 37t-102 56.5t-76 72t-52.5 83.5t-31.5 90.5 t-10.5 92z" />
<glyph unicode="V" horiz-adv-x="1351" d="M111 1382l405 21l115 -813h8l397 792l434 21l9 -17l-813 -1376l-267 -20z" />
<glyph unicode="W" horiz-adv-x="1843" d="M111 1382l403 21l39 -791h10l334 774l270 13l64 -787h10l305 770l412 21l10 -14l-668 -1379l-296 -20l-78 700h-11l-321 -680l-297 -20z" />
<glyph unicode="X" horiz-adv-x="1372" d="M-102 10l573 701l-336 671l424 21l168 -397l307 376l430 19l6 -17l-559 -673l353 -701l-424 -20l-191 430l-317 -410l-418 -18z" />
<glyph unicode="Y" horiz-adv-x="1290" d="M104 1382l394 11l180 -467l332 456l407 21l6 -17l-602 -796l-69 -395l-13 -185l-405 -20l102 600z" />
<glyph unicode="Z" horiz-adv-x="1290" d="M-88 8l801 1051l-6 6l-570 -21l58 328l1181 31l8 -12l-813 -1055l7 -8l598 20l-58 -328l-1198 -30z" />
<glyph unicode="[" horiz-adv-x="921" d="M31 -336l180 930l139 889l611 -8l-46 -256l-278 8l-125 -639l-104 -668l292 8l-45 -256z" />
<glyph unicode="\" horiz-adv-x="1044" d="M133 1434h246l592 -1762h-246z" />
<glyph unicode="]" horiz-adv-x="921" d="M-80 -328l45 256l279 -8l125 639l104 668l-293 -8l45 256l625 8l-180 -930l-140 -889z" />
<glyph unicode="^" horiz-adv-x="1085" d="M61 643l455 772h55l453 -772l-119 -68l-352 615h-16l-359 -615z" />
<glyph unicode="_" horiz-adv-x="1085" d="M-215 -451l31 226h1188l-31 -226h-1188z" />
<glyph unicode="`" d="M244 1260l4 20h284l173 -315l-5 -17h-196z" />
<glyph unicode="a" d="M-18 225q0 72 28 154q87 90 247.5 147.5t311.5 59.5l6 41q1 7 1 13q0 34 -26 50q-31 20 -85 19q-61 0 -138 -25t-145 -68l-76 236q84 57 212 96t241 39q194 0 294 -103q75 -77 75 -205q0 -42 -8 -89l-62 -348q-6 -33 -6 -60q0 -69 39 -98v-12l-246 -103q-35 16 -57 61.5 t-25 96.5h-10q-61 -56 -159 -103t-193 -55q-102 15 -160.5 80.5t-58.5 175.5zM334 275q16 -34 53 -39q39 4 81 26t62 49l17 107q-19 3 -37 3q-42 -1 -86 -15q-62 -20 -90 -54q-9 -22 -9 -41q1 -19 9 -36z" />
<glyph unicode="b" horiz-adv-x="1105" d="M-12 127l186 1053l16 206l396 31l-111 -565h10q47 47 136.5 90t154.5 47q258 -89 258 -366q0 -142 -51.5 -264.5t-139 -207t-205 -132.5t-247.5 -48q-267 0 -403 156zM369 295q39 -29 90 -29q81 0 137.5 86.5t56.5 216.5q0 55 -23.5 85.5t-56.5 37.5q-34 -5 -79 -34 t-68 -62z" />
<glyph unicode="c" horiz-adv-x="901" d="M-2 375q0 130 48 246t127.5 195t183 125t212.5 46q183 0 328 -106l-82 -256h-12q-75 71 -185 71q-101 0 -173 -72.5t-72 -177.5q0 -88 54 -136t132 -48q110 0 201 62h12l25 -252q-150 -101 -365 -101q-102 0 -186.5 34.5t-137.5 91.5t-81.5 129t-28.5 149z" />
<glyph unicode="d" horiz-adv-x="1105" d="M2 358q0 159 63.5 303.5t178.5 235t252 90.5q124 0 184 -102h8l60 340l8 161l405 31l-114 -647l-93 -549l-16 -211l-317 -20l-11 147h-10q-54 -54 -135 -100.5t-168 -67.5q-136 20 -215.5 127t-79.5 262zM379 412q0 -118 88 -146q34 11 78 42t65 61l45 272q-35 51 -96 51 q-70 0 -125 -87.5t-55 -192.5z" />
<glyph unicode="e" d="M2 342q0 132 50.5 252.5t133.5 206t193 136t227 50.5q155 0 256 -100.5t101 -237.5q0 -82 -27 -162q-129 -57 -287 -87q-144 -28 -274 -27h-25q10 -121 199 -121q84 0 176.5 24.5t146.5 67.5l11 -4l-64 -272q-145 -97 -393 -97q-194 0 -309 96t-115 275zM377 537 q11 -1 24 0q45 -1 119 7q94 10 123 25q0 61 -27 99.5t-75 38.5q-50 0 -96.5 -50t-67.5 -120z" />
<glyph unicode="f" horiz-adv-x="737" d="M27 -211l147 883h-143l39 229l157 76l9 47q18 108 119 222t223 151h262v-203q-98 -16 -164.5 -81t-81.5 -140l-2 -15h153l-49 -268l-153 -20l-119 -703l-8 -157z" />
<glyph unicode="g" horiz-adv-x="1105" d="M-41 -336l107 275q39 -30 105 -48t134 -18q43 0 85 10t84 31t72 61.5t38 94.5l16 110h-12q-60 -54 -144.5 -103t-156.5 -63q-112 20 -198.5 112.5t-86.5 225.5q0 122 40 237.5t107 203t162 141t199 53.5q62 0 121 -30.5t106 -84.5l80 101l250 -23l-147 -868 q-19 -108 -64.5 -195t-105.5 -144t-134 -95.5t-148 -55t-151 -16.5q-193 0 -358 88zM379 414q0 -37 25 -65t63 -36q34 9 76 38t65 59l45 231q-14 22 -40 36.5t-56 14.5q-71 0 -124.5 -82t-53.5 -196z" />
<glyph unicode="h" horiz-adv-x="1105" d="M-33 -10l131 721l78 503l10 172l406 31l-109 -571h15q117 141 274 141q53 0 101 -21t86.5 -60.5t54.5 -106.5q8 -34 7 -72q0 -37 -7 -78l-86 -491l-6 -148l-390 -20l101 581q2 14 2 26q1 33 -15 54q-22 29 -57 29q-38 0 -70 -19.5t-49 -44.5l-73 -409l-15 -197z" />
<glyph unicode="i" horiz-adv-x="552" d="M-29 -10l133 760l11 180l395 39l-141 -797l-9 -162zM162 1233q0 72 60.5 124t146.5 52t146 -52t60 -124t-60 -124t-146 -52t-146.5 52t-60.5 124z" />
<glyph unicode="j" horiz-adv-x="552" d="M-178 -322q60 46 99.5 129t60.5 220l122 708l15 195l395 39l-168 -951q-19 -133 -67 -238t-111 -171l-340 -33zM162 1233q0 72 60.5 124t146.5 52t146 -52t60 -124t-60 -124t-146 -52t-146.5 52t-60.5 124z" />
<glyph unicode="k" horiz-adv-x="1126" d="M-33 -10l209 1202l14 194l396 31l-148 -815h11l303 346l393 21l8 -11l-414 -471l275 -462l-2 -15l-398 -20l-204 389h-11l-34 -209l-9 -160z" />
<glyph unicode="l" horiz-adv-x="552" d="M-27 -10l138 739l77 498l9 159l403 31l-143 -762l-78 -479l-8 -166z" />
<glyph unicode="m" horiz-adv-x="1658" d="M-33 -10l139 794l9 164l346 21l4 -133h14q56 70 139 110.5t156 40.5q160 0 232 -151h10q66 66 149 108.5t158 42.5q129 0 203 -77q54 -56 54 -155q0 -36 -7 -77l-92 -518l-6 -150l-390 -20l99 577q3 18 3 33q0 32 -14 52q-21 28 -63 28q-62 0 -106 -64l-80 -450l-9 -156 l-389 -20l97 567q4 22 4 40q1 32 -11 52q-18 31 -59 31q-29 0 -60 -17.5t-53 -44.5l-79 -442l-9 -166z" />
<glyph unicode="n" horiz-adv-x="1105" d="M-33 -10l133 758l15 200l346 21l4 -133h14q126 151 299 151q52 0 99.5 -20.5t84.5 -59.5q36 -39 52 -104q8 -34 8 -73q0 -35 -6 -73l-86 -479l-8 -168l-390 -20l99 571q3 19 3 36q0 35 -16 55q-24 28 -63 28q-61 0 -111 -64l-77 -438l-11 -168z" />
<glyph unicode="o" horiz-adv-x="1085" d="M2 379q0 130 48 244.5t127 193.5t182 124.5t212 45.5q199 0 321 -116.5t122 -303.5q0 -163 -82 -301.5t-216 -216.5t-284 -78q-186 0 -308 111.5t-122 296.5zM385 477q-10 -51 -10 -90q0 -125 98 -125q50 0 94.5 55.5t63.5 159.5q9 51 9 91q0 128 -93 128 q-57 0 -100.5 -57t-61.5 -162z" />
<glyph unicode="p" horiz-adv-x="1105" d="M-106 -418l204 1166l15 202l336 15l-7 -136h7q62 60 160.5 108t176.5 52q111 -39 179.5 -132t68.5 -249q0 -133 -49.5 -255t-124 -203.5t-159.5 -130t-158 -48.5q-132 0 -187 78h-14l-45 -276l-10 -166zM367 297q34 -31 92 -31q81 0 137.5 89t56.5 227q0 44 -21 73 t-50 37q-37 -8 -80.5 -33.5t-73.5 -58.5z" />
<glyph unicode="q" horiz-adv-x="1105" d="M-2 348q0 140 44 262t116 203.5t162.5 127.5t183.5 46q127 0 219 -119l70 99l274 -21l-209 -1182l-6 -157l-387 -25l104 514h-14q-112 -94 -270 -127q-49 10 -96 36.5t-91.5 70t-72 114.5t-27.5 158zM379 399q0 -102 82 -133q34 8 73.5 38.5t65.5 62.5l55 274 q-30 51 -92 51q-75 0 -129.5 -86.5t-54.5 -206.5z" />
<glyph unicode="r" horiz-adv-x="778" d="M-33 -10l133 784l11 174l309 21l-2 -211h14q47 94 132.5 155.5t187.5 61.5h41l-64 -357h-43q-127 -12 -206.5 -112t-104.5 -281l-19 -215z" />
<glyph unicode="s" horiz-adv-x="880" d="M-55 96l116 250q61 -44 139 -73t150 -29q35 0 57.5 11.5t22.5 31.5q0 16 -19 28t-61 31q-160 67 -230.5 134.5t-70.5 172.5q0 82 36 147.5t95 105t129.5 60.5t143.5 21q109 0 216.5 -35.5t176.5 -93.5l-121 -248q-58 48 -130.5 76.5t-137.5 28.5q-34 0 -59 -12t-25 -31 q0 -23 78 -49q84 -32 137.5 -59.5t99.5 -65.5t67 -86t21 -111q0 -75 -28 -134.5t-72.5 -95.5t-105 -59t-119.5 -32t-123 -9q-112 0 -213.5 34t-169.5 91z" />
<glyph unicode="t" horiz-adv-x="716" d="M31 672l41 229l155 74l19 219l401 66l-53 -302h154l-52 -270l-153 -20l-88 -496l-9 -162l-389 -20l117 682h-143z" />
<glyph unicode="u" horiz-adv-x="1105" d="M18 326l80 454l11 168l389 21l-99 -572q-4 -19 -4 -36q1 -33 17 -53q24 -28 57 -29q35 0 69 19.5t48 45.5l78 438l10 166l391 21l-143 -801l-7 -158l-344 -20v127h-16q-61 -63 -141.5 -104.5t-165.5 -41.5q-120 1 -190 93q-49 65 -49 167q0 44 9 95z" />
<glyph unicode="v" d="M33 948l370 21l54 -492h12l209 471l385 21l8 -11l-555 -948l-266 -20z" />
<glyph unicode="w" horiz-adv-x="1413" d="M33 948l342 21l39 -473h12l188 452l254 21l29 -473h12l166 452l375 21l10 -17l-506 -942l-264 -20l-16 459h-12l-218 -439l-264 -20z" />
<glyph unicode="x" horiz-adv-x="1085" d="M-109 0l396 489l-228 459l400 21l90 -271l170 250l391 21l8 -17l-397 -471l235 -471l-393 -20l-104 268l-158 -248l-403 -20z" />
<glyph unicode="y" d="M-88 -340q90 63 164 173.5t121 244.5l-164 870l368 21l48 -514h14l223 493l375 19l10 -15l-543 -979l-188 -360l-424 -37z" />
<glyph unicode="z" horiz-adv-x="921" d="M-102 2l495 672l-8 4l-322 -21l50 281l825 31l4 -8l-489 -670l6 -10l342 20l-49 -281l-848 -30z" />
<glyph unicode="{" horiz-adv-x="921" d="M66 475l36 205q90 0 161 48.5t83 115.5v368q17 99 78.5 154.5t192.5 82t360 26.5l-43 -246q-135 0 -197 -24t-75 -97v-305q-10 -51 -56.5 -92.5t-113 -67.5t-148.5 -39l-6 -31q116 -8 187.5 -65t56.5 -141q-7 -40 -51 -142t-54 -157q-8 -36 -3.5 -64t25 -47t70.5 -29 t133 -10l-43 -246q-171 0 -283.5 19t-171.5 57.5t-77 90.5t-4 126q10 59 64 171t63 167q15 81 -37 126.5t-147 45.5z" />
<glyph unicode="|" horiz-adv-x="1085" d="M422 -471v2007h242v-2007h-242z" />
<glyph unicode="}" horiz-adv-x="921" d="M-96 -328l43 246q135 0 197 24t75 97v305q10 51 56.5 92.5t113 67.5t148.5 39l6 30q-116 8 -187.5 65.5t-56.5 141.5q7 40 50.5 142t53.5 157q8 36 3.5 64t-25 47t-70.5 29t-133 10l43 246q171 0 284 -19t172 -57.5t77 -90.5t4 -126q-10 -59 -64 -171t-63 -167 q-15 -81 37 -126.5t147 -45.5l-37 -205q-90 0 -160.5 -48.5t-82.5 -115.5v-369q-17 -99 -78.5 -154.5t-192.5 -81.5t-360 -26z" />
<glyph unicode="~" horiz-adv-x="1085" d="M66 416q0 159 83 251.5t201 92.5q51 0 100 -21t86 -51t71.5 -59.5t70.5 -50.5t70 -21q64 0 102.5 58t38.5 141h139q0 -149 -78.5 -246.5t-204.5 -97.5q-52 0 -100 20.5t-84 50t-69.5 59t-70 50t-71.5 20.5q-67 0 -110 -56t-43 -140h-131z" />
<glyph unicode="&#xa1;" horiz-adv-x="716" d="M-2 -240l158 471l141 424l242 21l-58 -422l-73 -473zM266 989q0 79 54 134t135 55q85 0 138.5 -54t53.5 -143q0 -78 -53.5 -131t-134.5 -53q-90 0 -141.5 56t-51.5 136z" />
<glyph unicode="&#xa2;" horiz-adv-x="880" d="M53 580q0 121 49 231.5t128 188t182 124t209 47.5l59 209l123 -28l-58 -193q92 -20 185 -96l-123 -223q-61 57 -141 75l-127 -469q98 10 209 74l30 -225q-60 -38 -139.5 -65t-159.5 -33l-65 -228l-123 29l59 207q-140 26 -218.5 125t-78.5 250zM352 600q0 -112 80 -141 l129 459q-84 -20 -146.5 -107.5t-62.5 -210.5z" />
<glyph unicode="&#xa3;" horiz-adv-x="1105" d="M-31 143q296 189 307 488h-176l31 174h129q-16 110 -16 162q0 115 39.5 203.5t110.5 143t165.5 82t208.5 27.5q220 0 369 -112l-140 -236q-32 30 -90 53t-116 23q-107 0 -168.5 -51.5t-61.5 -151.5q0 -54 19 -143h251l-30 -174h-197q-6 -180 -196 -316l8 -22 q85 39 170 39q47 0 108 -32t101 -32q77 0 153 45l13 -4l8 -258q-47 -34 -115 -52.5t-121 -18.5q-48 0 -92 13.5t-73.5 29.5t-76 29.5t-98.5 13.5q-158 0 -356 -86z" />
<glyph unicode="&#xa4;" horiz-adv-x="1269" d="M160 941.5q2 20.5 15 38.5t31.5 33t37.5 16.5t32 -9.5l95 -96q120 86 264 86q145 0 258 -80l88 92q21 22 59.5 -0.5t60 -62.5t1.5 -60l-92 -88q77 -113 77 -254q0 -143 -86 -266l99 -94q13 -13 11.5 -34t-15 -39.5t-31.5 -33.5t-37 -16.5t-33 10.5l-102 102 q-114 -82 -258 -82q-141 0 -254 74l-86 -90q-13 -15 -35.5 -13t-42.5 16.5t-36 34t-18.5 40t11.5 35.5l90 88q-82 114 -82 268q0 141 82 260l-92 90q-14 14 -12 34.5zM387 555q0 -116 68.5 -190t181.5 -74q103 0 172.5 75t69.5 189q0 117 -69.5 191.5t-174.5 74.5 q-115 0 -181.5 -75t-66.5 -191z" />
<glyph unicode="&#xa5;" horiz-adv-x="1290" d="M115 1382l368 21l183 -494h4l325 473l381 19l15 -17l-598 -794h174l-27 -154h-176l-14 -82h176l-27 -153h-176l-6 -43l-6 -148l-369 -20l35 211h-174l26 153h174l15 82h-174l26 154h174z" />
<glyph unicode="&#xa6;" horiz-adv-x="1085" d="M422 246h242v-717h-242v717zM422 819v717h242v-717h-242z" />
<glyph unicode="&#xa7;" horiz-adv-x="1269" d="M-35 -201l137 269q76 -49 182.5 -83t194.5 -34q174 0 174 92q0 38 -54.5 73t-188.5 91q-161 65 -231 144t-70 179q0 87 55.5 172.5t154.5 149.5q-98 85 -98 195q0 74 33.5 140.5t96 119.5t164 84.5t226.5 31.5q135 0 258 -37.5t205 -89.5l-137 -260q-71 48 -166 77.5 t-194 29.5q-70 0 -105 -21.5t-35 -58.5q0 -33 49 -67.5t179 -82.5q178 -66 253.5 -150.5t75.5 -191.5q0 -86 -56 -170.5t-157 -146.5q90 -90 90 -197q0 -95 -45.5 -171t-121.5 -122t-169.5 -70t-195.5 -24q-159 0 -291.5 38t-212.5 91zM426 604q0 -53 59 -104.5t193 -108.5 l55 -24q72 63 72 135q0 65 -39.5 109t-151.5 87q-43 16 -108 43q-80 -64 -80 -137z" />
<glyph unicode="&#xa8;" d="M188 1085q0 57 44.5 100.5t101.5 43.5q58 0 99.5 -43t41.5 -101q0 -56 -41.5 -97.5t-99.5 -41.5q-57 0 -101.5 42t-44.5 97zM582 1085q0 57 43 100.5t100 43.5q53 0 98 -44t45 -100q0 -55 -44.5 -97t-98.5 -42q-57 0 -100 42t-43 97z" />
<glyph unicode="&#xa9;" horiz-adv-x="1617" d="M170 662q0 129 51 247t137 203.5t204.5 136.5t248.5 51q180 0 327 -86.5t228.5 -232t81.5 -319.5q0 -131 -47 -248.5t-129 -204.5t-202 -138t-259 -51q-175 0 -321.5 81t-233 229t-86.5 332zM291 657q0 -228 148.5 -376t373.5 -148q222 0 368 148t146 376 q0 235 -147.5 385t-368.5 150q-143 0 -262 -68.5t-188.5 -192t-69.5 -274.5zM446 655q0 180 111 288t272 108q71 0 137.5 -21.5t106.5 -48.5l-33 -166l-14 8q-14 8 -19.5 10.5t-21.5 10.5t-26.5 12t-28.5 9.5t-32.5 8.5t-33.5 5t-37 2q-83 0 -140.5 -55.5t-57.5 -166.5 q0 -90 55.5 -148t144.5 -58q111 0 222 71l36 -164q-46 -34 -116.5 -55.5t-143.5 -21.5q-168 0 -274.5 107t-106.5 265z" />
<glyph unicode="&#xaa;" horiz-adv-x="860" d="M72 780q0 73 30 146q67 67 192 110t243 45l4 33q4 35 -20.5 50.5t-67.5 15.5q-47 0 -108.5 -20t-115.5 -54l-59 186q67 45 168 76t190 31q153 0 232 -81.5t53 -232.5l-47 -262q-19 -97 25 -125v-22l-195 -80q-31 9 -51 38t-23 62h-8q-92 -100 -238 -100 q-83 0 -143.5 50.5t-60.5 133.5zM356 901q-13 -37 3 -66.5t55 -29.5q40 0 70.5 33t37.5 110q-46 7 -95.5 -7.5t-70.5 -39.5z" />
<glyph unicode="&#xab;" horiz-adv-x="1392" d="M98 459l2 18l559 463l132 -135l-359 -359l209 -346l-168 -108zM610 459l2 18l559 463l132 -135l-359 -359l209 -346l-168 -108z" />
<glyph unicode="&#xac;" horiz-adv-x="1085" d="M68 502v139h936v-535h-140v396h-796z" />
<glyph unicode="&#xad;" horiz-adv-x="757" d="M43 338l20 285l574 20l-21 -285z" />
<glyph unicode="&#xae;" horiz-adv-x="1146" d="M115 965q0 128 61.5 233.5t166.5 165t230 59.5q197 0 328 -131t131 -327q0 -128 -62 -234t-167 -165.5t-230 -59.5q-193 0 -325.5 128t-132.5 331zM221 963q0 -159 99 -258t255 -99q146 0 248.5 100.5t102.5 256.5q0 157 -102.5 258.5t-250.5 101.5q-159 0 -255.5 -103.5 t-96.5 -256.5zM383 725v510h180q89 0 139 -40.5t50 -109.5q0 -55 -31 -91t-84 -50l178 -211v-8h-141l-164 203h-6v-203h-121zM504 1026h71q23 0 39.5 13t16.5 44q0 25 -19 39.5t-43 14.5h-65v-111z" />
<glyph unicode="&#xaf;" d="M262 928v133h500v-133h-500z" />
<glyph unicode="&#xb0;" horiz-adv-x="757" d="M127 1128q0 121 86.5 208t206.5 87q122 0 208.5 -86.5t86.5 -208.5q0 -120 -87 -206t-208 -86q-120 0 -206.5 86t-86.5 206zM287 1128q0 -60 37 -103.5t94 -43.5q59 0 97 43.5t38 103.5q0 62 -38.5 107t-96.5 45q-57 0 -94 -45t-37 -107z" />
<glyph unicode="&#xb1;" horiz-adv-x="1085" d="M88 0v225h909v-225h-909zM88 688v225h342v363h225v-363h342v-225h-342v-362h-225v362h-342z" />
<glyph unicode="&#xb2;" horiz-adv-x="655" d="M84 956q215 148 310 252.5t95 159.5q0 32 -18.5 45.5t-58.5 13.5q-81 0 -181 -67l-53 178q50 39 136.5 66.5t177.5 27.5q108 0 179.5 -43t71.5 -131q0 -101 -81 -203.5t-218 -189.5l5 -10l241 26l-39 -221l-561 -20z" />
<glyph unicode="&#xb3;" horiz-adv-x="655" d="M80 885l61 190h6q85 -45 179 -45q61 0 99 18t38 56q0 26 -23.5 40t-68.5 13l-150 -6l39 168l135 -8q49 -3 78 18.5t29 50.5q0 56 -88 56q-71 0 -166 -39h-10l-27 180q132 55 283 55q114 0 184 -45.5t70 -130.5q0 -77 -49.5 -132t-131.5 -81l-2 -10q131 -43 131 -150 q0 -62 -30 -109t-73 -72.5t-97.5 -42t-95 -21t-74.5 -4.5q-149 0 -246 51z" />
<glyph unicode="&#xb4;" d="M324 948l4 17l262 315h305l-4 -20l-350 -312h-217z" />
<glyph unicode="&#xb6;" horiz-adv-x="1474" d="M109 852q0 96 35.5 182t96.5 150.5t140.5 112t170 72t181.5 24.5h807l-37 -209h-117l-235 -1329l-8 -166l-277 -21l264 1516h-122l-230 -1301l-14 -194l-277 -21l136 778q-242 0 -378 108t-136 298zM487 868q0 -98 45 -155.5t127 -57.5l93 529q-107 0 -186 -91t-79 -225z " />
<glyph unicode="&#xb7;" horiz-adv-x="593" d="M96 600q0 78 56.5 134.5t134.5 56.5t134 -56.5t56 -134.5t-56 -134t-134 -56t-134.5 56t-56.5 134z" />
<glyph unicode="&#xb8;" d="M291 -195l162 236h174l-103 -143q81 0 131 -32t50 -99q0 -87 -102.5 -148t-291.5 -78l-18 113q74 8 123 32.5t49 59.5q0 24 -29.5 36.5t-75.5 12.5q-33 0 -61 -4z" />
<glyph unicode="&#xb9;" horiz-adv-x="655" d="M223 1374l19 213l362 43l37 -26l-133 -748l-236 -16l97 549z" />
<glyph unicode="&#xba;" horiz-adv-x="880" d="M80 915q0 102 38 193t100 153t143.5 98t166.5 36q156 0 251 -91.5t95 -238.5q0 -129 -64 -237.5t-169 -170t-223 -61.5q-146 0 -242 87t-96 232zM371 915q0 -39 22 -64.5t58 -25.5q53 0 94 77t41 177q0 42 -21 64t-55 22q-50 0 -94.5 -74t-44.5 -176z" />
<glyph unicode="&#xbb;" horiz-adv-x="1392" d="M29 127l358 358l-209 346l168 109l375 -467l-2 -18l-559 -463zM541 127l358 358l-209 346l168 109l375 -467l-2 -18l-559 -463z" />
<glyph unicode="&#xbc;" horiz-adv-x="1597" d="M135 -39l631 746l590 733l94 -64l-612 -714l-611 -768zM201 1169l18 213l363 43l36 -26l-133 -748l-235 -16l96 549zM780 92v125l387 459l252 20l-71 -424l77 4l-30 -163l-78 -4l-14 -80l-3 -99l-229 -20l33 192zM979 258l4 -8l150 12l38 223h-8z" />
<glyph unicode="&#xbd;" horiz-adv-x="1597" d="M135 -39l631 746l590 733l94 -64l-612 -714l-611 -768zM201 1169l18 213l363 43l36 -26l-133 -748l-235 -16l96 549zM803 25q215 148 310 252t95 159q0 32 -19 46t-59 14q-79 0 -180 -68l-53 178q50 39 136 66.5t177 27.5q108 0 180 -43t72 -131q0 -101 -81 -203.5 t-218 -189.5l4 -10l242 27l-39 -222l-561 -20z" />
<glyph unicode="&#xbe;" horiz-adv-x="1597" d="M82 680l61 190h7q85 -45 178 -45q61 0 99 18t38 56q0 26 -23.5 40t-68.5 13l-150 -6l39 168l135 -8q49 -3 78 19t29 51q0 55 -88 55q-71 0 -166 -39h-10l-27 180q132 55 283 55q114 0 184 -45.5t70 -130.5q0 -77 -49.5 -132t-131.5 -81l-2 -10q131 -43 131 -149 q0 -62 -30 -109t-73 -73t-97.5 -42t-95 -21t-74.5 -5q-149 0 -246 51zM135 -39l631 746l590 733l94 -64l-612 -714l-611 -768zM780 92v125l387 459l252 20l-71 -424l77 4l-30 -163l-78 -4l-14 -80l-3 -99l-229 -20l33 192zM979 258l4 -8l150 12l38 223h-8z" />
<glyph unicode="&#xbf;" horiz-adv-x="1003" d="M14 37q0 76 30.5 137t80 99t109 67.5t118.5 49t108.5 37t80 38t30.5 45.5q0 41 -59 41q-58 0 -111 -27l-43 152q110 51 246 51q123 0 200 -52.5t77 -152.5q0 -59 -27.5 -105.5t-72 -76t-98 -53.5t-107 -42t-98 -36t-72 -42.5t-27.5 -55.5q0 -38 30.5 -58t77.5 -20 q110 0 230 63l59 -248q-180 -88 -387 -88q-103 0 -186.5 30.5t-136 94.5t-52.5 152zM543 1010q0 79 53.5 133.5t134.5 54.5q85 0 139 -54t54 -143q0 -78 -54 -131t-135 -53q-89 0 -140.5 56.5t-51.5 136.5z" />
<glyph unicode="&#xc0;" horiz-adv-x="1433" d="M-106 4l841 1378l328 21l235 -1393l-370 -20l-37 237l-479 -16l-119 -201l-393 -20zM584 504l266 12l-39 379h-18zM608 1765v21h295l207 -254v-16h-229z" />
<glyph unicode="&#xc1;" horiz-adv-x="1433" d="M-106 4l841 1378l328 21l235 -1393l-370 -20l-37 237l-479 -16l-119 -201l-393 -20zM584 504l266 12l-39 379h-18zM731 1516v16l254 254h320v-21l-353 -249h-221z" />
<glyph unicode="&#xc2;" horiz-adv-x="1433" d="M-106 4l841 1378l328 21l235 -1393l-370 -20l-37 237l-479 -16l-119 -201l-393 -20zM584 504l266 12l-39 379h-18zM588 1516l2 16l315 254h156l211 -254l-2 -16h-178l-138 108l-172 -108h-194z" />
<glyph unicode="&#xc3;" horiz-adv-x="1433" d="M-106 4l841 1378l328 21l235 -1393l-370 -20l-37 237l-479 -16l-119 -201l-393 -20zM584 504l266 12l-39 379h-18zM590 1550q0 145 60.5 219t154.5 74q37 0 73.5 -20t62 -43.5t57 -43.5t59.5 -20q35 0 55.5 32t20.5 85h153q0 -129 -60 -211t-155 -82q-41 0 -79.5 19.5 t-62 43t-55 43t-61.5 19.5q-33 0 -51.5 -31t-18.5 -84h-153z" />
<glyph unicode="&#xc4;" horiz-adv-x="1433" d="M-106 4l841 1378l328 21l235 -1393l-370 -20l-37 237l-479 -16l-119 -201l-393 -20zM584 504l266 12l-39 379h-18zM600 1653q0 57 44 100t101 43q58 0 100 -43t42 -100q0 -56 -42 -98t-100 -42q-57 0 -101 42.5t-44 97.5zM993 1653q0 57 43.5 100t100.5 43 q54 0 98.5 -43.5t44.5 -99.5q0 -55 -45 -97.5t-98 -42.5q-57 0 -100.5 42.5t-43.5 97.5z" />
<glyph unicode="&#xc5;" horiz-adv-x="1433" d="M-106 4l841 1378l328 21l235 -1393l-370 -20l-37 237l-479 -16l-119 -201l-393 -20zM584 504l266 12l-39 379h-18zM723 1722q0 97 67 164.5t164 67.5t164.5 -67.5t67.5 -164.5t-67.5 -164t-164.5 -67t-164 67t-67 164zM858 1722q0 -44 26 -73t68 -29q41 0 69 29.5 t28 72.5q0 42 -28.5 74.5t-68.5 32.5q-41 0 -67.5 -32t-26.5 -75z" />
<glyph unicode="&#xc6;" horiz-adv-x="1925" d="M-106 4l1052 1378h160l858 21l-70 -336l-508 -14l-32 -191l448 10l-65 -315l-439 -10l-38 -211l538 10l-67 -336l-908 -20l43 235l-420 -14l-153 -201l-393 -20zM666 508l256 10l41 215l38 219h-20z" />
<glyph unicode="&#xc7;" horiz-adv-x="1331" d="M61 569q0 185 69 346.5t184.5 271.5t266.5 173t314 63q129 0 237.5 -31.5t223.5 -121.5l-191 -312h-10q-56 58 -127.5 86.5t-144.5 28.5q-72 0 -143.5 -28.5t-133.5 -83t-100.5 -146t-38.5 -205.5q0 -142 80.5 -215t212.5 -73q67 0 142.5 25t139.5 67h11l131 -301 q-98 -64 -215 -100t-234 -42l-51 -73q81 0 130.5 -32t49.5 -99q0 -87 -102 -148t-291 -78l-18 113q74 8 123 32.5t49 59.5q0 24 -29.5 36.5t-75.5 12.5q-33 0 -61 -4l-8 14l116 172q-237 32 -371.5 191.5t-134.5 400.5z" />
<glyph unicode="&#xc8;" horiz-adv-x="1105" d="M-6 -10l139 743l72 445l16 204l924 21l-70 -336l-508 -14l-32 -191l448 10l-65 -315l-439 -10l-39 -211l539 10l-68 -336zM389 1765v21h295l207 -254v-16h-229z" />
<glyph unicode="&#xc9;" horiz-adv-x="1105" d="M-6 -10l139 743l72 445l16 204l924 21l-70 -336l-508 -14l-32 -191l448 10l-65 -315l-439 -10l-39 -211l539 10l-68 -336zM512 1516v16l254 254h319v-21l-352 -249h-221z" />
<glyph unicode="&#xca;" horiz-adv-x="1105" d="M-6 -10l139 743l72 445l16 204l924 21l-70 -336l-508 -14l-32 -191l448 10l-65 -315l-439 -10l-39 -211l539 10l-68 -336zM369 1516l2 16l315 254h156l211 -254l-2 -16h-179l-137 108l-172 -108h-194z" />
<glyph unicode="&#xcb;" horiz-adv-x="1105" d="M-6 -10l139 743l72 445l16 204l924 21l-70 -336l-508 -14l-32 -191l448 10l-65 -315l-439 -10l-39 -211l539 10l-68 -336zM381 1653q0 57 44 100t101 43q58 0 100 -43t42 -100q0 -56 -42 -98t-100 -42q-57 0 -101 42.5t-44 97.5zM774 1653q0 57 43.5 100t100.5 43 q54 0 98.5 -43.5t44.5 -99.5q0 -55 -45 -97.5t-98 -42.5q-57 0 -100.5 42.5t-43.5 97.5z" />
<glyph unicode="&#xcc;" horiz-adv-x="655" d="M12 -10l146 764l71 442l13 186l411 21l-133 -684l-71 -481l-19 -228zM164 1765v21h295l207 -254v-16h-230z" />
<glyph unicode="&#xcd;" horiz-adv-x="655" d="M12 -10l146 764l71 442l13 186l411 21l-133 -684l-71 -481l-19 -228zM287 1516v16l254 254h319v-21l-352 -249h-221z" />
<glyph unicode="&#xce;" horiz-adv-x="655" d="M12 -10l146 764l71 442l13 186l411 21l-133 -684l-71 -481l-19 -228zM143 1516l2 16l316 254h155l211 -254l-2 -16h-178l-137 108l-172 -108h-195z" />
<glyph unicode="&#xcf;" horiz-adv-x="655" d="M12 -10l146 764l71 442l13 186l411 21l-133 -684l-71 -481l-19 -228zM156 1653q0 57 44 100t101 43q58 0 99.5 -42.5t41.5 -100.5q0 -56 -41.5 -98t-99.5 -42q-57 0 -101 42.5t-44 97.5zM549 1653q0 57 43 100t100 43q54 0 99 -43.5t45 -99.5q0 -55 -45 -97.5t-99 -42.5 q-57 0 -100 42t-43 98z" />
<glyph unicode="&#xd0;" horiz-adv-x="1413" d="M-18 604l20 146l129 4l78 485l8 143l428 21q187 8 348 -59.5t262 -207.5t101 -325q0 -174 -66 -322.5t-177 -249t-255.5 -159.5t-302.5 -66l-561 -24l110 618zM440 328l133 8q72 5 140 35t124.5 83.5t91 137.5t34.5 186q0 74 -25.5 133t-66.5 94t-91 52t-102 14l-109 -6 l-61 -301l166 6l-21 -145l-170 -7z" />
<glyph unicode="&#xd1;" horiz-adv-x="1556" d="M-6 -10l149 815l95 577l286 21l518 -791h11l86 566l16 204l414 21l-137 -739l-107 -654l-291 -20l-516 780h-10l-90 -580l-12 -180zM567 1550q0 145 60.5 219t154.5 74q37 0 73.5 -20t62 -43.5t57 -43.5t59.5 -20q35 0 55.5 32t20.5 85h154q0 -129 -60 -211t-155 -82 q-41 0 -79.5 19.5t-62 43t-55 43t-61.5 19.5q-33 0 -51.5 -31t-18.5 -84h-154z" />
<glyph unicode="&#xd2;" horiz-adv-x="1597" d="M61 551q0 189 68 353t184 277t272 177.5t328 64.5q181 0 323 -72.5t224 -210.5t82 -319q0 -182 -64.5 -340.5t-176.5 -270.5t-268.5 -176.5t-334.5 -64.5q-290 0 -463.5 155.5t-173.5 426.5zM467 594q0 -136 75 -209.5t203 -73.5q164 0 280.5 141t113.5 357 q-1 130 -75.5 201t-195.5 71q-73 0 -143 -32t-128.5 -91t-94 -154t-35.5 -210zM606 1765v21h295l207 -254v-16h-229z" />
<glyph unicode="&#xd3;" horiz-adv-x="1597" d="M61 551q0 189 68 353t184 277t272 177.5t328 64.5q181 0 323 -72.5t224 -210.5t82 -319q0 -182 -64.5 -340.5t-176.5 -270.5t-268.5 -176.5t-334.5 -64.5q-290 0 -463.5 155.5t-173.5 426.5zM467 594q0 -136 75 -209.5t203 -73.5q164 0 280.5 141t113.5 357 q-1 130 -75.5 201t-195.5 71q-73 0 -143 -32t-128.5 -91t-94 -154t-35.5 -210zM729 1516v16l254 254h320v-21l-353 -249h-221z" />
<glyph unicode="&#xd4;" horiz-adv-x="1597" d="M61 551q0 189 68 353t184 277t272 177.5t328 64.5q181 0 323 -72.5t224 -210.5t82 -319q0 -182 -64.5 -340.5t-176.5 -270.5t-268.5 -176.5t-334.5 -64.5q-290 0 -463.5 155.5t-173.5 426.5zM467 594q0 -136 75 -209.5t203 -73.5q164 0 280.5 141t113.5 357 q-1 130 -75.5 201t-195.5 71q-73 0 -143 -32t-128.5 -91t-94 -154t-35.5 -210zM586 1516l2 16l315 254h156l211 -254l-2 -16h-178l-138 108l-172 -108h-194z" />
<glyph unicode="&#xd5;" horiz-adv-x="1597" d="M61 551q0 189 68 353t184 277t272 177.5t328 64.5q181 0 323 -72.5t224 -210.5t82 -319q0 -182 -64.5 -340.5t-176.5 -270.5t-268.5 -176.5t-334.5 -64.5q-290 0 -463.5 155.5t-173.5 426.5zM467 594q0 -136 75 -209.5t203 -73.5q164 0 280.5 141t113.5 357 q-1 130 -75.5 201t-195.5 71q-73 0 -143 -32t-128.5 -91t-94 -154t-35.5 -210zM588 1550q0 145 60.5 219t154.5 74q37 0 73.5 -20t62 -43.5t57 -43.5t59.5 -20q35 0 55 32t20 85h154q0 -129 -60 -211t-155 -82q-41 0 -79.5 19.5t-62 43t-55 43t-61.5 19.5q-33 0 -51.5 -31 t-18.5 -84h-153z" />
<glyph unicode="&#xd6;" horiz-adv-x="1597" d="M61 551q0 189 68 353t184 277t272 177.5t328 64.5q181 0 323 -72.5t224 -210.5t82 -319q0 -182 -64.5 -340.5t-176.5 -270.5t-268.5 -176.5t-334.5 -64.5q-290 0 -463.5 155.5t-173.5 426.5zM467 594q0 -136 75 -209.5t203 -73.5q164 0 280.5 141t113.5 357 q-1 130 -75.5 201t-195.5 71q-73 0 -143 -32t-128.5 -91t-94 -154t-35.5 -210zM598 1653q0 57 44 100t101 43q58 0 100 -43t42 -100q0 -56 -42 -98t-100 -42q-57 0 -101 42.5t-44 97.5zM991 1653q0 57 43.5 100t100.5 43q54 0 98.5 -43.5t44.5 -99.5q0 -55 -45 -97.5 t-98 -42.5q-57 0 -100.5 42.5t-43.5 97.5z" />
<glyph unicode="&#xd7;" horiz-adv-x="1085" d="M92 326l291 290l-291 291l160 160l291 -291l291 291l159 -160l-291 -291l291 -290l-159 -160l-291 291l-291 -291z" />
<glyph unicode="&#xd8;" horiz-adv-x="1597" d="M61 551q0 189 68 353t184 277t272 177.5t328 64.5q198 0 353 -90l120 140l95 -76l-117 -137q178 -167 178 -439q0 -182 -64.5 -340.5t-176.5 -270.5t-268.5 -176.5t-334.5 -64.5q-212 0 -368 86l-142 -164l-94 76l137 160q-170 156 -170 424zM467 594q0 -83 33 -154 l518 604q-61 37 -150 37q-73 0 -143 -32t-128.5 -91t-94 -154t-35.5 -210zM584 352q65 -41 161 -41q164 0 280.5 141t113.5 357q-3 90 -37 147z" />
<glyph unicode="&#xd9;" horiz-adv-x="1454" d="M76.5 414.5q-2.5 46.5 7.5 91.5l123 690l12 186l406 21l-148 -850q-19 -110 24.5 -176t162.5 -66q104 0 177 58t95 184l117 661l10 168l405 21l-151 -871q-44 -254 -222.5 -408.5t-459.5 -154.5q-84 0 -157.5 13.5t-129 37t-102 56.5t-76 72t-52.5 83.5t-31 90.5 t-10.5 92.5zM549 1765v21h295l207 -254v-16h-230z" />
<glyph unicode="&#xda;" horiz-adv-x="1454" d="M76.5 414.5q-2.5 46.5 7.5 91.5l123 690l12 186l406 21l-148 -850q-19 -110 24.5 -176t162.5 -66q104 0 177 58t95 184l117 661l10 168l405 21l-151 -871q-44 -254 -222.5 -408.5t-459.5 -154.5q-84 0 -157.5 13.5t-129 37t-102 56.5t-76 72t-52.5 83.5t-31 90.5 t-10.5 92.5zM672 1516v16l254 254h319v-21l-352 -249h-221z" />
<glyph unicode="&#xdb;" horiz-adv-x="1454" d="M76.5 414.5q-2.5 46.5 7.5 91.5l123 690l12 186l406 21l-148 -850q-19 -110 24.5 -176t162.5 -66q104 0 177 58t95 184l117 661l10 168l405 21l-151 -871q-44 -254 -222.5 -408.5t-459.5 -154.5q-84 0 -157.5 13.5t-129 37t-102 56.5t-76 72t-52.5 83.5t-31 90.5 t-10.5 92.5zM528 1516l2 16l316 254h155l211 -254l-2 -16h-178l-137 108l-172 -108h-195z" />
<glyph unicode="&#xdc;" horiz-adv-x="1454" d="M76.5 414.5q-2.5 46.5 7.5 91.5l123 690l12 186l406 21l-148 -850q-19 -110 24.5 -176t162.5 -66q104 0 177 58t95 184l117 661l10 168l405 21l-151 -871q-44 -254 -222.5 -408.5t-459.5 -154.5q-84 0 -157.5 13.5t-129 37t-102 56.5t-76 72t-52.5 83.5t-31 90.5 t-10.5 92.5zM541 1653q0 57 44 100t101 43q58 0 99.5 -42.5t41.5 -100.5q0 -56 -41.5 -98t-99.5 -42q-57 0 -101 42.5t-44 97.5zM934 1653q0 57 43 100t100 43q54 0 99 -43.5t45 -99.5q0 -55 -45 -97.5t-99 -42.5q-57 0 -100 42t-43 98z" />
<glyph unicode="&#xdd;" horiz-adv-x="1290" d="M104 1382l394 11l180 -467l332 456l407 21l6 -17l-602 -796l-69 -395l-13 -185l-405 -20l102 600zM578 1516v16l253 254h320v-21l-352 -249h-221z" />
<glyph unicode="&#xde;" horiz-adv-x="1208" d="M-10 -10l215 1231l8 161l405 21l-38 -223l129 4q221 0 340.5 -105.5t119.5 -302.5q0 -147 -81 -269.5t-226.5 -194.5t-322.5 -72l-125 -4l-13 -72l-6 -154zM465 532l94 7q80 0 148 54t67 142q0 67 -43 104.5t-113 37.5l-94 -7z" />
<glyph unicode="&#xdf;" horiz-adv-x="1392" d="M6 -211l150 885h-123l37 227l137 76l4 29q33 186 198 298.5t390 112.5q145 0 258.5 -51t176.5 -142t74.5 -216t-46.5 -273q-103 20 -190 5.5t-87 -58.5q0 -21 22.5 -42t56 -39.5t73 -47t73 -61t56 -86t22.5 -117.5q0 -152 -121 -235t-309 -83q-202 0 -315 82l98 258 q96 -67 211 -67q90 0 90 49q0 23 -21 46.5t-52.5 43.5t-68 48.5t-68 58.5t-52.5 76.5t-21 99.5q0 135 78 213.5t217 99.5q16 70 -27.5 115t-140.5 45q-92 0 -148.5 -56t-68.5 -131l-168 -972l-12 -170z" />
<glyph unicode="&#xe0;" d="M-18 225q0 72 28 154q87 90 247.5 147.5t311.5 59.5l6 41q6 43 -25 62.5t-85 19.5q-61 0 -138 -25t-145 -68l-76 236q84 57 212 96t241 39q194 0 294 -103t67 -294l-62 -348q-21 -118 33 -158v-12l-246 -103q-35 16 -57 61.5t-25 96.5h-10q-61 -56 -159 -103t-193 -55 q-102 15 -160.5 80.5t-58.5 175.5zM313 1393l4 20h285l172 -315l-4 -17h-197zM333.5 275q16.5 -34 53.5 -39q39 4 81 26t62 49l17 107q-61 9 -122.5 -11.5t-90.5 -54.5q-17 -43 -0.5 -77z" />
<glyph unicode="&#xe1;" d="M-18 225q0 72 28 154q87 90 247.5 147.5t311.5 59.5l6 41q6 43 -25 62.5t-85 19.5q-61 0 -138 -25t-145 -68l-76 236q84 57 212 96t241 39q194 0 294 -103t67 -294l-62 -348q-21 -118 33 -158v-12l-246 -103q-35 16 -57 61.5t-25 96.5h-10q-61 -56 -159 -103t-193 -55 q-102 15 -160.5 80.5t-58.5 175.5zM333.5 275q16.5 -34 53.5 -39q39 4 81 26t62 49l17 107q-61 9 -122.5 -11.5t-90.5 -54.5q-17 -43 -0.5 -77zM393 1081l4 17l262 315h306l-4 -20l-351 -312h-217z" />
<glyph unicode="&#xe2;" d="M-18 225q0 72 28 154q87 90 247.5 147.5t311.5 59.5l6 41q6 43 -25 62.5t-85 19.5q-61 0 -138 -25t-145 -68l-76 236q84 57 212 96t241 39q194 0 294 -103t67 -294l-62 -348q-21 -118 33 -158v-12l-246 -103q-35 16 -57 61.5t-25 96.5h-10q-61 -56 -159 -103t-193 -55 q-102 15 -160.5 80.5t-58.5 175.5zM264 1081l4 17l328 315h125l188 -315l-4 -17h-160l-118 150l-181 -150h-182zM333.5 275q16.5 -34 53.5 -39q39 4 81 26t62 49l17 107q-61 9 -122.5 -11.5t-90.5 -54.5q-17 -43 -0.5 -77z" />
<glyph unicode="&#xe3;" d="M-18 225q0 72 28 154q87 90 247.5 147.5t311.5 59.5l6 41q6 43 -25 62.5t-85 19.5q-61 0 -138 -25t-145 -68l-76 236q84 57 212 96t241 39q194 0 294 -103t67 -294l-62 -348q-21 -118 33 -158v-12l-246 -103q-35 16 -57 61.5t-25 96.5h-10q-61 -56 -159 -103t-193 -55 q-102 15 -160.5 80.5t-58.5 175.5zM248 1116q0 145 60.5 219t154.5 74q37 0 73.5 -20t62 -43.5t57 -43.5t59.5 -20q35 0 55.5 32t20.5 85h153q0 -129 -60 -211t-155 -82q-41 0 -79.5 19.5t-62 43t-55 43t-61.5 19.5q-33 0 -51.5 -31t-18.5 -84h-153zM333.5 275 q16.5 -34 53.5 -39q39 4 81 26t62 49l17 107q-61 9 -122.5 -11.5t-90.5 -54.5q-17 -43 -0.5 -77z" />
<glyph unicode="&#xe4;" d="M-18 225q0 72 28 154q87 90 247.5 147.5t311.5 59.5l6 41q6 43 -25 62.5t-85 19.5q-61 0 -138 -25t-145 -68l-76 236q84 57 212 96t241 39q194 0 294 -103t67 -294l-62 -348q-21 -118 33 -158v-12l-246 -103q-35 16 -57 61.5t-25 96.5h-10q-61 -56 -159 -103t-193 -55 q-102 15 -160.5 80.5t-58.5 175.5zM258 1219q0 57 44 100t101 43q58 0 100 -43t42 -100q0 -56 -42 -98t-100 -42q-57 0 -101 42.5t-44 97.5zM333.5 275q16.5 -34 53.5 -39q39 4 81 26t62 49l17 107q-61 9 -122.5 -11.5t-90.5 -54.5q-17 -43 -0.5 -77zM651 1219 q0 57 43.5 100t100.5 43q54 0 98.5 -43.5t44.5 -99.5q0 -55 -45 -97.5t-98 -42.5q-57 0 -100.5 42.5t-43.5 97.5z" />
<glyph unicode="&#xe5;" d="M-18 225q0 72 28 154q87 90 247.5 147.5t311.5 59.5l6 41q6 43 -25 62.5t-85 19.5q-61 0 -138 -25t-145 -68l-76 236q84 57 212 96t241 39q194 0 294 -103t67 -294l-62 -348q-21 -118 33 -158v-12l-246 -103q-35 16 -57 61.5t-25 96.5h-10q-61 -56 -159 -103t-193 -55 q-102 15 -160.5 80.5t-58.5 175.5zM333.5 275q16.5 -34 53.5 -39q39 4 81 26t62 49l17 107q-61 9 -122.5 -11.5t-90.5 -54.5q-17 -43 -0.5 -77zM381 1288q0 97 67 164.5t164 67.5t164.5 -67.5t67.5 -164.5t-67.5 -164t-164.5 -67t-164 67t-67 164zM516 1288q0 -44 26 -73 t68 -29q41 0 69 29.5t28 72.5q0 42 -28.5 74.5t-68.5 32.5q-41 0 -67.5 -32t-26.5 -75z" />
<glyph unicode="&#xe6;" horiz-adv-x="1556" d="M-18 205q0 79 26 174q88 87 250.5 146t310.5 61l6 41q6 43 -25 62.5t-85 19.5q-61 0 -138 -25t-145 -68l-76 236q84 57 212 96t241 39q89 0 158 -34t108 -101q148 135 314 135q155 0 255.5 -100.5t100.5 -237.5q0 -82 -27 -162q-129 -56 -286.5 -86.5t-298.5 -27.5 q10 -121 198 -121q85 0 177.5 24.5t146.5 67.5l10 -4l-63 -272q-146 -97 -394 -97q-252 0 -346 172q-197 -149 -411 -172q-40 4 -78 21t-70 45t-51.5 72t-19.5 96zM333.5 275q16.5 -34 53.5 -39q45 4 92.5 26t71.5 49l-4 107q-61 9 -122.5 -11.5t-90.5 -54.5 q-17 -43 -0.5 -77zM909 537q48 -3 143 7.5t124 24.5q0 60 -27.5 99t-75.5 39q-50 0 -96.5 -50t-67.5 -120z" />
<glyph unicode="&#xe7;" horiz-adv-x="901" d="M-2 375q0 130 48 246t127.5 195t183 125t212.5 46q183 0 328 -106l-82 -256h-12q-75 71 -185 71q-101 0 -173 -72.5t-72 -177.5q0 -88 54 -136t132 -48q110 0 201 62h12l25 -252q-132 -87 -310 -99l-53 -75q81 0 130.5 -32t49.5 -99q0 -87 -102 -148t-291 -78l-18 113 q74 8 123 32.5t49 59.5q0 24 -29.5 36.5t-75.5 12.5q-33 0 -61 -4l-8 14l121 179q-152 31 -238 141.5t-86 249.5z" />
<glyph unicode="&#xe8;" d="M2 342q0 132 50.5 252.5t133.5 206t193 136t227 50.5q155 0 256 -100.5t101 -237.5q0 -82 -27 -162q-129 -56 -287 -86.5t-299 -27.5q10 -121 199 -121q84 0 176.5 24.5t146.5 67.5l11 -4l-64 -272q-145 -97 -393 -97q-194 0 -309 96t-115 275zM338 1393l4 20h285 l172 -315l-4 -17h-197zM377 537q48 -3 142.5 7.5t123.5 24.5q0 61 -27 99.5t-75 38.5q-50 0 -96.5 -50t-67.5 -120z" />
<glyph unicode="&#xe9;" d="M2 342q0 132 50.5 252.5t133.5 206t193 136t227 50.5q155 0 256 -100.5t101 -237.5q0 -82 -27 -162q-129 -56 -287 -86.5t-299 -27.5q10 -121 199 -121q84 0 176.5 24.5t146.5 67.5l11 -4l-64 -272q-145 -97 -393 -97q-194 0 -309 96t-115 275zM377 537q48 -3 142.5 7.5 t123.5 24.5q0 61 -27 99.5t-75 38.5q-50 0 -96.5 -50t-67.5 -120zM418 1081l4 17l262 315h305l-4 -20l-350 -312h-217z" />
<glyph unicode="&#xea;" d="M2 342q0 132 50.5 252.5t133.5 206t193 136t227 50.5q155 0 256 -100.5t101 -237.5q0 -82 -27 -162q-129 -56 -287 -86.5t-299 -27.5q10 -121 199 -121q84 0 176.5 24.5t146.5 67.5l11 -4l-64 -272q-145 -97 -393 -97q-194 0 -309 96t-115 275zM289 1081l4 17l328 315 h124l189 -315l-4 -17h-160l-119 150l-180 -150h-182zM377 537q48 -3 142.5 7.5t123.5 24.5q0 61 -27 99.5t-75 38.5q-50 0 -96.5 -50t-67.5 -120z" />
<glyph unicode="&#xeb;" d="M2 342q0 132 50.5 252.5t133.5 206t193 136t227 50.5q155 0 256 -100.5t101 -237.5q0 -82 -27 -162q-129 -56 -287 -86.5t-299 -27.5q10 -121 199 -121q84 0 176.5 24.5t146.5 67.5l11 -4l-64 -272q-145 -97 -393 -97q-194 0 -309 96t-115 275zM283 1219q0 57 44 100 t101 43q58 0 99.5 -42.5t41.5 -100.5q0 -56 -41.5 -98t-99.5 -42q-57 0 -101 42.5t-44 97.5zM377 537q48 -3 142.5 7.5t123.5 24.5q0 61 -27 99.5t-75 38.5q-50 0 -96.5 -50t-67.5 -120zM676 1219q0 57 43 100t100 43q54 0 99 -43.5t45 -99.5q0 -55 -45 -97.5t-99 -42.5 q-57 0 -100 42t-43 98z" />
<glyph unicode="&#xec;" horiz-adv-x="552" d="M-29 -10l133 760l11 180l395 39l-141 -797l-9 -162zM59 1393l4 20h285l172 -315l-4 -17h-197z" />
<glyph unicode="&#xed;" horiz-adv-x="552" d="M-29 -10l133 760l11 180l395 39l-141 -797l-9 -162zM139 1081l4 17l263 315h305l-4 -20l-351 -312h-217z" />
<glyph unicode="&#xee;" horiz-adv-x="552" d="M-29 -10l133 760l11 180l395 39l-141 -797l-9 -162zM10 1081l4 17l328 315h125l188 -315l-4 -17h-159l-119 150l-180 -150h-183z" />
<glyph unicode="&#xef;" horiz-adv-x="552" d="M-29 -10l133 760l11 180l395 39l-141 -797l-9 -162zM4 1219q0 57 44.5 100t101.5 43q58 0 99.5 -42.5t41.5 -100.5q0 -56 -41.5 -98t-99.5 -42q-57 0 -101.5 42.5t-44.5 97.5zM397 1219q0 57 43.5 100t100.5 43q54 0 98.5 -43.5t44.5 -99.5q0 -55 -45 -97.5t-98 -42.5 q-57 0 -100.5 42.5t-43.5 97.5z" />
<glyph unicode="&#xf0;" horiz-adv-x="1085" d="M2 381q0 118 48 226.5t124 184t170.5 120t185.5 44.5q80 0 124 -14.5t79 -46.5l8 4q-22 94 -151 180l-92 -84l-80 88l59 54q-80 30 -137 37l121 249q132 -40 229 -92l115 105l82 -88l-92 -84q239 -184 239 -516q0 -215 -74.5 -392t-211 -281t-306.5 -104 q-195 0 -317.5 113.5t-122.5 296.5zM377 406q0 -67 25 -105.5t71 -38.5q44 0 85 50t63 123t18 140q0 121 -86 121q-73 0 -124.5 -85t-51.5 -205z" />
<glyph unicode="&#xf1;" horiz-adv-x="1105" d="M-33 -10l133 758l15 200l346 21l4 -133h14q126 151 299 151q52 0 99.5 -20.5t84.5 -59.5t52.5 -104t1.5 -146l-86 -479l-8 -168l-390 -20l99 571q11 62 -13 90.5t-63 28.5q-61 0 -111 -64l-77 -438l-11 -168zM262 1116q0 145 60.5 219t154.5 74q37 0 73.5 -20t62 -43.5 t57 -43.5t59.5 -20q35 0 55.5 32t20.5 85h153q0 -129 -60 -211t-155 -82q-41 0 -79.5 19.5t-62 43t-55 43t-61.5 19.5q-33 0 -51 -31t-18 -84h-154z" />
<glyph unicode="&#xf2;" horiz-adv-x="1085" d="M2 379q0 130 48 244.5t127 193.5t182 124.5t212 45.5q199 0 321 -116.5t122 -303.5q0 -163 -82 -301.5t-216 -216.5t-284 -78q-186 0 -308 111.5t-122 296.5zM338 1393l4 20h285l172 -315l-4 -17h-197zM385 477q-40 -215 88 -215q50 0 94.5 55.5t63.5 159.5 q37 219 -84 219q-57 0 -100.5 -57t-61.5 -162z" />
<glyph unicode="&#xf3;" horiz-adv-x="1085" d="M2 379q0 130 48 244.5t127 193.5t182 124.5t212 45.5q199 0 321 -116.5t122 -303.5q0 -163 -82 -301.5t-216 -216.5t-284 -78q-186 0 -308 111.5t-122 296.5zM385 477q-40 -215 88 -215q50 0 94.5 55.5t63.5 159.5q37 219 -84 219q-57 0 -100.5 -57t-61.5 -162zM418 1081 l4 17l262 315h305l-4 -20l-350 -312h-217z" />
<glyph unicode="&#xf4;" horiz-adv-x="1085" d="M2 379q0 130 48 244.5t127 193.5t182 124.5t212 45.5q199 0 321 -116.5t122 -303.5q0 -163 -82 -301.5t-216 -216.5t-284 -78q-186 0 -308 111.5t-122 296.5zM289 1081l4 17l328 315h124l189 -315l-4 -17h-160l-119 150l-180 -150h-182zM385 477q-40 -215 88 -215 q50 0 94.5 55.5t63.5 159.5q37 219 -84 219q-57 0 -100.5 -57t-61.5 -162z" />
<glyph unicode="&#xf5;" horiz-adv-x="1085" d="M2 379q0 130 48 244.5t127 193.5t182 124.5t212 45.5q199 0 321 -116.5t122 -303.5q0 -163 -82 -301.5t-216 -216.5t-284 -78q-186 0 -308 111.5t-122 296.5zM272 1116q0 145 60.5 219t154.5 74q37 0 73.5 -20t62 -43.5t57 -43.5t59.5 -20q35 0 55.5 32t20.5 85h154 q0 -129 -60 -211t-155 -82q-41 0 -79.5 19.5t-62 43t-55 43t-61.5 19.5q-33 0 -51.5 -31t-18.5 -84h-154zM385 477q-40 -215 88 -215q50 0 94.5 55.5t63.5 159.5q37 219 -84 219q-57 0 -100.5 -57t-61.5 -162z" />
<glyph unicode="&#xf6;" horiz-adv-x="1085" d="M2 379q0 130 48 244.5t127 193.5t182 124.5t212 45.5q199 0 321 -116.5t122 -303.5q0 -163 -82 -301.5t-216 -216.5t-284 -78q-186 0 -308 111.5t-122 296.5zM283 1219q0 57 44 100t101 43q58 0 99.5 -42.5t41.5 -100.5q0 -56 -41.5 -98t-99.5 -42q-57 0 -101 42.5 t-44 97.5zM385 477q-40 -215 88 -215q50 0 94.5 55.5t63.5 159.5q37 219 -84 219q-57 0 -100.5 -57t-61.5 -162zM676 1219q0 57 43 100t100 43q54 0 99 -43.5t45 -99.5q0 -55 -45 -97.5t-99 -42.5q-57 0 -100 42t-43 98z" />
<glyph unicode="&#xf7;" horiz-adv-x="1085" d="M68 504v225h950v-225h-950zM387 254q0 65 45 110.5t111 45.5q64 0 109.5 -45.5t45.5 -110.5q0 -66 -45 -111t-110 -45q-66 0 -111 45t-45 111zM387 979q0 65 45 110.5t111 45.5q64 0 109.5 -45.5t45.5 -110.5q0 -66 -45 -111t-110 -45q-66 0 -111 45t-45 111z" />
<glyph unicode="&#xf8;" horiz-adv-x="1085" d="M2 379q0 130 48 244.5t127 193.5t182 124.5t212 45.5q122 0 222 -49l57 82l98 -68l-57 -80q123 -117 123 -305q0 -123 -48 -233t-127.5 -187t-185 -122t-217.5 -45q-113 0 -213 43l-69 -97l-99 68l68 94q-121 108 -121 291zM375 389l229 287q-23 20 -57 20 q-57 0 -100.5 -57t-61.5 -162q-10 -58 -10 -88zM410 283q24 -21 63 -21q50 0 94.5 55.5t63.5 159.5q8 47 8 92z" />
<glyph unicode="&#xf9;" horiz-adv-x="1105" d="M18 326l80 454l11 168l389 21l-99 -572q-11 -61 12.5 -89.5t57.5 -28.5q35 0 69 19.5t48 45.5l78 438l10 166l391 21l-143 -801l-7 -158l-344 -20v127h-16q-61 -63 -141.5 -104.5t-165.5 -41.5q-119 0 -189.5 92.5t-40.5 262.5zM330 1393l4 20h284l173 -315l-5 -17h-196z " />
<glyph unicode="&#xfa;" horiz-adv-x="1105" d="M18 326l80 454l11 168l389 21l-99 -572q-11 -61 12.5 -89.5t57.5 -28.5q35 0 69 19.5t48 45.5l78 438l10 166l391 21l-143 -801l-7 -158l-344 -20v127h-16q-61 -63 -141.5 -104.5t-165.5 -41.5q-119 0 -189.5 92.5t-40.5 262.5zM410 1081l4 17l262 315h305l-4 -20 l-350 -312h-217z" />
<glyph unicode="&#xfb;" horiz-adv-x="1105" d="M18 326l80 454l11 168l389 21l-99 -572q-11 -61 12.5 -89.5t57.5 -28.5q35 0 69 19.5t48 45.5l78 438l10 166l391 21l-143 -801l-7 -158l-344 -20v127h-16q-61 -63 -141.5 -104.5t-165.5 -41.5q-119 0 -189.5 92.5t-40.5 262.5zM281 1081l4 17l327 315h125l189 -315 l-4 -17h-160l-119 150l-180 -150h-182z" />
<glyph unicode="&#xfc;" horiz-adv-x="1105" d="M18 326l80 454l11 168l389 21l-99 -572q-11 -61 12.5 -89.5t57.5 -28.5q35 0 69 19.5t48 45.5l78 438l10 166l391 21l-143 -801l-7 -158l-344 -20v127h-16q-61 -63 -141.5 -104.5t-165.5 -41.5q-119 0 -189.5 92.5t-40.5 262.5zM274 1219q0 57 44.5 100t101.5 43 q58 0 99.5 -42.5t41.5 -100.5q0 -56 -41.5 -98t-99.5 -42q-57 0 -101.5 42.5t-44.5 97.5zM668 1219q0 57 43 100t100 43q54 0 98.5 -43.5t44.5 -99.5q0 -55 -45 -97.5t-98 -42.5q-57 0 -100 42t-43 98z" />
<glyph unicode="&#xfd;" d="M-88 -340q90 63 164 173.5t121 244.5l-164 870l368 21l48 -514h14l223 493l375 19l10 -15l-543 -979l-188 -360l-424 -37zM369 1081l4 17l262 315h305l-4 -20l-350 -312h-217z" />
<glyph unicode="&#xfe;" horiz-adv-x="1105" d="M-106 -418l280 1600l14 202l402 35l-113 -569h6q57 52 145.5 93.5t157.5 45.5q111 -39 179.5 -132t68.5 -249q0 -133 -49.5 -255t-124 -203.5t-159.5 -130t-158 -48.5q-132 0 -187 78h-14l-45 -276l-10 -166zM367 297q34 -31 92 -31q81 0 137.5 89t56.5 227q0 44 -21 73 t-50 37q-37 -8 -80.5 -33.5t-73.5 -58.5z" />
<glyph unicode="&#xff;" d="M-88 -340q90 63 164 173.5t121 244.5l-164 870l368 21l48 -514h14l223 493l375 19l10 -15l-543 -979l-188 -360l-424 -37zM233 1219q0 57 44.5 100t101.5 43q58 0 99.5 -42.5t41.5 -100.5q0 -56 -41.5 -98t-99.5 -42q-57 0 -101.5 42.5t-44.5 97.5zM627 1219q0 57 43 100 t100 43q54 0 98.5 -43.5t44.5 -99.5q0 -55 -45 -97.5t-98 -42.5q-57 0 -100 42t-43 98z" />
<glyph unicode="&#x152;" horiz-adv-x="2007" d="M61 551q0 189 65.5 353t175.5 277t258.5 177.5t311.5 64.5q135 0 250 -41l924 21l-70 -336l-508 -14l-32 -191l448 10l-65 -315l-439 -10l-39 -211l539 10l-68 -336l-917 -20q-133 -21 -238 -21q-271 0 -433.5 155.5t-162.5 426.5zM467 594q0 -136 64.5 -209.5 t173.5 -73.5q145 0 250 141.5t102 356.5q-1 130 -64.5 201t-165.5 71q-67 0 -130 -32t-115 -91t-83.5 -154t-31.5 -210z" />
<glyph unicode="&#x153;" horiz-adv-x="1638" d="M2 379q0 130 48 244.5t127 193.5t182 124.5t212 45.5q193 0 306 -135q157 135 344 135q155 0 255.5 -100.5t100.5 -237.5q0 -82 -27 -162q-129 -56 -286.5 -86.5t-298.5 -27.5q10 -121 198 -121q85 0 177.5 24.5t146.5 67.5l10 -4l-63 -272q-146 -97 -394 -97 q-196 0 -301 111q-143 -111 -307 -111q-186 0 -308 111.5t-122 296.5zM373 379q0 -50 27.5 -83.5t72.5 -33.5q66 0 119 99t53 225q0 55 -26.5 82.5t-69.5 27.5q-63 0 -119.5 -94t-56.5 -223zM991 537q48 -3 142.5 7.5t123.5 24.5q0 61 -27 99.5t-75 38.5q-50 0 -96.5 -50 t-67.5 -120z" />
<glyph unicode="&#x178;" horiz-adv-x="1290" d="M104 1382l394 11l180 -467l332 456l407 21l6 -17l-602 -796l-69 -395l-13 -185l-405 -20l102 600zM446 1653q0 57 44.5 100t101.5 43q58 0 99.5 -42.5t41.5 -100.5q0 -56 -41.5 -98t-99.5 -42q-57 0 -101.5 42.5t-44.5 97.5zM840 1653q0 57 43 100t100 43 q54 0 98.5 -43.5t44.5 -99.5q0 -55 -45 -97.5t-98 -42.5q-57 0 -100 42t-43 98z" />
<glyph unicode="&#x2c6;" d="M195 948l4 17l327 315h125l189 -315l-4 -17h-160l-119 150l-180 -150h-182z" />
<glyph unicode="&#x2dc;" d="M178 983q0 145 60.5 219t154.5 74q37 0 73.5 -20t62 -43.5t57 -43.5t59.5 -20q35 0 55.5 32t20.5 85h153q0 -129 -60 -211t-155 -82q-41 0 -79.5 19.5t-62 43t-55 43t-61.5 19.5q-33 0 -51 -31t-18 -84h-154z" />
<glyph unicode="&#x2000;" horiz-adv-x="977" />
<glyph unicode="&#x2001;" horiz-adv-x="1954" />
<glyph unicode="&#x2002;" horiz-adv-x="977" />
<glyph unicode="&#x2003;" horiz-adv-x="1954" />
<glyph unicode="&#x2004;" horiz-adv-x="651" />
<glyph unicode="&#x2005;" horiz-adv-x="488" />
<glyph unicode="&#x2006;" horiz-adv-x="325" />
<glyph unicode="&#x2007;" horiz-adv-x="325" />
<glyph unicode="&#x2008;" horiz-adv-x="244" />
<glyph unicode="&#x2009;" horiz-adv-x="390" />
<glyph unicode="&#x200a;" horiz-adv-x="108" />
<glyph unicode="&#x2010;" horiz-adv-x="757" d="M43 338l20 285l574 20l-21 -285z" />
<glyph unicode="&#x2011;" horiz-adv-x="757" d="M43 338l20 285l574 20l-21 -285z" />
<glyph unicode="&#x2012;" horiz-adv-x="757" d="M43 338l20 285l574 20l-21 -285z" />
<glyph unicode="&#x2013;" d="M45 330l21 284l839 33l-20 -285z" />
<glyph unicode="&#x2014;" horiz-adv-x="2048" d="M141 375v231h1671v-231h-1671z" />
<glyph unicode="&#x2018;" horiz-adv-x="716" d="M143 807l2 10l199 313l199 259l202 8l-2 -11l-139 -296l-88 -275z" />
<glyph unicode="&#x2019;" horiz-adv-x="716" d="M121 807l2 10l139 297l88 275l373 8l-2 -11l-199 -313l-198 -258z" />
<glyph unicode="&#x201a;" horiz-adv-x="716" d="M-29 -350l2 10l140 297l88 274l372 9l-2 -11l-198 -313l-199 -258z" />
<glyph unicode="&#x201c;" horiz-adv-x="1228" d="M143 807l2 10l199 313l199 259l202 8l-2 -11l-139 -296l-88 -275zM655 807l2 10l199 313l199 259l202 8l-2 -11l-139 -296l-88 -275z" />
<glyph unicode="&#x201d;" horiz-adv-x="1228" d="M121 807l2 10l139 297l88 275l373 8l-2 -11l-199 -313l-198 -258zM633 807l2 10l139 297l88 275l373 8l-2 -11l-199 -313l-198 -258z" />
<glyph unicode="&#x201e;" horiz-adv-x="1228" d="M-29 -350l2 10l140 297l88 274l372 9l-2 -11l-198 -313l-199 -258zM483 -350l2 10l140 297l88 274l372 9l-2 -11l-198 -313l-199 -258z" />
<glyph unicode="&#x2022;" horiz-adv-x="983" d="M182 541q0 115 81.5 196.5t197.5 81.5q115 0 196.5 -81.5t81.5 -196.5q0 -116 -81.5 -197.5t-196.5 -81.5t-197 82t-82 197z" />
<glyph unicode="&#x2026;" horiz-adv-x="1904" d="M23 176q0 78 56 134.5t134 56.5t134 -56.5t56 -134.5t-56 -134t-134 -56t-134 56t-56 134zM678 176q0 78 56 134.5t134 56.5t134.5 -56.5t56.5 -134.5t-56.5 -134t-134.5 -56t-134 56t-56 134zM1333 176q0 78 56.5 134.5t134.5 56.5t134 -56.5t56 -134.5t-56 -134 t-134 -56t-134.5 56t-56.5 134z" />
<glyph unicode="&#x202f;" horiz-adv-x="390" />
<glyph unicode="&#x2039;" horiz-adv-x="880" d="M98 459l2 18l559 463l132 -135l-359 -359l209 -346l-168 -108z" />
<glyph unicode="&#x203a;" horiz-adv-x="880" d="M29 127l358 358l-209 346l168 109l375 -467l-2 -18l-559 -463z" />
<glyph unicode="&#x205f;" horiz-adv-x="488" />
<glyph unicode="&#x20ac;" horiz-adv-x="1269" d="M23 502l61 153h104q3 35 13 82h-127l65 154h109q65 160 182 281.5t260.5 186t292.5 64.5q217 0 356 -108l-165 -287q-99 74 -213 74q-93 0 -191 -54t-160 -157h494l-66 -154h-489q-2 -8 -12 -82h467l-62 -153h-399q22 -99 90 -155t172 -56q132 0 250 65l86 -282 q-71 -49 -171 -77t-196 -28q-264 0 -423.5 148.5t-170.5 384.5h-157z" />
<glyph unicode="&#x2122;" horiz-adv-x="1413" d="M131 1264v129h500v-129h-180v-404h-140v404h-180zM635 860l104 533h101l114 -289h9l112 289h103l104 -533h-141l-41 246h-10l-107 -250h-51l-107 250h-8l-43 -246h-139z" />
<glyph unicode="&#xe000;" horiz-adv-x="972" d="M0 0v973h973v-973h-973z" />
</font>
</defs>
</svg>
