<?xml version="1.0" standalone="no"?>
<!DOCTYPE svg PUBLIC "-//W3C//DTD SVG 1.1//EN" "http://www.w3.org/Graphics/SVG/1.1/DTD/svg11.dtd" >
<svg xmlns="http://www.w3.org/2000/svg">
<metadata></metadata>
<defs>
<font id="concourse_t4regular" horiz-adv-x="1003" >
<font-face units-per-em="2048" ascent="1520" descent="-528" />
<missing-glyph horiz-adv-x="450" />
<glyph unicode="&#xfb01;" horiz-adv-x="1126" d="M41 774v84l174 70v78q0 87 24 160t61 118t77 72t78 33l200 28l13 -117q-140 -21 -204.5 -92.5t-64.5 -214.5v-75h226v-144h-226v-774h-184v774h-174zM768 1274q0 51 36 87t87 36t87 -36t36 -87t-36 -87t-87 -36t-87 36t-36 87zM799 0v903l184 25v-928h-184z" />
<glyph unicode="&#xfb02;" horiz-adv-x="1126" d="M41 774v84l174 70v78q0 87 24 160t61 118t77 72t78 33l200 28l13 -117q-140 -21 -204.5 -92.5t-64.5 -214.5v-75h226v-144h-226v-774h-184v774h-174zM799 0v1393l184 24v-1417h-184z" />
<glyph horiz-adv-x="2048" />
<glyph horiz-adv-x="2048" />
<glyph unicode="&#xd;" horiz-adv-x="2048" />
<glyph unicode=" "  horiz-adv-x="450" />
<glyph unicode="&#x09;" horiz-adv-x="450" />
<glyph unicode="&#xa0;" horiz-adv-x="450" />
<glyph unicode="!" horiz-adv-x="634" d="M195 109q0 51 35.5 86.5t86.5 35.5t87 -35.5t36 -86.5t-36 -87t-87 -36t-86.5 36t-35.5 87zM197 1393h225l-29 -482l-20 -505h-119l-23 503z" />
<glyph unicode="&#x22;" horiz-adv-x="819" d="M152 1393h208l-49 -562h-112zM459 1393h209l-50 -562h-112z" />
<glyph unicode="#" horiz-adv-x="1044" d="M23 530l20 119l246 -43l73 318l-217 39l21 118l225 -41l101 433l106 -25l-98 -426l196 -35l115 467l107 -24l-113 -461l223 -39l-20 -119l-232 39l-78 -318l207 -34l-20 -119l-215 37l-129 -537l-107 25l129 530l-194 35l-131 -569l-107 24l131 563zM397 586l195 -33 l76 317l-197 35z" />
<glyph unicode="$" horiz-adv-x="962" d="M90 166l39 178q137 -93 258 -115l45 441l-10 6q-47 25 -75.5 41t-69.5 42.5t-65 52t-48.5 59t-35.5 74t-11 87.5q0 62 24 119.5t70 105t121 76.5t168 29l18 172l105 -10l-19 -170q119 -19 230 -84l-29 -166q-117 70 -217 88l-39 -393h2q177 -92 249 -185t72 -204 q0 -91 -34 -160.5t-91.5 -109.5t-126 -60t-145.5 -21l-18 -196l-105 10l19 193q-84 13 -164.5 42t-116.5 58zM287 1044q0 -57 32 -96t132 -96l32 346q-196 -11 -196 -154zM492 223q107 3 157.5 52.5t50.5 123.5q0 64 -34.5 110t-135.5 105z" />
<glyph unicode="%" horiz-adv-x="1392" d="M92 1081q0 144 80.5 239t202.5 95q133 0 214 -93.5t81 -240.5q0 -139 -83.5 -230t-205.5 -91q-124 0 -206.5 90.5t-82.5 230.5zM127 35l555 706l467 670l117 -51l-523 -662l-501 -716zM242 1083q0 -88 39.5 -141t105.5 -53q57 0 95 53t38 141q0 92 -37.5 147.5 t-101.5 55.5q-61 0 -100 -57.5t-39 -145.5zM723 299q0 144 80.5 239t202.5 95q133 0 213.5 -93.5t80.5 -240.5q0 -139 -83.5 -230.5t-204.5 -91.5q-124 0 -206.5 91t-82.5 231zM872 301q0 -88 40 -141.5t106 -53.5q57 0 95 53t38 142q0 92 -37.5 147.5t-101.5 55.5 q-61 0 -100.5 -57.5t-39.5 -145.5z" />
<glyph unicode="&#x26;" horiz-adv-x="1331" d="M94 397q0 302 301 445v10q-178 87 -178 238q0 141 119.5 237t294.5 96q172 0 332 -102l-68 -164q-61 45 -121 68.5t-137 23.5q-95 0 -159 -46t-64 -118q0 -71 47.5 -121t132.5 -65v-129q-136 -15 -220.5 -110t-84.5 -238q0 -128 100 -203.5t248 -75.5q163 0 261.5 79 t98.5 202q0 87 -43 154l-172 -41l-32 151l479 109l33 -148l-144 -35q49 -82 49 -194q0 -105 -45 -192t-120.5 -142.5t-173.5 -86t-207 -30.5q-232 0 -379.5 123.5t-147.5 304.5z" />
<glyph unicode="'" horiz-adv-x="512" d="M152 1393h208l-49 -562h-112z" />
<glyph unicode="(" horiz-adv-x="716" d="M135 557q0 316 130 559t339 389l92 -114q-161 -125 -257.5 -338t-96.5 -465q0 -516 354 -832l-92 -118q-92 74 -171 163.5t-148.5 204t-109.5 257t-40 294.5z" />
<glyph unicode=")" horiz-adv-x="716" d="M20 -244q355 317 355 832q0 252 -97 465t-258 338l93 114q209 -146 339 -389t130 -559q0 -152 -40 -294.5t-109.5 -257t-148.5 -204t-171 -163.5z" />
<glyph unicode="*" horiz-adv-x="1085" d="M143 965l64 180l291 -141l-52 389h209l-73 -394l299 166l61 -190l-344 -53l287 -279l-144 -121l-200 352l-197 -362l-141 129l272 277z" />
<glyph unicode="+" horiz-adv-x="1085" d="M68 547v139h405v406h139v-406h406v-139h-406v-406h-139v406h-405z" />
<glyph unicode="," horiz-adv-x="512" d="M39 -309l174 489h217v-10l-260 -489h-131v10z" />
<glyph unicode="-" horiz-adv-x="696" d="M82 406v172h532v-172h-532z" />
<glyph unicode="." horiz-adv-x="552" d="M154 109q0 51 35.5 86.5t86.5 35.5t87 -35.5t36 -86.5t-36 -87t-87 -36t-86.5 36t-35.5 87z" />
<glyph unicode="/" horiz-adv-x="942" d="M20 -328l738 1762h164l-738 -1762h-164z" />
<glyph unicode="0" horiz-adv-x="1208" d="M92 711q0 186 40 325.5t111.5 222.5t163 123.5t201.5 40.5q112 0 204 -45t160.5 -131.5t106 -223.5t37.5 -312q0 -190 -37.5 -334t-106 -232t-160 -132t-204.5 -44q-88 0 -163.5 24t-141.5 79.5t-112 140t-72.5 211t-26.5 287.5zM289 715q0 -129 18 -230t48 -165 t72 -105.5t87 -58.5t96 -17q310 0 310 576q0 258 -87.5 398t-232.5 140q-134 0 -222.5 -135.5t-88.5 -402.5z" />
<glyph unicode="1" horiz-adv-x="921" d="M150 1354l417 53l35 -25v-1382h-188v1217l-252 -29z" />
<glyph unicode="2" horiz-adv-x="1105" d="M47 72q399 342 567 562.5t168 366.5q0 124 -67.5 188t-184.5 64q-177 0 -360 -123l-12 181q45 35 150 73.5t235 38.5q94 0 172 -22t139 -66.5t95 -120.5t34 -176q0 -195 -152 -405t-448 -445l4 -12l617 19v-195h-936z" />
<glyph unicode="3" horiz-adv-x="1064" d="M80 217l6 6q190 -86 369 -86q127 0 208.5 71t81.5 200q0 101 -72 166t-198 61l-256 -8l17 178l231 -8q106 -3 180 67.5t74 173.5q0 102 -77.5 163t-205.5 61q-121 0 -278 -72l-8 6l16 164q138 63 297 63q129 0 229.5 -38.5t162 -120.5t61.5 -197q0 -122 -65.5 -209 t-176.5 -115v-20q125 -28 195.5 -122.5t70.5 -209.5q0 -75 -19.5 -137.5t-51.5 -105t-76.5 -75.5t-90 -52t-96.5 -31.5t-92 -16.5t-80 -4q-192 0 -350 76z" />
<glyph unicode="4" horiz-adv-x="1126" d="M70 483l622 910h201v-824l160 4v-163h-160v-410h-186v410h-605zM309 578l13 -23l385 10v565h-27z" />
<glyph unicode="5" horiz-adv-x="1105" d="M111 -8l32 166q89 -21 195 -21q217 0 342 92t125 250q0 150 -127 224.5t-354 74.5q-64 0 -177 -10l-8 6l78 619h744l-23 -179l-571 21l-43 -313q82 4 114 4q140 0 249.5 -34.5t177.5 -95t103.5 -139t35.5 -170.5q0 -121 -55 -220.5t-149 -163.5t-216 -99t-258 -35 q-137 0 -215 23z" />
<glyph unicode="6" horiz-adv-x="1105" d="M102 535q0 168 47.5 311t129.5 245.5t192 176.5t234.5 112t257.5 43l-27 -163q-251 -17 -415 -155.5t-193 -328.5l14 -12q99 55 229 55q68 0 132 -15.5t123 -49.5t102.5 -83.5t69.5 -122.5t26 -161q0 -98 -39.5 -180t-103 -132.5t-138.5 -78t-151 -27.5q-103 0 -186 30.5 t-139 82.5t-93.5 124.5t-54.5 154.5t-17 174zM297 500q0 -167 80 -269t211 -102q108 0 175.5 65t67.5 179q0 81 -25.5 141t-70.5 93.5t-99.5 49t-119.5 15.5q-116 0 -207 -58q-12 -52 -12 -114z" />
<glyph unicode="7" horiz-adv-x="1024" d="M74 1208l18 185h860l21 -25q-204 -376 -314.5 -707t-128.5 -661h-225q53 329 165 651t259 566l-8 10z" />
<glyph unicode="8" horiz-adv-x="1085" d="M82 348q0 116 78 213t196 156v12q-233 156 -233 344q0 145 122 247.5t314 102.5q170 0 287 -89.5t117 -237.5q0 -122 -64.5 -215t-187.5 -152v-12q156 -91 224.5 -184t68.5 -205q0 -156 -131.5 -257.5t-333.5 -101.5q-203 0 -330 107t-127 272zM264 348q0 -103 79 -164 t204 -61q117 0 190.5 60.5t73.5 146.5q0 40 -16 77.5t-42 67.5t-66.5 60.5t-81.5 54.5t-95 51l-14 6q-117 -50 -174.5 -129t-57.5 -170zM315 1081q0 -79 61 -146t191 -140q215 125 215 280q0 85 -63.5 143t-169.5 58q-110 0 -172 -58.5t-62 -136.5z" />
<glyph unicode="9" horiz-adv-x="1105" d="M82 1006q0 112 53.5 206.5t153.5 152.5t225 58q103 0 186 -30t139 -82.5t93.5 -125t54.5 -154t17 -173.5q0 -670 -678 -889l-72 131l2 11q111 38 197.5 83.5t158.5 106t115.5 140t54.5 175.5l-14 13q-101 -56 -233 -56q-86 0 -164.5 26t-144.5 76.5t-105 136t-39 194.5z M272 1020q0 -97 46 -165t116 -98t156 -30q122 0 211 57q8 41 8 109q0 167 -80.5 270t-210.5 103q-108 0 -177 -66t-69 -180z" />
<glyph unicode=":" horiz-adv-x="552" d="M154 109q0 51 35.5 86.5t86.5 35.5t87 -35.5t36 -86.5t-36 -87t-87 -36t-86.5 36t-35.5 87zM154 764q0 51 35.5 87t86.5 36t87 -36t36 -87t-36 -87t-87 -36t-86.5 36t-35.5 87z" />
<glyph unicode=";" horiz-adv-x="593" d="M63 -309l175 489h217v-10l-260 -489h-132v10zM193 764q0 51 35.5 87t86.5 36t87 -36t36 -87t-36 -87t-87 -36t-86.5 36t-35.5 87z" />
<glyph unicode="&#x3c;" horiz-adv-x="1085" d="M102 594v127l828 389l51 -133l-702 -320l702 -319l-51 -133z" />
<glyph unicode="=" horiz-adv-x="1085" d="M88 334v139h909v-139h-909zM88 743v140h909v-140h-909z" />
<glyph unicode="&#x3e;" horiz-adv-x="1085" d="M104 338l703 319l-703 320l52 133l827 -389v-127l-827 -389z" />
<glyph unicode="?" horiz-adv-x="921" d="M141 1214l19 162q107 47 235 47q209 0 325 -104.5t116 -274.5q0 -97 -38.5 -177t-102 -130.5t-133.5 -82t-146 -44.5v-176h-168v305q393 36 393 316q0 97 -72 154t-196 57q-46 0 -105.5 -14t-107.5 -38h-19zM213 109q0 51 36 86.5t87 35.5t87 -35.5t36 -86.5t-36 -87 t-87 -36t-87 36t-36 87z" />
<glyph unicode="@" horiz-adv-x="1413" d="M143 604q0 127 26.5 247t81.5 226t132 185.5t185.5 125.5t234.5 46q204 0 321.5 -94.5t104.5 -282.5l-39 -568q-5 -92 53 -147l-2 -20l-160 -50l-37 90h-30q-94 -73 -232 -73q-109 0 -183.5 79t-74.5 220q0 155 96 256.5t234 101.5q114 0 199 -16l10 110 q11 132 -58.5 188t-205.5 56q-139 0 -251.5 -86t-176.5 -242.5t-64 -353.5q0 -158 35 -278.5t98 -193.5t144.5 -109.5t179.5 -36.5q163 0 254 73h10l57 -120q-64 -55 -154 -82t-169 -27q-154 0 -272.5 55t-194 157t-114 244t-38.5 320zM686 588q0 -152 145 -152 q100 0 193 49l20 306q-71 14 -165 14q-85 0 -139 -57t-54 -160z" />
<glyph unicode="A" horiz-adv-x="1392" d="M47 0l627 1434h41l631 -1434h-205l-154 362h-586l-149 -362h-205zM471 530h447l-218 514h-14z" />
<glyph unicode="B" horiz-adv-x="1146" d="M160 0v1393h381q215 0 324.5 -94t109.5 -244q0 -92 -55 -188t-146 -126v-10q132 -35 203.5 -123.5t71.5 -208.5q0 -191 -128 -295t-356 -104h-405zM352 162h223q41 0 78 6t75.5 23t65.5 43t44.5 69.5t17.5 99.5q0 114 -83.5 178t-201.5 64h-219v-483zM352 805h223 q89 0 148 59t59 160q0 99 -68 153t-184 54h-178v-426z" />
<glyph unicode="C" horiz-adv-x="1351" d="M98 674q0 172 57.5 315.5t155 237t225 145t269.5 51.5q130 0 250.5 -42.5t195.5 -96.5l-45 -170q-198 135 -399 135h-6q-100 -1 -188.5 -36t-159.5 -103t-112.5 -178t-41.5 -250q0 -236 141 -387.5t365 -151.5q118 0 215.5 38t208.5 108l51 -164q-89 -68 -218 -112 t-261 -44q-203 0 -365 95t-250 255.5t-88 354.5z" />
<glyph unicode="D" horiz-adv-x="1372" d="M160 0v1393h391q205 0 368.5 -85.5t259 -248.5t95.5 -375q0 -156 -53.5 -284.5t-149 -216t-228.5 -135.5t-290 -48h-393zM352 168h209q239 0 375.5 141.5t136.5 378.5q0 111 -29.5 202t-79 152t-116.5 103t-139.5 61t-149.5 19h-207v-1057z" />
<glyph unicode="E" horiz-adv-x="1044" d="M160 0v1393h788v-168h-596v-416h535v-168h-535v-473h617v-168h-809z" />
<glyph unicode="F" d="M160 0v1393h766v-168h-574v-416h512v-168h-512v-641h-192z" />
<glyph unicode="G" horiz-adv-x="1454" d="M98 674q0 212 86.5 381.5t248.5 268.5t372 99q129 0 251.5 -44t198.5 -99l-49 -170q-64 54 -169 96.5t-236 42.5q-80 0 -153 -21.5t-137 -67.5t-111 -112t-74 -160t-27 -206q0 -242 143.5 -390.5t370.5 -148.5q220 0 305 101v331h-373v168h570v-575q-212 -199 -512 -199 q-158 0 -292.5 58.5t-223.5 156.5t-139 225t-50 265z" />
<glyph unicode="H" horiz-adv-x="1413" d="M160 0v1393h192v-584h709v584h192v-1393h-192v641h-709v-641h-192z" />
<glyph unicode="I" horiz-adv-x="552" d="M180 0v1393h193v-1393h-193z" />
<glyph unicode="J" horiz-adv-x="839" d="M20 23l52 167q73 -51 159 -51q128 0 192 83t64 261v910h193v-940q0 -240 -118.5 -362t-319.5 -122q-130 0 -222 54z" />
<glyph unicode="K" horiz-adv-x="1228" d="M160 0v1393h192v-635h21l553 635h213v-21l-566 -651l639 -701v-20h-231l-571 627l-58 -58v-569h-192z" />
<glyph unicode="L" d="M160 0v1393h192v-1225h594v-168h-786z" />
<glyph unicode="M" horiz-adv-x="1740" d="M98 0l205 1413h41l528 -1063h9l516 1063h41l204 -1413h-196l-109 881h-14l-442 -901h-21l-442 901h-15l-108 -881h-197z" />
<glyph unicode="N" horiz-adv-x="1536" d="M160 0v1413h61l946 -1018h17v998h192v-1413h-61l-946 1015h-17v-995h-192z" />
<glyph unicode="O" horiz-adv-x="1576" d="M98 686q0 162 58 302.5t154.5 234.5t221.5 147t259 53q110 0 213 -32.5t189 -96.5t150 -152.5t100 -205.5t36 -250q0 -194 -87.5 -357.5t-246 -261.5t-354.5 -98q-190 0 -349 93t-251.5 258t-92.5 366zM299 690q0 -143 58 -266t173 -202t265 -79q106 0 197.5 45 t153.5 120t97 174.5t35 207.5q0 245 -142 402t-356 157q-94 0 -180 -39t-153.5 -109t-107.5 -177t-40 -234z" />
<glyph unicode="P" horiz-adv-x="1064" d="M160 0v1393h344q214 0 343.5 -108.5t129.5 -293.5q0 -196 -136 -315q-134 -117 -349 -117h-7h-133v-559h-192zM352 721h144q124 0 202 64t78 202q0 113 -73 178.5t-197 65.5h-154v-510z" />
<glyph unicode="Q" horiz-adv-x="1576" d="M98 711q0 142 51 272t139.5 227t217 155t274.5 58q153 0 284 -55.5t222 -151t142 -226.5t51 -279q0 -141 -46.5 -268.5t-132 -227t-217 -160.5t-290.5 -65h-45l-9 -10q91 -79 249 -144q144 -60 272 -60q12 0 24 1l-55 -193q-82 0 -163 21t-149.5 55t-135 76t-129 85.5 t-121 80.5t-121 64.5t-119.5 35.5l69 133q-129 102 -195.5 253.5t-66.5 322.5zM299 715q0 -145 55.5 -269t167.5 -203t260 -79q116 0 211.5 46.5t156.5 124.5t94.5 176t33.5 204q0 70 -19 143.5t-60 143.5t-98 125t-140.5 88.5t-180.5 33.5q-90 0 -168.5 -31t-135 -83.5 t-97 -121t-60.5 -145t-20 -153.5z" />
<glyph unicode="R" horiz-adv-x="1167" d="M160 0v1393h385q222 0 342.5 -105.5t120.5 -300.5q0 -149 -87.5 -256.5t-246.5 -134.5l436 -569v-27h-217l-430 578h-111v-578h-192zM352 737h205q119 0 186.5 61.5t67.5 190.5q0 121 -73 181.5t-201 60.5h-185v-494z" />
<glyph unicode="S" horiz-adv-x="1044" d="M74 98l49 178q173 -137 375 -137q132 0 193 59.5t61 151.5q0 83 -53 140t-195 141q-78 46 -124 75t-96.5 65t-77 64t-50 64t-32.5 74.5t-9 85.5q0 69 27 132.5t78.5 116t137 84t193.5 31.5q106 0 203.5 -34t165.5 -82l-46 -168q-154 116 -319 116q-248 0 -248 -182 q0 -71 57 -126.5t226 -147.5q193 -104 276.5 -208.5t83.5 -230.5q0 -191 -123.5 -291t-330.5 -100q-133 0 -249 39t-173 90z" />
<glyph unicode="T" horiz-adv-x="1146" d="M27 1225v168h1093v-168h-450v-1225h-193v1225h-450z" />
<glyph unicode="U" horiz-adv-x="1413" d="M160 485v908h192v-873q0 -196 93.5 -288.5t261.5 -92.5q165 0 259.5 91.5t94.5 289.5v873h192v-897q0 -82 -20 -158t-64 -143.5t-106.5 -117.5t-154 -79t-201.5 -29q-124 0 -220.5 29.5t-157 78t-99.5 116.5t-54.5 139.5t-15.5 152.5z" />
<glyph unicode="V" horiz-adv-x="1249" d="M16 1393h207l400 -983h20l383 983h207l-588 -1424h-41z" />
<glyph unicode="W" horiz-adv-x="1781" d="M16 1393h207l332 -951h16l293 971h54l305 -971h16l320 951h206l-512 -1424h-61l-289 930h-16l-297 -930h-62z" />
<glyph unicode="X" horiz-adv-x="1208" d="M16 0l478 702l-465 691h223l354 -535l357 535h217l-465 -686l477 -707h-223l-367 553l-369 -553h-217z" />
<glyph unicode="Y" horiz-adv-x="1208" d="M16 1393h213l371 -586h16l363 586h213l-492 -772v-621h-192v621z" />
<glyph unicode="Z" horiz-adv-x="1208" d="M18 20l838 1192l-10 13h-748v168h1082l10 -11l-846 -1202l10 -12h797v-168h-1120z" />
<glyph unicode="[" horiz-adv-x="757" d="M215 -336l16 930l-16 889l500 -8v-144l-295 8l-12 -751l12 -781l307 9v-144z" />
<glyph unicode="\" horiz-adv-x="942" d="M20 1434h164l738 -1762h-164z" />
<glyph unicode="]" horiz-adv-x="757" d="M31 -184l307 -9l12 781l-12 751l-295 -8v144l500 8l-17 -889l17 -930l-512 8v144z" />
<glyph unicode="^" horiz-adv-x="1085" d="M61 643l455 772h55l453 -772l-119 -68l-352 615h-16l-359 -615z" />
<glyph unicode="_" horiz-adv-x="1085" d="M-51 -287h1188v-143h-1188v143z" />
<glyph unicode="`" horiz-adv-x="1024" d="M256 1249v21h172l197 -336v-16h-125z" />
<glyph unicode="a" horiz-adv-x="921" d="M78 246q0 54 20 103t62.5 92.5t119 69.5t177.5 26q65 0 147 -11v90q0 93 -51 137t-119 44q-108 0 -244 -90l-61 137q172 102 340 102q60 0 113.5 -17.5t97.5 -52t70 -93.5t26 -136v-422q0 -49 23.5 -85.5t58.5 -55.5v-8l-125 -107q-75 49 -100 129h-8q-46 -61 -117 -94 t-150 -33q-116 0 -198 75t-82 200zM254 248q0 -62 39 -94.5t102 -32.5q70 0 126.5 32.5t82.5 88.5v151q-85 13 -149 13q-95 0 -148 -43.5t-53 -114.5z" />
<glyph unicode="b" d="M113 84v1309l184 24v-559h10q105 88 246 88q170 0 274.5 -133.5t104.5 -349.5q0 -214 -129 -353t-330 -139q-195 0 -360 113zM297 180q61 -49 170 -49q122 0 199 87.5t77 254.5q0 146 -58 230.5t-185 84.5q-53 0 -111 -27t-92 -61v-520z" />
<glyph unicode="c" horiz-adv-x="819" d="M72 430q0 109 35.5 206t95.5 164.5t139 106.5t164 39q89 0 149 -23.5t129 -74.5l-61 -141q-94 84 -201 84q-112 0 -187 -99t-75 -258q0 -153 69.5 -229t180.5 -76q112 0 219 84l41 -143q-50 -42 -124 -70.5t-148 -28.5q-189 0 -307.5 127.5t-118.5 331.5z" />
<glyph unicode="d" d="M72 434q0 141 51.5 256.5t152 185.5t232.5 70q114 0 188 -63h11v510l184 24v-1417h-135l-39 88h-8q-128 -117 -277 -117q-161 0 -260.5 122.5t-99.5 340.5zM260 446q0 -152 61 -231.5t162 -79.5q136 0 224 101v477q-70 73 -189 73q-123 0 -190.5 -92t-67.5 -248z" />
<glyph unicode="e" horiz-adv-x="921" d="M72 434q0 224 120.5 368t301.5 144q160 0 257 -105t97 -263q0 -104 -21 -170h-567q0 -151 69.5 -217t184.5 -66q60 0 127 27.5t111 70.5h6l35 -147q-52 -48 -132.5 -76.5t-173.5 -28.5q-85 0 -158.5 27t-131.5 81t-91.5 145t-33.5 210zM268 539h398q4 28 4 54 q0 79 -42 131q-56 70 -139 71q-94 0 -156 -73t-65 -183z" />
<glyph unicode="f" horiz-adv-x="655" d="M41 774v84l174 70v78q0 87 24 160t61 118t77 72t78 33l200 28l13 -117q-140 -21 -204.5 -92.5t-64.5 -214.5v-75h226v-144h-226v-774h-184v774h-174z" />
<glyph unicode="g" d="M72 434q0 141 51.5 256.5t152 185.5t232.5 70q127 0 219 -92h10l68 76l86 -15v-901q0 -185 -131.5 -311.5t-321.5 -126.5q-180 0 -301 94l72 146h4q54 -42 105.5 -59t117.5 -17q55 0 102 14.5t85.5 45t60.5 84t23 124.5v86h-11q-102 -102 -264 -102q-168 0 -264 115.5 t-96 326.5zM260 424q0 -139 60 -203.5t163 -64.5q57 0 117.5 23t106.5 61v473q-34 31 -84 52t-105 21q-121 0 -189.5 -101.5t-68.5 -260.5z" />
<glyph unicode="h" horiz-adv-x="983" d="M113 0v1393l184 24v-583h10q122 112 275 112q127 0 207.5 -80t80.5 -243v-623h-184v600q0 92 -50 137t-114 45q-124 0 -225 -116v-666h-184z" />
<glyph unicode="i" horiz-adv-x="471" d="M113 1274q0 51 36 87t87 36t86.5 -36t35.5 -87t-35.5 -87t-86.5 -36t-87 36t-36 87zM143 0v903l185 25v-928h-185z" />
<glyph unicode="j" horiz-adv-x="471" d="M31 -369q59 44 85.5 127t26.5 219v926l185 25v-963q0 -136 -33 -218.5t-92 -145.5l-172 -25v55zM113 1274q0 51 36 87t87 36t86.5 -36t35.5 -87t-35.5 -87t-86.5 -36t-87 36t-36 87z" />
<glyph unicode="k" horiz-adv-x="901" d="M113 0v1393l184 24v-891h20l336 392h207v-21l-368 -403l389 -469v-25h-199l-317 403l-68 -69v-334h-184z" />
<glyph unicode="l" horiz-adv-x="471" d="M143 0v1393l185 24v-1417h-185z" />
<glyph unicode="m" horiz-adv-x="1536" d="M113 0v918h151l15 -84h10q136 112 286 112q79 0 142 -35t102 -98h10q84 71 154 102t156 31q115 0 199.5 -75.5t84.5 -223.5v-647h-184v612q0 64 -27 103.5t-63.5 53t-83.5 13.5q-54 0 -110 -33t-95 -79v-670h-184v612q0 48 -16 83t-43 53t-55.5 26t-59.5 8 q-56 0 -110.5 -30t-94.5 -82v-670h-184z" />
<glyph unicode="n" horiz-adv-x="983" d="M113 0v918h151l15 -84h10q134 112 299 112q128 0 205 -77t77 -230v-639h-184v592q0 190 -170 190q-62 0 -122.5 -33t-96.5 -83v-666h-184z" />
<glyph unicode="o" d="M72 451q0 215 120 355t302 140q197 0 317.5 -139t120.5 -356q0 -208 -124.5 -344t-305.5 -136q-183 0 -306.5 135.5t-123.5 344.5zM260 453q0 -150 66 -240t176 -90q105 0 173 90t68 240q0 154 -67.5 248t-181.5 94q-104 0 -169 -96.5t-65 -245.5z" />
<glyph unicode="p" d="M113 -418v1338l104 12l51 -86h11q97 100 243 100q62 0 120 -16.5t111 -54.5t92.5 -93.5t63 -139t23.5 -185.5q0 -106 -28 -192.5t-71.5 -139.5t-99.5 -89t-108 -50.5t-101 -14.5q-146 0 -217 82h-10v-446zM297 229q60 -92 184 -92q48 0 92.5 16.5t83.5 51t62.5 95.5 t23.5 142q0 65 -12 119.5t-33 91t-46.5 63.5t-55.5 41.5t-57 21.5t-54 7q-116 0 -188 -90v-467z" />
<glyph unicode="q" d="M72 418q0 236 123 382t313 146q66 0 118 -23t105 -75h10l47 86l103 -19v-1308l-184 -25v492h-11q-36 -42 -105 -72.5t-145 -30.5q-42 0 -88 12t-98 44t-93 80t-68 129t-27 182zM260 412q0 -80 21 -137t57 -85t72.5 -39.5t78.5 -11.5q61 0 122 23t96 61v488 q-32 31 -85.5 53t-103.5 22q-114 0 -186 -98t-72 -276z" />
<glyph unicode="r" horiz-adv-x="655" d="M113 0v918h157l17 -191h14q37 85 117.5 145.5t163.5 61.5h49v-193h-66q-90 -11 -166.5 -91t-101.5 -193v-457h-184z" />
<glyph unicode="s" horiz-adv-x="757" d="M59 84l56 137q70 -48 129.5 -73t128.5 -25q63 0 104 28t41 76q0 21 -12.5 43t-29.5 38.5t-50 38t-56 34.5t-67 37q-125 68 -178 126t-53 148q0 106 80.5 180t216.5 74q83 0 164 -33t145 -86l-57 -135q-136 105 -246 105q-61 0 -95 -26t-34 -64q0 -15 4.5 -28t17.5 -27 t23 -24t35 -26t38.5 -24t48 -28.5t50.5 -29.5q128 -74 178.5 -140t50.5 -153q0 -121 -91 -188.5t-222 -67.5q-93 0 -179.5 32.5t-140.5 80.5z" />
<glyph unicode="t" horiz-adv-x="634" d="M31 774v84l184 70v256l184 53v-319h215v-144h-215v-774h-184v774h-184z" />
<glyph unicode="u" horiz-adv-x="983" d="M113 319v599h184v-570q0 -211 160 -211q69 0 136.5 50t92.5 122v609h184v-918h-159l-19 106h-6q-120 -135 -287 -135q-58 0 -107.5 19t-90.5 58.5t-64.5 109t-23.5 161.5z" />
<glyph unicode="v" horiz-adv-x="901" d="M27 918h190l227 -599h9l231 599h190l-403 -947h-61z" />
<glyph unicode="w" horiz-adv-x="1310" d="M27 918h190l209 -576h8l205 588h53l197 -588h8l197 576h190l-366 -947h-62l-186 555h-13l-202 -555h-62z" />
<glyph unicode="x" horiz-adv-x="901" d="M27 0l327 473l-307 445h195l209 -310l208 310h195l-305 -445l325 -473h-194l-229 340l-230 -340h-194z" />
<glyph unicode="y" horiz-adv-x="901" d="M27 918h190l227 -621h9l231 621h190l-428 -1100q-32 -84 -73 -144.5t-78 -72.5l-180 -25v55q64 48 128.5 153.5t110.5 262.5z" />
<glyph unicode="z" horiz-adv-x="860" d="M39 23l487 735l-6 10h-440v150h729l8 -13l-489 -743l6 -12h483v-150h-764z" />
<glyph unicode="{" horiz-adv-x="757" d="M72 506v164q108 0 182 54.5t74 129.5q0 67 -32 180t-32 178q0 99 42 155t142 82t279 26v-134q-147 0 -209.5 -32t-62.5 -129q0 -74 35.5 -193t35.5 -164q0 -79 -73.5 -133t-186.5 -74v-51q110 -9 185 -65t75 -142q0 -48 -35.5 -169.5t-35.5 -192.5q0 -41 4.5 -67 t20.5 -52t45 -40t79 -23t123 -9v-133q-119 0 -203 13t-135.5 35t-80 60.5t-38.5 80.5t-10 104q0 60 34 176t34 172q0 92 -71 142.5t-185 50.5z" />
<glyph unicode="|" horiz-adv-x="1085" d="M473 -471v2007h139v-2007h-139z" />
<glyph unicode="}" horiz-adv-x="757" d="M31 -195q73 0 123 9t79 23t45 40t20.5 52t4.5 67q0 71 -36 192.5t-36 169.5q0 86 75.5 142t185.5 65v51q-113 20 -187 74t-74 133q0 45 36 164t36 193q0 97 -62.5 129t-209.5 32v134q179 0 279 -26t142 -82t42 -155q0 -65 -32 -178t-32 -180q0 -75 74 -129.5t182 -54.5 v-164q-114 0 -185 -50.5t-71 -142.5q0 -56 34 -172t34 -176q0 -62 -10 -104t-38.5 -80.5t-80 -60.5t-135.5 -35t-203 -13v133z" />
<glyph unicode="~" horiz-adv-x="1085" d="M66 416q0 159 83 251.5t201 92.5q51 0 100 -21t86 -51t71.5 -59.5t70.5 -50.5t70 -21q64 0 102.5 58t38.5 141h139q0 -149 -78.5 -246.5t-204.5 -97.5q-52 0 -100 20.5t-84 50t-69.5 59t-70 50t-71.5 20.5q-67 0 -110 -56t-43 -140h-131z" />
<glyph unicode="&#xa1;" horiz-adv-x="634" d="M195 1044q0 51 35.5 87t86.5 36t87 -36t36 -87t-36 -86.5t-87 -35.5t-86.5 35.5t-35.5 86.5zM213 -240l29 482l20 506h119l22 -504l35 -484h-225z" />
<glyph unicode="&#xa2;" horiz-adv-x="880" d="M104 655q0 209 118.5 354.5t283.5 159.5l24 226l105 -11l-23 -217q92 -13 205 -94l-61 -141q-79 69 -160 80l-70 -658h17q112 0 219 84l41 -143q-50 -42 -124 -70t-149 -28h-20l-21 -197l-104 10l21 203q-138 39 -220 157t-82 285zM293 659q0 -211 131 -278l65 625 q-88 -28 -142 -121t-54 -226z" />
<glyph unicode="&#xa3;" horiz-adv-x="1024" d="M78 113q194 172 194 430q0 54 -10 119h-164v112h144q-4 22 -15 74t-16.5 80t-10.5 68.5t-5 72.5q0 92 32 162t86.5 111t120.5 61t141 20q93 0 177 -22t122 -42.5t58 -37.5l-43 -154q-46 35 -124.5 60.5t-162.5 25.5q-96 0 -156.5 -53t-60.5 -164q0 -17 1 -35t4 -39.5 t5 -35t8 -40t7.5 -35.5t9 -40t8.5 -37h324v-112h-301q12 -78 12 -113q0 -200 -168 -326l16 -20q51 37 119 37q66 0 120.5 -21t108 -42t115.5 -21q85 0 158 55l12 -4l33 -156q-38 -34 -96 -52.5t-107 -18.5q-61 0 -118.5 21.5t-118 43t-127.5 21.5q-110 0 -260 -86z" />
<glyph unicode="&#xa4;" horiz-adv-x="1269" d="M160 941.5q2 20.5 15 38.5t31.5 33t37.5 16.5t32 -9.5l95 -96q120 86 264 86q145 0 258 -80l88 92q21 22 59.5 -0.5t60 -62.5t1.5 -60l-92 -88q77 -113 77 -254q0 -143 -86 -266l99 -94q13 -13 11.5 -34t-15 -39.5t-31.5 -33.5t-37 -16.5t-33 10.5l-102 102 q-114 -82 -258 -82q-141 0 -254 74l-86 -90q-13 -15 -35.5 -13t-42.5 16.5t-36 34t-18.5 40t11.5 35.5l90 88q-82 114 -82 268q0 141 82 260l-92 90q-14 14 -12 34.5zM326 555q0 -143 86 -236.5t225 -93.5q129 0 216 94.5t87 235.5q0 146 -86.5 239t-218.5 93 q-144 0 -226.5 -94t-82.5 -238z" />
<glyph unicode="&#xa5;" horiz-adv-x="1187" d="M27 1393h213l350 -586h16l342 586h213l-471 -772v-74h244v-113h-244v-100h244v-113h-244v-221h-192v221h-244v113h244v100h-244v113h244v74z" />
<glyph unicode="&#xa6;" horiz-adv-x="1085" d="M473 246h139v-717h-139v717zM473 819v717h139v-717h-139z" />
<glyph unicode="&#xa7;" horiz-adv-x="1167" d="M166 -221l49 178q175 -117 365 -117q114 0 168.5 46.5t54.5 113.5q0 72 -55 124t-193 105q-200 76 -294.5 171.5t-94.5 226.5q0 139 115 270q-60 44 -87.5 95t-27.5 118q0 60 24.5 115t72 100t127.5 71.5t181 26.5q102 0 197.5 -28t161.5 -68l-45 -168q-154 96 -310 96 q-111 0 -164 -35t-53 -96q0 -50 59 -92.5t224 -109.5q106 -42 180 -91t115 -103t58.5 -108t17.5 -116q0 -140 -121 -254q110 -102 110 -240q0 -168 -115 -254t-308 -86q-131 0 -244.5 32.5t-167.5 76.5zM358 641q0 -64 69.5 -126.5t213.5 -117.5q50 -19 117 -53 q55 55 55 150q0 82 -56 140t-202 120q-61 24 -137 61q-60 -81 -60 -174z" />
<glyph unicode="&#xa8;" horiz-adv-x="1024" d="M252 1038q0 41 29.5 71t70.5 30t71 -30t30 -71t-30 -70.5t-71 -29.5t-70.5 29.5t-29.5 70.5zM571 1038q0 41 30 71t71 30t70.5 -30t29.5 -71t-29.5 -70.5t-70.5 -29.5t-71 29.5t-30 70.5z" />
<glyph unicode="&#xa9;" horiz-adv-x="1617" d="M180 662q0 170 83 314t228.5 229t319.5 85q181 0 325.5 -85t223 -228.5t78.5 -314.5q0 -173 -78 -316.5t-222.5 -229t-326.5 -85.5q-178 0 -321.5 79.5t-226.5 224.5t-83 327zM281 657q0 -232 151 -383t381 -151q226 0 375 150.5t149 383.5q0 159 -69.5 284t-189 193 t-267.5 68q-107 0 -204.5 -41.5t-169 -112.5t-114 -173t-42.5 -218zM467 655q0 171 102.5 273t249.5 102q72 0 138.5 -21t105.5 -48l-23 -105q-109 66 -223 66q-95 0 -162 -68t-67 -195q0 -108 64.5 -177.5t166.5 -69.5q117 0 232 71l26 -102q-46 -34 -117 -56t-143 -22 q-154 0 -252 101.5t-98 250.5z" />
<glyph unicode="&#xaa;" horiz-adv-x="737" d="M59 821q0 45 17 86.5t52 78.5t97.5 59t145.5 22q48 0 100 -10v78q0 71 -34 100t-85 29q-87 0 -200 -74l-50 123q143 84 279 84q100 0 171 -62t71 -184v-346q0 -40 19.5 -71t47.5 -46v-6l-112 -88q-61 31 -80 88h-17q-69 -86 -190 -86q-96 0 -164 61t-68 164zM215 823 q0 -47 30 -70.5t77 -23.5q52 0 91 24t58 66v125q-54 8 -100 8q-74 0 -115 -35.5t-41 -93.5z" />
<glyph unicode="&#xab;" horiz-adv-x="1269" d="M154 455v26l403 459l105 -74l-279 -385v-20l279 -393l-105 -76zM584 455v26l403 459l105 -74l-279 -385v-20l279 -393l-105 -76z" />
<glyph unicode="&#xac;" horiz-adv-x="1085" d="M68 502v139h936v-535h-140v396h-796z" />
<glyph unicode="&#xad;" horiz-adv-x="696" d="M82 406v172h532v-172h-532z" />
<glyph unicode="&#xae;" horiz-adv-x="1146" d="M135 985q0 122 59 223t159.5 158t219.5 57q188 0 313.5 -125.5t125.5 -312.5q0 -122 -59.5 -223t-160 -158t-219.5 -57q-184 0 -311 122t-127 316zM221 983q0 -159 99 -257.5t255 -98.5q146 0 248.5 100t102.5 256q0 157 -102.5 258.5t-250.5 101.5q-159 0 -255.5 -103.5 t-96.5 -256.5zM414 745v510h149q85 0 131.5 -38.5t46.5 -108.5q0 -55 -32.5 -94t-92.5 -49l168 -211v-9h-90l-164 213h-36v-213h-80zM494 1026h71q97 0 97 82q0 38 -28.5 59t-74.5 21h-65v-162z" />
<glyph unicode="&#xaf;" horiz-adv-x="1024" d="M262 918v112h500v-112h-500z" />
<glyph unicode="&#xb0;" horiz-adv-x="757" d="M86 1128q0 121 86.5 208t206.5 87q121 0 208 -86.5t87 -208.5q0 -120 -87 -206t-208 -86q-120 0 -206.5 86t-86.5 206zM225 1128q0 -69 43 -118t109 -49q68 0 111.5 49t43.5 118q0 71 -44 121.5t-111 50.5q-66 0 -109 -50.5t-43 -121.5z" />
<glyph unicode="&#xb1;" horiz-adv-x="1085" d="M88 82v139h909v-139h-909zM88 731v139h385v406h139v-406h385v-139h-385v-405h-139v405h-385z" />
<glyph unicode="&#xb2;" horiz-adv-x="593" d="M18 895q385 341 385 506q0 108 -116 108q-100 0 -189 -57l-16 119q24 18 81.5 39.5t129.5 21.5q113 0 182.5 -51.5t69.5 -159.5q0 -189 -287 -428l6 -16l293 10v-137h-526z" />
<glyph unicode="&#xb3;" horiz-adv-x="593" d="M61 1006q106 -50 205 -50q61 0 100.5 30.5t39.5 86.5q0 51 -36 80.5t-102 28.5l-137 -4l10 118l123 -4q53 -1 91 35t38 84q0 51 -34 76.5t-91 25.5q-79 0 -170 -43l11 127q78 35 178 35q102 0 173.5 -51t71.5 -143q0 -68 -39.5 -119t-103.5 -66v-12q74 -14 115 -63.5 t41 -112.5q0 -61 -25.5 -107.5t-67.5 -72.5t-89 -38.5t-97 -12.5q-119 0 -203 40z" />
<glyph unicode="&#xb4;" horiz-adv-x="1024" d="M399 918v16l197 336h172v-21l-244 -331h-125z" />
<glyph unicode="&#xb6;" horiz-adv-x="1310" d="M137 940q0 136 70.5 240t189 158.5t265.5 54.5h581v-148h-121v-1567h-164v1567h-122v-1567h-164v820q-237 0 -386 120.5t-149 321.5zM338 942q0 -130 88.5 -208.5t245.5 -78.5v590q-150 0 -242 -84t-92 -219z" />
<glyph unicode="&#xb7;" horiz-adv-x="552" d="M154 532q0 51 35.5 87t86.5 36t87 -36t36 -87t-36 -86.5t-87 -35.5t-86.5 35.5t-35.5 86.5z" />
<glyph unicode="&#xb8;" horiz-adv-x="1024" d="M348 -195l119 236h108l-83 -164q92 0 148 -33.5t56 -97.5q0 -77 -82 -131t-211 -74l-16 80q87 9 139 38.5t52 70.5q0 65 -158 65q-34 0 -62 -4z" />
<glyph unicode="&#xb9;" horiz-adv-x="593" d="M115 1593l266 31l18 -14v-766h-133v647l-145 -12z" />
<glyph unicode="&#xba;" horiz-adv-x="819" d="M76 989q0 176 93.5 292t233.5 116q153 0 246.5 -115t93.5 -293q0 -170 -96.5 -281.5t-236.5 -111.5t-237 111.5t-97 281.5zM242 991q0 -118 45.5 -189t122.5 -71q73 0 120.5 71t47.5 189q0 122 -47 196.5t-128 74.5q-71 0 -116 -76.5t-45 -194.5z" />
<glyph unicode="&#xbb;" horiz-adv-x="1269" d="M178 68l279 393v20l-279 385l105 74l403 -459v-26l-403 -463zM608 68l279 393v20l-279 385l105 74l403 -459v-26l-403 -463z" />
<glyph unicode="&#xbc;" horiz-adv-x="1515" d="M147 1389l267 30l18 -14v-766h-133v647l-145 -12zM215 -49l502 758l450 723l95 -54l-486 -714l-467 -770zM762 182l325 502h136v-434l88 2v-119h-88v-215h-129v215h-314zM920 252l6 -12l168 4v268h-15z" />
<glyph unicode="&#xbd;" horiz-adv-x="1515" d="M147 1389l267 30l18 -14v-766h-133v647l-145 -12zM215 -49l502 758l450 723l95 -54l-486 -714l-467 -770zM852 -37q385 341 385 506q0 55 -31 82t-86 27q-97 0 -188 -58l-17 119q24 18 81.5 39.5t129.5 21.5q113 0 182.5 -51.5t69.5 -159.5q0 -190 -286 -428l6 -16 l293 10v-137h-527z" />
<glyph unicode="&#xbe;" horiz-adv-x="1515" d="M94 801q104 -49 205 -49q61 0 100 30t39 86q0 51 -35.5 80.5t-101.5 28.5l-137 -4l10 119l123 -5q53 -1 91 35t38 84q0 51 -34.5 77t-90.5 26q-79 0 -170 -43l10 127q75 34 178 34q102 0 174 -51t72 -143q0 -68 -39.5 -118.5t-103.5 -65.5v-13q74 -14 115 -63.5 t41 -112.5q0 -61 -25.5 -107.5t-67.5 -72.5t-89 -38.5t-97 -12.5q-116 0 -203 41zM215 -49l502 758l450 723l95 -54l-486 -714l-467 -770zM762 182l325 502h136v-434l88 2v-119h-88v-215h-129v215h-314zM920 252l6 -12l168 4v268h-15z" />
<glyph unicode="&#xbf;" horiz-adv-x="921" d="M86 139q0 97 38.5 177t102 130.5t133.5 82t146 44.5v177h168v-306q-393 -36 -393 -315q0 -97 72 -154t196 -57q47 0 106.5 13.5t106.5 37.5h18l-18 -162q-107 -47 -236 -47q-209 0 -324.5 104.5t-115.5 274.5zM463 1075q0 51 36 87t87 36t87 -36t36 -87t-36 -87t-87 -36 t-87 36t-36 87z" />
<glyph unicode="&#xc0;" horiz-adv-x="1392" d="M47 0l627 1434h41l631 -1434h-205l-154 362h-586l-149 -362h-205zM420 1765v21h182l217 -254v-16h-125zM471 530h447l-218 514h-14z" />
<glyph unicode="&#xc1;" horiz-adv-x="1392" d="M47 0l627 1434h41l631 -1434h-205l-154 362h-586l-149 -362h-205zM471 530h447l-218 514h-14zM573 1516v16l218 254h182v-21l-275 -249h-125z" />
<glyph unicode="&#xc2;" horiz-adv-x="1392" d="M47 0l627 1434h41l631 -1434h-205l-154 362h-586l-149 -362h-205zM420 1516v16l248 254h57l248 -254v-16h-115l-162 131l-161 -131h-115zM471 530h447l-218 514h-14z" />
<glyph unicode="&#xc3;" horiz-adv-x="1392" d="M47 0l627 1434h41l631 -1434h-205l-154 362h-586l-149 -362h-205zM412 1530q0 114 50 180t122 66q36 0 69.5 -20.5t54.5 -45t46 -45t47 -20.5q34 0 52.5 37t18.5 90h107q0 -99 -48 -172.5t-122 -73.5q-30 0 -57 13.5t-46.5 32t-37 37.5t-36 32.5t-36.5 13.5 q-37 0 -59.5 -35.5t-22.5 -89.5h-102zM471 530h447l-218 514h-14z" />
<glyph unicode="&#xc4;" horiz-adv-x="1392" d="M47 0l627 1434h41l631 -1434h-205l-154 362h-586l-149 -362h-205zM436 1616q0 41 30 70.5t71 29.5t70.5 -29.5t29.5 -70.5t-29.5 -70.5t-70.5 -29.5t-71 29.5t-30 70.5zM471 530h447l-218 514h-14zM756 1616q0 41 29.5 70.5t70.5 29.5t70.5 -29.5t29.5 -70.5t-29.5 -70.5 t-70.5 -29.5t-70.5 29.5t-29.5 70.5z" />
<glyph unicode="&#xc5;" horiz-adv-x="1392" d="M47 0l627 1434h41l631 -1434h-205l-154 362h-586l-149 -362h-205zM471 530h447l-218 514h-14zM504 1657q0 79 56 135.5t136 56.5t136.5 -56.5t56.5 -135.5t-56.5 -136t-136.5 -57q-79 0 -135.5 56.5t-56.5 136.5zM598 1655q0 -45 26.5 -75t69.5 -30q44 0 71.5 30t27.5 75 t-28 76.5t-71 31.5t-69.5 -31t-26.5 -77z" />
<glyph unicode="&#xc6;" horiz-adv-x="1843" d="M23 0l911 1393h813v-168h-596v-416h535v-168h-535v-473h616v-168h-809v362h-495l-236 -362h-204zM571 530h387v576h-12z" />
<glyph unicode="&#xc7;" horiz-adv-x="1351" d="M98 674q0 172 57.5 315.5t155 237t225 145t269.5 51.5q130 0 250.5 -42.5t195.5 -96.5l-45 -170q-201 137 -405 135q-100 -1 -188.5 -36t-159.5 -103t-112.5 -178t-41.5 -250q0 -236 141 -387.5t365 -151.5q118 0 215.5 38t208.5 108l51 -164q-87 -66 -211 -109.5 t-252 -46.5l-47 -92q92 0 148.5 -33.5t56.5 -97.5q0 -77 -82 -131t-211 -74l-16 80q87 9 138.5 38.5t51.5 70.5q0 65 -158 65q-33 0 -61 -4l-10 14l84 170q-180 20 -320.5 118t-216.5 250t-76 331z" />
<glyph unicode="&#xc8;" horiz-adv-x="1044" d="M160 0v1393h788v-168h-596v-416h535v-168h-535v-473h617v-168h-809zM287 1765v21h182l217 -254v-16h-125z" />
<glyph unicode="&#xc9;" horiz-adv-x="1044" d="M160 0v1393h788v-168h-596v-416h535v-168h-535v-473h617v-168h-809zM440 1516v16l217 254h183v-21l-275 -249h-125z" />
<glyph unicode="&#xca;" horiz-adv-x="1044" d="M160 0v1393h788v-168h-596v-416h535v-168h-535v-473h617v-168h-809zM287 1516v16l248 254h57l248 -254v-16h-115l-162 131l-162 -131h-114z" />
<glyph unicode="&#xcb;" horiz-adv-x="1044" d="M160 0v1393h788v-168h-596v-416h535v-168h-535v-473h617v-168h-809zM303 1616q0 41 29.5 70.5t70.5 29.5t71 -29.5t30 -70.5t-30 -70.5t-71 -29.5t-70.5 29.5t-29.5 70.5zM623 1616q0 41 29.5 70.5t70.5 29.5t70.5 -29.5t29.5 -70.5t-29.5 -70.5t-70.5 -29.5t-70.5 29.5 t-29.5 70.5z" />
<glyph unicode="&#xcc;" horiz-adv-x="552" d="M0 1765v21h182l217 -254v-16h-125zM180 0v1393h193v-1393h-193z" />
<glyph unicode="&#xcd;" horiz-adv-x="552" d="M154 1516v16l217 254h182v-21l-274 -249h-125zM180 0v1393h193v-1393h-193z" />
<glyph unicode="&#xce;" horiz-adv-x="552" d="M0 1516v16l248 254h57l248 -254v-16h-115l-162 131l-161 -131h-115zM180 0v1393h193v-1393h-193z" />
<glyph unicode="&#xcf;" horiz-adv-x="552" d="M16 1616q0 41 30 70.5t71 29.5t70.5 -29.5t29.5 -70.5t-29.5 -70.5t-70.5 -29.5t-71 29.5t-30 70.5zM180 0v1393h193v-1393h-193zM336 1616q0 41 29.5 70.5t70.5 29.5t71 -29.5t30 -70.5t-30 -70.5t-71 -29.5t-70.5 29.5t-29.5 70.5z" />
<glyph unicode="&#xd0;" horiz-adv-x="1372" d="M-10 621v124h170v648h391q205 0 368.5 -85.5t259 -248.5t95.5 -375q0 -156 -53.5 -284.5t-149 -216t-228.5 -135.5t-290 -48h-393v621h-170zM352 168h209q239 0 375.5 141.5t136.5 378.5q0 111 -29.5 202t-79 152t-116.5 103t-139.5 61t-149.5 19h-207v-480h310v-124 h-310v-453z" />
<glyph unicode="&#xd1;" horiz-adv-x="1536" d="M160 0v1413h61l946 -1018h17v998h192v-1413h-61l-946 1015h-17v-995h-192zM483 1489q0 114 50 180t122 66q36 0 69.5 -20.5t54.5 -45t46 -45t47 -20.5q34 0 53 37t19 90h107q0 -99 -48 -172.5t-122 -73.5q-30 0 -57 13.5t-46.5 32.5t-37 37.5t-36 32t-36.5 13.5 q-37 0 -59.5 -35.5t-22.5 -89.5h-103z" />
<glyph unicode="&#xd2;" horiz-adv-x="1576" d="M98 686q0 162 58 302.5t154.5 234.5t221.5 147t259 53q110 0 213 -32.5t189 -96.5t150 -152.5t100 -205.5t36 -250q0 -194 -87.5 -357.5t-246 -261.5t-354.5 -98q-190 0 -349 93t-251.5 258t-92.5 366zM299 690q0 -143 58 -266t173 -202t265 -79q106 0 197.5 45 t153.5 120t97 174.5t35 207.5q0 245 -142 402t-356 157q-94 0 -180 -39t-153.5 -109t-107.5 -177t-40 -234zM512 1765v21h182l217 -254v-16h-125z" />
<glyph unicode="&#xd3;" horiz-adv-x="1576" d="M98 686q0 162 58 302.5t154.5 234.5t221.5 147t259 53q110 0 213 -32.5t189 -96.5t150 -152.5t100 -205.5t36 -250q0 -194 -87.5 -357.5t-246 -261.5t-354.5 -98q-190 0 -349 93t-251.5 258t-92.5 366zM299 690q0 -143 58 -266t173 -202t265 -79q106 0 197.5 45 t153.5 120t97 174.5t35 207.5q0 245 -142 402t-356 157q-94 0 -180 -39t-153.5 -109t-107.5 -177t-40 -234zM666 1516v16l217 254h182v-21l-274 -249h-125z" />
<glyph unicode="&#xd4;" horiz-adv-x="1576" d="M98 686q0 162 58 302.5t154.5 234.5t221.5 147t259 53q110 0 213 -32.5t189 -96.5t150 -152.5t100 -205.5t36 -250q0 -194 -87.5 -357.5t-246 -261.5t-354.5 -98q-190 0 -349 93t-251.5 258t-92.5 366zM299 690q0 -143 58 -266t173 -202t265 -79q106 0 197.5 45 t153.5 120t97 174.5t35 207.5q0 245 -142 402t-356 157q-94 0 -180 -39t-153.5 -109t-107.5 -177t-40 -234zM512 1516v16l248 254h57l248 -254v-16h-115l-162 131l-161 -131h-115z" />
<glyph unicode="&#xd5;" horiz-adv-x="1576" d="M98 686q0 162 58 302.5t154.5 234.5t221.5 147t259 53q110 0 213 -32.5t189 -96.5t150 -152.5t100 -205.5t36 -250q0 -194 -87.5 -357.5t-246 -261.5t-354.5 -98q-190 0 -349 93t-251.5 258t-92.5 366zM299 690q0 -143 58 -266t173 -202t265 -79q106 0 197.5 45 t153.5 120t97 174.5t35 207.5q0 245 -142 402t-356 157q-94 0 -180 -39t-153.5 -109t-107.5 -177t-40 -234zM504 1530q0 114 50 180t122 66q36 0 69.5 -20.5t54.5 -45t46 -45t47 -20.5q34 0 53 37t19 90h106q0 -99 -48 -172.5t-122 -73.5q-30 0 -57 13.5t-46.5 32t-37 37.5 t-36 32.5t-36.5 13.5q-37 0 -59.5 -35.5t-22.5 -89.5h-102z" />
<glyph unicode="&#xd6;" horiz-adv-x="1576" d="M98 686q0 162 58 302.5t154.5 234.5t221.5 147t259 53q110 0 213 -32.5t189 -96.5t150 -152.5t100 -205.5t36 -250q0 -194 -87.5 -357.5t-246 -261.5t-354.5 -98q-190 0 -349 93t-251.5 258t-92.5 366zM299 690q0 -143 58 -266t173 -202t265 -79q106 0 197.5 45 t153.5 120t97 174.5t35 207.5q0 245 -142 402t-356 157q-94 0 -180 -39t-153.5 -109t-107.5 -177t-40 -234zM528 1616q0 41 30 70.5t71 29.5t70.5 -29.5t29.5 -70.5t-29.5 -70.5t-70.5 -29.5t-71 29.5t-30 70.5zM848 1616q0 41 29.5 70.5t70.5 29.5t71 -29.5t30 -70.5 t-30 -70.5t-71 -29.5t-70.5 29.5t-29.5 70.5z" />
<glyph unicode="&#xd7;" horiz-adv-x="1085" d="M109 270l335 336l-335 336l98 98l336 -335l336 335l98 -98l-336 -336l336 -336l-98 -98l-336 336l-336 -336z" />
<glyph unicode="&#xd8;" horiz-adv-x="1576" d="M98 686q0 162 58 302.5t154.5 234.5t221.5 147t259 53q227 0 405 -133l139 172l80 -63l-141 -176q205 -212 205 -537q0 -194 -87.5 -357.5t-246 -261.5t-354.5 -98q-231 0 -412 135l-143 -180l-80 64l147 184q-97 97 -151 229.5t-54 284.5zM299 690q0 -217 123 -371 l659 826q-132 104 -301 104q-94 0 -180 -39t-153.5 -109t-107.5 -177t-40 -234zM494 248q127 -105 301 -105q106 0 197.5 45t153.5 120t97 174.5t35 207.5q0 227 -125 381z" />
<glyph unicode="&#xd9;" horiz-adv-x="1413" d="M160 485v908h192v-873q0 -196 93.5 -288.5t261.5 -92.5q165 0 259.5 91.5t94.5 289.5v873h192v-897q0 -82 -20 -158t-64 -143.5t-106.5 -117.5t-154 -79t-201.5 -29q-124 0 -220.5 29.5t-157 78t-99.5 116.5t-54.5 139.5t-15.5 152.5zM432 1745v20h182l217 -254v-16h-124 z" />
<glyph unicode="&#xda;" horiz-adv-x="1413" d="M160 485v908h192v-873q0 -196 93.5 -288.5t261.5 -92.5q165 0 259.5 91.5t94.5 289.5v873h192v-897q0 -82 -20 -158t-64 -143.5t-106.5 -117.5t-154 -79t-201.5 -29q-124 0 -220.5 29.5t-157 78t-99.5 116.5t-54.5 139.5t-15.5 152.5zM586 1495v16l217 254h182v-20 l-274 -250h-125z" />
<glyph unicode="&#xdb;" horiz-adv-x="1413" d="M160 485v908h192v-873q0 -196 93.5 -288.5t261.5 -92.5q165 0 259.5 91.5t94.5 289.5v873h192v-897q0 -82 -20 -158t-64 -143.5t-106.5 -117.5t-154 -79t-201.5 -29q-124 0 -220.5 29.5t-157 78t-99.5 116.5t-54.5 139.5t-15.5 152.5zM432 1495v16l248 254h57l248 -254 v-16h-115l-161 131l-162 -131h-115z" />
<glyph unicode="&#xdc;" horiz-adv-x="1413" d="M160 485v908h192v-873q0 -196 93.5 -288.5t261.5 -92.5q165 0 259.5 91.5t94.5 289.5v873h192v-897q0 -82 -20 -158t-64 -143.5t-106.5 -117.5t-154 -79t-201.5 -29q-124 0 -220.5 29.5t-157 78t-99.5 116.5t-54.5 139.5t-15.5 152.5zM449 1595q0 41 29.5 71t70.5 30 t70.5 -30t29.5 -71t-29.5 -70.5t-70.5 -29.5t-70.5 29.5t-29.5 70.5zM768 1595q0 41 29.5 71t70.5 30t71 -30t30 -71t-30 -70.5t-71 -29.5t-70.5 29.5t-29.5 70.5z" />
<glyph unicode="&#xdd;" horiz-adv-x="1208" d="M16 1393h213l371 -586h16l363 586h213l-492 -772v-621h-192v621zM483 1495v16l217 254h183v-20l-275 -250h-125z" />
<glyph unicode="&#xde;" horiz-adv-x="1064" d="M160 0v1393h192v-269h152q214 0 343.5 -108t129.5 -293q0 -196 -136 -315t-356 -117h-133v-291h-192zM352 453h144q124 0 202 64t78 202q0 113 -73 178.5t-197 65.5h-154v-510z" />
<glyph unicode="&#xdf;" horiz-adv-x="1126" d="M41 774v84l143 70v78q0 105 32 185t89 128.5t130.5 73t160.5 24.5q96 0 176 -34t141 -106.5t82 -186t0 -273.5q-143 1 -215.5 -32.5t-72.5 -96.5q0 -42 39.5 -80.5t125.5 -95.5q107 -70 148 -134.5t41 -150.5q0 -121 -85.5 -188.5t-207.5 -67.5q-81 0 -156.5 26.5 t-122.5 65.5l76 142q107 -78 197 -78q55 0 90 26t35 74q0 27 -12.5 50.5t-41.5 48.5t-51.5 40.5t-66.5 43.5q-99 62 -141 122t-42 150q0 115 82.5 186t221.5 86q10 142 -60.5 227t-183.5 85q-223 0 -223 -273v-993h-185v774h-143z" />
<glyph unicode="&#xe0;" horiz-adv-x="921" d="M78 246q0 54 20 103t62.5 92.5t119 69.5t177.5 26q65 0 147 -11v90q0 93 -51 137t-119 44q-108 0 -244 -90l-61 137q172 102 340 102q60 0 113.5 -17.5t97.5 -52t70 -93.5t26 -136v-422q0 -49 23.5 -85.5t58.5 -55.5v-8l-125 -107q-75 49 -100 129h-8q-46 -61 -117 -94 t-150 -33q-116 0 -198 75t-82 200zM203 1370v21h172l196 -336v-17h-125zM254 248q0 -62 39 -94.5t102 -32.5q70 0 126.5 32.5t82.5 88.5v151q-85 13 -149 13q-95 0 -148 -43.5t-53 -114.5z" />
<glyph unicode="&#xe1;" horiz-adv-x="921" d="M78 246q0 54 20 103t62.5 92.5t119 69.5t177.5 26q65 0 147 -11v90q0 93 -51 137t-119 44q-108 0 -244 -90l-61 137q172 102 340 102q60 0 113.5 -17.5t97.5 -52t70 -93.5t26 -136v-422q0 -49 23.5 -85.5t58.5 -55.5v-8l-125 -107q-75 49 -100 129h-8q-46 -61 -117 -94 t-150 -33q-116 0 -198 75t-82 200zM254 248q0 -62 39 -94.5t102 -32.5q70 0 126.5 32.5t82.5 88.5v151q-85 13 -149 13q-95 0 -148 -43.5t-53 -114.5zM346 1038v17l197 336h172v-21l-244 -332h-125z" />
<glyph unicode="&#xe2;" horiz-adv-x="921" d="M78 246q0 54 20 103t62.5 92.5t119 69.5t177.5 26q65 0 147 -11v90q0 93 -51 137t-119 44q-108 0 -244 -90l-61 137q172 102 340 102q60 0 113.5 -17.5t97.5 -52t70 -93.5t26 -136v-422q0 -49 23.5 -85.5t58.5 -55.5v-8l-125 -107q-75 49 -100 129h-8q-46 -61 -117 -94 t-150 -33q-116 0 -198 75t-82 200zM182 1038v17l248 336h57l248 -336v-17h-114l-162 193l-162 -193h-115zM254 248q0 -62 39 -94.5t102 -32.5q70 0 126.5 32.5t82.5 88.5v151q-85 13 -149 13q-95 0 -148 -43.5t-53 -114.5z" />
<glyph unicode="&#xe3;" horiz-adv-x="921" d="M78 246q0 54 20 103t62.5 92.5t119 69.5t177.5 26q65 0 147 -11v90q0 93 -51 137t-119 44q-108 0 -244 -90l-61 137q172 102 340 102q60 0 113.5 -17.5t97.5 -52t70 -93.5t26 -136v-422q0 -49 23.5 -85.5t58.5 -55.5v-8l-125 -107q-75 49 -100 129h-8q-46 -61 -117 -94 t-150 -33q-116 0 -198 75t-82 200zM174 1073q0 114 50 180t122 66q36 0 69.5 -20.5t54.5 -45t46 -45t47 -20.5q34 0 53 37t19 90h106q0 -99 -48 -172.5t-122 -73.5q-30 0 -57 13.5t-46.5 32.5t-37 37.5t-36 32t-36.5 13.5q-37 0 -59.5 -35.5t-22.5 -89.5h-102zM254 248 q0 -62 39 -94.5t102 -32.5q70 0 126.5 32.5t82.5 88.5v151q-85 13 -149 13q-95 0 -148 -43.5t-53 -114.5z" />
<glyph unicode="&#xe4;" horiz-adv-x="921" d="M78 246q0 54 20 103t62.5 92.5t119 69.5t177.5 26q65 0 147 -11v90q0 93 -51 137t-119 44q-108 0 -244 -90l-61 137q172 102 340 102q60 0 113.5 -17.5t97.5 -52t70 -93.5t26 -136v-422q0 -49 23.5 -85.5t58.5 -55.5v-8l-125 -107q-75 49 -100 129h-8q-46 -61 -117 -94 t-150 -33q-116 0 -198 75t-82 200zM199 1159q0 41 29.5 71t70.5 30t70.5 -30t29.5 -71t-29.5 -70.5t-70.5 -29.5t-70.5 29.5t-29.5 70.5zM254 248q0 -62 39 -94.5t102 -32.5q70 0 126.5 32.5t82.5 88.5v151q-85 13 -149 13q-95 0 -148 -43.5t-53 -114.5zM518 1159 q0 41 29.5 71t70.5 30t71 -30t30 -71t-30 -70.5t-71 -29.5t-70.5 29.5t-29.5 70.5z" />
<glyph unicode="&#xe5;" horiz-adv-x="921" d="M78 246q0 54 20 103t62.5 92.5t119 69.5t177.5 26q65 0 147 -11v90q0 93 -51 137t-119 44q-108 0 -244 -90l-61 137q172 102 340 102q60 0 113.5 -17.5t97.5 -52t70 -93.5t26 -136v-422q0 -49 23.5 -85.5t58.5 -55.5v-8l-125 -107q-75 49 -100 129h-8q-46 -61 -117 -94 t-150 -33q-116 0 -198 75t-82 200zM254 248q0 -62 39 -94.5t102 -32.5q70 0 126.5 32.5t82.5 88.5v151q-85 13 -149 13q-95 0 -148 -43.5t-53 -114.5zM266 1200q0 80 57 136.5t136 56.5t135.5 -56.5t56.5 -136.5t-56.5 -136t-135.5 -56q-80 0 -136.5 56.5t-56.5 135.5z M360 1198q0 -45 26.5 -74.5t70.5 -29.5t71 29.5t27 74.5t-27.5 77t-70.5 32t-70 -31.5t-27 -77.5z" />
<glyph unicode="&#xe6;" horiz-adv-x="1433" d="M78 246q0 54 20 102.5t62.5 91t119 67.5t177.5 25q72 0 147 -10v94q0 93 -51 137t-119 44q-108 0 -244 -90l-61 137q172 102 340 102q73 0 137 -35.5t107 -99.5q116 135 293 135q160 0 257 -105t97 -263q0 -104 -21 -170h-567q0 -151 69.5 -217t184.5 -66q60 0 127 27.5 t111 70.5h6l35 -147q-52 -48 -132.5 -76.5t-173.5 -28.5q-221 0 -333 156q-141 -156 -308 -156q-116 0 -198 75t-82 200zM254 248q0 -62 39 -94.5t102 -32.5q70 0 126.5 32.5t82.5 88.5v151q-85 13 -149 13q-95 0 -148 -43.5t-53 -114.5zM780 539h398q18 115 -37.5 185.5 t-139.5 70.5q-94 0 -156 -73t-65 -183z" />
<glyph unicode="&#xe7;" horiz-adv-x="819" d="M72 430q0 109 35.5 206t95.5 164.5t139 106.5t164 39q89 0 149 -23.5t129 -74.5l-61 -141q-94 84 -201 84q-112 0 -187 -99t-75 -258q0 -153 69.5 -229t180.5 -76q112 0 219 84l41 -143q-49 -41 -117.5 -68.5t-140.5 -30.5l-47 -94q92 0 148.5 -33.5t56.5 -97.5 q0 -77 -82 -131t-211 -74l-17 80q87 9 139 38.5t52 70.5q0 65 -158 65q-33 0 -61 -4l-10 14l88 175q-154 28 -246 149.5t-92 300.5z" />
<glyph unicode="&#xe8;" horiz-adv-x="921" d="M72 434q0 224 120.5 368t301.5 144q160 0 257 -105t97 -263q0 -104 -21 -170h-567q0 -151 69.5 -217t184.5 -66q60 0 127 27.5t111 70.5h6l35 -147q-52 -48 -132.5 -76.5t-173.5 -28.5q-85 0 -158.5 27t-131.5 81t-91.5 145t-33.5 210zM242 1370v21h172l196 -336v-17 h-125zM268 539h398q18 115 -37.5 185.5t-139.5 70.5q-94 0 -156 -73t-65 -183z" />
<glyph unicode="&#xe9;" horiz-adv-x="921" d="M72 434q0 224 120.5 368t301.5 144q160 0 257 -105t97 -263q0 -104 -21 -170h-567q0 -151 69.5 -217t184.5 -66q60 0 127 27.5t111 70.5h6l35 -147q-52 -48 -132.5 -76.5t-173.5 -28.5q-85 0 -158.5 27t-131.5 81t-91.5 145t-33.5 210zM268 539h398q18 115 -37.5 185.5 t-139.5 70.5q-94 0 -156 -73t-65 -183zM385 1038v17l197 336h172v-21l-244 -332h-125z" />
<glyph unicode="&#xea;" horiz-adv-x="921" d="M72 434q0 224 120.5 368t301.5 144q160 0 257 -105t97 -263q0 -104 -21 -170h-567q0 -151 69.5 -217t184.5 -66q60 0 127 27.5t111 70.5h6l35 -147q-52 -48 -132.5 -76.5t-173.5 -28.5q-85 0 -158.5 27t-131.5 81t-91.5 145t-33.5 210zM221 1038v17l248 336h57l248 -336 v-17h-115l-161 193l-162 -193h-115zM268 539h398q18 115 -37.5 185.5t-139.5 70.5q-94 0 -156 -73t-65 -183z" />
<glyph unicode="&#xeb;" horiz-adv-x="921" d="M72 434q0 224 120.5 368t301.5 144q160 0 257 -105t97 -263q0 -104 -21 -170h-567q0 -151 69.5 -217t184.5 -66q60 0 127 27.5t111 70.5h6l35 -147q-52 -48 -132.5 -76.5t-173.5 -28.5q-85 0 -158.5 27t-131.5 81t-91.5 145t-33.5 210zM238 1159q0 41 29.5 71t70.5 30 t70.5 -30t29.5 -71t-29.5 -70.5t-70.5 -29.5t-70.5 29.5t-29.5 70.5zM268 539h398q18 115 -37.5 185.5t-139.5 70.5q-94 0 -156 -73t-65 -183zM557 1159q0 41 29.5 71t70.5 30t71 -30t30 -71t-30 -70.5t-71 -29.5t-70.5 29.5t-29.5 70.5z" />
<glyph unicode="&#xec;" horiz-adv-x="471" d="M-20 1352v20h172l196 -336v-16h-125zM143 0v903l185 25v-928h-185z" />
<glyph unicode="&#xed;" horiz-adv-x="471" d="M123 1020v16l196 336h173v-20l-244 -332h-125zM143 0v903l185 25v-928h-185z" />
<glyph unicode="&#xee;" horiz-adv-x="471" d="M-41 1020v16l248 336h57l248 -336v-16h-115l-161 192l-162 -192h-115zM143 0v903l185 25v-928h-185z" />
<glyph unicode="&#xef;" horiz-adv-x="471" d="M-25 1141q0 41 30 70.5t71 29.5t70.5 -29.5t29.5 -70.5t-29.5 -71t-70.5 -30t-71 30t-30 71zM143 0v903l185 25v-928h-185zM295 1141q0 41 29.5 70.5t70.5 29.5t71 -29.5t30 -70.5t-30 -71t-71 -30t-70.5 30t-29.5 71z" />
<glyph unicode="&#xf0;" d="M72 451q0 215 120 355t302 140q119 0 217 -92l8 4q-60 145 -189 264l-170 -114l-61 82l147 100q-101 71 -219 117l47 106q185 -59 299 -137l181 123l61 -82l-156 -107q273 -237 273 -686q0 -257 -122.5 -405t-307.5 -148q-183 0 -306.5 135.5t-123.5 344.5zM260 453 q0 -150 66 -240t176 -90q105 0 173 90t68 240q0 154 -67.5 248t-181.5 94q-104 0 -169 -96.5t-65 -245.5z" />
<glyph unicode="&#xf1;" horiz-adv-x="983" d="M113 0v918h151l15 -84h10q134 112 299 112q128 0 205 -77t77 -230v-639h-184v592q0 190 -170 190q-62 0 -122.5 -33t-96.5 -83v-666h-184zM207 1073q0 114 50 180t122 66q36 0 69.5 -20.5t54.5 -45t46 -45t47 -20.5q34 0 53 37t19 90h106q0 -99 -48 -172.5t-122 -73.5 q-30 0 -57 13.5t-46.5 32.5t-37 37.5t-36 32t-36.5 13.5q-37 0 -59.5 -35.5t-22.5 -89.5h-102z" />
<glyph unicode="&#xf2;" d="M72 451q0 215 120 355t302 140q197 0 317.5 -139t120.5 -356q0 -208 -124.5 -344t-305.5 -136q-183 0 -306.5 135.5t-123.5 344.5zM236 1370v21h172l196 -336v-17h-125zM260 453q0 -150 66 -240t176 -90q105 0 173 90t68 240q0 154 -67.5 248t-181.5 94 q-104 0 -169 -96.5t-65 -245.5z" />
<glyph unicode="&#xf3;" d="M72 451q0 215 120 355t302 140q197 0 317.5 -139t120.5 -356q0 -208 -124.5 -344t-305.5 -136q-183 0 -306.5 135.5t-123.5 344.5zM260 453q0 -150 66 -240t176 -90q105 0 173 90t68 240q0 154 -67.5 248t-181.5 94q-104 0 -169 -96.5t-65 -245.5zM379 1038v17l196 336 h173v-21l-244 -332h-125z" />
<glyph unicode="&#xf4;" d="M72 451q0 215 120 355t302 140q197 0 317.5 -139t120.5 -356q0 -208 -124.5 -344t-305.5 -136q-183 0 -306.5 135.5t-123.5 344.5zM215 1038v17l248 336h57l248 -336v-17h-115l-161 193l-162 -193h-115zM260 453q0 -150 66 -240t176 -90q105 0 173 90t68 240 q0 154 -67.5 248t-181.5 94q-104 0 -169 -96.5t-65 -245.5z" />
<glyph unicode="&#xf5;" d="M72 451q0 215 120 355t302 140q197 0 317.5 -139t120.5 -356q0 -208 -124.5 -344t-305.5 -136q-183 0 -306.5 135.5t-123.5 344.5zM207 1073q0 114 50 180t122 66q36 0 69.5 -20.5t54.5 -45t46 -45t47 -20.5q34 0 53 37t19 90h106q0 -99 -48 -172.5t-122 -73.5 q-30 0 -57 13.5t-46.5 32.5t-37 37.5t-36 32t-36.5 13.5q-37 0 -59.5 -35.5t-22.5 -89.5h-102zM260 453q0 -150 66 -240t176 -90q105 0 173 90t68 240q0 154 -67.5 248t-181.5 94q-104 0 -169 -96.5t-65 -245.5z" />
<glyph unicode="&#xf6;" d="M72 451q0 215 120 355t302 140q197 0 317.5 -139t120.5 -356q0 -208 -124.5 -344t-305.5 -136q-183 0 -306.5 135.5t-123.5 344.5zM231 1159q0 41 30 71t71 30t70.5 -30t29.5 -71t-29.5 -70.5t-70.5 -29.5t-71 29.5t-30 70.5zM260 453q0 -150 66 -240t176 -90 q105 0 173 90t68 240q0 154 -67.5 248t-181.5 94q-104 0 -169 -96.5t-65 -245.5zM551 1159q0 41 29.5 71t70.5 30t71 -30t30 -71t-30 -70.5t-71 -29.5t-70.5 29.5t-29.5 70.5z" />
<glyph unicode="&#xf7;" horiz-adv-x="1085" d="M68 547v139h950v-139h-950zM420 281q0 51 36 86.5t87 35.5t87 -35.5t36 -86.5t-36 -87t-87 -36t-87 36t-36 87zM420 952q0 51 36 87t87 36t87 -36t36 -87t-36 -87t-87 -36t-87 36t-36 87z" />
<glyph unicode="&#xf8;" d="M72 451q0 215 120 355t302 140q151 0 260 -86l88 119l73 -55l-96 -129q113 -138 113 -344q0 -208 -124.5 -344t-305.5 -136q-133 0 -244 78l-98 -133l-74 55l104 140q-118 134 -118 340zM260 453q0 -114 39 -197l354 471q-65 68 -159 68q-104 0 -169 -96.5t-65 -245.5z M356 178q58 -55 146 -55q105 0 173 90t68 240q0 109 -36 192z" />
<glyph unicode="&#xf9;" horiz-adv-x="983" d="M113 319v599h184v-570q0 -211 160 -211q69 0 136.5 50t92.5 122v609h184v-918h-159l-19 106h-6q-120 -135 -287 -135q-58 0 -107.5 19t-90.5 58.5t-64.5 109t-23.5 161.5zM236 1370v21h172l196 -336v-17h-125z" />
<glyph unicode="&#xfa;" horiz-adv-x="983" d="M113 319v599h184v-570q0 -211 160 -211q69 0 136.5 50t92.5 122v609h184v-918h-159l-19 106h-6q-120 -135 -287 -135q-58 0 -107.5 19t-90.5 58.5t-64.5 109t-23.5 161.5zM379 1038v17l196 336h173v-21l-244 -332h-125z" />
<glyph unicode="&#xfb;" horiz-adv-x="983" d="M113 319v599h184v-570q0 -211 160 -211q69 0 136.5 50t92.5 122v609h184v-918h-159l-19 106h-6q-120 -135 -287 -135q-58 0 -107.5 19t-90.5 58.5t-64.5 109t-23.5 161.5zM215 1038v17l248 336h57l248 -336v-17h-115l-161 193l-162 -193h-115z" />
<glyph unicode="&#xfc;" horiz-adv-x="983" d="M113 319v599h184v-570q0 -211 160 -211q69 0 136.5 50t92.5 122v609h184v-918h-159l-19 106h-6q-120 -135 -287 -135q-58 0 -107.5 19t-90.5 58.5t-64.5 109t-23.5 161.5zM231 1159q0 41 30 71t71 30t70.5 -30t29.5 -71t-29.5 -70.5t-70.5 -29.5t-71 29.5t-30 70.5z M551 1159q0 41 29.5 71t70.5 30t71 -30t30 -71t-30 -70.5t-71 -29.5t-70.5 29.5t-29.5 70.5z" />
<glyph unicode="&#xfd;" horiz-adv-x="901" d="M27 918h190l227 -621h9l231 621h190l-428 -1100q-32 -84 -73 -144.5t-78 -72.5l-180 -25v55q64 48 128.5 153.5t110.5 262.5zM358 1038v17l197 336h172v-21l-244 -332h-125z" />
<glyph unicode="&#xfe;" d="M113 -412v1805l184 24v-571h6q87 100 219 100q62 0 120 -16.5t111 -54.5t92.5 -93.5t63 -139t23.5 -185.5q0 -106 -28 -192.5t-71.5 -139.5t-99.5 -89t-108 -50.5t-101 -14.5q-146 0 -217 82h-10v-440zM297 229q60 -92 184 -92q48 0 92.5 16.5t83.5 51t62.5 95.5 t23.5 142q0 65 -12 119.5t-33 91t-46.5 63.5t-55.5 41.5t-57 21.5t-54 7q-116 0 -188 -90v-467z" />
<glyph unicode="&#xff;" horiz-adv-x="901" d="M27 918h190l227 -621h9l231 621h190l-428 -1100q-32 -84 -73 -144.5t-78 -72.5l-180 -25v55q64 48 128.5 153.5t110.5 262.5zM211 1159q0 41 29.5 71t70.5 30t71 -30t30 -71t-30 -70.5t-71 -29.5t-70.5 29.5t-29.5 70.5zM530 1159q0 41 30 71t71 30t70.5 -30t29.5 -71 t-29.5 -70.5t-70.5 -29.5t-71 29.5t-30 70.5z" />
<glyph unicode="&#x152;" horiz-adv-x="1884" d="M98 686q0 162 58 302.5t154.5 234.5t221.5 147t259 53q106 0 208 -30h789v-168h-596v-416h534v-168h-534v-473h616v-168h-809q-114 -31 -208 -31q-190 0 -349 93t-251.5 258t-92.5 366zM299 690q0 -143 58 -266t173 -202t265 -79q112 0 204 47v1008q-102 51 -219 51 q-94 0 -180 -39t-153.5 -109t-107.5 -177t-40 -234z" />
<glyph unicode="&#x153;" horiz-adv-x="1576" d="M72 451q0 215 120 355t302 140q218 0 337 -178q58 84 140.5 131t179.5 47q160 0 256 -105t96 -263q0 -107 -20 -170h-565q0 -151 69 -217t184 -66q60 0 127 27.5t111 70.5h6l35 -147q-52 -48 -132 -76.5t-173 -28.5q-101 0 -186 40t-140 120q-58 -76 -140.5 -118 t-176.5 -42q-183 0 -306.5 135.5t-123.5 344.5zM260 453q0 -150 66 -240t176 -90q105 0 173 90t68 240q0 154 -67.5 248t-181.5 94q-104 0 -169 -96.5t-65 -245.5zM926 539h395q18 115 -36 185.5t-138 70.5q-94 0 -156 -73t-65 -183z" />
<glyph unicode="&#x178;" horiz-adv-x="1208" d="M16 1393h213l371 -586h16l363 586h213l-492 -772v-621h-192v621zM346 1595q0 41 29.5 71t70.5 30t71 -30t30 -71t-30 -70.5t-71 -29.5t-70.5 29.5t-29.5 70.5zM666 1595q0 41 29.5 71t70.5 30t70.5 -30t29.5 -71t-29.5 -70.5t-70.5 -29.5t-70.5 29.5t-29.5 70.5z" />
<glyph unicode="&#x2c6;" horiz-adv-x="1024" d="M236 918v16l247 336h58l247 -336v-16h-114l-162 192l-162 -192h-114z" />
<glyph unicode="&#x2dc;" horiz-adv-x="1024" d="M227 952q0 114 50 180t122 66q36 0 69.5 -20.5t54.5 -45t46 -45t47 -20.5q34 0 53 37t19 90h107q0 -99 -48 -172.5t-122 -73.5q-30 0 -57 13.5t-46.5 32t-37 37.5t-36 32.5t-36.5 13.5q-37 0 -59.5 -35.5t-22.5 -89.5h-103z" />
<glyph unicode="&#x2000;" horiz-adv-x="924" />
<glyph unicode="&#x2001;" horiz-adv-x="1849" />
<glyph unicode="&#x2002;" horiz-adv-x="924" />
<glyph unicode="&#x2003;" horiz-adv-x="1849" />
<glyph unicode="&#x2004;" horiz-adv-x="616" />
<glyph unicode="&#x2005;" horiz-adv-x="462" />
<glyph unicode="&#x2006;" horiz-adv-x="308" />
<glyph unicode="&#x2007;" horiz-adv-x="308" />
<glyph unicode="&#x2008;" horiz-adv-x="231" />
<glyph unicode="&#x2009;" horiz-adv-x="369" />
<glyph unicode="&#x200a;" horiz-adv-x="102" />
<glyph unicode="&#x2010;" horiz-adv-x="696" d="M82 406v172h532v-172h-532z" />
<glyph unicode="&#x2011;" horiz-adv-x="696" d="M82 406v172h532v-172h-532z" />
<glyph unicode="&#x2012;" horiz-adv-x="696" d="M82 406v172h532v-172h-532z" />
<glyph unicode="&#x2013;" horiz-adv-x="983" d="M82 406v172h819v-172h-819z" />
<glyph unicode="&#x2014;" horiz-adv-x="2048" d="M188 418v149h1672v-149h-1672z" />
<glyph unicode="&#x2018;" horiz-adv-x="573" d="M104 889l230 504h129l-141 -504h-218z" />
<glyph unicode="&#x2019;" horiz-adv-x="573" d="M111 889l141 504h217l-229 -504h-129z" />
<glyph unicode="&#x201a;" horiz-adv-x="573" d="M111 -268l141 504h217l-229 -504h-129z" />
<glyph unicode="&#x201c;" horiz-adv-x="962" d="M104 889l230 504h129l-141 -504h-218zM494 889l229 504h129l-141 -504h-217z" />
<glyph unicode="&#x201d;" horiz-adv-x="962" d="M111 889l141 504h217l-229 -504h-129zM500 889l141 504h217l-229 -504h-129z" />
<glyph unicode="&#x201e;" horiz-adv-x="962" d="M111 -268l141 504h217l-229 -504h-129zM500 -268l141 504h217l-229 -504h-129z" />
<glyph unicode="&#x2022;" horiz-adv-x="983" d="M213 541q0 115 81.5 196.5t197.5 81.5t197 -81.5t81 -196.5q0 -116 -81.5 -197.5t-196.5 -81.5q-116 0 -197.5 82t-81.5 197z" />
<glyph unicode="&#x2026;" horiz-adv-x="1863" d="M154 109q0 51 35.5 86.5t86.5 35.5t87 -35.5t36 -86.5t-36 -87t-87 -36t-86.5 36t-35.5 87zM809 109q0 51 36 86.5t87 35.5t87 -35.5t36 -86.5t-36 -87t-87 -36t-87 36t-36 87zM1464 109q0 51 36 86.5t87 35.5t87 -35.5t36 -86.5t-36 -87t-87 -36t-87 36t-36 87z" />
<glyph unicode="&#x202f;" horiz-adv-x="369" />
<glyph unicode="&#x2039;" horiz-adv-x="839" d="M154 455v26l403 459l105 -74l-279 -385v-20l279 -393l-105 -76z" />
<glyph unicode="&#x203a;" horiz-adv-x="839" d="M178 68l279 393v20l-279 385l105 74l403 -459v-26l-403 -463z" />
<glyph unicode="&#x205f;" horiz-adv-x="462" />
<glyph unicode="&#x20ac;" horiz-adv-x="1249" d="M51 526l29 113h90v35q0 42 2 65h-121l29 113h104q32 176 125 307.5t221 197.5t275 66q161 0 325 -67l-45 -170q-135 66 -284 63q-146 -2 -262 -104t-154 -293h612l-28 -113h-596q-2 -18 -2 -57v-43h573l-29 -113h-530q36 -174 142.5 -278.5t256.5 -104.5q155 0 301 76 l66 -156q-174 -94 -371 -94q-231 0 -394 156.5t-204 400.5h-131z" />
<glyph unicode="&#x2122;" horiz-adv-x="1413" d="M152 1300v93h479v-93h-191v-440h-98v440h-190zM645 860l88 537h45l158 -348h8l154 348h45l88 -537h-96l-50 297h-10l-133 -305h-10l-133 305h-8l-52 -297h-94z" />
<glyph unicode="&#xe000;" horiz-adv-x="921" d="M0 0v922h922v-922h-922z" />
</font>
</defs>
</svg>
