<?xml version="1.0" standalone="no"?>
<!DOCTYPE svg PUBLIC "-//W3C//DTD SVG 1.1//EN" "http://www.w3.org/Graphics/SVG/1.1/DTD/svg11.dtd" >
<svg xmlns="http://www.w3.org/2000/svg">
<metadata></metadata>
<defs>
<font id="concourse_t3regular" horiz-adv-x="1003" >
<font-face units-per-em="2048" ascent="1520" descent="-528" />
<missing-glyph horiz-adv-x="450" />
<glyph unicode="&#xfb01;" horiz-adv-x="1126" d="M57 801v92l179 35v78q0 230 210 374l199 37l8 -90q-274 -45 -274 -323v-86h229v-117h-229v-801h-143v801h-179zM791 1288q0 45 29 76t71 31t71 -31t29 -76q0 -42 -29.5 -73t-70.5 -31t-70.5 31t-29.5 73zM819 0v907l144 19v-926h-144z" />
<glyph unicode="&#xfb02;" horiz-adv-x="1126" d="M57 801v92l179 35v78q0 230 210 374l199 37l8 -90q-274 -45 -274 -323v-86h229v-117h-229v-801h-143v801h-179zM819 0v1393l144 24v-1417h-144z" />
<glyph horiz-adv-x="2048" />
<glyph horiz-adv-x="2048" />
<glyph unicode="&#xd;" horiz-adv-x="2048" />
<glyph unicode=" "  horiz-adv-x="450" />
<glyph unicode="&#x09;" horiz-adv-x="450" />
<glyph unicode="&#xa0;" horiz-adv-x="450" />
<glyph unicode="!" horiz-adv-x="634" d="M207 94q0 46 32 78.5t78 32.5q45 0 78 -33t33 -78t-33 -76.5t-78 -31.5q-46 0 -78 31t-32 77zM223 1393h178l-24 -486l-17 -501h-96l-16 503z" />
<glyph unicode="&#x22;" horiz-adv-x="819" d="M168 1393h176q-22 -251 -45 -562h-88q-6 65 -43 562zM475 1393h176q-22 -251 -45 -562h-88q-6 65 -43 562z" />
<glyph unicode="#" horiz-adv-x="1044" d="M18 512l21 104l244 -43l79 345l-219 38l19 105l225 -41l107 463l94 -21l-107 -458l211 -37l121 497l94 -20l-121 -494l238 -41l-18 -104l-244 43l-82 -344l217 -39l-16 -105l-228 39l-125 -520l-94 23l125 514l-207 37l-127 -553l-94 22l127 547zM377 557l207 -37l84 344 l-211 37z" />
<glyph unicode="$" horiz-adv-x="962" d="M94 174q8 35 35 137q125 -95 264 -114l47 485q-2 0 -2 2q-73 37 -123.5 70t-98 78.5t-71.5 101.5t-24 123q0 122 103 213.5t278 91.5h6l18 172l90 -10l-16 -170q127 -23 234 -92q0 -2 -25 -134q-130 79 -223 95l-45 -445h4q176 -90 249.5 -179.5t73.5 -201.5 q0 -87 -33 -153.5t-89.5 -105.5t-126 -58.5t-150.5 -20.5l-18 -194l-91 8l19 193q-84 12 -166 44t-119 64zM258 1051q0 -66 41 -114.5t156 -111.5l41 406q-109 -2 -173.5 -49t-64.5 -131zM483 190q118 1 182 54.5t64 144.5q0 73 -45 128t-158 120z" />
<glyph unicode="%" horiz-adv-x="1392" d="M100 1081q0 145 78 239.5t197 94.5q129 0 208 -94t79 -240q0 -139 -82 -230t-199 -91q-121 0 -201 90.5t-80 230.5zM162 20l512 703l459 692l100 -41l-490 -682l-481 -715zM221 1083q0 -97 46.5 -158t119.5 -61q66 0 110 60.5t44 158.5q0 102 -43.5 164t-116.5 62 q-69 0 -114.5 -64t-45.5 -162zM731 299q0 145 78 239.5t197 94.5q129 0 207.5 -93.5t78.5 -240.5q0 -139 -81.5 -230.5t-198.5 -91.5q-121 0 -201 91t-80 231zM852 301q0 -97 46.5 -158t119.5 -61q66 0 109.5 60.5t43.5 158.5q0 102 -43 163.5t-116 61.5q-69 0 -114.5 -63.5 t-45.5 -161.5z" />
<glyph unicode="&#x26;" horiz-adv-x="1331" d="M119 397q0 322 305 441v12q-182 77 -182 250q0 138 118.5 228.5t286.5 90.5q84 0 166.5 -25t142.5 -63l-57 -131q-131 76 -256 76q-108 0 -178 -49.5t-70 -134.5q0 -79 54 -133.5t151 -67.5v-113q-135 -11 -232.5 -107t-97.5 -249q0 -142 103.5 -223.5t263.5 -81.5 q158 0 269.5 88.5t111.5 224.5q0 92 -43 166l-164 -43l-31 123l451 117l31 -121l-144 -39q41 -80 41 -197q0 -108 -44 -197t-117.5 -146.5t-167.5 -88.5t-197 -31q-153 0 -271.5 57.5t-180.5 153.5t-62 213z" />
<glyph unicode="'" horiz-adv-x="512" d="M168 1393h176q-22 -251 -45 -562h-88q-6 65 -43 562z" />
<glyph unicode="(" horiz-adv-x="716" d="M133 557q0 308 126.5 556t334.5 392l72 -92q-170 -130 -271.5 -351.5t-101.5 -481.5q0 -266 100 -481t273 -365l-72 -96q-96 77 -176.5 170.5t-146 208.5t-102 253.5t-36.5 286.5z" />
<glyph unicode=")" horiz-adv-x="716" d="M51 -266q173 150 273 365t100 481q0 260 -101.5 481.5t-271.5 351.5l72 92q208 -144 334.5 -392t126.5 -556q0 -148 -36.5 -286.5t-102 -253.5t-146 -208.5t-176.5 -170.5z" />
<glyph unicode="*" horiz-adv-x="1085" d="M145 973l54 155l303 -131l-39 396h176l-61 -400l311 156q27 -89 51 -160l-342 -63l279 -295l-123 -99l-213 355l-209 -365l-121 105l266 295z" />
<glyph unicode="+" horiz-adv-x="1085" d="M68 557v119h415v416h119v-416h416v-119h-416v-416h-119v416h-415z" />
<glyph unicode="," horiz-adv-x="512" d="M37 -315l213 495h178v-12q-39 -70 -132 -234t-142 -253h-117v4z" />
<glyph unicode="-" horiz-adv-x="696" d="M82 420v141h532v-141h-532z" />
<glyph unicode="." horiz-adv-x="552" d="M166 94q0 46 32 78.5t78 32.5q45 0 78 -33t33 -78t-33 -76.5t-78 -31.5q-46 0 -78 31t-32 77z" />
<glyph unicode="/" horiz-adv-x="942" d="M20 -328l766 1762h136l-766 -1762h-136z" />
<glyph unicode="0" horiz-adv-x="1208" d="M96 711q0 169 40 305t109.5 223.5t162 133.5t200.5 46q227 0 365.5 -186.5t138.5 -521.5q0 -360 -137.5 -549t-366.5 -189q-109 0 -200.5 44t-162 132t-110 231.5t-39.5 330.5zM246 715q0 -155 29.5 -274.5t80.5 -191t115.5 -107.5t138.5 -36q168 0 260.5 161t92.5 448 q0 262 -99 415.5t-264 153.5q-155 0 -254.5 -148t-99.5 -421z" />
<glyph unicode="1" horiz-adv-x="921" d="M166 1358l399 51l35 -25v-1384h-147v1257l-275 -32z" />
<glyph unicode="2" horiz-adv-x="1105" d="M59 72q279 229 449 408t238.5 303.5t68.5 230.5q0 131 -77.5 200.5t-209.5 69.5q-178 0 -354 -121l-12 144q45 35 147 73.5t230 38.5q92 0 168.5 -22t136.5 -66t93.5 -119t33.5 -174q0 -203 -162 -416t-487 -470l8 -15l661 13v-150h-911z" />
<glyph unicode="3" horiz-adv-x="1064" d="M88 197l4 4q185 -95 363 -95q148 0 245 78t97 215q0 109 -83 182.5t-210 69.5l-264 -8l16 145l236 -6q116 -3 198 71.5t82 184.5q0 115 -81.5 182.5t-215.5 67.5q-142 0 -307 -80l-8 2l16 138q144 71 303 71q201 0 324 -95.5t123 -264.5q0 -121 -66.5 -208.5 t-177.5 -115.5v-12q125 -27 196.5 -122.5t71.5 -209.5q0 -92 -32 -165.5t-82.5 -119.5t-118 -77t-134 -43.5t-134.5 -12.5q-201 0 -355 80z" />
<glyph unicode="4" horiz-adv-x="1126" d="M90 477l615 916h167v-856l172 4v-131h-172v-410h-145v410h-604zM281 549l10 -19l436 5v657h-22z" />
<glyph unicode="5" horiz-adv-x="1105" d="M127 -4q6 32 29 131q82 -21 178 -21q234 0 370 103t136 272q0 105 -62.5 179t-162 108.5t-224.5 34.5q-119 0 -235 -19l-9 7l78 602h727l-20 -148l-592 17l-45 -342q60 8 141 8q116 0 209.5 -23t158 -63t108 -96t63.5 -120.5t20 -138.5q0 -161 -86.5 -278.5 t-236.5 -176.5t-346 -59q-126 0 -199 23z" />
<glyph unicode="6" horiz-adv-x="1105" d="M109 535q0 161 47.5 302.5t128.5 244t188 178t227 115t244 44.5l-22 -139q-128 -8 -242.5 -57t-196 -123.5t-134 -167t-66.5 -189.5l12 -10q118 86 274 86q85 0 163 -25.5t143 -75.5t104 -135.5t39 -195.5q0 -97 -38 -178t-99.5 -131t-137 -77.5t-153.5 -27.5 q-124 0 -218 44.5t-150.5 123t-84.5 177.5t-28 217zM260 504q0 -181 90 -292.5t236 -111.5q124 0 202 74.5t78 202.5q0 84 -27 147.5t-73.5 100t-102.5 54t-120 17.5q-161 0 -275 -94q-8 -47 -8 -98z" />
<glyph unicode="7" horiz-adv-x="1024" d="M80 1249l14 144h860l21 -25q-447 -709 -479 -1368h-172q42 344 163 672.5t293 578.5l-8 11z" />
<glyph unicode="8" horiz-adv-x="1085" d="M102 348q0 118 78 212.5t209 154.5v10q-237 151 -237 352q0 144 115.5 243t293.5 99q162 0 273.5 -89.5t111.5 -237.5q0 -244 -258 -363v-12q158 -88 226.5 -181t68.5 -204q0 -157 -125 -258t-317 -101t-315.5 106t-123.5 269zM250 348q0 -110 86 -179t209 -69 q128 0 207 65.5t79 168.5q0 101 -83 176.5t-236 148.5h-2q-130 -50 -195 -133t-65 -178zM305 1085q0 -89 61.5 -161t198.5 -146q111 51 173.5 126.5t62.5 170.5q0 97 -68 158t-178 61q-115 0 -182.5 -60.5t-67.5 -148.5z" />
<glyph unicode="9" horiz-adv-x="1105" d="M88 1001q0 180 124 299t304 119q121 0 215 -44.5t151 -122.5t86 -178t29 -216q0 -157 -37.5 -289t-101 -227.5t-154 -170.5t-190 -123t-215.5 -79l-49 117l2 6q253 67 400.5 210.5t170.5 338.5l-12 8q-113 -76 -276 -76q-66 0 -129 15t-121 48.5t-101.5 82.5t-69.5 121.5 t-26 160.5zM238 1012q0 -86 30 -149t81 -98t110 -51t127 -16q150 0 252 86q6 58 6 105q0 180 -89.5 290.5t-234.5 110.5q-123 0 -202.5 -76t-79.5 -202z" />
<glyph unicode=":" horiz-adv-x="552" d="M166 94q0 46 32 78.5t78 32.5q45 0 78 -33t33 -78t-33 -76.5t-78 -31.5q-46 0 -78 31t-32 77zM166 750q0 46 32 78t78 32q45 0 78 -32.5t33 -77.5t-33 -77t-78 -32q-46 0 -78 31.5t-32 77.5z" />
<glyph unicode=";" horiz-adv-x="593" d="M61 -315l213 495h179v-12q-40 -72 -133 -235.5t-142 -251.5h-117v4zM205 750q0 46 32 78t78 32q45 0 78 -32.5t33 -77.5t-33 -77t-78 -32q-46 0 -78 31.5t-32 77.5z" />
<glyph unicode="&#x3c;" horiz-adv-x="1085" d="M102 604v107l828 399l51 -102l-735 -351l735 -350l-51 -102z" />
<glyph unicode="=" horiz-adv-x="1085" d="M88 344v119h909v-119h-909zM88 754v118h909v-118h-909z" />
<glyph unicode="&#x3e;" horiz-adv-x="1085" d="M104 307l736 350l-736 351l52 102l827 -399v-107l-827 -399z" />
<glyph unicode="?" horiz-adv-x="921" d="M145 1239l15 133q107 47 235 47q204 0 318 -104t114 -271q0 -77 -26 -143t-68.5 -112.5t-99.5 -82t-115.5 -55.5t-118.5 -28v-189h-135v293q410 37 410 322q0 109 -78.5 175t-212.5 66q-55 0 -117 -13.5t-106 -37.5h-15zM225 94q0 46 32.5 78.5t78.5 32.5q44 0 77 -32.5 t33 -78.5q0 -45 -32.5 -76.5t-77.5 -31.5q-46 0 -78.5 31.5t-32.5 76.5z" />
<glyph unicode="@" horiz-adv-x="1413" d="M152 604q0 128 27 248.5t82 224.5t132 181.5t182.5 122t227.5 44.5q201 0 309 -92t96 -276l-39 -568q-3 -47 12.5 -88t43.5 -63v-14l-123 -48q-25 32 -47 99h-23q-100 -86 -241 -86q-117 0 -192 78t-75 221q0 155 97 256.5t241 101.5q112 0 205 -28l10 122 q11 140 -62.5 200t-215.5 60q-221 0 -367.5 -196.5t-146.5 -501.5q0 -163 37 -288.5t102.5 -203t151.5 -116.5t188 -39q166 0 270 76h13l38 -103q-64 -50 -154.5 -75t-168.5 -25q-294 0 -452 205.5t-158 570.5zM655 588q0 -180 176 -180q51 0 109.5 19.5t97.5 51.5l23 324 q-80 31 -182 31q-98 0 -161 -65.5t-63 -180.5z" />
<glyph unicode="A" horiz-adv-x="1392" d="M68 20l612 1410h37l608 -1410l-145 -40l-176 419h-615l-176 -419zM446 539h500l-241 579h-15z" />
<glyph unicode="B" horiz-adv-x="1146" d="M180 0v1393h369q206 0 311 -95.5t105 -248.5q0 -96 -61 -184.5t-159 -116.5v-7q132 -28 212.5 -122.5t80.5 -229.5q0 -186 -125 -287.5t-344 -101.5h-389zM330 137h254q44 0 82.5 6t79.5 23t70.5 43.5t48 72t18.5 105.5q0 87 -45.5 150t-116 91.5t-156.5 28.5h-235v-520z M330 793h239q100 0 170 62.5t70 176.5q0 108 -72.5 165.5t-201.5 57.5h-205v-462z" />
<glyph unicode="C" horiz-adv-x="1351" d="M119 684q0 169 56 309.5t150.5 232.5t218.5 142.5t261 50.5q229 0 430 -141l-49 -135q-43 29 -68.5 43.5t-79.5 40.5q-52 26 -112 38q-55 11 -115 11h-10q-107 -1 -202 -40.5t-167.5 -112t-115 -184t-42.5 -247.5q0 -160 64.5 -290t186.5 -207.5t280 -77.5 q114 0 207.5 37t199.5 104l48 -127q-87 -69 -209.5 -113.5t-249.5 -44.5q-198 0 -354.5 94t-242 256t-85.5 361z" />
<glyph unicode="D" horiz-adv-x="1372" d="M180 0v1393h371q199 0 358 -85.5t251.5 -248.5t92.5 -375q0 -207 -89.5 -363.5t-247.5 -238.5t-363 -82h-373zM330 137h231q251 0 394 149t143 402q0 118 -31.5 215t-83.5 161.5t-122 108t-145.5 63t-156.5 19.5h-229v-1118z" />
<glyph unicode="E" horiz-adv-x="1044" d="M180 0v1393h750v-138h-600v-460h538v-140h-538v-518h620v-137h-770z" />
<glyph unicode="F" d="M180 0v1393h725v-138h-575v-460h514v-140h-514v-655h-150z" />
<glyph unicode="G" horiz-adv-x="1454" d="M119 674q0 158 50 295.5t139 237t217.5 156t279.5 56.5q129 0 249.5 -44t196.5 -99l-53 -135q-52 36 -94.5 60t-127.5 49.5t-175 25.5q-108 0 -202.5 -38.5t-167.5 -111t-115 -187t-42 -257.5q0 -246 149.5 -405.5t389.5 -159.5q109 0 195.5 28.5t136.5 75.5v367h-400 v139h549v-569q-91 -88 -215.5 -136.5t-269.5 -48.5q-158 0 -289.5 57t-218 153.5t-134.5 223.5t-48 267z" />
<glyph unicode="H" horiz-adv-x="1413" d="M180 0v1393h150v-598h753v598h150v-1393h-150v655h-753v-655h-150z" />
<glyph unicode="I" horiz-adv-x="552" d="M201 0v1393h151v-1393h-151z" />
<glyph unicode="J" horiz-adv-x="839" d="M25 35l49 137q84 -55 172 -55q136 0 199 85.5t63 284.5v906h151v-940q0 -237 -109.5 -355t-297.5 -118q-141 0 -227 55z" />
<glyph unicode="K" horiz-adv-x="1228" d="M180 0v1393h150v-656h14l647 672l127 -49v-14l-606 -627l662 -656v-16l-117 -65l-670 657l-57 -55v-584h-150z" />
<glyph unicode="L" d="M180 0v1393h150v-1256h596v-137h-746z" />
<glyph unicode="M" horiz-adv-x="1740" d="M119 2l213 1407l26 4l510 -1118h9l503 1118l27 -2l215 -1409l-145 -16l-146 970l-10 2l-444 -978h-13l-448 978l-10 -2l-142 -970z" />
<glyph unicode="N" horiz-adv-x="1536" d="M180 0v1395l56 16l954 -1094l16 5v1071h150v-1395l-56 -16l-954 1091l-16 -4v-1069h-150z" />
<glyph unicode="O" horiz-adv-x="1576" d="M119 686q0 162 56 301t149.5 232.5t215 146.5t251.5 53q134 0 255 -52t212.5 -145t145.5 -232t54 -304q0 -144 -50 -274.5t-136.5 -227.5t-212 -154t-268.5 -57t-268 54.5t-213.5 148.5t-139.5 226.5t-51 283.5zM274 690q0 -115 36 -218.5t101 -182.5t164.5 -125.5 t219.5 -46.5q149 0 266.5 80t179.5 210t62 283q0 258 -146.5 422t-372.5 164q-100 0 -191.5 -40.5t-162.5 -114t-113.5 -186t-42.5 -245.5z" />
<glyph unicode="P" horiz-adv-x="1064" d="M180 0v1393h348q197 0 318 -107.5t121 -290.5q0 -98 -36.5 -176.5t-99 -128.5t-143.5 -76q-78 -26 -165 -26h-7h-186v-588h-150zM330 725h190q58 0 107.5 14t92 43.5t67 83t24.5 125.5q0 124 -77 194t-204 70h-200v-530z" />
<glyph unicode="Q" horiz-adv-x="1576" d="M119 711q0 140 51 269.5t138 226t210.5 154.5t261.5 58q197 0 353 -95.5t240.5 -256.5t84.5 -356q0 -205 -84.5 -368t-240 -256t-355.5 -93q-49 0 -78 2l-8 -12q118 -100 266.5 -170.5t305.5 -71.5l-35 -143q-118 0 -230 40.5t-199 99t-166.5 118t-162.5 105t-156 52.5 l54 113q-124 103 -187 256.5t-63 327.5zM274 715q0 -119 34.5 -224.5t97.5 -185.5t160.5 -127t215.5 -47q121 0 221.5 48.5t165 130t99.5 186t35 219.5q0 76 -19.5 153t-61.5 150.5t-102 130.5t-148 92t-192 35q-114 0 -210.5 -47t-160.5 -125.5t-99.5 -179.5t-35.5 -209z " />
<glyph unicode="R" horiz-adv-x="1167" d="M180 0v1393h357q217 0 337.5 -102t120.5 -285q0 -153 -93 -259t-249 -135l422 -565v-16l-121 -58l-456 623h-179v-596h-139zM319 729h211q65 0 121 15.5t102 47.5t72.5 87t26.5 127q0 124 -85 187.5t-232 63.5h-216v-528z" />
<glyph unicode="S" horiz-adv-x="1044" d="M94 119l51 139q151 -141 361 -141q135 0 201.5 63t66.5 162q0 91 -59.5 159t-206.5 154q-67 39 -106.5 63t-85.5 54.5t-71 53t-51.5 51.5t-38.5 56.5t-20 61t-8 72.5q0 67 25 128.5t74 112.5t130 81t183 30q105 0 198 -38t158 -91l-49 -133q-135 119 -305 119 q-132 0 -197 -52t-65 -143q0 -83 62.5 -145t244.5 -162q184 -100 264 -199.5t80 -230.5q0 -178 -119 -274.5t-309 -96.5q-134 0 -243 42.5t-165 103.5z" />
<glyph unicode="T" horiz-adv-x="1146" d="M47 1255v138h1053v-138h-451v-1255h-151v1255h-451z" />
<glyph unicode="U" horiz-adv-x="1413" d="M180 485v908h150v-873q0 -403 377 -403q376 0 376 403v873h150v-897q0 -82 -18.5 -156.5t-59 -142t-100.5 -117t-149.5 -78.5t-198.5 -29q-120 0 -213.5 29.5t-151.5 77.5t-95.5 115.5t-52 138t-14.5 151.5z" />
<glyph unicode="V" horiz-adv-x="1249" d="M37 1374l145 33l434 -1112h17l438 1112l141 -33l-573 -1401h-41z" />
<glyph unicode="W" horiz-adv-x="1781" d="M37 1374l139 33l365 -1057h16l307 1065h54l319 -1065h16l351 1057l141 -33l-490 -1401h-53l-301 1059h-14l-305 -1059h-54z" />
<glyph unicode="X" horiz-adv-x="1208" d="M37 12l479 690l-467 670l154 35l401 -580l404 580l151 -33l-469 -669l481 -693l-153 -26l-416 592l-414 -592z" />
<glyph unicode="Y" horiz-adv-x="1208" d="M37 1374l145 33l416 -641h14l414 641l145 -33l-493 -753v-621h-150v621z" />
<glyph unicode="Z" horiz-adv-x="1208" d="M37 25l872 1218l-6 12h-784v138h1040l12 -17l-876 -1229l10 -10h825v-137h-1079z" />
<glyph unicode="[" horiz-adv-x="757" d="M231 -336l11 930l-11 889l484 -8v-119l-324 8l-8 -776l8 -805l336 8v-119z" />
<glyph unicode="\" horiz-adv-x="942" d="M20 1434h136l766 -1762h-136z" />
<glyph unicode="]" horiz-adv-x="757" d="M31 -209l336 -8l8 805l-8 776l-324 -8v119l483 8l-10 -889l10 -930l-495 8v119z" />
<glyph unicode="^" horiz-adv-x="1085" d="M61 643l465 772h35l463 -772l-98 -68l-373 629h-16l-379 -629z" />
<glyph unicode="_" horiz-adv-x="1085" d="M-51 -311h1188v-119h-1188v119z" />
<glyph unicode="`" horiz-adv-x="1024" d="M291 1257v21h143l201 -328v-16h-96z" />
<glyph unicode="a" horiz-adv-x="921" d="M96 242q0 54 20 103t61 91t114 67t170 25q73 0 162 -14v102q0 56 -17.5 97.5t-47 64t-62.5 33t-68 10.5q-113 0 -244 -92l-49 113q167 100 328 100q122 0 208.5 -74.5t86.5 -220.5v-434q0 -51 23.5 -88.5t58.5 -56.5v-9l-101 -86q-82 56 -100 127h-10 q-45 -62 -113.5 -93.5t-148.5 -31.5q-115 0 -193 72.5t-78 194.5zM236 244q0 -71 44.5 -110.5t114.5 -39.5q75 0 136.5 41.5t91.5 110.5v162q-90 16 -164 16q-106 0 -164.5 -48.5t-58.5 -131.5z" />
<glyph unicode="b" d="M133 82v1311l143 24v-567h11q109 92 245 92q167 0 273 -131t106 -324q0 -227 -124.5 -369.5t-319.5 -142.5q-83 0 -174.5 26.5t-159.5 80.5zM276 156q64 -58 189 -58q132 0 215.5 98.5t83.5 286.5q0 68 -15 127t-44.5 106.5t-79.5 75t-115 27.5q-64 0 -129 -28.5 t-105 -71.5v-563z" />
<glyph unicode="c" horiz-adv-x="819" d="M92 430q0 143 58.5 262t153.5 184.5t204 65.5q87 0 147 -23.5t129 -74.5l-53 -111q-104 90 -215 90q-118 0 -197 -109.5t-79 -279.5q0 -165 74 -253.5t190 -88.5q114 0 225 88l41 -106q-50 -42 -124 -70.5t-148 -28.5q-186 0 -296 127.5t-110 327.5z" />
<glyph unicode="d" d="M92 434q0 141 49.5 256t145 183.5t221.5 68.5q131 0 213 -82h6v533l143 24v-1417h-106l-31 106h-8q-128 -131 -281 -131q-158 0 -255 121.5t-97 337.5zM240 446q0 -168 65.5 -258t173.5 -90q67 0 132 35.5t116 106.5v477q-38 49 -93.5 75.5t-115.5 26.5 q-134 0 -206 -102.5t-72 -270.5z" />
<glyph unicode="e" horiz-adv-x="921" d="M92 434q0 223 114.5 365.5t287.5 142.5q153 0 244 -103.5t91 -260.5q0 -87 -24 -158h-565q0 -170 74 -247t196 -77q59 0 123.5 28t107.5 71h7l26 -119q-48 -47 -123.5 -74t-163.5 -27q-80 0 -149.5 27t-125.5 81t-88 144t-32 207zM246 526h436q5 34 5 66q1 88 -43 148 q-60 82 -155 83q-105 0 -171 -84.5t-72 -212.5z" />
<glyph unicode="f" horiz-adv-x="655" d="M57 801v92l179 35v78q0 230 210 374l199 37l8 -90q-274 -45 -274 -323v-86h229v-117h-229v-801h-143v801h-179z" />
<glyph unicode="g" d="M92 434q0 139 49 253t146 184.5t225 70.5q59 0 120.5 -22.5t104.5 -67.5h11l38 72l84 -9v-911q0 -104 -36 -187.5t-95.5 -135t-132 -78.5t-149.5 -27q-195 0 -307 100l55 111h4q104 -90 250 -90q53 0 97.5 14.5t84 47t62.5 93.5t24 146v106h-8q-101 -112 -262 -112 q-170 0 -267.5 115.5t-97.5 326.5zM240 428q0 -160 66.5 -238.5t180.5 -78.5q65 0 130 33t110 100v473q-31 45 -89.5 76.5t-119.5 31.5q-129 0 -203.5 -109.5t-74.5 -287.5z" />
<glyph unicode="h" horiz-adv-x="983" d="M133 0v1393l143 24v-610h11q59 60 136.5 97.5t158.5 37.5q116 0 192 -78.5t76 -236.5v-627h-143v600q0 108 -50 159.5t-122 51.5q-68 0 -137 -36.5t-122 -100.5v-674h-143z" />
<glyph unicode="i" horiz-adv-x="471" d="M135 1288q0 45 29.5 76t71.5 31t71 -31t29 -76q0 -42 -29.5 -73t-70.5 -31t-71 31t-30 73zM164 0v907l143 19v-926h-143z" />
<glyph unicode="j" horiz-adv-x="471" d="M31 -369q73 43 103 128t30 227v921l143 19v-957q0 -281 -143 -375l-127 -18zM135 1288q0 45 29.5 76t71.5 31t71 -31t29 -76q0 -42 -29.5 -73t-70.5 -31t-71 31t-30 73z" />
<glyph unicode="k" horiz-adv-x="901" d="M133 0v1393l143 24v-921h9l436 442l102 -57v-7l-360 -376v-2l395 -459v-6l-117 -51l-383 444l-82 -84v-340h-143z" />
<glyph unicode="l" horiz-adv-x="471" d="M164 0v1393l143 24v-1417h-143z" />
<glyph unicode="m" horiz-adv-x="1536" d="M133 0v918h121l14 -115h8q58 62 133.5 100.5t155.5 38.5q76 0 141 -39t99 -110h12q85 75 158 112t158 37q52 0 99 -17.5t86 -52t62 -92.5t23 -133v-647h-143v616q0 97 -48.5 146t-121.5 49q-129 0 -250 -125v-686h-144v627q0 97 -54 140.5t-126 43.5q-65 0 -130 -35 t-110 -92v-684h-143z" />
<glyph unicode="n" horiz-adv-x="983" d="M133 0v918h119l14 -111h8q63 63 142 99t162 36q122 0 197 -76t75 -227v-639h-143v596q0 215 -179 215q-70 0 -138.5 -37.5t-113.5 -99.5v-674h-143z" />
<glyph unicode="o" d="M92 451q0 214 113.5 352.5t288.5 138.5q189 0 303 -137.5t114 -353.5q0 -207 -118 -341.5t-291 -134.5q-175 0 -292.5 134.5t-117.5 341.5zM240 453q0 -159 72 -259t190 -100q115 0 188.5 100t73.5 259q0 164 -73 267t-197 103q-114 0 -184 -104.5t-70 -265.5z" />
<glyph unicode="p" d="M133 -418v1336l94 6l33 -95h10q96 113 252 113q72 0 139 -28t124 -83.5t91.5 -152t34.5 -221.5q0 -88 -19 -162.5t-52 -126t-74 -90t-87 -60.5t-88.5 -32.5t-82.5 -10.5q-59 0 -120.5 20.5t-100.5 63.5h-11v-452zM276 201q32 -56 82 -79.5t123 -23.5q52 0 100 18.5 t90 56.5t67.5 108.5t25.5 164.5q0 86 -17.5 154t-45 108t-64 66t-70 35.5t-67.5 9.5q-72 0 -131 -29t-93 -79v-510z" />
<glyph unicode="q" d="M92 418q0 239 117 381.5t299 142.5q128 0 231 -100h9l34 84l88 -11v-1308l-143 -25v508h-6q-37 -47 -113.5 -81t-156.5 -34q-40 0 -84 12t-94.5 44t-89.5 79.5t-65 127.5t-26 180zM240 426q0 -90 21.5 -156t57.5 -102t77 -53t87 -17q68 0 136 35t108 88v494 q-34 46 -91.5 75t-117.5 29q-125 0 -201.5 -100t-76.5 -293z" />
<glyph unicode="r" horiz-adv-x="655" d="M133 0v918h121l12 -216h21q41 99 117.5 165t160.5 67q19 0 51 -4v-148h-61q-90 -6 -171.5 -95t-107.5 -214v-473h-143z" />
<glyph unicode="s" horiz-adv-x="757" d="M78 82l51 111q73 -48 128 -71.5t126 -23.5t117.5 32.5t46.5 88.5q0 58 -52 103t-165 106q-124 67 -177 124.5t-53 147.5q0 100 75.5 171t203.5 71q153 0 297 -113l-51 -108q-133 102 -244 102q-67 0 -105 -32.5t-38 -79.5q0 -53 45.5 -91.5t153.5 -97.5q17 -9 26 -14 q125 -70 173 -134.5t48 -150.5q0 -118 -87.5 -183t-211.5 -65q-90 0 -173 31t-134 76z" />
<glyph unicode="t" horiz-adv-x="634" d="M47 801v92l189 35v260l143 49v-319h219v-117h-219v-801h-143v801h-189z" />
<glyph unicode="u" horiz-adv-x="983" d="M133 299v619h143v-570q0 -244 181 -244q77 0 149.5 52t100.5 125v637h143v-918h-125l-12 111h-8q-125 -136 -293 -136q-119 0 -199 79t-80 245z" />
<glyph unicode="v" horiz-adv-x="901" d="M49 901l133 31l260 -676h7l270 676l133 -31l-389 -926h-45z" />
<glyph unicode="w" horiz-adv-x="1310" d="M49 901l133 31l232 -651h8l219 651h49l209 -651h8l228 651l127 -31l-342 -926h-50l-200 633h-11l-219 -633h-49z" />
<glyph unicode="x" horiz-adv-x="901" d="M49 14l322 459l-301 428l139 31l242 -346l241 346l139 -31l-301 -428l322 -459l-139 -28l-262 372l-263 -372z" />
<glyph unicode="y" horiz-adv-x="901" d="M49 901l133 33l260 -678h7l270 676l133 -31l-451 -1089q-71 -172 -141 -211l-145 -25l-9 59q142 78 265 445z" />
<glyph unicode="z" horiz-adv-x="860" d="M51 23l512 768l-6 10h-465v117h688l8 -13l-518 -780l4 -8h504v-117h-712z" />
<glyph unicode="{" horiz-adv-x="757" d="M84 518v139q112 0 188 58t76 139q0 66 -33.5 186t-33.5 193q0 90 40 141t137 76t269 25v-109q-157 0 -225 -31t-68 -123q0 -74 38 -200t38 -181q0 -84 -71 -140.5t-181 -78.5v-43q105 -9 178.5 -69t73.5 -150q0 -59 -38 -186t-38 -201q0 -39 5 -63.5t21.5 -49.5t48 -38.5 t86 -22t132.5 -8.5v-109q-116 0 -197 12t-130.5 32.5t-77 56t-37 75t-9.5 97.5q0 67 36 189t36 183q0 96 -73 148.5t-191 52.5z" />
<glyph unicode="|" horiz-adv-x="1085" d="M483 -471v2007h119v-2007h-119z" />
<glyph unicode="}" horiz-adv-x="757" d="M31 -219q78 0 132.5 8.5t86 22t48 38.5t21.5 49.5t5 63.5q0 74 -38 201t-38 186q0 90 73.5 150t178.5 69v43q-110 22 -181 78.5t-71 140.5q0 55 38 181t38 200q0 92 -68 123t-225 31v109q172 0 269 -25t137 -76t40 -141q0 -73 -33.5 -193t-33.5 -186q0 -81 76 -139 t188 -58v-139q-118 0 -191 -52.5t-73 -148.5q0 -61 35.5 -183.5t35.5 -188.5q0 -58 -9 -97.5t-36.5 -75t-77 -56t-130.5 -32.5t-197 -12v109z" />
<glyph unicode="~" horiz-adv-x="1085" d="M66 416q0 159 83 251.5t201 92.5q51 0 100 -24t86 -58.5t71.5 -69t70.5 -58.5t70 -24q73 0 117 66.5t44 163.5h119q0 -149 -78.5 -246.5t-204.5 -97.5q-52 0 -100 24t-84 58t-69.5 67.5t-70 57.5t-71.5 24q-76 0 -125 -65t-49 -162h-110z" />
<glyph unicode="&#xa1;" horiz-adv-x="634" d="M207 1059q0 45 32.5 76.5t77.5 31.5q46 0 78.5 -31.5t32.5 -76.5q0 -46 -32.5 -78.5t-78.5 -32.5q-45 0 -77.5 33t-32.5 78zM233 -240l25 486l16 502h97l16 -504l25 -484h-179z" />
<glyph unicode="&#xa2;" horiz-adv-x="880" d="M92 655q0 109 33.5 204t89 160t127.5 104.5t150 45.5l24 226l90 -11q-16 -141 -22 -217q61 -7 107.5 -29t105.5 -65l-54 -112q-81 72 -174 83l-73 -722h26q112 0 223 88q1 -3 15 -48t22 -67q-50 -42 -123.5 -70t-148.5 -28h-29l-18 -197l-90 10q12 136 20 201 q-137 36 -219 152.5t-82 291.5zM240 659q0 -251 166 -317l71 698q-106 -24 -171.5 -126t-65.5 -255z" />
<glyph unicode="&#xa3;" horiz-adv-x="1024" d="M82 90q103 92 151 209.5t48 243.5q0 48 -11 123h-172v100h152q-4 20 -15 72.5t-16.5 79.5t-10.5 67t-5 72q0 94 32 165.5t87 113.5t121.5 62.5t142.5 20.5q67 0 128.5 -12t103.5 -31t66 -33t38 -26q-31 -92 -39 -123q-46 38 -121 66t-158 28q-109 0 -178.5 -62 t-69.5 -190q0 -94 45 -270h340v-100h-319q12 -82 12 -117q0 -236 -147 -383l16 -21q23 19 64 32t84 13q61 0 110.5 -21t97.5 -42t105 -21q84 0 158 56l12 -4l33 -113q-39 -34 -96.5 -53t-106.5 -19q-59 0 -115 21.5t-115 43t-124 21.5q-110 0 -260 -86q-19 30 -68 117z" />
<glyph unicode="&#xa4;" horiz-adv-x="1269" d="M160 941.5q2 20.5 15 38.5t31.5 33t37.5 16.5t32 -9.5l95 -96q120 86 264 86q145 0 258 -80l88 92q21 22 59.5 -0.5t60 -62.5t1.5 -60l-92 -88q77 -113 77 -254q0 -143 -86 -266l99 -94q13 -13 11.5 -34t-15 -39.5t-31.5 -33.5t-37 -16.5t-33 10.5l-102 102 q-114 -82 -258 -82q-141 0 -254 74l-86 -90q-13 -15 -35.5 -13t-42.5 16.5t-36 34t-18.5 40t11.5 35.5l90 88q-82 114 -82 268q0 141 82 260l-92 90q-14 14 -12 34.5zM326 555q0 -143 86 -236.5t225 -93.5q129 0 216 94.5t87 235.5q0 146 -86.5 239t-218.5 93 q-144 0 -226.5 -94t-82.5 -238z" />
<glyph unicode="&#xa5;" horiz-adv-x="1187" d="M35 1378l155 19q295 -464 400 -627h14q58 92 123.5 196.5t145.5 232.5t124 198l156 -19l-485 -757v-82h235v-99h-235v-114h235v-99h-235v-227h-150v227h-235v99h235v114h-235v99h235v82z" />
<glyph unicode="&#xa6;" horiz-adv-x="1085" d="M483 246h119v-717h-119v717zM483 819v717h119v-717h-119z" />
<glyph unicode="&#xa7;" horiz-adv-x="1167" d="M174 631q0 148 127 272q-127 89 -127 219q0 55 23.5 106.5t69.5 94.5t122 69.5t172 26.5q195 0 361 -104l-45 -135q-150 104 -314 104q-118 0 -177.5 -43.5t-59.5 -107.5t63 -112.5t242 -119.5q204 -83 288.5 -181t84.5 -216q0 -147 -138 -256q127 -102 127 -250 q0 -152 -116.5 -238t-296.5 -86q-131 0 -242 36.5t-162 84.5q6 20 21.5 66t23.5 71q161 -122 363 -122q122 0 187 54t65 132t-67 136.5t-214 117.5q-197 78 -289 168t-92 213zM326 641q0 -75 71 -136.5t224 -121.5q68 -27 135 -61q90 61 90 172q0 87 -63.5 149.5 t-227.5 130.5q-51 21 -147 66q-82 -82 -82 -199z" />
<glyph unicode="&#xa8;" horiz-adv-x="1024" d="M254 1044q0 35 28.5 63t63.5 28q38 0 65 -27.5t27 -63.5t-27 -62t-65 -26q-36 0 -64 26.5t-28 61.5zM586 1044q0 35 28.5 63t63.5 28q33 0 61.5 -28t28.5 -63t-28 -61.5t-62 -26.5q-36 0 -64 26.5t-28 61.5z" />
<glyph unicode="&#xa9;" horiz-adv-x="1617" d="M180 662q0 170 83 314t228.5 229t319.5 85q181 0 325.5 -85t223 -228.5t78.5 -314.5q0 -173 -78 -316.5t-222.5 -229t-326.5 -85.5q-178 0 -321.5 79.5t-226.5 224.5t-83 327zM281 657q0 -232 151 -383t381 -151q226 0 375 150.5t149 383.5q0 159 -69.5 284t-189 193 t-267.5 68q-107 0 -204.5 -41.5t-169 -112.5t-114 -173t-42.5 -218zM467 655q0 171 102.5 273t249.5 102q72 0 138.5 -21t105.5 -48l-23 -105q-100 66 -223 66q-95 0 -162 -68t-67 -195q0 -108 64.5 -177.5t166.5 -69.5q117 0 232 71l26 -102q-46 -34 -117 -56t-143 -22 q-154 0 -252 101.5t-98 250.5z" />
<glyph unicode="&#xaa;" horiz-adv-x="737" d="M70 821q0 45 16.5 86.5t50 78.5t94 59t140.5 22q56 0 121 -10v78q0 88 -40 123.5t-100 35.5q-84 0 -190 -73l-49 92q135 84 258 84q99 0 170 -62t71 -184v-356q0 -40 19.5 -71t48.5 -46v-6l-92 -78q-71 40 -86 90h-13q-65 -88 -198 -88q-91 0 -156 61t-65 164zM195 823 q0 -61 35 -93t92 -32q58 0 103 32.5t67 88.5v150q-62 8 -121 8q-83 0 -129.5 -43t-46.5 -111z" />
<glyph unicode="&#xab;" horiz-adv-x="1269" d="M154 459v18l428 463l77 -61l-317 -402v-12l317 -412l-77 -61zM584 459v18l428 463l78 -61l-318 -402v-12l318 -412l-78 -61z" />
<glyph unicode="&#xac;" horiz-adv-x="1085" d="M68 522v119h936v-535h-119v416h-817z" />
<glyph unicode="&#xad;" horiz-adv-x="696" d="M82 420v141h532v-141h-532z" />
<glyph unicode="&#xae;" horiz-adv-x="1146" d="M135 985q0 122 59 223t159.5 158t219.5 57q188 0 313.5 -125.5t125.5 -312.5q0 -122 -59.5 -223t-160 -158t-219.5 -57q-184 0 -311 122t-127 316zM221 983q0 -159 99 -257.5t255 -98.5q146 0 248.5 100t102.5 256q0 157 -102.5 258.5t-250.5 101.5q-159 0 -255.5 -103.5 t-96.5 -256.5zM414 745v510h149q85 0 131.5 -38.5t46.5 -108.5q0 -55 -32.5 -94t-92.5 -49l168 -211v-9h-90l-164 213h-36v-213h-80zM494 1026h71q97 0 97 82q0 38 -28.5 59t-74.5 21h-65v-162z" />
<glyph unicode="&#xaf;" horiz-adv-x="1024" d="M262 934v102h500v-102h-500z" />
<glyph unicode="&#xb0;" horiz-adv-x="757" d="M86 1124q0 121 86.5 208t206.5 87q121 0 208 -86.5t87 -208.5q0 -120 -87 -206.5t-208 -86.5q-120 0 -206.5 86.5t-86.5 206.5zM203 1124q0 -76 50 -130t124 -54t125 54t51 130t-51 132.5t-125 56.5t-124 -56t-50 -133z" />
<glyph unicode="&#xb1;" horiz-adv-x="1085" d="M88 92v119h909v-119h-909zM88 741v119h395v416h119v-416h395v-119h-395v-415h-119v415h-395z" />
<glyph unicode="&#xb2;" horiz-adv-x="593" d="M27 889q213 186 302 308.5t89 211.5q0 58 -35.5 88.5t-95.5 30.5q-81 0 -185 -60l-28 91q99 71 217 71q109 0 176.5 -51t67.5 -158q0 -102 -82 -221.5t-230 -238.5l6 -13l318 15v-113h-510z" />
<glyph unicode="&#xb3;" horiz-adv-x="593" d="M68 991q100 -53 200 -53q65 0 108.5 35t43.5 96q0 54 -36 89.5t-95 35.5l-139 -4l10 110l123 -4q52 0 88.5 34.5t36.5 90.5q0 49 -39 79t-101 30q-78 0 -164 -47l11 108q76 39 159 39q111 0 179.5 -52t68.5 -144q0 -67 -36.5 -114.5t-98.5 -62.5v-10q69 -14 108.5 -66.5 t39.5 -115.5q0 -62 -26 -108.5t-69 -71.5t-89 -37t-93 -12q-104 0 -188 43z" />
<glyph unicode="&#xb4;" horiz-adv-x="1024" d="M389 934v16l201 328h143v-21l-248 -323h-96z" />
<glyph unicode="&#xb6;" horiz-adv-x="1310" d="M145 948q0 133 71.5 235t195.5 156t280 54h551v-123h-115v-1592h-133v1592h-153v-1592h-133v836q-159 0 -284.5 47.5t-202.5 147.5t-77 239zM303 950q0 -145 109 -226t297 -81v627q-192 0 -299 -87.5t-107 -232.5z" />
<glyph unicode="&#xb7;" horiz-adv-x="552" d="M166 518q0 46 32 78.5t78 32.5q45 0 78 -33t33 -78t-33 -76.5t-78 -31.5q-46 0 -78 31t-32 77z" />
<glyph unicode="&#xb8;" horiz-adv-x="1024" d="M362 -166l123 207h90l-83 -147q94 0 152 -36t58 -108q0 -74 -83 -129.5t-201 -71.5l-17 68q90 12 144.5 45t54.5 78q0 42 -45 63t-121 21q-33 0 -61 -4z" />
<glyph unicode="&#xb9;" horiz-adv-x="593" d="M96 1595l260 29l19 -14v-760h-113v659l-160 -16z" />
<glyph unicode="&#xba;" horiz-adv-x="819" d="M86 989q0 176 90.5 292t226.5 116q149 0 239.5 -115t90.5 -293q0 -170 -94 -281.5t-229 -111.5t-229.5 112t-94.5 281zM221 991q0 -128 51.5 -204t137.5 -76q83 0 135.5 76.5t52.5 203.5q0 131 -52.5 211t-142.5 80q-81 0 -131.5 -82t-50.5 -209z" />
<glyph unicode="&#xbb;" horiz-adv-x="1269" d="M180 53l318 412v12l-318 402l78 61l428 -463v-18l-428 -467zM610 53l318 412v12l-318 402l78 61l428 -463v-18l-428 -467z" />
<glyph unicode="&#xbc;" horiz-adv-x="1515" d="M160 1391l260 28l18 -14v-760h-112v660l-160 -17zM242 -59l501 757l451 723l84 -43l-485 -714l-467 -770zM788 182l332 502h119v-463h84v-88h-84v-215h-106v215h-326zM913 225l7 -8l213 2v320h-13z" />
<glyph unicode="&#xbd;" horiz-adv-x="1515" d="M160 1391l260 28l18 -14v-760h-112v660l-160 -17zM242 -59l501 757l451 723l84 -43l-485 -714l-467 -770zM889 -43q213 186 302 308.5t89 211.5q0 58 -35.5 88.5t-95.5 30.5q-81 0 -184 -59l-29 90q99 71 217 71q109 0 176.5 -51t67.5 -158q0 -102 -82 -221.5 t-230 -238.5l7 -13l317 15v-113h-510z" />
<glyph unicode="&#xbe;" horiz-adv-x="1515" d="M131 786q100 -53 201 -53q65 0 108 35t43 96q0 54 -36 89.5t-95 35.5l-139 -4l10 111l123 -4q52 0 88.5 34.5t36.5 90.5q0 49 -38.5 78.5t-100.5 29.5q-78 0 -164 -47l10 108q76 39 160 39q111 0 179.5 -52t68.5 -144q0 -67 -36.5 -114t-98.5 -62v-11q69 -14 108 -66 t39 -116q0 -62 -26 -108.5t-68.5 -71.5t-88.5 -37t-93 -12q-105 0 -189 43zM242 -59l501 757l451 723l84 -43l-485 -714l-467 -770zM788 182l332 502h119v-463h84v-88h-84v-215h-106v215h-326zM913 225l7 -8l213 2v320h-13z" />
<glyph unicode="&#xbf;" horiz-adv-x="921" d="M94 135q0 77 26 143t68.5 113t99.5 82.5t115.5 55.5t118.5 28v188h135v-292q-409 -37 -409 -322q0 -110 78.5 -176t212.5 -66q54 0 116.5 14t106.5 38h14l-14 -134q-107 -47 -236 -47q-204 0 -318 104t-114 271zM475 1085q0 45 33 77t78 32q46 0 78 -31.5t32 -77.5 t-32 -78t-78 -32q-45 0 -78 32.5t-33 77.5z" />
<glyph unicode="&#xc0;" horiz-adv-x="1392" d="M68 20l612 1410h37l608 -1410l-145 -40l-176 419h-615l-176 -419zM442 1751v21h150l213 -254v-17h-96zM446 539h500l-241 579h-15z" />
<glyph unicode="&#xc1;" horiz-adv-x="1392" d="M68 20l612 1410h37l608 -1410l-145 -40l-176 419h-615l-176 -419zM446 539h500l-241 579h-15zM588 1501v17l213 254h149v-21l-266 -250h-96z" />
<glyph unicode="&#xc2;" horiz-adv-x="1392" d="M68 20l612 1410h37l608 -1410l-145 -40l-176 419h-615l-176 -419zM436 1501v17l223 254h74l223 -254v-17h-90l-170 168l-170 -168h-90zM446 539h500l-241 579h-15z" />
<glyph unicode="&#xc3;" horiz-adv-x="1392" d="M68 20l612 1410h37l608 -1410l-145 -40l-176 419h-615l-176 -419zM412 1538q0 113 49.5 175.5t122.5 62.5q37 0 72 -23t56.5 -50t48 -50t50.5 -23q40 0 60 40t20 102h88q0 -100 -48 -169t-118 -69q-31 0 -58.5 14.5t-48 36t-39.5 42.5t-39.5 35.5t-41.5 14.5 q-42 0 -66 -39t-24 -100h-84zM446 539h500l-241 579h-15z" />
<glyph unicode="&#xc4;" horiz-adv-x="1392" d="M68 20l612 1410h37l608 -1410l-145 -40l-176 419h-615l-176 -419zM438 1608q0 35 28.5 62.5t63.5 27.5q38 0 65.5 -27t27.5 -63q0 -35 -27.5 -61.5t-65.5 -26.5q-36 0 -64 26.5t-28 61.5zM446 539h500l-241 579h-15zM770 1608q0 35 28.5 62.5t63.5 27.5q33 0 61.5 -27.5 t28.5 -62.5t-28 -61.5t-62 -26.5q-36 0 -64 26.5t-28 61.5z" />
<glyph unicode="&#xc5;" horiz-adv-x="1392" d="M68 20l612 1410h37l608 -1410l-145 -40l-176 419h-615l-176 -419zM446 539h500l-241 579h-15zM504 1681q0 80 56.5 136.5t135.5 56.5q80 0 136.5 -57t56.5 -136t-56.5 -135.5t-136.5 -56.5t-136 56.5t-56 135.5zM586 1681q0 -53 29.5 -84.5t78.5 -31.5q48 0 79.5 32.5 t31.5 83.5t-32 85t-79 34q-48 0 -78 -34t-30 -85z" />
<glyph unicode="&#xc6;" horiz-adv-x="1843" d="M47 39l930 1354h752v-138h-601v-460h539v-140h-539v-518h621v-137h-770v399h-520l-287 -419zM555 539h424v604h-10z" />
<glyph unicode="&#xc7;" horiz-adv-x="1351" d="M119 684q0 169 56 309.5t150.5 232.5t218.5 142.5t261 50.5q229 0 430 -141l-49 -135q-43 29 -68.5 43.5t-79 40.5t-113 38t-124.5 11q-107 -1 -202 -40.5t-167.5 -112t-115 -184t-42.5 -247.5q0 -160 64.5 -290t186.5 -207.5t280 -77.5q114 0 207.5 37t199.5 104 l48 -127q-86 -68 -208 -112.5t-249 -45.5l-45 -79q95 0 153 -36t58 -108q0 -74 -83.5 -129.5t-201.5 -71.5l-16 68q89 12 143.5 45t54.5 78q0 42 -45 63t-121 21q-33 0 -61 -4l-10 14l86 146q-175 19 -311.5 115.5t-210.5 250t-74 338.5z" />
<glyph unicode="&#xc8;" horiz-adv-x="1044" d="M180 0v1393h750v-138h-600v-460h538v-140h-538v-518h620v-137h-770zM311 1751v21h150l213 -254v-17h-96z" />
<glyph unicode="&#xc9;" horiz-adv-x="1044" d="M180 0v1393h750v-138h-600v-460h538v-140h-538v-518h620v-137h-770zM457 1501v17l213 254h149v-21l-266 -250h-96z" />
<glyph unicode="&#xca;" horiz-adv-x="1044" d="M180 0v1393h750v-138h-600v-460h538v-140h-538v-518h620v-137h-770zM305 1501v17l223 254h74l223 -254v-17h-90l-170 168l-170 -168h-90z" />
<glyph unicode="&#xcb;" horiz-adv-x="1044" d="M180 0v1393h750v-138h-600v-460h538v-140h-538v-518h620v-137h-770zM307 1608q0 35 28.5 62.5t63.5 27.5q38 0 65.5 -27t27.5 -63q0 -35 -27.5 -61.5t-65.5 -26.5q-36 0 -64 26.5t-28 61.5zM639 1608q0 35 28.5 62.5t63.5 27.5q33 0 61.5 -27.5t28.5 -62.5t-28 -61.5 t-62 -26.5q-36 0 -64 26.5t-28 61.5z" />
<glyph unicode="&#xcc;" horiz-adv-x="552" d="M23 1751v21h149l213 -254v-17h-96zM201 0v1393h151v-1393h-151z" />
<glyph unicode="&#xcd;" horiz-adv-x="552" d="M168 1501v17l213 254h149v-21l-266 -250h-96zM201 0v1393h151v-1393h-151z" />
<glyph unicode="&#xce;" horiz-adv-x="552" d="M16 1501v17l224 254h73l224 -254v-17h-91l-170 168l-170 -168h-90zM201 0v1393h151v-1393h-151z" />
<glyph unicode="&#xcf;" horiz-adv-x="552" d="M18 1608q0 35 28.5 62.5t64.5 27.5q38 0 65 -27t27 -63t-27 -62t-65 -26q-36 0 -64.5 26.5t-28.5 61.5zM201 0v1393h151v-1393h-151zM350 1608q0 35 28.5 62.5t63.5 27.5q33 0 61.5 -27.5t28.5 -62.5t-28 -61.5t-62 -26.5q-36 0 -64 26.5t-28 61.5z" />
<glyph unicode="&#xd0;" horiz-adv-x="1372" d="M-14 627v104h194v662h371q199 0 358 -85.5t251.5 -248.5t92.5 -375q0 -207 -89.5 -363.5t-247.5 -238.5t-363 -82h-373v627h-194zM330 137h231q251 0 394 149t143 402q0 118 -31.5 215t-83.5 161.5t-122 108t-145.5 63t-156.5 19.5h-229v-524h327v-104h-327v-490z" />
<glyph unicode="&#xd1;" horiz-adv-x="1536" d="M180 0v1395l56 16l954 -1094l16 5v1071h150v-1395l-56 -16l-954 1091l-16 -4v-1069h-150zM483 1538q0 113 49.5 175.5t122.5 62.5q37 0 72 -23t57 -50t48.5 -50t50.5 -23q40 0 60 40t20 102h88q0 -100 -48 -169t-118 -69q-37 0 -71.5 22.5t-56 49t-48.5 49t-52 22.5 q-42 0 -66 -39t-24 -100h-84z" />
<glyph unicode="&#xd2;" horiz-adv-x="1576" d="M119 686q0 162 56 301t149.5 232.5t215 146.5t251.5 53q134 0 255 -52t212.5 -145t145.5 -232t54 -304q0 -144 -50 -274.5t-136.5 -227.5t-212 -154t-268.5 -57t-268 54.5t-213.5 148.5t-139.5 226.5t-51 283.5zM274 690q0 -115 36 -218.5t101 -182.5t164.5 -125.5 t219.5 -46.5q149 0 266.5 80t179.5 210t62 283q0 258 -146.5 422t-372.5 164q-100 0 -191.5 -40.5t-162.5 -114t-113.5 -186t-42.5 -245.5zM535 1751v21h149l213 -254v-17h-96z" />
<glyph unicode="&#xd3;" horiz-adv-x="1576" d="M119 686q0 162 56 301t149.5 232.5t215 146.5t251.5 53q134 0 255 -52t212.5 -145t145.5 -232t54 -304q0 -144 -50 -274.5t-136.5 -227.5t-212 -154t-268.5 -57t-268 54.5t-213.5 148.5t-139.5 226.5t-51 283.5zM274 690q0 -115 36 -218.5t101 -182.5t164.5 -125.5 t219.5 -46.5q149 0 266.5 80t179.5 210t62 283q0 258 -146.5 422t-372.5 164q-100 0 -191.5 -40.5t-162.5 -114t-113.5 -186t-42.5 -245.5zM680 1501v17l213 254h149v-21l-266 -250h-96z" />
<glyph unicode="&#xd4;" horiz-adv-x="1576" d="M119 686q0 162 56 301t149.5 232.5t215 146.5t251.5 53q134 0 255 -52t212.5 -145t145.5 -232t54 -304q0 -144 -50 -274.5t-136.5 -227.5t-212 -154t-268.5 -57t-268 54.5t-213.5 148.5t-139.5 226.5t-51 283.5zM274 690q0 -115 36 -218.5t101 -182.5t164.5 -125.5 t219.5 -46.5q149 0 266.5 80t179.5 210t62 283q0 258 -146.5 422t-372.5 164q-100 0 -191.5 -40.5t-162.5 -114t-113.5 -186t-42.5 -245.5zM528 1501v17l224 254h73l224 -254v-17h-91l-170 168l-170 -168h-90z" />
<glyph unicode="&#xd5;" horiz-adv-x="1576" d="M119 686q0 162 56 301t149.5 232.5t215 146.5t251.5 53q134 0 255 -52t212.5 -145t145.5 -232t54 -304q0 -144 -50 -274.5t-136.5 -227.5t-212 -154t-268.5 -57t-268 54.5t-213.5 148.5t-139.5 226.5t-51 283.5zM274 690q0 -115 36 -218.5t101 -182.5t164.5 -125.5 t219.5 -46.5q149 0 266.5 80t179.5 210t62 283q0 258 -146.5 422t-372.5 164q-100 0 -191.5 -40.5t-162.5 -114t-113.5 -186t-42.5 -245.5zM504 1538q0 113 49.5 175.5t122.5 62.5q37 0 72 -23t56.5 -50t48 -50t50.5 -23q40 0 60 40t20 102h88q0 -100 -48 -169t-118 -69 q-31 0 -58.5 14.5t-48 36t-39.5 42.5t-39.5 35.5t-41.5 14.5q-42 0 -66 -39t-24 -100h-84z" />
<glyph unicode="&#xd6;" horiz-adv-x="1576" d="M119 686q0 162 56 301t149.5 232.5t215 146.5t251.5 53q134 0 255 -52t212.5 -145t145.5 -232t54 -304q0 -144 -50 -274.5t-136.5 -227.5t-212 -154t-268.5 -57t-268 54.5t-213.5 148.5t-139.5 226.5t-51 283.5zM274 690q0 -115 36 -218.5t101 -182.5t164.5 -125.5 t219.5 -46.5q149 0 266.5 80t179.5 210t62 283q0 258 -146.5 422t-372.5 164q-100 0 -191.5 -40.5t-162.5 -114t-113.5 -186t-42.5 -245.5zM530 1608q0 35 28.5 62.5t64.5 27.5q38 0 65 -27t27 -63t-27 -62t-65 -26q-36 0 -64.5 26.5t-28.5 61.5zM862 1608q0 35 28.5 62.5 t63.5 27.5q33 0 61.5 -27.5t28.5 -62.5t-28 -61.5t-62 -26.5q-36 0 -64 26.5t-28 61.5z" />
<glyph unicode="&#xd7;" horiz-adv-x="1085" d="M143 291l316 315l-316 316l84 84l316 -316l315 316l84 -84l-315 -316l315 -315l-84 -84l-315 315l-316 -315z" />
<glyph unicode="&#xd8;" horiz-adv-x="1576" d="M119 686q0 162 56 301t149.5 232.5t215 146.5t251.5 53q221 0 393 -131l121 164l73 -55l-127 -170q98 -98 152.5 -236t54.5 -305q0 -144 -50 -274.5t-136.5 -227.5t-212 -154t-268.5 -57q-214 0 -379 115l-131 -176l-74 55l133 178q-105 98 -163 237.5t-58 303.5z M274 690q0 -124 40 -233.5t116 -188.5l666 901q-135 107 -312 107q-100 0 -191.5 -40.5t-162.5 -114t-113.5 -186t-42.5 -245.5zM500 207q126 -90 295 -90q149 0 266.5 80t179.5 210t62 283q0 249 -142 414z" />
<glyph unicode="&#xd9;" horiz-adv-x="1413" d="M180 485v908h150v-873q0 -403 377 -403q376 0 376 403v873h150v-897q0 -82 -18.5 -156.5t-59 -142t-100.5 -117t-149.5 -78.5t-198.5 -29q-120 0 -213.5 29.5t-151.5 77.5t-95.5 115.5t-52 138t-14.5 151.5zM453 1751v21h149l213 -254v-17h-96z" />
<glyph unicode="&#xda;" horiz-adv-x="1413" d="M180 485v908h150v-873q0 -403 377 -403q376 0 376 403v873h150v-897q0 -82 -18.5 -156.5t-59 -142t-100.5 -117t-149.5 -78.5t-198.5 -29q-120 0 -213.5 29.5t-151.5 77.5t-95.5 115.5t-52 138t-14.5 151.5zM598 1501v17l213 254h150v-21l-267 -250h-96z" />
<glyph unicode="&#xdb;" horiz-adv-x="1413" d="M180 485v908h150v-873q0 -403 377 -403q376 0 376 403v873h150v-897q0 -82 -18.5 -156.5t-59 -142t-100.5 -117t-149.5 -78.5t-198.5 -29q-120 0 -213.5 29.5t-151.5 77.5t-95.5 115.5t-52 138t-14.5 151.5zM446 1501v17l224 254h73l224 -254v-17h-90l-170 168l-170 -168 h-91z" />
<glyph unicode="&#xdc;" horiz-adv-x="1413" d="M180 485v908h150v-873q0 -403 377 -403q376 0 376 403v873h150v-897q0 -82 -18.5 -156.5t-59 -142t-100.5 -117t-149.5 -78.5t-198.5 -29q-120 0 -213.5 29.5t-151.5 77.5t-95.5 115.5t-52 138t-14.5 151.5zM449 1608q0 35 28.5 62.5t63.5 27.5q38 0 65 -27t27 -63 t-27 -62t-65 -26q-36 0 -64 26.5t-28 61.5zM780 1608q0 35 28.5 62.5t63.5 27.5q33 0 62 -27.5t29 -62.5t-28.5 -61.5t-62.5 -26.5q-36 0 -64 26.5t-28 61.5z" />
<glyph unicode="&#xdd;" horiz-adv-x="1208" d="M37 1374l145 33l416 -641h14l414 641l145 -33l-493 -753v-621h-150v621zM496 1501v17l213 254h149v-21l-266 -250h-96z" />
<glyph unicode="&#xde;" horiz-adv-x="1064" d="M180 0v1393h150v-267h198q197 0 318 -107t121 -290q0 -98 -36.5 -176.5t-99 -128t-143.5 -76t-172 -26.5h-186v-322h-150zM330 459h190q58 0 107.5 14t92 43.5t67 83t24.5 125.5q0 124 -77 194t-204 70h-200v-530z" />
<glyph unicode="&#xdf;" horiz-adv-x="1126" d="M57 801v92l148 33v80q0 190 108.5 298.5t286.5 108.5q173 0 280 -112.5t107 -317.5q0 -82 -14 -145q-145 0 -220 -41t-75 -109q0 -47 40 -89t132 -101q106 -69 149 -131t43 -144q0 -118 -81.5 -183t-192.5 -65q-74 0 -141.5 21t-110.5 53l45 115q108 -68 203 -68 q61 0 101 33t40 94q0 27 -12 51t-41 50t-52.5 43t-70.5 49q-102 67 -145 124t-43 142q0 112 85.5 183t219.5 83q12 155 -57 248.5t-189 93.5q-132 0 -192 -75.5t-60 -223.5v-991h-143v801h-148z" />
<glyph unicode="&#xe0;" horiz-adv-x="921" d="M96 242q0 54 20 103t61 91t114 67t170 25q73 0 162 -14v102q0 56 -17.5 97.5t-47 64t-62.5 33t-68 10.5q-113 0 -244 -92l-49 113q167 100 328 100q122 0 208.5 -74.5t86.5 -220.5v-434q0 -51 23.5 -88.5t58.5 -56.5v-9l-101 -86q-82 56 -100 127h-10 q-45 -62 -113.5 -93.5t-148.5 -31.5q-115 0 -193 72.5t-78 194.5zM227 1360v20h144l200 -327v-17h-96zM236 244q0 -71 44.5 -110.5t114.5 -39.5q75 0 136.5 41.5t91.5 110.5v162q-90 16 -164 16q-106 0 -164.5 -48.5t-58.5 -131.5z" />
<glyph unicode="&#xe1;" horiz-adv-x="921" d="M96 242q0 54 20 103t61 91t114 67t170 25q73 0 162 -14v102q0 56 -17.5 97.5t-47 64t-62.5 33t-68 10.5q-113 0 -244 -92l-49 113q167 100 328 100q122 0 208.5 -74.5t86.5 -220.5v-434q0 -51 23.5 -88.5t58.5 -56.5v-9l-101 -86q-82 56 -100 127h-10 q-45 -62 -113.5 -93.5t-148.5 -31.5q-115 0 -193 72.5t-78 194.5zM236 244q0 -71 44.5 -110.5t114.5 -39.5q75 0 136.5 41.5t91.5 110.5v162q-90 16 -164 16q-106 0 -164.5 -48.5t-58.5 -131.5zM326 1036v17l200 327h144v-20l-248 -324h-96z" />
<glyph unicode="&#xe2;" horiz-adv-x="921" d="M96 242q0 54 20 103t61 91t114 67t170 25q73 0 162 -14v102q0 56 -17.5 97.5t-47 64t-62.5 33t-68 10.5q-113 0 -244 -92l-49 113q167 100 328 100q122 0 208.5 -74.5t86.5 -220.5v-434q0 -51 23.5 -88.5t58.5 -56.5v-9l-101 -86q-82 56 -100 127h-10 q-45 -62 -113.5 -93.5t-148.5 -31.5q-115 0 -193 72.5t-78 194.5zM188 1036v17l224 327h73l224 -327v-17h-91l-169 226l-170 -226h-91zM236 244q0 -71 44.5 -110.5t114.5 -39.5q75 0 136.5 41.5t91.5 110.5v162q-90 16 -164 16q-106 0 -164.5 -48.5t-58.5 -131.5z" />
<glyph unicode="&#xe3;" horiz-adv-x="921" d="M96 242q0 54 20 103t61 91t114 67t170 25q73 0 162 -14v102q0 56 -17.5 97.5t-47 64t-62.5 33t-68 10.5q-113 0 -244 -92l-49 113q167 100 328 100q122 0 208.5 -74.5t86.5 -220.5v-434q0 -51 23.5 -88.5t58.5 -56.5v-9l-101 -86q-82 56 -100 127h-10 q-45 -62 -113.5 -93.5t-148.5 -31.5q-115 0 -193 72.5t-78 194.5zM164 1077q0 113 49.5 175.5t122.5 62.5q37 0 72 -23t56.5 -50t48 -50t50.5 -23q40 0 60 40t20 102h88q0 -100 -48 -169t-118 -69q-31 0 -58.5 15t-48 36t-39.5 42t-39.5 36t-41.5 15q-42 0 -66 -39t-24 -101 h-84zM236 244q0 -71 44.5 -110.5t114.5 -39.5q75 0 136.5 41.5t91.5 110.5v162q-90 16 -164 16q-106 0 -164.5 -48.5t-58.5 -131.5z" />
<glyph unicode="&#xe4;" horiz-adv-x="921" d="M96 242q0 54 20 103t61 91t114 67t170 25q73 0 162 -14v102q0 56 -17.5 97.5t-47 64t-62.5 33t-68 10.5q-113 0 -244 -92l-49 113q167 100 328 100q122 0 208.5 -74.5t86.5 -220.5v-434q0 -51 23.5 -88.5t58.5 -56.5v-9l-101 -86q-82 56 -100 127h-10 q-45 -62 -113.5 -93.5t-148.5 -31.5q-115 0 -193 72.5t-78 194.5zM190 1147q0 35 28.5 62.5t64.5 27.5q38 0 65 -27t27 -63t-27 -62t-65 -26q-36 0 -64.5 26.5t-28.5 61.5zM236 244q0 -71 44.5 -110.5t114.5 -39.5q75 0 136.5 41.5t91.5 110.5v162q-90 16 -164 16 q-106 0 -164.5 -48.5t-58.5 -131.5zM522 1147q0 35 28.5 62.5t63.5 27.5q33 0 62 -27.5t29 -62.5t-28.5 -61.5t-62.5 -26.5q-36 0 -64 26.5t-28 61.5z" />
<glyph unicode="&#xe5;" horiz-adv-x="921" d="M96 242q0 54 20 103t61 91t114 67t170 25q73 0 162 -14v102q0 56 -17.5 97.5t-47 64t-62.5 33t-68 10.5q-113 0 -244 -92l-49 113q167 100 328 100q122 0 208.5 -74.5t86.5 -220.5v-434q0 -51 23.5 -88.5t58.5 -56.5v-9l-101 -86q-82 56 -100 127h-10 q-45 -62 -113.5 -93.5t-148.5 -31.5q-115 0 -193 72.5t-78 194.5zM236 244q0 -71 44.5 -110.5t114.5 -39.5q75 0 136.5 41.5t91.5 110.5v162q-90 16 -164 16q-106 0 -164.5 -48.5t-58.5 -131.5zM256 1221q0 79 56.5 135.5t136.5 56.5q79 0 135.5 -56.5t56.5 -135.5 q0 -80 -56.5 -136.5t-135.5 -56.5t-136 57t-57 136zM338 1221q0 -53 29.5 -85t78.5 -32q48 0 79.5 33t31.5 84t-32 84.5t-79 33.5q-49 0 -78.5 -33.5t-29.5 -84.5z" />
<glyph unicode="&#xe6;" horiz-adv-x="1433" d="M96 242q0 54 20 103t61 91t114 67t170 25q62 0 151 -14v102q0 107 -54 156t-130 49q-109 0 -231 -90l-50 113q160 98 316 98q86 0 154.5 -40.5t99.5 -123.5q51 78 126.5 121t162.5 43q153 0 244 -103.5t91 -260.5q0 -87 -24 -158h-565q0 -170 74 -247t196 -77 q59 0 123.5 28t107.5 71h7l26 -119q-48 -47 -123.5 -74t-163.5 -27q-221 0 -313 172q-77 -106 -152 -139t-167 -33q-115 0 -193 72.5t-78 194.5zM236 244q0 -71 44.5 -110.5t114.5 -39.5q74 0 130.5 41t86.5 111v162q-90 16 -153 16q-106 0 -164.5 -48.5t-58.5 -131.5z M758 526h436q21 132 -38.5 214.5t-154.5 82.5q-105 0 -171 -84.5t-72 -212.5z" />
<glyph unicode="&#xe7;" horiz-adv-x="819" d="M92 430q0 143 58.5 262t153.5 184.5t204 65.5q87 0 147 -23.5t129 -74.5l-53 -111q-104 90 -215 90q-118 0 -197 -109.5t-79 -279.5q0 -165 74 -253.5t190 -88.5q114 0 225 88l41 -106q-50 -42 -124 -70.5t-148 -28.5h-9l-47 -81q95 0 153 -36t58 -108q0 -74 -83 -129.5 t-201 -71.5l-17 68q90 12 144.5 45t54.5 78q0 42 -45 63t-121 21q-33 0 -61 -4l-11 14l90 152q-146 30 -228.5 150.5t-82.5 293.5z" />
<glyph unicode="&#xe8;" horiz-adv-x="921" d="M92 434q0 223 114.5 365.5t287.5 142.5q153 0 244 -103.5t91 -260.5q0 -87 -24 -158h-565q0 -170 74 -247t196 -77q59 0 123.5 28t107.5 71h7l26 -119q-48 -47 -123.5 -74t-163.5 -27q-80 0 -149.5 27t-125.5 81t-88 144t-32 207zM246 526h436q21 132 -38.5 214.5 t-154.5 82.5q-105 0 -171 -84.5t-72 -212.5zM264 1360v20h144l200 -327v-17h-96z" />
<glyph unicode="&#xe9;" horiz-adv-x="921" d="M92 434q0 223 114.5 365.5t287.5 142.5q153 0 244 -103.5t91 -260.5q0 -87 -24 -158h-565q0 -170 74 -247t196 -77q59 0 123.5 28t107.5 71h7l26 -119q-48 -47 -123.5 -74t-163.5 -27q-80 0 -149.5 27t-125.5 81t-88 144t-32 207zM246 526h436q21 132 -38.5 214.5 t-154.5 82.5q-105 0 -171 -84.5t-72 -212.5zM362 1036v17l201 327h144v-20l-248 -324h-97z" />
<glyph unicode="&#xea;" horiz-adv-x="921" d="M92 434q0 223 114.5 365.5t287.5 142.5q153 0 244 -103.5t91 -260.5q0 -87 -24 -158h-565q0 -170 74 -247t196 -77q59 0 123.5 28t107.5 71h7l26 -119q-48 -47 -123.5 -74t-163.5 -27q-80 0 -149.5 27t-125.5 81t-88 144t-32 207zM225 1036v17l224 327h73l223 -327v-17 h-90l-170 226l-170 -226h-90zM246 526h436q21 132 -38.5 214.5t-154.5 82.5q-105 0 -171 -84.5t-72 -212.5z" />
<glyph unicode="&#xeb;" horiz-adv-x="921" d="M92 434q0 223 114.5 365.5t287.5 142.5q153 0 244 -103.5t91 -260.5q0 -87 -24 -158h-565q0 -170 74 -247t196 -77q59 0 123.5 28t107.5 71h7l26 -119q-48 -47 -123.5 -74t-163.5 -27q-80 0 -149.5 27t-125.5 81t-88 144t-32 207zM227 1147q0 35 28.5 62.5t63.5 27.5 q38 0 65.5 -27t27.5 -63q0 -35 -27.5 -61.5t-65.5 -26.5q-36 0 -64 26.5t-28 61.5zM246 526h436q21 132 -38.5 214.5t-154.5 82.5q-105 0 -171 -84.5t-72 -212.5zM559 1147q0 35 28.5 62.5t63.5 27.5q33 0 61.5 -27.5t28.5 -62.5t-28 -61.5t-62 -26.5q-36 0 -64 26.5 t-28 61.5z" />
<glyph unicode="&#xec;" horiz-adv-x="471" d="M14 1360v20h144l200 -327v-17h-96zM164 0v907l143 19v-926h-143z" />
<glyph unicode="&#xed;" horiz-adv-x="471" d="M113 1036v17l200 327h144v-20l-248 -324h-96zM164 0v907l143 19v-926h-143z" />
<glyph unicode="&#xee;" horiz-adv-x="471" d="M-25 1036v17l224 327h73l224 -327v-17h-90l-170 226l-170 -226h-91zM164 0v907l143 19v-926h-143z" />
<glyph unicode="&#xef;" horiz-adv-x="471" d="M-23 1147q0 35 28.5 62.5t64.5 27.5q38 0 65 -27t27 -63t-27 -62t-65 -26q-36 0 -64.5 26.5t-28.5 61.5zM164 0v907l143 19v-926h-143zM309 1147q0 35 28.5 62.5t63.5 27.5q33 0 62 -27.5t29 -62.5t-28.5 -61.5t-62.5 -26.5q-36 0 -64 26.5t-28 61.5z" />
<glyph unicode="&#xf0;" d="M92 451q0 214 113.5 352.5t288.5 138.5q67 0 114 -20.5t103 -67.5l8 4q-57 165 -172 277l-187 -127l-53 75l168 113q-110 81 -237 111l36 106q169 -51 299 -149l189 129l53 -76l-170 -115q266 -257 266 -721q0 -220 -118 -363t-291 -143q-175 0 -292.5 134.5 t-117.5 341.5zM240 453q0 -159 72 -259t190 -100q115 0 188.5 100t73.5 259q0 164 -73 267t-197 103q-114 0 -184 -104.5t-70 -265.5z" />
<glyph unicode="&#xf1;" horiz-adv-x="983" d="M133 0v918h119l14 -111h8q63 63 142 99t162 36q122 0 197 -76t75 -227v-639h-143v596q0 215 -179 215q-70 0 -138.5 -37.5t-113.5 -99.5v-674h-143zM207 1077q0 113 49.5 175.5t122.5 62.5q37 0 72 -23t56.5 -50t48 -50t50.5 -23q40 0 60 40t20 102h88q0 -100 -48 -169 t-118 -69q-31 0 -58.5 15t-48 36t-39.5 42t-39.5 36t-41.5 15q-42 0 -66 -39t-24 -101h-84z" />
<glyph unicode="&#xf2;" d="M92 451q0 214 113.5 352.5t288.5 138.5q189 0 303 -137.5t114 -353.5q0 -207 -118 -341.5t-291 -134.5q-175 0 -292.5 134.5t-117.5 341.5zM240 453q0 -159 72 -259t190 -100q115 0 188.5 100t73.5 259q0 164 -73 267t-197 103q-114 0 -184 -104.5t-70 -265.5zM281 1360 v20h143l201 -327v-17h-97z" />
<glyph unicode="&#xf3;" d="M92 451q0 214 113.5 352.5t288.5 138.5q189 0 303 -137.5t114 -353.5q0 -207 -118 -341.5t-291 -134.5q-175 0 -292.5 134.5t-117.5 341.5zM240 453q0 -159 72 -259t190 -100q115 0 188.5 100t73.5 259q0 164 -73 267t-197 103q-114 0 -184 -104.5t-70 -265.5zM379 1036 v17l201 327h143v-20l-248 -324h-96z" />
<glyph unicode="&#xf4;" d="M92 451q0 214 113.5 352.5t288.5 138.5q189 0 303 -137.5t114 -353.5q0 -207 -118 -341.5t-291 -134.5q-175 0 -292.5 134.5t-117.5 341.5zM240 453q0 -159 72 -259t190 -100q115 0 188.5 100t73.5 259q0 164 -73 267t-197 103q-114 0 -184 -104.5t-70 -265.5zM242 1036 v17l223 327h74l223 -327v-17h-90l-170 226l-170 -226h-90z" />
<glyph unicode="&#xf5;" d="M92 451q0 214 113.5 352.5t288.5 138.5q189 0 303 -137.5t114 -353.5q0 -207 -118 -341.5t-291 -134.5q-175 0 -292.5 134.5t-117.5 341.5zM217 1077q0 113 49.5 175.5t122.5 62.5q37 0 72 -23t56.5 -50t48 -50t50.5 -23q40 0 60 40t20 102h88q0 -100 -48 -169t-118 -69 q-31 0 -58.5 15t-48 36t-39.5 42t-39.5 36t-41.5 15q-42 0 -66 -39t-24 -101h-84zM240 453q0 -159 72 -259t190 -100q115 0 188.5 100t73.5 259q0 164 -73 267t-197 103q-114 0 -184 -104.5t-70 -265.5z" />
<glyph unicode="&#xf6;" d="M92 451q0 214 113.5 352.5t288.5 138.5q189 0 303 -137.5t114 -353.5q0 -207 -118 -341.5t-291 -134.5q-175 0 -292.5 134.5t-117.5 341.5zM240 453q0 -159 72 -259t190 -100q115 0 188.5 100t73.5 259q0 164 -73 267t-197 103q-114 0 -184 -104.5t-70 -265.5zM244 1147 q0 35 28.5 62.5t63.5 27.5q38 0 65 -27t27 -63t-27 -62t-65 -26q-36 0 -64 26.5t-28 61.5zM575 1147q0 35 28.5 62.5t64.5 27.5q33 0 61.5 -27.5t28.5 -62.5t-28 -61.5t-62 -26.5q-36 0 -64.5 26.5t-28.5 61.5z" />
<glyph unicode="&#xf7;" horiz-adv-x="1085" d="M68 557v119h950v-119h-950zM432 281q0 46 32.5 78t78.5 32t78 -32t32 -78t-32 -78.5t-78 -32.5t-78.5 32.5t-32.5 78.5zM432 952q0 46 32.5 78.5t78.5 32.5t78 -32.5t32 -78.5t-32 -78t-78 -32t-78.5 32t-32.5 78z" />
<glyph unicode="&#xf8;" d="M92 451q0 214 113.5 352.5t288.5 138.5q145 0 254 -88l100 137l65 -49l-108 -147q106 -137 106 -344t-118 -341.5t-291 -134.5q-136 0 -238 82l-104 -141l-66 49l111 150q-113 136 -113 336zM240 453q0 -136 49 -224l379 519q-72 75 -174 75q-114 0 -184 -104.5 t-70 -265.5zM340 160q69 -66 162 -66q115 0 188.5 100t73.5 259q0 132 -47 221z" />
<glyph unicode="&#xf9;" horiz-adv-x="983" d="M133 299v619h143v-570q0 -244 181 -244q77 0 149.5 52t100.5 125v637h143v-918h-125l-12 111h-8q-125 -136 -293 -136q-119 0 -199 79t-80 245zM287 1360v20h143l201 -327v-17h-96z" />
<glyph unicode="&#xfa;" horiz-adv-x="983" d="M133 299v619h143v-570q0 -244 181 -244q77 0 149.5 52t100.5 125v637h143v-918h-125l-12 111h-8q-125 -136 -293 -136q-119 0 -199 79t-80 245zM385 1036v17l201 327h143v-20l-248 -324h-96z" />
<glyph unicode="&#xfb;" horiz-adv-x="983" d="M133 299v619h143v-570q0 -244 181 -244q77 0 149.5 52t100.5 125v637h143v-918h-125l-12 111h-8q-125 -136 -293 -136q-119 0 -199 79t-80 245zM248 1036v17l223 327h74l223 -327v-17h-90l-170 226l-170 -226h-90z" />
<glyph unicode="&#xfc;" horiz-adv-x="983" d="M133 299v619h143v-570q0 -244 181 -244q77 0 149.5 52t100.5 125v637h143v-918h-125l-12 111h-8q-125 -136 -293 -136q-119 0 -199 79t-80 245zM250 1147q0 35 28.5 62.5t63.5 27.5q38 0 65 -27t27 -63t-27 -62t-65 -26q-36 0 -64 26.5t-28 61.5zM582 1147 q0 35 28.5 62.5t63.5 27.5q33 0 61.5 -27.5t28.5 -62.5t-28 -61.5t-62 -26.5q-36 0 -64 26.5t-28 61.5z" />
<glyph unicode="&#xfd;" horiz-adv-x="901" d="M49 901l133 33l260 -678h7l270 676l133 -31l-451 -1089q-71 -172 -141 -211l-145 -25l-9 59q142 78 265 445zM328 1036v17l200 327h144v-20l-248 -324h-96z" />
<glyph unicode="&#xfe;" d="M133 -412v1805l143 24v-588h11q93 113 235 113q72 0 139 -28t124 -83.5t91.5 -152t34.5 -221.5q0 -88 -19 -162.5t-52 -126t-74 -90t-87 -60.5t-88.5 -32.5t-82.5 -10.5q-59 0 -120.5 20.5t-100.5 63.5h-11v-446zM276 201q32 -56 82 -79.5t123 -23.5q52 0 100 18.5 t90 56.5t67.5 108.5t25.5 164.5q0 86 -17.5 154t-45 108t-64 66t-70 35.5t-67.5 9.5q-72 0 -131 -29t-93 -79v-510z" />
<glyph unicode="&#xff;" horiz-adv-x="901" d="M49 901l133 33l260 -678h7l270 676l133 -31l-451 -1089q-71 -172 -141 -211l-145 -25l-9 59q142 78 265 445zM193 1147q0 35 28.5 62.5t63.5 27.5q38 0 65 -27t27 -63t-27 -62t-65 -26q-36 0 -64 26.5t-28 61.5zM524 1147q0 35 28.5 62.5t63.5 27.5q33 0 62 -27.5 t29 -62.5t-28.5 -61.5t-62.5 -26.5q-36 0 -64 26.5t-28 61.5z" />
<glyph unicode="&#x152;" horiz-adv-x="1884" d="M119 686q0 162 56 301t149.5 232.5t215 146.5t251.5 53q112 0 229 -26h749v-138h-600v-460h539v-140h-539v-518h621v-137h-770q-108 -27 -229 -27q-143 0 -268 54.5t-213.5 148.5t-139.5 226.5t-51 283.5zM274 690q0 -115 36 -218.5t101 -182.5t164.5 -125.5t219.5 -46.5 q130 0 225 35v1091q-107 35 -236 35q-99 0 -191 -41t-163 -114.5t-113.5 -186.5t-42.5 -246z" />
<glyph unicode="&#x153;" horiz-adv-x="1576" d="M92 451q0 214 113.5 352.5t288.5 138.5q108 0 195 -50.5t142 -141.5q54 92 136.5 142t181.5 50q153 0 244.5 -104t91.5 -260q0 -84 -25 -158h-559q0 -170 71 -247t193 -77q59 0 124 28t108 71h6l27 -119q-48 -47 -123.5 -74t-163.5 -27q-100 0 -185 44.5t-139 132.5 q-56 -83 -139 -130t-178 -47q-175 0 -292.5 134.5t-117.5 341.5zM240 453q0 -159 72 -259t190 -100q114 0 185 99.5t71 259.5q0 165 -70.5 267.5t-193.5 102.5q-114 0 -184 -104.5t-70 -265.5zM907 526h430q21 132 -38.5 214.5t-153.5 82.5q-104 0 -168 -84t-70 -213z" />
<glyph unicode="&#x178;" horiz-adv-x="1208" d="M37 1374l145 33l416 -641h14l414 641l145 -33l-493 -753v-621h-150v621zM346 1608q0 35 28.5 62.5t63.5 27.5q38 0 65 -27t27 -63t-27 -62t-65 -26q-36 0 -64 26.5t-28 61.5zM678 1608q0 35 28.5 62.5t63.5 27.5q33 0 61.5 -27.5t28.5 -62.5t-28 -61.5t-62 -26.5 q-36 0 -64 26.5t-28 61.5z" />
<glyph unicode="&#x2c6;" horiz-adv-x="1024" d="M252 934v16l223 328h74l223 -328v-16h-90l-170 225l-170 -225h-90z" />
<glyph unicode="&#x2dc;" horiz-adv-x="1024" d="M227 975q0 113 49.5 175t122.5 62q31 0 59 -15t49 -36t40 -42.5t39.5 -36.5t40.5 -15q40 0 60 39.5t20 101.5h88q0 -100 -48 -168.5t-118 -68.5q-37 0 -71.5 22.5t-56 49t-48.5 49t-52 22.5q-42 0 -66 -39t-24 -100h-84z" />
<glyph unicode="&#x2000;" horiz-adv-x="937" />
<glyph unicode="&#x2001;" horiz-adv-x="1874" />
<glyph unicode="&#x2002;" horiz-adv-x="937" />
<glyph unicode="&#x2003;" horiz-adv-x="1874" />
<glyph unicode="&#x2004;" horiz-adv-x="624" />
<glyph unicode="&#x2005;" horiz-adv-x="468" />
<glyph unicode="&#x2006;" horiz-adv-x="312" />
<glyph unicode="&#x2007;" horiz-adv-x="312" />
<glyph unicode="&#x2008;" horiz-adv-x="234" />
<glyph unicode="&#x2009;" horiz-adv-x="374" />
<glyph unicode="&#x200a;" horiz-adv-x="104" />
<glyph unicode="&#x2010;" horiz-adv-x="696" d="M82 420v141h532v-141h-532z" />
<glyph unicode="&#x2011;" horiz-adv-x="696" d="M82 420v141h532v-141h-532z" />
<glyph unicode="&#x2012;" horiz-adv-x="696" d="M82 420v141h532v-141h-532z" />
<glyph unicode="&#x2013;" horiz-adv-x="983" d="M82 420v141h819v-141h-819z" />
<glyph unicode="&#x2014;" horiz-adv-x="2048" d="M188 428v127h1672v-127h-1672z" />
<glyph unicode="&#x2018;" horiz-adv-x="573" d="M119 889l223 504h109l-148 -504h-184z" />
<glyph unicode="&#x2019;" horiz-adv-x="573" d="M123 889l147 504h185l-224 -504h-108z" />
<glyph unicode="&#x201a;" horiz-adv-x="573" d="M123 -268l147 504h185l-224 -504h-108z" />
<glyph unicode="&#x201c;" horiz-adv-x="962" d="M119 889l223 504h109l-148 -504h-184zM508 889l223 504h109l-148 -504h-184z" />
<glyph unicode="&#x201d;" horiz-adv-x="962" d="M123 889l147 504h185l-224 -504h-108zM512 889l147 504h185l-223 -504h-109z" />
<glyph unicode="&#x201e;" horiz-adv-x="962" d="M123 -268l147 504h185l-224 -504h-108zM512 -268l147 504h185l-223 -504h-109z" />
<glyph unicode="&#x2022;" horiz-adv-x="983" d="M233 541q0 105 76.5 180.5t182.5 75.5t181 -75t75 -181t-75 -182t-181 -76t-182.5 76t-76.5 182z" />
<glyph unicode="&#x2026;" horiz-adv-x="1863" d="M166 94q0 46 32 78.5t78 32.5q45 0 78 -33t33 -78t-33 -76.5t-78 -31.5q-46 0 -78 31t-32 77zM821 94q0 46 32.5 78.5t78.5 32.5q44 0 77 -32.5t33 -78.5q0 -45 -32.5 -76.5t-77.5 -31.5q-46 0 -78.5 31.5t-32.5 76.5zM1477 94q0 46 32 78.5t78 32.5q45 0 78 -33t33 -78 t-33 -76.5t-78 -31.5q-46 0 -78 31t-32 77z" />
<glyph unicode="&#x202f;" horiz-adv-x="374" />
<glyph unicode="&#x2039;" horiz-adv-x="839" d="M154 459v18l428 463l77 -61l-317 -402v-12l317 -412l-77 -61z" />
<glyph unicode="&#x203a;" horiz-adv-x="839" d="M180 53l318 412v12l-318 402l78 61l428 -463v-18l-428 -467z" />
<glyph unicode="&#x205f;" horiz-adv-x="468" />
<glyph unicode="&#x20ac;" horiz-adv-x="1249" d="M78 535l24 98h99v41q0 46 2 71h-125l24 99h113q23 137 83.5 247.5t144.5 181t185 108.5t208 38q168 0 315 -67l-37 -133q-139 61 -272 61q-80 0 -154.5 -26.5t-139 -78.5t-111.5 -137t-66 -194h647q-4 -25 -27 -99h-633q-2 -20 -2 -63v-49h609q-4 -22 -27 -98h-569 q36 -193 157.5 -308.5t296.5 -115.5q155 0 293 69q11 -31 51 -123q-158 -84 -348 -84q-237 0 -402 157t-206 405h-133z" />
<glyph unicode="&#x2122;" horiz-adv-x="1413" d="M152 1300v93h479v-93h-191v-440h-98v440h-190zM645 860l88 537h45l158 -348h8l154 348h45l88 -537h-96l-50 297h-10l-133 -305h-10l-133 305h-8l-52 -297h-94z" />
<glyph unicode="&#xe000;" horiz-adv-x="931" d="M0 0v932h932v-932h-932z" />
</font>
</defs>
</svg>
