<?xml version="1.0" standalone="no"?>
<!DOCTYPE svg PUBLIC "-//W3C//DTD SVG 1.1//EN" "http://www.w3.org/Graphics/SVG/1.1/DTD/svg11.dtd" >
<svg xmlns="http://www.w3.org/2000/svg">
<metadata></metadata>
<defs>
<font id="concourse_t4italic" horiz-adv-x="1003" >
<font-face units-per-em="2048" ascent="1520" descent="-528" />
<missing-glyph horiz-adv-x="450" />
<glyph unicode="&#xfb01;" horiz-adv-x="1126" d="M51 770l15 107l204 38l13 91q12 89 48 164t82 121t91 73t84 33h196v-99q-144 -21 -222 -92t-101 -213l-12 -78l202 3l-24 -130l-207 -20l-123 -717l-21 -241l-204 -21l174 981h-195zM686 -10l127 731l10 182l209 25l-125 -713l-14 -205zM862 1274q0 51 36 87t87 36 t87 -36t36 -87t-36 -87t-87 -36t-87 36t-36 87z" />
<glyph unicode="&#xfb02;" horiz-adv-x="1126" d="M51 770l15 107l204 38l13 91q12 89 48 164t82 121t91 73t84 33h196v-99q-144 -21 -222 -92t-101 -213l-12 -78l202 3l-24 -130l-207 -20l-123 -717l-21 -241l-204 -21l174 981h-195zM678 -10l139 731l72 469l12 203l221 24l-133 -698l-82 -467l-14 -242z" />
<glyph horiz-adv-x="2048" />
<glyph horiz-adv-x="2048" />
<glyph unicode="&#xd;" horiz-adv-x="2048" />
<glyph unicode=" "  horiz-adv-x="450" />
<glyph unicode="&#x09;" horiz-adv-x="450" />
<glyph unicode="&#xa0;" horiz-adv-x="450" />
<glyph unicode="!" horiz-adv-x="634" d="M80 109q0 51 36 86.5t87 35.5t87 -35.5t36 -86.5t-36 -87t-87 -36t-87 36t-36 87zM195 395l133 768l34 219l238 19l8 -15l-153 -475l-152 -505z" />
<glyph unicode="&#x22;" horiz-adv-x="819" d="M205 831l102 562h209l-199 -562h-112zM512 831l102 562h209l-198 -562h-113z" />
<glyph unicode="#" horiz-adv-x="1044" d="M23 530l20 119l246 -43l73 318l-217 39l21 118l225 -41l101 433l106 -25l-98 -426l196 -35l115 467l107 -24l-113 -461l223 -39l-20 -119l-232 39l-78 -318l207 -34l-20 -119l-215 37l-129 -537l-107 25l129 530l-194 35l-131 -569l-107 24l131 563zM397 586l195 -33 l76 317l-197 35z" />
<glyph unicode="$" horiz-adv-x="962" d="M-4 186l84 148q113 -87 233 -107l129 447l-20 12q-56 33 -90.5 57.5t-75 64.5t-60.5 90.5t-20 111.5q0 54 25.5 112.5t74.5 113.5t134.5 90.5t191.5 35.5q25 0 39 -2l49 174l94 -21l-49 -165q119 -28 213 -99l-78 -145q-96 64 -180 84l-115 -400q137 -81 196.5 -166.5 t59.5 -181.5q0 -80 -29.5 -146t-77 -109t-109.5 -72t-124 -41.5t-124 -12.5h-2l-60 -206l-94 20l55 197q-83 14 -158.5 48t-111.5 68zM346 1014q0 -46 30 -83.5t113 -90.5l105 358h-2q-111 0 -178.5 -49t-67.5 -135zM412 223q117 7 180 67t63 140q0 52 -29 95t-100 93z" />
<glyph unicode="%" horiz-adv-x="1392" d="M125 1022q0 170 99 281.5t231 111.5q99 0 169 -75t70 -191q0 -169 -96.5 -279t-224.5 -110q-112 0 -180 71.5t-68 190.5zM137 35l555 706l467 670l117 -51l-522 -662l-502 -716zM274 1028q0 -62 28.5 -100.5t78.5 -38.5q67 0 115.5 71.5t48.5 182.5q0 65 -28 104t-71 39 q-67 0 -119.5 -76.5t-52.5 -181.5zM725 240q0 170 99 281.5t231 111.5q99 0 169 -75t70 -191q0 -169 -96.5 -279.5t-224.5 -110.5q-112 0 -180 72t-68 191zM874 246q0 -62 28.5 -101t78.5 -39q67 0 115.5 71.5t48.5 182.5q0 65 -27.5 104.5t-70.5 39.5q-67 0 -120 -76.5 t-53 -181.5z" />
<glyph unicode="&#x26;" horiz-adv-x="1331" d="M47 340q0 96 33.5 181.5t91 148t122 108t138.5 76.5v10q-79 38 -109 88t-30 113q0 100 69 184t171.5 129t207.5 45q110 0 188 -25t152 -75l-96 -162q-60 43 -115.5 65.5t-130.5 22.5q-97 0 -172 -53.5t-75 -134.5q0 -67 33.5 -107.5t113.5 -54.5l-23 -129 q-180 -30 -275 -139.5t-95 -259.5q0 -105 80 -166.5t200 -61.5q195 0 316 96.5t121 245.5q0 57 -17 95l-176 -29l-16 147l495 82l17 -147l-142 -23q13 -50 13 -106q0 -124 -51.5 -226.5t-138.5 -169t-198 -103t-233 -36.5q-209 0 -339 105t-130 266z" />
<glyph unicode="'" horiz-adv-x="512" d="M205 831l102 562h209l-199 -562h-112z" />
<glyph unicode="(" horiz-adv-x="716" d="M78 391q0 143 38 285t101.5 261.5t148.5 229t176.5 192.5t188.5 146l82 -125q-233 -151 -382.5 -427.5t-149.5 -590.5q0 -374 215 -616l-95 -108q-323 292 -323 753z" />
<glyph unicode=")" horiz-adv-x="716" d="M-137 -238q233 151 382.5 427.5t149.5 590.5q0 375 -215 617l94 108q324 -293 324 -753q0 -143 -38 -285t-101.5 -261.5t-148.5 -229t-176.5 -192.5t-188.5 -146z" />
<glyph unicode="*" horiz-adv-x="1085" d="M205 719l323 213l-313 115l98 163l256 -198l31 391l203 -43l-154 -369l328 99l20 -199l-348 20l223 -331l-165 -91l-123 388l-269 -314z" />
<glyph unicode="+" horiz-adv-x="1085" d="M68 547v139h405v406h139v-406h406v-139h-406v-406h-139v406h-405z" />
<glyph unicode="," horiz-adv-x="512" d="M-125 -299l156 279l90 200h217v-10l-166 -268l-156 -211h-141v10z" />
<glyph unicode="-" horiz-adv-x="696" d="M39 395l31 172l532 21l-31 -172z" />
<glyph unicode="." horiz-adv-x="552" d="M72 109q0 51 36 86.5t87 35.5t86.5 -35.5t35.5 -86.5t-35.5 -87t-86.5 -36t-87 36t-36 87z" />
<glyph unicode="/" horiz-adv-x="942" d="M-156 -328l1043 1762h168l-1045 -1762h-166z" />
<glyph unicode="0" horiz-adv-x="1208" d="M74 483q0 265 83 479.5t232.5 337.5t335.5 123q189 0 305.5 -134.5t116.5 -385.5q0 -259 -81 -471.5t-231 -337.5t-339 -125q-88 0 -162 29.5t-133.5 89t-93 161t-33.5 234.5zM268 485q0 -184 68 -265t180 -81q131 0 232 112t152 284.5t52 369.5q0 170 -65.5 259 t-184.5 89q-79 0 -149 -44.5t-121.5 -120.5t-89 -174t-56 -208t-18.5 -221z" />
<glyph unicode="1" horiz-adv-x="921" d="M250 1186l16 168l428 53l29 -25l-217 -1230l-4 -142l-209 -20l215 1231z" />
<glyph unicode="2" horiz-adv-x="1105" d="M-55 66q264 200 444.5 357.5t279.5 275.5t140 203.5t41 160.5q0 94 -57 142t-158 48q-153 0 -350 -112l-33 159q51 38 163 80.5t242 42.5q88 0 159 -18t126.5 -55t86 -99t30.5 -145q0 -192 -196 -435t-548 -489l2 -12l605 49l-33 -199l-936 -30z" />
<glyph unicode="3" horiz-adv-x="1064" d="M-27 49l25 168l8 6q169 -86 334 -86q95 0 176.5 31.5t135 99.5t53.5 160q0 94 -63 152t-175 55l-248 -8l49 178l219 -8q122 -5 219 72t97 200q0 91 -63 142t-169 51q-123 0 -301 -72l-8 6l-14 143q71 36 166.5 60t191.5 24q175 0 285 -88t110 -241q0 -137 -90.5 -240.5 t-226.5 -130.5v-14q95 -26 154 -104.5t59 -172.5q0 -92 -34 -169.5t-90.5 -130.5t-130 -90.5t-151 -55t-155.5 -17.5q-200 0 -363 80z" />
<glyph unicode="4" horiz-adv-x="1126" d="M45 489l762 893l215 21l-143 -830l149 9l-29 -162l-149 -4l-47 -271l-4 -135l-201 -20l72 424l-604 -15zM276 555l5 -12l415 24l105 588l-10 2z" />
<glyph unicode="5" horiz-adv-x="1105" d="M0 -8l51 166q86 -21 191 -21q128 0 231.5 30t169 80.5t100.5 114.5t35 136q0 73 -32.5 128.5t-89 87t-125.5 47t-150 15.5q-131 0 -217 -12l-8 6l186 612l743 21l-53 -164l-563 -16l-96 -305q41 6 110 6q230 0 362 -114t132 -292q0 -108 -41.5 -199t-112.5 -155 t-167.5 -108.5t-206.5 -65.5t-228 -21q-146 0 -221 23z" />
<glyph unicode="6" horiz-adv-x="1105" d="M66 393q0 205 80 388.5t218 317.5t327.5 220t404.5 104l-56 -182q-129 -8 -247.5 -52.5t-206.5 -111.5t-151.5 -144t-96.5 -157l12 -12q113 55 248 55q72 0 138.5 -22t122.5 -65t90 -117t34 -169q0 -141 -66.5 -251.5t-175.5 -168t-241 -57.5q-210 0 -322 118.5 t-112 305.5zM256 399q0 -125 66.5 -197.5t181.5 -72.5q124 0 205 84t77 221q-4 122 -78.5 180t-191.5 58q-115 0 -225 -58q-35 -107 -35 -215z" />
<glyph unicode="7" horiz-adv-x="1024" d="M160 1198l28 184l881 21l16 -25q-267 -378 -433.5 -708.5t-239.5 -659.5l-234 -20q108 333 276.5 658.5t360.5 574.5l-6 10z" />
<glyph unicode="8" horiz-adv-x="1085" d="M23 285q0 139 103 254.5t255 185.5l2 12q-178 128 -178 283q0 161 139.5 282t341.5 121q162 0 266.5 -80t104.5 -215q0 -129 -91 -230t-241 -171l-4 -14q233 -151 233 -324q0 -117 -67 -213.5t-182.5 -151.5t-253.5 -55q-196 0 -312 87.5t-116 228.5zM213 309 q0 -87 68 -136.5t180 -49.5q128 0 213.5 72.5t85.5 169.5q0 83 -62 150.5t-172 133.5q-9 3 -14 8q-144 -58 -221.5 -152.5t-77.5 -195.5zM397 1044q0 -69 48.5 -129.5t152.5 -126.5q266 142 266 320q0 73 -52.5 120.5t-147.5 47.5q-124 0 -195.5 -71.5t-71.5 -160.5z" />
<glyph unicode="9" horiz-adv-x="1105" d="M119 944q0 121 62.5 230.5t177 179t253.5 69.5q106 0 188.5 -34t133 -94.5t76.5 -140.5t26 -175q0 -186 -62 -351t-174.5 -292.5t-268 -221t-343.5 -145.5l-49 137l4 11q112 39 203.5 84t176.5 105t146.5 138.5t94.5 171.5l-12 13q-109 -56 -238 -56q-79 0 -148.5 22.5 t-125.5 66.5t-88.5 116.5t-32.5 165.5zM313 958q0 -115 78 -178t195 -63q125 0 227 57q31 78 31 219q0 125 -66 199t-180 74t-199.5 -88.5t-85.5 -219.5z" />
<glyph unicode=":" horiz-adv-x="552" d="M53 109q0 51 36 86.5t87 35.5t87 -35.5t36 -86.5t-36 -87t-87 -36t-87 36t-36 87zM176 764q0 51 36 87t87 36t87 -36t36 -87t-36 -87t-87 -36t-87 36t-36 87z" />
<glyph unicode=";" horiz-adv-x="593" d="M-121 -299l156 279l90 200h217v-10l-166 -268l-156 -211h-141v10zM193 764q0 51 35.5 87t86.5 36t87 -36t36 -87t-36 -87t-87 -36t-86.5 36t-35.5 87z" />
<glyph unicode="&#x3c;" horiz-adv-x="1085" d="M102 594v127l828 389l51 -133l-702 -320l702 -319l-51 -133z" />
<glyph unicode="=" horiz-adv-x="1085" d="M88 334v139h909v-139h-909zM88 743v140h909v-140h-909z" />
<glyph unicode="&#x3e;" horiz-adv-x="1085" d="M104 338l703 319l-703 320l52 133l827 -389v-127l-827 -389z" />
<glyph unicode="?" horiz-adv-x="921" d="M111 109q0 51 35.5 86.5t86.5 35.5t87 -35.5t36 -86.5t-36 -87t-87 -36t-86.5 36t-35.5 87zM150 602q0 57 25.5 104.5t67 79.5t94.5 62t108.5 52t108.5 49t94.5 54t67 66t25.5 86q0 60 -41 89.5t-104 29.5q-127 0 -272 -90l-52 127q175 112 344 112q138 0 221 -71 t83 -181q0 -74 -33 -135t-85 -101.5t-115.5 -74.5t-127 -61t-115.5 -53.5t-85 -60t-33 -73.5q0 -61 69 -61q59 0 111 37l43 -111q-81 -51 -195 -51q-89 0 -146.5 46.5t-57.5 129.5z" />
<glyph unicode="@" horiz-adv-x="1413" d="M143 604q0 127 26.5 247t81.5 226t132 185.5t185.5 125.5t234.5 46q99 0 178.5 -22t138 -66.5t87.5 -118t22 -170.5l-39 -568q-5 -92 53 -147l-2 -20l-160 -50l-37 90h-30q-94 -73 -232 -73q-109 0 -183.5 79t-74.5 220q0 155 96 256.5t234 101.5q114 0 199 -16l10 110 q11 136 -57.5 190t-206.5 54q-139 0 -251.5 -86t-176.5 -242.5t-64 -353.5q0 -158 35 -278.5t98 -193.5t144.5 -109.5t179.5 -36.5q163 0 254 73h10l57 -120q-64 -55 -154 -82t-169 -27q-154 0 -272.5 55t-194 157t-114 244t-38.5 320zM686 588q0 -152 145 -152 q100 0 193 49l20 306q-71 14 -165 14q-85 0 -139 -57t-54 -160z" />
<glyph unicode="A" horiz-adv-x="1392" d="M-72 6l486 705l465 723h41l159 -748l158 -676l-180 -20l-82 381l-606 -23l-222 -338l-213 -18zM479 516l461 19l-106 512h-15z" />
<glyph unicode="B" horiz-adv-x="1146" d="M41 -10l131 704l80 502l12 186l361 17q15 1 30 0q87 1 157 -19q82 -24 132.5 -69t76.5 -104t26 -128q0 -119 -77.5 -216t-195.5 -128l-2 -10q106 -20 170 -98t64 -176q0 -105 -43.5 -189t-121 -138t-177.5 -83.5t-218 -34.5zM266 156l217 8q43 1 83 8t86 25.5t80 47.5 t56.5 79t22.5 114q0 100 -72 160q-64 53 -151 54q-12 0 -23 -1l-219 -16zM375 795l223 16q111 7 180.5 77t69.5 165q0 87 -62 137q-58 47 -152 47h-11l-168 -6z" />
<glyph unicode="C" horiz-adv-x="1351" d="M90 604q0 158 63 307.5t169 262t256.5 181t316.5 68.5q139 0 260 -52t193 -118l-107 -149q-164 145 -364 145q-83 0 -166.5 -27.5t-158.5 -83t-133 -131.5t-92 -180t-34 -221q0 -207 114 -335t304 -128q120 0 230 40t194 106l67 -154q-94 -75 -226.5 -120.5t-279.5 -45.5 q-178 0 -317.5 85t-214 229t-74.5 321z" />
<glyph unicode="D" horiz-adv-x="1372" d="M41 -10l131 729l72 444l14 219l377 15h28q163 0 299 -65q148 -71 236 -208.5t88 -314.5q0 -157 -45.5 -289.5t-121.5 -223.5t-177.5 -156.5t-211 -98t-224.5 -37.5zM272 168l199 4q148 4 267 55t194 136t115 195t40 235q0 147 -63 249q-64 102 -166 148q-92 41 -207 41 h-26l-166 -6l-105 -535z" />
<glyph unicode="E" horiz-adv-x="1044" d="M37 -10l137 739l72 442l14 211l809 21l-39 -168l-581 -14l-82 -422l538 20l-39 -168l-528 -20l-76 -473l623 20l-39 -168z" />
<glyph unicode="F" d="M41 -10l139 733l66 418l18 241l787 21l-39 -168l-553 -10l-84 -426l512 20l-39 -168l-502 -20l-102 -631z" />
<glyph unicode="G" horiz-adv-x="1454" d="M94 573q0 165 59 318.5t163 271.5t258 189t331 71q135 0 252.5 -52.5t188.5 -119.5l-105 -151q-47 54 -146 101.5t-214 47.5q-107 0 -211 -45.5t-187 -126t-134.5 -205t-51.5 -270.5q0 -208 119 -333.5t303 -125.5t328 111l59 332l-379 -17l31 164l569 21l-102 -586 q-224 -199 -537 -199q-127 0 -239 51t-189 134.5t-121.5 193t-44.5 225.5z" />
<glyph unicode="H" horiz-adv-x="1413" d="M41 -10l145 760l72 454l6 178l225 21l-114 -604l719 20l59 363l12 200l224 21l-127 -664l-78 -481l-19 -248l-223 -20l123 661l-719 -20l-65 -408l-15 -213z" />
<glyph unicode="I" horiz-adv-x="552" d="M59 -10l142 735l67 438l15 219l225 21l-131 -682l-78 -488l-14 -223z" />
<glyph unicode="J" horiz-adv-x="839" d="M-76 43l82 158q67 -62 150 -62q119 0 192 82.5t105 261.5l129 719l10 180l221 21l-106 -563l-66 -387q-40 -239 -171.5 -361.5t-322.5 -122.5q-64 0 -124 20.5t-99 53.5z" />
<glyph unicode="K" horiz-adv-x="1228" d="M41 -10l135 723l78 477l10 192l223 21l-120 -645h20l633 624l250 17l-2 -21l-703 -673l527 -678l-2 -21l-207 -16l-484 624l-65 -57l-51 -303l-19 -244z" />
<glyph unicode="L" d="M41 -10l133 737l66 410l14 245l227 21l-125 -670l-90 -569l600 24l-39 -168z" />
<glyph unicode="M" horiz-adv-x="1740" d="M-20 -10l534 1423h41l268 -1057h8l748 1057h41l-82 -1210l4 -183l-219 -30l78 868h-15l-628 -878h-21l-225 901h-14l-254 -695l-43 -176z" />
<glyph unicode="N" horiz-adv-x="1536" d="M41 -10l133 698l115 725h61l764 -1036h16l95 526l41 273l12 206l223 21l-112 -586l-136 -837h-61l-766 1034h-16l-66 -383l-63 -404l-15 -217z" />
<glyph unicode="O" horiz-adv-x="1576" d="M90 590q0 171 66 327t175 266t252 175t294 65q170 0 309 -79.5t219 -222t80 -320.5q0 -174 -60 -328t-164 -265t-250.5 -175t-312.5 -64q-169 0 -307.5 78.5t-219.5 221t-81 321.5zM291 598q0 -85 27 -165.5t77 -145.5t131 -104.5t181 -39.5q103 0 195.5 36t161 98 t119 144.5t76 177.5t25.5 194q0 201 -122.5 328.5t-295.5 127.5q-105 0 -206.5 -45t-184 -126t-133.5 -206.5t-51 -273.5z" />
<glyph unicode="P" horiz-adv-x="1064" d="M39 -10l135 719l76 469l12 204l344 17q13 1 26 0q106 -1 192 -37q96 -42 154 -129.5t58 -210.5q0 -104 -44.5 -190.5t-119 -142.5t-167 -88.5t-191.5 -37.5l-184 -8l-56 -336l-12 -209zM358 717l174 8q129 7 214 94t85 191q-1 104 -63 168q-59 60 -156 59h-12l-143 -6z " />
<glyph unicode="Q" horiz-adv-x="1576" d="M90 590q0 171 66 327t175 266t252 175t294 65q170 0 309 -79.5t219 -222t80 -320.5q0 -174 -60 -328t-164 -265t-250.5 -175t-312.5 -64h-20l-4 -6q91 -79 248 -144q145 -60 273 -60q12 0 24 1l-56 -192q-82 0 -163 21t-149.5 55t-135 76t-129 85.5t-121 80.5t-121 64.5 t-119.5 35.5l68 133q-96 85 -149.5 205.5t-53.5 265.5zM291 598q0 -85 27 -165.5t77 -145.5t131 -104.5t181 -39.5q103 0 195.5 36t161 98t119 144.5t76 177.5t25.5 194q0 201 -122.5 328.5t-295.5 127.5q-105 0 -206.5 -45t-184 -126t-133.5 -206.5t-51 -273.5z" />
<glyph unicode="R" horiz-adv-x="1167" d="M43 -10l129 710l74 457l20 225l406 15q10 0 19 1q158 0 266 -96q114 -100 114 -267q-1 -79 -25 -147q-24 -66 -63.5 -112t-96.5 -82t-119.5 -57.5t-135.5 -34.5l407 -569l-4 -23l-200 -20l-402 588l-96 -11l-60 -364l-10 -193zM365 727l147 14q81 7 142.5 24t112.5 48.5 t78 85t27 127.5q0 103 -74 159q-67 51 -163 51q-10 0 -21 -1l-159 -10z" />
<glyph unicode="S" horiz-adv-x="1044" d="M-2 139l121 148q44 -61 122 -104.5t169 -43.5q129 0 206.5 63t77.5 169q0 62 -27.5 113t-72 86t-98 67.5t-106.5 68t-97.5 76.5t-72 103t-27.5 139q0 166 127.5 282.5t308.5 116.5q124 0 225 -46t162 -122l-115 -137q-124 137 -276 137q-101 0 -168.5 -62t-67.5 -153 q0 -53 28 -98t73 -79t99 -67t108 -70.5t99 -81.5t73 -108.5t28 -142.5q0 -99 -39 -180t-106.5 -134t-155.5 -81.5t-188 -28.5q-248 0 -410 170z" />
<glyph unicode="T" horiz-adv-x="1146" d="M113 1214l28 168l1088 21l-29 -168l-432 -8l-109 -549l-71 -453l-15 -215l-225 -20l135 702l80 531z" />
<glyph unicode="U" horiz-adv-x="1413" d="M124 376q2 54 9 109l125 699l14 198l224 21l-174 -883q-12 -63 -13 -116q0 -110 55 -172q80 -92 254 -93q170 0 285 91.5t146 289.5l98 643l14 219l223 21l-157 -907q-15 -88 -45 -163t-82 -143.5t-121.5 -116.5t-169 -76t-219.5 -28q-81 0 -149.5 15t-118.5 42.5t-89 65 t-61 82.5q-22 46 -36 97q-12 46 -13 94q1 6 1 11z" />
<glyph unicode="V" horiz-adv-x="1249" d="M121 1382l190 21l248 -1006h21l583 985l197 19l8 -15l-848 -1417h-41z" />
<glyph unicode="W" horiz-adv-x="1781" d="M141 1382l197 21l166 -965h16l463 975h53l142 -975h16l483 944l201 19l4 -12l-747 -1420h-62l-131 930h-16l-455 -930h-61z" />
<glyph unicode="X" horiz-adv-x="1208" d="M-80 10l580 690l-353 682l205 21l271 -553l434 532l223 19l8 -21l-561 -669l360 -701l-208 -20l-279 575l-450 -555l-224 -18z" />
<glyph unicode="Y" horiz-adv-x="1208" d="M141 1382l189 21l276 -596h17l456 575l211 19l8 -21l-608 -759l-76 -428l-12 -183l-213 -20l109 631z" />
<glyph unicode="Z" horiz-adv-x="1208" d="M-98 10l1046 1207l-8 12l-745 -35l49 168l1061 41l10 -10l-1053 -1219l8 -12l811 37l-49 -168l-1120 -41z" />
<glyph unicode="[" horiz-adv-x="757" d="M12 -336l181 930l139 889l497 -8l-24 -144l-293 8l-145 -751l-125 -781l309 9l-27 -144z" />
<glyph unicode="\" horiz-adv-x="942" d="M72 1434h161l619 -1762h-160z" />
<glyph unicode="]" horiz-adv-x="757" d="M-113 -328l25 144l293 -9l145 752l125 780l-309 -8l27 144l512 8l-181 -930l-139 -889z" />
<glyph unicode="^" horiz-adv-x="1085" d="M61 643l455 772h55l453 -772l-119 -68l-352 615h-16l-359 -615z" />
<glyph unicode="_" horiz-adv-x="1085" d="M-246 -430l23 143h1186l-23 -143h-1186z" />
<glyph unicode="`" horiz-adv-x="1024" d="M231 1249v21h177l227 -336v-16h-119z" />
<glyph unicode="a" horiz-adv-x="921" d="M18 215q0 65 27 145q95 103 257 153q113 35 216 35q46 0 90 -7q5 40 5 74q0 75 -26 119q-38 62 -136 63q-57 0 -131.5 -33.5t-118.5 -73.5h-6l-60 121q161 135 354 135q149 0 231 -108q62 -82 62 -200q0 -39 -6 -81l-55 -354q-2 -16 -2 -34q1 -25 5 -53q8 -48 30 -77 l-6 -12l-156 -45q-31 68 -31 132v11h-8q-54 -58 -134 -100.5t-165 -55.5q-100 9 -168 78t-68 168zM184 256v-10q0 -44 24 -79q26 -39 83 -50q77 10 151.5 50.5t122.5 96.5l29 150q-44 6 -87 6q-70 0 -137 -16q-108 -26 -177 -103q-9 -31 -9 -45z" />
<glyph unicode="b" d="M16 84l111 594l84 512l14 203l211 24l-117 -626h11q55 61 130 105.5t156 51.5q130 -19 207.5 -122.5t77.5 -260.5q0 -169 -74.5 -305.5t-202 -212.5t-280.5 -76q-184 0 -328 113zM211 174q52 -49 156 -49q63 0 123.5 28t111 81.5t81 141t30.5 195.5q0 86 -37.5 143.5 t-97.5 69.5q-69 -1 -151 -52.5t-136 -125.5z" />
<glyph unicode="c" horiz-adv-x="819" d="M20 315q0 137 46.5 257.5t120.5 201t165.5 126.5t182.5 46q172 0 270 -129l-107 -121q-75 95 -174 95q-121 0 -217 -128t-96 -319q0 -109 50 -162t134 -53q98 0 213 84l66 -123q-55 -58 -141.5 -88.5t-178.5 -30.5q-155 0 -244.5 93t-89.5 251z" />
<glyph unicode="d" d="M20 328q0 168 71.5 311t188 225t248.5 82q51 0 104 -19t91 -55h10l60 332l12 189l217 24l-131 -710l-88 -498l-17 -199l-161 -20l6 170h-8q-58 -66 -142.5 -119.5t-173.5 -71.5q-124 25 -205.5 124.5t-81.5 234.5zM211 350q0 -93 36.5 -148t96.5 -71q74 8 160.5 69.5 t136.5 145.5l68 367q-58 73 -172 73q-137 0 -231.5 -126.5t-94.5 -309.5z" />
<glyph unicode="e" horiz-adv-x="921" d="M20 311q0 165 69 312t186 235t249 88q133 0 221.5 -86t88.5 -205q0 -66 -19 -116q-97 -85 -273 -127q-122 -29 -235 -28q-49 0 -96 5q-4 -31 -4 -59q0 -84 39 -136q52 -68 147 -69q69 0 143.5 30t127.5 78h6l49 -137q-65 -57 -159.5 -91t-192.5 -34q-151 0 -249 92.5 t-98 247.5zM236 522q53 -5 101 -4q204 0 327 82q2 16 2 32q0 58 -32 104q-41 58 -122 59q-95 0 -172.5 -85t-103.5 -188z" />
<glyph unicode="f" horiz-adv-x="655" d="M51 770l15 107l204 38l13 91q12 89 48 164t82 121t91 73t84 33h196v-99q-144 -21 -222 -92t-101 -213l-12 -78l202 3l-24 -130l-207 -20l-123 -717l-21 -241l-204 -21l174 981h-195z" />
<glyph unicode="g" d="M4 -350l68 151h4q94 -61 200 -61q49 0 92 12t87 43t78.5 80t61.5 128.5t40 182.5h-10q-131 -158 -324 -200q-120 25 -200.5 120.5t-80.5 239.5q0 114 41.5 224t110.5 192.5t163.5 133t194.5 50.5q137 0 209 -92h11l41 76l143 -15l-105 -538l-57 -363 q-32 -195 -176.5 -316.5t-327.5 -121.5q-168 0 -264 74zM211 354q0 -88 38 -141t101 -66q72 11 155.5 72t141.5 148l68 346q-69 73 -174 73q-91 0 -167.5 -61t-119.5 -160t-43 -211z" />
<glyph unicode="h" horiz-adv-x="983" d="M0 -10l125 667l84 541l14 195l221 24l-114 -594h10q147 123 332 123q102 0 156 -83q36 -55 35 -142q0 -45 -9 -98l-76 -428l-12 -185l-205 -20l105 610q6 36 6 64q0 50 -20 76q-32 42 -111 42q-116 0 -240 -127l-82 -460l-14 -185z" />
<glyph unicode="i" horiz-adv-x="471" d="M31 -10l127 731l10 182l209 25l-125 -713l-14 -205zM207 1274q0 51 36 87t87 36t87 -36t36 -87t-36 -87t-87 -36t-87 36t-36 87z" />
<glyph unicode="j" horiz-adv-x="471" d="M-115 -362q51 41 84 116t58 203l129 754l12 192l209 25l-168 -983q-23 -139 -59 -216t-91 -128l-174 -21v58zM207 1274q0 51 36 87t87 36t87 -36t36 -87t-36 -87t-87 -36t-87 36t-36 87z" />
<glyph unicode="k" horiz-adv-x="901" d="M-6 -10l209 1206l14 197l211 24l-158 -891h21l383 381l227 21l-2 -21l-428 -415l-4 -21l315 -442v-19l-182 -20l-278 420l-86 -66l-23 -145l-14 -189z" />
<glyph unicode="l" horiz-adv-x="471" d="M23 -10l139 731l71 469l13 203l221 24l-133 -698l-82 -467l-14 -242z" />
<glyph unicode="m" horiz-adv-x="1536" d="M0 -10l115 669l24 248l172 21v-115h11q136 133 286 133q177 0 236 -143h10q102 76 181.5 109.5t170.5 33.5q49 0 90 -17t73 -53t43 -92q5 -27 5 -60q0 -35 -6 -77l-76 -432l-16 -205l-205 -20l107 622q5 29 5 53q0 53 -24 79q-35 38 -98 38q-60 0 -127 -36.5t-119 -86.5 l-78 -430l-18 -219l-205 -20l107 622q4 23 4 43q0 21 -4 40q-8 35 -29 53t-44.5 26t-49.5 8q-124 0 -240 -133l-80 -428l-16 -211z" />
<glyph unicode="n" horiz-adv-x="983" d="M0 -10l119 680l20 237l172 21v-115h11q168 133 333 133q121 0 177 -76q37 -51 37 -137q0 -43 -9 -94l-82 -461l-10 -168l-205 -20l103 602q7 41 7 72q0 51 -19 77q-31 41 -99 41t-137.5 -38.5t-116.5 -98.5l-84 -452l-12 -183z" />
<glyph unicode="o" d="M20 348q0 155 69.5 293.5t186.5 221.5t248 83q169 0 273 -107t104 -284q0 -84 -22.5 -168.5t-67 -159t-105 -132t-142.5 -91t-173 -33.5q-166 0 -268.5 104t-102.5 273zM211 365q0 -116 51 -179t141 -63q126 0 218 123.5t92 296.5q0 117 -50.5 184.5t-140.5 67.5 q-84 0 -156.5 -63t-113.5 -162t-41 -205z" />
<glyph unicode="p" d="M-78 -418l125 645l72 467l18 226l164 12l-6 -168h10q74 82 147 127.5t164 56.5q50 -8 97.5 -32.5t91 -68t70 -115t26.5 -161.5q0 -118 -33.5 -220t-86.5 -170t-118.5 -117t-128.5 -71t-118 -22q-61 0 -116.5 20t-90.5 62h-10l-47 -270l-11 -176zM223 219q23 -50 64 -71 t106 -21q53 0 106 23.5t102.5 72t80.5 137t31 203.5q0 105 -40 156t-93 65q-68 0 -155.5 -56t-137.5 -130z" />
<glyph unicode="q" d="M20 328q0 130 44 247t116 197t164.5 127t187.5 47q120 0 211 -98h11l43 86l139 -19l-105 -536l-88 -563l-16 -209l-207 -25l98 568h-10q-135 -149 -299 -181q-55 10 -105 36.5t-92 69.5t-67 108.5t-25 144.5zM211 350q0 -82 37 -140.5t94 -76.5q79 9 163.5 69.5 t135.5 145.5l74 363q-28 34 -75 54.5t-97 20.5q-132 0 -232 -120t-100 -316z" />
<glyph unicode="r" horiz-adv-x="655" d="M0 -10l123 717l16 200l172 21l-20 -232h14q62 111 157.5 174.5t194.5 63.5h29l-55 -199h-45q-95 -11 -191 -99t-141 -210l-45 -244l-10 -172z" />
<glyph unicode="s" horiz-adv-x="757" d="M-33 102l101 125q101 -104 215 -104q69 0 112 31.5t43 87.5q0 40 -26 74t-65 57.5t-84 53t-84 59.5t-65 79t-26 109q0 109 87.5 190.5t223.5 81.5q93 0 172 -41.5t129 -107.5l-100 -113q-86 111 -199 111q-61 0 -101 -29.5t-40 -79.5q0 -32 19.5 -59.5t50 -49.5t68 -44.5 t75 -49t68 -57.5t50 -75.5t19.5 -98.5q0 -93 -50 -158.5t-123.5 -94t-160.5 -28.5q-95 0 -179 36t-130 95z" />
<glyph unicode="t" horiz-adv-x="634" d="M37 768l14 109l223 36l21 271l211 53l-62 -324l211 5l-24 -132l-211 -18l-101 -588l-10 -170l-200 -20l139 782z" />
<glyph unicode="u" horiz-adv-x="983" d="M50 156q-4 26 -4 57q0 48 9 106l72 408l12 180l205 21l-106 -580q-8 -46 -9 -81q-1 -53 19 -81q32 -48 112 -49q69 0 143 50t111 122l68 379l18 219l205 21l-121 -703l-18 -215l-170 -20v127h-6q-150 -146 -316 -146q-58 0 -103 18.5t-78.5 59.5t-42.5 107z" />
<glyph unicode="v" horiz-adv-x="901" d="M47 907l182 21l140 -617h8l344 596l201 19l4 -15l-580 -940h-61z" />
<glyph unicode="w" horiz-adv-x="1310" d="M61 907l185 21l108 -586h8l310 588h47l92 -588h8l297 565l189 19l8 -11l-520 -944h-68l-90 555h-12l-299 -555h-56z" />
<glyph unicode="x" horiz-adv-x="901" d="M-92 0l403 479l-241 418l188 31l168 -330l260 309l207 19l4 -11l-389 -450l258 -445l-188 -30l-183 352l-278 -332l-205 -18z" />
<glyph unicode="y" horiz-adv-x="901" d="M-63 -365q69 46 150.5 154t156.5 268l-191 850l176 21l140 -654h8l350 633l186 19l9 -17l-498 -864l-121 -227l-113 -213l-253 -25v55z" />
<glyph unicode="z" horiz-adv-x="860" d="M-74 2l619 766l-4 10l-451 -30l45 149l719 41l6 -12l-624 -774l4 -13l508 31l-46 -150l-763 -40z" />
<glyph unicode="{" horiz-adv-x="757" d="M57 496l29 163q109 0 193 55t96 130q12 69 0.5 185t-0.5 183q25 147 134.5 205t373.5 58l-25 -144q-147 0 -216 -32.5t-85 -129.5q-13 -74 2.5 -192.5t7.5 -163.5q-13 -82 -98 -140.5t-197 -66.5l-10 -51q108 -9 172.5 -65t50.5 -142q-8 -47 -64.5 -161t-68.5 -181 q-10 -45 -5.5 -80.5t26 -60t75.5 -37t144 -12.5l-27 -144q-134 0 -222 19t-133 56t-59 92t1 126q10 58 64 171t63 167q17 92 -45.5 142.5t-176.5 50.5z" />
<glyph unicode="|" horiz-adv-x="1085" d="M473 -471v2007h139v-2007h-139z" />
<glyph unicode="}" horiz-adv-x="757" d="M-166 -328l25 144q148 0 216.5 32t84.5 129q13 74 -2.5 193t-7.5 164q13 82 97.5 140.5t196.5 66.5l11 51q-108 9 -173 65t-51 142q8 47 65 161t69 181q10 45 5.5 80.5t-26 60t-75.5 37t-144 12.5l27 144q134 0 222 -19t133 -56t59 -92t-1 -126q-10 -58 -64 -171 t-63 -167q-17 -92 45 -142.5t176 -50.5l-28 -164q-109 0 -193 -54.5t-96 -129.5q-12 -69 -0.5 -185.5t0.5 -183.5q-17 -99 -68.5 -154.5t-156 -81.5t-283.5 -26z" />
<glyph unicode="~" horiz-adv-x="1085" d="M66 416q0 159 83 251.5t201 92.5q51 0 100 -21t86 -51t71.5 -59.5t70.5 -50.5t70 -21q64 0 102.5 58t38.5 141h139q0 -149 -78.5 -246.5t-204.5 -97.5q-52 0 -100 20.5t-84 50t-69.5 59t-70 50t-71.5 20.5q-67 0 -110 -56t-43 -140h-131z" />
<glyph unicode="&#xa1;" horiz-adv-x="634" d="M27 -225l153 475l152 506l108 10l-133 -768l-35 -219l-237 -19zM309 1053q0 51 36 87t87 36t87 -36t36 -87t-36 -87t-87 -36t-87 36t-36 87z" />
<glyph unicode="&#xa2;" horiz-adv-x="880" d="M86 561q0 122 45.5 235t118 192.5t163.5 129t181 53.5l63 224l95 -21l-60 -209q109 -20 201 -92l-90 -131q-71 58 -154 70l-184 -658h16q111 0 224 82l47 -131q-55 -46 -135.5 -77t-155.5 -31h-41l-58 -207l-96 20l58 205q-113 35 -175.5 125.5t-62.5 220.5zM276 571 q0 -142 95 -192l176 627q-110 -31 -190.5 -151.5t-80.5 -283.5z" />
<glyph unicode="&#xa3;" horiz-adv-x="1024" d="M-2 113q270 206 281 549h-185l41 112h144q-5 137 -5 162q0 102 25 185t67.5 138.5t101 93t123 54t136.5 16.5q71 0 134.5 -15t104.5 -37t64 -39.5t35 -31.5l-90 -143q-36 38 -104.5 67t-147.5 29q-122 0 -193 -81t-71 -259q0 -69 6 -139h323l-40 -112h-279 q0 -140 -51 -254.5t-182 -204.5l12 -21q67 37 125 37q80 0 167.5 -31.5t161.5 -31.5q84 0 168 55l11 -4l6 -156q-46 -34 -106 -52.5t-109 -18.5q-61 0 -115 21.5t-111 43t-124 21.5q-112 0 -275 -86z" />
<glyph unicode="&#xa4;" horiz-adv-x="1269" d="M160 941.5q2 20.5 15 38.5t31.5 33t37.5 16.5t32 -9.5l95 -96q120 86 264 86q145 0 258 -80l88 92q21 22 59.5 -0.5t60 -62.5t1.5 -60l-92 -88q77 -113 77 -254q0 -143 -86 -266l99 -94q13 -13 11.5 -34t-15 -39.5t-31.5 -33.5t-37 -16.5t-33 10.5l-102 102 q-114 -82 -258 -82q-141 0 -254 74l-86 -90q-13 -15 -35.5 -13t-42.5 16.5t-36 34t-18.5 40t11.5 35.5l90 88q-82 114 -82 268q0 141 82 260l-92 90q-14 14 -12 34.5zM326 555q0 -143 86 -236.5t225 -93.5q129 0 216 94.5t87 235.5q0 146 -86.5 239t-218.5 93 q-144 0 -226.5 -94t-82.5 -238z" />
<glyph unicode="&#xa5;" horiz-adv-x="1187" d="M168 1382l199 11l251 -586h17l432 575l229 21l4 -8l-610 -774l-14 -74h215l-21 -113h-215l-16 -100h213l-18 -113h-216l-12 -65l-4 -146l-213 -20l39 231h-213l18 113h216l16 100h-213l20 113h213l13 74z" />
<glyph unicode="&#xa6;" horiz-adv-x="1085" d="M473 246h139v-717h-139v717zM473 819v717h139v-717h-139z" />
<glyph unicode="&#xa7;" horiz-adv-x="1167" d="M-10 -211l92 158q150 -107 334 -107q128 0 191 57.5t63 135.5q0 59 -49 109t-162 96q-167 70 -246.5 154t-79.5 198q0 172 203 319q-84 75 -84 172q0 62 28.5 122t81 109.5t138 80t188.5 30.5q117 0 212.5 -34t158.5 -82l-86 -148q-133 96 -295 96q-107 0 -168 -40.5 t-61 -106.5q0 -44 56 -90.5t193 -106.5q164 -72 233.5 -160.5t69.5 -199.5q0 -179 -204 -311q75 -83 75 -193q0 -93 -39.5 -167t-106 -119t-147.5 -68t-169 -23q-145 0 -258 35.5t-162 83.5zM326 621q0 -128 249 -234q61 -26 113 -57q61 35 89 91t28 114q0 68 -49.5 119.5 t-173.5 109.5q-92 41 -133 67q-123 -98 -123 -210z" />
<glyph unicode="&#xa8;" horiz-adv-x="1024" d="M262 1038q0 41 29.5 71t70.5 30t71 -30t30 -71t-30 -70.5t-71 -29.5t-70.5 29.5t-29.5 70.5zM582 1038q0 41 29.5 71t70.5 30t70.5 -30t29.5 -71t-29.5 -70.5t-70.5 -29.5t-70.5 29.5t-29.5 70.5z" />
<glyph unicode="&#xa9;" horiz-adv-x="1617" d="M180 662q0 170 83 314t228.5 229t319.5 85q181 0 325.5 -85t223 -228.5t78.5 -314.5q0 -173 -78 -316.5t-222.5 -229t-326.5 -85.5q-178 0 -321.5 79.5t-226.5 224.5t-83 327zM281 657q0 -232 151 -383t381 -151q226 0 375 150.5t149 383.5q0 159 -69.5 284t-189 193 t-267.5 68q-107 0 -204.5 -41.5t-169 -112.5t-114 -173t-42.5 -218zM467 655q0 171 102.5 273t249.5 102q72 0 138.5 -21t105.5 -48l-23 -105q-109 66 -223 66q-95 0 -162 -68t-67 -195q0 -108 64.5 -177.5t166.5 -69.5q117 0 232 71l26 -102q-46 -34 -117 -56t-143 -22 q-154 0 -252 101.5t-98 250.5z" />
<glyph unicode="&#xaa;" horiz-adv-x="737" d="M80 797q0 61 22 123q74 85 205 125t248 22q14 107 -17.5 157t-113.5 50q-46 0 -103.5 -26.5t-99.5 -65.5h-4l-41 104q49 51 126 81t155 30q127 0 197.5 -89t47.5 -231l-45 -291q-5 -33 2 -71.5t25 -63.5l-6 -10l-129 -37q-20 31 -27 109h-6q-91 -117 -244 -117 q-83 0 -137.5 53.5t-54.5 147.5zM223 811q0 -46 27.5 -68t68.5 -22q75 0 140 59.5t84 182.5q-89 15 -174 -7t-140 -86q-6 -30 -6 -59z" />
<glyph unicode="&#xab;" horiz-adv-x="1269" d="M115 444l4 27l493 469l95 -78l-371 -413l-4 -21l207 -360l-113 -76zM545 444l4 27l493 469l95 -78l-371 -413l-4 -21l207 -360l-113 -76z" />
<glyph unicode="&#xac;" horiz-adv-x="1085" d="M68 502v139h936v-535h-140v396h-796z" />
<glyph unicode="&#xad;" horiz-adv-x="696" d="M39 395l31 172l532 21l-31 -172z" />
<glyph unicode="&#xae;" horiz-adv-x="1146" d="M135 985q0 122 59 223t159.5 158t219.5 57q188 0 313.5 -125.5t125.5 -312.5q0 -122 -59.5 -223t-160 -158t-219.5 -57q-184 0 -311 122t-127 316zM221 983q0 -159 99 -257.5t255 -98.5q146 0 248.5 100t102.5 256q0 157 -102.5 258.5t-250.5 101.5q-159 0 -255.5 -103.5 t-96.5 -256.5zM414 745v510h149q85 0 131.5 -38.5t46.5 -108.5q0 -55 -32.5 -94t-92.5 -49l168 -211v-9h-90l-164 213h-36v-213h-80zM494 1026h71q97 0 97 82q0 38 -28.5 59t-74.5 21h-65v-162z" />
<glyph unicode="&#xaf;" horiz-adv-x="1024" d="M262 918v112h500v-112h-500z" />
<glyph unicode="&#xb0;" horiz-adv-x="757" d="M135 1128q0 121 86.5 208t206.5 87q122 0 208.5 -86.5t86.5 -208.5q0 -120 -87 -206t-208 -86q-120 0 -206.5 86t-86.5 206zM274 1128q0 -69 43 -118t109 -49q68 0 112 49t44 118q0 71 -44 121.5t-112 50.5q-66 0 -109 -50.5t-43 -121.5z" />
<glyph unicode="&#xb1;" horiz-adv-x="1085" d="M88 82v139h909v-139h-909zM88 731v139h385v406h139v-406h385v-139h-385v-405h-139v405h-385z" />
<glyph unicode="&#xb2;" horiz-adv-x="593" d="M57 881q264 211 369.5 338t105.5 211q0 79 -98 79q-77 0 -190 -67l-35 108q26 23 97 52.5t155 29.5q100 0 159.5 -42.5t59.5 -133.5q0 -97 -91.5 -223.5t-262.5 -247.5l4 -6l282 16l-24 -137l-527 -16z" />
<glyph unicode="&#xb3;" horiz-adv-x="593" d="M90 874l21 132q98 -50 196 -50q67 0 114.5 37t47.5 103q0 41 -31 67t-88 25l-127 -4l21 119l123 -5q56 -2 103.5 37.5t47.5 89.5q0 41 -29.5 64.5t-80.5 23.5q-64 0 -158 -43l-29 107q119 55 221 55q97 0 158.5 -45t61.5 -127q0 -77 -51.5 -136t-127.5 -77l-2 -8 q62 -13 94.5 -56.5t32.5 -99.5q0 -63 -30 -112.5t-78.5 -78.5t-103 -43.5t-109.5 -14.5q-118 0 -197 40z" />
<glyph unicode="&#xb4;" horiz-adv-x="1024" d="M383 918v16l238 336h178v-21l-291 -331h-125z" />
<glyph unicode="&#xb6;" horiz-adv-x="1310" d="M158 885q0 150 83 267.5t217 179t292 61.5h602l-25 -148h-121l-252 -1421l-8 -135l-180 -21l276 1577h-122l-250 -1405l-11 -151l-180 -21l144 830q-209 0 -337 104.5t-128 282.5zM358 899q0 -112 77 -178t216 -66l105 590q-165 0 -281.5 -98.5t-116.5 -247.5z" />
<glyph unicode="&#xb7;" horiz-adv-x="552" d="M145 532q0 51 36 87t87 36t87 -36t36 -87t-36 -86.5t-87 -35.5t-87 35.5t-36 86.5z" />
<glyph unicode="&#xb8;" horiz-adv-x="1024" d="M322 -379q108 9 171.5 41.5t63.5 77.5q0 65 -143 65q-36 0 -64 -4l-8 15l147 225h119l-98 -154q76 0 123 -35t47 -98q0 -82 -94 -139t-256 -74z" />
<glyph unicode="&#xb9;" horiz-adv-x="593" d="M268 1483l15 116l249 31l17 -14l-111 -629l-14 -133l-143 -6l114 647z" />
<glyph unicode="&#xba;" horiz-adv-x="819" d="M111 905q0 128 55.5 241.5t149 182t198.5 68.5q134 0 216.5 -88t82.5 -234q0 -69 -18 -137.5t-54 -130t-84.5 -109t-114.5 -75t-139 -27.5q-130 0 -211 85.5t-81 223.5zM276 920q0 -89 37.5 -141t100.5 -52q96 0 164.5 98t68.5 240q0 95 -35.5 148t-99.5 53 q-96 0 -166 -107t-70 -239z" />
<glyph unicode="&#xbb;" horiz-adv-x="1269" d="M72 70l370 413l4 21l-206 360l112 76l312 -453l-5 -26l-493 -469zM502 70l370 413l5 21l-207 360l112 76l312 -453l-4 -26l-494 -469z" />
<glyph unicode="&#xbc;" horiz-adv-x="1515" d="M94 -49l637 758l578 723l84 -54l-611 -714l-604 -770zM238 1278l14 117l250 30l16 -14l-110 -629l-15 -133l-143 -6l115 647zM713 197l397 483l152 8l-76 -430l88 4l-21 -125l-88 -2l-22 -119l-6 -94l-140 -8l39 221l-313 -6zM881 252l4 -12l172 12l47 266l-14 2z" />
<glyph unicode="&#xbd;" horiz-adv-x="1515" d="M94 -49l637 758l578 723l84 -54l-611 -714l-604 -770zM238 1278l14 117l250 30l16 -14l-110 -629l-15 -133l-143 -6l115 647zM725 -51q264 211 369.5 338t105.5 211q0 80 -98 80q-76 0 -191 -68l-34 108q26 24 96.5 53t154.5 29q100 0 160 -42.5t60 -133.5 q0 -96 -92 -222.5t-263 -248.5l4 -6l283 16l-25 -137l-526 -16z" />
<glyph unicode="&#xbe;" horiz-adv-x="1515" d="M94 -49l637 758l578 723l84 -54l-611 -714l-604 -770zM100 670l21 131q96 -49 196 -49q67 0 114.5 36.5t47.5 102.5q0 41 -31 67t-88 25l-127 -4l21 119l123 -4q56 -2 103.5 37.5t47.5 89.5q0 41 -29.5 64.5t-80.5 23.5q-64 0 -158 -43l-29 106q119 55 222 55 q97 0 158 -45t61 -127q0 -77 -51 -136t-127 -77l-2 -8q62 -13 94 -56t32 -99q0 -51 -20 -93.5t-53 -71t-75 -48t-86 -28.5t-87 -9q-117 0 -197 41zM713 197l397 483l152 8l-76 -430l88 4l-21 -125l-88 -2l-22 -119l-6 -94l-140 -8l39 221l-313 -6zM881 252l4 -12l172 12 l47 266l-14 2z" />
<glyph unicode="&#xbf;" horiz-adv-x="921" d="M2 12q0 74 33 135t85 101.5t115.5 74t127 61t115.5 54t85 60t33 73.5q0 62 -70 62q-58 0 -110 -37l-43 111q81 51 194 51q89 0 147 -46.5t58 -129.5q0 -57 -25.5 -104.5t-67 -79.5t-94.5 -62t-109 -52t-109 -49t-94.5 -54t-67 -66t-25.5 -86q0 -60 41.5 -89.5 t104.5 -29.5q127 0 272 90l51 -127q-176 -113 -344 -113q-137 0 -220 71t-83 181zM565 1075q0 51 36 87t87 36t87 -36t36 -87t-36 -87t-87 -36t-87 36t-36 87z" />
<glyph unicode="&#xc0;" horiz-adv-x="1392" d="M-72 6l486 705l465 723h41l159 -748l158 -676l-180 -20l-82 381l-606 -23l-222 -338l-213 -18zM479 516l461 19l-106 512h-15zM627 1769v21h182l217 -254v-16h-125z" />
<glyph unicode="&#xc1;" horiz-adv-x="1392" d="M-72 6l486 705l465 723h41l159 -748l158 -676l-180 -20l-82 381l-606 -23l-222 -338l-213 -18zM479 516l461 19l-106 512h-15zM776 1520v16l217 254h183v-21l-275 -249h-125z" />
<glyph unicode="&#xc2;" horiz-adv-x="1392" d="M-72 6l486 705l465 723h41l159 -748l158 -676l-180 -20l-82 381l-606 -23l-222 -338l-213 -18zM479 516l461 19l-106 512h-15zM641 1520v16l303 254h57l193 -254v-16h-115l-127 131l-196 -131h-115z" />
<glyph unicode="&#xc3;" horiz-adv-x="1392" d="M-72 6l486 705l465 723h41l159 -748l158 -676l-180 -20l-82 381l-606 -23l-222 -338l-213 -18zM479 516l461 19l-106 512h-15zM633 1534q0 114 50 180t122 66q36 0 69.5 -20.5t54.5 -45t46 -45t47 -20.5q34 0 53 37t19 90h106q0 -99 -48 -172.5t-122 -73.5 q-30 0 -57 13.5t-46.5 32t-37 37.5t-36 32.5t-36.5 13.5q-37 0 -59.5 -35.5t-22.5 -89.5h-102z" />
<glyph unicode="&#xc4;" horiz-adv-x="1392" d="M-72 6l486 705l465 723h41l159 -748l158 -676l-180 -20l-82 381l-606 -23l-222 -338l-213 -18zM479 516l461 19l-106 512h-15zM653 1620q0 41 30 70.5t71 29.5t70.5 -29.5t29.5 -70.5t-29.5 -70.5t-70.5 -29.5t-71 29.5t-30 70.5zM973 1620q0 41 29.5 70.5t70.5 29.5 t71 -29.5t30 -70.5t-30 -70.5t-71 -29.5t-70.5 29.5t-29.5 70.5z" />
<glyph unicode="&#xc5;" horiz-adv-x="1392" d="M-72 6l486 705l465 723h41l159 -748l158 -676l-180 -20l-82 381l-606 -23l-222 -338l-213 -18zM479 516l461 19l-106 512h-15zM735 1661q0 79 56.5 135.5t136.5 56.5t136 -56.5t56 -135.5q0 -80 -56.5 -136.5t-135.5 -56.5q-80 0 -136.5 57t-56.5 136zM829 1659 q0 -45 27 -75t70 -30q44 0 71 30t27 75t-27.5 76.5t-70.5 31.5t-70 -31.5t-27 -76.5z" />
<glyph unicode="&#xc6;" horiz-adv-x="1843" d="M-72 6l1131 1376h18l801 21l-39 -168l-592 -14l-82 -422l549 20l-39 -168l-538 -20l-76 -473l622 20l-38 -168l-809 -20l69 379l-489 -17l-279 -342l-203 -18zM555 522l381 15l37 192l59 367h-10z" />
<glyph unicode="&#xc7;" horiz-adv-x="1351" d="M90 604q0 158 63 307.5t169 262t256.5 181t316.5 68.5q139 0 260 -52t193 -118l-107 -149q-164 145 -364 145q-83 0 -166.5 -27.5t-158.5 -83t-133 -131.5t-92 -180t-34 -221q0 -207 114 -335t304 -128q120 0 230 40t194 106l67 -154q-91 -71 -216 -116.5t-265 -49.5 l-51 -82q76 0 123 -35t47 -98q0 -81 -94.5 -138.5t-256.5 -74.5l-8 80q108 9 172 41.5t64 77.5q0 65 -144 65q-35 0 -63 -4l-8 15l104 159q-232 30 -374 206t-142 423z" />
<glyph unicode="&#xc8;" horiz-adv-x="1044" d="M37 -10l137 739l72 442l14 211l809 21l-39 -168l-581 -14l-82 -422l538 20l-39 -168l-528 -20l-76 -473l623 20l-39 -168zM420 1765v21h182l217 -254v-16h-125z" />
<glyph unicode="&#xc9;" horiz-adv-x="1044" d="M37 -10l137 739l72 442l14 211l809 21l-39 -168l-581 -14l-82 -422l538 20l-39 -168l-528 -20l-76 -473l623 20l-39 -168zM569 1516v16l217 254h183v-21l-275 -249h-125z" />
<glyph unicode="&#xca;" horiz-adv-x="1044" d="M37 -10l137 739l72 442l14 211l809 21l-39 -168l-581 -14l-82 -422l538 20l-39 -168l-528 -20l-76 -473l623 20l-39 -168zM434 1516v16l303 254h58l192 -254v-16h-115l-127 131l-196 -131h-115z" />
<glyph unicode="&#xcb;" horiz-adv-x="1044" d="M37 -10l137 739l72 442l14 211l809 21l-39 -168l-581 -14l-82 -422l538 20l-39 -168l-528 -20l-76 -473l623 20l-39 -168zM446 1616q0 41 30 70.5t71 29.5t70.5 -29.5t29.5 -70.5t-29.5 -70.5t-70.5 -29.5t-71 29.5t-30 70.5zM766 1616q0 41 29.5 70.5t70.5 29.5 t71 -29.5t30 -70.5t-30 -70.5t-71 -29.5t-70.5 29.5t-29.5 70.5z" />
<glyph unicode="&#xcc;" horiz-adv-x="552" d="M59 -10l142 735l67 438l15 219l225 21l-131 -682l-78 -488l-14 -223zM129 1765v21h182l217 -254v-16h-125z" />
<glyph unicode="&#xcd;" horiz-adv-x="552" d="M59 -10l142 735l67 438l15 219l225 21l-131 -682l-78 -488l-14 -223zM279 1516v16l217 254h182v-21l-275 -249h-124z" />
<glyph unicode="&#xce;" horiz-adv-x="552" d="M59 -10l142 735l67 438l15 219l225 21l-131 -682l-78 -488l-14 -223zM143 1516v16l303 254h58l192 -254v-16h-114l-127 131l-197 -131h-115z" />
<glyph unicode="&#xcf;" horiz-adv-x="552" d="M59 -10l142 735l67 438l15 219l225 21l-131 -682l-78 -488l-14 -223zM156 1616q0 41 29.5 70.5t70.5 29.5t70.5 -29.5t29.5 -70.5t-29.5 -70.5t-70.5 -29.5t-70.5 29.5t-29.5 70.5zM475 1616q0 41 29.5 70.5t70.5 29.5t71 -29.5t30 -70.5t-30 -70.5t-71 -29.5t-70.5 29.5 t-29.5 70.5z" />
<glyph unicode="&#xd0;" horiz-adv-x="1372" d="M-37 610l19 125l194 6l68 422l14 219l377 15q179 6 327.5 -65t236 -208.5t87.5 -314.5q0 -157 -45.5 -289.5t-121.5 -223.5t-177.5 -156.5t-211 -98t-224.5 -37.5l-465 -14l113 626zM272 168l199 4q148 4 267 55t194 136t115 195t40 235q0 147 -63 249.5t-165.5 148 t-233.5 40.5l-166 -6l-94 -477l288 8l-18 -125l-291 -8z" />
<glyph unicode="&#xd1;" horiz-adv-x="1536" d="M41 -10l133 698l115 725h61l764 -1036h16l95 526l41 273l12 206l223 21l-112 -586l-136 -837h-61l-766 1034h-16l-66 -383l-63 -404l-15 -217zM600 1489q0 114 50 180t122 66q36 0 69.5 -20.5t54.5 -45t46 -45t47 -20.5q34 0 53 37t19 90h106q0 -99 -48 -172.5 t-122 -73.5q-30 0 -57 13.5t-46.5 32.5t-37 37.5t-36 32t-36.5 13.5q-37 0 -59.5 -35.5t-22.5 -89.5h-102z" />
<glyph unicode="&#xd2;" horiz-adv-x="1576" d="M90 590q0 171 66 327t175 266t252 175t294 65q170 0 309 -79.5t219 -222t80 -320.5q0 -174 -60 -328t-164 -265t-250.5 -175t-312.5 -64q-169 0 -307.5 78.5t-219.5 221t-81 321.5zM291 598q0 -85 27 -165.5t77 -145.5t131 -104.5t181 -39.5q103 0 195.5 36t161 98 t119 144.5t76 177.5t25.5 194q0 201 -122.5 328.5t-295.5 127.5q-105 0 -206.5 -45t-184 -126t-133.5 -206.5t-51 -273.5zM629 1765v21h182l217 -254v-16h-125z" />
<glyph unicode="&#xd3;" horiz-adv-x="1576" d="M90 590q0 171 66 327t175 266t252 175t294 65q170 0 309 -79.5t219 -222t80 -320.5q0 -174 -60 -328t-164 -265t-250.5 -175t-312.5 -64q-169 0 -307.5 78.5t-219.5 221t-81 321.5zM291 598q0 -85 27 -165.5t77 -145.5t131 -104.5t181 -39.5q103 0 195.5 36t161 98 t119 144.5t76 177.5t25.5 194q0 201 -122.5 328.5t-295.5 127.5q-105 0 -206.5 -45t-184 -126t-133.5 -206.5t-51 -273.5zM778 1516v16l217 254h183v-21l-275 -249h-125z" />
<glyph unicode="&#xd4;" horiz-adv-x="1576" d="M90 590q0 171 66 327t175 266t252 175t294 65q170 0 309 -79.5t219 -222t80 -320.5q0 -174 -60 -328t-164 -265t-250.5 -175t-312.5 -64q-169 0 -307.5 78.5t-219.5 221t-81 321.5zM291 598q0 -85 27 -165.5t77 -145.5t131 -104.5t181 -39.5q103 0 195.5 36t161 98 t119 144.5t76 177.5t25.5 194q0 201 -122.5 328.5t-295.5 127.5q-105 0 -206.5 -45t-184 -126t-133.5 -206.5t-51 -273.5zM643 1516v16l303 254h58l192 -254v-16h-115l-127 131l-196 -131h-115z" />
<glyph unicode="&#xd5;" horiz-adv-x="1576" d="M90 590q0 171 66 327t175 266t252 175t294 65q170 0 309 -79.5t219 -222t80 -320.5q0 -174 -60 -328t-164 -265t-250.5 -175t-312.5 -64q-169 0 -307.5 78.5t-219.5 221t-81 321.5zM291 598q0 -85 27 -165.5t77 -145.5t131 -104.5t181 -39.5q103 0 195.5 36t161 98 t119 144.5t76 177.5t25.5 194q0 201 -122.5 328.5t-295.5 127.5q-105 0 -206.5 -45t-184 -126t-133.5 -206.5t-51 -273.5zM635 1530q0 114 50 180t122 66q36 0 69.5 -20.5t54.5 -45t46 -45t47 -20.5q34 0 53 37t19 90h106q0 -99 -48 -172.5t-122 -73.5q-30 0 -57 13.5 t-46.5 32t-37 37.5t-36 32.5t-36.5 13.5q-37 0 -59.5 -35.5t-22.5 -89.5h-102z" />
<glyph unicode="&#xd6;" horiz-adv-x="1576" d="M90 590q0 171 66 327t175 266t252 175t294 65q170 0 309 -79.5t219 -222t80 -320.5q0 -174 -60 -328t-164 -265t-250.5 -175t-312.5 -64q-169 0 -307.5 78.5t-219.5 221t-81 321.5zM291 598q0 -85 27 -165.5t77 -145.5t131 -104.5t181 -39.5q103 0 195.5 36t161 98 t119 144.5t76 177.5t25.5 194q0 201 -122.5 328.5t-295.5 127.5q-105 0 -206.5 -45t-184 -126t-133.5 -206.5t-51 -273.5zM655 1616q0 41 30 70.5t71 29.5t70.5 -29.5t29.5 -70.5t-29.5 -70.5t-70.5 -29.5t-71 29.5t-30 70.5zM975 1616q0 41 29.5 70.5t70.5 29.5t71 -29.5 t30 -70.5t-30 -70.5t-71 -29.5t-70.5 29.5t-29.5 70.5z" />
<glyph unicode="&#xd7;" horiz-adv-x="1085" d="M109 270l335 336l-335 336l98 98l336 -335l336 335l98 -98l-336 -336l336 -336l-98 -98l-336 336l-336 -336z" />
<glyph unicode="&#xd8;" horiz-adv-x="1576" d="M78 -18l168 182q-156 174 -156 426q0 171 66 327t175 266t252 175t294 65q229 0 393 -139l168 182l75 -67l-172 -187q144 -174 144 -411q0 -174 -60 -328t-164 -265t-250.5 -175t-312.5 -64q-220 0 -379 125l-165 -180zM291 598q0 -165 86 -289l764 834 q-118 106 -275 106q-105 0 -206.5 -45t-184 -126t-133.5 -206.5t-51 -273.5zM446 233q108 -90 261 -90q103 0 195.5 36t161 98t119 144.5t76 177.5t25.5 194q0 155 -78 270z" />
<glyph unicode="&#xd9;" horiz-adv-x="1413" d="M123.5 376q1.5 54 9.5 109l125 699l14 198l224 21l-174 -883q-38 -196 42 -288.5t254 -92.5q170 0 285 91.5t146 289.5l98 643l14 219l223 21l-157 -907q-15 -88 -45 -163t-82 -143.5t-121.5 -116.5t-169 -76t-219.5 -28q-81 0 -149.5 15t-118.5 42.5t-89 65t-61.5 83 t-36 96.5t-12 105zM569 1745v20h183l217 -254v-16h-125z" />
<glyph unicode="&#xda;" horiz-adv-x="1413" d="M123.5 376q1.5 54 9.5 109l125 699l14 198l224 21l-174 -883q-38 -196 42 -288.5t254 -92.5q170 0 285 91.5t146 289.5l98 643l14 219l223 21l-157 -907q-15 -88 -45 -163t-82 -143.5t-121.5 -116.5t-169 -76t-219.5 -28q-81 0 -149.5 15t-118.5 42.5t-89 65t-61.5 83 t-36 96.5t-12 105zM719 1495v16l217 254h182v-20l-274 -250h-125z" />
<glyph unicode="&#xdb;" horiz-adv-x="1413" d="M123.5 376q1.5 54 9.5 109l125 699l14 198l224 21l-174 -883q-38 -196 42 -288.5t254 -92.5q170 0 285 91.5t146 289.5l98 643l14 219l223 21l-157 -907q-15 -88 -45 -163t-82 -143.5t-121.5 -116.5t-169 -76t-219.5 -28q-81 0 -149.5 15t-118.5 42.5t-89 65t-61.5 83 t-36 96.5t-12 105zM584 1495v16l303 254h57l193 -254v-16h-115l-127 131l-197 -131h-114z" />
<glyph unicode="&#xdc;" horiz-adv-x="1413" d="M123.5 376q1.5 54 9.5 109l125 699l14 198l224 21l-174 -883q-38 -196 42 -288.5t254 -92.5q170 0 285 91.5t146 289.5l98 643l14 219l223 21l-157 -907q-15 -88 -45 -163t-82 -143.5t-121.5 -116.5t-169 -76t-219.5 -28q-81 0 -149.5 15t-118.5 42.5t-89 65t-61.5 83 t-36 96.5t-12 105zM596 1595q0 41 29.5 71t70.5 30t71 -30t30 -71t-30 -70.5t-71 -29.5t-70.5 29.5t-29.5 70.5zM915 1595q0 41 30 71t71 30t70.5 -30t29.5 -71t-29.5 -70.5t-70.5 -29.5t-71 29.5t-30 70.5z" />
<glyph unicode="&#xdd;" horiz-adv-x="1208" d="M141 1382l189 21l276 -596h17l456 575l211 19l8 -21l-608 -759l-76 -428l-12 -183l-213 -20l109 631zM608 1495v16l217 254h183v-20l-275 -250h-125z" />
<glyph unicode="&#xde;" horiz-adv-x="1064" d="M41 -10l217 1237l6 155l213 21l-49 -277l154 7q187 7 298 -91.5t111 -265.5q0 -140 -79.5 -248t-208 -165.5t-285.5 -63.5l-135 -6l-23 -127l-6 -156zM311 455l144 6q64 3 121 22t105.5 54t76.5 94.5t28 136.5q0 96 -61.5 151.5t-169.5 51.5l-156 -6z" />
<glyph unicode="&#xdf;" horiz-adv-x="1126" d="M31 -213l174 983h-160l14 102l170 46l15 88q22 133 89.5 227.5t160 139t202.5 44.5q145 0 238.5 -79t113 -210.5t-35.5 -302.5q-144 4 -230 -43t-86 -110q0 -41 29 -79.5t70 -72t82.5 -70.5t70.5 -89.5t29 -114.5q0 -88 -49 -152t-121 -93.5t-154 -29.5q-81 0 -151 26.5 t-111 65.5l80 142q93 -78 186 -78q61 0 101.5 30.5t40.5 84.5q0 31 -15.5 59.5t-40.5 51.5t-55 46t-60.5 48t-55.5 53t-40.5 66t-15.5 81q0 131 102 215.5t252 93.5q29 136 -19 223t-155 87q-222 0 -276 -262l-168 -975l-16 -222z" />
<glyph unicode="&#xe0;" horiz-adv-x="921" d="M18 215q0 65 27 145q94 103 256.5 153t306.5 28q17 131 -21 193.5t-136 62.5q-57 0 -131.5 -33.5t-118.5 -73.5h-6l-60 121q161 135 354 135q149 0 231.5 -108.5t55.5 -280.5l-55 -354q-6 -39 2.5 -87t30.5 -77l-6 -12l-156 -45q-34 74 -31 143h-8q-54 -58 -134 -100.5 t-165 -55.5q-100 9 -168 78t-68 168zM184 256q-3 -50 23.5 -89t83.5 -50q77 10 151.5 50.5t122.5 96.5l29 150q-116 16 -224 -10t-177 -103q-9 -31 -9 -45zM219 1370v21h176l228 -336v-17h-119z" />
<glyph unicode="&#xe1;" horiz-adv-x="921" d="M18 215q0 65 27 145q94 103 256.5 153t306.5 28q17 131 -21 193.5t-136 62.5q-57 0 -131.5 -33.5t-118.5 -73.5h-6l-60 121q161 135 354 135q149 0 231.5 -108.5t55.5 -280.5l-55 -354q-6 -39 2.5 -87t30.5 -77l-6 -12l-156 -45q-34 74 -31 143h-8q-54 -58 -134 -100.5 t-165 -55.5q-100 9 -168 78t-68 168zM184 256q-3 -50 23.5 -89t83.5 -50q77 10 151.5 50.5t122.5 96.5l29 150q-116 16 -224 -10t-177 -103q-9 -31 -9 -45zM371 1038v17l237 336h178v-21l-290 -332h-125z" />
<glyph unicode="&#xe2;" horiz-adv-x="921" d="M18 215q0 65 27 145q94 103 256.5 153t306.5 28q17 131 -21 193.5t-136 62.5q-57 0 -131.5 -33.5t-118.5 -73.5h-6l-60 121q161 135 354 135q149 0 231.5 -108.5t55.5 -280.5l-55 -354q-6 -39 2.5 -87t30.5 -77l-6 -12l-156 -45q-34 74 -31 143h-8q-54 -58 -134 -100.5 t-165 -55.5q-100 9 -168 78t-68 168zM184 256q-3 -50 23.5 -89t83.5 -50q77 10 151.5 50.5t122.5 96.5l29 150q-116 16 -224 -10t-177 -103q-9 -31 -9 -45zM233 1038v17l299 336h58l196 -336v-17h-112l-133 193l-191 -193h-117z" />
<glyph unicode="&#xe3;" horiz-adv-x="921" d="M18 215q0 65 27 145q94 103 256.5 153t306.5 28q17 131 -21 193.5t-136 62.5q-57 0 -131.5 -33.5t-118.5 -73.5h-6l-60 121q161 135 354 135q149 0 231.5 -108.5t55.5 -280.5l-55 -354q-6 -39 2.5 -87t30.5 -77l-6 -12l-156 -45q-34 74 -31 143h-8q-54 -58 -134 -100.5 t-165 -55.5q-100 9 -168 78t-68 168zM184 256q-3 -50 23.5 -89t83.5 -50q77 10 151.5 50.5t122.5 96.5l29 150q-116 16 -224 -10t-177 -103q-9 -31 -9 -45zM229 1073q0 114 50 180t122 66q36 0 69.5 -20.5t54.5 -45t46 -45t47 -20.5q34 0 53 37t19 90h107q0 -99 -48 -172.5 t-122 -73.5q-30 0 -57 13.5t-46.5 32.5t-37 37.5t-36 32t-36.5 13.5q-37 0 -59.5 -35.5t-22.5 -89.5h-103z" />
<glyph unicode="&#xe4;" horiz-adv-x="921" d="M18 215q0 65 27 145q94 103 256.5 153t306.5 28q17 131 -21 193.5t-136 62.5q-57 0 -131.5 -33.5t-118.5 -73.5h-6l-60 121q161 135 354 135q149 0 231.5 -108.5t55.5 -280.5l-55 -354q-6 -39 2.5 -87t30.5 -77l-6 -12l-156 -45q-34 74 -31 143h-8q-54 -58 -134 -100.5 t-165 -55.5q-100 9 -168 78t-68 168zM184 256q-3 -50 23.5 -89t83.5 -50q77 10 151.5 50.5t122.5 96.5l29 150q-116 16 -224 -10t-177 -103q-9 -31 -9 -45zM250 1159q0 41 29.5 71t70.5 30t71 -30t30 -71t-30 -70.5t-71 -29.5t-70.5 29.5t-29.5 70.5zM569 1159q0 41 30 71 t71 30t70.5 -30t29.5 -71t-29.5 -70.5t-70.5 -29.5t-71 29.5t-30 70.5z" />
<glyph unicode="&#xe5;" horiz-adv-x="921" d="M18 215q0 65 27 145q94 103 256.5 153t306.5 28q17 131 -21 193.5t-136 62.5q-57 0 -131.5 -33.5t-118.5 -73.5h-6l-60 121q161 135 354 135q149 0 231.5 -108.5t55.5 -280.5l-55 -354q-6 -39 2.5 -87t30.5 -77l-6 -12l-156 -45q-34 74 -31 143h-8q-54 -58 -134 -100.5 t-165 -55.5q-100 9 -168 78t-68 168zM184 256q-3 -50 23.5 -89t83.5 -50q77 10 151.5 50.5t122.5 96.5l29 150q-116 16 -224 -10t-177 -103q-9 -31 -9 -45zM332 1200q0 80 56.5 136.5t135.5 56.5q80 0 136.5 -56.5t56.5 -136.5q0 -79 -56.5 -135.5t-136.5 -56.5t-136 56 t-56 136zM426 1198q0 -45 26.5 -74.5t69.5 -29.5q44 0 71.5 29.5t27.5 74.5t-28 77t-71 32t-69.5 -31.5t-26.5 -77.5z" />
<glyph unicode="&#xe6;" horiz-adv-x="1433" d="M18 215q0 65 27 145q91 104 253 154t304 27q15 131 -22 193.5t-129 62.5q-57 0 -126.5 -31t-123.5 -76h-6l-60 121q72 61 165.5 98t188.5 37q77 0 142 -38t100 -105q140 143 305 143q133 0 221.5 -86t88.5 -205q0 -62 -19 -112q-97 -85 -269.5 -126.5t-324.5 -23.5 q-15 -128 33.5 -198t138.5 -70q69 0 143.5 30t127.5 78h6l49 -137q-65 -57 -159.5 -91t-192.5 -34q-92 0 -164 50t-107 139q-66 -84 -161 -132t-193 -59q-97 12 -166.5 74.5t-69.5 171.5zM184 229q0 -40 33.5 -73.5t73.5 -38.5q253 44 297 297q-113 16 -220 -10t-175 -103 q-9 -41 -9 -72zM758 526q269 -24 418 78q11 78 -30 134.5t-122 56.5q-92 0 -167 -83t-99 -186z" />
<glyph unicode="&#xe7;" horiz-adv-x="819" d="M20 315q0 137 46.5 257.5t120.5 201t165.5 126.5t182.5 46q172 0 270 -129l-107 -121q-75 95 -174 95q-121 0 -217 -128t-96 -319q0 -109 50 -162t134 -53q98 0 213 84l66 -123q-49 -52 -125.5 -82t-159.5 -35l-53 -86q76 0 123 -35t47 -98q0 -82 -94 -139t-256 -74 l-9 80q108 9 172 41.5t64 77.5q0 65 -143 65q-36 0 -64 -4l-8 15l106 164q-120 22 -187 111t-67 224z" />
<glyph unicode="&#xe8;" horiz-adv-x="921" d="M20 311q0 165 69 312t186 235t249 88q133 0 221.5 -86t88.5 -205q0 -66 -19 -116q-98 -85 -273.5 -126.5t-330.5 -23.5q-17 -127 35 -195.5t147 -68.5q69 0 143.5 30t127.5 78h6l49 -137q-65 -57 -159.5 -91t-192.5 -34q-151 0 -249 92.5t-98 247.5zM236 522 q276 -24 428 78q11 78 -30 136.5t-122 58.5q-95 0 -172.5 -85t-103.5 -188zM256 1370v21h176l227 -336v-17h-118z" />
<glyph unicode="&#xe9;" horiz-adv-x="921" d="M20 311q0 165 69 312t186 235t249 88q133 0 221.5 -86t88.5 -205q0 -66 -19 -116q-98 -85 -273.5 -126.5t-330.5 -23.5q-17 -127 35 -195.5t147 -68.5q69 0 143.5 30t127.5 78h6l49 -137q-65 -57 -159.5 -91t-192.5 -34q-151 0 -249 92.5t-98 247.5zM236 522 q276 -24 428 78q11 78 -30 136.5t-122 58.5q-95 0 -172.5 -85t-103.5 -188zM408 1038v17l237 336h178v-21l-291 -332h-124z" />
<glyph unicode="&#xea;" horiz-adv-x="921" d="M20 311q0 165 69 312t186 235t249 88q133 0 221.5 -86t88.5 -205q0 -66 -19 -116q-98 -85 -273.5 -126.5t-330.5 -23.5q-17 -127 35 -195.5t147 -68.5q69 0 143.5 30t127.5 78h6l49 -137q-65 -57 -159.5 -91t-192.5 -34q-151 0 -249 92.5t-98 247.5zM236 522 q276 -24 428 78q11 78 -30 136.5t-122 58.5q-95 0 -172.5 -85t-103.5 -188zM270 1038v17l299 336h58l196 -336v-17h-112l-133 193l-191 -193h-117z" />
<glyph unicode="&#xeb;" horiz-adv-x="921" d="M20 311q0 165 69 312t186 235t249 88q133 0 221.5 -86t88.5 -205q0 -66 -19 -116q-98 -85 -273.5 -126.5t-330.5 -23.5q-17 -127 35 -195.5t147 -68.5q69 0 143.5 30t127.5 78h6l49 -137q-65 -57 -159.5 -91t-192.5 -34q-151 0 -249 92.5t-98 247.5zM236 522 q276 -24 428 78q11 78 -30 136.5t-122 58.5q-95 0 -172.5 -85t-103.5 -188zM287 1159q0 41 29.5 71t70.5 30t70.5 -30t29.5 -71t-29.5 -70.5t-70.5 -29.5t-70.5 29.5t-29.5 70.5zM606 1159q0 41 30 71t71 30t70.5 -30t29.5 -71t-29.5 -70.5t-70.5 -29.5t-71 29.5t-30 70.5z " />
<glyph unicode="&#xec;" horiz-adv-x="471" d="M4 1352v20h176l228 -336v-16h-119zM31 -10l127 731l10 182l209 25l-125 -713l-14 -205z" />
<glyph unicode="&#xed;" horiz-adv-x="471" d="M31 -10l127 731l10 182l209 25l-125 -713l-14 -205zM156 1020v16l237 336h178v-20l-290 -332h-125z" />
<glyph unicode="&#xee;" horiz-adv-x="471" d="M18 1020v16l299 336h58l196 -336v-16h-112l-133 192l-191 -192h-117zM31 -10l127 731l10 182l209 25l-125 -713l-14 -205z" />
<glyph unicode="&#xef;" horiz-adv-x="471" d="M31 -10l127 731l10 182l209 25l-125 -713l-14 -205zM35 1141q0 41 29.5 70.5t70.5 29.5t71 -29.5t30 -70.5t-30 -71t-71 -30t-70.5 30t-29.5 71zM354 1141q0 41 30 70.5t71 29.5t70.5 -29.5t29.5 -70.5t-29.5 -71t-70.5 -30t-71 30t-30 71z" />
<glyph unicode="&#xf0;" d="M14 358q0 121 44 231.5t115 187.5t163.5 123t187.5 46q125 0 211 -92l8 4q-32 145 -141 264l-190 -114l-47 82l165 100q-87 69 -188 106l35 127q167 -65 282 -155l215 131l48 -82l-191 -117q189 -199 189 -506q0 -197 -66.5 -361.5t-191 -263t-281.5 -98.5 q-163 0 -265 107t-102 280zM205 358q0 -110 50.5 -172.5t141.5 -62.5q81 0 154.5 60.5t116 160t39.5 207.5q0 112 -52.5 178t-146.5 66q-119 0 -211 -129t-92 -308z" />
<glyph unicode="&#xf1;" horiz-adv-x="983" d="M0 -10l119 680l20 237l172 21v-115h11q168 133 333 133q121 0 177 -76.5t28 -230.5l-82 -461l-10 -168l-205 -20l103 602q19 108 -12 149t-99 41t-137.5 -38.5t-116.5 -98.5l-84 -452l-12 -183zM289 1073q0 114 50 180t122 66q36 0 69.5 -20.5t54.5 -45t46 -45t47 -20.5 q34 0 53 37t19 90h106q0 -99 -48 -172.5t-122 -73.5q-30 0 -57 13.5t-46.5 32.5t-37 37.5t-36 32t-36.5 13.5q-37 0 -59.5 -35.5t-22.5 -89.5h-102z" />
<glyph unicode="&#xf2;" d="M20 348q0 155 69.5 293.5t186.5 221.5t248 83q169 0 273 -107t104 -284q0 -84 -22.5 -168.5t-67 -159t-105 -132t-142.5 -91t-173 -33.5q-166 0 -268.5 104t-102.5 273zM211 365q0 -116 51 -179t141 -63q126 0 218 123.5t92 296.5q0 117 -50.5 184.5t-140.5 67.5 q-84 0 -156.5 -63t-113.5 -162t-41 -205zM289 1370v21h176l227 -336v-17h-119z" />
<glyph unicode="&#xf3;" d="M20 348q0 155 69.5 293.5t186.5 221.5t248 83q169 0 273 -107t104 -284q0 -84 -22.5 -168.5t-67 -159t-105 -132t-142.5 -91t-173 -33.5q-166 0 -268.5 104t-102.5 273zM211 365q0 -116 51 -179t141 -63q126 0 218 123.5t92 296.5q0 117 -50.5 184.5t-140.5 67.5 q-84 0 -156.5 -63t-113.5 -162t-41 -205zM440 1038v17l238 336h178v-21l-291 -332h-125z" />
<glyph unicode="&#xf4;" d="M20 348q0 155 69.5 293.5t186.5 221.5t248 83q169 0 273 -107t104 -284q0 -84 -22.5 -168.5t-67 -159t-105 -132t-142.5 -91t-173 -33.5q-166 0 -268.5 104t-102.5 273zM211 365q0 -116 51 -179t141 -63q126 0 218 123.5t92 296.5q0 117 -50.5 184.5t-140.5 67.5 q-84 0 -156.5 -63t-113.5 -162t-41 -205zM303 1038v17l299 336h57l197 -336v-17h-113l-133 193l-190 -193h-117z" />
<glyph unicode="&#xf5;" d="M20 348q0 155 69.5 293.5t186.5 221.5t248 83q169 0 273 -107t104 -284q0 -84 -22.5 -168.5t-67 -159t-105 -132t-142.5 -91t-173 -33.5q-166 0 -268.5 104t-102.5 273zM211 365q0 -116 51 -179t141 -63q126 0 218 123.5t92 296.5q0 117 -50.5 184.5t-140.5 67.5 q-84 0 -156.5 -63t-113.5 -162t-41 -205zM299 1073q0 114 50 180t122 66q36 0 69.5 -20.5t54.5 -45t46 -45t47 -20.5q34 0 53 37t19 90h106q0 -99 -48 -172.5t-122 -73.5q-30 0 -57 13.5t-46.5 32.5t-37 37.5t-36 32t-36.5 13.5q-37 0 -59.5 -35.5t-22.5 -89.5h-102z" />
<glyph unicode="&#xf6;" d="M20 348q0 155 69.5 293.5t186.5 221.5t248 83q169 0 273 -107t104 -284q0 -84 -22.5 -168.5t-67 -159t-105 -132t-142.5 -91t-173 -33.5q-166 0 -268.5 104t-102.5 273zM211 365q0 -116 51 -179t141 -63q126 0 218 123.5t92 296.5q0 117 -50.5 184.5t-140.5 67.5 q-84 0 -156.5 -63t-113.5 -162t-41 -205zM319 1159q0 41 30 71t71 30t70.5 -30t29.5 -71t-29.5 -70.5t-70.5 -29.5t-71 29.5t-30 70.5zM639 1159q0 41 29.5 71t70.5 30t71 -30t30 -71t-30 -70.5t-71 -29.5t-70.5 29.5t-29.5 70.5z" />
<glyph unicode="&#xf7;" horiz-adv-x="1085" d="M68 547v139h950v-139h-950zM420 281q0 51 36 86.5t87 35.5t87 -35.5t36 -86.5t-36 -87t-87 -36t-87 36t-36 87zM420 952q0 51 36 87t87 36t87 -36t36 -87t-36 -87t-87 -36t-87 36t-36 87z" />
<glyph unicode="&#xf8;" d="M12 -12l92 108q-84 100 -84 252q0 155 69.5 293.5t186.5 221.5t248 83q140 0 240 -78l92 109l66 -53l-99 -115q78 -105 78 -254q0 -84 -22.5 -168.5t-67 -159t-105 -132t-142.5 -91t-173 -33.5q-131 0 -227 68l-90 -107zM211 346q0 -58 18 -104l422 495q-49 58 -129 58 q-84 0 -159.5 -67.5t-117 -172t-34.5 -209.5zM276 170q47 -47 127 -47q126 0 218 123.5t92 296.5q0 60 -17 116z" />
<glyph unicode="&#xf9;" horiz-adv-x="983" d="M50 156.5q-9 66.5 5 162.5l72 408l12 180l205 21l-106 -580q-21 -114 10.5 -162.5t111.5 -48.5q69 0 143 50t111 122l68 379l18 219l205 21l-121 -703l-18 -215l-170 -20v127h-6q-150 -146 -316 -146q-58 0 -103 18.5t-78.5 59.5t-42.5 107.5zM262 1370v21h176l228 -336 v-17h-119z" />
<glyph unicode="&#xfa;" horiz-adv-x="983" d="M50 156.5q-9 66.5 5 162.5l72 408l12 180l205 21l-106 -580q-21 -114 10.5 -162.5t111.5 -48.5q69 0 143 50t111 122l68 379l18 219l205 21l-121 -703l-18 -215l-170 -20v127h-6q-150 -146 -316 -146q-58 0 -103 18.5t-78.5 59.5t-42.5 107.5zM414 1038v17l237 336h178 v-21l-290 -332h-125z" />
<glyph unicode="&#xfb;" horiz-adv-x="983" d="M50 156.5q-9 66.5 5 162.5l72 408l12 180l205 21l-106 -580q-21 -114 10.5 -162.5t111.5 -48.5q69 0 143 50t111 122l68 379l18 219l205 21l-121 -703l-18 -215l-170 -20v127h-6q-150 -146 -316 -146q-58 0 -103 18.5t-78.5 59.5t-42.5 107.5zM276 1038v17l299 336h58 l196 -336v-17h-112l-133 193l-191 -193h-117z" />
<glyph unicode="&#xfc;" horiz-adv-x="983" d="M50 156.5q-9 66.5 5 162.5l72 408l12 180l205 21l-106 -580q-21 -114 10.5 -162.5t111.5 -48.5q69 0 143 50t111 122l68 379l18 219l205 21l-121 -703l-18 -215l-170 -20v127h-6q-150 -146 -316 -146q-58 0 -103 18.5t-78.5 59.5t-42.5 107.5zM293 1159q0 41 29.5 71 t70.5 30t71 -30t30 -71t-30 -70.5t-71 -29.5t-70.5 29.5t-29.5 70.5zM612 1159q0 41 30 71t71 30t70.5 -30t29.5 -71t-29.5 -70.5t-70.5 -29.5t-71 29.5t-30 70.5z" />
<glyph unicode="&#xfd;" horiz-adv-x="901" d="M-63 -365q69 46 150.5 154t156.5 268l-191 850l176 21l140 -654h8l350 633l186 19l9 -17l-498 -864l-121 -227l-113 -213l-253 -25v55zM367 1038v17l237 336h178v-21l-290 -332h-125z" />
<glyph unicode="&#xfe;" d="M-78 -418l125 645l176 1012l6 154l207 20l-133 -649h10q71 88 139.5 130t163.5 54q50 -8 97.5 -32.5t91 -68t70 -115t26.5 -161.5q0 -118 -33.5 -220t-86.5 -170t-118.5 -117t-128.5 -71t-118 -22q-61 0 -116.5 20t-90.5 62h-10l-47 -270l-11 -176zM223 219 q23 -50 64 -71t106 -21q53 0 106 23.5t102.5 72t80.5 137t31 203.5q0 105 -40 156t-93 65q-68 0 -155.5 -56t-137.5 -130z" />
<glyph unicode="&#xff;" horiz-adv-x="901" d="M-63 -365q69 46 150.5 154t156.5 268l-191 850l176 21l140 -654h8l350 633l186 19l9 -17l-498 -864l-121 -227l-113 -213l-253 -25v55zM246 1159q0 41 29.5 71t70.5 30t70.5 -30t29.5 -71t-29.5 -70.5t-70.5 -29.5t-70.5 29.5t-29.5 70.5zM565 1159q0 41 30 71t71 30 t70.5 -30t29.5 -71t-29.5 -70.5t-70.5 -29.5t-71 29.5t-30 70.5z" />
<glyph unicode="&#x152;" horiz-adv-x="1884" d="M90 590q0 171 66 327t175 266t252 175t294 65q121 0 227 -41l815 21l-39 -168l-592 -14l-82 -422l549 20l-39 -168l-538 -20l-76 -473l622 20l-38 -168l-805 -20q-100 -21 -183 -21q-169 0 -307.5 78.5t-219.5 221t-81 321.5zM291 598q0 -85 27 -165.5t77 -145.5 t131 -104.5t181 -39.5q109 0 204 39l103 547l71 442v13q-95 65 -219 65q-105 0 -206.5 -45t-184 -126t-133.5 -206.5t-51 -273.5z" />
<glyph unicode="&#x153;" horiz-adv-x="1576" d="M20 348q0 155 69.5 293.5t186.5 221.5t248 83q105 0 188.5 -45t125.5 -129q71 82 159.5 128t182.5 46q133 0 221 -86t88 -205q0 -62 -19 -112q-98 -85 -273.5 -126.5t-330.5 -23.5q-17 -127 35.5 -197.5t147.5 -70.5q69 0 143 30t127 78h6l49 -137q-65 -57 -159.5 -91 t-192.5 -34q-93 0 -170 39.5t-123 110.5q-137 -150 -338 -150q-166 0 -268.5 104t-102.5 273zM211 346q3 -104 53.5 -163.5t138.5 -59.5q126 0 218 123.5t92 296.5q0 117 -50.5 184.5t-140.5 67.5q-84 0 -159.5 -67.5t-117 -172t-34.5 -209.5zM891 526q276 -24 428 78 q11 78 -30 134.5t-122 56.5q-95 0 -173 -83t-103 -186z" />
<glyph unicode="&#x178;" horiz-adv-x="1208" d="M141 1382l189 21l276 -596h17l456 575l211 19l8 -21l-608 -759l-76 -428l-12 -183l-213 -20l109 631zM485 1595q0 41 30 71t71 30t70.5 -30t29.5 -71t-29.5 -70.5t-70.5 -29.5t-71 29.5t-30 70.5zM805 1595q0 41 29.5 71t70.5 30t71 -30t30 -71t-30 -70.5t-71 -29.5 t-70.5 29.5t-29.5 70.5z" />
<glyph unicode="&#x2c6;" horiz-adv-x="1024" d="M246 918v16l299 336h57l197 -336v-16h-113l-133 192l-191 -192h-116z" />
<glyph unicode="&#x2dc;" horiz-adv-x="1024" d="M242 952q0 114 50 180t122 66q36 0 69.5 -20.5t54.5 -45t46 -45t47 -20.5q34 0 52.5 37t18.5 90h107q0 -99 -48 -172.5t-122 -73.5q-30 0 -57 13.5t-46.5 32t-37 37.5t-36 32.5t-36.5 13.5q-37 0 -59.5 -35.5t-22.5 -89.5h-102z" />
<glyph unicode="&#x2000;" horiz-adv-x="926" />
<glyph unicode="&#x2001;" horiz-adv-x="1853" />
<glyph unicode="&#x2002;" horiz-adv-x="926" />
<glyph unicode="&#x2003;" horiz-adv-x="1853" />
<glyph unicode="&#x2004;" horiz-adv-x="617" />
<glyph unicode="&#x2005;" horiz-adv-x="463" />
<glyph unicode="&#x2006;" horiz-adv-x="308" />
<glyph unicode="&#x2007;" horiz-adv-x="308" />
<glyph unicode="&#x2008;" horiz-adv-x="231" />
<glyph unicode="&#x2009;" horiz-adv-x="370" />
<glyph unicode="&#x200a;" horiz-adv-x="102" />
<glyph unicode="&#x2010;" horiz-adv-x="696" d="M39 395l31 172l532 21l-31 -172z" />
<glyph unicode="&#x2011;" horiz-adv-x="696" d="M39 395l31 172l532 21l-31 -172z" />
<glyph unicode="&#x2012;" horiz-adv-x="696" d="M39 395l31 172l532 21l-31 -172z" />
<glyph unicode="&#x2013;" horiz-adv-x="983" d="M39 391l31 172l819 29l-31 -172z" />
<glyph unicode="&#x2014;" horiz-adv-x="2048" d="M164 418v149h1671v-149h-1671z" />
<glyph unicode="&#x2018;" horiz-adv-x="573" d="M168 889v10l156 275l155 219h142v-11l-156 -286l-80 -207h-217z" />
<glyph unicode="&#x2019;" horiz-adv-x="573" d="M102 889v10l156 287l80 207h217v-11l-156 -274l-155 -219h-142z" />
<glyph unicode="&#x201a;" horiz-adv-x="573" d="M-47 -258l156 287l79 207h218v-11l-156 -274l-156 -219h-141v10z" />
<glyph unicode="&#x201c;" horiz-adv-x="962" d="M168 889v10l156 275l155 219h142v-11l-156 -286l-80 -207h-217zM557 889v10l156 275l155 219h142v-11l-156 -286l-80 -207h-217z" />
<glyph unicode="&#x201d;" horiz-adv-x="962" d="M102 889v10l156 287l80 207h217v-11l-156 -274l-155 -219h-142zM492 889v10l155 287l80 207h217v-11l-156 -274l-155 -219h-141z" />
<glyph unicode="&#x201e;" horiz-adv-x="962" d="M-47 -258l156 287l79 207h218v-11l-156 -274l-156 -219h-141v10zM342 -258l156 287l80 207h217v-11l-156 -274l-156 -219h-141v10z" />
<glyph unicode="&#x2022;" horiz-adv-x="983" d="M213 541q0 115 81.5 196.5t197.5 81.5t197 -81.5t81 -196.5q0 -116 -81.5 -197.5t-196.5 -81.5q-116 0 -197.5 82t-81.5 197z" />
<glyph unicode="&#x2026;" horiz-adv-x="1863" d="M72 109q0 51 36 86.5t87 35.5t86.5 -35.5t35.5 -86.5t-35.5 -87t-86.5 -36t-87 36t-36 87zM727 109q0 51 36 86.5t87 35.5t87 -35.5t36 -86.5t-36 -87t-87 -36t-87 36t-36 87zM1382 109q0 51 36 86.5t87 35.5t87 -35.5t36 -86.5t-36 -87t-87 -36t-87 36t-36 87z" />
<glyph unicode="&#x202f;" horiz-adv-x="370" />
<glyph unicode="&#x2039;" horiz-adv-x="839" d="M115 444l4 27l493 469l95 -78l-371 -413l-4 -21l207 -360l-113 -76z" />
<glyph unicode="&#x203a;" horiz-adv-x="839" d="M72 70l370 413l4 21l-206 360l112 76l312 -453l-5 -26l-493 -469z" />
<glyph unicode="&#x205f;" horiz-adv-x="463" />
<glyph unicode="&#x20ac;" horiz-adv-x="1249" d="M55 526l49 113h86q6 57 17 100h-115l49 113h97q59 171 176 302.5t261 200t292 68.5q168 0 313 -88l-84 -159q-121 73 -254 73q-153 0 -293 -108t-209 -289h619l-49 -113h-602q-11 -43 -17 -100h578l-49 -113h-531q3 -174 91.5 -278.5t240.5 -104.5q147 0 303 97l70 -146 q-70 -57 -181 -91t-217 -34q-150 0 -267 76t-179 202t-64 279h-131z" />
<glyph unicode="&#x2122;" horiz-adv-x="1413" d="M152 1300v93h479v-93h-191v-440h-98v440h-190zM645 860l88 537h45l158 -348h8l154 348h45l88 -537h-96l-50 297h-10l-133 -305h-10l-133 305h-8l-52 -297h-94z" />
<glyph unicode="&#xe000;" horiz-adv-x="931" d="M0 0v932h932v-932h-932z" />
</font>
</defs>
</svg>
