<?xml version="1.0" standalone="no"?>
<!DOCTYPE svg PUBLIC "-//W3C//DTD SVG 1.1//EN" "http://www.w3.org/Graphics/SVG/1.1/DTD/svg11.dtd" >
<svg xmlns="http://www.w3.org/2000/svg">
<metadata></metadata>
<defs>
<font id="concourse_t2italic" horiz-adv-x="1003" >
<font-face units-per-em="2048" ascent="1520" descent="-528" />
<missing-glyph horiz-adv-x="450" />
<glyph unicode="&#xfb01;" horiz-adv-x="1126" d="M90 834l27 71l207 10l20 101q32 154 116 249t193 132h88v-51q-116 -11 -204.5 -107t-116.5 -246l-14 -78l235 13l-23 -74l-225 -10l-160 -912l-12 -163l-98 -21l188 1096zM737 -10l133 774l11 149l100 11l-131 -742l-14 -172zM932 1315q0 32 19.5 55t47.5 23t48 -23 t20 -55t-20 -55t-48 -23t-47.5 23t-19.5 55z" />
<glyph unicode="&#xfb02;" horiz-adv-x="1126" d="M90 834l27 71l207 10l20 101q32 154 116 249t193 132h88v-51q-116 -11 -204.5 -107t-116.5 -246l-14 -78l235 13l-23 -74l-225 -10l-160 -912l-12 -163l-98 -21l188 1096zM737 -10l127 721l84 520l17 162l110 24l-131 -696l-88 -533l-14 -178z" />
<glyph horiz-adv-x="2048" />
<glyph horiz-adv-x="2048" />
<glyph unicode="&#xd;" horiz-adv-x="2048" />
<glyph unicode=" "  horiz-adv-x="450" />
<glyph unicode="&#x09;" horiz-adv-x="450" />
<glyph unicode="&#xa0;" horiz-adv-x="450" />
<glyph unicode="!" horiz-adv-x="634" d="M145 76q0 37 23 63.5t57 26.5q32 0 56 -26.5t24 -63.5q0 -38 -23.5 -64t-56.5 -26q-34 0 -57 26t-23 64zM244 399l86 510l73 473l115 19l6 -8l-112 -482l-109 -501z" />
<glyph unicode="&#x22;" horiz-adv-x="819" d="M238 831l104 562h119l-180 -562h-43zM545 831l104 562h119l-180 -562h-43z" />
<glyph unicode="#" horiz-adv-x="1044" d="M20 537l13 75l262 -47l92 393l-237 43l12 76l244 -43l104 447l76 -19l-105 -442l232 -41l116 483l76 -18l-117 -477l236 -41l-12 -76l-242 43l-96 -393l221 -39l-12 -76l-228 39l-133 -549l-76 19l134 544l-226 39l-135 -581l-76 18l136 578zM373 553l225 -41l96 393 l-229 41z" />
<glyph unicode="$" horiz-adv-x="962" d="M6 209l60 59q94 -107 243 -125l156 564q-142 77 -207 151.5t-65 169.5q0 91 56.5 168t151.5 121.5t205 44.5q6 0 19.5 -1t19.5 -1l49 174l62 -14l-47 -170q70 -15 135 -49.5t108 -79.5l-55 -56q-97 90 -209 111l-143 -520l10 -4q262 -148 262 -334q0 -92 -38.5 -163 t-103 -112.5t-142 -62.5t-162.5 -21h-19l-55 -200l-61 14l53 193q-88 15 -166 55t-117 88zM283 1024q0 -67 42.5 -116t161.5 -120l138 496h-23q-144 0 -231.5 -75t-87.5 -185zM375 139q158 0 254 68.5t96 206.5q0 75 -49 137.5t-154 124.5z" />
<glyph unicode="%" horiz-adv-x="1392" d="M121 1006q0 169 97.5 288t230.5 119q98 0 160.5 -70t62.5 -180q0 -106 -42 -199t-117 -149.5t-165 -56.5q-97 0 -162 68.5t-65 179.5zM197 14l495 695l471 696l64 -33l-486 -690l-481 -705zM203 1016q0 -86 41 -136.5t112 -50.5q95 0 166.5 101.5t65.5 226.5 q0 86 -38.5 135t-107.5 49q-95 0 -167 -94.5t-72 -230.5zM756 227q0 169 97 288.5t230 119.5q98 0 161 -70t63 -180q0 -106 -42 -199t-117 -149.5t-165 -56.5q-97 0 -162 68.5t-65 178.5zM838 238q0 -86 41 -136.5t112 -50.5q95 0 166.5 101.5t65.5 226.5q0 86 -38.5 135 t-107.5 49q-95 0 -167 -94.5t-72 -230.5z" />
<glyph unicode="&#x26;" horiz-adv-x="1331" d="M70 340q0 171 112.5 299t274.5 168l2 10q-135 88 -135 244q0 102 61.5 184t156.5 125t201 43q176 0 301 -84l-53 -67q-99 71 -250 71q-133 0 -230 -75t-97 -195q0 -196 196 -232l-12 -75q-97 -2 -180 -36.5t-138.5 -91t-86.5 -129.5t-31 -153q0 -135 103 -211t282 -76 q209 0 344 123.5t135 309.5q0 81 -31 155l-196 -43l-13 70l471 102l13 -67l-187 -41q31 -74 31 -150q0 -126 -47.5 -230t-127.5 -170t-182 -102t-214 -36q-221 0 -347 101t-126 259z" />
<glyph unicode="'" horiz-adv-x="512" d="M238 831l104 562h119l-180 -562h-43z" />
<glyph unicode="(" horiz-adv-x="716" d="M102 369q0 226 88.5 447t240.5 397.5t345 291.5l29 -55q-127 -80 -237.5 -196t-194 -254.5t-132 -301.5t-48.5 -325q0 -204 82.5 -384.5t228.5 -303.5l-49 -47q-353 301 -353 731z" />
<glyph unicode=")" horiz-adv-x="716" d="M-129 -307q127 80 237.5 196t194 254.5t132 301.5t48.5 325q0 204 -82.5 384.5t-228.5 303.5l49 47q352 -301 352 -731q0 -226 -88.5 -447t-240 -397.5t-344.5 -291.5z" />
<glyph unicode="*" horiz-adv-x="1085" d="M221 674l332 268l-326 139l49 86l304 -176l65 404l107 -23l-123 -391l356 55l14 -98l-364 -12l199 -375l-84 -35l-164 383l-303 -295z" />
<glyph unicode="+" horiz-adv-x="1085" d="M68 575v82h434v435h82v-435h434v-82h-434v-434h-82v434h-434z" />
<glyph unicode="," horiz-adv-x="512" d="M-117 -313q99 108 183.5 239.5t128.5 253.5h110v-12q-53 -124 -148.5 -263t-191.5 -224h-82v6z" />
<glyph unicode="-" horiz-adv-x="696" d="M82 442l12 78l492 21l-13 -78z" />
<glyph unicode="." horiz-adv-x="552" d="M119 76q0 37 23 63.5t57 26.5q32 0 56 -26.5t24 -63.5q0 -38 -23.5 -64t-56.5 -26q-34 0 -57 26t-23 64z" />
<glyph unicode="/" horiz-adv-x="942" d="M-119 -328l1102 1762h88l-1102 -1762h-88z" />
<glyph unicode="0" horiz-adv-x="1208" d="M111 469q0 192 47 365.5t128 301t197.5 202.5t249.5 75q177 0 281 -131t104 -367q0 -250 -80 -463.5t-224.5 -342.5t-321.5 -129q-170 0 -275.5 123.5t-105.5 365.5zM203 477q0 -203 78.5 -310.5t214.5 -107.5q114 0 214 71t168.5 188.5t108 273.5t39.5 323 q0 191 -79 304.5t-218 113.5q-84 0 -162.5 -39.5t-144 -115.5t-115 -179t-77 -237.5t-27.5 -284.5z" />
<glyph unicode="1" horiz-adv-x="921" d="M283 1270l4 82l372 51l15 -17l-223 -1255l-5 -121l-102 -20l231 1321z" />
<glyph unicode="2" horiz-adv-x="1105" d="M-14 61q262 180 444.5 330t290.5 273.5t155.5 224t47.5 194.5q0 111 -79.5 180.5t-193.5 69.5q-94 0 -191 -38t-163 -95l-33 76q69 54 174.5 95.5t200.5 41.5q171 0 274 -83t103 -234q0 -118 -59 -240t-179.5 -250t-277.5 -255t-377 -279v-4l758 20l-13 -78l-874 -20z " />
<glyph unicode="3" horiz-adv-x="1064" d="M8 66l39 77l2 2q74 -48 146 -67t163 -19q114 0 211 45.5t156 130t59 189.5q0 122 -74.5 193t-185.5 65l-227 -12l25 92h208q143 0 239.5 94.5t96.5 235.5q0 115 -76 178t-188 63q-157 0 -293 -86h-6l-20 76q55 35 142.5 62.5t180.5 27.5q161 0 256.5 -84.5t95.5 -226.5 q0 -129 -78.5 -236t-217.5 -141v-8q106 -28 159 -105.5t53 -183.5q0 -123 -67.5 -225.5t-187.5 -162.5t-267 -60q-198 0 -344 86z" />
<glyph unicode="4" horiz-adv-x="1126" d="M59 455l826 934l90 8l-158 -903l189 4l-15 -74l-188 -4l-49 -281l-6 -129l-99 -20l72 428l-639 -15zM188 489l7 -12l540 15l133 759h-10z" />
<glyph unicode="5" horiz-adv-x="1105" d="M33 10l37 80q72 -29 180 -29q138 0 256 36.5t197.5 98t124 143t44.5 171.5q0 96 -55.5 169.5t-145.5 110.5t-200 37q-137 0 -264 -26l-8 6l174 575l692 21l-31 -94l-604 -11l-123 -401q52 10 172 10q218 0 351 -110.5t133 -280.5q0 -108 -50.5 -205.5t-141.5 -171 t-228 -116.5t-299 -43q-138 0 -211 30z" />
<glyph unicode="6" horiz-adv-x="1105" d="M96 412q0 139 42 271t114.5 238t168 196t203 152t220.5 99.5t219 44.5l-29 -84q-177 -19 -348 -117t-289.5 -237.5t-160.5 -284.5l4 -2q78 63 178.5 97t191.5 34q75 0 141 -22t119 -65.5t84 -114.5t31 -162q0 -109 -42.5 -200.5t-112 -150.5t-155 -91.5t-173.5 -32.5 q-136 0 -229 57.5t-135 152.5t-42 222zM184 399q0 -155 85.5 -247.5t232.5 -92.5q165 0 278 115t113 277q0 77 -26 135t-70 90t-94 47.5t-105 15.5q-100 0 -202.5 -39.5t-186.5 -115.5q-25 -97 -25 -185z" />
<glyph unicode="7" horiz-adv-x="1024" d="M178 1294l23 88l860 21l16 -25q-610 -645 -768 -1368l-98 -20q85 373 278.5 720.5t446.5 608.5l-2 6z" />
<glyph unicode="8" horiz-adv-x="1085" d="M53 285q0 141 105 258.5t288 185.5v4q-202 120 -202 307q0 157 126 265t308 108q139 0 235.5 -77t96.5 -203q0 -285 -348 -418v-4q139 -71 195 -149.5t56 -174.5q0 -178 -135.5 -292.5t-335.5 -114.5q-173 0 -281 85t-108 220zM145 299q0 -114 83.5 -177t215.5 -63 q157 0 268 89t111 233q0 97 -71.5 168.5t-216.5 140.5q-189 -60 -289.5 -169t-100.5 -222zM334 1047q0 -87 55.5 -158t183.5 -135q167 48 256 147.5t89 224.5q0 93 -71 150t-171 57q-145 0 -243.5 -84t-98.5 -202z" />
<glyph unicode="9" horiz-adv-x="1105" d="M135 39l2 4q152 35 282 103t221 154t152.5 181t90.5 193l-6 6q-74 -52 -164.5 -79.5t-173.5 -27.5q-60 0 -115.5 11.5t-107 38t-89.5 65.5t-61 97.5t-23 129.5q0 93 30.5 175t80.5 140t114.5 100t133 62.5t135.5 20.5q180 0 286.5 -111.5t106.5 -295.5 q0 -191 -67.5 -366.5t-184.5 -309.5t-277.5 -228.5t-344.5 -132.5zM236 918q1 -70 27.5 -123t71 -83t98 -44.5t116.5 -14.5q220 0 364 135q29 111 29 205q0 155 -82.5 247.5t-222.5 92.5q-166 0 -285.5 -121t-115.5 -294z" />
<glyph unicode=":" horiz-adv-x="552" d="M111 76q0 37 23 63.5t56 26.5q32 0 56 -26.5t24 -63.5q0 -38 -23.5 -64t-56.5 -26q-34 0 -56.5 26t-22.5 64zM213 731q0 37 23 63.5t57 26.5q32 0 56 -26.5t24 -63.5q0 -38 -23.5 -64t-56.5 -26q-34 0 -57 26t-23 64z" />
<glyph unicode=";" horiz-adv-x="593" d="M-145 -313q99 108 183 239.5t128 253.5h110v-12q-53 -124 -148.5 -263t-190.5 -224h-82v6zM217 731q0 37 23 63.5t57 26.5q32 0 56 -26.5t24 -63.5q0 -38 -23.5 -64t-56.5 -26q-34 0 -57 26t-23 64z" />
<glyph unicode="&#x3c;" horiz-adv-x="1085" d="M102 625v65l828 420l37 -74l-750 -379l750 -378l-37 -74z" />
<glyph unicode="=" horiz-adv-x="1085" d="M88 362v82h909v-82h-909zM88 772v82h909v-82h-909z" />
<glyph unicode="&#x3e;" horiz-adv-x="1085" d="M119 279l749 378l-749 379l37 74l827 -420v-65l-827 -420z" />
<glyph unicode="?" horiz-adv-x="921" d="M182 76q0 37 23 63.5t57 26.5q32 0 56 -26.5t24 -63.5q0 -38 -23.5 -64t-56.5 -26q-34 0 -57 26t-23 64zM221 582q0 55 25.5 102.5t67 80.5t95 65t108.5 56.5t108.5 55t95 60.5t67 72t25.5 91q0 59 -31.5 98.5t-73.5 54.5t-90 15q-68 0 -128.5 -24t-137.5 -78l-37 72 q157 110 306 110q128 0 205 -68t77 -174q0 -59 -25.5 -109.5t-67 -85.5t-95 -68.5t-108.5 -58.5t-108.5 -54t-95 -56.5t-67 -65.5t-25.5 -81q0 -86 92 -86q51 0 111 31l33 -70q-71 -41 -154 -41q-76 0 -124 38.5t-48 117.5z" />
<glyph unicode="@" horiz-adv-x="1413" d="M164 604q0 211 83 396t233.5 299t332.5 114q177 0 278.5 -88.5t90.5 -267.5l-39 -568q-3 -50 13 -98t42 -72l-2 -8l-63 -28q-25 20 -37 44.5t-23 65.5h-10q-104 -104 -260 -104q-128 0 -203.5 77.5t-75.5 221.5q0 157 99 257.5t251 100.5q54 0 116 -13t102 -34l10 141 q10 149 -69.5 220t-223.5 71q-150 0 -278 -98.5t-202.5 -266.5t-74.5 -364q0 -170 41 -304.5t111.5 -217.5t161.5 -126.5t196 -43.5q165 0 287 88h6l28 -72q-64 -50 -153.5 -74t-169.5 -24q-269 0 -433.5 208.5t-164.5 567.5zM614 588q0 -121 57.5 -170t159.5 -49 q58 0 126.5 30t105.5 76l22 344q-95 53 -206 53q-118 0 -191.5 -75t-73.5 -209z" />
<glyph unicode="A" horiz-adv-x="1392" d="M-35 27l944 1398h21l248 -1398l-78 -41l-84 489l-662 -18l-315 -471zM408 535l593 18l-116 684h-6z" />
<glyph unicode="B" horiz-adv-x="1146" d="M72 -10l217 1235l10 157l319 15q17 1 33 1q82 0 147 -18q78 -20 124 -61.5t69 -95t23 -119.5q0 -138 -82 -232t-227 -135v-8q119 -21 192.5 -102t73.5 -199q0 -99 -39.5 -178.5t-110 -130.5t-163 -79.5t-201.5 -33.5zM170 68l299 14q83 4 154 25t129.5 59.5t92.5 103.5 t34 148q1 128 -95 202q-88 68 -219 68h-22l-267 -10zM289 756l260 10q71 3 136.5 26t119 63t85.5 103t32 138q0 114 -80 172q-71 52 -199 52q-15 0 -31 -1l-223 -10z" />
<glyph unicode="C" horiz-adv-x="1351" d="M115 549q0 157 48 297.5t129.5 242t185.5 176t218.5 111.5t227.5 37q133 0 239 -45t174 -115l-51 -63q-55 61 -154 102t-210 41q-99 0 -199.5 -33t-193 -100.5t-164.5 -159.5t-115 -219.5t-43 -271.5q0 -221 128.5 -355.5t350.5 -134.5q128 0 246 43.5t211 116.5l33 -67 q-85 -74 -222 -123t-266 -49q-263 0 -418 156.5t-155 412.5z" />
<glyph unicode="D" horiz-adv-x="1372" d="M72 -10l131 737l82 492l16 163l354 15q16 1 33 1q156 0 280 -62q137 -68 213 -198.5t76 -301.5q0 -159 -44.5 -296t-120.5 -234t-177.5 -166t-215.5 -102.5t-234 -33.5zM176 74l309 12q146 6 271.5 62t216.5 152t142.5 233.5t51.5 300.5q0 100 -29 182.5t-79 139.5 t-117 95.5t-143 54.5q-61 13 -126 14q-16 0 -32 -1l-250 -10l-106 -594z" />
<glyph unicode="E" horiz-adv-x="1044" d="M72 -10l116 684l97 534l14 174l758 21l-23 -78l-647 -16l-98 -551l596 16l-23 -78l-586 -16l-106 -614l676 22l-23 -78z" />
<glyph unicode="F" d="M72 -10l219 1253l8 139l723 21l-12 -78l-621 -18l-98 -547l559 14l-12 -78l-559 -14l-95 -528l-10 -144z" />
<glyph unicode="G" horiz-adv-x="1454" d="M115 541q0 185 67.5 349.5t179.5 278t259 179t303 65.5q129 0 239.5 -46t177.5 -116l-65 -59q-59 62 -152 101.5t-209 39.5q-98 0 -198.5 -33.5t-191.5 -101.5t-162.5 -160.5t-113.5 -220t-42 -270.5q0 -225 131.5 -356.5t366.5 -131.5q112 0 215.5 38.5t175.5 92.5 l75 445l-436 -19l15 78l522 21l-98 -568q-104 -77 -231.5 -122t-250.5 -45q-181 0 -313.5 74.5t-198 200.5t-65.5 286z" />
<glyph unicode="H" horiz-adv-x="1413" d="M72 -10l129 719l86 499l12 174l111 21l-119 -649l860 20l84 434l12 174l109 21l-131 -688l-103 -547l-8 -158l-104 -20l129 706l-860 -20l-91 -492l-12 -174z" />
<glyph unicode="I" horiz-adv-x="552" d="M115 -10l131 753l86 492l14 147l105 21l-125 -676l-101 -565l-12 -152z" />
<glyph unicode="J" horiz-adv-x="839" d="M-72 41l37 76q95 -58 189 -58q148 0 241.5 100t130.5 314l140 787l6 122l102 21l-166 -950q-41 -235 -162.5 -354t-295.5 -119q-141 0 -222 61z" />
<glyph unicode="K" horiz-adv-x="1228" d="M68 -10l135 747l86 523l6 122l106 21l-135 -758h4l889 762l47 -55l-2 -4l-661 -566l499 -747l-2 -6l-63 -41l-498 745l-231 -198l-68 -400l-6 -125z" />
<glyph unicode="L" d="M72 -10l127 710l86 531l10 151l113 21l-132 -713l-100 -622l633 20l-12 -78z" />
<glyph unicode="M" horiz-adv-x="1740" d="M14 10l463 1399l41 4l260 -1237h4l686 1237l41 -4l-18 -1266l16 -133l-104 -20l18 1145l-12 2l-651 -1157h-21l-245 1157l-13 -2l-340 -1006l-30 -139z" />
<glyph unicode="N" horiz-adv-x="1536" d="M72 -10l243 1401l54 16l792 -1257l10 4l185 1054l14 174l100 21l-243 -1403l-53 -14l-791 1255l-8 -4l-193 -1061l-12 -166z" />
<glyph unicode="O" horiz-adv-x="1576" d="M117 541q0 189 68.5 355t179.5 277.5t252.5 175.5t287.5 64q155 0 281.5 -68t202 -200t75.5 -305q0 -179 -61 -338t-166 -273.5t-253 -181.5t-316 -67q-123 0 -227.5 44t-174.5 120t-109.5 178.5t-39.5 218.5zM209 545q0 -100 30 -187.5t87.5 -154.5t149 -105.5 t206.5 -38.5q146 0 275.5 62.5t220.5 168.5t143 250q51 142 51 298v6q-2 217 -128 353t-339 136q-101 0 -202 -36t-189.5 -105.5t-157 -163.5t-108 -219.5t-39.5 -263.5z" />
<glyph unicode="P" horiz-adv-x="1064" d="M72 -10l217 1245l10 147l309 15q17 1 33 0q165 1 267 -83q112 -92 112 -253q0 -135 -70.5 -235.5t-183.5 -151.5t-252 -56l-250 -10l-82 -465l-8 -133zM279 688l239 8q82 2 154.5 25.5t130.5 67.5q58 45 92 115q33 68 33 154v5q0 121 -88 189q-80 63 -209 63h-23 l-219 -10z" />
<glyph unicode="Q" horiz-adv-x="1576" d="M117 541q0 189 68.5 355t179.5 277.5t252.5 175.5t287.5 64q155 0 281.5 -68t202 -200t75.5 -305q0 -179 -61 -338t-166 -273.5t-253 -181.5t-316 -67q-28 0 -68 4v-7q146 -136 282 -206q124 -64 261 -64h24l-28 -86q-91 0 -175 23.5t-148.5 62t-125 84.5t-114.5 92 t-106 84.5t-110.5 63.5t-117.5 26l37 72q-78 77 -120 183t-42 229zM209 545q0 -100 30 -187.5t87.5 -154.5t149 -105.5t206.5 -38.5q146 0 275.5 62.5t220.5 168t143 250.5q51 141 51 298v6q-2 217 -128 353t-339 136q-101 0 -202 -36t-189.5 -105.5t-157 -163.5 t-108 -219.5t-39.5 -263.5z" />
<glyph unicode="R" horiz-adv-x="1167" d="M72 -10l127 702l88 541l8 149l334 17q12 1 24 1q83 0 153 -24q80 -28 130.5 -78t78 -115.5t27.5 -138.5q0 -155 -117 -268t-300 -139l362 -617v-6l-67 -39l-379 650l-273 -21l-88 -444l-4 -152zM281 682l280 18q53 4 104.5 17.5t103.5 40.5t91.5 64.5t64 94.5t25.5 125 q0 138 -89 212q-81 68 -225 68q-14 0 -28 -1l-219 -10z" />
<glyph unicode="S" horiz-adv-x="1044" d="M39 160l67 61q55 -79 142 -120.5t192 -41.5q146 0 240 77t94 206q0 54 -17.5 99.5t-58 89.5t-83.5 79t-115 86q-53 37 -89.5 65t-77.5 67t-66 74.5t-41.5 80.5t-16.5 92q0 154 113.5 246t275.5 92q115 0 208 -45.5t150 -120.5l-57 -53h-6q-118 141 -299 141 q-124 0 -208.5 -66.5t-84.5 -185.5q0 -49 15.5 -90t52.5 -81t76.5 -71.5t109.5 -80.5q55 -38 91.5 -66t81 -70.5t71 -81.5t45 -90.5t18.5 -105.5q0 -115 -59.5 -199.5t-154 -125.5t-208.5 -41q-145 0 -250 54t-151 126z" />
<glyph unicode="T" horiz-adv-x="1146" d="M170 1305l12 77l1032 21l-12 -78l-467 -10l-114 -623l-95 -532l-12 -150l-102 -20l127 715l104 610z" />
<glyph unicode="U" horiz-adv-x="1413" d="M146 360q-1 15 -1 30q0 47 11 95l131 732l12 165l102 21l-153 -883q-12 -73 -13 -133q-1 -139 65 -217q94 -112 296 -113q96 0 177 26t149 80t115 144.5t69 212.5l121 676l16 186l103 21l-158 -907q-41 -239 -193.5 -377.5t-410.5 -138.5q-88 0 -160.5 20t-121.5 55 t-84.5 83t-51.5 104t-20 118z" />
<glyph unicode="V" horiz-adv-x="1249" d="M180 1372l84 31l266 -1231h5l706 1231l74 -31l-803 -1392h-20z" />
<glyph unicode="W" horiz-adv-x="1781" d="M180 1372l86 31l197 -1190h8l530 1206h29l115 -1206h8l614 1190l80 -31l-731 -1392h-29l-112 1171h-4l-522 -1171h-29z" />
<glyph unicode="X" horiz-adv-x="1208" d="M-33 29l594 671l-338 662l72 41l326 -635l561 635l59 -49l-582 -660l349 -674l-76 -40l-332 647l-573 -647z" />
<glyph unicode="Y" horiz-adv-x="1208" d="M188 1360l70 43l346 -694h4l584 694l68 -45l-623 -737l-86 -484l-6 -127l-103 -20l109 633z" />
<glyph unicode="Z" horiz-adv-x="1208" d="M-70 0l1160 1315l-5 8l-833 -39l12 78l985 41l8 -10l-1159 -1317l4 -6l902 39l-13 -78l-1054 -41z" />
<glyph unicode="[" horiz-adv-x="757" d="M47 -336l164 930l158 889l448 -8l-14 -78l-365 8l-143 -817l-150 -846l381 8l-14 -78z" />
<glyph unicode="\" horiz-adv-x="942" d="M102 1434h78l676 -1762h-78z" />
<glyph unicode="]" horiz-adv-x="757" d="M-100 -328l14 78l365 -8l143 817l149 846l-381 -8l15 78l465 8l-164 -930l-158 -889z" />
<glyph unicode="^" horiz-adv-x="1085" d="M61 643l465 772h35l463 -772l-74 -51l-397 670h-16l-404 -670z" />
<glyph unicode="_" horiz-adv-x="1085" d="M-195 -430l15 82h1186l-15 -82h-1186z" />
<glyph unicode="`" horiz-adv-x="1024" d="M322 1282v8h92l170 -325v-7h-54z" />
<glyph unicode="a" horiz-adv-x="921" d="M33 199q0 93 39 170q106 85 260 123q113 28 228 27q41 0 83 -3l19 100q6 33 6 62q0 70 -36 117q-51 67 -149 67q-126 0 -280 -112l-31 63q165 125 313 125q135 0 209 -89q55 -67 55 -160q0 -32 -6 -66l-71 -410q-6 -32 -5.5 -60.5t5.5 -54.5q11 -52 43 -78v-4l-68 -39 q-53 46 -53 161v16h-6q-52 -59 -152.5 -112t-193.5 -65q-105 20 -157 78.5t-52 143.5zM113 211q0 -125 143 -154q100 12 199 68.5t135 118.5l41 202q-42 4 -84 4q-91 0 -183 -20q-136 -30 -227 -106q-24 -67 -24 -113z" />
<glyph unicode="b" d="M49 86l125 686l82 498l6 123l109 24l-144 -758h6q81 105 196 186.5t206 94.5q106 -23 167.5 -113.5t61.5 -226.5q0 -124 -46 -239.5t-121 -198.5t-174.5 -132.5t-203.5 -49.5q-69 0 -144 27.5t-126 78.5zM137 123q32 -30 84.5 -49t112.5 -19q88 0 170.5 46.5t142 121.5 t95.5 172.5t36 196.5q0 109 -43.5 183.5t-118.5 84.5q-101 -26 -212.5 -116.5t-190.5 -211.5z" />
<glyph unicode="c" horiz-adv-x="819" d="M66 336q0 131 40 244.5t106.5 191t154 122t180.5 44.5q147 0 239 -102l-49 -60q-83 86 -196 86q-156 0 -272.5 -149t-116.5 -371q0 -55 13.5 -104.5t41 -91.5t74.5 -66.5t108 -24.5q125 0 227 78l35 -63q-52 -40 -122.5 -65t-143.5 -25q-146 0 -232.5 104.5t-86.5 251.5z " />
<glyph unicode="d" d="M66 301q0 163 65.5 310t178.5 237t243 90q74 0 138 -34t95 -89h7l73 420l15 158l100 24l-209 -1192l-22 -215l-91 -20l58 319h-6q-75 -116 -182 -207t-236 -125q-108 25 -167.5 107.5t-59.5 216.5zM154 313q0 -228 155 -256q119 35 234 145t182 249l49 264 q-35 67 -96 107t-137 40q-101 0 -191.5 -80.5t-143 -207.5t-52.5 -261z" />
<glyph unicode="e" horiz-adv-x="921" d="M66 315q0 172 67 316.5t175.5 225.5t230.5 81q110 0 184 -81t74 -202q0 -62 -17 -112q-99 -67 -290 -104q-144 -28 -262 -28q-38 0 -74 3q-4 -35 -4 -67q0 -53 10 -97q16 -72 53.5 -113t85 -61.5t102.5 -20.5q68 0 139.5 27t123.5 74h6l30 -64q-135 -112 -317 -112 q-133 0 -225 91.5t-92 243.5zM168 483q41 -3 82 -3q104 0 212 21q152 30 247 85q8 36 8 65q0 96 -53 153.5t-134 57.5q-120 0 -223.5 -108t-138.5 -271z" />
<glyph unicode="f" horiz-adv-x="655" d="M90 834l27 71l207 10l20 101q32 154 116 249t193 132h88v-51q-116 -11 -204.5 -107t-116.5 -246l-14 -78l235 13l-23 -74l-225 -10l-160 -912l-12 -163l-98 -21l188 1096z" />
<glyph unicode="g" d="M2 -344l41 65h4q85 -69 240 -69q46 0 89.5 12t87 39t79 67t64 101t42.5 137l58 303h-7q-49 -101 -183.5 -205.5t-227.5 -115.5q-223 62 -223 323q0 162 63.5 306t174 231.5t239.5 87.5q72 0 136 -30t107 -89h7l20 105l78 -11l-158 -899q-25 -145 -95.5 -246 t-160.5 -146.5t-194 -45.5q-167 0 -281 80zM154 315q0 -216 157 -245q112 32 232.5 145.5t183.5 247.5l47 248q-24 64 -89.5 107.5t-143.5 43.5q-73 0 -142.5 -39.5t-124 -109.5t-87.5 -174t-33 -224z" />
<glyph unicode="h" horiz-adv-x="983" d="M39 -10l123 696l92 559l8 148l115 24l-117 -629h6q74 68 169 109t183 41q112 0 172 -82q42 -57 43 -143q0 -36 -8 -78l-84 -475l-10 -150l-98 -20l108 633q7 40 7 73q0 68 -29 108q-43 58 -131 58q-85 0 -177 -47.5t-167 -130.5l-94 -537l-15 -137z" />
<glyph unicode="i" horiz-adv-x="471" d="M82 -10l133 774l10 149l101 11l-131 -742l-15 -172zM276 1315q0 32 20 55t48 23t48 -23t20 -55t-20 -55t-48 -23t-48 23t-20 55z" />
<glyph unicode="j" horiz-adv-x="471" d="M-94 -393q66 56 105.5 134.5t60.5 205.5l143 813l10 153l101 11l-172 -979q-24 -136 -63.5 -219.5t-98.5 -137.5l-86 -12v31zM276 1315q0 32 20 55t48 23t48 -23t20 -55t-20 -55t-48 -23t-48 23t-20 55z" />
<glyph unicode="k" horiz-adv-x="901" d="M33 -10l133 727l94 565l6 111l105 24l-174 -956h4l592 477l47 -51l-2 -6l-463 -375l334 -479v-7l-64 -40l-336 481l-129 -105l-45 -241l-2 -105z" />
<glyph unicode="l" horiz-adv-x="471" d="M82 -10l127 721l84 520l16 162l111 24l-131 -696l-88 -533l-15 -178z" />
<glyph unicode="m" horiz-adv-x="1536" d="M39 -10l137 782l6 135l88 21l-10 -142h8q70 67 159.5 109.5t178.5 42.5q181 0 213 -162h6q172 162 357 162q106 0 166 -74q42 -52 42 -139q0 -36 -8 -78l-84 -485l-10 -152l-102 -20l117 663q6 31 6 57q0 59 -28 97q-40 55 -118 55q-84 0 -181.5 -54t-166.5 -134 l-90 -510l-10 -154l-103 -20l119 674q5 30 5 55q0 61 -32 95q-44 48 -112 48q-90 0 -185.5 -51.5t-164.5 -136.5l-88 -508l-13 -156z" />
<glyph unicode="n" horiz-adv-x="983" d="M39 -10l127 696l22 221l84 21l-10 -142h6q166 152 336 152q119 0 183 -80q47 -58 47 -146q0 -33 -7 -71l-77 -444l-17 -187l-100 -20l110 635q7 39 7 72q0 68 -30 107q-44 58 -136 58q-84 0 -173 -48.5t-165 -129.5l-90 -487l-17 -187z" />
<glyph unicode="o" d="M66 336q0 170 67 309t177.5 216t238.5 77q144 0 229.5 -104.5t85.5 -262.5q0 -160 -62.5 -295.5t-172.5 -215.5t-242 -80q-140 0 -230.5 100t-90.5 256zM154 352q0 -138 66 -217.5t173 -79.5q113 0 203 76.5t136 190.5t46 237q0 136 -61.5 219.5t-169.5 83.5 q-107 0 -197.5 -69t-143 -186.5t-52.5 -254.5z" />
<glyph unicode="p" d="M-39 -418l203 1131l16 194l94 15l-49 -269h4q51 94 176 187.5t216 99.5q111 -20 177 -111t66 -227q0 -137 -46.5 -257.5t-118.5 -198t-157.5 -122t-166.5 -44.5q-75 0 -143 40t-93 95h-4l-67 -387l-5 -121zM156 223q21 -75 81.5 -121.5t145.5 -46.5q44 0 95 20t104 64.5 t96 106t70.5 153.5t27.5 199q0 113 -49.5 182t-122.5 80q-81 -8 -198 -105t-195 -225z" />
<glyph unicode="q" d="M66 324q0 146 63.5 287.5t175.5 234t238 92.5q74 0 138.5 -31.5t104.5 -91.5h9l24 109l74 -11l-209 -1192l-8 -114l-101 -25l142 727h-6q-66 -114 -192 -211.5t-226 -120.5q-227 63 -227 347zM154 322q0 -117 35.5 -179.5t117.5 -85.5q113 38 230 140.5t188 251.5l49 262 q-31 67 -96.5 109t-142.5 42q-99 0 -187.5 -78t-141 -203t-52.5 -259z" />
<glyph unicode="r" horiz-adv-x="655" d="M33 -10l131 733l20 184l95 21l-43 -252h6q52 110 145 184t178 74q60 0 88 -16l-14 -87h-4q-35 17 -76 17q-91 0 -196.5 -106.5t-161.5 -260.5l-60 -325l-6 -146z" />
<glyph unicode="s" horiz-adv-x="757" d="M-6 92l49 60h4q101 -97 221 -97q91 0 149 43.5t58 124.5q0 54 -34 105t-82.5 92.5t-97 84t-82.5 95.5t-34 111q0 100 75 163.5t186 63.5q76 0 143.5 -34t114.5 -93l-50 -49h-4q-89 100 -202 100q-75 0 -126 -39t-51 -112q0 -43 34 -88.5t82.5 -87t97 -86t82.5 -102 t34 -118.5q0 -119 -85 -184t-210 -65q-86 0 -157.5 31.5t-114.5 80.5z" />
<glyph unicode="t" horiz-adv-x="634" d="M82 834l37 73l209 11l39 284l96 25l-55 -309l235 10l-33 -74l-215 -10l-121 -678l-10 -156l-102 -20l147 854z" />
<glyph unicode="u" horiz-adv-x="983" d="M76 287l86 483l8 137l98 21l-106 -623q-8 -43 -7 -79q-1 -69 27 -109q42 -62 127 -62q88 0 185 51t165 132l93 503l12 166l98 21l-135 -791l-8 -127l-84 -20l14 147h-6q-76 -73 -170 -115t-184 -42q-49 0 -92 19.5t-75 56.5t-46 97q-7 31 -6 65q0 33 6 69z" />
<glyph unicode="v" horiz-adv-x="901" d="M111 905l82 25l153 -772h8l437 772l77 -25l-538 -925h-23z" />
<glyph unicode="w" horiz-adv-x="1310" d="M111 905l82 25l129 -737h10l364 745h21l92 -745h10l385 737l74 -27l-500 -923h-20l-86 727h-8l-359 -727h-20z" />
<glyph unicode="x" horiz-adv-x="901" d="M-33 25l402 450l-219 418l65 41l207 -397l352 397l57 -43l-372 -422l233 -446l-63 -41l-226 426l-378 -431z" />
<glyph unicode="y" horiz-adv-x="901" d="M-53 -377q87 37 165 144.5t171 295.5l-172 842l79 25l154 -770h6l438 770l80 -25l-624 -1073q-61 -104 -103.5 -156.5t-87.5 -81.5l-102 -18z" />
<glyph unicode="z" horiz-adv-x="860" d="M-61 0l718 840l-4 6l-516 -29l17 74l657 37l6 -10l-719 -840l2 -6l568 28l-17 -73l-706 -37z" />
<glyph unicode="{" horiz-adv-x="757" d="M92 537l19 102q119 0 209.5 63t105.5 152q12 71 -4.5 189t-1.5 200q20 114 133 173t311 59l-12 -76q-97 0 -169.5 -16.5t-122 -54.5t-60.5 -97q-10 -60 -2 -132t16.5 -122t-2.5 -133q-16 -95 -104 -163t-193 -87l-4 -14q97 -6 162 -76.5t47 -165.5q-12 -68 -73 -190.5 t-75 -202.5q-17 -97 46 -150t241 -47l-12 -76q-210 -3 -296 69.5t-63 203.5q14 78 73 196.5t71 182.5q18 101 -49 157t-191 56z" />
<glyph unicode="|" horiz-adv-x="1085" d="M500 -471v2007h86v-2007h-86z" />
<glyph unicode="}" horiz-adv-x="757" d="M-147 -330l12 76q97 0 169.5 16.5t122 54.5t60.5 97q10 60 2 132t-16.5 122t2.5 133q16 95 104 163t193 87l4 14q-97 6 -162 76.5t-47 165.5q12 68 72.5 190.5t74.5 202.5q17 97 -45.5 150t-240.5 47l12 76q210 3 295.5 -69.5t62.5 -203.5q-14 -78 -72.5 -196.5 t-70.5 -182.5q-18 -101 49 -157t191 -56l-19 -102q-119 0 -209.5 -63t-105.5 -152q-12 -71 4.5 -189t1.5 -200q-20 -114 -133 -173t-311 -59z" />
<glyph unicode="~" horiz-adv-x="1085" d="M76 416q0 159 77.5 251.5t186.5 92.5q55 0 105 -28t87 -68t71.5 -79.5t74.5 -67.5t80 -28q84 0 129 70.5t45 196.5h86q0 -150 -72.5 -247t-189.5 -97q-57 0 -107 27.5t-86 67t-69.5 79t-72.5 67t-81 27.5q-80 0 -129 -75.5t-49 -188.5h-86z" />
<glyph unicode="&#xa1;" horiz-adv-x="634" d="M111 -231l112 481l109 502l59 10l-86 -510l-74 -473l-114 -19zM330 1085q0 38 23.5 64.5t56.5 26.5q34 0 56.5 -26.5t22.5 -64.5q0 -37 -23 -63.5t-56 -26.5q-32 0 -56 26.5t-24 63.5z" />
<glyph unicode="&#xa2;" horiz-adv-x="880" d="M113 543q0 117 31 220.5t82 176t116.5 126t134.5 79t135 26.5l64 224l61 -17l-57 -211q115 -15 205 -96l-54 -59q-81 72 -172 82l-227 -822h41q128 0 238 88l34 -57q-54 -46 -134 -76t-150 -30q-33 0 -49 2l-56 -205l-67 16l55 201q-107 30 -169 115t-62 217zM197 551 q0 -218 168 -266l227 809q-162 -14 -278.5 -166t-116.5 -377z" />
<glyph unicode="&#xa3;" horiz-adv-x="1024" d="M33 72q155 122 225 281t70 327v6h-189l19 78h168q-1 15 -4 74t-3 90q0 126 38 223t101 152.5t135 82.5t150 27q183 0 316 -113l-49 -57l-6 -2q-64 46 -124.5 69t-140.5 23q-66 0 -123.5 -23t-104.5 -71t-74 -131t-27 -193q0 -23 1 -48t2.5 -55.5t2.5 -47.5h385l-19 -78 h-364v-18q0 -165 -64 -316t-198 -256l8 -12q111 68 223 68q48 0 88 -13t63.5 -29t61.5 -29t84 -13q90 0 180 57l8 -2l23 -72q-46 -34 -110 -52.5t-115 -18.5q-56 0 -105.5 21.5t-101 43t-113.5 21.5q-111 0 -274 -86z" />
<glyph unicode="&#xa4;" horiz-adv-x="1269" d="M171.5 947q1.5 17 12.5 31.5t25.5 26t30 13t26.5 -7.5l94 -97q125 97 275 97q151 0 268 -90l88 92q17 18 49.5 -1t50.5 -52t1 -50l-93 -88q88 -118 88 -264q0 -149 -96 -276l99 -95q18 -18 3.5 -49.5t-40.5 -44.5t-47 2l-103 103q-120 -93 -268 -93q-147 0 -264 84 l-86 -90q-18 -20 -53 -4t-49.5 44.5t1.5 51.5l90 89q-92 119 -92 278q0 147 92 270l-92 91q-12 12 -10.5 29zM285 555q0 -157 97 -257.5t255 -100.5q148 0 246 101.5t98 256.5q0 161 -97.5 260.5t-248.5 99.5q-163 0 -256.5 -101t-93.5 -259z" />
<glyph unicode="&#xa5;" horiz-adv-x="1187" d="M180 1358l72 45l348 -694h4l582 694l67 -45l-622 -737l-2 -11h268l-14 -78h-269l-22 -133h268l-14 -77h-268l-29 -164l-10 -148l-103 -20l58 332h-271l15 77h268l22 133h-268l14 78h269l2 11z" />
<glyph unicode="&#xa6;" horiz-adv-x="1085" d="M500 246h86v-717h-86v717zM500 819v717h86v-717h-86z" />
<glyph unicode="&#xa7;" horiz-adv-x="1167" d="M55 -219l51 76q116 -97 300 -97q158 0 259 75.5t101 184.5q0 40 -17.5 74t-58.5 66.5t-83.5 57.5t-117.5 63q-149 75 -218.5 143.5t-69.5 159.5q0 90 56 174.5t161 152.5q-119 82 -119 199q0 57 27.5 110.5t78.5 97t131 69.5t177 26q186 0 323 -102l-47 -72 q-116 94 -280 94q-151 0 -233.5 -66.5t-82.5 -156.5q0 -66 65 -119t251 -153q139 -75 199.5 -145.5t60.5 -155.5q0 -103 -64.5 -182t-163.5 -128q64 -47 92.5 -94t28.5 -110q0 -103 -68 -183t-170.5 -119.5t-217.5 -39.5q-215 0 -351 100zM293 590q0 -69 60.5 -123.5 t191.5 -122.5q12 -7 62 -34t73 -42q96 45 143 115t47 149q0 73 -62.5 133t-207.5 140q-113 63 -123 69q-81 -48 -132.5 -126.5t-51.5 -157.5z" />
<glyph unicode="&#xa8;" horiz-adv-x="1024" d="M324 1044q0 29 18 50.5t43 21.5t43 -20t18 -52q0 -30 -18.5 -48.5t-42.5 -18.5q-26 0 -43.5 17.5t-17.5 49.5zM610 1044q0 29 18.5 50.5t43.5 21.5t43 -20t18 -52q0 -30 -18.5 -48.5t-42.5 -18.5q-26 0 -44 17.5t-18 49.5z" />
<glyph unicode="&#xa9;" horiz-adv-x="1617" d="M180 662q0 127 50.5 243t135 200.5t201.5 134.5t244 50q177 0 321.5 -85t225 -228.5t80.5 -314.5q0 -173 -78 -316.5t-222.5 -229t-326.5 -85.5q-172 0 -316 79.5t-229.5 225t-85.5 326.5zM250 657q0 -161 76 -290t204 -199t283 -70q238 0 396.5 157t158.5 402 q0 125 -44 232.5t-119.5 181t-177.5 115t-216 41.5q-150 0 -278 -72t-205.5 -203.5t-77.5 -294.5zM487 641v14q0 99 34.5 176.5t94.5 126.5q1 1 8.5 7t12.5 8l10 8l33 18l25 11q38 11 61 16q10 0 14 2h13q8 2 26 2h15q3 0 8 -1t8 -1q68 -6 131 -33l12 -4l17 -8l10 -6l18 -10 q5 -5 13 -9l8 -6q1 0 2 -1t2 -1l-37 -69q-3 1 -8.5 5.5t-9.5 6.5q-4 4 -9 4l-8 6q-30 19 -65 29l-19 6q-2 2 -6 2q-41 12 -84 12h-10q-1 0 -4.5 -1t-5.5 -1q-13 0 -37 -4q-42 -11 -64 -24l-16 -11l-14 -12l-23 -18l-20 -25l-17 -27l-14 -30q-18 -45 -23 -84v-13 q-2 -10 -2 -28v-15v-12q0 -16 2 -24q2 -30 17 -76q0 -2 4 -10q5 -15 16 -37l25 -33l6 -8q8 -11 29 -27q21 -17 41 -26l10 -5q6 -4 18 -8q27 -9 62 -12h10h12h19h14q2 0 6 1t6 1q11 0 31 4l29 6q16 5 20 8l17 7q2 1 8.5 4t11.5 4l39 22l18 15l39 -62l-4 -4l-26 -18l-17 -11 q-33 -18 -61 -28l-27 -8q-50 -16 -96 -19h-15h-14h-14q-31 0 -58 6l-12 4q-18 3 -39 13q-8 2 -24 10l-11 6q-21 10 -43 29q-46 34 -77 88l-13 22q-36 73 -39 160z" />
<glyph unicode="&#xaa;" horiz-adv-x="737" d="M104 780q0 76 35 142q89 70 213.5 104t249.5 23l14 77q17 89 -23 143t-114 54q-56 0 -118.5 -22.5t-114.5 -61.5l-29 68q49 35 122 62.5t142 27.5q112 0 174.5 -75t40.5 -189l-63 -361q-8 -39 3 -83t36 -58v-2l-68 -33q-45 59 -39 149h-4q-43 -71 -113.5 -109t-144.5 -38 q-95 0 -147 51.5t-52 130.5zM180 791q0 -54 32 -86.5t95 -32.5q96 0 179 75.5t106 231.5q-103 13 -211.5 -12t-179.5 -88q-21 -51 -21 -88z" />
<glyph unicode="&#xab;" horiz-adv-x="1269" d="M111 453v18l548 469l43 -51l-469 -434v-4l291 -422l-51 -37zM541 453v18l549 469l43 -51l-469 -434v-4l290 -422l-51 -37z" />
<glyph unicode="&#xac;" horiz-adv-x="1085" d="M68 543v98h936v-535h-99v437h-837z" />
<glyph unicode="&#xad;" horiz-adv-x="696" d="M82 442l12 78l492 21l-13 -78z" />
<glyph unicode="&#xae;" horiz-adv-x="1146" d="M135 985q0 182 127.5 310t308.5 128q182 0 311.5 -128.5t129.5 -309.5q0 -183 -126.5 -309.5t-314.5 -126.5q-181 0 -308.5 127.5t-127.5 308.5zM201 985q0 -156 107 -266.5t265 -110.5q160 0 266.5 110.5t106.5 266.5t-107.5 267.5t-269.5 111.5q-155 0 -261.5 -111.5 t-106.5 -267.5zM424 745v510h149q73 0 120.5 -39.5t47.5 -107.5q0 -53 -33.5 -89t-91.5 -50l158 -207v-4l-55 -19l-168 224h-68v-218h-59zM483 1016h82q51 0 84 22t33 70q0 43 -32 68.5t-81 25.5h-86v-186z" />
<glyph unicode="&#xaf;" horiz-adv-x="1024" d="M262 958v74h500v-74h-500z" />
<glyph unicode="&#xb0;" horiz-adv-x="757" d="M166 1145q0 112 80.5 193t191.5 81q113 0 194 -81t81 -193q0 -111 -81.5 -192t-193.5 -81q-110 0 -191 81.5t-81 191.5zM256 1145q0 -81 51 -137t129 -56q79 0 135 56.5t56 136.5t-56 137t-135 57q-78 0 -129 -56.5t-51 -137.5z" />
<glyph unicode="&#xb1;" horiz-adv-x="1085" d="M88 111v82h909v-82h-909zM88 760v82h414v434h82v-434h413v-82h-413v-434h-82v434h-414z" />
<glyph unicode="&#xb2;" horiz-adv-x="593" d="M76 879q266 195 381.5 330t115.5 237q0 52 -34.5 80t-96.5 28q-95 0 -184 -63l-22 63q29 25 87.5 49.5t122.5 24.5q95 0 152 -41.5t57 -128.5q0 -231 -426 -532v-6l344 14l-12 -74l-481 -20z" />
<glyph unicode="&#xb3;" horiz-adv-x="593" d="M121 887l33 71q73 -47 153 -47q86 0 147.5 51.5t61.5 131.5q0 51 -30.5 84t-77.5 32l-129 -6l20 82h113q59 0 107 47t48 115q0 50 -34 78t-87 28q-70 0 -147 -53l-31 70q92 57 187 57q94 0 144 -46t50 -126q0 -74 -46 -128t-118 -75v-10q53 -11 83 -54.5t30 -94.5 q0 -114 -86 -185t-205 -71q-109 0 -186 49z" />
<glyph unicode="&#xb4;" horiz-adv-x="1024" d="M440 958v7l248 325h100v-8l-284 -324h-64z" />
<glyph unicode="&#xb6;" horiz-adv-x="1310" d="M152 889q0 111 47.5 207.5t124.5 160.5t174.5 100t199.5 36h613l-13 -78h-135l-266 -1512l-6 -114l-103 -21l289 1647h-200l-265 -1497l-8 -129l-102 -21l151 875h-71q-92 0 -167.5 19t-135.5 58.5t-93.5 108t-33.5 160.5zM242 895q0 -274 344 -274h82l123 694h-86 q-202 0 -332.5 -123.5t-130.5 -296.5z" />
<glyph unicode="&#xb7;" horiz-adv-x="552" d="M193 500q0 37 23 63.5t56 26.5q32 0 56 -26.5t24 -63.5q0 -38 -23.5 -64t-56.5 -26q-34 0 -56.5 26t-22.5 64z" />
<glyph unicode="&#xb8;" horiz-adv-x="1024" d="M383 -164l162 205h71l-127 -164q177 0 177 -113q0 -65 -77.5 -112.5t-195.5 -59.5l2 54q91 14 144 43.5t53 72.5q0 31 -42 45.5t-99 14.5q-34 0 -62 -4z" />
<glyph unicode="&#xb9;" horiz-adv-x="593" d="M289 1516l6 77l213 27l16 -12l-114 -639l-9 -117l-90 -12l123 696z" />
<glyph unicode="&#xba;" horiz-adv-x="819" d="M133 895q0 213 120 357.5t286 144.5q119 0 190.5 -87t71.5 -218q0 -134 -52 -248t-144 -181t-202 -67q-118 0 -194 84t-76 215zM219 907q0 -110 52 -172.5t137 -62.5q69 0 128.5 36t98.5 94t61.5 131t22.5 148q0 109 -48.5 175.5t-135.5 66.5q-130 0 -223 -122.5 t-93 -293.5z" />
<glyph unicode="&#xbb;" horiz-adv-x="1269" d="M76 43l469 434v4l-291 422l51 37l363 -461v-18l-549 -469zM506 43l469 434v4l-291 422l51 37l363 -461v-18l-549 -469z" />
<glyph unicode="&#xbc;" horiz-adv-x="1515" d="M223 -63l527 778l467 702l53 -33l-471 -696l-523 -788zM317 1311l7 78l213 26l16 -12l-115 -639l-8 -117l-90 -12l123 696zM709 182l424 498l96 8l-84 -481l92 4l-12 -70l-92 -4l-23 -123l-6 -96l-86 -10l39 227l-332 -10zM805 201l2 -6l262 10l66 375h-11z" />
<glyph unicode="&#xbd;" horiz-adv-x="1515" d="M223 -63l527 778l467 702l53 -33l-471 -696l-523 -788zM317 1311l7 78l213 26l16 -12l-115 -639l-8 -117l-90 -12l123 696zM768 -53q267 195 382.5 330t115.5 237q0 52 -34.5 80.5t-96.5 28.5q-95 0 -185 -64l-22 64q29 25 88 49t123 24q95 0 152 -41.5t57 -128.5 q0 -231 -426 -532v-6l344 14l-13 -74l-481 -20z" />
<glyph unicode="&#xbe;" horiz-adv-x="1515" d="M150 682l32 72q73 -47 154 -47q86 0 147.5 51t61.5 131q0 51 -31 84.5t-78 32.5l-129 -7l21 82h112q60 0 108 47t48 115q0 50 -34 78.5t-87 28.5q-68 0 -147 -54l-31 70q92 57 186 57t144.5 -46.5t50.5 -125.5q0 -74 -46 -127.5t-118 -74.5v-11q53 -11 83 -54.5t30 -94.5 q0 -114 -86 -185t-205 -71q-109 0 -186 49zM223 -63l527 778l467 702l53 -33l-471 -696l-523 -788zM709 182l424 498l96 8l-84 -481l92 4l-12 -70l-92 -4l-23 -123l-6 -96l-86 -10l39 227l-332 -10zM805 201l2 -6l262 10l66 375h-11z" />
<glyph unicode="&#xbf;" horiz-adv-x="921" d="M18 2q0 67 32.5 122.5t85 94t115.5 72.5t126 65t115.5 62.5t85 73t32.5 90.5q0 86 -92 86q-50 0 -110 -31l-33 70q71 41 153 41q76 0 124 -38.5t48 -117.5q0 -55 -25.5 -102.5t-67 -80.5t-94.5 -65t-108.5 -57t-108.5 -55.5t-94.5 -60.5t-67 -72t-25.5 -91 q0 -86 58.5 -127t135.5 -41q67 0 127.5 24.5t138.5 78.5l37 -72q-158 -111 -305 -111q-128 0 -205.5 68t-77.5 174zM580 1098q0 38 23 64t56 26q34 0 57 -26t23 -64q0 -37 -23 -63.5t-57 -26.5q-32 0 -55.5 26.5t-23.5 63.5z" />
<glyph unicode="&#xc0;" horiz-adv-x="1392" d="M-35 27l944 1398h21l248 -1398l-78 -41l-84 489l-662 -18l-315 -471zM408 535l593 18l-116 684h-6zM748 1745v20h90l155 -254v-16h-53z" />
<glyph unicode="&#xc1;" horiz-adv-x="1392" d="M-35 27l944 1398h21l248 -1398l-78 -41l-84 489l-662 -18l-315 -471zM408 535l593 18l-116 684h-6zM850 1495v16l266 254h98v-20l-305 -250h-59z" />
<glyph unicode="&#xc2;" horiz-adv-x="1392" d="M-35 27l944 1398h21l248 -1398l-78 -41l-84 489l-662 -18l-315 -471zM408 535l593 18l-116 684h-6zM705 1495v16l247 254h58l166 -254v-16h-54l-145 197l-219 -197h-53z" />
<glyph unicode="&#xc3;" horiz-adv-x="1392" d="M-35 27l944 1398h21l248 -1398l-78 -41l-84 489l-662 -18l-315 -471zM408 535l593 18l-116 684h-6zM647 1550q0 104 47 165t115 61q31 0 58 -17t47 -41.5t39 -49t40 -41.5t43 -17q43 0 70 46.5t27 115.5h61q0 -102 -47 -164t-113 -62q-29 0 -55.5 17t-46 41t-38.5 48 t-40.5 41t-42.5 17q-50 0 -78 -44t-28 -116h-58z" />
<glyph unicode="&#xc4;" horiz-adv-x="1392" d="M-35 27l944 1398h21l248 -1398l-78 -41l-84 489l-662 -18l-315 -471zM408 535l593 18l-116 684h-6zM733 1602q0 29 18.5 50t43.5 21t43 -20t18 -51q0 -30 -19 -49t-42 -19q-26 0 -44 18t-18 50zM1020 1602q0 29 18 50t43 21q26 0 44 -20t18 -51q0 -30 -19 -49t-43 -19 q-26 0 -43.5 18t-17.5 50z" />
<glyph unicode="&#xc5;" horiz-adv-x="1392" d="M-35 27l944 1398h21l248 -1398l-78 -41l-84 489l-662 -18l-315 -471zM408 535l593 18l-116 684h-6zM770 1688q0 75 53.5 128.5t128.5 53.5t129 -53.5t54 -128.5t-54 -129t-129 -54t-128.5 54t-53.5 129zM836 1688q0 -58 31 -90.5t83 -32.5q50 0 83.5 34t33.5 89 t-33.5 88.5t-83.5 33.5q-51 0 -82.5 -34.5t-31.5 -87.5z" />
<glyph unicode="&#xc6;" horiz-adv-x="1843" d="M59 33l1031 1349h32l733 21l-22 -78l-647 -16l-99 -551l596 16l-22 -78l-586 -16l-106 -614l676 22l-23 -78l-752 -20l82 483l-471 -16l-356 -471zM541 537l426 16l20 121l103 586h-5z" />
<glyph unicode="&#xc7;" horiz-adv-x="1351" d="M115 549q0 157 48 297.5t129.5 242t185.5 176t218.5 111.5t227.5 37q133 0 239 -45t174 -115l-51 -63q-55 61 -154 102t-210 41q-99 0 -199.5 -33t-193 -100.5t-164.5 -159.5t-115 -219.5t-43 -271.5q0 -221 128.5 -355.5t350.5 -134.5q128 0 246 43.5t211 116.5l33 -67 q-80 -70 -208 -118t-253 -54l-80 -103q176 0 176 -113q0 -65 -77 -112.5t-195 -59.5l2 54q91 14 143.5 43.5t52.5 72.5q0 31 -42 45.5t-99 14.5q-33 0 -61 -4l-7 18l115 146q-244 13 -386 167.5t-142 399.5z" />
<glyph unicode="&#xc8;" horiz-adv-x="1044" d="M72 -10l116 684l97 534l14 174l758 21l-23 -78l-647 -16l-98 -551l596 16l-23 -78l-586 -16l-106 -614l676 22l-23 -78zM514 1745v20h90l156 -254v-16h-53z" />
<glyph unicode="&#xc9;" horiz-adv-x="1044" d="M72 -10l116 684l97 534l14 174l758 21l-23 -78l-647 -16l-98 -551l596 16l-23 -78l-586 -16l-106 -614l676 22l-23 -78zM616 1495v16l267 254h98v-20l-305 -250h-60z" />
<glyph unicode="&#xca;" horiz-adv-x="1044" d="M72 -10l116 684l97 534l14 174l758 21l-23 -78l-647 -16l-98 -551l596 16l-23 -78l-586 -16l-106 -614l676 22l-23 -78zM471 1495v16l248 254h57l166 -254v-16h-53l-146 197l-219 -197h-53z" />
<glyph unicode="&#xcb;" horiz-adv-x="1044" d="M72 -10l116 684l97 534l14 174l758 21l-23 -78l-647 -16l-98 -551l596 16l-23 -78l-586 -16l-106 -614l676 22l-23 -78zM500 1602q0 29 18 50t43 21q26 0 44 -20t18 -51q0 -30 -19 -49t-43 -19q-26 0 -43.5 18t-17.5 50zM786 1602q0 29 18.5 50t43.5 21t43 -20t18 -51 q0 -30 -18.5 -49t-42.5 -19q-26 0 -44 18t-18 50z" />
<glyph unicode="&#xcc;" horiz-adv-x="552" d="M115 -10l131 753l86 492l14 147l105 21l-125 -676l-101 -565l-12 -152zM240 1745v20h90l155 -254v-16h-53z" />
<glyph unicode="&#xcd;" horiz-adv-x="552" d="M115 -10l131 753l86 492l14 147l105 21l-125 -676l-101 -565l-12 -152zM342 1495v16l266 254h99v-20l-306 -250h-59z" />
<glyph unicode="&#xce;" horiz-adv-x="552" d="M115 -10l131 753l86 492l14 147l105 21l-125 -676l-101 -565l-12 -152zM197 1495v16l247 254h58l166 -254v-16h-54l-145 197l-219 -197h-53z" />
<glyph unicode="&#xcf;" horiz-adv-x="552" d="M115 -10l131 753l86 492l14 147l105 21l-125 -676l-101 -565l-12 -152zM225 1602q0 29 18.5 50t43.5 21t43 -20t18 -51q0 -30 -19 -49t-42 -19q-26 0 -44 18t-18 50zM512 1602q0 29 18 50t43 21q26 0 44 -20t18 -51q0 -30 -19 -49t-43 -19q-26 0 -43.5 18t-17.5 50z" />
<glyph unicode="&#xd0;" horiz-adv-x="1372" d="M-37 651l14 74l226 8l82 486l16 163l354 15q176 7 313 -61t213 -198.5t76 -301.5q0 -159 -44.5 -296t-120.5 -234t-177.5 -166t-215.5 -102.5t-234 -33.5l-393 -14l118 669zM176 74l309 12q146 6 271.5 62t216.5 152t142.5 233.5t51.5 300.5q0 100 -29 182.5t-79 139.5 t-117 95.5t-143 55t-158 12.5l-250 -10l-102 -574l278 10l-14 -73l-279 -10z" />
<glyph unicode="&#xd1;" horiz-adv-x="1536" d="M72 -10l243 1401l54 16l792 -1257l10 4l185 1054l14 174l100 21l-243 -1403l-53 -14l-791 1255l-8 -4l-193 -1061l-12 -166zM639 1550q0 104 47 165t115 61q31 0 58 -17t47 -41.5t39 -49t40 -41.5t43 -17q43 0 69.5 46.5t26.5 115.5h62q0 -102 -47 -164t-113 -62 q-29 0 -55.5 17t-46 41t-38.5 48t-40.5 41t-42.5 17q-50 0 -78.5 -44t-28.5 -116h-57z" />
<glyph unicode="&#xd2;" horiz-adv-x="1576" d="M117 541q0 189 68.5 355t179.5 277.5t252.5 175.5t287.5 64q155 0 281.5 -68t202 -200t75.5 -305q0 -179 -61 -338t-166 -273.5t-253 -181.5t-316 -67q-123 0 -227.5 44t-174.5 120t-109.5 178.5t-39.5 218.5zM209 545q0 -100 30 -187.5t87.5 -154.5t149 -105.5 t206.5 -38.5q146 0 275.5 62.5t220.5 168t143 250t51 304.5q-2 217 -128 353t-339 136q-101 0 -202 -36t-189.5 -105.5t-157 -163.5t-108 -219.5t-39.5 -263.5zM756 1745v20h90l155 -254v-16h-53z" />
<glyph unicode="&#xd3;" horiz-adv-x="1576" d="M117 541q0 189 68.5 355t179.5 277.5t252.5 175.5t287.5 64q155 0 281.5 -68t202 -200t75.5 -305q0 -179 -61 -338t-166 -273.5t-253 -181.5t-316 -67q-123 0 -227.5 44t-174.5 120t-109.5 178.5t-39.5 218.5zM209 545q0 -100 30 -187.5t87.5 -154.5t149 -105.5 t206.5 -38.5q146 0 275.5 62.5t220.5 168t143 250t51 304.5q-2 217 -128 353t-339 136q-101 0 -202 -36t-189.5 -105.5t-157 -163.5t-108 -219.5t-39.5 -263.5zM858 1495v16l266 254h99v-20l-305 -250h-60z" />
<glyph unicode="&#xd4;" horiz-adv-x="1576" d="M117 541q0 189 68.5 355t179.5 277.5t252.5 175.5t287.5 64q155 0 281.5 -68t202 -200t75.5 -305q0 -179 -61 -338t-166 -273.5t-253 -181.5t-316 -67q-123 0 -227.5 44t-174.5 120t-109.5 178.5t-39.5 218.5zM209 545q0 -100 30 -187.5t87.5 -154.5t149 -105.5 t206.5 -38.5q146 0 275.5 62.5t220.5 168t143 250t51 304.5q-2 217 -128 353t-339 136q-101 0 -202 -36t-189.5 -105.5t-157 -163.5t-108 -219.5t-39.5 -263.5zM713 1495v16l248 254h57l166 -254v-16h-54l-145 197l-219 -197h-53z" />
<glyph unicode="&#xd5;" horiz-adv-x="1576" d="M117 541q0 189 68.5 355t179.5 277.5t252.5 175.5t287.5 64q155 0 281.5 -68t202 -200t75.5 -305q0 -179 -61 -338t-166 -273.5t-253 -181.5t-316 -67q-123 0 -227.5 44t-174.5 120t-109.5 178.5t-39.5 218.5zM209 545q0 -100 30 -187.5t87.5 -154.5t149 -105.5 t206.5 -38.5q146 0 275.5 62.5t220.5 168t143 250t51 304.5q-2 217 -128 353t-339 136q-101 0 -202 -36t-189.5 -105.5t-157 -163.5t-108 -219.5t-39.5 -263.5zM655 1550q0 104 47 165t115 61q31 0 58 -17t47 -41.5t39 -49t40 -41.5t43 -17q43 0 70 46.5t27 115.5h61 q0 -102 -47 -164t-113 -62q-29 0 -55.5 17t-46 41t-38.5 48t-40.5 41t-42.5 17q-50 0 -78 -44t-28 -116h-58z" />
<glyph unicode="&#xd6;" horiz-adv-x="1576" d="M117 541q0 189 68.5 355t179.5 277.5t252.5 175.5t287.5 64q155 0 281.5 -68t202 -200t75.5 -305q0 -179 -61 -338t-166 -273.5t-253 -181.5t-316 -67q-123 0 -227.5 44t-174.5 120t-109.5 178.5t-39.5 218.5zM209 545q0 -100 30 -187.5t87.5 -154.5t149 -105.5 t206.5 -38.5q146 0 275.5 62.5t220.5 168t143 250t51 304.5q-2 217 -128 353t-339 136q-101 0 -202 -36t-189.5 -105.5t-157 -163.5t-108 -219.5t-39.5 -263.5zM741 1602q0 29 18.5 50t43.5 21t43 -20t18 -51q0 -30 -19 -49t-42 -19q-26 0 -44 18t-18 50zM1028 1602 q0 29 18.5 50t43.5 21t43 -20t18 -51q0 -30 -18.5 -49t-42.5 -19q-26 0 -44 18t-18 50z" />
<glyph unicode="&#xd7;" horiz-adv-x="1085" d="M158 279l327 327l-327 328l57 57l328 -327l327 327l58 -57l-328 -328l328 -327l-58 -58l-327 328l-328 -328z" />
<glyph unicode="&#xd8;" horiz-adv-x="1576" d="M117 541q0 189 68.5 355t179.5 277.5t252.5 175.5t287.5 64q196 0 338 -106l127 159l57 -39l-131 -165q168 -161 168 -422q0 -179 -61 -338t-166 -273.5t-253 -181.5t-316 -67q-174 0 -312 88l-129 -166l-57 39l131 168q-88 77 -136 189.5t-48 242.5zM209 545 q0 -238 145 -371l840 1069q-120 90 -289 90q-101 0 -202 -36t-189.5 -105.5t-157 -163.5t-108 -219.5t-39.5 -263.5zM408 133q113 -74 274 -74q146 0 275.5 62.5t220.5 168t143 250t51 304.5q-3 216 -127 352z" />
<glyph unicode="&#xd9;" horiz-adv-x="1413" d="M146.5 360q-4.5 62 9.5 125l131 732l12 165l102 21l-153 -883q-41 -238 52.5 -350.5t295.5 -112.5q96 0 177 26t149 80t115 144.5t69 212.5l121 676l16 186l103 21l-158 -907q-41 -239 -193.5 -377.5t-410.5 -138.5q-88 0 -160.5 20t-121.5 55t-84.5 83t-51 104t-20 118z M653 1745v20h90l156 -254v-16h-53z" />
<glyph unicode="&#xda;" horiz-adv-x="1413" d="M146.5 360q-4.5 62 9.5 125l131 732l12 165l102 21l-153 -883q-41 -238 52.5 -350.5t295.5 -112.5q96 0 177 26t149 80t115 144.5t69 212.5l121 676l16 186l103 21l-158 -907q-41 -239 -193.5 -377.5t-410.5 -138.5q-88 0 -160.5 20t-121.5 55t-84.5 83t-51 104t-20 118z M756 1495v16l266 254h98v-20l-305 -250h-59z" />
<glyph unicode="&#xdb;" horiz-adv-x="1413" d="M146.5 360q-4.5 62 9.5 125l131 732l12 165l102 21l-153 -883q-41 -238 52.5 -350.5t295.5 -112.5q96 0 177 26t149 80t115 144.5t69 212.5l121 676l16 186l103 21l-158 -907q-41 -239 -193.5 -377.5t-410.5 -138.5q-88 0 -160.5 20t-121.5 55t-84.5 83t-51 104t-20 118z M610 1495v16l248 254h57l166 -254v-16h-53l-145 197l-219 -197h-54z" />
<glyph unicode="&#xdc;" horiz-adv-x="1413" d="M146.5 360q-4.5 62 9.5 125l131 732l12 165l102 21l-153 -883q-41 -238 52.5 -350.5t295.5 -112.5q96 0 177 26t149 80t115 144.5t69 212.5l121 676l16 186l103 21l-158 -907q-41 -239 -193.5 -377.5t-410.5 -138.5q-88 0 -160.5 20t-121.5 55t-84.5 83t-51 104t-20 118z M639 1602q0 29 18 50t43 21q26 0 44 -20t18 -51q0 -30 -19 -49t-43 -19q-26 0 -43.5 18t-17.5 50zM926 1602q0 29 18 50t43 21q26 0 44 -20t18 -51q0 -30 -19 -49t-43 -19q-26 0 -43.5 18t-17.5 50z" />
<glyph unicode="&#xdd;" horiz-adv-x="1208" d="M188 1360l70 43l346 -694h4l584 694l68 -45l-623 -737l-86 -484l-6 -127l-103 -20l109 633zM653 1495v16l267 254h98v-20l-305 -250h-60z" />
<glyph unicode="&#xde;" horiz-adv-x="1064" d="M72 -10l217 1245l10 147l102 4l-53 -299l199 11q187 9 299 -83.5t112 -252.5q0 -135 -70.5 -236t-183 -153t-251.5 -58l-242 -6l-29 -166l-8 -133zM225 389l232 8q82 2 154.5 25.5t130.5 67.5t91.5 114.5t32.5 159.5q0 121 -87 189.5t-232 62.5l-213 -10z" />
<glyph unicode="&#xdf;" horiz-adv-x="1126" d="M90 -252l189 1096l-181 -10l27 73l166 11l16 88q35 185 147.5 296t282.5 111q85 0 153.5 -34t113.5 -103t48 -172.5t-42 -241.5q-171 24 -267 -21.5t-96 -131.5q0 -43 34 -88.5t82.5 -87t97 -86t82.5 -102t34 -118.5q0 -119 -85.5 -184.5t-209.5 -65.5q-86 0 -157.5 32 t-114.5 81l49 60h4q101 -97 221 -97q91 0 149 43.5t58 124.5q0 46 -24.5 90t-61 77t-79.5 70.5t-79.5 71.5t-61 80t-24.5 95q0 117 105 183t284 54q53 171 -8 283t-209 112q-75 0 -136 -26t-102 -72t-67 -102.5t-37 -122.5l-188 -1071l-15 -174z" />
<glyph unicode="&#xe0;" horiz-adv-x="921" d="M33 199q0 93 39 170q106 84 260.5 122.5t310.5 24.5l19 100q21 112 -30 179t-149 67q-126 0 -280 -112l-31 63q165 125 313 125q135 0 209 -89t49 -226l-71 -410q-11 -63 0 -115t43 -78v-4l-68 -39q-57 49 -53 177h-6q-52 -59 -152.5 -112t-193.5 -65q-105 20 -157 78.5 t-52 143.5zM113 211q0 -125 143 -154q100 12 199 68.5t135 118.5l41 202q-132 14 -267.5 -16t-226.5 -106q-24 -67 -24 -113zM322 1384v9h92l170 -326v-6h-54z" />
<glyph unicode="&#xe1;" horiz-adv-x="921" d="M33 199q0 93 39 170q106 84 260.5 122.5t310.5 24.5l19 100q21 112 -30 179t-149 67q-126 0 -280 -112l-31 63q165 125 313 125q135 0 209 -89t49 -226l-71 -410q-11 -63 0 -115t43 -78v-4l-68 -39q-57 49 -53 177h-6q-52 -59 -152.5 -112t-193.5 -65q-105 20 -157 78.5 t-52 143.5zM113 211q0 -125 143 -154q100 12 199 68.5t135 118.5l41 202q-132 14 -267.5 -16t-226.5 -106q-24 -67 -24 -113zM440 1061v6l248 326h100v-9l-284 -323h-64z" />
<glyph unicode="&#xe2;" horiz-adv-x="921" d="M33 199q0 93 39 170q106 84 260.5 122.5t310.5 24.5l19 100q21 112 -30 179t-149 67q-126 0 -280 -112l-31 63q165 125 313 125q135 0 209 -89t49 -226l-71 -410q-11 -63 0 -115t43 -78v-4l-68 -39q-57 49 -53 177h-6q-52 -59 -152.5 -112t-193.5 -65q-105 20 -157 78.5 t-52 143.5zM113 211q0 -125 143 -154q100 12 199 68.5t135 118.5l41 202q-132 14 -267.5 -16t-226.5 -106q-24 -67 -24 -113zM283 1061v12l247 320h78l146 -320v-12h-54l-135 258l-229 -258h-53z" />
<glyph unicode="&#xe3;" horiz-adv-x="921" d="M33 199q0 93 39 170q106 84 260.5 122.5t310.5 24.5l19 100q21 112 -30 179t-149 67q-126 0 -280 -112l-31 63q165 125 313 125q135 0 209 -89t49 -226l-71 -410q-11 -63 0 -115t43 -78v-4l-68 -39q-57 49 -53 177h-6q-52 -59 -152.5 -112t-193.5 -65q-105 20 -157 78.5 t-52 143.5zM113 211q0 -125 143 -154q100 12 199 68.5t135 118.5l41 202q-132 14 -267.5 -16t-226.5 -106q-24 -67 -24 -113zM238 1096q0 105 46.5 165t114.5 60q37 0 71 -26t55 -57t48.5 -57t53.5 -26q43 0 69.5 46.5t26.5 115.5h61q0 -102 -46.5 -163.5t-112.5 -61.5 q-29 0 -55.5 17t-46.5 41t-39 47.5t-40.5 40.5t-42.5 17q-50 0 -78 -43.5t-28 -115.5h-57z" />
<glyph unicode="&#xe4;" horiz-adv-x="921" d="M33 199q0 93 39 170q106 84 260.5 122.5t310.5 24.5l19 100q21 112 -30 179t-149 67q-126 0 -280 -112l-31 63q165 125 313 125q135 0 209 -89t49 -226l-71 -410q-11 -63 0 -115t43 -78v-4l-68 -39q-57 49 -53 177h-6q-52 -59 -152.5 -112t-193.5 -65q-105 20 -157 78.5 t-52 143.5zM113 211q0 -125 143 -154q100 12 199 68.5t135 118.5l41 202q-132 14 -267.5 -16t-226.5 -106q-24 -67 -24 -113zM324 1147q0 29 18 50.5t43 21.5t43 -20t18 -52q0 -31 -19 -49.5t-42 -18.5q-26 0 -43.5 18t-17.5 50zM610 1147q0 29 18.5 50.5t43.5 21.5t43 -20 t18 -52q0 -31 -18.5 -49.5t-42.5 -18.5q-26 0 -44 18t-18 50z" />
<glyph unicode="&#xe5;" horiz-adv-x="921" d="M33 199q0 93 39 170q106 84 260.5 122.5t310.5 24.5l19 100q21 112 -30 179t-149 67q-126 0 -280 -112l-31 63q165 125 313 125q135 0 209 -89t49 -226l-71 -410q-11 -63 0 -115t43 -78v-4l-68 -39q-57 49 -53 177h-6q-52 -59 -152.5 -112t-193.5 -65q-105 20 -157 78.5 t-52 143.5zM113 211q0 -125 143 -154q100 12 199 68.5t135 118.5l41 202q-132 14 -267.5 -16t-226.5 -106q-24 -67 -24 -113zM360 1233q0 75 54 128.5t129 53.5t128.5 -53.5t53.5 -128.5t-53.5 -128.5t-128.5 -53.5t-129 53.5t-54 128.5zM426 1233q0 -58 31.5 -90.5 t83.5 -32.5q50 0 83 34t33 89t-33 89t-83 34q-51 0 -83 -35t-32 -88z" />
<glyph unicode="&#xe6;" horiz-adv-x="1433" d="M33 199q0 89 41 170q104 78 251.5 113.5t297.5 23.5l18 110q18 111 -27.5 178.5t-130.5 67.5q-126 0 -280 -112l-35 67q63 48 149 84.5t168 36.5q96 0 160.5 -54.5t79.5 -144.5q66 94 150.5 146.5t175.5 52.5q110 0 184 -81t74 -202q0 -58 -21 -112q-97 -61 -279.5 -95.5 t-322.5 -23.5q-17 -184 51 -276.5t176 -92.5q68 0 139.5 27t123.5 74h6l30 -64q-135 -112 -317 -112q-91 0 -171 68t-101 175q-52 -101 -162.5 -165.5t-218.5 -77.5q-99 18 -154 74t-55 145zM113 211q0 -64 35.5 -100t107.5 -56q44 6 87.5 20t90.5 43.5t83.5 70.5t62 105 t30.5 142q-126 13 -257 -14.5t-218 -97.5q-22 -61 -22 -113zM700 494q137 -10 284 16t239 76q6 54 6 65q0 96 -53 153.5t-134 57.5q-114 0 -212 -105t-130 -263z" />
<glyph unicode="&#xe7;" horiz-adv-x="819" d="M66 336q0 131 40 244.5t106.5 191t154 122t180.5 44.5q147 0 239 -102l-49 -60q-83 86 -196 86q-156 0 -272.5 -149t-116.5 -371q0 -55 13.5 -104.5t41 -91.5t74.5 -66.5t108 -24.5q125 0 227 78l35 -63q-108 -84 -254 -90l-78 -103q177 0 177 -113q0 -65 -77.5 -112.5 t-195.5 -59.5l2 54q91 14 144 43.5t53 72.5q0 31 -42 45.5t-99 14.5q-34 0 -62 -4l-6 18l117 150q-123 20 -193.5 118.5t-70.5 231.5z" />
<glyph unicode="&#xe8;" horiz-adv-x="921" d="M66 315q0 172 67 316.5t175.5 225.5t230.5 81q110 0 184 -81t74 -202q0 -62 -17 -112q-99 -67 -290 -104t-336 -25q-10 -92 6.5 -163.5t53.5 -113t84.5 -62t102.5 -20.5q68 0 139.5 27t123.5 74h6l30 -64q-135 -112 -317 -112q-133 0 -225 91.5t-92 243.5zM168 483 q142 -12 293.5 18t247.5 85q8 36 8 65q0 96 -53 153.5t-134 57.5q-120 0 -223.5 -108t-138.5 -271zM352 1384v9h92l170 -326v-6h-53z" />
<glyph unicode="&#xe9;" horiz-adv-x="921" d="M66 315q0 172 67 316.5t175.5 225.5t230.5 81q110 0 184 -81t74 -202q0 -62 -17 -112q-99 -67 -290 -104t-336 -25q-10 -92 6.5 -163.5t53.5 -113t84.5 -62t102.5 -20.5q68 0 139.5 27t123.5 74h6l30 -64q-135 -112 -317 -112q-133 0 -225 91.5t-92 243.5zM168 483 q142 -12 293.5 18t247.5 85q8 36 8 65q0 96 -53 153.5t-134 57.5q-120 0 -223.5 -108t-138.5 -271zM471 1061v6l248 326h100v-9l-284 -323h-64z" />
<glyph unicode="&#xea;" horiz-adv-x="921" d="M66 315q0 172 67 316.5t175.5 225.5t230.5 81q110 0 184 -81t74 -202q0 -62 -17 -112q-99 -67 -290 -104t-336 -25q-10 -92 6.5 -163.5t53.5 -113t84.5 -62t102.5 -20.5q68 0 139.5 27t123.5 74h6l30 -64q-135 -112 -317 -112q-133 0 -225 91.5t-92 243.5zM168 483 q142 -12 293.5 18t247.5 85q8 36 8 65q0 96 -53 153.5t-134 57.5q-120 0 -223.5 -108t-138.5 -271zM313 1061v12l248 320h78l145 -320v-12h-53l-135 258l-229 -258h-54z" />
<glyph unicode="&#xeb;" horiz-adv-x="921" d="M66 315q0 172 67 316.5t175.5 225.5t230.5 81q110 0 184 -81t74 -202q0 -62 -17 -112q-99 -67 -290 -104t-336 -25q-10 -92 6.5 -163.5t53.5 -113t84.5 -62t102.5 -20.5q68 0 139.5 27t123.5 74h6l30 -64q-135 -112 -317 -112q-133 0 -225 91.5t-92 243.5zM168 483 q142 -12 293.5 18t247.5 85q8 36 8 65q0 96 -53 153.5t-134 57.5q-120 0 -223.5 -108t-138.5 -271zM354 1147q0 29 18.5 50.5t43.5 21.5t43 -20t18 -52q0 -31 -18.5 -49.5t-42.5 -18.5q-26 0 -44 18t-18 50zM641 1147q0 29 18 50.5t43 21.5t43.5 -20.5t18.5 -51.5 q0 -30 -19 -49t-43 -19q-26 0 -43.5 18t-17.5 50z" />
<glyph unicode="&#xec;" horiz-adv-x="471" d="M82 -10l133 774l10 149l101 11l-131 -742l-15 -172zM109 1384v9h92l170 -326v-6h-54z" />
<glyph unicode="&#xed;" horiz-adv-x="471" d="M82 -10l133 774l10 149l101 11l-131 -742l-15 -172zM227 1061v6l248 326h100v-9l-284 -323h-64z" />
<glyph unicode="&#xee;" horiz-adv-x="471" d="M70 1061v12l247 320h78l146 -320v-12h-54l-135 258l-229 -258h-53zM82 -10l133 774l10 149l101 11l-131 -742l-15 -172z" />
<glyph unicode="&#xef;" horiz-adv-x="471" d="M82 -10l133 774l10 149l101 11l-131 -742l-15 -172zM111 1147q0 29 18 50.5t43 21.5t43 -20t18 -52q0 -31 -18.5 -49.5t-42.5 -18.5q-26 0 -43.5 18t-17.5 50zM397 1147q0 29 18.5 50.5t43.5 21.5t43 -20t18 -52q0 -31 -19 -49.5t-42 -18.5q-26 0 -44 18t-18 50z" />
<glyph unicode="&#xf0;" d="M61 346q0 121 40.5 232t106 189t150 124.5t170.5 46.5q77 0 145 -34t103 -97l8 4q-33 219 -168 367l-210 -129l-25 49l194 116q-86 77 -192 121l25 76q146 -63 239 -151l244 147l22 -49l-227 -137q188 -205 188 -523q0 -323 -132.5 -520.5t-352.5 -197.5q-146 0 -237 101 t-91 265zM147 352q0 -133 64.5 -215t179.5 -82q101 0 191.5 72t143 190.5t48.5 247.5q0 136 -65 216.5t-183 80.5q-96 0 -183 -68t-141.5 -186.5t-54.5 -255.5z" />
<glyph unicode="&#xf1;" horiz-adv-x="983" d="M39 -10l127 696l22 221l84 21l-10 -142h6q166 152 336 152q119 0 183 -79.5t40 -217.5l-77 -444l-17 -187l-100 -20l110 635q21 121 -22.5 179t-136.5 58q-84 0 -173 -48.5t-165 -129.5l-90 -487l-17 -187zM289 1096q0 104 47 164.5t115 60.5q31 0 58 -17t47 -41.5 t39 -49t40 -41.5t43 -17q43 0 69.5 46.5t26.5 115.5h62q0 -102 -47 -163.5t-113 -61.5q-35 0 -67.5 25.5t-53.5 56t-48.5 56t-53.5 25.5q-50 0 -78.5 -43.5t-28.5 -115.5h-57z" />
<glyph unicode="&#xf2;" d="M66 336q0 170 67 309t177.5 216t238.5 77q144 0 229.5 -104.5t85.5 -262.5q0 -160 -62.5 -295.5t-172.5 -215.5t-242 -80q-140 0 -230.5 100t-90.5 256zM154 352q0 -138 66 -217.5t173 -79.5q113 0 203 76.5t136 190.5t46 237q0 136 -61.5 219.5t-169.5 83.5 q-107 0 -197.5 -69t-143 -186.5t-52.5 -254.5zM373 1384v9h92l170 -326v-6h-53z" />
<glyph unicode="&#xf3;" d="M66 336q0 170 67 309t177.5 216t238.5 77q144 0 229.5 -104.5t85.5 -262.5q0 -160 -62.5 -295.5t-172.5 -215.5t-242 -80q-140 0 -230.5 100t-90.5 256zM154 352q0 -138 66 -217.5t173 -79.5q113 0 203 76.5t136 190.5t46 237q0 136 -61.5 219.5t-169.5 83.5 q-107 0 -197.5 -69t-143 -186.5t-52.5 -254.5zM492 1061v6l247 326h101v-9l-285 -323h-63z" />
<glyph unicode="&#xf4;" d="M66 336q0 170 67 309t177.5 216t238.5 77q144 0 229.5 -104.5t85.5 -262.5q0 -160 -62.5 -295.5t-172.5 -215.5t-242 -80q-140 0 -230.5 100t-90.5 256zM154 352q0 -138 66 -217.5t173 -79.5q113 0 203 76.5t136 190.5t46 237q0 136 -61.5 219.5t-169.5 83.5 q-107 0 -197.5 -69t-143 -186.5t-52.5 -254.5zM334 1061v12l248 320h77l146 -320v-12h-53l-136 258l-229 -258h-53z" />
<glyph unicode="&#xf5;" d="M66 336q0 170 67 309t177.5 216t238.5 77q144 0 229.5 -104.5t85.5 -262.5q0 -160 -62.5 -295.5t-172.5 -215.5t-242 -80q-140 0 -230.5 100t-90.5 256zM154 352q0 -138 66 -217.5t173 -79.5q113 0 203 76.5t136 190.5t46 237q0 136 -61.5 219.5t-169.5 83.5 q-107 0 -197.5 -69t-143 -186.5t-52.5 -254.5zM289 1096q0 104 47 164.5t115 60.5q31 0 58 -17t47 -41.5t39 -49t40 -41.5t43 -17q43 0 69.5 46.5t26.5 115.5h62q0 -102 -47 -163.5t-113 -61.5q-35 0 -67.5 25.5t-53.5 56t-48.5 56t-53.5 25.5q-50 0 -78.5 -43.5 t-28.5 -115.5h-57z" />
<glyph unicode="&#xf6;" d="M66 336q0 170 67 309t177.5 216t238.5 77q144 0 229.5 -104.5t85.5 -262.5q0 -160 -62.5 -295.5t-172.5 -215.5t-242 -80q-140 0 -230.5 100t-90.5 256zM154 352q0 -138 66 -217.5t173 -79.5q113 0 203 76.5t136 190.5t46 237q0 136 -61.5 219.5t-169.5 83.5 q-107 0 -197.5 -69t-143 -186.5t-52.5 -254.5zM375 1147q0 29 18 50.5t43 21.5t43.5 -20.5t18.5 -51.5q0 -30 -19 -49t-43 -19q-26 0 -43.5 18t-17.5 50zM662 1147q0 29 18 50.5t43 21.5t43 -20t18 -52q0 -31 -19 -49.5t-42 -18.5q-26 0 -43.5 18t-17.5 50z" />
<glyph unicode="&#xf7;" horiz-adv-x="1085" d="M88 575v82h909v-82h-909zM455 281q0 37 25.5 62.5t62.5 25.5t62.5 -25.5t25.5 -62.5t-25.5 -62.5t-62.5 -25.5t-62.5 25.5t-25.5 62.5zM455 952q0 37 25.5 62.5t62.5 25.5t62.5 -25.5t25.5 -62.5t-25.5 -62.5t-62.5 -25.5t-62.5 25.5t-25.5 62.5z" />
<glyph unicode="&#xf8;" d="M63 -39l91 121q-88 101 -88 254q0 170 67 309t177.5 216t238.5 77q106 0 186 -64l82 113l53 -35l-90 -123q84 -105 84 -258q0 -160 -62.5 -295.5t-172.5 -215.5t-242 -80q-108 0 -188 59l-82 -113zM154 352q0 -122 51 -198l483 657q-57 51 -141 51q-107 0 -197.5 -69 t-143 -186.5t-52.5 -254.5zM248 106q60 -51 145 -51q113 0 203 76.5t136 190.5t46 237q0 120 -49 201z" />
<glyph unicode="&#xf9;" horiz-adv-x="983" d="M76 287l86 483l8 137l98 21l-106 -623q-22 -126 20.5 -188t126.5 -62q88 0 185 51t165 132l93 503l12 166l98 21l-135 -791l-8 -127l-84 -20l14 147h-6q-76 -73 -170 -115t-184 -42q-49 0 -92 19.5t-75 56.5t-45.5 97t-0.5 134zM348 1384v9h92l170 -326v-6h-53z" />
<glyph unicode="&#xfa;" horiz-adv-x="983" d="M76 287l86 483l8 137l98 21l-106 -623q-22 -126 20.5 -188t126.5 -62q88 0 185 51t165 132l93 503l12 166l98 21l-135 -791l-8 -127l-84 -20l14 147h-6q-76 -73 -170 -115t-184 -42q-49 0 -92 19.5t-75 56.5t-45.5 97t-0.5 134zM467 1061v6l248 326h100v-9l-285 -323h-63 z" />
<glyph unicode="&#xfb;" horiz-adv-x="983" d="M76 287l86 483l8 137l98 21l-106 -623q-22 -126 20.5 -188t126.5 -62q88 0 185 51t165 132l93 503l12 166l98 21l-135 -791l-8 -127l-84 -20l14 147h-6q-76 -73 -170 -115t-184 -42q-49 0 -92 19.5t-75 56.5t-45.5 97t-0.5 134zM309 1061v12l248 320h78l145 -320v-12h-53 l-135 258l-230 -258h-53z" />
<glyph unicode="&#xfc;" horiz-adv-x="983" d="M76 287l86 483l8 137l98 21l-106 -623q-22 -126 20.5 -188t126.5 -62q88 0 185 51t165 132l93 503l12 166l98 21l-135 -791l-8 -127l-84 -20l14 147h-6q-76 -73 -170 -115t-184 -42q-49 0 -92 19.5t-75 56.5t-45.5 97t-0.5 134zM350 1147q0 29 18.5 50.5t43.5 21.5 t43 -20t18 -52q0 -31 -18.5 -49.5t-42.5 -18.5q-26 0 -44 18t-18 50zM637 1147q0 29 18 50.5t43 21.5t43.5 -20.5t18.5 -51.5q0 -30 -19 -49t-43 -19q-26 0 -43.5 18t-17.5 50z" />
<glyph unicode="&#xfd;" horiz-adv-x="901" d="M-53 -377q87 37 165 144.5t171 295.5l-172 842l79 25l154 -770h6l438 770l80 -25l-624 -1073q-61 -104 -103.5 -156.5t-87.5 -81.5l-102 -18zM432 1061v6l248 326h100v-9l-284 -323h-64z" />
<glyph unicode="&#xfe;" d="M-39 -418l283 1620l16 195l107 22l-142 -766h4q51 94 176 187.5t216 99.5q111 -20 177 -111t66 -227q0 -137 -46.5 -257.5t-118.5 -198t-157.5 -122t-166.5 -44.5q-75 0 -143 40t-93 95h-4l-67 -387l-5 -121zM156 223q21 -75 81.5 -121.5t145.5 -46.5q44 0 95 20 t104 64.5t96 106t70.5 153.5t27.5 199q0 113 -49.5 182t-122.5 80q-81 -8 -198 -105t-195 -225z" />
<glyph unicode="&#xff;" horiz-adv-x="901" d="M-53 -377q87 37 165 144.5t171 295.5l-172 842l79 25l154 -770h6l438 770l80 -25l-624 -1073q-61 -104 -103.5 -156.5t-87.5 -81.5l-102 -18zM315 1147q0 29 18.5 50.5t43.5 21.5t43 -20t18 -52q0 -31 -19 -49.5t-42 -18.5q-26 0 -44 18t-18 50zM602 1147q0 29 18.5 50.5 t43.5 21.5t43 -20t18 -52q0 -31 -18.5 -49.5t-42.5 -18.5q-26 0 -44 18t-18 50z" />
<glyph unicode="&#x152;" horiz-adv-x="1884" d="M117 541q0 189 68.5 355t179.5 277.5t252.5 175.5t287.5 64q133 0 254 -31l737 21l-22 -78l-647 -16l-99 -551l596 16l-22 -78l-586 -16l-106 -614l676 22l-23 -78l-748 -20q-95 -19 -227 -19q-128 0 -235.5 44.5t-180.5 121.5t-114 181.5t-41 222.5zM209 545 q0 -103 31.5 -191.5t91.5 -156.5t155 -107t215 -39q132 0 224 21l102 602l96 534l19 95q-113 30 -238 30q-101 0 -202 -36t-189.5 -105.5t-157 -163.5t-108 -219.5t-39.5 -263.5z" />
<glyph unicode="&#x153;" horiz-adv-x="1576" d="M66 336q0 170 67 309t177.5 216t238.5 77q100 0 176 -70t100 -180q71 114 168 182t201 68q110 0 184 -81t74 -202q0 -61 -20 -112q-97 -67 -280 -104t-323 -25q-17 -179 51.5 -269t176.5 -90q68 0 139 27t123 74h6l31 -64q-135 -112 -318 -112q-94 0 -175.5 70 t-104.5 173q-68 -112 -165.5 -177.5t-205.5 -65.5q-140 0 -230.5 100t-90.5 256zM154 352q0 -138 66 -217.5t173 -79.5q81 0 151 45t116 117t72 161.5t26 180.5q0 136 -56 219.5t-155 83.5q-107 0 -197.5 -69t-143 -186.5t-52.5 -254.5zM844 483q135 -12 282 18t240 85 q6 54 6 65q0 96 -52.5 153.5t-133.5 57.5q-114 0 -212 -108t-130 -271z" />
<glyph unicode="&#x178;" horiz-adv-x="1208" d="M188 1360l70 43l346 -694h4l584 694l68 -45l-623 -737l-86 -484l-6 -127l-103 -20l109 633zM537 1602q0 29 18 50t43 21t43 -20t18 -51q0 -30 -18.5 -49t-42.5 -19q-26 0 -43.5 18t-17.5 50zM823 1602q0 29 18.5 50t43.5 21t43 -20t18 -51q0 -30 -19 -49t-42 -19 q-26 0 -44 18t-18 50z" />
<glyph unicode="&#x2c6;" horiz-adv-x="1024" d="M283 958v13l247 319h78l146 -319v-13h-54l-135 259l-229 -259h-53z" />
<glyph unicode="&#x2dc;" horiz-adv-x="1024" d="M238 993q0 105 46.5 165.5t114.5 60.5q37 0 71 -26t55 -57t48.5 -57t53.5 -26q43 0 69.5 46t26.5 115h61q0 -102 -46.5 -163.5t-112.5 -61.5q-29 0 -55.5 17t-46.5 41t-39 48t-40.5 41t-42.5 17q-50 0 -78 -44t-28 -116h-57z" />
<glyph unicode="&#x2000;" horiz-adv-x="935" />
<glyph unicode="&#x2001;" horiz-adv-x="1870" />
<glyph unicode="&#x2002;" horiz-adv-x="935" />
<glyph unicode="&#x2003;" horiz-adv-x="1870" />
<glyph unicode="&#x2004;" horiz-adv-x="623" />
<glyph unicode="&#x2005;" horiz-adv-x="467" />
<glyph unicode="&#x2006;" horiz-adv-x="311" />
<glyph unicode="&#x2007;" horiz-adv-x="311" />
<glyph unicode="&#x2008;" horiz-adv-x="233" />
<glyph unicode="&#x2009;" horiz-adv-x="374" />
<glyph unicode="&#x200a;" horiz-adv-x="103" />
<glyph unicode="&#x2010;" horiz-adv-x="696" d="M82 442l12 78l492 21l-13 -78z" />
<glyph unicode="&#x2011;" horiz-adv-x="696" d="M82 442l12 78l492 21l-13 -78z" />
<glyph unicode="&#x2012;" horiz-adv-x="696" d="M82 442l12 78l492 21l-13 -78z" />
<glyph unicode="&#x2013;" horiz-adv-x="983" d="M78 438l12 78l778 29l-12 -78z" />
<glyph unicode="&#x2014;" horiz-adv-x="2048" d="M137 453v77h1671v-77h-1671z" />
<glyph unicode="&#x2018;" horiz-adv-x="573" d="M176 889v12q55 125 153.5 266t196.5 226h72v-7q-99 -105 -183.5 -238t-131.5 -259h-107z" />
<glyph unicode="&#x2019;" horiz-adv-x="573" d="M125 889v6q98 104 183 238t132 260h107v-13q-55 -125 -153.5 -265.5t-196.5 -225.5h-72z" />
<glyph unicode="&#x201a;" horiz-adv-x="573" d="M-25 -262q99 105 184 239t132 259h106v-13q-55 -125 -153.5 -265.5t-196.5 -225.5h-72v6z" />
<glyph unicode="&#x201c;" horiz-adv-x="962" d="M176 889v12q55 125 153.5 266t196.5 226h72v-7q-99 -105 -183.5 -238t-131.5 -259h-107zM565 889v12q55 125 153.5 266t196.5 226h72v-7q-99 -105 -183.5 -238t-131.5 -259h-107z" />
<glyph unicode="&#x201d;" horiz-adv-x="962" d="M125 889v6q98 104 183 238t132 260h107v-13q-55 -125 -153.5 -265.5t-196.5 -225.5h-72zM514 889v6q98 104 183 238t132 260h107v-13q-55 -125 -153.5 -265.5t-196.5 -225.5h-72z" />
<glyph unicode="&#x201e;" horiz-adv-x="962" d="M-25 -262q99 105 184 239t132 259h106v-13q-55 -125 -153.5 -265.5t-196.5 -225.5h-72v6zM365 -262q98 104 183 238t132 260h106v-13q-55 -125 -153.5 -265.5t-196.5 -225.5h-71v6z" />
<glyph unicode="&#x2022;" horiz-adv-x="983" d="M254 541q0 92 65.5 157.5t157.5 65.5t157.5 -65.5t65.5 -157.5t-65.5 -158t-157.5 -66t-157.5 66t-65.5 158z" />
<glyph unicode="&#x2026;" horiz-adv-x="1863" d="M119 76q0 37 23 63.5t57 26.5q32 0 56 -26.5t24 -63.5q0 -38 -23.5 -64t-56.5 -26q-34 0 -57 26t-23 64zM774 76q0 37 23 63.5t57 26.5q32 0 56 -26.5t24 -63.5q0 -38 -23.5 -64t-56.5 -26q-34 0 -57 26t-23 64zM1430 76q0 37 23 63.5t56 26.5q32 0 56 -26.5t24 -63.5 q0 -38 -23.5 -64t-56.5 -26q-34 0 -56.5 26t-22.5 64z" />
<glyph unicode="&#x202f;" horiz-adv-x="374" />
<glyph unicode="&#x2039;" horiz-adv-x="839" d="M111 453v18l548 469l43 -51l-469 -434v-4l291 -422l-51 -37z" />
<glyph unicode="&#x203a;" horiz-adv-x="839" d="M76 43l469 434v4l-291 422l51 37l363 -461v-18l-549 -469z" />
<glyph unicode="&#x205f;" horiz-adv-x="467" />
<glyph unicode="&#x20ac;" horiz-adv-x="1249" d="M72 547l32 78h107q6 62 22 133h-124l32 78h115q44 135 125 246t178.5 182.5t205 110t210.5 38.5q185 0 299 -82l-49 -65q-40 22 -66 33.5t-77.5 22.5t-112.5 11q-190 0 -366.5 -135.5t-256.5 -361.5h705l-33 -78h-694q-15 -64 -21 -133h655l-32 -78h-627v-6 q0 -217 118.5 -349.5t319.5 -132.5q172 0 314 76l26 -72q-69 -37 -159 -60t-179 -23q-236 0 -384 149.5t-148 390.5v27h-135z" />
<glyph unicode="&#x2122;" horiz-adv-x="1413" d="M152 1331v62h479v-62h-205v-471h-70v471h-204zM659 860l89 537h30l158 -389h8l154 389h30l89 -537h-68l-53 338h-11l-143 -346h-10l-144 346h-8l-55 -338h-66z" />
<glyph unicode="&#xe000;" horiz-adv-x="931" d="M0 0v932h932v-932h-932z" />
</font>
</defs>
</svg>
