<?xml version="1.0" standalone="no"?>
<!DOCTYPE svg PUBLIC "-//W3C//DTD SVG 1.1//EN" "http://www.w3.org/Graphics/SVG/1.1/DTD/svg11.dtd" >
<svg xmlns="http://www.w3.org/2000/svg">
<metadata></metadata>
<defs>
<font id="equity_text_bbold_italic" horiz-adv-x="1105" >
<font-face units-per-em="2048" ascent="1524" descent="-524" />
<missing-glyph horiz-adv-x="430" />
<glyph unicode="&#xfb01;" horiz-adv-x="1220" d="M-336 -297q0 48 29 80.5t74 32.5q39 0 64.5 -19.5t37.5 -47t21 -55.5t22 -47.5t33 -19.5q72 0 141 269l236 935h-181l31 107h170l51 205q39 158 167.5 263t316.5 105q157 0 254.5 -74t97.5 -167q0 -55 -29.5 -86t-85.5 -31q-53 0 -87 28t-49.5 67.5t-28 79t-36 67.5 t-61.5 28q-36 0 -64.5 -20.5t-52 -63t-41 -90.5t-37.5 -121l-53 -190h598l-225 -686q-11 -40 -7.5 -57t23.5 -17q32 0 73.5 39.5t78.5 120.5l53 -29q-78 -158 -178 -248t-213 -90q-38 0 -62 25.5t-29.5 82t23.5 146.5l191 606h-350l-226 -854q-54 -211 -170.5 -326.5 t-273.5 -115.5q-104 0 -175 45.5t-71 122.5z" />
<glyph unicode="&#xfb02;" horiz-adv-x="1243" d="M-336 -297q0 48 29 80.5t74 32.5q39 0 64.5 -19.5t37.5 -47t21 -55.5t22 -47.5t33 -19.5q72 0 141 269l238 935h-185l33 107h170l51 205q39 158 167.5 263t316.5 105q130 0 225 -79l217 71l55 -61l-399 -1239q-12 -34 -9 -54t29 -20q35 0 77 58.5t93 154.5l54 -29 q-71 -167 -160 -252.5t-205 -85.5q-90 0 -121 62.5t6 187.5l310 961q-38 14 -63 44t-36.5 62t-22 62t-28.5 49.5t-47 19.5q-36 0 -64.5 -20.5t-52 -63t-41 -90.5t-37.5 -121l-53 -190h225l-30 -107h-217l-228 -854q-54 -211 -170.5 -326.5t-273.5 -115.5q-104 0 -175 45.5 t-71 122.5z" />
<glyph unicode="&#xfb03;" horiz-adv-x="1832" d="M-336 -297q0 48 29 80.5t74 32.5q39 0 64.5 -19.5t37.5 -47t21 -55.5t22 -47.5t33 -19.5q72 0 141 269l233 935h-182l35 107h170l51 205q43 152 163 239.5t296 87.5q92 0 161.5 -29.5t110.5 -78.5q142 149 365 149q157 0 254.5 -74t97.5 -167q0 -55 -29.5 -86t-85.5 -31 q-58 0 -94 28t-51.5 67.5t-27 79t-32.5 67.5t-57 28t-64.5 -20.5t-51.5 -63.5t-40 -90.5t-38 -120.5l-53 -190h598l-226 -686q-9 -27 -11.5 -41.5t3.5 -23.5t23 -9q34 0 75 39t78 121l53 -31q-83 -148 -183 -242t-208 -94q-38 0 -62 25.5t-29 82t24 146.5l190 606h-350 l-213 -813q-54 -211 -170.5 -326.5t-273.5 -115.5q-86 0 -145.5 37t-59.5 100q0 48 28.5 80.5t73.5 32.5q36 0 58 -24.5t29 -54.5t19.5 -54.5t30.5 -24.5q73 0 142 269l223 894h-356l-224 -854q-54 -211 -170.5 -326.5t-273.5 -115.5q-104 0 -175 45.5t-71 122.5zM604 938 h350l52 205l6 24q-33 11 -54.5 37t-31 55.5t-18.5 57.5t-25.5 46.5t-44.5 18.5q-114 0 -183 -254z" />
<glyph unicode="&#xfb04;" horiz-adv-x="1855" d="M-336 -297q0 48 29 80.5t74 32.5q39 0 64.5 -19.5t37.5 -47t21 -55.5t22 -47.5t33 -19.5q72 0 141 269l238 935h-185l33 107h172l49 205q37 152 159 239.5t300 87.5q92 0 161.5 -29.5t110.5 -78.5q142 149 365 149q128 0 225 -73l217 65l56 -61l-400 -1239 q-6 -20 -8.5 -31t-3 -22.5t5.5 -16t18 -4.5q66 0 179 213l51 -29q-86 -173 -168.5 -255.5t-194.5 -82.5q-90 0 -121 62.5t7 187.5l313 971q-38 13 -63 42t-36.5 59.5t-22 59.5t-28.5 47.5t-47 18.5q-68 0 -112 -74t-86 -221l-51 -190h227l-31 -107h-219l-217 -813 q-54 -211 -170.5 -326.5t-273.5 -115.5q-86 0 -145.5 37t-59.5 100q0 48 28.5 80.5t73.5 32.5q36 0 58 -24.5t29 -54.5t19.5 -54.5t30.5 -24.5q73 0 142 269l227 894h-356l-228 -854q-54 -211 -170.5 -326.5t-273.5 -115.5q-104 0 -175 45.5t-71 122.5zM606 938h350l50 205 l6 24q-40 13 -63 50t-30 72.5t-25.5 64t-51.5 28.5q-116 0 -185 -254z" />
<glyph horiz-adv-x="2048" />
<glyph horiz-adv-x="2048" />
<glyph unicode="&#xd;" horiz-adv-x="2048" />
<glyph unicode=" "  horiz-adv-x="430" />
<glyph unicode="&#x09;" horiz-adv-x="430" />
<glyph unicode="&#xa0;" horiz-adv-x="430" />
<glyph unicode="!" horiz-adv-x="749" d="M131 143q0 66 46 114t112 48t114 -48t48 -114t-48 -111.5t-114 -45.5t-112 45.5t-46 111.5zM326 508l206 1018l299 -76l-387 -973z" />
<glyph unicode="&#x22;" horiz-adv-x="876" d="M356 895l41 481q7 78 33.5 116t89.5 24l62 -15q47 -11 59 -61t-16 -125l-164 -449zM723 895l41 481q7 78 33.5 116t89.5 24l61 -15q47 -11 59 -61t-16 -125l-164 -449z" />
<glyph unicode="#" horiz-adv-x="1099" d="M156 401l28 174l191 -28l88 282l-178 29l26 174l205 -33l137 433l105 -33l-131 -416l196 -29l146 455l104 -33l-141 -438l164 -25l-27 -174l-190 29l-91 -285l181 -26l-29 -176l-207 30l-160 -504l-102 31l156 490l-199 30l-168 -528l-102 31l161 514zM481 530l199 -30 l90 284l-199 29z" />
<glyph unicode="$" horiz-adv-x="1118" d="M41 31l106 401h62q14 -112 59.5 -200t114.5 -132l164 463l-23 21q-53 44 -89.5 79.5t-73.5 84t-55.5 103.5t-18.5 116q0 142 107 241t270 99q70 0 143 -17l63 176l76 -24l-63 -174q49 -20 133 -70l35 31h67l-55 -383h-59q-32 216 -156 321l-143 -403q8 -8 12 -10 q50 -40 85.5 -73.5t74 -82t59 -105.5t20.5 -120q0 -91 -39 -168t-101 -125.5t-136 -75.5t-148 -27q-56 0 -106 9l-66 -185l-75 25l61 174q-92 26 -172 78l-53 -47h-80zM457 70q28 -7 55 -7q96 0 159.5 59t63.5 154q0 60 -27.5 112.5t-95.5 117.5zM506 1044q0 -68 33.5 -119 t99.5 -108l141 395q-46 21 -88 21q-79 0 -132.5 -52t-53.5 -137z" />
<glyph unicode="%" horiz-adv-x="1247" d="M127 25l483 550l402 465l-6 11q-79 -31 -148 -31q-73 0 -119 39l-8 -2q-3 -168 -91 -277.5t-204 -109.5q-98 0 -159.5 73.5t-61.5 186.5q0 152 96 264.5t207 112.5q140 0 189 -123q12 -31 51.5 -50.5t85.5 -19.5q133 0 241 64q63 116 154 116q19 0 34 -14t15 -39 q0 -57 -90 -119l-506 -585l-465 -584zM397 874q0 -118 90 -118q56 0 105 79t49 203q0 125 -86 125q-57 0 -107.5 -92t-50.5 -197zM676 236q0 152 96 264t207 112q94 0 153.5 -64.5t59.5 -176.5q0 -90 -26.5 -166.5t-68.5 -125.5t-93.5 -76.5t-102.5 -27.5 q-100 0 -162.5 73.5t-62.5 187.5zM858 186q0 -56 23 -87t65 -31q55 0 105.5 79.5t50.5 202.5q0 59 -22.5 92t-63.5 33q-57 0 -107.5 -92t-50.5 -197z" />
<glyph unicode="&#x26;" horiz-adv-x="1560" d="M188 432q0 284 347 475v17q-41 31 -62.5 80t-21.5 98q0 129 110 217t256 88q145 0 238.5 -52t93.5 -138q0 -42 -25 -69.5t-67 -27.5q-36 0 -61 21.5t-39.5 52t-29 61.5t-38.5 52.5t-58 21.5q-66 0 -104.5 -57.5t-38.5 -141.5q0 -105 55 -178q79 6 119.5 -17.5t40.5 -64.5 q0 -75 -112 -75q-81 0 -132 61q-88 -66 -132 -158t-44 -221q0 -152 101 -250t282 -98q73 0 138.5 17t125 53.5t95 104t35.5 159.5q0 58 -27 114.5t-78 94.5q-151 -50 -203 -90t-57 -97l4 -12q3 1 15 7t20 9.5t21.5 7t25.5 3.5q25 0 41 -18t16 -46q0 -31 -29.5 -53.5 t-78.5 -22.5q-61 0 -97 45t-36 117q0 119 92.5 198t273.5 134q124 43 192.5 78t89 60.5t15.5 54.5l-6 6q-25 -23 -74 -23q-26 0 -47.5 19t-21.5 47q0 32 25.5 55t72.5 23q59 0 100 -49t41 -140q0 -100 -65.5 -167t-198.5 -107q53 -48 78 -120.5t25 -135.5q0 -145 -74.5 -255 t-202 -167.5t-287.5 -57.5q-143 0 -256 29.5t-183 75.5t-116 108t-64 122t-18 122z" />
<glyph unicode="'" horiz-adv-x="509" d="M356 895l41 481q7 78 33.5 116t89.5 24l62 -15q47 -11 59 -61t-16 -125l-164 -449z" />
<glyph unicode="(" horiz-adv-x="741" d="M147 297q0 142 27 268.5t81.5 236t123.5 204t168.5 187.5t199 170.5t230.5 166.5l57 -74q-188 -145 -321.5 -301.5t-209 -318.5t-109.5 -322.5t-34 -337.5q0 -194 54 -335t164 -271l-76 -68q-154 123 -254.5 351t-100.5 444z" />
<glyph unicode=")" horiz-adv-x="741" d="M-190 -412q149 113 264 236.5t190.5 246t123.5 256t68.5 261.5t20.5 268q0 339 -180 627l74 47q150 -157 234.5 -382t84.5 -443q0 -120 -24 -232t-64 -205.5t-102.5 -184.5t-129.5 -164.5t-156.5 -150t-172 -137t-186.5 -129.5z" />
<glyph unicode="*" horiz-adv-x="1044" d="M267 1014q9 60 67 67q15 1 105.5 5t168.5 10q-61 57 -139 99.5t-84 47.5q-42 33 -15 94q23 50 68 71q58 27 92 -28q7 -12 32 -55t51.5 -84t60.5 -86q12 82 13 163.5t3 104.5q6 52 66 59q58 7 105 -27q54 -40 28 -93q-10 -16 -37 -53t-53 -80t-49 -96q41 13 73.5 25t59 24 t40.5 19t40 20.5t34 17.5q47 23 87 -29q36 -47 31 -102q-5 -59 -60 -65l-8 -1q-10 0 -101 7t-168 -2q125 -106 221 -164q44 -29 18 -90q-22 -50 -69 -75q-61 -33 -97 18q-3 3 -5 7q-11 18 -29 56.5t-44.5 83.5t-67.5 94q-9 -82 -13.5 -172.5t-5.5 -102.5q-5 -49 -63 -58 q-55 -9 -101 23q-55 37 -28 93q11 23 53 92.5t80 146.5q-64 -17 -110 -39t-81.5 -44.5t-54.5 -30.5q-47 -22 -85 29q-35 46 -29 100z" />
<glyph unicode="+" d="M139 410v168h330v329h168v-329h330v-168h-330v-330h-168v330h-330z" />
<glyph unicode="," horiz-adv-x="669" d="M-127 -362q163 0 256.5 78.5t93.5 187.5q0 36 -17.5 65.5t-42 50t-49 40t-42 45.5t-17.5 57q0 54 41 95.5t107 41.5q89 0 159 -82t70 -221q0 -81 -42 -160.5t-114 -142.5t-178 -102.5t-225 -39.5v87z" />
<glyph unicode="-" horiz-adv-x="643" d="M74 416l63 198h512l-63 -198h-512z" />
<glyph unicode="." horiz-adv-x="518" d="M14 143q0 66 46 114t112 48t114 -48t48 -114t-48 -111.5t-114 -45.5t-112 45.5t-46 111.5z" />
<glyph unicode="/" horiz-adv-x="839" d="M-174 -250l1124 1753h176l-1124 -1753h-176z" />
<glyph unicode="0" horiz-adv-x="1095" d="M104 371q0 165 39.5 313.5t107.5 260.5t156.5 194.5t190 125t205.5 42.5q155 0 233 -108.5t78 -287.5q0 -176 -59 -349t-152.5 -301t-215 -207t-241.5 -79q-150 0 -246 109t-96 287zM356 203q0 -71 29 -108.5t72 -37.5q65 0 124 86.5t117 237.5q71 191 120.5 391 t49.5 318q0 66 -24 100.5t-66 34.5q-135 0 -266 -307q-68 -170 -112 -362t-44 -353z" />
<glyph unicode="1" horiz-adv-x="866" d="M10 0v76l215 30l295 973q-159 -76 -327 -98l30 117q243 46 451 200l176 -10l-363 -1182l205 -30v-76h-682z" />
<glyph unicode="2" horiz-adv-x="1024" d="M-63 0v72q107 79 203.5 155.5t219.5 185t210.5 203.5t148.5 196.5t61 176.5q0 63 -35.5 102t-103.5 39q-128 0 -350 -161l-41 65q118 106 269 189.5t274 83.5q129 0 193.5 -63.5t64.5 -166.5q0 -73 -31.5 -149t-82.5 -144.5t-128.5 -143t-157 -137.5t-180.5 -134 q-26 -22 -76.5 -59.5t-66.5 -49.5l4 -29h350l111 123l73 -26l-151 -328h-778z" />
<glyph unicode="3" horiz-adv-x="940" d="M-33 152q0 52 31.5 84t71.5 32q32 0 55 -21t38.5 -50.5t33.5 -59t50.5 -50.5t78.5 -21q41 0 85 20t84.5 58t66.5 103.5t26 145.5q0 107 -61 176.5t-121 69.5q-11 0 -27 -4l-62 -31l-32 74q236 108 354.5 203.5t118.5 187.5q0 76 -88 76q-70 0 -163 -39.5t-169 -101.5 l-39 61q98 102 236.5 172t265.5 70q97 0 156 -48.5t59 -132.5q0 -60 -35.5 -120t-94 -108t-123 -86t-132.5 -64v-21q93 -24 157 -96t64 -178q0 -142 -83 -252.5t-217.5 -168t-293.5 -57.5q-145 0 -218 46t-73 131z" />
<glyph unicode="4" horiz-adv-x="1085" d="M51 432l975 891l102 -33l-245 -807h164l-39 -125h-164l-109 -358h-243l108 356h-541zM260 504l4 -21h375l143 467l-18 13z" />
<glyph unicode="5" horiz-adv-x="946" d="M-37 133q0 45 29 81t78 36q35 0 63 -16.5t47 -39.5t40 -46t53.5 -39.5t74.5 -16.5q112 0 190 91.5t78 209.5q0 111 -68.5 175.5t-180.5 64.5q-46 0 -91.5 -11.5t-52.5 -15.5l-26 37l247 639h539l57 80h80l-131 -311h-524l-88 -232l14 -16q59 33 135 33q145 0 245.5 -89 t100.5 -253q0 -109 -55 -207.5t-144 -165.5t-204 -106.5t-233 -39.5q-120 0 -196.5 43.5t-76.5 114.5z" />
<glyph unicode="6" horiz-adv-x="1067" d="M90 315q0 226 131.5 430.5t369.5 357.5t548 230v-88q-216 -71 -401.5 -201t-278.5 -292l28 -17q43 40 119 70.5t150 30.5q133 0 203.5 -76t70.5 -209q0 -66 -23 -142t-72 -153t-116.5 -139.5t-165 -102t-207.5 -39.5q-172 0 -264 86.5t-92 253.5zM340 219q0 -69 30 -110 t87 -41q70 0 141.5 77.5t117.5 198t46 238.5q0 66 -29.5 101.5t-75.5 35.5q-123 0 -237 -129q-33 -78 -56.5 -180t-23.5 -191z" />
<glyph unicode="7" horiz-adv-x="976" d="M182 53q131 289 314 551t354 418l-4 29h-449l-112 -154h-92l188 385h782l23 -74q-260 -224 -443.5 -524.5t-269.5 -632.5q-12 -37 -56 -56.5t-106 -19.5q-81 0 -114 18t-15 60z" />
<glyph unicode="8" horiz-adv-x="1003" d="M37 240q0 119 100 230.5t287 182.5v21q-56 71 -86.5 135t-30.5 139q0 159 116.5 259t311.5 100q162 0 257 -74t95 -193q0 -113 -93.5 -199.5t-252.5 -146.5v-22q65 -89 100.5 -160t35.5 -141q0 -94 -42.5 -171t-112.5 -125t-156 -74t-177 -26q-173 0 -262.5 74t-89.5 191 zM240 248q0 -82 47 -133.5t121 -51.5q80 0 144 70t64 186q0 70 -35.5 135t-99.5 144q-110 -46 -175.5 -140t-65.5 -210zM557 1022q0 -60 33.5 -124t93.5 -144q113 52 164 126t51 156q0 85 -46.5 137t-121.5 52q-79 0 -126.5 -58.5t-47.5 -144.5z" />
<glyph unicode="9" horiz-adv-x="1067" d="M20 41q231 56 419 186t290 308l-29 16q-40 -29 -70.5 -48t-84 -38t-103.5 -19q-132 0 -205 81t-73 200q0 158 84 293t218.5 211t283.5 76q70 0 131 -22.5t109 -68t76 -120.5t28 -172q0 -165 -82 -326t-223.5 -291t-341.5 -225t-427 -133v92zM416 713q0 -74 26 -113 t74 -39q121 0 266 158q27 62 51.5 151.5t24.5 157.5q0 191 -129 191q-50 0 -105 -40.5t-101.5 -106.5t-76.5 -162t-30 -197z" />
<glyph unicode=":" horiz-adv-x="518" d="M16 143q0 66 46 114t112 48t114 -48t48 -114t-48 -111.5t-114 -45.5t-112 45.5t-46 111.5zM182 745q0 66 46 114t112 48t114 -48t48 -114t-48 -111.5t-114 -45.5t-112 45.5t-46 111.5z" />
<glyph unicode=";" horiz-adv-x="751" d="M-94 -362q163 0 256.5 78.5t93.5 187.5q0 36 -17.5 65.5t-42 50t-49 40t-42 45.5t-17.5 57q0 54 41 95.5t107 41.5q89 0 159 -82t70 -221q0 -81 -42 -160.5t-114 -142.5t-178 -102.5t-225 -39.5v87zM283 745q0 66 45.5 114t111.5 48t114 -48t48 -114t-48 -111.5 t-114 -45.5t-111.5 45.5t-45.5 111.5z" />
<glyph unicode="&#x3c;" d="M139 430v127l828 348v-178l-570 -233l570 -234v-178z" />
<glyph unicode="=" d="M139 260v168h828v-168h-828zM139 567v168h828v-168h-828z" />
<glyph unicode="&#x3e;" d="M139 82v178l570 234l-570 233v178l828 -348v-127z" />
<glyph unicode="?" horiz-adv-x="919" d="M193 143q0 66 45.5 114t111.5 48t114 -48t48 -114t-48 -111.5t-114 -45.5t-111.5 45.5t-45.5 111.5zM287 666q0 78 33.5 139.5t86.5 100.5t117.5 71.5t129 62.5t117.5 63.5t86.5 85t33.5 116.5q0 66 -32 105.5t-83 39.5q-33 0 -55 -24t-35 -58t-26.5 -67.5t-39 -57.5 t-63.5 -24q-53 0 -82 29t-29 79q0 89 85.5 142t216.5 53q141 0 240 -74.5t99 -202.5q0 -68 -20.5 -124t-55 -96t-79.5 -73t-94.5 -57.5t-99 -47t-94.5 -44.5t-79.5 -46t-55 -56.5t-20.5 -71.5t27.5 -64.5t91.5 -25.5q34 0 54 10l10 -68q-53 -18 -142 -18q-110 0 -176.5 60 t-66.5 143z" />
<glyph unicode="@" horiz-adv-x="1671" d="M86 444q0 173 63.5 338.5t175.5 295.5t280 210t362 80q316 0 504 -179.5t188 -471.5q0 -140 -31.5 -257.5t-81 -194.5t-113 -131t-126 -77.5t-121.5 -23.5q-143 0 -187 139h-20q-68 -69 -131 -100t-143 -31q-67 0 -126 72.5t-59 144.5q0 65 56.5 123.5t166.5 116.5 l248 125v84q0 200 -137 200q-32 0 -67.5 -21.5t-53.5 -49.5q0 -10 6 -48.5t6 -58.5q0 -48 -37.5 -74t-89.5 -26q-41 0 -70.5 34t-29.5 87q0 71 57 122q87 54 194 104t169 50q128 0 197 -67.5t69 -178.5v-522q0 -88 53 -88q26 0 56 24.5t60 73t54.5 113t40 153t15.5 183.5 q0 63 -13 130t-49.5 144.5t-92.5 137t-151.5 99.5t-215.5 40q-141 0 -266.5 -61.5t-216.5 -169.5t-144 -262.5t-53 -332.5q0 -309 139 -473t368 -164q204 0 406 99l45 -97q-229 -112 -457 -112q-149 0 -277 51.5t-221 146.5t-145.5 237t-52.5 314zM743 315q0 -48 31.5 -84 t73.5 -36q49 0 96 41.5t47 97.5v201l-143 -78q-105 -51 -105 -142z" />
<glyph unicode="A" horiz-adv-x="1462" d="M-55 0v76l139 51l1110 1343l205 -20l-228 -1344l150 -30v-76h-639v76l180 30l82 429h-393l-328 -408l129 -51v-76h-407zM627 627h336l98 503l-23 7z" />
<glyph unicode="B" horiz-adv-x="1359" d="M-59 0v72l186 30l350 1241l-166 31v72h527q143 0 253 -38.5t177 -123t67 -205.5q0 -124 -81.5 -212.5t-211.5 -127.5v-28q104 -34 173 -115.5t69 -189.5q0 -191 -172 -298.5t-479 -107.5h-692zM418 102h203q157 0 255.5 85t98.5 257q0 45 -14 84.5t-44 73.5t-83 54 t-125 20h-134zM606 772h121q54 0 106 21t95.5 60t70.5 104.5t27 146.5q0 114 -51.5 176.5t-140.5 62.5h-66z" />
<glyph unicode="C" horiz-adv-x="1443" d="M174 596q0 177 72 340t191 279.5t277 185.5t324 69q129 0 229.5 -41.5t196.5 -125.5l37 40h90l-121 -389h-81q0 116 -24 200.5t-67.5 131t-96 67.5t-116.5 21q-82 0 -166.5 -39.5t-162.5 -118t-139 -185.5t-97.5 -253.5t-36.5 -310.5q0 -209 74 -300t225 -91 q149 0 281 109t215 270h94l-86 -281q-141 -102 -260 -150.5t-272 -48.5q-90 0 -174.5 24.5t-158 76t-128.5 123.5t-87 174.5t-32 222.5z" />
<glyph unicode="D" horiz-adv-x="1660" d="M-59 0v76l190 30l375 1233l-176 31v76h676q314 0 491.5 -153.5t177.5 -426.5q0 -71 -18.5 -148.5t-59.5 -162.5t-101 -164t-149.5 -150.5t-197.5 -124.5t-252 -84.5t-307 -31.5h-649zM440 102h199q146 0 280 68.5t230.5 183t153.5 269.5t57 321q0 197 -98 298t-250 101 h-197z" />
<glyph unicode="E" horiz-adv-x="1310" d="M-59 0v76l186 30l381 1233l-178 31v76h1046v-424h-84l-164 336h-307l-164 -545h230l102 176h92l-135 -491h-92v211h-231l-191 -621h397l383 315h84l-231 -403h-1124z" />
<glyph unicode="F" horiz-adv-x="1191" d="M-59 0v76l190 30l375 1233l-176 31v76h1001v-424h-84l-168 336h-260l-168 -545h232l98 176h96l-137 -491h-90v211h-232l-182 -603l185 -30v-76h-680z" />
<glyph unicode="G" horiz-adv-x="1572" d="M174 532q0 201 73 377.5t195 298.5t286 192t343 70q235 0 393 -167l37 40h90l-121 -368h-81q0 110 -24 190t-67.5 124.5t-96 64.5t-116.5 20q-80 0 -165 -43.5t-161 -125t-137 -187t-97 -240t-36 -274.5q0 -230 88 -329t246 -99q48 0 109 17t92 42l145 479l-163 31v76 h602v-76l-129 -31l-158 -522q-283 -117 -565 -117q-165 0 -296 65.5t-208.5 193.5t-77.5 298z" />
<glyph unicode="H" horiz-adv-x="1701" d="M-59 0v76l186 30l379 1233l-176 31v76h674v-76l-191 -31l-166 -544h637l166 544l-178 31v76h674v-76l-189 -31l-379 -1233l176 -30v-76h-673v76l190 30l178 584h-637l-178 -584l178 -30v-76h-671z" />
<glyph unicode="I" horiz-adv-x="759" d="M-59 0v76l186 30l379 1233l-176 31v76h674v-76l-191 -31l-379 -1233l178 -30v-76h-671z" />
<glyph unicode="J" horiz-adv-x="1173" d="M20 268q0 126 66.5 200.5t157.5 74.5q72 0 112.5 -37t40.5 -96q0 -54 -34.5 -97t-96.5 -43q-49 0 -92 31l-18 -18q0 -107 53.5 -157t128.5 -50q190 0 280 299l297 964l-217 31v76h719v-76l-207 -31l-297 -974q-32 -112 -88 -193t-128.5 -127.5t-153.5 -68t-174 -21.5 q-156 0 -252.5 85.5t-96.5 227.5z" />
<glyph unicode="K" horiz-adv-x="1492" d="M-59 0v76l192 30l375 1233l-176 31v76h645v-76l-170 -31l-158 -522h45l588 522l-119 31v76h393v-76l-143 -31l-510 -467l303 -751l174 -45v-76h-645v76l158 30l-221 590h-64l-176 -590l174 -30v-76h-665z" />
<glyph unicode="L" horiz-adv-x="1280" d="M-59 0v76l190 30l375 1233l-176 31v76h686v-76l-201 -31l-379 -1251h412l350 361h84l-174 -449h-1167z" />
<glyph unicode="M" horiz-adv-x="1818" d="M-76 0v76l121 51l559 1098l-4 110l-147 33v78h442l39 -850h35l463 850h423v-76l-149 -49l-143 -1215l137 -30v-76h-610v76l174 30l127 1020h-31l-610 -1130h-78l-47 1010h-25l-446 -879l133 -51v-76h-363z" />
<glyph unicode="N" horiz-adv-x="1648" d="M-80 0v76l164 51l543 1212l-146 31v76h412l307 -1079h29l401 952l-174 51v76h459v-76l-176 -51l-559 -1323h-181l-325 1149h-29l-452 -1018l167 -51v-76h-440z" />
<glyph unicode="O" horiz-adv-x="1644" d="M174 602q0 150 50 287.5t136.5 241.5t198.5 181.5t239.5 117.5t256.5 40q275 0 437.5 -158t162.5 -431q0 -158 -51 -302t-138 -252t-199 -188.5t-238 -122t-251 -41.5q-133 0 -243 40.5t-191 117.5t-125.5 197t-44.5 272zM483 393q0 -159 78.5 -238t212.5 -79 q90 0 178.5 65t158.5 171t124 235.5t83.5 265t29.5 252.5q0 152 -74 230.5t-189 78.5q-141 0 -282.5 -149.5t-230.5 -379t-89 -452.5z" />
<glyph unicode="P" horiz-adv-x="1200" d="M-59 0v72l186 30l352 1241l-141 31v72h530q205 0 325 -108t120 -277q0 -194 -141 -321.5t-347 -127.5q-158 0 -247 70l-162 -580l141 -30v-72h-616zM612 782q15 -24 48 -41.5t75 -17.5q113 0 193 101.5t80 256.5q0 57 -12.5 103t-32 75t-45.5 48.5t-52 27.5t-53 8h-39z " />
<glyph unicode="Q" horiz-adv-x="1644" d="M174 602q0 150 50 287.5t136.5 241.5t198.5 181.5t239.5 117.5t256.5 40q275 0 437.5 -158t162.5 -431q0 -196 -78 -368t-202.5 -287.5t-279.5 -182t-311 -68.5q-67 -74 -137 -110q81 -2 165 -24t154 -52t138.5 -59t141.5 -49.5t138 -20.5q87 0 149.5 28t117.5 99l39 -31 q-163 -254 -459 -254q-103 0 -194.5 19.5t-162 51.5t-128 65t-120.5 68.5t-112 53.5q-43 0 -110 -41t-117 -41q-37 0 -63.5 21.5t-26.5 52.5q0 32 18 53.5t52 34.5t68 20.5t83 17.5t80 20q67 27 116 96q-204 44 -322 199.5t-118 408.5zM483 393q0 -159 78.5 -238t212.5 -79 q90 0 178.5 65t158.5 171t124 235.5t83.5 265t29.5 252.5q0 152 -74 230.5t-189 78.5q-141 0 -282.5 -149.5t-230.5 -379t-89 -452.5z" />
<glyph unicode="R" horiz-adv-x="1402" d="M-59 0v76l186 30l350 1233l-162 31v76h566q196 0 319 -103.5t123 -261.5q0 -139 -96.5 -248t-268.5 -145l152 -582l170 -30v-76h-438l-160 668h-94l-162 -562l141 -30v-76h-626zM614 766h56q100 0 182 51.5t125 130t43 164.5q0 97 -56 164t-147 67h-41z" />
<glyph unicode="S" horiz-adv-x="1271" d="M61 35l119 454h76q19 -185 111 -298t227 -113q111 0 182.5 61.5t71.5 159.5q0 95 -53 176t-197 195q-57 46 -97 86t-80 93t-60.5 115.5t-20.5 131.5q0 156 130.5 265t330.5 109q211 0 387 -114l43 26h76l-62 -434h-71q-14 92 -43 166.5t-65.5 123.5t-80.5 82t-87 47.5 t-85 14.5q-86 0 -143.5 -55t-57.5 -143q0 -53 17 -98t50.5 -83t70.5 -70.5t88 -72.5l24 -18q54 -42 94.5 -82.5t81 -94.5t62.5 -119t22 -136q0 -102 -46 -186.5t-121 -137.5t-166 -82t-185 -29q-225 0 -389 105l-63 -45h-91z" />
<glyph unicode="T" horiz-adv-x="1323" d="M166 1042l196 404h1197v-404h-89l-139 316h-235l-383 -1252l186 -30v-76h-694v76l196 30l385 1252h-229l-307 -316h-84z" />
<glyph unicode="U" horiz-adv-x="1579" d="M220 381q2 68 24 141l248 817l-175 31v76h678v-76l-194 -31l-242 -800q-30 -94 -30 -170q-1 -83 35 -143q68 -116 245 -115q173 0 315 119t209 337l228 752l-158 51v76h446v-76l-176 -51l-237 -787q-27 -87 -68.5 -166t-105 -151.5t-140.5 -125t-179.5 -83.5t-217.5 -31 q-104 0 -189 20.5t-144 57t-99 87.5q-39 51 -57 112q-16 55 -16 115v14z" />
<glyph unicode="V" horiz-adv-x="1396" d="M217 0l225 1339l-147 31v76h639v-76l-182 -31l-185 -987l23 -6l805 973l-131 51v76h407v-76l-147 -51l-1090 -1319h-217z" />
<glyph unicode="W" horiz-adv-x="1902" d="M217 0l215 1339l-145 31v76h602v-76l-158 -31l-145 -841h32l439 544l45 297l-131 31v76h602v-76l-172 -31l-131 -841h33l641 841l-152 31v76h385v-76l-115 -31l-1013 -1339h-148l129 866l-684 -866h-129z" />
<glyph unicode="X" horiz-adv-x="1531" d="M-90 0v72l149 30l652 560l-84 681l-170 31v72h659v-72l-188 -31l55 -448l524 448l-164 31v72h465v-72l-155 -31l-656 -563l86 -678l170 -30v-72h-659v72l188 30l-57 443l-514 -443l164 -30v-72h-465z" />
<glyph unicode="Y" horiz-adv-x="1372" d="M248 0v76l192 30l172 566l-161 667l-152 31v76h610v-76l-174 -31l125 -559h33l477 559l-180 31v76h446v-76l-147 -31l-578 -667l-172 -566l176 -30v-76h-667z" />
<glyph unicode="Z" horiz-adv-x="1325" d="M-78 51l1262 1276l-4 31h-439l-286 -336h-84l157 424h1051l12 -39l-1284 -1292l4 -27h566l288 315h84l-155 -403h-1162z" />
<glyph unicode="[" horiz-adv-x="808" d="M-61 -477l608 1986q114 -11 276 -11t242 13l-39 -120q-69 -11 -162.5 -11t-134.5 11l-528 -1741q41 9 145 9t164 -9l-41 -129q-86 12 -247.5 13t-282.5 -11z" />
<glyph unicode="\" horiz-adv-x="839" d="M258 1503h176l277 -1753h-176z" />
<glyph unicode="]" horiz-adv-x="808" d="M-199 -479l41 127q197 20 308 0l528 1743q-133 -20 -297 0l39 120q177 -27 518 -2l-608 -1986q-282 24 -529 -2z" />
<glyph unicode="^" d="M72 643l454 772h56l452 -772l-160 -94l-311 559h-16l-318 -559z" />
<glyph unicode="_" horiz-adv-x="1236" d="M-231 -393h1249v-121h-1249v121z" />
<glyph unicode="`" horiz-adv-x="1024" d="M215 1311v41h244l186 -316v-37h-135z" />
<glyph unicode="a" horiz-adv-x="1015" d="M37 174q0 86 29 188.5t81 198.5q95 179 237 301.5t261 122.5q49 0 76 -13t61 -50h11q13 34 36 48.5t76 14.5q62 1 90 -9q22 -8 22 -22q0 -4 -1 -8l-234 -723q-8 -31 -1.5 -46t24.5 -15q23 0 63.5 46t81.5 120l47 -27q-177 -326 -350 -326q-21 0 -37 6t-30 25t-18 50 q-2 10 -2 23q0 27 6 63q9 54 34 126l-29 19q-80 -149 -175 -232.5t-193 -83.5q-166 0 -166 203zM293 227q0 -33 9.5 -45t31.5 -12q83 0 194.5 165t192.5 435q-1 71 -17.5 100t-50.5 29q-47 0 -113.5 -72.5t-133.5 -203.5q-54 -102 -83.5 -210t-29.5 -186z" />
<glyph unicode="b" horiz-adv-x="976" d="M68 184q2 35 14 64l340 1087l-143 60v43l376 65l56 -61l-219 -658l20 -16q97 106 175.5 161.5t156.5 55.5q75 0 113 -47t38 -135q0 -199 -137 -428q-103 -179 -248.5 -291.5t-306.5 -112.5q-67 0 -116.5 20t-74 51t-35.5 69q-9 31 -9 60v13zM311 89q19 -30 56 -30 q62 0 127 77.5t124 203.5q123 264 123 416q0 57 -43 57q-41 0 -105 -56t-136 -173l-146 -408q-10 -28 -10 -50t10 -37z" />
<glyph unicode="c" horiz-adv-x="806" d="M55 260q0 126 55 258.5t140.5 234.5t195.5 167t213 65q87 0 143 -43t56 -125q0 -63 -29 -98t-79 -35q-37 0 -61.5 20.5t-35.5 50t-19 58.5t-20.5 49.5t-31.5 20.5q-94 0 -187 -201q-41 -87 -61.5 -188.5t-20.5 -178.5q0 -91 32 -134.5t81 -43.5q119 0 248 154l49 -35 q-34 -54 -74 -100.5t-93.5 -90t-120.5 -69t-140 -25.5q-110 0 -175 75t-65 214z" />
<glyph unicode="d" horiz-adv-x="1030" d="M47 154q0 196 111 407q93 184 233.5 304t257.5 120q88 0 127 -33l10 4l119 379l-139 60v43l364 65l56 -61l-393 -1219q-9 -28 -3 -44.5t23 -16.5q25 0 63.5 46.5t77.5 127.5l56 -25q-51 -105 -98.5 -174.5t-90.5 -103t-77 -46t-72 -12.5q-72 -1 -92 69q-6 22 -6 51 q0 63 30 161l-29 18q-79 -142 -179 -222.5t-203 -80.5q-71 0 -108.5 55t-37.5 128zM303 229q0 -59 41 -59q70 0 181 160.5t202 417.5q6 36 6 64q0 30 -7 49q-14 38 -62 38q-60 0 -132.5 -88.5t-128.5 -216.5q-50 -114 -75 -199.5t-25 -165.5z" />
<glyph unicode="e" horiz-adv-x="813" d="M51 240q0 91 32.5 194.5t92 200t136 175.5t173 127t193.5 48q36 0 67.5 -8t59.5 -25.5t44.5 -50t16.5 -76.5q0 -76 -43 -140.5t-120 -113.5t-170.5 -84.5t-208.5 -62.5q-13 -76 -13 -137q0 -150 127 -150q125 0 242 148l47 -35q-195 -279 -430 -279q-111 0 -178.5 70 t-67.5 199zM338 498q139 42 207.5 125t68.5 180q0 27 -13 45t-34 18q-62 0 -127 -109t-102 -259z" />
<glyph unicode="f" horiz-adv-x="675" d="M-336 -297q0 48 29 80.5t74 32.5q39 0 64.5 -19.5t37.5 -47t21 -55.5t22 -47.5t33 -19.5q72 0 141 269l233 935h-180l33 107h170l51 205q37 158 163 263t310 105q136 0 218.5 -59.5t82.5 -140.5q0 -54 -27.5 -85.5t-74.5 -31.5q-43 0 -71.5 23.5t-42 57t-25 67.5 t-29.5 57.5t-45 23.5q-36 0 -64.5 -20.5t-52 -63t-41 -90.5t-37.5 -121l-53 -190h225l-30 -107h-221l-224 -854q-54 -211 -170.5 -326.5t-273.5 -115.5q-104 0 -175 45.5t-71 122.5z" />
<glyph unicode="g" horiz-adv-x="876" d="M-104 -250q0 79 68.5 139t197.5 86l6 17q-38 25 -64 67t-26 80q0 111 162 183v8q-58 36 -88.5 94t-30.5 125q0 112 57.5 213t153.5 162t203 61q71 0 134.5 -21.5t88.5 -21.5q32 0 79 18.5t74 18.5q36 0 64.5 -24t28.5 -68q0 -43 -20 -65.5t-52 -22.5q-25 0 -63 27.5 t-54 23.5l-22 -8q16 -88 16 -109q0 -81 -31 -160.5t-85.5 -143t-137.5 -103t-178 -39.5q-31 0 -58 8q-36 -23 -36 -59q0 -19 10 -33t30.5 -24t34.5 -14.5t39 -10.5l281 -68q170 -42 170 -201q0 -89 -48 -163t-126 -119.5t-172 -70t-191 -24.5q-180 0 -297.5 69.5 t-117.5 172.5zM109 -238q0 -74 68 -119.5t194 -45.5t207 50t81 126q0 72 -75 92l-314 78q-76 -15 -118.5 -62.5t-42.5 -118.5zM344 432q0 -28 13 -43.5t34 -15.5q48 0 86 70t76 196q37 136 37 205q0 65 -43 65q-67 0 -148 -223q-55 -163 -55 -254z" />
<glyph unicode="h" horiz-adv-x="1058" d="M6 39l416 1296l-143 60v43l364 65l55 -61l-266 -830l21 -16q115 176 240.5 282.5t224.5 106.5q75 0 93 -79q5 -22 5 -48q0 -71 -35 -176l-156 -449q-11 -34 -4.5 -53.5t25.5 -19.5q25 0 65 51t82 131l45 -27q-88 -181 -185 -262.5t-191 -81.5q-82 0 -108 62 q-10 25 -11 56q0 48 24 110l164 452q17 47 17 74q0 31 -23 31q-64 0 -184.5 -148.5t-214.5 -347.5l-72 -221q-7 -22 -46 -34.5t-79 -12.5q-52 0 -91 12q-33 11 -33 29q0 3 1 6z" />
<glyph unicode="i" horiz-adv-x="626" d="M72 655q82 142 195 236t212 94q44 0 68.5 -24.5t28.5 -83.5v-13q0 -56 -31 -143l-162 -469q-8 -24 -8 -41q0 -33 33 -33q31 0 68.5 39t74.5 121l51 -29q-78 -156 -176 -247t-203 -91q-43 0 -69 25.5t-32 81.5q-1 10 -1 21q0 52 24 126l158 506q7 24 7 38q0 24 -19 24 q-28 0 -77 -48t-89 -124zM438 1309q0 74 46.5 132t115.5 58q52 0 82.5 -40t30.5 -99q0 -73 -47.5 -126.5t-108.5 -53.5q-52 0 -85.5 38t-33.5 91z" />
<glyph unicode="j" horiz-adv-x="616" d="M-381 -313q0 47 28.5 80.5t78.5 33.5q32 0 56 -18t39 -44t28.5 -52t32.5 -44t44 -18q37 0 63 50t56 151l264 905q4 20 4 33q0 29 -20 29q-27 0 -74.5 -48.5t-85.5 -121.5l-53 36q54 88 113 157t136.5 119t151.5 50q107 0 107 -119q0 -58 -25 -143l-239 -801 q-56 -195 -173 -291t-286 -96q-94 0 -170 41t-76 111zM449 1309q0 74 46 132t115 58q52 0 82.5 -40t30.5 -99q0 -73 -47.5 -126.5t-108.5 -53.5q-52 0 -85 38t-33 91z" />
<glyph unicode="k" horiz-adv-x="1007" d="M6 39l406 1296l-146 60v43l377 65l55 -61l-270 -819l21 -17q231 379 440 379q81 0 122.5 -40.5t41.5 -106.5q0 -70 -45 -137t-112 -114t-132 -78.5t-117 -43.5l113 -293q17 -47 45 -47q55 0 123 94l41 -31q-51 -97 -138 -155t-180 -58q-85 0 -108 72l-121 371h-8 l-88 -158l-72 -221q-8 -22 -46.5 -34.5t-78.5 -12.5q-51 0 -91 14q-33 11 -33 26q0 4 1 7zM461 487l2 -8q133 36 228 116.5t95 176.5q0 45 -43 45q-46 0 -134 -101t-148 -229z" />
<glyph unicode="l" horiz-adv-x="557" d="M63 225l359 1110l-143 60v43l364 65l55 -61l-399 -1249q-11 -29 -7 -46.5t27 -17.5q15 0 34.5 18.5t43.5 57t40 67t42 76.5l51 -22q-76 -177 -158.5 -264t-193.5 -87q-133 0 -133 134q0 49 18 116z" />
<glyph unicode="m" horiz-adv-x="1533" d="M68 39l223 721q5 20 5 33q0 28 -22 28q-30 0 -73 -52.5t-82 -139.5l-49 28q66 146 156 237t188 91q32 0 54 -13.5t33 -43.5q10 -26 10 -62q0 -4 -1 -10q-2 -44 -19 -108t-51 -142l25 -12q93 160 221 275.5t236 115.5q14 0 26.5 -3.5t25 -14.5t20.5 -28q6 -17 8 -46 q0 -6 1 -12q0 -24 -5 -54q-6 -37 -23.5 -91.5t-46.5 -119.5l22 -12q101 161 236 271t223 110q41 0 64 -23.5t27 -65.5q1 -12 1 -24q1 -34 -7 -72q-10 -54 -34 -118l-157 -434q-9 -27 -9 -44q0 -30 29 -30q31 0 66 44t79 124l45 -33q-77 -159 -176 -246.5t-194 -87.5 q-62 0 -91 35q-27 33 -27 83v7q2 54 28 125l157 426q16 43 16 69q0 36 -32 36q-45 0 -140.5 -118.5t-160.5 -256.5l-102 -336q-8 -33 -38 -43t-89 -10q-66 0 -96 16.5t-21 50.5l188 596q15 49 15 73q0 6 -1 10q-4 22 -30 22q-46 0 -130.5 -106.5t-158.5 -280.5l-115 -334 q-7 -23 -45.5 -35t-79.5 -12q-52 0 -90 12q-33 11 -33 28q0 4 1 7z" />
<glyph unicode="n" horiz-adv-x="1122" d="M66 651q78 144 178.5 239t197.5 95q46 -1 69 -37q22 -35 22 -89q0 -57 -15 -127q-14 -64 -39 -128l21 -16q47 69 102.5 133.5t121 126.5t136.5 99.5t131 37.5q25 0 43.5 -7t32.5 -27q14 -21 17 -53q1 -8 1 -16q0 -29 -8 -71q-10 -55 -35 -129l-151 -446q-8 -26 -8 -43 q0 -31 28 -31q24 0 70 59.5t76 116.5l45 -29q-76 -155 -176 -246.5t-207 -91.5q-42 0 -69 27.5t-33 83.5q-1 9 -1 19q0 50 25 120l154 430q13 47 13 73q0 32 -20 32q-53 0 -171.5 -138t-227.5 -352l-72 -227q-7 -23 -45 -35t-79 -12q-52 0 -91 12.5t-32 34.5l215 688 q5 19 5 33q0 28 -22 28q-20 0 -66.5 -50.5t-86.5 -123.5z" />
<glyph unicode="o" horiz-adv-x="937" d="M55 270q0 133 51.5 265t134 230t190 159t214.5 61q56 0 105.5 -17.5t91 -52t66 -93.5t24.5 -136q0 -115 -49 -242t-129 -231.5t-194 -173t-234 -68.5q-130 0 -200.5 85t-70.5 214zM283 143q0 -40 14 -56.5t49 -16.5q48 0 92 53t94 156q59 123 116 296t57 238q0 36 -15 57 t-41 21q-48 0 -91.5 -41t-90.5 -131q-73 -138 -128.5 -308.5t-55.5 -267.5z" />
<glyph unicode="p" horiz-adv-x="991" d="M-203 -430l162 31l342 1097l-12 11q-76 -54 -154 -174l-67 55q54 86 119 149t155 125l80 258l268 64l-69 -223q57 22 108 22q110 0 183 -76t73 -237q0 -137 -49.5 -268t-125 -222t-167 -146.5t-174.5 -55.5q-78 0 -137 36l-127 -415l166 -31v-62h-574v62zM365 106 q26 -32 81 -32q70 0 138 98.5t108.5 240t40.5 269.5q0 184 -82 184q-39 0 -67 -28z" />
<glyph unicode="q" horiz-adv-x="976" d="M29 174q0 98 38 213.5t103 222.5q92 154 220 264.5t237 110.5q93 0 127 -63h10q16 34 43 47.5t90 13.5q64 0 91 -8q21 -7 21 -22q0 -3 -1 -7l-408 -1345l166 -31v-62h-567v62l157 31l172 567l-24 16q-167 -213 -303 -213q-83 0 -127.5 59.5t-44.5 143.5zM268 233 q0 -60 15 -80t41 -20q43 0 114 90t146 236.5t129 304.5q-8 121 -76 121q-109 0 -260 -277q-51 -94 -80 -199.5t-29 -175.5z" />
<glyph unicode="r" horiz-adv-x="839" d="M72 657q21 45 43 85.5t53 86.5t63 79t71 55t77 22q99 -1 105 -103q0 -6 1 -12q0 -104 -84 -323l39 -17q44 101 74 165t64.5 125t64 93.5t63.5 52t72 19.5q57 0 94 -37.5t37 -109.5q0 -80 -37 -124t-88 -44q-31 0 -64.5 15t-55.5 15q-49 0 -98.5 -85t-92.5 -216l-119 -362 q-7 -23 -49.5 -34t-91.5 -11q-50 0 -83.5 13t-27.5 34l189 680q9 36 9 59q0 37 -24 37q-53 0 -149 -188z" />
<glyph unicode="s" horiz-adv-x="739" d="M-12 150q0 35 25.5 63.5t78.5 28.5q32 0 60 -19t49 -45.5t42 -53.5t47.5 -46t55.5 -19q39 0 63.5 21t24.5 65q0 25 -13 56.5t-24.5 49.5t-44.5 64t-43 60q-53 72 -83.5 143.5t-30.5 159.5q0 130 94.5 218.5t234.5 88.5q106 0 184 -51.5t78 -136.5q0 -45 -27.5 -71 t-72.5 -26q-32 0 -56 20.5t-39.5 50t-31.5 59.5t-39.5 50.5t-54.5 20.5q-37 0 -55.5 -25.5t-18.5 -64.5q0 -21 6.5 -44.5t13.5 -40.5t25 -44.5t27 -40.5t34 -46t33 -44q105 -141 105 -260q0 -88 -50.5 -162t-132.5 -116t-173 -42q-132 0 -211.5 46t-79.5 133z" />
<glyph unicode="t" horiz-adv-x="661" d="M83 123q1 43 15 90l187 618h-158l39 107h156l67 207l258 37l-78 -244h226l-33 -107h-227l-189 -616q-7 -26 -7 -43q0 -33 28 -33q41 0 87.5 48t92.5 137l53 -33q-167 -320 -389 -320q-45 0 -75 20.5t-42 54.5q-11 31 -11 70v7z" />
<glyph unicode="u" horiz-adv-x="1122" d="M84 666q47 81 104 149t132 119t143 51q50 0 78.5 -25.5t32.5 -81.5q1 -7 1 -14q0 -53 -30 -129l-162 -436q-18 -46 -18 -72q0 -32 28 -32q53 0 130 77.5t148.5 193t121.5 234.5l79 222q7 21 49 34t83 13q50 0 84 -14q29 -12 29 -28q0 -3 -1 -7l-237 -703q-9 -27 -9 -45.5 t6 -25.5t15 -7q59 0 160 183l51 -19q-73 -157 -162 -244.5t-180 -87.5q-30 0 -52.5 7.5t-40.5 31.5q-19 25 -21 65v12q0 38 14 99q16 71 53 166l-21 17q-107 -169 -244 -283.5t-247 -114.5q-77 1 -95 83q-5 22 -5 47q0 72 36 173l158 447q9 28 9 45q0 29 -25 29 q-24 0 -66 -48.5t-78 -111.5z" />
<glyph unicode="v" horiz-adv-x="956" d="M78 684q26 148 88 224.5t149 76.5q109 0 173.5 -94.5t64.5 -237.5q0 -116 -43 -253.5t-100 -231.5l22 -23q155 64 259 194t104 267q0 46 -12.5 80t-30.5 53t-36.5 37t-31 44t-12.5 61q0 39 23 71.5t73 32.5q67 0 116.5 -73t49.5 -201q0 -519 -782 -750q-7 -3 -14 -3 q-10 0 -16 8q-12 12 -5 32q182 425 182 645q0 186 -80 186q-48 0 -80 -165z" />
<glyph unicode="w" horiz-adv-x="1366" d="M80 688q22 147 87 222t142 75q82 0 140.5 -47t89.5 -127h8q37 79 95.5 126.5t129.5 47.5q99 0 164 -96t65 -236q0 -123 -46 -249t-132 -238l19 -19q58 27 119 71.5t118 102.5t93 130t36 141q0 44 -13 78t-32 56t-37.5 43t-31.5 49t-13 63q0 43 27.5 73.5t71.5 30.5 q68 0 115.5 -71.5t47.5 -182.5q0 -124 -41.5 -232t-110 -188t-168 -148t-203 -115t-228.5 -87q-8 -3 -15 -3q-9 0 -17 7q-12 12 -3 33l70 166l-13 12q-210 -142 -462 -215q-8 -3 -14 -3q-10 0 -16 7q-12 12 -5 33q3 9 30.5 78.5t41 105t38.5 108.5t37.5 124t23.5 114.5 t11 114.5q0 87 -20 136.5t-56 49.5q-28 0 -48 -36.5t-36 -128.5zM395 164l19 -19q181 74 282 228q23 58 37.5 140.5t14.5 150.5q0 76 -23.5 123t-60.5 47q-29 0 -61.5 -38.5t-51.5 -95.5q2 -18 2 -47q0 -125 -43.5 -262.5t-114.5 -226.5z" />
<glyph unicode="x" horiz-adv-x="1001" d="M13 26q-7 24 -7 54q0 36 11 80q20 78 65 151l55 -28q-14 -50 -14 -88v-13q3 -42 35 -43q37 0 82 58l170 209l-41 337q-6 42 -14.5 55t-28.5 13q-22 0 -49.5 -45.5t-49.5 -110.5l-61 25q17 55 41 104.5t59 97t84 75.5t105 28q129 0 151 -176l19 -139l155 190 q52 66 92 95.5t89 29.5q34 0 56.5 -21t29.5 -57q4 -22 4 -47q1 -16 -1 -33q-4 -44 -24.5 -93t-52.5 -93l-58 23q19 54 19.5 92.5t-12 55.5t-33.5 17q-9 0 -18.5 -4t-20.5 -15t-17.5 -18t-20.5 -24t-19 -23l-154 -188l49 -350q6 -57 39 -57q25 0 50 32.5t65 114.5l53 -29 q-69 -146 -149 -221.5t-179 -75.5q-59 0 -86 43.5t-37 126.5l-20 150l-182 -225q-34 -41 -77 -68t-81 -27q-55 0 -71 55z" />
<glyph unicode="y" horiz-adv-x="954" d="M-360 -313q0 41 25.5 70.5t66.5 29.5q32 0 60 -17t48.5 -41t40.5 -48t46 -41t55 -17q43 0 89 29.5t93 95.5t84 159t60.5 234t23.5 308q0 211 -21.5 299t-66.5 88q-25 0 -56 -53t-51 -132l-57 15q35 155 92.5 237t155.5 82q56 0 101 -30.5t73.5 -80t47.5 -117.5 t26.5 -137.5t7.5 -144.5q0 -103 -29 -229t-68 -199l25 -12q120 148 190 379q50 161 50 304q0 61 -9 118q-1 14 -1 26q0 52 24 84q29 39 82 39q61 0 82.5 -31.5t21.5 -95.5q0 -133 -91.5 -364t-244.5 -459q-101 -150 -211.5 -261.5t-243 -183t-261.5 -71.5q-107 0 -183.5 44 t-76.5 124z" />
<glyph unicode="z" horiz-adv-x="890" d="M-29 14q0 17 8.5 33t16 25t29.5 29t30 28l555 563l-2 10q-42 0 -74 13t-49 33t-32.5 42.5t-27 42.5t-31 33t-44.5 13q-31 0 -47 -16.5t-16 -43.5q0 -17 12 -36t27 -34t27 -39t12 -51q0 -41 -32 -67.5t-73 -26.5q-65 0 -104 47.5t-39 120.5q0 109 80 180.5t213 71.5 q57 0 104 -14.5t72.5 -32.5t60 -32.5t70.5 -14.5q60 0 95.5 27.5t51.5 60.5q6 11 22 11q13 0 32 -8q36 -16 40 -38v-4q0 -6 -4 -10l-600 -608l4 -13q44 0 72.5 -23t43.5 -55.5t29.5 -64.5t40.5 -55t66 -23q31 0 52.5 18t21.5 52q0 27 -15.5 51.5t-33.5 41t-33.5 43.5 t-15.5 58q0 47 33 82t81 35q57 0 100.5 -60.5t43.5 -148.5q0 -129 -90.5 -209t-212.5 -80q-71 0 -125 17t-83 41.5t-51 49t-43.5 41.5t-45.5 17q-28 0 -48.5 -17t-33.5 -41.5t-25 -49t-31 -41.5t-45 -17q-17 0 -28 10.5t-11 32.5z" />
<glyph unicode="{" horiz-adv-x="972" d="M182 522l33 113q133 0 250 76t139 176q14 63 7.5 168t4.5 170q21 113 79 173.5t175 86.5t328 26l-33 -106q-60 0 -111 -9t-96.5 -29.5t-76 -57t-39.5 -86.5q-13 -71 -10.5 -187.5t-8.5 -158.5q-27 -122 -148.5 -203t-252.5 -78l-12 -41q118 -16 186.5 -109t34.5 -219 q-13 -40 -78 -159.5t-84 -194.5q-16 -51 -13 -93.5t23 -73.5t73 -48.5t138 -17.5l-33 -107q-273 0 -386 91.5t-62 248.5q25 64 96 178.5t92 171.5q40 134 -23.5 216.5t-191.5 82.5z" />
<glyph unicode="|" d="M457 -471v2007h192v-2007h-192z" />
<glyph unicode="}" horiz-adv-x="972" d="M-174 -467l33 107q294 0 350 192q24 78 28.5 210t20.5 185q36 125 160 219t262 109l10 41q-125 27 -196 101.5t-43 179.5q14 47 87.5 168.5t96.5 197.5q33 91 -32 126.5t-216 35.5l33 106q257 0 380 -63t81 -203q-19 -64 -95.5 -177.5t-97.5 -180.5q-29 -106 34.5 -188.5 t184.5 -82.5l-35 -114q-137 0 -245.5 -75t-145.5 -204q-19 -62 -14.5 -190.5t-17.5 -200.5q-24 -80 -62.5 -133t-109.5 -92t-180.5 -56.5t-270.5 -17.5z" />
<glyph unicode="~" d="M72 418q36 121 125.5 243.5t144.5 122.5q41 0 103.5 -25.5t116.5 -56t116 -56t102 -25.5q50 0 104 51t77 112l73 -28q-42 -142 -129.5 -252.5t-165.5 -110.5q-47 0 -215 81t-215 81q-24 0 -45.5 -12.5t-42 -41.5t-33 -50.5t-34.5 -65.5z" />
<glyph unicode="&#xa1;" horiz-adv-x="749" d="M27 -289l387 973l118 -31l-206 -1018zM408 1018q0 66 47.5 112t113.5 46t112 -46t46 -112t-46 -114t-112 -48t-113.5 48t-47.5 114z" />
<glyph unicode="&#xa2;" horiz-adv-x="886" d="M178 453q0 140 72 282t185.5 238t230.5 112l59 203l61 -18l-53 -185q66 -5 106 -36.5t40 -90.5q0 -50 -29 -83t-74 -33q-26 0 -44.5 15.5t-25.5 30.5t-18 44l-170 -590q56 1 108.5 35t110.5 102l41 -33q-50 -75 -127 -142t-170 -93l-55 -193l-61 19l47 162h-25 q-96 0 -152.5 65.5t-56.5 188.5zM401 500q0 -105 56 -144l184 643h-2q-44 0 -87.5 -48.5t-78.5 -129.5q-36 -73 -54 -162t-18 -159z" />
<glyph unicode="&#xa3;" horiz-adv-x="1122" d="M-20 35q0 60 70 114t200 58q90 90 135 231q18 64 18 129v82h-188v80h188v102q0 95 30 176t77 135t107 92t118.5 55.5t112.5 17.5q141 0 221 -60.5t80 -138.5q0 -55 -30.5 -85t-76.5 -30q-35 0 -59.5 25t-38.5 60.5l-28 71t-36.5 60.5t-54.5 25q-82 0 -132 -87.5 t-50 -244.5v-174h256v-80h-258q-5 -70 -26.5 -131t-46 -100t-62 -74.5t-60.5 -52t-55 -35.5l8 -23q65 25 107 25q45 0 79 -16t55.5 -38.5t40.5 -45t45.5 -38.5t59.5 -16q42 0 66.5 22t24.5 58q0 35 -30 80.5t-30 79.5q0 41 25.5 68.5t66.5 27.5q48 0 76.5 -37.5t28.5 -95.5 q0 -101 -53.5 -178.5t-136 -115.5t-177.5 -38q-136 0 -239 57t-138 122h-8q-48 -93 -105.5 -136t-113.5 -43q-63 0 -63 60z" />
<glyph unicode="&#xa4;" horiz-adv-x="1277" d="M213 941.5q2 20.5 15.5 38.5t32 33t37.5 16.5t32 -9.5l94 -96q120 86 264 86q145 0 258 -80l88 92q21 22 59.5 -0.5t60 -62.5t1.5 -60l-92 -88q78 -115 78 -254q0 -143 -86 -266l98 -94q13 -13 11.5 -34t-14.5 -39.5t-31 -33.5t-37 -16.5t-33 10.5l-103 102 q-114 -82 -258 -82q-141 0 -254 74l-86 -90q-13 -15 -35.5 -13t-42.5 16.5t-36 34t-18.5 40t11.5 35.5l90 88q-81 113 -81 268q0 142 81 260l-92 90q-14 14 -12 34.5zM379 555q0 -143 86 -236.5t225 -93.5q129 0 216 94.5t87 235.5q0 146 -86.5 239t-218.5 93 q-144 0 -226.5 -94t-82.5 -238z" />
<glyph unicode="&#xa5;" horiz-adv-x="1236" d="M193 301v76h266l33 108h-238v76h262l10 35l-143 592l-135 29v65h538v-65l-153 -29l110 -492h29l424 492l-160 29v65h396v-65l-138 -29l-506 -592l-10 -35h223v-76h-247l-33 -108h219v-76h-242l-63 -207l158 -28v-66h-590v66l170 28l63 207h-243z" />
<glyph unicode="&#xa6;" d="M457 246h192v-717h-192v717zM457 819v717h192v-717h-192z" />
<glyph unicode="&#xa7;" horiz-adv-x="1044" d="M14 -176q0 46 28 75t71 29q27 0 50 -16t41.5 -38t38.5 -44.5t50 -38.5t67 -16q49 0 85 35t36 106q0 51 -24 113.5t-58.5 124t-68.5 125t-58 137.5t-24 143q0 125 75.5 219t204.5 101q-55 119 -55 241q0 151 98 250.5t260 99.5q112 0 183 -55.5t71 -128.5q0 -92 -90 -92 q-41 0 -69.5 28t-43 61t-44.5 61t-74 28q-49 0 -72.5 -41t-23.5 -92q0 -64 24 -136t59 -136.5t69.5 -128.5t58.5 -133.5t24 -129.5q0 -73 -36.5 -143.5t-109 -120t-161.5 -49.5q56 -117 68 -166q10 -40 10 -78q0 -101 -57.5 -183t-141 -123.5t-170.5 -41.5 q-134 0 -212.5 43.5t-78.5 110.5zM440 651q0 -70 28 -135.5t89 -148.5q19 -19 61 -19q34 0 61.5 35.5t27.5 95.5q0 70 -38.5 151t-99.5 142q-20 12 -41 12q-34 0 -61 -37.5t-27 -95.5z" />
<glyph unicode="&#xa8;" horiz-adv-x="1024" d="M182 1180q0 54 41 95.5t94 41.5q56 0 96 -41t40 -96q0 -53 -40 -93t-96 -40q-53 0 -94 40.5t-41 92.5zM571 1180q0 54 41.5 95.5t96.5 41.5q50 0 91.5 -42t41.5 -95q0 -52 -41.5 -92.5t-91.5 -40.5q-55 0 -96.5 40t-41.5 93z" />
<glyph unicode="&#xa9;" horiz-adv-x="1439" d="M152 606q0 127 50 243t134.5 200.5t201.5 135t244 50.5q133 0 250.5 -50t200 -135t130.5 -201t48 -243q0 -170 -85 -315.5t-230 -230.5t-314 -85q-172 0 -316 79.5t-229 225t-85 326.5zM272 602q0 -226 143.5 -375t368.5 -149q226 0 366 148.5t140 375.5 q0 232 -144.5 383.5t-363.5 151.5q-222 0 -366 -153t-144 -382zM432 608q0 156 108 252t269 96q123 0 254 -71v-158h-57q-30 86 -79 120t-118 34q-84 0 -135 -66t-51 -205q0 -131 57 -200.5t133 -69.5q83 0 130.5 36t74.5 116h53v-152q-64 -40 -120.5 -60t-135.5 -20 q-161 0 -272 93.5t-111 254.5z" />
<glyph unicode="&#xaa;" horiz-adv-x="880" d="M139 678q0 66 23 146.5t63 152.5q75 138 189.5 234t203.5 96q49 0 76.5 -11.5t42.5 -38.5h8q10 26 28.5 38t57.5 12q113 0 106 -28q0 -1 -1 -3l-182 -571q-3 -15 1 -27t17 -12q18 0 49.5 36t65.5 95l51 -33q-41 -73 -84.5 -123.5t-82 -74t-68 -33t-56.5 -9.5 q-18 0 -32.5 4.5t-27.5 18.5t-18.5 35.5t-2 59.5t19.5 87l-23 14q-143 -223 -297 -223q-127 0 -127 158zM362 733q0 -27 6.5 -36t24.5 -9q61 0 140.5 114t156.5 339q-3 52 -15.5 75t-39.5 23q-34 0 -84.5 -57.5t-104.5 -157.5q-39 -77 -61.5 -155.5t-22.5 -135.5z" />
<glyph unicode="&#xab;" horiz-adv-x="1378" d="M207 465l14 47l551 428l78 -72l-361 -401l-10 -31l74 -416l-131 -28zM672 465l14 47l551 428l78 -72l-361 -401l-10 -31l74 -416l-131 -28z" />
<glyph unicode="&#xac;" d="M78 469v172h936v-535h-183v363h-753z" />
<glyph unicode="&#xad;" horiz-adv-x="643" d="M74 416l63 198h512l-63 -198h-512z" />
<glyph unicode="&#xae;" horiz-adv-x="1040" d="M266 1030q0 180 129.5 309t309.5 129q187 0 312.5 -128t125.5 -310q0 -180 -129 -309t-309 -129q-183 0 -311 124.5t-128 313.5zM356 1028q0 -155 98.5 -256.5t252.5 -101.5q144 0 245 103t101 255q0 158 -100.5 259.5t-247.5 101.5q-159 0 -254 -102t-95 -259zM477 801 v41l55 14v375l-55 14v41h248q24 0 51 -5.5t56 -18.5t48 -39.5t19 -63.5q0 -39 -32.5 -73.5t-78.5 -45.5v-16q23 -13 71 -81.5t67 -86.5l30 -14v-41h-122q-24 19 -53.5 66t-59 89t-59.5 54h-17v-154l66 -14v-41h-234zM645 1063h43q42 0 63 28t21 64q0 40 -24.5 58t-57.5 18 h-45v-168z" />
<glyph unicode="&#xaf;" horiz-adv-x="1024" d="M262 999v160h500v-160h-500z" />
<glyph unicode="&#xb0;" horiz-adv-x="751" d="M205 1012q0 121 86.5 208t206.5 87q122 0 208.5 -86.5t86.5 -208.5q0 -120 -87 -206.5t-208 -86.5q-120 0 -206.5 86.5t-86.5 206.5zM342 1012q0 -71 43 -120.5t111 -49.5q69 0 114 49.5t45 120.5q0 72 -45 123t-114 51q-67 0 -110.5 -51t-43.5 -123z" />
<glyph unicode="&#xb1;" d="M139 0v168h828v-168h-828zM139 553v168h330v287h168v-287h330v-168h-330v-287h-168v287h-330z" />
<glyph unicode="&#xb2;" horiz-adv-x="720" d="M143 723q126 84 242 184t196.5 201t80.5 162q0 59 -72 59q-81 0 -203 -104l-35 39q82 82 186.5 144t200.5 62q62 0 104 -30.5t42 -87.5q0 -162 -377 -430l-47 -41l2 -17h209l108 94l47 -16l-165 -258h-517z" />
<glyph unicode="&#xb3;" horiz-adv-x="673" d="M195 774q0 38 24.5 63t61.5 25q29 0 46 -17.5t23.5 -38.5t23.5 -38.5t46 -17.5q56 0 105.5 45.5t49.5 130.5q0 49 -28 79.5t-62 30.5q-10 0 -22 -4l-41 -14l-23 65q119 40 193 96t74 115q0 22 -16.5 35.5t-45.5 13.5q-86 0 -186 -79l-27 36q57 62 157.5 116t192.5 54 q58 0 93.5 -24t35.5 -72q0 -137 -239 -264v-12q63 -16 102 -62.5t39 -115.5q0 -61 -38 -110.5t-97 -77.5t-122.5 -43t-123.5 -15q-98 0 -147 27.5t-49 72.5z" />
<glyph unicode="&#xb4;" horiz-adv-x="1024" d="M379 999v37l186 316h244v-41l-295 -312h-135z" />
<glyph unicode="&#xb6;" horiz-adv-x="1218" d="M172 983q62 197 247 330t419 133h610l-39 -131q-67 0 -121.5 -50.5t-77.5 -123.5l-446 -1463h-162l500 1637h-115l-500 -1637h-161l249 820q-265 0 -369.5 127t-33.5 358zM454.5 709.5q35.5 -99.5 155.5 -99.5l215 705q-112 0 -209 -92.5t-143 -243.5 q-54 -170 -18.5 -269.5z" />
<glyph unicode="&#xb7;" horiz-adv-x="518" d="M158 567q0 66 45.5 114t111.5 48t114 -48t48 -114t-48 -111.5t-114 -45.5t-111.5 45.5t-45.5 111.5z" />
<glyph unicode="&#xb8;" horiz-adv-x="1024" d="M348 -215l127 256h113l-72 -154q93 0 147 -34t54 -103q0 -92 -92.5 -161t-221.5 -89l-16 66q80 16 132 49t52 74q0 42 -40 64t-101 22q-40 0 -72 -4z" />
<glyph unicode="&#xb9;" horiz-adv-x="626" d="M201 684v70l159 30l160 523q-106 -46 -211 -29l19 70q64 2 156 34.5t180 87.5l98 -18l-203 -668l131 -30v-70h-489z" />
<glyph unicode="&#xba;" horiz-adv-x="790" d="M166 752q0 138 69.5 267.5t180.5 208.5t227 79q101 0 171.5 -59t70.5 -175q0 -89 -40 -187.5t-105 -180t-157 -134.5t-188 -53q-112 0 -170.5 66.5t-58.5 167.5zM358 647q0 -26 12 -37.5t40 -11.5q72 0 147 160q46 94 90.5 231t44.5 191q0 23 -12.5 37t-34.5 14 q-77 0 -143 -131q-58 -110 -101 -243t-43 -210z" />
<glyph unicode="&#xbb;" horiz-adv-x="1378" d="M115 63l360 402l10 31l-73 415l131 29l215 -473l-15 -47l-550 -428zM580 63l360 402l10 31l-73 415l131 29l215 -473l-15 -47l-551 -428z" />
<glyph unicode="&#xbc;" horiz-adv-x="1433" d="M-70 -246l1678 1602l59 -68l-1671 -1607zM166 553v70l160 30l170 553q-104 -46 -211 -28l18 69q127 3 311 123l99 -18l-213 -699l131 -30v-70h-465zM516 -115l678 615l51 -19l-162 -534h101l-29 -99h-102l-56 -176h-172l56 176h-357zM711 -35l6 -18h194l78 260l-8 6z" />
<glyph unicode="&#xbd;" horiz-adv-x="1433" d="M-70 -246l1678 1602l59 -68l-1671 -1607zM166 553v70l160 30l170 553q-104 -46 -211 -28l18 69q127 3 311 123l99 -18l-213 -699l131 -30v-70h-465zM565 -289q64 43 146 108.5t169.5 143.5t154 158.5t83.5 136.5q17 53 -1.5 83t-67.5 30q-44 0 -113.5 -43.5t-124.5 -98.5 l-33 35q228 228 414 228q83 0 117 -46t12 -120q-15 -49 -56.5 -106t-106.5 -118t-113.5 -102.5t-122.5 -99.5t-88 -70l4 -16h266l80 71l45 -16l-125 -197h-537z" />
<glyph unicode="&#xbe;" horiz-adv-x="1433" d="M-68 -246l1676 1602l61 -68l-1671 -1607zM178 655q0 36 23 61t67 25q30 0 51.5 -20.5t32 -45t31 -45t49.5 -20.5q64 0 120 55.5t56 139.5q0 62 -35 97.5t-88 35.5q-13 0 -43 -10l-39 -15l-22 50q165 79 224 123q79 59 79 114q0 24 -18.5 39.5t-49.5 15.5 q-51 0 -112.5 -31t-110.5 -73l-22 41q62 62 162 116t182 54q64 0 106.5 -27t42.5 -78q0 -117 -221 -225l-4 -12q57 -25 97 -69t40 -103t-24.5 -110t-64.5 -86t-91.5 -60.5t-105 -37t-105.5 -11.5q-101 0 -154 30t-53 82zM516 -115l678 615l51 -19l-162 -534h101l-29 -99 h-102l-56 -176h-172l56 176h-357zM711 -35l6 -18h194l78 260l-8 6z" />
<glyph unicode="&#xbf;" horiz-adv-x="919" d="M0 -84q0 68 20.5 124t55 96t79.5 73t94.5 57.5t99 47t94.5 44.5t79.5 46t55 56.5t20.5 71.5t-28 65t-91 26q-31 0 -53 -11l-10 68q53 18 141 18q110 0 177 -59.5t67 -142.5q0 -78 -33.5 -139.5t-86.5 -100.5t-117.5 -71.5t-129 -62.5t-117.5 -63.5t-86.5 -85 t-33.5 -116.5q0 -66 31.5 -106t82.5 -40q33 0 55 24t35 58t26.5 68t39 58t63.5 24q53 0 82 -29.5t29 -79.5q0 -89 -85 -141.5t-216 -52.5q-141 0 -240.5 74t-99.5 202zM575 1018q0 66 48 112t114 46t112 -46t46 -112t-46 -114t-112 -48t-114 48t-48 114z" />
<glyph unicode="&#xc0;" horiz-adv-x="1462" d="M-55 0v76l139 51l1110 1343l205 -20l-228 -1344l150 -30v-76h-639v76l180 30l82 429h-393l-328 -408l129 -51v-76h-407zM627 627h336l98 503l-23 7zM1030 1860v41h244l186 -316v-37h-135z" />
<glyph unicode="&#xc1;" horiz-adv-x="1462" d="M-55 0v76l139 51l1110 1343l205 -20l-228 -1344l150 -30v-76h-639v76l180 30l82 429h-393l-328 -408l129 -51v-76h-407zM627 627h336l98 503l-23 7zM1194 1548v37l186 316h244v-41l-295 -312h-135z" />
<glyph unicode="&#xc2;" horiz-adv-x="1462" d="M-55 0v76l139 51l1110 1343l205 -20l-228 -1344l150 -30v-76h-639v76l180 30l82 429h-393l-328 -408l129 -51v-76h-407zM627 627h336l98 503l-23 7zM1016 1548l12 37l334 316h119l141 -316l-12 -37h-66l-170 181l-276 -181h-82z" />
<glyph unicode="&#xc3;" horiz-adv-x="1462" d="M-55 0v76l139 51l1110 1343l205 -20l-228 -1344l150 -30v-76h-639v76l180 30l82 429h-393l-328 -408l129 -51v-76h-407zM627 627h336l98 503l-23 7zM993 1602q23 91 84.5 181.5t98.5 90.5q43 0 147.5 -62.5t146.5 -62.5q32 0 68 41t49 84l74 -21q-28 -110 -86.5 -190 t-112.5 -80q-34 0 -145.5 61.5t-145.5 61.5q-29 0 -50 -31.5t-48 -97.5z" />
<glyph unicode="&#xc4;" horiz-adv-x="1462" d="M-55 0v76l139 51l1110 1343l205 -20l-228 -1344l150 -30v-76h-639v76l180 30l82 429h-393l-328 -408l129 -51v-76h-407zM627 627h336l98 503l-23 7zM997 1729q0 54 41.5 95.5t94.5 41.5q56 0 95.5 -41t39.5 -96q0 -53 -39.5 -93.5t-95.5 -40.5q-53 0 -94.5 41t-41.5 93z M1386 1729q0 54 41.5 95.5t96.5 41.5q50 0 91.5 -42t41.5 -95q0 -52 -41.5 -93t-91.5 -41q-55 0 -96.5 40.5t-41.5 93.5z" />
<glyph unicode="&#xc5;" horiz-adv-x="1462" d="M-55 0v76l139 51l1110 1343l205 -20l-228 -1344l150 -30v-76h-639v76l180 30l82 429h-393l-328 -408l129 -51v-76h-407zM627 627h336l98 503l-23 7zM1135 1749q0 89 61.5 151t149.5 62q89 0 151 -62t62 -151q0 -88 -62 -149.5t-151 -61.5q-88 0 -149.5 61.5t-61.5 149.5z M1239 1749q0 -48 29 -80.5t75 -32.5q50 0 80.5 32.5t30.5 80.5q0 51 -30.5 84t-80.5 33q-46 0 -75 -33.5t-29 -83.5z" />
<glyph unicode="&#xc6;" horiz-adv-x="1982" d="M-55 0v86l147 51l1084 1202l-175 31v76h1047v-424h-84l-164 336h-307l-164 -545h230l102 176h92l-135 -491h-92v211h-232l-190 -621h397l383 315h84l-231 -403h-1125v76l187 30l131 429h-350l-349 -398l121 -51v-86h-407zM662 627h296l162 522z" />
<glyph unicode="&#xc7;" horiz-adv-x="1443" d="M174 596q0 177 72 340t191 279.5t277 185.5t324 69q129 0 229.5 -41.5t196.5 -125.5l37 40h90l-121 -389h-81q0 116 -24 200.5t-67.5 131t-96 67.5t-116.5 21q-82 0 -166.5 -39.5t-162.5 -118t-139 -185.5t-97.5 -253.5t-36.5 -310.5q0 -209 74 -300t225 -91 q149 0 281 109t215 270h94l-86 -281q-135 -98 -250 -146.5t-258 -52.5l-41 -88q93 0 147 -34t54 -103q0 -92 -92 -161t-221 -89l-17 66q80 16 132.5 49t52.5 74q0 42 -40.5 64t-101.5 22q-39 0 -71 -4l-11 14l97 197q-100 14 -187.5 60t-156.5 121t-108.5 186.5t-39.5 246.5 z" />
<glyph unicode="&#xc8;" horiz-adv-x="1310" d="M-59 0v76l186 30l381 1233l-178 31v76h1046v-424h-84l-164 336h-307l-164 -545h230l102 176h92l-135 -491h-92v211h-231l-191 -621h397l383 315h84l-231 -403h-1124zM707 1860v41h243l187 -316v-37h-136z" />
<glyph unicode="&#xc9;" horiz-adv-x="1310" d="M-59 0v76l186 30l381 1233l-178 31v76h1046v-424h-84l-164 336h-307l-164 -545h230l102 176h92l-135 -491h-92v211h-231l-191 -621h397l383 315h84l-231 -403h-1124zM870 1548v37l187 316h243v-41l-294 -312h-136z" />
<glyph unicode="&#xca;" horiz-adv-x="1310" d="M-59 0v76l186 30l381 1233l-178 31v76h1046v-424h-84l-164 336h-307l-164 -545h230l102 176h92l-135 -491h-92v211h-231l-191 -621h397l383 315h84l-231 -403h-1124zM692 1548l13 37l333 316h119l141 -316l-12 -37h-65l-170 181l-277 -181h-82z" />
<glyph unicode="&#xcb;" horiz-adv-x="1310" d="M-59 0v76l186 30l381 1233l-178 31v76h1046v-424h-84l-164 336h-307l-164 -545h230l102 176h92l-135 -491h-92v211h-231l-191 -621h397l383 315h84l-231 -403h-1124zM674 1729q0 54 41 95.5t94 41.5q56 0 95.5 -41t39.5 -96q0 -53 -39.5 -93.5t-95.5 -40.5q-53 0 -94 41 t-41 93zM1063 1729q0 54 41 95.5t96 41.5q50 0 91.5 -42t41.5 -95q0 -52 -41.5 -93t-91.5 -41q-55 0 -96 40.5t-41 93.5z" />
<glyph unicode="&#xcc;" horiz-adv-x="759" d="M-59 0v76l186 30l379 1233l-176 31v76h674v-76l-191 -31l-379 -1233l178 -30v-76h-671zM420 1860v41h244l186 -316v-37h-135z" />
<glyph unicode="&#xcd;" horiz-adv-x="759" d="M-59 0v76l186 30l379 1233l-176 31v76h674v-76l-191 -31l-379 -1233l178 -30v-76h-671zM584 1548v37l186 316h244v-41l-295 -312h-135z" />
<glyph unicode="&#xce;" horiz-adv-x="759" d="M-59 0v76l186 30l379 1233l-176 31v76h674v-76l-191 -31l-379 -1233l178 -30v-76h-671zM406 1548l12 37l334 316h118l142 -316l-13 -37h-65l-170 181l-277 -181h-81z" />
<glyph unicode="&#xcf;" horiz-adv-x="759" d="M-59 0v76l186 30l379 1233l-176 31v76h674v-76l-191 -31l-379 -1233l178 -30v-76h-671zM387 1729q0 54 41 95.5t94 41.5q56 0 95.5 -41t39.5 -96q0 -53 -39.5 -93.5t-95.5 -40.5q-53 0 -94 41t-41 93zM776 1729q0 54 41 95.5t96 41.5q50 0 92 -42t42 -95q0 -52 -42 -93 t-92 -41q-55 0 -96 40.5t-41 93.5z" />
<glyph unicode="&#xd0;" horiz-adv-x="1660" d="M-59 0v76l190 30l168 558h-193l37 112h191l172 563l-176 31v76h676q314 0 491.5 -153.5t177.5 -426.5q0 -71 -18.5 -148.5t-59.5 -162.5t-101 -164t-149.5 -150.5t-197.5 -124.5t-252 -84.5t-307 -31.5h-649zM440 102h199q146 0 280 68.5t230.5 183t153.5 269.5t57 321 q0 197 -98 298t-250 101h-197l-172 -567h322l-37 -112h-320z" />
<glyph unicode="&#xd1;" horiz-adv-x="1648" d="M-80 0v76l164 51l543 1212l-146 31v76h412l307 -1079h29l401 952l-174 51v76h459v-76l-176 -51l-559 -1323h-181l-325 1149h-29l-452 -1018l167 -51v-76h-440zM911 1602q23 91 84.5 181.5t98.5 90.5q43 0 148 -62.5t147 -62.5q32 0 67.5 41t48.5 84l74 -21 q-28 -110 -86.5 -190t-112.5 -80q-34 0 -145 61.5t-145 61.5q-29 0 -50.5 -32t-48.5 -97z" />
<glyph unicode="&#xd2;" horiz-adv-x="1644" d="M174 602q0 150 50 287.5t136.5 241.5t198.5 181.5t239.5 117.5t256.5 40q275 0 437.5 -158t162.5 -431q0 -158 -51 -302t-138 -252t-199 -188.5t-238 -122t-251 -41.5q-133 0 -243 40.5t-191 117.5t-125.5 197t-44.5 272zM483 393q0 -159 78.5 -238t212.5 -79 q90 0 178.5 65t158.5 171t124 235.5t83.5 265t29.5 252.5q0 152 -74 230.5t-189 78.5q-141 0 -282.5 -149.5t-230.5 -379t-89 -452.5zM887 1860v41h243l187 -316v-37h-135z" />
<glyph unicode="&#xd3;" horiz-adv-x="1644" d="M174 602q0 150 50 287.5t136.5 241.5t198.5 181.5t239.5 117.5t256.5 40q275 0 437.5 -158t162.5 -431q0 -158 -51 -302t-138 -252t-199 -188.5t-238 -122t-251 -41.5q-133 0 -243 40.5t-191 117.5t-125.5 197t-44.5 272zM483 393q0 -159 78.5 -238t212.5 -79 q90 0 178.5 65t158.5 171t124 235.5t83.5 265t29.5 252.5q0 152 -74 230.5t-189 78.5q-141 0 -282.5 -149.5t-230.5 -379t-89 -452.5zM1051 1548v37l186 316h244v-41l-295 -312h-135z" />
<glyph unicode="&#xd4;" horiz-adv-x="1644" d="M174 602q0 150 50 287.5t136.5 241.5t198.5 181.5t239.5 117.5t256.5 40q275 0 437.5 -158t162.5 -431q0 -158 -51 -302t-138 -252t-199 -188.5t-238 -122t-251 -41.5q-133 0 -243 40.5t-191 117.5t-125.5 197t-44.5 272zM483 393q0 -159 78.5 -238t212.5 -79 q90 0 178.5 65t158.5 171t124 235.5t83.5 265t29.5 252.5q0 152 -74 230.5t-189 78.5q-141 0 -282.5 -149.5t-230.5 -379t-89 -452.5zM872 1548l13 37l334 316h118l142 -316l-13 -37h-65l-170 181l-277 -181h-82z" />
<glyph unicode="&#xd5;" horiz-adv-x="1644" d="M174 602q0 150 50 287.5t136.5 241.5t198.5 181.5t239.5 117.5t256.5 40q275 0 437.5 -158t162.5 -431q0 -158 -51 -302t-138 -252t-199 -188.5t-238 -122t-251 -41.5q-133 0 -243 40.5t-191 117.5t-125.5 197t-44.5 272zM483 393q0 -159 78.5 -238t212.5 -79 q90 0 178.5 65t158.5 171t124 235.5t83.5 265t29.5 252.5q0 152 -74 230.5t-189 78.5q-141 0 -282.5 -149.5t-230.5 -379t-89 -452.5zM850 1602q23 91 84 181.5t98 90.5q43 0 148 -62.5t147 -62.5q32 0 68 41t49 84l74 -21q-28 -110 -86.5 -190t-112.5 -80 q-34 0 -145.5 61.5t-145.5 61.5q-29 0 -50 -31.5t-48 -97.5z" />
<glyph unicode="&#xd6;" horiz-adv-x="1644" d="M174 602q0 150 50 287.5t136.5 241.5t198.5 181.5t239.5 117.5t256.5 40q275 0 437.5 -158t162.5 -431q0 -158 -51 -302t-138 -252t-199 -188.5t-238 -122t-251 -41.5q-133 0 -243 40.5t-191 117.5t-125.5 197t-44.5 272zM483 393q0 -159 78.5 -238t212.5 -79 q90 0 178.5 65t158.5 171t124 235.5t83.5 265t29.5 252.5q0 152 -74 230.5t-189 78.5q-141 0 -282.5 -149.5t-230.5 -379t-89 -452.5zM854 1729q0 54 41 95.5t94 41.5q56 0 95.5 -41t39.5 -96q0 -53 -39.5 -93.5t-95.5 -40.5q-53 0 -94 41t-41 93zM1243 1729q0 54 41 95.5 t96 41.5q50 0 91.5 -42t41.5 -95q0 -52 -41.5 -93t-91.5 -41q-55 0 -96 40.5t-41 93.5z" />
<glyph unicode="&#xd7;" d="M172 231l262 263l-262 262l119 118l262 -262l262 262l119 -118l-262 -262l262 -263l-119 -118l-262 262l-262 -262z" />
<glyph unicode="&#xd8;" horiz-adv-x="1644" d="M92 -90l225 252q-143 165 -143 440q0 150 50 287.5t136.5 241.5t198.5 181.5t239.5 117.5t256.5 40q209 0 354 -94l125 140h149l-188 -209q160 -157 160 -426q0 -158 -51 -302t-138 -252t-199 -188.5t-238 -122t-251 -41.5q-226 0 -379 111l-157 -176h-150zM483 393 q0 -33 2 -47l818 911q-34 58 -91.5 87.5t-126.5 29.5q-141 0 -282.5 -149.5t-230.5 -379t-89 -452.5zM518 217q68 -141 256 -141q90 0 178.5 65t158.5 171t124 235.5t83.5 265t29.5 252.5q0 32 -7 72z" />
<glyph unicode="&#xd9;" horiz-adv-x="1579" d="M220 381q2 68 24 141l248 817l-175 31v76h678v-76l-194 -31l-242 -800q-63 -197 5.5 -312.5t244.5 -115.5q173 0 315 119t209 337l228 752l-158 51v76h446v-76l-176 -51l-237 -787q-27 -87 -68.5 -166t-105 -151.5t-140.5 -125t-179.5 -83.5t-217.5 -31q-104 0 -189 20.5 t-144 57t-99 87.5t-57.5 112t-15.5 129zM926 1860v41h243l187 -316v-37h-135z" />
<glyph unicode="&#xda;" horiz-adv-x="1579" d="M220 381q2 68 24 141l248 817l-175 31v76h678v-76l-194 -31l-242 -800q-63 -197 5.5 -312.5t244.5 -115.5q173 0 315 119t209 337l228 752l-158 51v76h446v-76l-176 -51l-237 -787q-27 -87 -68.5 -166t-105 -151.5t-140.5 -125t-179.5 -83.5t-217.5 -31q-104 0 -189 20.5 t-144 57t-99 87.5t-57.5 112t-15.5 129zM1090 1548v37l186 316h244v-41l-295 -312h-135z" />
<glyph unicode="&#xdb;" horiz-adv-x="1579" d="M220 381q2 68 24 141l248 817l-175 31v76h678v-76l-194 -31l-242 -800q-63 -197 5.5 -312.5t244.5 -115.5q173 0 315 119t209 337l228 752l-158 51v76h446v-76l-176 -51l-237 -787q-27 -87 -68.5 -166t-105 -151.5t-140.5 -125t-179.5 -83.5t-217.5 -31q-104 0 -189 20.5 t-144 57t-99 87.5t-57.5 112t-15.5 129zM911 1548l13 37l333 316h119l142 -316l-13 -37h-65l-170 181l-277 -181h-82z" />
<glyph unicode="&#xdc;" horiz-adv-x="1579" d="M220 381q2 68 24 141l248 817l-175 31v76h678v-76l-194 -31l-242 -800q-63 -197 5.5 -312.5t244.5 -115.5q173 0 315 119t209 337l228 752l-158 51v76h446v-76l-176 -51l-237 -787q-27 -87 -68.5 -166t-105 -151.5t-140.5 -125t-179.5 -83.5t-217.5 -31q-104 0 -189 20.5 t-144 57t-99 87.5t-57.5 112t-15.5 129zM893 1729q0 54 41 95.5t94 41.5q56 0 95.5 -41t39.5 -96q0 -53 -39.5 -93.5t-95.5 -40.5q-53 0 -94 41t-41 93zM1282 1729q0 54 41 95.5t96 41.5q50 0 91.5 -42t41.5 -95q0 -52 -41.5 -93t-91.5 -41q-55 0 -96 40.5t-41 93.5z" />
<glyph unicode="&#xdd;" horiz-adv-x="1372" d="M248 0v76l192 30l172 566l-161 667l-152 31v76h610v-76l-174 -31l125 -559h33l477 559l-180 31v76h446v-76l-147 -31l-578 -667l-172 -566l176 -30v-76h-667zM940 1548v37l186 316h244v-41l-295 -312h-135z" />
<glyph unicode="&#xde;" horiz-adv-x="1200" d="M-59 0v76l188 30l375 1233l-174 31v76h674v-76l-193 -31l-59 -194h53q205 0 324.5 -107.5t119.5 -277.5q0 -190 -138.5 -314t-344.5 -124q-152 0 -248 63l-82 -279l176 -30v-76h-671zM545 479q14 -22 47 -36.5t76 -14.5q105 0 180.5 97.5t75.5 254.5q0 136 -53 199 t-121 63h-33z" />
<glyph unicode="&#xdf;" horiz-adv-x="1312" d="M-336 -297q0 48 29 80.5t74 32.5q39 0 64.5 -19.5t37.5 -47t21 -55.5t22 -47.5t33 -19.5q72 0 141 269l236 942h-185l35 100h170l51 205q39 158 167.5 263t316.5 105q165 0 268.5 -82.5t103.5 -209.5q0 -50 -29.5 -97t-71 -83t-83 -71t-71 -75.5t-29.5 -81.5 q0 -21 6.5 -44.5t13.5 -40.5t25 -44.5t27 -40.5t34 -46t33 -44q104 -140 104 -260q0 -88 -50.5 -162t-132.5 -116t-173 -42q-132 0 -211.5 40.5t-79.5 117.5q0 44 28.5 78.5t72.5 34.5q31 0 59.5 -19t52 -45.5t47 -53.5t53 -46t60.5 -19q30 0 52 21t22 65q0 25 -13 56.5 t-24.5 49.5t-44.5 64t-43 60q-54 73 -84.5 144t-30.5 159q0 58 23 114t56 103t65.5 95t55.5 108.5t23 124.5q0 102 -43 151t-96 49q-68 0 -112 -73.5t-83 -221.5l-303 -1151q-54 -211 -170.5 -326.5t-273.5 -115.5q-104 0 -175 45.5t-71 122.5z" />
<glyph unicode="&#xe0;" horiz-adv-x="1015" d="M37 174q0 86 29 188.5t81 198.5q95 179 237 301.5t261 122.5q49 0 76 -13t61 -50h11q13 34 36 48.5t76 14.5q62 0 90 -9.5t21 -29.5l-234 -723q-8 -31 -1.5 -46t24.5 -15q23 0 63.5 46t81.5 120l47 -27q-177 -326 -350 -326q-21 0 -37 6t-30 25t-18.5 50t4.5 85.5 t34 126.5l-29 19q-80 -149 -175 -232.5t-193 -83.5q-166 0 -166 203zM293 227q0 -33 9.5 -45t31.5 -12q83 0 194.5 165t192.5 435q-1 71 -17.5 100t-50.5 29q-47 0 -113.5 -72.5t-133.5 -203.5q-54 -102 -83.5 -210t-29.5 -186zM502 1372v41h243l187 -315v-37h-135z" />
<glyph unicode="&#xe1;" horiz-adv-x="1015" d="M37 174q0 86 29 188.5t81 198.5q95 179 237 301.5t261 122.5q49 0 76 -13t61 -50h11q13 34 36 48.5t76 14.5q62 0 90 -9.5t21 -29.5l-234 -723q-8 -31 -1.5 -46t24.5 -15q23 0 63.5 46t81.5 120l47 -27q-177 -326 -350 -326q-21 0 -37 6t-30 25t-18.5 50t4.5 85.5 t34 126.5l-29 19q-80 -149 -175 -232.5t-193 -83.5q-166 0 -166 203zM293 227q0 -33 9.5 -45t31.5 -12q83 0 194.5 165t192.5 435q-1 71 -17.5 100t-50.5 29q-47 0 -113.5 -72.5t-133.5 -203.5q-54 -102 -83.5 -210t-29.5 -186zM666 1061v37l186 315h244v-41l-295 -311h-135 z" />
<glyph unicode="&#xe2;" horiz-adv-x="1015" d="M37 174q0 86 29 188.5t81 198.5q95 179 237 301.5t261 122.5q49 0 76 -13t61 -50h11q13 34 36 48.5t76 14.5q62 0 90 -9.5t21 -29.5l-234 -723q-8 -31 -1.5 -46t24.5 -15q23 0 63.5 46t81.5 120l47 -27q-177 -326 -350 -326q-21 0 -37 6t-30 25t-18.5 50t4.5 85.5 t34 126.5l-29 19q-80 -149 -175 -232.5t-193 -83.5q-166 0 -166 203zM293 227q0 -33 9.5 -45t31.5 -12q83 0 194.5 165t192.5 435q-1 71 -17.5 100t-50.5 29q-47 0 -113.5 -72.5t-133.5 -203.5q-54 -102 -83.5 -210t-29.5 -186zM487 1061l13 37l334 315h118l142 -315 l-13 -37h-65l-170 180l-277 -180h-82z" />
<glyph unicode="&#xe3;" horiz-adv-x="1015" d="M37 174q0 86 29 188.5t81 198.5q95 179 237 301.5t261 122.5q49 0 76 -13t61 -50h11q13 34 36 48.5t76 14.5q62 0 90 -9.5t21 -29.5l-234 -723q-8 -31 -1.5 -46t24.5 -15q23 0 63.5 46t81.5 120l47 -27q-177 -326 -350 -326q-21 0 -37 6t-30 25t-18.5 50t4.5 85.5 t34 126.5l-29 19q-80 -149 -175 -232.5t-193 -83.5q-166 0 -166 203zM293 227q0 -33 9.5 -45t31.5 -12q83 0 194.5 165t192.5 435q-1 71 -17.5 100t-50.5 29q-47 0 -113.5 -72.5t-133.5 -203.5q-54 -102 -83.5 -210t-29.5 -186zM465 1114q23 91 84 181.5t98 90.5 q43 0 148 -62t147 -62q32 0 68 40.5t49 83.5l74 -20q-28 -110 -86.5 -190t-112.5 -80q-34 0 -145.5 61.5t-145.5 61.5q-29 0 -50 -31.5t-48 -97.5z" />
<glyph unicode="&#xe4;" horiz-adv-x="1015" d="M37 174q0 86 29 188.5t81 198.5q95 179 237 301.5t261 122.5q49 0 76 -13t61 -50h11q13 34 36 48.5t76 14.5q62 0 90 -9.5t21 -29.5l-234 -723q-8 -31 -1.5 -46t24.5 -15q23 0 63.5 46t81.5 120l47 -27q-177 -326 -350 -326q-21 0 -37 6t-30 25t-18.5 50t4.5 85.5 t34 126.5l-29 19q-80 -149 -175 -232.5t-193 -83.5q-166 0 -166 203zM293 227q0 -33 9.5 -45t31.5 -12q83 0 194.5 165t192.5 435q-1 71 -17.5 100t-50.5 29q-47 0 -113.5 -72.5t-133.5 -203.5q-54 -102 -83.5 -210t-29.5 -186zM469 1241q0 54 41 95.5t94 41.5 q56 0 95.5 -41t39.5 -96q0 -53 -39.5 -93t-95.5 -40q-53 0 -94 40.5t-41 92.5zM858 1241q0 54 41 95.5t96 41.5q50 0 91.5 -42t41.5 -95q0 -52 -41.5 -92.5t-91.5 -40.5q-55 0 -96 40t-41 93z" />
<glyph unicode="&#xe5;" horiz-adv-x="1015" d="M37 174q0 86 29 188.5t81 198.5q95 179 237 301.5t261 122.5q49 0 76 -13t61 -50h11q13 34 36 48.5t76 14.5q62 0 90 -9.5t21 -29.5l-234 -723q-8 -31 -1.5 -46t24.5 -15q23 0 63.5 46t81.5 120l47 -27q-177 -326 -350 -326q-21 0 -37 6t-30 25t-18.5 50t4.5 85.5 t34 126.5l-29 19q-80 -149 -175 -232.5t-193 -83.5q-166 0 -166 203zM293 227q0 -33 9.5 -45t31.5 -12q83 0 194.5 165t192.5 435q-1 71 -17.5 100t-50.5 29q-47 0 -113.5 -72.5t-133.5 -203.5q-54 -102 -83.5 -210t-29.5 -186zM606 1262q0 89 61.5 151t149.5 62 q89 0 151 -62t62 -151q0 -88 -62 -149.5t-151 -61.5q-88 0 -149.5 61.5t-61.5 149.5zM711 1262q0 -48 29 -80.5t75 -32.5q50 0 80.5 32.5t30.5 80.5q0 50 -30.5 83t-80.5 33q-47 0 -75.5 -33t-28.5 -83z" />
<glyph unicode="&#xe6;" horiz-adv-x="1306" d="M37 174q0 86 29 188.5t81 198.5q94 177 234.5 300.5t249.5 123.5q61 0 96 -14.5t55 -48.5h11q13 34 36 48.5t76 14.5q33 0 51 -2.5t23 -9.5t4.5 -12.5t-6.5 -18.5l-6 -14q102 57 200 57q50 0 90 -13.5t69.5 -51t29.5 -95.5q0 -75 -42.5 -139.5t-120 -113t-171 -84 t-209.5 -62.5q-12 -71 -12 -139q0 -150 127 -150q129 0 256 152l49 -37q-90 -127 -204.5 -204t-241.5 -77q-104 0 -171.5 62.5t-74.5 177.5q-77 -115 -164 -177.5t-178 -62.5q-166 0 -166 203zM303 248q0 -34 9.5 -46t31.5 -12q76 0 187 160.5t190 419.5q-1 65 -17.5 92 t-50.5 27q-47 0 -110 -69t-131 -197q-50 -99 -79.5 -200.5t-29.5 -174.5zM838 506q136 40 203 119.5t67 167.5q0 28 -12.5 45.5t-36.5 17.5q-55 0 -119 -104.5t-102 -245.5z" />
<glyph unicode="&#xe7;" horiz-adv-x="806" d="M55 260q0 126 55 258.5t140.5 234.5t195.5 167t213 65q87 0 143 -43t56 -125q0 -63 -29 -98t-79 -35q-37 0 -61.5 20.5t-35.5 50t-19 58.5t-20.5 49.5t-31.5 20.5q-94 0 -187 -201q-41 -87 -61.5 -188.5t-20.5 -178.5q0 -91 32 -134.5t81 -43.5q119 0 248 154l49 -35 q-30 -49 -66 -91.5t-82 -83.5t-103.5 -69t-119.5 -37l-41 -88q93 0 147 -34t54 -103q0 -92 -92 -161t-221 -89l-17 66q80 16 132.5 49t52.5 74q0 42 -40.5 64t-101.5 22q-39 0 -71 -4l-11 14l95 192q-85 18 -134 90.5t-49 192.5z" />
<glyph unicode="&#xe8;" horiz-adv-x="813" d="M51 240q0 91 32.5 194.5t92 200t136 175.5t173 127t193.5 48q36 0 67.5 -8t59.5 -25.5t44.5 -50t16.5 -76.5q0 -76 -43 -140.5t-120 -113.5t-170.5 -84.5t-208.5 -62.5q-13 -76 -13 -137q0 -150 127 -150q125 0 242 148l47 -35q-195 -279 -430 -279q-111 0 -178.5 70 t-67.5 199zM336 1372v41h244l186 -315v-37h-135zM338 498q139 42 207.5 125t68.5 180q0 27 -13 45t-34 18q-62 0 -127 -109t-102 -259z" />
<glyph unicode="&#xe9;" horiz-adv-x="813" d="M51 240q0 91 32.5 194.5t92 200t136 175.5t173 127t193.5 48q36 0 67.5 -8t59.5 -25.5t44.5 -50t16.5 -76.5q0 -76 -43 -140.5t-120 -113.5t-170.5 -84.5t-208.5 -62.5q-13 -76 -13 -137q0 -150 127 -150q125 0 242 148l47 -35q-195 -279 -430 -279q-111 0 -178.5 70 t-67.5 199zM338 498q139 42 207.5 125t68.5 180q0 27 -13 45t-34 18q-62 0 -127 -109t-102 -259zM500 1061v37l186 315h244v-41l-295 -311h-135z" />
<glyph unicode="&#xea;" horiz-adv-x="813" d="M51 240q0 91 32.5 194.5t92 200t136 175.5t173 127t193.5 48q36 0 67.5 -8t59.5 -25.5t44.5 -50t16.5 -76.5q0 -76 -43 -140.5t-120 -113.5t-170.5 -84.5t-208.5 -62.5q-13 -76 -13 -137q0 -150 127 -150q125 0 242 148l47 -35q-195 -279 -430 -279q-111 0 -178.5 70 t-67.5 199zM322 1061l12 37l334 315h118l142 -315l-13 -37h-65l-170 180l-277 -180h-81zM338 498q139 42 207.5 125t68.5 180q0 27 -13 45t-34 18q-62 0 -127 -109t-102 -259z" />
<glyph unicode="&#xeb;" horiz-adv-x="813" d="M51 240q0 91 32.5 194.5t92 200t136 175.5t173 127t193.5 48q36 0 67.5 -8t59.5 -25.5t44.5 -50t16.5 -76.5q0 -76 -43 -140.5t-120 -113.5t-170.5 -84.5t-208.5 -62.5q-13 -76 -13 -137q0 -150 127 -150q125 0 242 148l47 -35q-195 -279 -430 -279q-111 0 -178.5 70 t-67.5 199zM303 1241q0 54 41 95.5t94 41.5q56 0 95.5 -41t39.5 -96q0 -53 -39.5 -93t-95.5 -40q-53 0 -94 40.5t-41 92.5zM338 498q139 42 207.5 125t68.5 180q0 27 -13 45t-34 18q-62 0 -127 -109t-102 -259zM692 1241q0 54 41 95.5t96 41.5q50 0 92 -42t42 -95 q0 -52 -42 -92.5t-92 -40.5q-55 0 -96 40t-41 93z" />
<glyph unicode="&#xec;" horiz-adv-x="626" d="M72 655q82 142 195 236t212 94q44 0 68.5 -24.5t28.5 -83.5t-31 -156l-162 -469q-24 -74 25 -74q31 0 68.5 39t74.5 121l51 -29q-78 -156 -176 -247t-203 -91q-43 0 -69 25.5t-32 82t23 146.5l158 506q19 62 -12 62q-28 0 -77 -48t-89 -124zM197 1372v41h243l187 -315 v-37h-135z" />
<glyph unicode="&#xed;" horiz-adv-x="626" d="M72 655q82 142 195 236t212 94q44 0 68.5 -24.5t28.5 -83.5t-31 -156l-162 -469q-24 -74 25 -74q31 0 68.5 39t74.5 121l51 -29q-78 -156 -176 -247t-203 -91q-43 0 -69 25.5t-32 82t23 146.5l158 506q19 62 -12 62q-28 0 -77 -48t-89 -124zM360 1061v37l187 315h244v-41 l-295 -311h-136z" />
<glyph unicode="&#xee;" horiz-adv-x="626" d="M72 655q82 142 195 236t212 94q44 0 68.5 -24.5t28.5 -83.5t-31 -156l-162 -469q-24 -74 25 -74q31 0 68.5 39t74.5 121l51 -29q-78 -156 -176 -247t-203 -91q-43 0 -69 25.5t-32 82t23 146.5l158 506q19 62 -12 62q-28 0 -77 -48t-89 -124zM182 1061l13 37l333 315h119 l141 -315l-12 -37h-65l-170 180l-277 -180h-82z" />
<glyph unicode="&#xef;" horiz-adv-x="626" d="M72 655q82 142 195 236t212 94q44 0 68.5 -24.5t28.5 -83.5t-31 -156l-162 -469q-24 -74 25 -74q31 0 68.5 39t74.5 121l51 -29q-78 -156 -176 -247t-203 -91q-43 0 -69 25.5t-32 82t23 146.5l158 506q19 62 -12 62q-28 0 -77 -48t-89 -124zM164 1241q0 54 41 95.5 t94 41.5q56 0 95.5 -41t39.5 -96q0 -53 -39.5 -93t-95.5 -40q-53 0 -94 40.5t-41 92.5zM553 1241q0 54 41 95.5t96 41.5q50 0 91.5 -42t41.5 -95q0 -52 -41.5 -92.5t-91.5 -40.5q-55 0 -96 40t-41 93z" />
<glyph unicode="&#xf0;" horiz-adv-x="937" d="M55 270q0 133 52 265.5t134.5 231t191.5 159t216 59.5q17 0 45 -4q-3 79 -71 205l-168 -113l-54 68l177 116q-90 132 -183 181l43 67q155 -73 254 -172l205 137l53 -67l-198 -133q180 -220 180 -527q0 -158 -53.5 -303t-139.5 -246.5t-195 -162t-218 -60.5 q-130 0 -200.5 85t-70.5 214zM283 143q0 -35 14.5 -52t48.5 -17q48 0 91.5 52t94.5 153q57 113 115 290.5t58 243.5q0 74 -46 74q-92 0 -192 -168q-74 -147 -129 -313.5t-55 -262.5z" />
<glyph unicode="&#xf1;" horiz-adv-x="1122" d="M66 651q78 144 178.5 239t197.5 95q46 0 69 -36.5t22 -94.5t-15 -122.5t-39 -127.5l21 -16q47 69 102.5 133.5t121 126.5t136.5 99.5t131 37.5q25 0 43.5 -7t32.5 -27t17 -52.5t-7 -87.5t-35 -129l-151 -446q-24 -74 20 -74q24 0 70 59.5t76 116.5l45 -29 q-76 -155 -176 -246.5t-207 -91.5q-42 0 -69 27.5t-33 83t24 139.5l154 430q30 105 -7 105q-53 0 -171.5 -138t-227.5 -352l-72 -227q-7 -23 -45 -35t-79 -12q-52 0 -91 12.5t-32 34.5l215 688q15 61 -17 61q-20 0 -66.5 -50.5t-86.5 -123.5zM436 1114q23 91 84 181.5 t98 90.5q43 0 148 -62t147 -62q32 0 68 40.5t49 83.5l74 -20q-28 -110 -86.5 -190t-112.5 -80q-34 0 -145.5 61.5t-145.5 61.5q-29 0 -50 -31.5t-48 -97.5z" />
<glyph unicode="&#xf2;" horiz-adv-x="937" d="M55 270q0 133 51.5 265t134 230t190 159t214.5 61q56 0 105.5 -17.5t91 -52t66 -93.5t24.5 -136q0 -115 -49 -242t-129 -231.5t-194 -173t-234 -68.5q-130 0 -200.5 85t-70.5 214zM283 143q0 -40 14 -56.5t49 -16.5q48 0 92 53t94 156q59 123 116 296t57 238q0 36 -15 57 t-41 21q-48 0 -91.5 -41t-90.5 -131q-73 -138 -128.5 -308.5t-55.5 -267.5zM395 1372v41h244l186 -315v-37h-135z" />
<glyph unicode="&#xf3;" horiz-adv-x="937" d="M55 270q0 133 51.5 265t134 230t190 159t214.5 61q56 0 105.5 -17.5t91 -52t66 -93.5t24.5 -136q0 -115 -49 -242t-129 -231.5t-194 -173t-234 -68.5q-130 0 -200.5 85t-70.5 214zM283 143q0 -40 14 -56.5t49 -16.5q48 0 92 53t94 156q59 123 116 296t57 238q0 36 -15 57 t-41 21q-48 0 -91.5 -41t-90.5 -131q-73 -138 -128.5 -308.5t-55.5 -267.5zM559 1061v37l186 315h244v-41l-295 -311h-135z" />
<glyph unicode="&#xf4;" horiz-adv-x="937" d="M55 270q0 133 51.5 265t134 230t190 159t214.5 61q56 0 105.5 -17.5t91 -52t66 -93.5t24.5 -136q0 -115 -49 -242t-129 -231.5t-194 -173t-234 -68.5q-130 0 -200.5 85t-70.5 214zM283 143q0 -40 14 -56.5t49 -16.5q48 0 92 53t94 156q59 123 116 296t57 238q0 36 -15 57 t-41 21q-48 0 -91.5 -41t-90.5 -131q-73 -138 -128.5 -308.5t-55.5 -267.5zM381 1061l12 37l334 315h119l141 -315l-12 -37h-66l-170 180l-276 -180h-82z" />
<glyph unicode="&#xf5;" horiz-adv-x="937" d="M55 270q0 133 51.5 265t134 230t190 159t214.5 61q56 0 105.5 -17.5t91 -52t66 -93.5t24.5 -136q0 -115 -49 -242t-129 -231.5t-194 -173t-234 -68.5q-130 0 -200.5 85t-70.5 214zM283 143q0 -40 14 -56.5t49 -16.5q48 0 92 53t94 156q59 123 116 296t57 238q0 36 -15 57 t-41 21q-48 0 -91.5 -41t-90.5 -131q-73 -138 -128.5 -308.5t-55.5 -267.5zM358 1114q23 91 84.5 181.5t98.5 90.5q43 0 148 -62t147 -62q32 0 67.5 40.5t48.5 83.5l74 -20q-28 -110 -86.5 -190t-112.5 -80q-34 0 -145 61.5t-145 61.5q-29 0 -50.5 -32t-48.5 -97z" />
<glyph unicode="&#xf6;" horiz-adv-x="937" d="M55 270q0 133 51.5 265t134 230t190 159t214.5 61q56 0 105.5 -17.5t91 -52t66 -93.5t24.5 -136q0 -115 -49 -242t-129 -231.5t-194 -173t-234 -68.5q-130 0 -200.5 85t-70.5 214zM283 143q0 -40 14 -56.5t49 -16.5q48 0 92 53t94 156q59 123 116 296t57 238q0 36 -15 57 t-41 21q-48 0 -91.5 -41t-90.5 -131q-73 -138 -128.5 -308.5t-55.5 -267.5zM362 1241q0 54 41.5 95.5t94.5 41.5q56 0 95.5 -41t39.5 -96q0 -53 -39.5 -93t-95.5 -40q-53 0 -94.5 40.5t-41.5 92.5zM752 1241q0 54 41 95.5t96 41.5q50 0 91.5 -42t41.5 -95q0 -52 -41.5 -92.5 t-91.5 -40.5q-55 0 -96 40t-41 93z" />
<glyph unicode="&#xf7;" d="M139 410v168h828v-168h-828zM434 180q0 50 33 83.5t82 33.5t83 -33.5t34 -83.5q0 -49 -33.5 -81.5t-83.5 -32.5t-82.5 32.5t-32.5 81.5zM434 805q0 50 33 83.5t82 33.5t83 -34t34 -83t-33.5 -82t-83.5 -33q-49 0 -82 33t-33 82z" />
<glyph unicode="&#xf8;" horiz-adv-x="937" d="M-33 -96l144 172q-56 80 -56 194q0 133 51.5 265t134 230t190 159t214.5 61q103 0 176 -53l76 90h109l-125 -150q51 -77 51 -186q0 -115 -49 -242t-129 -231.5t-194 -173t-234 -68.5q-88 0 -156 45l-94 -112h-109zM283 143q0 -40 14 -56.5t49 -16.5q48 0 92 53t94 156 q66 137 123 323l-372 -450v-9zM309 315l393 471q0 5 1.5 14t1.5 13q0 36 -15 57t-41 21q-48 0 -91.5 -41t-90.5 -131q-101 -191 -158 -404z" />
<glyph unicode="&#xf9;" horiz-adv-x="1122" d="M84 666q47 81 104 149t132 119t143 51q50 0 78.5 -25.5t33 -81.5t-29.5 -143l-162 -436q-40 -104 10 -104q53 0 130 77.5t148.5 193t121.5 234.5l79 222q7 21 49 34t83 13q50 0 84.5 -14t27.5 -35l-237 -703q-9 -27 -9 -45.5t6 -25.5t15 -7q59 0 160 183l51 -19 q-73 -157 -162 -244.5t-180 -87.5q-30 0 -52.5 7.5t-40.5 32t-20.5 64.5t13 111t53.5 166l-21 17q-107 -169 -244 -283.5t-247 -114.5q-78 0 -95.5 82.5t31.5 220.5l158 447q24 74 -16 74q-24 0 -66 -48.5t-78 -111.5zM469 1372v41h244l186 -315v-37h-135z" />
<glyph unicode="&#xfa;" horiz-adv-x="1122" d="M84 666q47 81 104 149t132 119t143 51q50 0 78.5 -25.5t33 -81.5t-29.5 -143l-162 -436q-40 -104 10 -104q53 0 130 77.5t148.5 193t121.5 234.5l79 222q7 21 49 34t83 13q50 0 84.5 -14t27.5 -35l-237 -703q-9 -27 -9 -45.5t6 -25.5t15 -7q59 0 160 183l51 -19 q-73 -157 -162 -244.5t-180 -87.5q-30 0 -52.5 7.5t-40.5 32t-20.5 64.5t13 111t53.5 166l-21 17q-107 -169 -244 -283.5t-247 -114.5q-78 0 -95.5 82.5t31.5 220.5l158 447q24 74 -16 74q-24 0 -66 -48.5t-78 -111.5zM633 1061v37l186 315h244v-41l-295 -311h-135z" />
<glyph unicode="&#xfb;" horiz-adv-x="1122" d="M84 666q47 81 104 149t132 119t143 51q50 0 78.5 -25.5t33 -81.5t-29.5 -143l-162 -436q-40 -104 10 -104q53 0 130 77.5t148.5 193t121.5 234.5l79 222q7 21 49 34t83 13q50 0 84.5 -14t27.5 -35l-237 -703q-9 -27 -9 -45.5t6 -25.5t15 -7q59 0 160 183l51 -19 q-73 -157 -162 -244.5t-180 -87.5q-30 0 -52.5 7.5t-40.5 32t-20.5 64.5t13 111t53.5 166l-21 17q-107 -169 -244 -283.5t-247 -114.5q-78 0 -95.5 82.5t31.5 220.5l158 447q24 74 -16 74q-24 0 -66 -48.5t-78 -111.5zM455 1061l12 37l334 315h119l141 -315l-12 -37h-66 l-170 180l-276 -180h-82z" />
<glyph unicode="&#xfc;" horiz-adv-x="1122" d="M84 666q47 81 104 149t132 119t143 51q50 0 78.5 -25.5t33 -81.5t-29.5 -143l-162 -436q-40 -104 10 -104q53 0 130 77.5t148.5 193t121.5 234.5l79 222q7 21 49 34t83 13q50 0 84.5 -14t27.5 -35l-237 -703q-9 -27 -9 -45.5t6 -25.5t15 -7q59 0 160 183l51 -19 q-73 -157 -162 -244.5t-180 -87.5q-30 0 -52.5 7.5t-40.5 32t-20.5 64.5t13 111t53.5 166l-21 17q-107 -169 -244 -283.5t-247 -114.5q-78 0 -95.5 82.5t31.5 220.5l158 447q24 74 -16 74q-24 0 -66 -48.5t-78 -111.5zM436 1241q0 54 41 95.5t94 41.5q56 0 96 -41t40 -96 q0 -53 -40 -93t-96 -40q-53 0 -94 40.5t-41 92.5zM825 1241q0 54 41.5 95.5t96.5 41.5q50 0 91.5 -42t41.5 -95q0 -52 -41.5 -92.5t-91.5 -40.5q-55 0 -96.5 40t-41.5 93z" />
<glyph unicode="&#xfd;" horiz-adv-x="954" d="M-360 -313q0 41 25.5 70.5t66.5 29.5q32 0 60 -17t48.5 -41t40.5 -48t46 -41t55 -17q43 0 89 29.5t93 95.5t84 159t60.5 234t23.5 308q0 211 -21.5 299t-66.5 88q-25 0 -56 -53t-51 -132l-57 15q35 155 92.5 237t155.5 82q56 0 101 -30.5t73.5 -80t47.5 -117.5 t26.5 -137.5t7.5 -144.5q0 -103 -29 -229t-68 -199l25 -12q120 148 190.5 378.5t40.5 422.5q-7 71 22.5 110t82.5 39q61 0 82.5 -31.5t21.5 -95.5q0 -133 -91.5 -364t-244.5 -459q-101 -150 -211.5 -261.5t-243 -183t-261.5 -71.5q-107 0 -183.5 44t-76.5 124zM502 1061v37 l186 315h244v-41l-295 -311h-135z" />
<glyph unicode="&#xfe;" horiz-adv-x="991" d="M-203 -430l162 31l342 1097l-12 11q-76 -54 -154 -174l-67 55q54 86 119 149t155 125l178 570l268 63l-167 -534q57 22 108 22q110 0 183 -76t73 -237q0 -137 -49.5 -268t-125 -222t-167 -146.5t-174.5 -55.5q-78 0 -137 36l-127 -415l166 -31v-62h-574v62zM365 106 q26 -32 81 -32q70 0 138 98.5t108.5 240t40.5 269.5q0 184 -82 184q-39 0 -67 -28z" />
<glyph unicode="&#xff;" horiz-adv-x="954" d="M-360 -313q0 41 25.5 70.5t66.5 29.5q32 0 60 -17t48.5 -41t40.5 -48t46 -41t55 -17q43 0 89 29.5t93 95.5t84 159t60.5 234t23.5 308q0 211 -21.5 299t-66.5 88q-25 0 -56 -53t-51 -132l-57 15q35 155 92.5 237t155.5 82q56 0 101 -30.5t73.5 -80t47.5 -117.5 t26.5 -137.5t7.5 -144.5q0 -103 -29 -229t-68 -199l25 -12q120 148 190.5 378.5t40.5 422.5q-7 71 22.5 110t82.5 39q61 0 82.5 -31.5t21.5 -95.5q0 -133 -91.5 -364t-244.5 -459q-101 -150 -211.5 -261.5t-243 -183t-261.5 -71.5q-107 0 -183.5 44t-76.5 124zM305 1241 q0 54 41 95.5t94 41.5q56 0 95.5 -41t39.5 -96q0 -53 -39.5 -93t-95.5 -40q-53 0 -94 40.5t-41 92.5zM694 1241q0 54 41 95.5t96 41.5q50 0 92 -42t42 -95q0 -52 -42 -92.5t-92 -40.5q-55 0 -96 40t-41 93z" />
<glyph unicode="&#x152;" horiz-adv-x="1970" d="M174 578q0 158 52.5 297.5t145.5 242.5t216.5 177.5t269.5 112.5t301 38h877v-424h-86l-164 336h-309l-162 -545h227l103 176h94l-135 -491h-95v211h-229l-186 -621h393l383 315h84l-232 -403h-964q-262 0 -423 152t-161 426zM483 393q0 -153 84.5 -229t218.5 -76 l383 1270q-130 0 -256 -79.5t-220 -209.5t-152 -309t-58 -367z" />
<glyph unicode="&#x153;" horiz-adv-x="1339" d="M55 270q0 133 51.5 265t134 230t190 159t214.5 61q71 0 133.5 -36.5t102.5 -106.5q156 143 323 143q50 0 90 -13.5t69.5 -51t29.5 -95.5q0 -75 -42.5 -139.5t-120 -113t-171 -84t-209.5 -62.5q-12 -71 -12 -139q0 -150 127 -150q129 0 256 152l47 -41 q-90 -126 -203.5 -201.5t-241.5 -75.5q-68 0 -123.5 33.5t-74.5 95.5q-145 -129 -299 -129q-130 0 -200.5 85t-70.5 214zM283 143q0 -35 14.5 -52t48.5 -17q48 0 91.5 52t94.5 153q59 123 116 296t57 238q0 32 -15 53t-41 21q-88 0 -182 -168q-72 -140 -128 -310t-56 -266z M870 504q129 40 194.5 120.5t65.5 168.5q0 63 -38 63q-55 0 -119.5 -105.5t-102.5 -246.5z" />
<glyph unicode="&#x178;" horiz-adv-x="1372" d="M248 0v76l192 30l172 566l-161 667l-152 31v76h610v-76l-174 -31l125 -559h33l477 559l-180 31v76h446v-76l-147 -31l-578 -667l-172 -566l176 -30v-76h-667zM743 1729q0 54 41.5 95.5t94.5 41.5q56 0 95.5 -41t39.5 -96q0 -53 -39.5 -93.5t-95.5 -40.5q-53 0 -94.5 41 t-41.5 93zM1133 1729q0 54 41 95.5t96 41.5q50 0 91.5 -42t41.5 -95q0 -52 -41.5 -93t-91.5 -41q-55 0 -96 40.5t-41 93.5z" />
<glyph unicode="&#x2c6;" horiz-adv-x="1024" d="M201 999l12 37l334 316h119l141 -316l-12 -37h-66l-170 181l-276 -181h-82z" />
<glyph unicode="&#x2dc;" horiz-adv-x="1024" d="M178 1053q23 91 84 181.5t98 90.5q43 0 148 -62.5t147 -62.5q32 0 68 41t49 84l74 -20q-28 -110 -86.5 -190.5t-112.5 -80.5q-34 0 -145.5 61.5t-145.5 61.5q-29 0 -50 -31.5t-48 -97.5z" />
<glyph unicode="&#x2000;" horiz-adv-x="981" />
<glyph unicode="&#x2001;" horiz-adv-x="1962" />
<glyph unicode="&#x2002;" horiz-adv-x="981" />
<glyph unicode="&#x2003;" horiz-adv-x="1962" />
<glyph unicode="&#x2004;" horiz-adv-x="654" />
<glyph unicode="&#x2005;" horiz-adv-x="490" />
<glyph unicode="&#x2006;" horiz-adv-x="327" />
<glyph unicode="&#x2007;" horiz-adv-x="327" />
<glyph unicode="&#x2008;" horiz-adv-x="245" />
<glyph unicode="&#x2009;" horiz-adv-x="392" />
<glyph unicode="&#x200a;" horiz-adv-x="109" />
<glyph unicode="&#x2010;" horiz-adv-x="643" d="M74 416l63 198h512l-63 -198h-512z" />
<glyph unicode="&#x2011;" horiz-adv-x="643" d="M74 416l63 198h512l-63 -198h-512z" />
<glyph unicode="&#x2012;" horiz-adv-x="643" d="M74 416l63 198h512l-63 -198h-512z" />
<glyph unicode="&#x2013;" horiz-adv-x="991" d="M74 416l63 198h819l-63 -198h-819z" />
<glyph unicode="&#x2014;" horiz-adv-x="2088" d="M229 444v138h1672v-138h-1672z" />
<glyph unicode="&#x2018;" horiz-adv-x="827" d="M385 1051q0 77 39 153t106 136t165 97.5t208 37.5v-86q-144 0 -226.5 -70t-82.5 -166q0 -38 17.5 -68.5t42 -52t49 -41.5t42 -47t17.5 -59q0 -54 -41 -95.5t-107 -41.5q-89 0 -159 82t-70 221z" />
<glyph unicode="&#x2019;" horiz-adv-x="827" d="M365 735v86q144 0 226.5 70t82.5 166q0 38 -17.5 68.5t-42 52t-49 41.5t-42 47t-17.5 59q0 54 40.5 95.5t106.5 41.5q89 0 159.5 -82t70.5 -221q0 -77 -39 -153t-106 -136t-165 -97.5t-208 -37.5z" />
<glyph unicode="&#x201a;" horiz-adv-x="827" d="M4 -356q144 0 226.5 69.5t82.5 165.5q0 38 -17.5 68.5t-42 52t-49 41.5t-42 47t-17.5 59q0 54 41 96t107 42q89 0 159 -82t70 -221q0 -77 -39 -153t-106 -136t-165 -97.5t-208 -37.5v86z" />
<glyph unicode="&#x201c;" horiz-adv-x="1359" d="M385 1051q0 77 39 153t106 136t165 97.5t208 37.5v-86q-144 0 -226.5 -70t-82.5 -166q0 -38 17.5 -68.5t42 -52t49 -41.5t42 -47t17.5 -59q0 -54 -41 -95.5t-107 -41.5q-89 0 -159 82t-70 221zM918 1051q0 77 39 153t106 136t165 97.5t208 37.5v-86q-144 0 -227 -70 t-83 -166q0 -38 17.5 -68.5t42 -52t49 -41.5t42 -47t17.5 -59q0 -54 -40.5 -95.5t-106.5 -41.5q-89 0 -159 82t-70 221z" />
<glyph unicode="&#x201d;" horiz-adv-x="1359" d="M365 735v86q144 0 226.5 70t82.5 166q0 38 -17.5 68.5t-42 52t-49 41.5t-42 47t-17.5 59q0 54 40.5 95.5t106.5 41.5q89 0 159.5 -82t70.5 -221q0 -77 -39 -153t-106 -136t-165 -97.5t-208 -37.5zM897 735v86q144 0 226.5 70t82.5 166q0 38 -17.5 68.5t-42 52t-49 41.5 t-42 47t-17.5 59q0 54 41 95.5t107 41.5q89 0 159 -82t70 -221q0 -77 -39 -153t-106 -136t-165 -97.5t-208 -37.5z" />
<glyph unicode="&#x201e;" horiz-adv-x="1359" d="M4 -356q144 0 226.5 69.5t82.5 165.5q0 38 -17.5 68.5t-42 52t-49 41.5t-42 47t-17.5 59q0 54 41 96t107 42q89 0 159 -82t70 -221q0 -77 -39 -153t-106 -136t-165 -97.5t-208 -37.5v86zM537 -356q144 0 226.5 69.5t82.5 165.5q0 38 -17.5 68.5t-42 52t-49 41.5t-42 47 t-17.5 59q0 54 40.5 96t106.5 42q89 0 159.5 -82t70.5 -221q0 -77 -39 -153t-106 -136t-165 -97.5t-208 -37.5v86z" />
<glyph unicode="&#x2022;" horiz-adv-x="1171" d="M328 541q0 115 81 196.5t197 81.5t197.5 -81.5t81.5 -196.5t-81.5 -197t-197.5 -82q-115 0 -196.5 81.5t-81.5 197.5z" />
<glyph unicode="&#x2026;" horiz-adv-x="2054" d="M139 143q0 66 46 114t112 48t114 -48t48 -114t-48 -111.5t-114 -45.5t-112 45.5t-46 111.5zM774 143q0 66 46 114t112 48t114 -48t48 -114t-48 -111.5t-114 -45.5t-112 45.5t-46 111.5zM1409 143q0 66 46 114t112 48t114 -48t48 -114t-48 -111.5t-114 -45.5t-112 45.5 t-46 111.5z" />
<glyph unicode="&#x202f;" horiz-adv-x="392" />
<glyph unicode="&#x2039;" horiz-adv-x="913" d="M207 465l14 47l551 428l78 -72l-361 -401l-10 -31l74 -416l-131 -28z" />
<glyph unicode="&#x203a;" horiz-adv-x="913" d="M115 63l360 402l10 31l-73 415l131 29l215 -473l-15 -47l-550 -428z" />
<glyph unicode="&#x205f;" horiz-adv-x="490" />
<glyph unicode="&#x20ac;" horiz-adv-x="1273" d="M123 528l39 76h96q6 52 18 109h-153l39 75h135q77 228 264 374.5t404 146.5q97 0 172 -37.5t145 -112.5l33 37h82l-109 -348h-71q2 105 -14.5 182t-48 118t-68 60t-80.5 19q-123 0 -242.5 -118t-183.5 -321h507l-38 -75h-490q-16 -68 -20 -109h508l-39 -76h-478 q-4 -37 -4 -114q0 -192 51.5 -273.5t157.5 -81.5q116 0 217 98t164 246h84l-76 -249q-110 -92 -202 -135.5t-211 -43.5q-89 0 -169.5 35.5t-145 102.5t-102.5 174.5t-38 240.5h-133z" />
<glyph unicode="&#x2122;" horiz-adv-x="1406" d="M340 1294l74 152h440l-18 -152h-41l-35 97h-78l-123 -400l62 -12l-15 -47h-258l14 47l70 12l123 400h-76l-96 -97h-43zM727 932l14 47l72 12l160 395l-74 13l14 47h203l37 -311h14l240 311h199l-15 -47l-75 -13l-97 -395l60 -12l-15 -47h-252l15 47l73 12l76 307h-14 l-283 -366h-35l-38 366h-11l-125 -307l60 -12l-15 -47h-188z" />
<glyph unicode="&#xe000;" horiz-adv-x="983" d="M0 0v983h983v-983h-983z" />
</font>
</defs>
</svg>
