<?xml version="1.0" standalone="no"?>
<!DOCTYPE svg PUBLIC "-//W3C//DTD SVG 1.1//EN" "http://www.w3.org/Graphics/SVG/1.1/DTD/svg11.dtd" >
<svg xmlns="http://www.w3.org/2000/svg">
<metadata></metadata>
<defs>
<font id="equity_caps_aregular" horiz-adv-x="1105" >
<font-face units-per-em="2048" ascent="1524" descent="-524" />
<missing-glyph horiz-adv-x="573" />
<glyph horiz-adv-x="2048" />
<glyph horiz-adv-x="2048" />
<glyph unicode="&#xd;" horiz-adv-x="2048" />
<glyph unicode=" "  horiz-adv-x="573" />
<glyph unicode="&#x09;" horiz-adv-x="573" />
<glyph unicode="&#xa0;" horiz-adv-x="573" />
<glyph unicode="!" horiz-adv-x="866" d="M301 117q0 56 38 94.5t93 38.5q56 0 94.5 -39t38.5 -94t-38.5 -93t-94.5 -38t-93.5 38t-37.5 93zM309 1503h246l-82 -1073h-82z" />
<glyph unicode="&#x22;" horiz-adv-x="917" d="M170 893l37 483q5 75 32.5 114t84.5 26l47 -11q42 -9 53 -57t-16 -123l-160 -451zM537 893l36 483q5 75 32.5 114t84.5 26l47 -11q42 -9 53 -57t-16 -123l-160 -451z" />
<glyph unicode="#" horiz-adv-x="1284" d="M154 305v152h223l76 360h-197v152h227l90 436h123l-90 -436h205l90 436h123l-90 -436h196v-152h-227l-76 -360h201v-152h-231l-101 -483h-123l101 483h-205l-100 -483h-123l100 483h-192zM500 457h205l75 360h-205z" />
<glyph unicode="$" horiz-adv-x="1302" d="M236 401h79q61 -309 297 -329v506q-189 70 -272.5 159.5t-83.5 218.5q0 59 25 118.5t69 109t112.5 83t149.5 38.5v206h93v-208q89 -10 198 -66l66 31h41l30 -365h-67q-38 134 -108 208.5t-160 92.5v-456q184 -68 273 -162t89 -236q0 -167 -99 -261.5t-263 -108.5v-222 h-93v219q-61 5 -124.5 26.5t-102.5 53.5l-57 -32h-62zM432 1004q0 -135 180 -220v424q-180 -16 -180 -204zM705 74q89 12 136.5 66t47.5 145q0 84 -40 146.5t-144 111.5v-469z" />
<glyph unicode="%" horiz-adv-x="1302" d="M154 12l419 563l326 465l-4 4q-44 -24 -98 -24q-62 0 -101 39l-6 -2q-3 -168 -91 -277.5t-204 -109.5q-98 0 -159.5 73.5t-61.5 186.5q0 152 96 264.5t207 112.5q69 0 121.5 -38.5t75.5 -105.5q12 -31 51.5 -50t85.5 -19q100 0 172 63q48 137 113 137q18 0 33.5 -11.5 t15.5 -35.5q0 -30 -27.5 -65t-62.5 -60l-430 -585l-404 -578zM326 874q0 -59 23 -89.5t65 -30.5q67 0 123.5 86.5t56.5 244.5q0 62 -23 95.5t-59 33.5q-44 0 -87.5 -50t-71 -129.5t-27.5 -160.5zM633 236q0 152 96 264t207 112q94 0 153.5 -64.5t59.5 -176.5 q0 -90 -26.5 -166.5t-68.5 -125.5t-93.5 -76.5t-102.5 -27.5q-100 0 -162.5 73.5t-62.5 187.5zM784 180q0 -58 23.5 -89.5t60.5 -31.5q69 0 127 85t58 247q0 62 -23 95.5t-59 33.5q-44 0 -87.5 -50t-71.5 -129.5t-28 -160.5z" />
<glyph unicode="&#x26;" horiz-adv-x="1673" d="M199 391q0 153 73.5 244.5t251.5 177.5q-69 72 -106 149t-37 142q0 58 56.5 130t139.5 122.5t152 50.5q65 0 134 -44t111 -101t42 -99q0 -50 -21.5 -95.5t-63 -84.5t-85.5 -69.5t-105 -65.5q196 -178 328 -371q86 133 168 316l-145 30v74h397v-74l-143 -30 q-114 -234 -224 -396q85 -140 146 -270q16 -37 45 -37q23 0 43.5 18.5t62.5 75.5l56 -37q-81 -172 -211 -172q-73 0 -123 72l-133 197q-225 -269 -430 -269q-99 0 -187 59t-140 155t-52 202zM391 492q0 -90 29 -163t73.5 -114.5t90.5 -63.5t86 -22q121 0 284 193 q-183 266 -376 440h-3q-97 -51 -140.5 -115t-43.5 -155zM535 1151q0 -56 38 -115.5t111 -132.5q158 114 158 238q0 69 -42 123.5t-93 54.5q-55 0 -113.5 -54.5t-58.5 -113.5z" />
<glyph unicode="'" horiz-adv-x="550" d="M170 893l37 483q5 75 32.5 114t84.5 26l47 -11q42 -9 53 -57t-16 -123l-160 -451z" />
<glyph unicode="(" horiz-adv-x="905" d="M227 539q0 157 36 299t105.5 264t154 224t196.5 204l61 -80q-368 -374 -368 -911q0 -292 91 -540.5t277 -424.5l-59 -70q-494 452 -494 1035z" />
<glyph unicode=")" horiz-adv-x="905" d="M125 -436q201 205 285 443.5t84 531.5q0 279 -90.5 518t-276.5 405l63 68q81 -69 150 -144.5t132.5 -171t108 -197t71 -225t26.5 -253.5q0 -617 -498 -1035z" />
<glyph unicode="*" horiz-adv-x="1159" d="M229 940q-11 53 45 75q4 2 9 3q8 2 41 12.5t43.5 14t37.5 13t42 16t37 17t42 21.5q-109 48 -243 76q-51 9 -54 58q-2 44 31 75q42 39 90 1q3 -2 6 -5q137 -124 195 -164q-15 113 -53 248q-18 59 30 86q41 22 84 3q50 -21 42 -77l-3 -12q-6 -23 -20.5 -76t-22.5 -92.5 t-12 -79.5q96 62 195 164q46 50 92 16q35 -26 37 -73q3 -54 -44 -70l-8 -2q-16 -4 -57 -13.5t-63.5 -15.5t-57 -18.5t-63.5 -28.5q97 -48 245 -90q60 -15 59 -68q-2 -44 -40 -74q-46 -36 -91 -1q-4 3 -9 8q-6 6 -34 35.5t-38.5 40t-33.5 32t-43 36.5t-42 30q10 -118 51 -254 q19 -58 -29 -82q-39 -21 -81 -2q-49 23 -38 81q1 1 1 3q4 20 13.5 61t15 65.5t11 60t7.5 67.5q-99 -61 -191 -174q-35 -40 -83 -12q-39 23 -48 65z" />
<glyph unicode="+" d="M139 430v127h350v350h127v-350h351v-127h-351v-350h-127v350h-350z" />
<glyph unicode="," horiz-adv-x="731" d="M219 152q0 40 34 73t93 33q85 0 140 -78t55 -205q0 -78 -26 -150t-68.5 -124t-84.5 -88.5t-86 -61.5l-57 87q73 51 122.5 119.5t49.5 146.5q0 32 -12.5 57.5t-32 40.5t-41.5 31t-41.5 30t-32 37t-12.5 52z" />
<glyph unicode="-" horiz-adv-x="827" d="M158 420v149h512v-149h-512z" />
<glyph unicode="." horiz-adv-x="702" d="M219 117q0 56 38 94.5t93 38.5q56 0 94.5 -39t38.5 -94t-38.5 -93t-94.5 -38t-93.5 38t-37.5 93z" />
<glyph unicode="/" horiz-adv-x="1126" d="M178 -250l615 1753h155l-614 -1753h-156z" />
<glyph unicode="0" horiz-adv-x="1116" d="M102 610q0 174 36.5 309.5t101.5 219t148.5 126t182.5 42.5q95 0 175 -43.5t140 -127.5t94 -219t34 -307q0 -311 -123 -473t-320 -162q-99 0 -182.5 38.5t-148.5 114t-101.5 199t-36.5 283.5zM317 612q0 -148 20.5 -257.5t57 -171.5t80.5 -91t96 -29q48 0 88 30t72.5 93 t51 172t18.5 254q0 158 -18.5 278t-51 190t-72.5 104.5t-88 34.5q-108 0 -181 -156t-73 -451z" />
<glyph unicode="1" horiz-adv-x="874" d="M113 1110v86q191 3 348 102l102 -10v-1175l211 -31v-82h-614v82l211 31v1007q-150 -37 -258 -10z" />
<glyph unicode="2" horiz-adv-x="1073" d="M94 66q68 55 144.5 127.5t161.5 170t152 193.5t111 200.5t44 188.5q0 80 -51.5 137.5t-137.5 57.5q-82 0 -151.5 -49.5t-176.5 -165.5l-61 65q32 45 62 81.5t77.5 83t94 77.5t107 52.5t122.5 21.5q151 0 234 -84.5t83 -212.5q0 -82 -55.5 -198.5t-139.5 -229 t-168.5 -208.5t-156.5 -161l12 -29h433l92 129l67 -26l-114 -287h-760z" />
<glyph unicode="3" horiz-adv-x="968" d="M76 168q0 39 28 69.5t78 30.5q39 0 69.5 -20t52 -48t43.5 -56t55 -48t75 -20q33 0 66 14t62 40.5t47 72.5t18 104q0 77 -34 143t-79.5 102t-90 52.5t-67.5 5.5l-73 -41l-47 72q158 80 254 175t96 190q0 70 -42 107.5t-114 37.5q-85 0 -162.5 -49t-136.5 -129l-57 61 q198 273 450 273q102 0 173 -63.5t71 -166.5q0 -95 -70 -179.5t-163 -143.5v-21q113 -29 196.5 -135.5t83.5 -237.5q0 -91 -40 -166.5t-103.5 -122t-137.5 -71.5t-147 -25q-165 0 -259.5 54t-94.5 139z" />
<glyph unicode="4" horiz-adv-x="1073" d="M96 453l643 870l90 -35v-772h166v-137h-166v-379h-190v377h-510zM274 537l11 -21h354v483l-23 13z" />
<glyph unicode="5" horiz-adv-x="974" d="M82 106q0 44 26.5 73.5t77.5 29.5q43 0 81.5 -16.5t65 -37t70 -37t95.5 -16.5q76 0 132 65.5t56 190.5q0 143 -87 230.5t-218 87.5q-95 0 -162 -23l-37 37l58 592h491l53 80h80l-47 -264h-493l-23 -250l16 -17q46 17 134 17q74 0 145.5 -27.5t129 -77.5t93 -129 t35.5 -174q0 -212 -149 -338.5t-388 -126.5q-99 0 -167 37t-68 94z" />
<glyph unicode="6" horiz-adv-x="1034" d="M106 508q0 184 80 355.5t235 307t361 203.5l21 -71q-399 -200 -461 -549l33 -17q41 34 103 56t132 22q58 0 115 -22.5t108 -67t83 -123t32 -178.5q0 -64 -14 -125t-47 -120.5t-82 -104t-124 -72t-167 -27.5q-180 0 -294 140t-114 393zM315 399q0 -144 59.5 -233.5 t147.5 -89.5q103 0 160 96.5t57 259.5q0 137 -56 207t-140 70q-68 0 -123 -35.5t-90 -104.5q-15 -67 -15 -170z" />
<glyph unicode="7" horiz-adv-x="964" d="M70 938l94 344h700l39 -53q-140 -298 -265 -621.5t-179 -556.5q-19 -76 -133 -76q-50 0 -79.5 20.5t-15.5 57.5q90 252 229 525t277 491l-14 29h-496l-65 -160h-92z" />
<glyph unicode="8" horiz-adv-x="1073" d="M137 289q0 64 19.5 116.5t57.5 93t76 67.5t91 57v18q-97 51 -153 135.5t-56 179.5q0 144 104.5 247.5t278.5 103.5q154 0 255 -82.5t101 -210.5q0 -90 -53 -162t-166 -143v-17q43 -25 74 -46t65.5 -53t55.5 -66t35 -80.5t14 -100.5q0 -170 -111.5 -270.5t-296.5 -100.5 q-172 0 -281.5 85.5t-109.5 228.5zM293 285q0 -98 58.5 -160t176.5 -62q110 0 177 64.5t67 169.5q0 49 -20.5 90.5t-63.5 77t-87 61t-112 58.5q-88 -43 -142 -121.5t-54 -177.5zM334 1022q0 -96 66.5 -161t193.5 -116q81 52 116 114t35 149q0 98 -55.5 154.5t-148.5 56.5 q-96 0 -151.5 -58.5t-55.5 -138.5z" />
<glyph unicode="9" horiz-adv-x="1034" d="M86 858q0 105 38.5 193t100 142.5t135.5 84t150 29.5q186 0 302 -144.5t116 -388.5q0 -160 -52 -307.5t-145.5 -262t-231 -191t-300.5 -95.5v82q199 46 339 179t164 335l-32 16q-100 -84 -215 -84q-72 0 -137.5 27t-117.5 77t-83 130t-31 178zM297 870q0 -319 205 -319 q66 0 113 36.5t90 110.5q22 94 22 205q0 142 -57 225.5t-168 83.5q-98 0 -151.5 -87t-53.5 -255z" />
<glyph unicode=":" horiz-adv-x="702" d="M219 117q0 56 38 94.5t93 38.5q56 0 94.5 -39t38.5 -94t-38.5 -93t-94.5 -38t-93.5 38t-37.5 93zM219 754q0 56 38 94.5t93 38.5q56 0 94.5 -38.5t38.5 -94.5q0 -55 -38.5 -93t-94.5 -38t-93.5 37.5t-37.5 93.5z" />
<glyph unicode=";" horiz-adv-x="813" d="M260 152q0 40 34 73t93 33q85 0 140 -78t55 -205q0 -78 -26 -150t-68.5 -124t-84.5 -88.5t-86 -61.5l-57 87q73 51 122.5 119.5t49.5 146.5q0 32 -12.5 57.5t-32 40.5t-41.5 31t-41.5 30t-32 37t-12.5 52zM270 754q0 56 38 94.5t93 38.5q56 0 95 -39t39 -94t-39 -93 t-95 -38q-55 0 -93 37.5t-38 93.5z" />
<glyph unicode="&#x3c;" d="M139 430v127l828 348v-137l-672 -274l672 -275v-137z" />
<glyph unicode="=" d="M139 281v127h828v-127h-828zM139 588v127h828v-127h-828z" />
<glyph unicode="&#x3e;" d="M139 82v137l672 275l-672 274v137l828 -348v-127z" />
<glyph unicode="?" horiz-adv-x="1009" d="M256 117q0 56 38 94.5t93 38.5t94 -39t39 -94t-38.5 -93t-94.5 -38q-55 0 -93 38t-38 93zM272 1415q0 46 34 76.5t95 30.5q68 0 139.5 -35t132 -96t99.5 -155.5t39 -201.5q0 -102 -34 -180.5t-90 -121.5t-122 -62t-135 -13v-239h-88v432q184 -22 279.5 51.5t95.5 204.5 q0 96 -62.5 150.5t-181.5 54.5q-201 0 -201 104z" />
<glyph unicode="@" horiz-adv-x="1855" d="M219 281q0 125 32.5 256t90 251t141.5 226.5t182 184.5t216 123.5t239 45.5q251 0 400 -156.5t149 -412.5q0 -139 -44.5 -261t-112.5 -204t-150.5 -141.5t-158 -87t-134.5 -27.5q-70 0 -77 69t46 191l-26 18q-39 -56 -70.5 -96t-77.5 -87.5t-96 -73t-100 -25.5 q-60 0 -92.5 50.5t-32.5 115.5q0 167 121 374q94 159 218 264t236 105q61 0 86 -57h10q11 32 26.5 43.5t57.5 11.5q41 0 55.5 -8t8.5 -25l-221 -678q-8 -34 -2.5 -48.5t28.5 -14.5q28 0 71 24t93 75t93 119t71.5 167t28.5 207q0 55 -10.5 114t-39 126t-72.5 118.5t-118.5 86 t-169.5 34.5q-118 0 -232.5 -57t-205 -156t-160.5 -225t-107.5 -272t-37.5 -289q0 -242 89.5 -363t250.5 -121q96 0 186 38t156 91l43 -86q-89 -71 -199.5 -111t-204.5 -40q-233 0 -353 155.5t-120 438.5zM707 307q0 -54 13 -72t36 -18q69 0 191 161.5t210 373.5 q18 143 -59 143q-68 0 -145 -70.5t-138 -179.5q-48 -86 -78 -176.5t-30 -161.5z" />
<glyph unicode="A" horiz-adv-x="1531" d="M76 0v82l153 31l459 1333h133l479 -1333l156 -31v-82h-541v82l164 31l-141 387h-459l-131 -387l187 -31v-82h-459zM518 612h379l-176 506h-33z" />
<glyph unicode="B" horiz-adv-x="1439" d="M141 0v82l181 31v1220l-181 31v82h604q56 0 116 -9.5t127 -35.5t118 -65t85 -103.5t34 -145.5q0 -43 -13 -86t-40.5 -86t-78 -77.5t-116.5 -51.5v-28q137 -28 221 -127.5t84 -245.5q0 -174 -148.5 -279.5t-394.5 -105.5h-598zM539 113h219q141 0 218 81.5t77 208.5 q0 129 -87.5 215.5t-248.5 86.5h-178v-592zM539 817h182q137 0 203.5 73.5t66.5 178.5q0 138 -78 201t-204 63h-170v-516z" />
<glyph unicode="C" horiz-adv-x="1601" d="M154 721q0 169 60 311t162.5 237t239.5 148t291 53q114 0 246 -41t244 -104v-289h-68q-40 117 -110.5 193.5t-147.5 107.5t-164 31q-83 0 -158 -24t-140.5 -75.5t-113 -126t-75 -182t-27.5 -237.5q0 -125 28.5 -231t76 -179t111 -125t132.5 -76t140 -24q170 0 291.5 84.5 t175.5 241.5h65v-281q-133 -78 -256.5 -118t-298.5 -40q-117 0 -222.5 31t-193.5 93.5t-152 150.5t-100 209t-36 262z" />
<glyph unicode="D" horiz-adv-x="1718" d="M141 0v82l181 31v1220l-181 31v82h617q375 0 591 -194.5t216 -534.5q0 -228 -109 -392t-294 -244.5t-425 -80.5h-596zM539 113h198q96 0 181.5 20.5t160.5 67t129 115.5t85.5 172t31.5 231q0 151 -42.5 268.5t-118.5 192.5t-179.5 114t-228.5 39h-217v-1220z" />
<glyph unicode="E" horiz-adv-x="1406" d="M141 0v82l181 31v1220l-181 31v82h1028l33 -322h-90l-145 224h-428v-531h280l66 193h82v-512h-82l-66 207h-280v-607h491l187 285h90l-74 -383h-1092z" />
<glyph unicode="F" horiz-adv-x="1384" d="M141 0v82l181 31v1220l-181 31v82h1110l33 -322h-90l-150 224h-505v-531h342l65 213h82v-553h-82l-65 228h-342v-592l188 -31v-82h-586z" />
<glyph unicode="G" horiz-adv-x="1669" d="M154 721q0 169 60 311t162.5 237t239.5 148t291 53q114 0 246 -41t244 -104v-289h-68q-40 117 -110.5 193.5t-147.5 107.5t-164 31q-106 0 -196 -36.5t-162.5 -111t-114 -202t-41.5 -295.5q0 -166 40.5 -291t112 -198.5t160.5 -109.5t195 -36q76 0 152 23t129 67v430 l-240 31v82h614v-82l-157 -31v-516q-265 -117 -561 -117q-113 0 -215.5 31t-188 93.5t-148 150.5t-97.5 209t-35 262z" />
<glyph unicode="H" horiz-adv-x="1792" d="M141 0v82l181 31v1220l-181 31v82h578v-82l-180 -31v-516h714v516l-180 31v82h578v-82l-181 -31v-1220l181 -31v-82h-578v82l180 31v592h-714v-592l180 -31v-82h-578z" />
<glyph unicode="I" horiz-adv-x="860" d="M141 0v82l181 31v1220l-181 31v82h578v-82l-180 -31v-1220l180 -31v-82h-578z" />
<glyph unicode="J" horiz-adv-x="911" d="M-109 -362q0 54 33.5 84t87.5 30q42 0 100 -25.5t107 -25.5q139 0 139 199v1433l-217 31v82h629v-82l-195 -31v-1237q0 -123 -46.5 -236.5t-118.5 -191t-159.5 -124t-170.5 -46.5t-136 35t-53 105z" />
<glyph unicode="K" horiz-adv-x="1628" d="M141 0v82l181 31v1220l-181 31v82h576v-82l-178 -31v-555h32l555 555l-143 31v82h467v-82l-166 -31l-557 -557l659 -663l166 -31v-82h-596v82l146 31l-537 555h-26v-555l178 -31v-82h-576z" />
<glyph unicode="L" horiz-adv-x="1374" d="M141 0v82l181 31v1220l-181 31v82h586v-82l-188 -31v-1235h462l207 305h90l-73 -403h-1084z" />
<glyph unicode="M" horiz-adv-x="2064" d="M117 0v82l174 31l98 1204l-203 45v84h406l428 -1084h35l446 1084h408v-84l-203 -49l59 -1200l183 -31v-82h-582v82l182 31l-49 993h-31l-452 -1106h-88l-426 1108h-25l-78 -995l176 -31v-82h-458z" />
<glyph unicode="N" horiz-adv-x="1726" d="M111 0v82l161 31v1220l-161 31v82h325l860 -1059h29v946l-180 31v82h471v-82l-178 -31v-1337h-92l-932 1145h-29v-1028l180 -31v-82h-454z" />
<glyph unicode="O" horiz-adv-x="1689" d="M154 721q0 169 55 311t149 237t220 148t268 53q149 0 276 -52t218.5 -147t143.5 -236.5t52 -313.5q0 -181 -54.5 -325t-149.5 -235t-219 -138.5t-267 -47.5q-114 0 -217.5 31t-190 93.5t-150 150.5t-99 209t-35.5 262zM393 723q0 -133 24 -241.5t65.5 -182t99.5 -123 t124 -72t140 -22.5q77 0 140.5 17.5t122 62.5t99 115.5t64.5 184t24 261.5q0 138 -22.5 247.5t-62 183.5t-96.5 122.5t-123.5 70t-145.5 21.5q-94 0 -173.5 -36.5t-143.5 -111t-100 -201.5t-36 -296z" />
<glyph unicode="P" horiz-adv-x="1306" d="M141 0v82l181 31v1220l-181 31v82h525q75 0 147 -14t140 -45.5t118.5 -78t81.5 -117t31 -157.5q0 -186 -141.5 -295.5t-387.5 -109.5h-114v-516l198 -31v-82h-598zM541 735h133q120 0 202 78t82 209q0 307 -303 307h-114v-594z" />
<glyph unicode="Q" horiz-adv-x="1689" d="M154 721q0 169 55 311t149 237t220 148t268 53q149 0 276 -52t218.5 -147t143.5 -236.5t52 -313.5q0 -282 -126 -464.5t-335 -248.5q37 -31 92 -83.5t93.5 -87t87 -71t98 -55t100.5 -18.5q66 0 132 16.5t106 38.5l24 -51q-169 -121 -348 -121q-83 0 -162 27t-150 76.5 t-124.5 95.5t-120.5 109.5t-102 92.5q-135 7 -252 59.5t-205.5 145t-139 231.5t-50.5 308zM393 723q0 -133 24 -241.5t65.5 -182t99.5 -123t124 -72t140 -22.5q77 0 140.5 17.5t122 62.5t99 115.5t64.5 184t24 261.5q0 138 -22.5 247.5t-62 183.5t-96.5 122.5t-123.5 70 t-145.5 21.5q-94 0 -173.5 -36.5t-143.5 -111t-100 -201.5t-36 -296z" />
<glyph unicode="R" horiz-adv-x="1484" d="M141 0v82l181 31v1220l-181 31v82h645q49 0 100.5 -9.5t110 -35.5t103 -66.5t74.5 -110t30 -157.5q0 -54 -21 -108.5t-63.5 -107.5t-118 -94.5t-174.5 -60.5v-22q54 -26 110.5 -101t99 -155.5t103 -169.5t117.5 -135l129 -31v-82h-309q-51 38 -104 113.5t-97.5 157.5 t-91.5 162.5t-103 144.5t-114 88h-28v-553l200 -31v-82h-598zM539 778h141q75 0 133.5 26t91.5 69t49.5 90.5t16.5 97.5q0 145 -60.5 208.5t-160.5 63.5h-211v-555z" />
<glyph unicode="S" horiz-adv-x="1302" d="M170 14v435h90q42 -182 148 -276.5t256 -94.5q117 0 192.5 64t75.5 165q0 54 -12.5 95.5t-46.5 86t-100 86.5t-167 82q-209 84 -302 183.5t-93 253.5q0 66 31 132t86 121t141 89t186 34q137 0 291 -63l86 39h51l41 -420h-75q-54 165 -157.5 252.5t-225.5 87.5 q-111 0 -182.5 -55.5t-71.5 -155.5q0 -99 86.5 -179t267.5 -151q88 -35 151.5 -73t114 -90t76 -120t25.5 -153q0 -196 -131.5 -305t-337.5 -109q-75 0 -159.5 23t-142.5 57l-100 -41h-92z" />
<glyph unicode="T" horiz-adv-x="1560" d="M76 1042l94 404h1221l94 -404h-90l-207 306h-299v-1235l188 -31v-82h-594v82l189 31v1235h-299l-207 -306h-90z" />
<glyph unicode="U" horiz-adv-x="1703" d="M111 1364v82h577v-82l-180 -31v-831q0 -164 105.5 -272.5t293.5 -108.5q83 0 156 29t129 83.5t88.5 140.5t32.5 193v766l-178 31v82h458v-82l-166 -31v-801q0 -72 -19.5 -147t-64 -149t-108 -131.5t-159.5 -93.5t-210 -36q-136 0 -248.5 44.5t-182 116.5t-107 159 t-37.5 176v862z" />
<glyph unicode="V" horiz-adv-x="1511" d="M86 1364v82h541v-82l-166 -31l319 -987h33l340 987l-186 31v82h458v-82l-153 -31l-459 -1333h-133l-438 1333z" />
<glyph unicode="W" horiz-adv-x="2060" d="M86 1364v82h541v-82l-166 -31l258 -950h33l223 729l-62 221l-135 31v82h520v-82l-165 -31l258 -950h30l281 950l-186 31v82h458v-82l-153 -31l-398 -1333h-133l-262 930l-276 -930h-134l-376 1333z" />
<glyph unicode="X" horiz-adv-x="1486" d="M86 0v82l178 31l381 569l-385 651l-174 31v82h612v-82l-196 -31l272 -461l309 461l-221 31v82h539v-82l-184 -31l-379 -567l389 -653l174 -31v-82h-613v82l197 31l-274 460l-308 -460l222 -31v-82h-539z" />
<glyph unicode="Y" horiz-adv-x="1470" d="M86 1364v82h541v-82l-166 -31l303 -522h33l311 522l-182 31v82h458v-82l-153 -31l-387 -661v-559l180 -31v-82h-578v82l181 31v553l-391 667z" />
<glyph unicode="Z" horiz-adv-x="1441" d="M127 51l860 1266l-14 31h-547l-207 -306h-90l96 404h1051l22 -39l-876 -1282l12 -27h592l209 305h90l-94 -403h-1079z" />
<glyph unicode="[" horiz-adv-x="870" d="M250 -457v1966q104 -11 251.5 -11t215.5 13v-98q-61 -12 -156.5 -15t-150.5 5v-1745q49 5 151 1t168 -13v-105q-81 12 -228 13t-251 -11z" />
<glyph unicode="\" horiz-adv-x="1126" d="M178 1503h156l614 -1753h-155z" />
<glyph unicode="]" horiz-adv-x="870" d="M141 -352q194 19 320 10v1745q-138 -9 -307 10v98q171 -27 467 -2v-1966q-263 24 -480 -2v107z" />
<glyph unicode="^" d="M72 643l454 772h56l452 -772l-119 -68l-352 615h-16l-359 -615z" />
<glyph unicode="_" horiz-adv-x="1236" d="M-6 -389h1249v-86h-1249v86z" />
<glyph unicode="`" horiz-adv-x="1024" d="M266 1331v21h193l176 -336v-17h-105z" />
<glyph unicode="a" horiz-adv-x="1290" d="M84 0v78l131 51l377 932h125l375 -952l122 -31v-78h-475v78l138 31l-93 239h-364l-86 -219l164 -51v-78h-414zM459 444h289l-134 347h-16z" />
<glyph unicode="b" horiz-adv-x="1208" d="M141 0v78l148 31v843l-148 31v78h555q38 0 78 -6.5t84 -24t78.5 -44t57 -70.5t22.5 -99q0 -78 -48 -148t-147 -100v-22q108 -19 177 -90.5t69 -171.5q0 -129 -108 -207t-283 -78h-535zM492 109h155q99 0 151 53t52 137t-61 141.5t-177 57.5h-120v-389zM492 594h122 q98 0 141.5 52.5t43.5 135.5q0 90 -53 130t-128 40h-126v-358z" />
<glyph unicode="c" horiz-adv-x="1294" d="M141 524q0 166 77 293.5t205 194.5t284 67q93 0 200.5 -32.5t200.5 -81.5v-248h-78q-94 260 -323 260q-142 0 -241 -123t-99 -328q0 -97 32 -181.5t82.5 -140.5t112 -88t121.5 -32q129 0 208.5 64t120.5 192h78v-240q-98 -62 -192 -94.5t-223 -32.5q-117 0 -219 37 t-179.5 105.5t-122.5 174t-45 234.5z" />
<glyph unicode="d" horiz-adv-x="1363" d="M141 0v78l148 31v843l-148 31v78h490q276 0 434 -143t158 -394q0 -166 -81 -286t-217.5 -179t-312.5 -59h-471zM492 109h120q81 0 150 23t125 71t87.5 130.5t31.5 192.5q0 203 -106.5 314.5t-270.5 111.5h-137v-843z" />
<glyph unicode="e" horiz-adv-x="1181" d="M141 0v78l148 31v843l-148 31v78h834l26 -254h-86l-106 154h-317v-367h196l55 117h66v-342h-66l-55 129h-196v-398h372l119 183h88l-43 -283h-887z" />
<glyph unicode="f" horiz-adv-x="1114" d="M141 0v78l148 31v843l-148 31v78h844l29 -254h-88l-109 154h-325v-367h206l56 117h65v-342h-65l-56 129h-206v-389l153 -31v-78h-504z" />
<glyph unicode="g" horiz-adv-x="1339" d="M141 524q0 166 77 293.5t205 194.5t284 67q93 0 200.5 -32.5t200.5 -81.5v-248h-78q-94 260 -323 260q-145 0 -242.5 -118.5t-97.5 -332.5q0 -199 97 -320.5t238 -121.5q136 0 213 61v267l-178 39v77h508v-77l-127 -31v-334q-191 -113 -416 -113q-113 0 -214 37 t-178.5 105t-123 174t-45.5 235z" />
<glyph unicode="h" horiz-adv-x="1499" d="M141 0v78l148 31v843l-148 31v78h496v-78l-145 -31v-358h516v358l-148 31v78h498v-78l-148 -31v-843l148 -31v-78h-498v78l148 31v389h-516v-389l145 -31v-78h-496z" />
<glyph unicode="i" horiz-adv-x="819" d="M162 0v78l147 31v843l-147 31v78h495v-78l-145 -31v-843l145 -31v-78h-495z" />
<glyph unicode="j" horiz-adv-x="841" d="M0 -279q0 48 27 74.5t67 26.5q35 0 76 -32t72 -32q61 0 85.5 35.5t24.5 102.5v1056l-157 31v78h505v-78l-145 -31v-876q0 -92 -37 -180.5t-94 -151.5t-127 -102t-135 -39q-72 0 -117 29t-45 89z" />
<glyph unicode="k" horiz-adv-x="1310" d="M141 0v78l148 31v843l-148 31v78h496v-78l-145 -31v-358h38l361 348l-129 41v78h424v-78l-154 -41l-348 -332l430 -508l117 -24v-78h-486v78l115 31l-336 399h-32v-399l135 -31v-78h-486z" />
<glyph unicode="l" horiz-adv-x="1124" d="M141 0v78l148 31v843l-148 31v78h504v-78l-153 -31v-852h317l137 199h88l-43 -299h-850z" />
<glyph unicode="m" horiz-adv-x="1681" d="M111 0v78l141 51l82 823l-164 31v78h358l295 -737h31l326 737h348v-78l-166 -31l59 -843l150 -31v-78h-496v78l150 31l-43 665h-25l-332 -776h-69l-307 776h-23l-64 -645l144 -51v-78h-395z" />
<glyph unicode="n" horiz-adv-x="1419" d="M131 0v78l131 51v823l-131 31v78h293l596 -699h24v570l-167 51v78h426v-78l-146 -51v-946h-61l-697 819h-24v-676l168 -51v-78h-412z" />
<glyph unicode="o" horiz-adv-x="1388" d="M141 524q0 166 75.5 293.5t201 194.5t278.5 67q159 0 283 -66t196 -193t72 -296q0 -132 -43.5 -238t-119.5 -173.5t-175 -103.5t-213 -36q-115 0 -215.5 37t-176.5 105.5t-119.5 174t-43.5 234.5zM367 526q0 -207 94.5 -324.5t234.5 -117.5q69 0 126 24.5t103.5 75 t72.5 138t26 204.5q0 215 -92.5 333t-235.5 118q-140 0 -234.5 -119t-94.5 -332z" />
<glyph unicode="p" horiz-adv-x="1148" d="M141 0v78l148 31v843l-148 31v78h525q66 0 129.5 -17t119 -52t89.5 -96t34 -140q0 -147 -110.5 -233.5t-302.5 -86.5h-133v-327l163 -31v-78h-514zM492 532h149q77 0 132.5 59.5t55.5 153.5q0 101 -53.5 154t-138.5 53h-145v-420z" />
<glyph unicode="q" horiz-adv-x="1388" d="M141 524q0 166 75.5 293.5t201 194.5t278.5 67q159 0 283 -66t196 -193t72 -296q0 -206 -99 -340.5t-265 -183.5q17 -14 73.5 -62t81 -66.5t69.5 -48t84 -41t79 -11.5q57 0 113.5 13t89.5 30l22 -62q-148 -94 -299 -94q-72 0 -141.5 21.5t-133 62t-110 76.5t-106.5 88 t-89 74q-102 12 -187.5 53t-150 108.5t-101 165.5t-36.5 217zM367 526q0 -207 94.5 -324.5t234.5 -117.5q69 0 126 24.5t103.5 75t72.5 138t26 204.5q0 215 -92.5 333t-235.5 118q-140 0 -234.5 -119t-94.5 -332z" />
<glyph unicode="r" horiz-adv-x="1271" d="M141 0v78l148 31v843l-148 31v78h555q40 0 81 -7t88 -26.5t83 -49t60 -80.5t24 -116q0 -93 -65.5 -168t-180.5 -96v-18q38 -17 79.5 -70t73 -110.5t76 -119t85.5 -91.5l92 -31v-78h-246q-45 28 -87.5 82t-75.5 112t-67 115t-76 103t-87 63h-61v-366l145 -31v-78h-496z M492 571h112q54 0 97 19t68 50t37.5 66t12.5 70q0 91 -43.5 133.5t-111.5 42.5h-172v-381z" />
<glyph unicode="s" horiz-adv-x="1112" d="M184 4v352h99q31 -136 101 -209t173 -73q81 0 130.5 46.5t49.5 117.5q0 69 -45.5 116t-179.5 105q-156 67 -229.5 142t-73.5 181q0 53 23 105t64 95.5t106.5 70t142.5 26.5q26 0 49.5 -3t48 -10t35 -10.5t36 -14t27.5 -11.5l74 31h53l37 -322h-96q-37 119 -104 178.5 t-152 59.5q-74 0 -118 -40t-44 -112q0 -64 56 -107.5t194 -96.5q141 -55 210 -131t69 -195q0 -154 -102 -238t-261 -84q-53 0 -110.5 17.5t-96.5 44.5l-88 -31h-78z" />
<glyph unicode="t" horiz-adv-x="1226" d="M80 762l49 299h969l49 -299h-88l-135 203h-209v-856l153 -31v-78h-510v78l154 31v856h-209l-137 -203h-86z" />
<glyph unicode="u" horiz-adv-x="1353" d="M100 983v78h496v-78l-145 -31v-563q0 -129 69 -212t193 -83q129 0 210 89.5t81 256.5v492l-166 51v78h415v-78l-135 -51v-520q0 -61 -15.5 -121t-50 -118t-84 -102t-125 -71t-165.5 -27q-99 0 -182 35t-136 92t-82.5 126t-29.5 139v587z" />
<glyph unicode="v" horiz-adv-x="1290" d="M80 983v78h477v-78l-145 -31l264 -678h16l271 658l-166 51v78h413v-78l-129 -51l-381 -932h-120l-379 952z" />
<glyph unicode="w" horiz-adv-x="1742" d="M80 983v78h465v-78l-137 -31l202 -624h27l174 469l-51 155l-105 31v78h447v-78l-137 -31l204 -624h27l217 604l-166 51v78h416v-78l-131 -51l-342 -932h-115l-217 651l-221 -651h-121l-313 952z" />
<glyph unicode="x" horiz-adv-x="1318" d="M111 0v78l161 51l293 371l-332 452l-122 31v78h522v-78l-168 -31l221 -301l221 281l-141 51v78h442v-78l-164 -51l-292 -371l333 -452l123 -31v-78h-522v78l168 31l-221 301l-221 -281l141 -51v-78h-442z" />
<glyph unicode="y" horiz-adv-x="1234" d="M80 983v78h475v-78l-125 -31l221 -387h29l221 367l-162 51v78h416v-78l-133 -51l-303 -504v-319l147 -31v-78h-497v78l147 31v319l-309 524z" />
<glyph unicode="z" horiz-adv-x="1193" d="M123 41l639 895l-12 25h-381l-136 -220h-88l62 320h842l20 -31l-655 -909l10 -21h420l139 219h88l-61 -319h-867z" />
<glyph unicode="{" horiz-adv-x="1075" d="M166 492v135q137 0 230 71.5t93 167.5q0 71 -41.5 191t-41.5 188q0 146 106 206t365 60v-86q-308 0 -308 -161q0 -64 23.5 -137.5t46.5 -139t23 -110.5q0 -110 -89.5 -190.5t-220.5 -106.5v-33q128 -18 219 -105t91 -215q0 -56 -46.5 -194.5t-46.5 -220.5 q0 -193 320 -193v-86q-145 0 -241 18.5t-150 58.5t-75.5 92.5t-21.5 129.5t44 212.5t44 199.5q0 120 -89 184t-234 64z" />
<glyph unicode="|" d="M477 -471v2007h152v-2007h-152z" />
<glyph unicode="}" horiz-adv-x="1075" d="M186 -381q320 0 320 193q0 82 -46 220.5t-46 194.5q0 128 90.5 215t218.5 105v33q-131 26 -220 106.5t-89 190.5q0 45 23 110.5t46 139t23 137.5q0 161 -307 161v86q259 0 365 -60t106 -206q0 -68 -42 -188t-42 -191q0 -96 93 -167.5t230 -71.5v-135q-145 0 -234 -64 t-89 -184q0 -64 44 -199.5t44 -212.5q0 -76 -21.5 -128.5t-75.5 -92.5t-150.5 -59t-240.5 -19v86z" />
<glyph unicode="~" d="M72 438q36 108 125.5 217t144.5 109q51 0 135.5 -41t168.5 -82t134 -41t104 51.5t77 112.5l73 -29q-42 -126 -129.5 -223.5t-165.5 -97.5q-47 0 -215 80.5t-215 80.5q-24 0 -45.5 -12.5t-42 -41t-33 -50.5t-34.5 -65z" />
<glyph unicode="&#xa1;" horiz-adv-x="866" d="M301 1044q0 55 38.5 93.5t94.5 38.5q55 0 93 -38t38 -94t-38 -94.5t-93 -38.5q-56 0 -94.5 38.5t-38.5 94.5zM311 -342l82 1073h82l82 -1073h-246z" />
<glyph unicode="&#xa2;" horiz-adv-x="1071" d="M180 639q0 165 91.5 288t238.5 152v203h78v-195q129 0 206.5 -53.5t77.5 -128.5q0 -78 -90 -78q-37 0 -59.5 18t-33 44t-20.5 53t-29.5 48.5t-51.5 25.5v-662h26q70 0 130.5 37t95.5 90l55 -26q-41 -107 -121.5 -176t-185.5 -78v-201h-78v201q-149 20 -239.5 145 t-90.5 293zM356 672q0 -121 41.5 -195.5t112.5 -103.5v631q-65 -33 -109.5 -121.5t-44.5 -210.5z" />
<glyph unicode="&#xa3;" horiz-adv-x="1306" d="M215 25q0 58 65 105t160 77q35 103 35 231q0 87 -43 207h-180v88h147q-55 142 -55 234q0 85 31.5 152t84.5 107t116 60.5t131 20.5q83 0 151.5 -23.5t108.5 -59t62 -73t22 -70.5q0 -45 -24.5 -71.5t-57.5 -26.5q-36 0 -61.5 26t-41.5 63t-34 74t-50 63t-77 26 q-65 0 -110.5 -57.5t-45.5 -171.5q0 -35 7.5 -75t14 -61.5t24.5 -72t23 -64.5h277v-88h-256q10 -52 10 -96q0 -194 -110 -299l14 -23q45 31 96 31q38 0 73.5 -19t63 -46t53.5 -54t57.5 -46t64.5 -19q32 0 51.5 17t19.5 50q0 22 -19.5 42.5t-39 44t-19.5 53.5q0 28 20 49.5 t52 21.5q49 0 78 -38.5t29 -110.5q0 -110 -73 -169t-171 -59q-128 0 -243.5 57t-168.5 122h-8q-43 -78 -94.5 -128.5t-104.5 -50.5q-25 0 -40 13.5t-15 36.5z" />
<glyph unicode="&#xa4;" horiz-adv-x="1462" d="M256 941.5q2 20.5 15.5 38.5t32 33t37.5 16.5t32 -9.5l94 -96q120 86 264 86q145 0 258 -80l88 92q21 22 59.5 -0.5t60 -62.5t1.5 -60l-92 -88q78 -115 78 -254q0 -143 -86 -266l98 -94q13 -13 11.5 -34t-14.5 -39.5t-31 -33.5t-37 -16.5t-33 10.5l-103 102 q-114 -82 -258 -82q-141 0 -254 74l-86 -90q-13 -15 -35.5 -13t-42.5 16.5t-36 34t-18.5 40t11.5 35.5l90 88q-81 113 -81 268q0 142 81 260l-92 90q-14 14 -12 34.5zM422 555q0 -143 86 -236.5t225 -93.5q129 0 216 94.5t87 235.5q0 146 -86.5 239t-218.5 93 q-144 0 -226.5 -94t-82.5 -238z" />
<glyph unicode="&#xa5;" horiz-adv-x="1318" d="M113 1200v82h458v-82l-129 -31l246 -479h33l260 479l-152 31v82h377v-82l-119 -31l-319 -600h262v-84h-272v-100h272v-84h-272v-188l160 -31v-82h-517v82l160 31v188h-272v84h272v100h-272v84h262l-313 600z" />
<glyph unicode="&#xa6;" d="M477 246h152v-717h-152v717zM477 819v717h152v-717h-152z" />
<glyph unicode="&#xa7;" horiz-adv-x="1320" d="M238 631q0 94 37 174t114 162q-113 99 -113 213q0 51 23 101t66.5 93t116.5 69.5t163 26.5t183 -27t163 -77v-289h-67q-42 162 -115.5 234.5t-167.5 72.5q-81 0 -130.5 -45.5t-49.5 -111.5q0 -51 34.5 -100.5t89 -91t121 -83.5t133 -87.5t121 -93.5t89 -110t34.5 -129 q0 -166 -165 -321q129 -107 129 -242q0 -76 -34 -135.5t-89.5 -94.5t-121.5 -53t-136 -18q-85 0 -186.5 28t-180.5 77v288h68q44 -161 127 -234t184 -73q78 0 127 42t49 116q0 56 -34 108.5t-88.5 95.5t-120 85.5t-131 88t-120 94t-88.5 112.5t-34 135zM391 700 q0 -50 28 -96.5t80.5 -90t104 -78t124.5 -81t116 -78.5q44 49 61 85.5t17 80.5q0 52 -24.5 99.5t-76 93.5t-100 81.5t-129.5 91t-131 93.5q-70 -82 -70 -201z" />
<glyph unicode="&#xa8;" horiz-adv-x="1024" d="M229 1165q0 43 33 76t76 33q44 0 75 -33t31 -76q0 -42 -31 -73t-75 -31q-43 0 -76 31.5t-33 72.5zM580 1165q0 43 32.5 76t75.5 33q40 0 73.5 -33.5t33.5 -75.5q0 -41 -33.5 -72.5t-73.5 -31.5q-43 0 -75.5 31.5t-32.5 72.5z" />
<glyph unicode="&#xa9;" horiz-adv-x="1624" d="M182 606q0 169 85 314t230.5 230t315.5 85q133 0 250.5 -50t200 -135t130.5 -201t48 -243q0 -170 -85 -315.5t-230 -230.5t-314 -85q-172 0 -316 79.5t-229.5 225t-85.5 326.5zM303 602q0 -226 143.5 -375t368.5 -149q226 0 366 148.5t140 375.5q0 232 -144.5 383.5 t-363.5 151.5q-222 0 -366 -153t-144 -382zM469 608q0 156 102 252t254 96q123 0 254 -71v-158h-57q-30 86 -79 120t-118 34q-94 0 -150.5 -66t-56.5 -205q0 -131 63.5 -200.5t147.5 -69.5q83 0 130.5 36t74.5 116h53v-152q-63 -39 -122 -59.5t-140 -20.5q-152 0 -254 93 t-102 255z" />
<glyph unicode="&#xaa;" horiz-adv-x="935" d="M72 535v61l82 35l266 651h104l264 -666l76 -20v-61h-325v61l88 20l-62 154h-266l-55 -139l104 -35v-61h-276zM328 842h211l-99 250h-10z" />
<glyph unicode="&#xab;" horiz-adv-x="1376" d="M225 444v48l373 448l68 -41l-222 -412v-30l222 -416l-68 -49zM649 444v48l373 448l68 -41l-222 -412v-30l222 -416l-68 -49z" />
<glyph unicode="&#xac;" d="M78 510v131h936v-535h-142v404h-794z" />
<glyph unicode="&#xad;" horiz-adv-x="827" d="M158 420v149h512v-149h-512z" />
<glyph unicode="&#xae;" horiz-adv-x="1224" d="M174 1030q0 180 129 309t309 129q187 0 313 -128t126 -310q0 -180 -129.5 -309t-309.5 -129q-183 0 -310.5 124.5t-127.5 313.5zM264 1028q0 -155 98 -256.5t252 -101.5q144 0 245.5 103t101.5 255q0 157 -101 259t-248 102q-159 0 -253.5 -102t-94.5 -259zM385 801v41 l55 14v375l-55 14v41h238q24 0 51 -5.5t56 -18.5t48 -39.5t19 -63.5q0 -41 -31.5 -75t-85.5 -44v-16q28 -12 78 -80.5t76 -87.5l30 -14v-41h-112q-26 19 -57.5 66t-62.5 89t-63 54h-26v-154l75 -14v-41h-233zM543 1063h53q48 0 71 28t23 64q0 40 -24.5 58t-57.5 18h-65v-168 z" />
<glyph unicode="&#xaf;" horiz-adv-x="1024" d="M262 999v134h500v-134h-500z" />
<glyph unicode="&#xb0;" horiz-adv-x="935" d="M174 1012q0 121 86.5 208t206.5 87q121 0 208 -86.5t87 -208.5q0 -120 -87 -206.5t-208 -86.5q-120 0 -206.5 86.5t-86.5 206.5zM297 1012q0 -79 46.5 -134t121.5 -55q76 0 124 55t48 134q0 80 -48 136t-124 56q-75 0 -121.5 -56t-46.5 -136z" />
<glyph unicode="&#xb1;" d="M139 0v127h828v-127h-828zM139 553v127h350v307h127v-307h351v-127h-351v-307h-127v307h-350z" />
<glyph unicode="&#xb2;" horiz-adv-x="897" d="M154 723q70 59 148.5 143t148 192t69.5 179q0 58 -23 85.5t-73 27.5q-81 0 -180 -125l-47 39q52 81 132 143.5t171 62.5q77 0 133.5 -42.5t56.5 -122.5q0 -178 -319 -465l8 -17h239l60 74l51 -16l-65 -197h-496z" />
<glyph unicode="&#xb3;" horiz-adv-x="792" d="M154 797q0 28 16 46.5t45 18.5q22 0 43.5 -17.5t36.5 -38.5t40 -38.5t54 -17.5q45 0 77 34.5t32 102.5q0 38 -13 71.5t-33 54t-44 35t-45.5 16t-36.5 -4.5l-35 -15l-23 46q205 87 205 204q0 32 -21 52t-57 20q-82 0 -182 -100l-39 37q39 62 120 116t165 54 q66 0 114 -35.5t48 -98.5q0 -114 -150 -196v-13q80 -25 128 -83t48 -134q0 -50 -17.5 -91.5t-45.5 -68t-63.5 -45t-70 -26.5t-67.5 -8q-109 0 -169 37t-60 86z" />
<glyph unicode="&#xb4;" horiz-adv-x="1024" d="M389 999v17l176 336h193v-21l-264 -332h-105z" />
<glyph unicode="&#xb6;" horiz-adv-x="1320" d="M127 973q0 215 141 344t363 129h569v-117q-67 0 -103 -50t-36 -124v-1477h-133v1651h-133v-1651h-133v820q-255 0 -395 127t-140 348zM418 967q0 -159 64 -256t180 -97v715q-109 0 -176.5 -100t-67.5 -262z" />
<glyph unicode="&#xb7;" horiz-adv-x="702" d="M219 541q0 56 38 94.5t93 38.5q56 0 94.5 -39t38.5 -94t-38.5 -93t-94.5 -38t-93.5 38t-37.5 93z" />
<glyph unicode="&#xb8;" horiz-adv-x="1024" d="M358 -184l119 225h92l-77 -143q94 0 154.5 -37t60.5 -111q0 -77 -86 -135t-207 -74l-17 51q79 12 128.5 46.5t49.5 80.5q0 42 -40 64t-105 22q-33 0 -61 -4z" />
<glyph unicode="&#xb9;" horiz-adv-x="768" d="M143 1343v66q78 2 160.5 17.5t136.5 43.5l37 -30v-662l129 -30v-64h-436v64l149 30v555q-40 -9 -94 -5.5t-82 15.5z" />
<glyph unicode="&#xba;" horiz-adv-x="901" d="M61 915q0 177 113 284.5t279 107.5q169 0 278 -106.5t109 -285.5q0 -183 -110.5 -285t-276.5 -102q-168 0 -280 103t-112 284zM240 915q0 -141 61 -220t152 -79q92 0 150.5 73.5t58.5 225.5q0 148 -59 229t-150 81t-152 -82t-61 -228z" />
<glyph unicode="&#xbb;" horiz-adv-x="1376" d="M287 41l221 416v30l-221 412l67 41l373 -448v-48l-373 -452zM711 41l221 416v30l-221 412l67 41l373 -448v-48l-373 -452z" />
<glyph unicode="&#xbc;" horiz-adv-x="1411" d="M66 1237v66q172 4 284 61l37 -31v-686l129 -31v-63h-424v63l150 31v580q-40 -9 -94 -5.5t-82 15.5zM98 -266l1190 1601l62 -47l-1184 -1607zM649 -94l469 594l58 -19v-528h102v-84h-102v-197h-144v197h-364zM805 -29l12 -18h215v289l-10 6z" />
<glyph unicode="&#xbd;" horiz-adv-x="1411" d="M66 1237v66q172 4 284 61l37 -31v-686l129 -31v-63h-424v63l150 31v580q-40 -9 -94 -5.5t-82 15.5zM98 -266l1190 1601l62 -47l-1184 -1607zM752 -289q51 43 114 108.5t126 143t105 158.5t42 137q0 53 -27 83t-76 30q-88 0 -196 -121l-45 35q151 207 323 207 q83 0 131.5 -46.5t48.5 -119.5q0 -93 -115 -253t-222 -255l8 -17h268l59 74l52 -16l-66 -187h-516z" />
<glyph unicode="&#xbe;" horiz-adv-x="1411" d="M84 674q0 21 16.5 39t44.5 18q29 0 52 -19t36 -41.5t37 -41.5t54 -19q49 0 89 34t40 108q0 61 -41 107.5t-87 63t-69 5.5l-35 -15l-24 39q96 49 160.5 107t64.5 115q0 39 -23 59t-61 20q-49 0 -104 -31t-84 -71l-35 41q41 63 123 116.5t168 53.5q62 0 109.5 -38.5 t47.5 -111.5q0 -93 -145 -184v-12q74 -22 121 -90t47 -154q0 -59 -27 -105t-71 -72t-92.5 -39t-98.5 -13q-100 0 -156.5 36t-56.5 95zM98 -266l1190 1601l62 -47l-1184 -1607zM649 -94l469 594l58 -19v-528h102v-84h-102v-197h-144v197h-364zM805 -29l12 -18h215v289l-10 6z " />
<glyph unicode="&#xbf;" horiz-adv-x="1009" d="M256 127q0 102 34 180.5t90 121.5t122 62t135 13v239h88v-432q-184 22 -279.5 -51.5t-95.5 -204.5q0 -96 62.5 -150.5t181.5 -54.5q201 0 201 -104q0 -46 -34 -76t-95 -30q-68 0 -139.5 35t-132 95.5t-99.5 155t-39 201.5zM547 1044q0 55 38.5 93.5t94.5 38.5 q55 0 93 -38t38 -94t-38 -94.5t-93 -38.5q-56 0 -94.5 38.5t-38.5 94.5z" />
<glyph unicode="&#xc0;" horiz-adv-x="1531" d="M76 0v82l153 31l459 1333h133l479 -1333l156 -31v-82h-541v82l164 31l-141 387h-459l-131 -387l187 -31v-82h-459zM514 1880v21h193l176 -336v-17h-105zM518 612h379l-176 506h-33z" />
<glyph unicode="&#xc1;" horiz-adv-x="1531" d="M76 0v82l153 31l459 1333h133l479 -1333l156 -31v-82h-541v82l164 31l-141 387h-459l-131 -387l187 -31v-82h-459zM518 612h379l-176 506h-33zM637 1548v17l176 336h193v-21l-265 -332h-104z" />
<glyph unicode="&#xc2;" horiz-adv-x="1531" d="M76 0v82l153 31l459 1333h133l479 -1333l156 -31v-82h-541v82l164 31l-141 387h-459l-131 -387l187 -31v-82h-459zM463 1548v17l248 336h98l248 -336v-17h-94l-203 203l-203 -203h-94zM518 612h379l-176 506h-33z" />
<glyph unicode="&#xc3;" horiz-adv-x="1531" d="M76 0v82l153 31l459 1333h133l479 -1333l156 -31v-82h-541v82l164 31l-141 387h-459l-131 -387l187 -31v-82h-459zM446 1618q23 83 84.5 167.5t98.5 84.5q39 0 132.5 -62.5t131.5 -62.5q34 0 73 42.5t56 88.5l53 -21q-28 -100 -88 -178t-113 -78q-31 0 -130.5 61.5 t-129.5 61.5q-32 0 -56 -32.5t-52 -96.5zM518 612h379l-176 506h-33z" />
<glyph unicode="&#xc4;" horiz-adv-x="1531" d="M76 0v82l153 31l459 1333h133l479 -1333l156 -31v-82h-541v82l164 31l-141 387h-459l-131 -387l187 -31v-82h-459zM477 1714q0 43 33 76t76 33q44 0 75 -33t31 -76q0 -42 -31 -73t-75 -31q-43 0 -76 31.5t-33 72.5zM518 612h379l-176 506h-33zM827 1714q0 43 33 76t76 33 q40 0 73 -33.5t33 -75.5q0 -41 -33 -72.5t-73 -31.5q-43 0 -76 31.5t-33 72.5z" />
<glyph unicode="&#xc5;" horiz-adv-x="1531" d="M76 0v82l153 31l459 1333h133l479 -1333l156 -31v-82h-541v82l164 31l-141 387h-459l-131 -387l187 -31v-82h-459zM518 612h379l-176 506h-33zM567 1720q0 80 56.5 136.5t136.5 56.5q79 0 135.5 -56.5t56.5 -136.5t-56 -136t-136 -56t-136.5 56.5t-56.5 135.5zM662 1720 q0 -45 26.5 -74.5t69.5 -29.5q44 0 71 29.5t27 74.5t-27.5 77t-70.5 32t-69.5 -31.5t-26.5 -77.5z" />
<glyph unicode="&#xc6;" horiz-adv-x="2060" d="M76 0v82l153 31l746 1212v8l-180 31v82h1028l32 -322h-90l-145 224h-428v-531h281l65 193h82v-512h-82l-65 207h-281v-607h491l187 285h90l-74 -383h-1091v82l180 31v387h-393l-234 -387l187 -31v-82h-459zM651 612h324v535z" />
<glyph unicode="&#xc7;" horiz-adv-x="1601" d="M154 721q0 169 60 311t162.5 237t239.5 148t291 53q114 0 246 -41t244 -104v-289h-68q-40 117 -110.5 193.5t-147.5 107.5t-164 31q-83 0 -158 -24t-140.5 -75.5t-113 -126t-75 -182t-27.5 -237.5q0 -125 28.5 -231t76 -179t111 -125t132.5 -76t140 -24q170 0 291.5 84.5 t175.5 241.5h65v-281q-128 -76 -247.5 -115.5t-286.5 -42.5l-41 -77q94 0 154.5 -37t60.5 -111q0 -77 -86 -135t-207 -74l-17 51q79 12 129 46.5t50 80.5q0 42 -40.5 64t-105.5 22q-33 0 -61 -4l-10 15l86 164q-135 10 -250.5 64t-202 146t-135.5 228.5t-49 302.5z" />
<glyph unicode="&#xc8;" horiz-adv-x="1406" d="M141 0v82l181 31v1220l-181 31v82h1028l33 -322h-90l-145 224h-428v-531h280l66 193h82v-512h-82l-66 207h-280v-607h491l187 285h90l-74 -383h-1092zM477 1880v21h193l176 -336v-17h-105z" />
<glyph unicode="&#xc9;" horiz-adv-x="1406" d="M141 0v82l181 31v1220l-181 31v82h1028l33 -322h-90l-145 224h-428v-531h280l66 193h82v-512h-82l-66 207h-280v-607h491l187 285h90l-74 -383h-1092zM600 1548v17l176 336h193v-21l-264 -332h-105z" />
<glyph unicode="&#xca;" horiz-adv-x="1406" d="M141 0v82l181 31v1220l-181 31v82h1028l33 -322h-90l-145 224h-428v-531h280l66 193h82v-512h-82l-66 207h-280v-607h491l187 285h90l-74 -383h-1092zM426 1548v17l248 336h98l248 -336v-17h-94l-203 203l-203 -203h-94z" />
<glyph unicode="&#xcb;" horiz-adv-x="1406" d="M141 0v82l181 31v1220l-181 31v82h1028l33 -322h-90l-145 224h-428v-531h280l66 193h82v-512h-82l-66 207h-280v-607h491l187 285h90l-74 -383h-1092zM440 1714q0 43 33 76t76 33q44 0 75 -33t31 -76q0 -42 -31 -73t-75 -31q-43 0 -76 31.5t-33 72.5zM791 1714 q0 43 32.5 76t75.5 33q40 0 73.5 -33.5t33.5 -75.5q0 -41 -33.5 -72.5t-73.5 -31.5q-43 0 -75.5 31.5t-32.5 72.5z" />
<glyph unicode="&#xcc;" horiz-adv-x="860" d="M141 0v82l181 31v1220l-181 31v82h578v-82l-180 -31v-1220l180 -31v-82h-578zM184 1880v21h193l176 -336v-17h-104z" />
<glyph unicode="&#xcd;" horiz-adv-x="860" d="M141 0v82l181 31v1220l-181 31v82h578v-82l-180 -31v-1220l180 -31v-82h-578zM307 1548v17l176 336h193v-21l-264 -332h-105z" />
<glyph unicode="&#xce;" horiz-adv-x="860" d="M133 1548v17l248 336h98l248 -336v-17h-94l-203 203l-203 -203h-94zM141 0v82l181 31v1220l-181 31v82h578v-82l-180 -31v-1220l180 -31v-82h-578z" />
<glyph unicode="&#xcf;" horiz-adv-x="860" d="M141 0v82l181 31v1220l-181 31v82h578v-82l-180 -31v-1220l180 -31v-82h-578zM147 1714q0 43 33 76t76 33q44 0 75 -33t31 -76q0 -42 -31 -73t-75 -31q-43 0 -76 31.5t-33 72.5zM498 1714q0 43 32.5 76t75.5 33q40 0 73.5 -33.5t33.5 -75.5q0 -41 -33.5 -72.5 t-73.5 -31.5q-43 0 -75.5 31.5t-32.5 72.5z" />
<glyph unicode="&#xd0;" horiz-adv-x="1718" d="M96 664v112h226v557l-181 31v82h617q375 0 591 -194.5t216 -534.5q0 -228 -109 -392t-294 -244.5t-425 -80.5h-596v82l181 31v551h-226zM539 113h198q96 0 181.5 20.5t160.5 67t129 115.5t85.5 172t31.5 231q0 151 -42.5 268.5t-118.5 192.5t-179.5 114t-228.5 39h-217 v-557h338v-112h-338v-551z" />
<glyph unicode="&#xd1;" horiz-adv-x="1726" d="M111 0v82l161 31v1220l-161 31v82h325l860 -1059h29v946l-180 31v82h471v-82l-178 -31v-1337h-92l-932 1145h-29v-1028l180 -31v-82h-454zM549 1618q23 83 84 167.5t98 84.5q39 0 132.5 -62.5t131.5 -62.5q34 0 73 42.5t56 88.5l54 -21q-28 -100 -88 -178t-113 -78 q-31 0 -130.5 61.5t-129.5 61.5q-32 0 -56.5 -33t-52.5 -96z" />
<glyph unicode="&#xd2;" horiz-adv-x="1689" d="M154 721q0 169 55 311t149 237t220 148t268 53q149 0 276 -52t218.5 -147t143.5 -236.5t52 -313.5q0 -181 -54.5 -325t-149.5 -235t-219 -138.5t-267 -47.5q-114 0 -217.5 31t-190 93.5t-150 150.5t-99 209t-35.5 262zM393 723q0 -133 24 -241.5t65.5 -182t99.5 -123 t124 -72t140 -22.5q77 0 140.5 17.5t122 62.5t99 115.5t64.5 184t24 261.5q0 138 -22.5 247.5t-62 183.5t-96.5 122.5t-123.5 70t-145.5 21.5q-94 0 -173.5 -36.5t-143.5 -111t-100 -201.5t-36 -296zM598 1880v21h193l176 -336v-17h-105z" />
<glyph unicode="&#xd3;" horiz-adv-x="1689" d="M154 721q0 169 55 311t149 237t220 148t268 53q149 0 276 -52t218.5 -147t143.5 -236.5t52 -313.5q0 -181 -54.5 -325t-149.5 -235t-219 -138.5t-267 -47.5q-114 0 -217.5 31t-190 93.5t-150 150.5t-99 209t-35.5 262zM393 723q0 -133 24 -241.5t65.5 -182t99.5 -123 t124 -72t140 -22.5q77 0 140.5 17.5t122 62.5t99 115.5t64.5 184t24 261.5q0 138 -22.5 247.5t-62 183.5t-96.5 122.5t-123.5 70t-145.5 21.5q-94 0 -173.5 -36.5t-143.5 -111t-100 -201.5t-36 -296zM721 1548v17l176 336h193v-21l-265 -332h-104z" />
<glyph unicode="&#xd4;" horiz-adv-x="1689" d="M154 721q0 169 55 311t149 237t220 148t268 53q149 0 276 -52t218.5 -147t143.5 -236.5t52 -313.5q0 -181 -54.5 -325t-149.5 -235t-219 -138.5t-267 -47.5q-114 0 -217.5 31t-190 93.5t-150 150.5t-99 209t-35.5 262zM393 723q0 -133 24 -241.5t65.5 -182t99.5 -123 t124 -72t140 -22.5q77 0 140.5 17.5t122 62.5t99 115.5t64.5 184t24 261.5q0 138 -22.5 247.5t-62 183.5t-96.5 122.5t-123.5 70t-145.5 21.5q-94 0 -173.5 -36.5t-143.5 -111t-100 -201.5t-36 -296zM547 1548v17l248 336h98l248 -336v-17h-94l-203 203l-203 -203h-94z" />
<glyph unicode="&#xd5;" horiz-adv-x="1689" d="M154 721q0 169 55 311t149 237t220 148t268 53q149 0 276 -52t218.5 -147t143.5 -236.5t52 -313.5q0 -181 -54.5 -325t-149.5 -235t-219 -138.5t-267 -47.5q-114 0 -217.5 31t-190 93.5t-150 150.5t-99 209t-35.5 262zM393 723q0 -133 24 -241.5t65.5 -182t99.5 -123 t124 -72t140 -22.5q77 0 140.5 17.5t122 62.5t99 115.5t64.5 184t24 261.5q0 138 -22.5 247.5t-62 183.5t-96.5 122.5t-123.5 70t-145.5 21.5q-94 0 -173.5 -36.5t-143.5 -111t-100 -201.5t-36 -296zM530 1618q23 83 84.5 167.5t98.5 84.5q39 0 132.5 -62.5t131.5 -62.5 q34 0 73 42.5t56 88.5l53 -21q-28 -100 -88 -178t-113 -78q-30 0 -130 61.5t-130 61.5q-32 0 -56 -32.5t-52 -96.5z" />
<glyph unicode="&#xd6;" horiz-adv-x="1689" d="M154 721q0 169 55 311t149 237t220 148t268 53q149 0 276 -52t218.5 -147t143.5 -236.5t52 -313.5q0 -181 -54.5 -325t-149.5 -235t-219 -138.5t-267 -47.5q-114 0 -217.5 31t-190 93.5t-150 150.5t-99 209t-35.5 262zM393 723q0 -133 24 -241.5t65.5 -182t99.5 -123 t124 -72t140 -22.5q77 0 140.5 17.5t122 62.5t99 115.5t64.5 184t24 261.5q0 138 -22.5 247.5t-62 183.5t-96.5 122.5t-123.5 70t-145.5 21.5q-94 0 -173.5 -36.5t-143.5 -111t-100 -201.5t-36 -296zM561 1714q0 43 33 76t76 33q44 0 75 -33t31 -76q0 -42 -31 -73t-75 -31 q-43 0 -76 31.5t-33 72.5zM911 1714q0 43 33 76t76 33q40 0 73 -33.5t33 -75.5q0 -41 -33 -72.5t-73 -31.5q-43 0 -76 31.5t-33 72.5z" />
<glyph unicode="&#xd7;" d="M186 217l277 277l-277 276l90 90l277 -276l276 276l91 -90l-277 -276l277 -277l-91 -90l-276 276l-277 -276z" />
<glyph unicode="&#xd8;" horiz-adv-x="1689" d="M154 721q0 169 55 311t149 237t220 148t268 53q220 0 387 -110l113 156h133l-162 -224q105 -99 162 -244t57 -327q0 -181 -54.5 -325t-149.5 -235t-219 -138.5t-267 -47.5q-228 0 -397 117l-132 -182h-133l181 250q-211 208 -211 561zM393 723q0 -249 82 -410l674 930 q-116 125 -303 125q-94 0 -173.5 -36.5t-143.5 -111t-100 -201.5t-36 -296zM541 217q118 -135 305 -135q77 0 140.5 17.5t122 62.5t99 115.5t64.5 184t24 261.5q0 264 -84 426z" />
<glyph unicode="&#xd9;" horiz-adv-x="1703" d="M111 1364v82h577v-82l-180 -31v-831q0 -164 105.5 -272.5t293.5 -108.5q83 0 156 29t129 83.5t88.5 140.5t32.5 193v766l-178 31v82h458v-82l-166 -31v-801q0 -72 -19.5 -147t-64 -149t-108 -131.5t-159.5 -93.5t-210 -36q-136 0 -248.5 44.5t-182 116.5t-107 159 t-37.5 176v862zM672 1880v21h192l176 -336v-17h-104z" />
<glyph unicode="&#xda;" horiz-adv-x="1703" d="M111 1364v82h577v-82l-180 -31v-831q0 -164 105.5 -272.5t293.5 -108.5q83 0 156 29t129 83.5t88.5 140.5t32.5 193v766l-178 31v82h458v-82l-166 -31v-801q0 -72 -19.5 -147t-64 -149t-108 -131.5t-159.5 -93.5t-210 -36q-136 0 -248.5 44.5t-182 116.5t-107 159 t-37.5 176v862zM795 1548v17l176 336h192v-21l-264 -332h-104z" />
<glyph unicode="&#xdb;" horiz-adv-x="1703" d="M111 1364v82h577v-82l-180 -31v-831q0 -164 105.5 -272.5t293.5 -108.5q83 0 156 29t129 83.5t88.5 140.5t32.5 193v766l-178 31v82h458v-82l-166 -31v-801q0 -72 -19.5 -147t-64 -149t-108 -131.5t-159.5 -93.5t-210 -36q-136 0 -248.5 44.5t-182 116.5t-107 159 t-37.5 176v862zM621 1548v17l247 336h99l247 -336v-17h-94l-202 203l-203 -203h-94z" />
<glyph unicode="&#xdc;" horiz-adv-x="1703" d="M111 1364v82h577v-82l-180 -31v-831q0 -164 105.5 -272.5t293.5 -108.5q83 0 156 29t129 83.5t88.5 140.5t32.5 193v766l-178 31v82h458v-82l-166 -31v-801q0 -72 -19.5 -147t-64 -149t-108 -131.5t-159.5 -93.5t-210 -36q-136 0 -248.5 44.5t-182 116.5t-107 159 t-37.5 176v862zM635 1714q0 43 32.5 76t75.5 33q44 0 75.5 -33t31.5 -76q0 -42 -31.5 -73t-75.5 -31q-43 0 -75.5 31.5t-32.5 72.5zM985 1714q0 43 33 76t76 33q40 0 73 -33.5t33 -75.5q0 -41 -33 -72.5t-73 -31.5q-43 0 -76 31.5t-33 72.5z" />
<glyph unicode="&#xdd;" horiz-adv-x="1470" d="M86 1364v82h541v-82l-166 -31l303 -522h33l311 522l-182 31v82h458v-82l-153 -31l-387 -661v-559l180 -31v-82h-578v82l181 31v553l-391 667zM659 1548v17l177 336h192v-21l-264 -332h-105z" />
<glyph unicode="&#xde;" horiz-adv-x="1306" d="M141 0v82l181 31v1220l-181 31v82h578v-82l-180 -31v-174h127q75 0 147 -13.5t140 -45t118.5 -78t81.5 -117t31 -157.5q0 -186 -141.5 -296t-387.5 -110h-116v-229l180 -31v-82h-578zM539 449h135q120 0 202 77.5t82 208.5q0 307 -303 307h-116v-593z" />
<glyph unicode="&#xdf;" horiz-adv-x="2183" d="M184 4v352h99q31 -136 101 -209t173 -73q81 0 130.5 46.5t49.5 117.5q0 69 -45.5 116t-179.5 105q-156 67 -229.5 142t-73.5 181q0 53 23 105t64 95.5t106.5 70t142.5 26.5q26 0 49.5 -3t48 -10t35 -10.5t36 -14t27.5 -11.5l74 31h53l37 -322h-96q-37 119 -104 178.5 t-152 59.5q-74 0 -118 -40t-44 -112q0 -64 56 -107.5t194 -96.5q141 -55 210 -131t69 -195q0 -154 -102 -238t-261 -84q-53 0 -110.5 17.5t-96.5 44.5l-88 -31h-78zM1255 4v352h99q31 -136 101 -209t173 -73q81 0 130.5 46.5t49.5 117.5q0 69 -45.5 116t-179.5 105 q-156 67 -229.5 142t-73.5 181q0 53 23 105t64 95.5t106.5 70t142.5 26.5q26 0 49.5 -3t48 -10t35 -10.5t36 -14t27.5 -11.5l74 31h53l37 -322h-96q-37 119 -104 178.5t-152 59.5q-74 0 -118 -40t-44 -112q0 -64 56 -107.5t194 -96.5q141 -55 210 -131t69 -195 q0 -154 -102 -238t-261 -84q-53 0 -110.5 17.5t-96.5 44.5l-88 -31h-78z" />
<glyph unicode="&#xe0;" horiz-adv-x="1290" d="M84 0v78l131 51l377 932h125l375 -952l122 -31v-78h-475v78l138 31l-93 239h-364l-86 -219l164 -51v-78h-414zM403 1495v21h193l176 -336v-17h-104zM459 444h289l-134 347h-16z" />
<glyph unicode="&#xe1;" horiz-adv-x="1290" d="M84 0v78l131 51l377 932h125l375 -952l122 -31v-78h-475v78l138 31l-93 239h-364l-86 -219l164 -51v-78h-414zM459 444h289l-134 347h-16zM526 1163v17l176 336h193v-21l-264 -332h-105z" />
<glyph unicode="&#xe2;" horiz-adv-x="1290" d="M84 0v78l131 51l377 932h125l375 -952l122 -31v-78h-475v78l138 31l-93 239h-364l-86 -219l164 -51v-78h-414zM352 1163v17l248 336h98l248 -336v-17h-94l-203 203l-203 -203h-94zM459 444h289l-134 347h-16z" />
<glyph unicode="&#xe3;" horiz-adv-x="1290" d="M84 0v78l131 51l377 932h125l375 -952l122 -31v-78h-475v78l138 31l-93 239h-364l-86 -219l164 -51v-78h-414zM336 1233q23 83 84 167.5t98 84.5q39 0 132.5 -62.5t131.5 -62.5q34 0 73 42.5t56 88.5l54 -21q-28 -100 -88 -178t-113 -78q-30 0 -130 61.5t-130 61.5 q-32 0 -56.5 -33t-52.5 -96zM459 444h289l-134 347h-16z" />
<glyph unicode="&#xe4;" horiz-adv-x="1290" d="M84 0v78l131 51l377 932h125l375 -952l122 -31v-78h-475v78l138 31l-93 239h-364l-86 -219l164 -51v-78h-414zM367 1329q0 43 32.5 76t75.5 33q44 0 75.5 -33t31.5 -76q0 -42 -31.5 -73t-75.5 -31q-43 0 -75.5 31.5t-32.5 72.5zM459 444h289l-134 347h-16zM717 1329 q0 43 32.5 76t75.5 33q40 0 73.5 -33.5t33.5 -75.5q0 -41 -33.5 -72.5t-73.5 -31.5q-43 0 -75.5 31.5t-32.5 72.5z" />
<glyph unicode="&#xe5;" horiz-adv-x="1290" d="M84 0v78l131 51l377 932h125l375 -952l122 -31v-78h-475v78l138 31l-93 239h-364l-86 -219l164 -51v-78h-414zM457 1335q0 80 56.5 136.5t135.5 56.5t136 -57t57 -136t-56.5 -135.5t-136.5 -56.5q-79 0 -135.5 56.5t-56.5 135.5zM459 444h289l-134 347h-16zM551 1335 q0 -45 26.5 -74.5t69.5 -29.5q44 0 71 29.5t27 74.5t-27.5 77t-70.5 32t-69.5 -31.5t-26.5 -77.5z" />
<glyph unicode="&#xe6;" horiz-adv-x="1714" d="M84 0v78l131 51l606 803v20l-147 31v78h833l27 -254h-86l-107 154h-317v-367h197l55 117h65v-342h-65l-55 129h-197v-398h373l119 183h88l-43 -283h-887v78l147 31v239h-323l-164 -219l164 -51v-78h-414zM571 444h250v332z" />
<glyph unicode="&#xe7;" horiz-adv-x="1294" d="M141 524q0 166 77 293.5t205 194.5t284 67q93 0 200.5 -32.5t200.5 -81.5v-248h-78q-94 260 -323 260q-142 0 -241 -123t-99 -328q0 -97 32 -181.5t82.5 -140.5t112 -88t121.5 -32q129 0 208.5 64t120.5 192h78v-240q-92 -59 -183 -91.5t-212 -35.5l-41 -75 q94 0 154.5 -37t60.5 -111q0 -77 -86 -135t-207 -74l-16 51q79 12 128.5 46.5t49.5 80.5q0 42 -40 64t-105 22q-34 0 -62 -4l-10 15l84 161q-104 9 -194 50t-157.5 109t-106 168t-38.5 220z" />
<glyph unicode="&#xe8;" horiz-adv-x="1181" d="M141 0v78l148 31v843l-148 31v78h834l26 -254h-86l-106 154h-317v-367h196l55 117h66v-342h-66l-55 129h-196v-398h372l119 183h88l-43 -283h-887zM360 1495v21h193l176 -336v-17h-104z" />
<glyph unicode="&#xe9;" horiz-adv-x="1181" d="M141 0v78l148 31v843l-148 31v78h834l26 -254h-86l-106 154h-317v-367h196l55 117h66v-342h-66l-55 129h-196v-398h372l119 183h88l-43 -283h-887zM483 1163v17l176 336h193v-21l-264 -332h-105z" />
<glyph unicode="&#xea;" horiz-adv-x="1181" d="M141 0v78l148 31v843l-148 31v78h834l26 -254h-86l-106 154h-317v-367h196l55 117h66v-342h-66l-55 129h-196v-398h372l119 183h88l-43 -283h-887zM309 1163v17l248 336h98l248 -336v-17h-94l-203 203l-203 -203h-94z" />
<glyph unicode="&#xeb;" horiz-adv-x="1181" d="M141 0v78l148 31v843l-148 31v78h834l26 -254h-86l-106 154h-317v-367h196l55 117h66v-342h-66l-55 129h-196v-398h372l119 183h88l-43 -283h-887zM324 1329q0 43 32.5 76t75.5 33q44 0 75.5 -33t31.5 -76q0 -42 -31.5 -73t-75.5 -31q-43 0 -75.5 31.5t-32.5 72.5z M674 1329q0 43 32.5 76t75.5 33q40 0 73.5 -33.5t33.5 -75.5q0 -41 -33.5 -72.5t-73.5 -31.5q-43 0 -75.5 31.5t-32.5 72.5z" />
<glyph unicode="&#xec;" horiz-adv-x="819" d="M162 0v78l147 31v843l-147 31v78h495v-78l-145 -31v-843l145 -31v-78h-495zM164 1495v21h192l176 -336v-17h-104z" />
<glyph unicode="&#xed;" horiz-adv-x="819" d="M162 0v78l147 31v843l-147 31v78h495v-78l-145 -31v-843l145 -31v-78h-495zM287 1163v17l176 336h192v-21l-264 -332h-104z" />
<glyph unicode="&#xee;" horiz-adv-x="819" d="M113 1163v17l247 336h99l248 -336v-17h-95l-202 203l-203 -203h-94zM162 0v78l147 31v843l-147 31v78h495v-78l-145 -31v-843l145 -31v-78h-495z" />
<glyph unicode="&#xef;" horiz-adv-x="819" d="M127 1329q0 43 33 76t76 33q44 0 75 -33t31 -76q0 -42 -31 -73t-75 -31q-43 0 -76 31.5t-33 72.5zM162 0v78l147 31v843l-147 31v78h495v-78l-145 -31v-843l145 -31v-78h-495zM477 1329q0 43 33 76t76 33q40 0 73 -33.5t33 -75.5q0 -41 -33 -72.5t-73 -31.5 q-43 0 -76 31.5t-33 72.5z" />
<glyph unicode="&#xf0;" horiz-adv-x="1363" d="M111 477v96h178v379l-148 31v78h490q276 0 434 -143t158 -394q0 -166 -81 -286t-217.5 -179t-312.5 -59h-471v78l148 31v368h-178zM492 109h120q81 0 150 23t125 71t87.5 130.5t31.5 192.5q0 203 -106.5 314.5t-270.5 111.5h-137v-379h303v-96h-303v-368z" />
<glyph unicode="&#xf1;" horiz-adv-x="1419" d="M131 0v78l131 51v823l-131 31v78h293l596 -699h24v570l-167 51v78h426v-78l-146 -51v-946h-61l-697 819h-24v-676l168 -51v-78h-412zM403 1233q23 83 84.5 167.5t98.5 84.5q39 0 132.5 -62.5t131.5 -62.5q34 0 73 42.5t56 88.5l53 -21q-28 -100 -88 -178t-113 -78 q-31 0 -130 61.5t-130 61.5q-32 0 -56 -32.5t-52 -96.5z" />
<glyph unicode="&#xf2;" horiz-adv-x="1388" d="M141 524q0 166 75.5 293.5t201 194.5t278.5 67q159 0 283 -66t196 -193t72 -296q0 -132 -43.5 -238t-119.5 -173.5t-175 -103.5t-213 -36q-115 0 -215.5 37t-176.5 105.5t-119.5 174t-43.5 234.5zM367 526q0 -207 94.5 -324.5t234.5 -117.5q69 0 126 24.5t103.5 75 t72.5 138t26 204.5q0 215 -92.5 333t-235.5 118q-140 0 -234.5 -119t-94.5 -332zM449 1495v21h192l176 -336v-17h-104z" />
<glyph unicode="&#xf3;" horiz-adv-x="1388" d="M141 524q0 166 75.5 293.5t201 194.5t278.5 67q159 0 283 -66t196 -193t72 -296q0 -132 -43.5 -238t-119.5 -173.5t-175 -103.5t-213 -36q-115 0 -215.5 37t-176.5 105.5t-119.5 174t-43.5 234.5zM367 526q0 -207 94.5 -324.5t234.5 -117.5q69 0 126 24.5t103.5 75 t72.5 138t26 204.5q0 215 -92.5 333t-235.5 118q-140 0 -234.5 -119t-94.5 -332zM571 1163v17l177 336h192v-21l-264 -332h-105z" />
<glyph unicode="&#xf4;" horiz-adv-x="1388" d="M141 524q0 166 75.5 293.5t201 194.5t278.5 67q159 0 283 -66t196 -193t72 -296q0 -132 -43.5 -238t-119.5 -173.5t-175 -103.5t-213 -36q-115 0 -215.5 37t-176.5 105.5t-119.5 174t-43.5 234.5zM367 526q0 -207 94.5 -324.5t234.5 -117.5q69 0 126 24.5t103.5 75 t72.5 138t26 204.5q0 215 -92.5 333t-235.5 118q-140 0 -234.5 -119t-94.5 -332zM397 1163v17l248 336h98l248 -336v-17h-94l-203 203l-202 -203h-95z" />
<glyph unicode="&#xf5;" horiz-adv-x="1388" d="M141 524q0 166 75.5 293.5t201 194.5t278.5 67q159 0 283 -66t196 -193t72 -296q0 -132 -43.5 -238t-119.5 -173.5t-175 -103.5t-213 -36q-115 0 -215.5 37t-176.5 105.5t-119.5 174t-43.5 234.5zM367 526q0 -207 94.5 -324.5t234.5 -117.5q69 0 126 24.5t103.5 75 t72.5 138t26 204.5q0 215 -92.5 333t-235.5 118q-140 0 -234.5 -119t-94.5 -332zM381 1233q23 83 84 167.5t98 84.5q39 0 132.5 -62.5t131.5 -62.5q34 0 73 42.5t56 88.5l54 -21q-28 -100 -88 -178t-113 -78q-31 0 -130 61.5t-130 61.5q-32 0 -56.5 -33t-52.5 -96z" />
<glyph unicode="&#xf6;" horiz-adv-x="1388" d="M141 524q0 166 75.5 293.5t201 194.5t278.5 67q159 0 283 -66t196 -193t72 -296q0 -132 -43.5 -238t-119.5 -173.5t-175 -103.5t-213 -36q-115 0 -215.5 37t-176.5 105.5t-119.5 174t-43.5 234.5zM367 526q0 -207 94.5 -324.5t234.5 -117.5q69 0 126 24.5t103.5 75 t72.5 138t26 204.5q0 215 -92.5 333t-235.5 118q-140 0 -234.5 -119t-94.5 -332zM412 1329q0 43 32.5 76t75.5 33q44 0 75.5 -33t31.5 -76q0 -42 -31.5 -73t-75.5 -31q-43 0 -75.5 31.5t-32.5 72.5zM762 1329q0 43 32.5 76t75.5 33q40 0 73.5 -33.5t33.5 -75.5 q0 -41 -33.5 -72.5t-73.5 -31.5q-43 0 -75.5 31.5t-32.5 72.5z" />
<glyph unicode="&#xf7;" d="M139 430v127h828v-127h-828zM444 180q0 44 30.5 75.5t74.5 31.5t75 -31.5t31 -75.5t-31 -74t-75 -30t-74.5 30t-30.5 74zM444 805q0 44 30.5 75t74.5 31t75 -31t31 -75t-31 -74.5t-75 -30.5t-74.5 30.5t-30.5 74.5z" />
<glyph unicode="&#xf8;" horiz-adv-x="1388" d="M141 524q0 166 75.5 293.5t201 194.5t278.5 67q186 0 326 -92l102 129h123l-151 -190q151 -151 151 -402q0 -132 -43.5 -238t-119.5 -173.5t-175 -103.5t-213 -36q-167 0 -303 76l-127 -160h-123l172 215q-174 154 -174 420zM367 526q0 -170 63 -278l496 618 q-88 111 -230 111q-140 0 -234.5 -119t-94.5 -332zM489 170q86 -86 207 -86q69 0 126 24.5t103.5 75t72.5 138t26 204.5q0 149 -47 252z" />
<glyph unicode="&#xf9;" horiz-adv-x="1353" d="M100 983v78h496v-78l-145 -31v-563q0 -129 69 -212t193 -83q129 0 210 89.5t81 256.5v492l-166 51v78h415v-78l-135 -51v-520q0 -61 -15.5 -121t-50 -118t-84 -102t-125 -71t-165.5 -27q-99 0 -182 35t-136 92t-82.5 126t-29.5 139v587zM471 1495v21h193l176 -336v-17 h-105z" />
<glyph unicode="&#xfa;" horiz-adv-x="1353" d="M100 983v78h496v-78l-145 -31v-563q0 -129 69 -212t193 -83q129 0 210 89.5t81 256.5v492l-166 51v78h415v-78l-135 -51v-520q0 -61 -15.5 -121t-50 -118t-84 -102t-125 -71t-165.5 -27q-99 0 -182 35t-136 92t-82.5 126t-29.5 139v587zM594 1163v17l176 336h193v-21 l-265 -332h-104z" />
<glyph unicode="&#xfb;" horiz-adv-x="1353" d="M100 983v78h496v-78l-145 -31v-563q0 -129 69 -212t193 -83q129 0 210 89.5t81 256.5v492l-166 51v78h415v-78l-135 -51v-520q0 -61 -15.5 -121t-50 -118t-84 -102t-125 -71t-165.5 -27q-99 0 -182 35t-136 92t-82.5 126t-29.5 139v587zM420 1163v17l248 336h98l248 -336 v-17h-94l-203 203l-203 -203h-94z" />
<glyph unicode="&#xfc;" horiz-adv-x="1353" d="M100 983v78h496v-78l-145 -31v-563q0 -129 69 -212t193 -83q129 0 210 89.5t81 256.5v492l-166 51v78h415v-78l-135 -51v-520q0 -61 -15.5 -121t-50 -118t-84 -102t-125 -71t-165.5 -27q-99 0 -182 35t-136 92t-82.5 126t-29.5 139v587zM434 1329q0 43 33 76t76 33 q44 0 75 -33t31 -76q0 -42 -31 -73t-75 -31q-43 0 -76 31.5t-33 72.5zM784 1329q0 43 33 76t76 33q40 0 73 -33.5t33 -75.5q0 -41 -33 -72.5t-73 -31.5q-43 0 -76 31.5t-33 72.5z" />
<glyph unicode="&#xfd;" horiz-adv-x="1234" d="M80 983v78h475v-78l-125 -31l221 -387h29l221 367l-162 51v78h416v-78l-133 -51l-303 -504v-319l147 -31v-78h-497v78l147 31v319l-309 524zM524 1163v17l176 336h193v-21l-264 -332h-105z" />
<glyph unicode="&#xfe;" horiz-adv-x="1148" d="M141 0v78l148 31v843l-148 31v78h496v-78l-145 -31v-84h174q66 0 129.5 -17t119 -52t89.5 -96t34 -140q0 -147 -110 -233t-303 -86h-133v-135l145 -31v-78h-496zM492 340h149q77 0 132.5 59.5t55.5 153.5q0 101 -53.5 154t-138.5 53h-145v-420z" />
<glyph unicode="&#xff;" horiz-adv-x="1234" d="M80 983v78h475v-78l-125 -31l221 -387h29l221 367l-162 51v78h416v-78l-133 -51l-303 -504v-319l147 -31v-78h-497v78l147 31v319l-309 524zM365 1329q0 43 32.5 76t75.5 33q44 0 75.5 -33t31.5 -76q0 -42 -31.5 -73t-75.5 -31q-43 0 -75.5 31.5t-32.5 72.5zM715 1329 q0 43 32.5 76t75.5 33q40 0 73.5 -33.5t33.5 -75.5q0 -41 -33.5 -72.5t-73.5 -31.5q-43 0 -75.5 31.5t-32.5 72.5z" />
<glyph unicode="&#x152;" horiz-adv-x="1970" d="M154 719q0 174 59 314t160.5 229t234 136.5t283.5 47.5h842l32 -322h-90l-145 224h-428v-531h280l66 193h82v-512h-82l-66 207h-280v-607h491l187 285h90l-74 -383h-911q-167 0 -300 43t-230 130t-149 225t-52 321zM393 721q0 -159 40 -280.5t109 -194t155.5 -109 t187.5 -37.5v1248q-80 -1 -151 -23.5t-134 -71t-108.5 -120t-72 -177t-26.5 -235.5z" />
<glyph unicode="&#x153;" horiz-adv-x="1591" d="M141 524q0 160 76 283.5t202.5 188.5t280.5 65h684l27 -254h-86l-106 154h-318v-367h197l55 117h66v-342h-66l-55 129h-197v-398h373l119 183h88l-43 -283h-738q-156 0 -281 58.5t-201.5 179t-76.5 286.5zM367 526q0 -198 95.5 -312t235.5 -114v861q-140 0 -235.5 -116 t-95.5 -319z" />
<glyph unicode="&#x178;" horiz-adv-x="1470" d="M86 1364v82h541v-82l-166 -31l303 -522h33l311 522l-182 31v82h458v-82l-153 -31l-387 -661v-559l180 -31v-82h-578v82l181 31v553l-391 667zM500 1714q0 43 32.5 76t75.5 33q44 0 75.5 -33t31.5 -76q0 -42 -31.5 -73t-75.5 -31q-43 0 -75.5 31.5t-32.5 72.5zM850 1714 q0 43 32.5 76t75.5 33q40 0 73.5 -33.5t33.5 -75.5q0 -41 -33.5 -72.5t-73.5 -31.5q-43 0 -75.5 31.5t-32.5 72.5z" />
<glyph unicode="&#x2c6;" horiz-adv-x="1024" d="M215 999v17l248 336h98l248 -336v-17h-94l-203 203l-203 -203h-94z" />
<glyph unicode="&#x2dc;" horiz-adv-x="1024" d="M199 1069q23 83 84 167.5t98 84.5q39 0 132.5 -62.5t131.5 -62.5q34 0 73 42.5t56 88.5l53 -20q-28 -101 -87.5 -178.5t-112.5 -77.5q-31 0 -130 61.5t-130 61.5q-32 0 -56.5 -33t-52.5 -97z" />
<glyph unicode="&#x2000;" horiz-adv-x="956" />
<glyph unicode="&#x2001;" horiz-adv-x="1913" />
<glyph unicode="&#x2002;" horiz-adv-x="956" />
<glyph unicode="&#x2003;" horiz-adv-x="1913" />
<glyph unicode="&#x2004;" horiz-adv-x="637" />
<glyph unicode="&#x2005;" horiz-adv-x="478" />
<glyph unicode="&#x2006;" horiz-adv-x="318" />
<glyph unicode="&#x2007;" horiz-adv-x="318" />
<glyph unicode="&#x2008;" horiz-adv-x="239" />
<glyph unicode="&#x2009;" horiz-adv-x="382" />
<glyph unicode="&#x200a;" horiz-adv-x="106" />
<glyph unicode="&#x2010;" horiz-adv-x="827" d="M158 420v149h512v-149h-512z" />
<glyph unicode="&#x2011;" horiz-adv-x="827" d="M158 420v149h512v-149h-512z" />
<glyph unicode="&#x2012;" horiz-adv-x="827" d="M158 420v149h512v-149h-512z" />
<glyph unicode="&#x2013;" horiz-adv-x="1175" d="M178 420v149h819v-149h-819z" />
<glyph unicode="&#x2014;" horiz-adv-x="2273" d="M301 430v129h1671v-129h-1671z" />
<glyph unicode="&#x2018;" horiz-adv-x="821" d="M240 1071q0 75 23.5 143t62.5 118t77.5 84.5t79.5 58.5l58 -86q-164 -122 -164 -246q0 -32 12.5 -57.5t32 -40.5t41.5 -31t41.5 -30t32 -37t12.5 -52q0 -47 -29 -77t-80 -30q-85 0 -142.5 78.5t-57.5 204.5z" />
<glyph unicode="&#x2019;" horiz-adv-x="821" d="M285 1356q0 49 29 77.5t79 28.5q85 0 143 -78t58 -204q0 -75 -24 -143t-63 -118t-77.5 -84.5t-79.5 -58.5l-57 86q164 122 164 246q0 32 -12.5 57.5t-32 40.5t-41.5 31t-41.5 30t-32 37t-12.5 52z" />
<glyph unicode="&#x201a;" horiz-adv-x="821" d="M285 137q0 49 29 78t79 29q85 0 143 -78.5t58 -204.5q0 -75 -24 -143t-63 -117.5t-77.5 -84t-79.5 -58.5l-57 86q164 122 164 245q0 32 -12.5 57.5t-32 40.5t-41.5 31t-41.5 30t-32 37t-12.5 52z" />
<glyph unicode="&#x201c;" horiz-adv-x="1312" d="M240 1071q0 75 23.5 143t62.5 118t77.5 84.5t79.5 58.5l58 -86q-164 -122 -164 -246q0 -32 12.5 -57.5t32 -40.5t41.5 -31t41.5 -30t32 -37t12.5 -52q0 -47 -29 -77t-80 -30q-85 0 -142.5 78.5t-57.5 204.5zM731 1071q0 75 24 143t63 118t77.5 84.5t79.5 58.5l57 -86 q-164 -122 -164 -246q0 -32 12.5 -57.5t32 -40.5t41.5 -31t41.5 -30t32 -37t12.5 -52q0 -47 -28.5 -77t-79.5 -30q-85 0 -143 78.5t-58 204.5z" />
<glyph unicode="&#x201d;" horiz-adv-x="1312" d="M285 1356q0 49 29 77.5t79 28.5q85 0 143 -78t58 -204q0 -75 -24 -143t-63 -118t-77.5 -84.5t-79.5 -58.5l-57 86q164 122 164 246q0 32 -12.5 57.5t-32 40.5t-41.5 31t-41.5 30t-32 37t-12.5 52zM776 1356q0 49 29.5 77.5t79.5 28.5q85 0 142.5 -78t57.5 -204 q0 -75 -23.5 -143t-62.5 -118t-77.5 -84.5t-79.5 -58.5l-58 86q164 122 164 246q0 32 -12.5 57.5t-32 40.5t-41.5 31t-41.5 30t-32 37t-12.5 52z" />
<glyph unicode="&#x201e;" horiz-adv-x="1312" d="M285 137q0 49 29 78t79 29q85 0 143 -78.5t58 -204.5q0 -75 -24 -143t-63 -117.5t-77.5 -84t-79.5 -58.5l-57 86q164 122 164 245q0 32 -12.5 57.5t-32 40.5t-41.5 31t-41.5 30t-32 37t-12.5 52zM776 137q0 49 29.5 78t79.5 29q85 0 142.5 -78.5t57.5 -204.5 q0 -75 -23.5 -143t-62.5 -117.5t-77.5 -84t-79.5 -58.5l-58 86q164 122 164 245q0 32 -12.5 57.5t-32 40.5t-41.5 31t-41.5 30t-32 37t-12.5 52z" />
<glyph unicode="&#x2022;" horiz-adv-x="1355" d="M399 541q0 115 81.5 196.5t197.5 81.5t197 -81.5t81 -196.5q0 -116 -81.5 -197.5t-196.5 -81.5q-116 0 -197.5 82t-81.5 197z" />
<glyph unicode="&#x2026;" horiz-adv-x="2217" d="M342 117q0 56 38 94.5t93 38.5t94 -39t39 -94t-38.5 -93t-94.5 -38q-55 0 -93 38t-38 93zM977 117q0 56 38 94.5t93 38.5q56 0 94.5 -39t38.5 -94t-38.5 -93t-94.5 -38t-93.5 38t-37.5 93zM1612 117q0 56 38 94.5t93 38.5t94 -39t39 -94t-38.5 -93t-94.5 -38 q-55 0 -93 38t-38 93z" />
<glyph unicode="&#x202f;" horiz-adv-x="382" />
<glyph unicode="&#x2039;" horiz-adv-x="952" d="M225 444v48l373 448l68 -41l-222 -412v-30l222 -416l-68 -49z" />
<glyph unicode="&#x203a;" horiz-adv-x="952" d="M287 41l221 416v30l-221 412l67 41l373 -448v-48l-373 -452z" />
<glyph unicode="&#x205f;" horiz-adv-x="478" />
<glyph unicode="&#x20ac;" horiz-adv-x="1417" d="M174 528l21 84h106v27q0 49 2 74h-129l21 84h118q41 234 190 372t347 138q100 0 204 -33t189 -96l-61 -258h-60q2 67 -15.5 120t-46.5 84.5t-67.5 52.5t-73.5 29t-69 8q-124 0 -211.5 -105t-112.5 -312h615l-21 -84h-600q-2 -25 -2 -72v-29h582l-21 -84h-557 q11 -111 44 -199.5t78 -142.5t97 -82t105 -28q234 0 317 256l80 -27q-108 -330 -418 -330q-203 0 -347 146t-171 407h-133z" />
<glyph unicode="&#x2122;" horiz-adv-x="1556" d="M178 1294l27 152h430l29 -152h-41l-66 97h-78v-400l66 -12v-47h-248v47l65 12v400h-75l-66 -97h-43zM666 932v47l67 12l39 395l-78 13v47h193l127 -338h14l146 338h188v-47l-72 -13l25 -395l63 -12v-47h-241v47l69 12l-18 307h-14l-160 -366h-35l-152 366h-10l-31 -307 l68 -12v-47h-188z" />
<glyph unicode="&#xe000;" horiz-adv-x="1064" d="M0 0v1065h1065v-1065h-1065z" />
<glyph unicode="&#xfb01;" horiz-adv-x="1933" d="M141 0v78l148 31v843l-148 31v78h844l29 -254h-88l-109 154h-325v-367h206l56 117h65v-342h-65l-56 129h-206v-389l153 -31v-78h-504zM1276 0v78l147 31v843l-147 31v78h496v-78l-146 -31v-843l146 -31v-78h-496z" />
<glyph unicode="&#xfb02;" horiz-adv-x="2238" d="M141 0v78l148 31v843l-148 31v78h844l29 -254h-88l-109 154h-325v-367h206l56 117h65v-342h-65l-56 129h-206v-389l153 -31v-78h-504zM1255 0v78l148 31v843l-148 31v78h504v-78l-153 -31v-852h317l137 199h88l-43 -299h-850z" />
<glyph unicode="&#xfb03;" horiz-adv-x="1024" d="M92 199l70 194l22 -2l-18 -145l45 -84l76 -68l180 -33l98 7l105 63l6 -8l-14 -43l-82 -88l-140 -47l-198 28l-113 99zM213 893l215 582h23l65 -248l-6 -168l139 -17l131 203l17 203h24l15 -203l-35 -264l73 -174l72 -78l2 -12l-14 -17v-36l16 -9l-2 -18l-35 -74l-73 15 l-23 206l-69 115l-27 -4l53 -123l8 -203l-75 -94l6 -45l53 -76l14 -145l-131 -47l-67 33l-72 116l-154 51l-57 97l-6 86l-62 84l-4 119l9 55zM291 897l18 -18l68 69l22 156h-37zM553 625l74 -29l22 27l-6 28l-22 21l-62 -21zM852 481l29 31l49 8l67 -20l13 -19l-6 -75 l-25 -35l-10 -68l47 -16l-6 -21l-47 15l-89 -54l-10 21l80 47l10 74l-73 28l-27 64z" />
<glyph unicode="&#xfb04;" horiz-adv-x="1024" d="M92 199l70 194l22 -2l-18 -145l45 -84l76 -68l180 -33l98 7l105 63l6 -8l-14 -43l-82 -88l-140 -47l-198 28l-113 99zM213 893l215 582h23l65 -248l-6 -168l139 -17l131 203l17 203h24l15 -203l-35 -264l73 -174l72 -78l2 -12l-14 -17v-36l16 -9l-2 -18l-35 -74l-73 15 l-23 206l-69 115l-27 -4l53 -123l8 -203l-75 -94l6 -45l53 -76l14 -145l-131 -47l-67 33l-72 116l-154 51l-57 97l-6 86l-62 84l-4 119l9 55zM291 897l18 -18l68 69l22 156h-37zM553 625l74 -29l22 27l-6 28l-22 21l-62 -21zM852 481l29 31l49 8l67 -20l13 -19l-6 -75 l-25 -35l-10 -68l47 -16l-6 -21l-47 15l-89 -54l-10 21l80 47l10 74l-73 28l-27 64z" />
</font>
</defs>
</svg>
