<?xml version="1.0" standalone="no"?>
<!DOCTYPE svg PUBLIC "-//W3C//DTD SVG 1.1//EN" "http://www.w3.org/Graphics/SVG/1.1/DTD/svg11.dtd" >
<svg xmlns="http://www.w3.org/2000/svg">
<metadata></metadata>
<defs>
<font id="equity_text_bregular" horiz-adv-x="1105" >
<font-face units-per-em="2048" ascent="1524" descent="-524" />
<missing-glyph horiz-adv-x="450" />
<glyph unicode="&#xfb01;" horiz-adv-x="1083" d="M39 831v60l135 84v86q0 89 34 172.5t91 144.5t136.5 98t166.5 37q120 0 199.5 -57.5t79.5 -140.5q0 -90 -97 -90q-37 0 -62.5 19.5t-41 47.5l-31 56t-41.5 47.5t-63 19.5q-63 0 -111.5 -54.5t-71 -131t-22.5 -156.5v-135h442l78 27h45v-873l123 -31v-61h-420v61l131 31 v739h-399v-733l166 -37v-61h-455v61l123 31v739h-135z" />
<glyph unicode="&#xfb02;" horiz-adv-x="1103" d="M39 831v60l135 84v86q0 119 56 223.5t153 166.5t209 62q117 0 180 -47l113 37h41v-1411l123 -31v-61h-428v61l139 31v1178q-32 4 -60 20.5t-48.5 37t-41.5 40.5t-48 33.5t-58 13.5q-51 0 -90 -55t-56.5 -131t-17.5 -156v-135h252v-107h-252v-733l178 -37v-61h-467v61 l123 31v739h-135z" />
<glyph unicode="&#xfb03;" horiz-adv-x="1654" d="M39 831v60l135 84v86q0 87 33.5 164.5t88 131t125.5 85t144 31.5q94 0 168 -34.5t115 -88.5q60 76 145 119.5t181 43.5q121 0 199.5 -55t78.5 -137q0 -96 -102 -96q-37 0 -62 19.5t-39.5 47.5t-29.5 56t-40.5 47.5t-62.5 19.5q-63 0 -111.5 -54.5t-71 -131t-22.5 -156.5 v-135h443l78 27h45v-873l122 -31v-61h-419v61l131 31v739h-400v-733l166 -37v-61h-454v61l122 31v739h-405v-733l166 -37v-61h-455v61l123 31v739h-135zM340 938h405v123q0 57 17 127q-31 7 -53 29.5t-36 48t-31 50.5t-47 41.5t-73 16.5q-94 0 -138 -81t-44 -212v-143z" />
<glyph unicode="&#xfb04;" horiz-adv-x="1675" d="M39 831v60l135 84v86q0 87 33.5 164.5t88 131t125.5 85t144 31.5q94 0 168 -34t113 -87q61 75 143 118t174 43q117 0 180 -47l105 37h49v-1411l123 -31v-61h-428v61l139 31v1178q-32 4 -60 20.5t-48.5 37t-41.5 40.5t-48 33.5t-58 13.5q-51 0 -90 -55t-56.5 -131 t-17.5 -156v-135h252v-107h-252v-733l179 -37v-61h-467v61l122 31v739h-405v-733l166 -37v-61h-455v61l123 31v739h-135zM340 938h405v123q0 57 17 127q-31 7 -53 29.5t-36 48t-31 50.5t-47 41.5t-73 16.5q-94 0 -138 -81t-44 -212v-143z" />
<glyph horiz-adv-x="2048" />
<glyph horiz-adv-x="2048" />
<glyph unicode="&#xd;" horiz-adv-x="2048" />
<glyph unicode=" "  horiz-adv-x="450" />
<glyph unicode="&#x09;" horiz-adv-x="450" />
<glyph unicode="&#xa0;" horiz-adv-x="450" />
<glyph unicode="!" horiz-adv-x="681" d="M215 111q0 53 36.5 90t88.5 37t89.5 -37t37.5 -90q0 -52 -37 -88.5t-90 -36.5q-52 0 -88.5 36t-36.5 89zM238 1503h225l-78 -1073h-70z" />
<glyph unicode="&#x22;" horiz-adv-x="876" d="M160 893l37 483q5 75 29.5 113t76.5 27l47 -11q48 -11 54 -50t-27 -130l-160 -446zM526 893l37 483q5 74 30 112.5t77 27.5l47 -11q48 -11 53.5 -50t-27.5 -130l-159 -446z" />
<glyph unicode="#" horiz-adv-x="1099" d="M61 305v141h222l79 381h-198v142h227l90 436h113l-90 -436h225l90 436h113l-90 -436h196v-142h-225l-80 -381h203v-141h-231l-101 -483h-112l100 483h-225l-101 -483h-112l100 483h-193zM395 446h226l79 381h-225z" />
<glyph unicode="$" horiz-adv-x="1118" d="M154 401h69q64 -326 307 -342v527q-189 67 -272.5 155t-83.5 215q0 82 41.5 159.5t125 132t189.5 59.5v204h72v-206q102 -11 209 -68l66 31h30l31 -365h-57q-39 143 -112.5 220.5t-166.5 93.5v-478q185 -67 274 -158t89 -231q0 -169 -99.5 -264.5t-263.5 -108.5v-219h-72 v217q-64 5 -130.5 27t-106.5 55l-57 -32h-52zM340 1004q0 -144 190 -234v449q-190 -10 -190 -215zM602 61q94 12 144.5 70t50.5 154q0 90 -42 155t-153 117v-496z" />
<glyph unicode="%" horiz-adv-x="1118" d="M61 12l420 563l326 465l-4 4q-43 -24 -98 -24q-62 0 -101 39l-6 -2q-3 -168 -91 -277.5t-204 -109.5q-98 0 -159.5 73.5t-61.5 186.5q0 152 96 264.5t207 112.5q69 0 121.5 -38.5t75.5 -105.5q12 -31 51.5 -50t85.5 -19q100 0 172 63q48 137 113 137q18 0 33.5 -11.5 t15.5 -35.5q0 -30 -27.5 -65t-62.5 -60l-431 -585l-403 -578zM223 885q0 -64 26.5 -97.5t72.5 -33.5q67 0 123.5 86.5t56.5 244.5q0 62 -26 95.5t-66 33.5q-44 0 -87.5 -48t-71.5 -125t-28 -156zM541 236q0 152 96 264t207 112q94 0 153.5 -64.5t59.5 -176.5 q0 -90 -26.5 -166.5t-68.5 -125.5t-93.5 -76.5t-102.5 -27.5q-100 0 -162.5 73.5t-62.5 187.5zM682 190q0 -62 26.5 -96.5t67.5 -34.5q69 0 127 85t58 247q0 62 -26.5 95.5t-66.5 33.5q-44 0 -87.5 -48t-71 -125.5t-27.5 -156.5z" />
<glyph unicode="&#x26;" horiz-adv-x="1488" d="M106 391q0 153 75 244.5t255 179.5q-71 72 -109 148.5t-38 140.5q0 58 56.5 130t139.5 122.5t152 50.5q65 0 134 -44t111 -101t42 -99q0 -51 -21.5 -96.5t-63.5 -85t-87.5 -70.5t-108.5 -65q198 -177 336 -371q96 150 176 328l-156 31v63h398v-63l-144 -31 q-111 -232 -225 -402q85 -132 156 -278q16 -37 45 -37q23 0 43.5 18.5t62.5 75.5l47 -33q-81 -172 -211 -172q-72 0 -122 72l-134 201q-226 -273 -430 -273q-99 0 -187 59t-140 155t-52 202zM279 492q0 -93 30 -168t75.5 -117.5t93 -65t89.5 -22.5q60 0 137 51.5t162 151.5 q-179 266 -370 440l-9 4q-111 -53 -159.5 -117t-48.5 -157zM432 1151q0 -57 40 -117.5t116 -136.5q172 118 172 244q0 72 -45.5 128t-100.5 56q-58 0 -120 -56t-62 -118z" />
<glyph unicode="'" horiz-adv-x="509" d="M160 893l37 483q5 75 29.5 113t76.5 27l47 -11q48 -11 54 -50t-27 -130l-160 -446z" />
<glyph unicode="(" horiz-adv-x="720" d="M145 539q0 126 24.5 244.5t66 217t104 194.5t131.5 175t156 160l51 -70q-369 -378 -369 -921q0 -294 91.5 -545.5t277.5 -429.5l-49 -60q-484 454 -484 1035z" />
<glyph unicode=")" horiz-adv-x="720" d="M43 -446q201 207 285 448t84 537q0 283 -90.5 524.5t-276.5 409.5l53 57q100 -87 181.5 -186.5t150.5 -222t107 -272t38 -310.5q0 -618 -487 -1035z" />
<glyph unicode="*" horiz-adv-x="974" d="M136 939q-10 50 48 71l6 2q154 48 244 100q-134 59 -244 82q-51 9 -54 55q-2 41 31 69q43 36 91 -2q3 -2 6 -5q108 -97 195 -158q-20 153 -47 248q-19 60 29 86q38 22 78 3q48 -23 35 -83q0 -3 -1 -6q-43 -180 -49 -248q109 70 194 158q47 50 92 20q35 -24 38 -68 q4 -51 -44 -67l-8 -2q-6 -2 -32.5 -8.5t-35.5 -9t-32 -9t-36 -11t-33 -12t-37.5 -15.5t-34.5 -17q124 -62 245 -96q60 -15 58 -65q-1 -41 -39 -68q-47 -34 -92 2l-9 8q-43 44 -62 63t-55.5 50t-72.5 55q13 -147 45 -254q19 -58 -26 -82q-37 -21 -76 -2q-46 25 -33 84 q35 163 41 254q-109 -68 -191 -168q-36 -41 -85 -14q-39 21 -47 60z" />
<glyph unicode="+" d="M139 430v127h350v350h127v-350h351v-127h-351v-350h-127v350h-350z" />
<glyph unicode="," horiz-adv-x="546" d="M131 152q0 40 31.5 73t85.5 33q84 0 139 -78t55 -205q0 -78 -26 -150t-68 -124t-84 -88.5t-86 -61.5l-47 76q73 53 122.5 124.5t49.5 152.5q0 32 -12.5 57.5t-32 40.5t-41.5 31t-41.5 30t-32 37t-12.5 52z" />
<glyph unicode="-" horiz-adv-x="643" d="M66 426v137h512v-137h-512z" />
<glyph unicode="." horiz-adv-x="518" d="M133 111q0 53 36.5 90t88.5 37t89.5 -37t37.5 -90q0 -52 -37 -88.5t-90 -36.5q-52 0 -88.5 36t-36.5 89z" />
<glyph unicode="/" horiz-adv-x="942" d="M96 -250l615 1753h135l-615 -1753h-135z" />
<glyph unicode="0" horiz-adv-x="1075" d="M92 610q0 174 36 309.5t99.5 219t145.5 126t178 42.5q192 0 312 -178.5t120 -518.5q0 -311 -120 -473t-312 -162q-97 0 -178.5 38.5t-145 114t-99.5 199t-36 283.5zM287 612q0 -151 21.5 -262.5t59 -174.5t83 -92.5t100.5 -29.5q106 0 173 135t67 424q0 161 -19 283 t-53 193t-76 106t-92 35q-112 0 -188 -158.5t-76 -458.5z" />
<glyph unicode="1" horiz-adv-x="833" d="M98 1130v66q185 3 342 102l92 -10v-1186l216 -30v-72h-603v72l215 30v1039q-155 -37 -262 -11z" />
<glyph unicode="2" horiz-adv-x="1032" d="M74 66q69 55 147 129t164 172t154 195.5t112.5 203t44.5 190.5q0 86 -51 145.5t-137 59.5q-80 0 -157.5 -56t-160.5 -159l-61 66q32 50 73 96.5t97.5 94t127.5 76t144 28.5q151 0 234.5 -84.5t83.5 -212.5q0 -69 -39 -161.5t-99.5 -183t-136 -183t-144 -164.5 t-128.5 -125l12 -29h459l92 139l68 -27l-115 -276h-760z" />
<glyph unicode="3" horiz-adv-x="927" d="M76 147q0 36 28 63.5t78 27.5q30 0 54.5 -16.5t44 -40.5t41.5 -48t56.5 -40.5t78.5 -16.5q76 0 139 59.5t63 171.5q0 74 -34.5 140t-81 103t-93 54.5t-71.5 5.5l-74 -41l-47 72q160 82 257 182.5t97 202.5q0 71 -41.5 108t-113.5 37q-161 0 -303 -198l-58 61 q198 273 451 273q102 0 173 -63.5t71 -166.5q0 -50 -22 -100t-59.5 -91.5t-74.5 -73t-78 -58.5v-21q110 -32 192 -134.5t82 -221.5q0 -78 -25.5 -145t-68 -113.5t-97.5 -79.5t-113.5 -48.5t-116.5 -15.5q-156 0 -245 48t-89 124z" />
<glyph unicode="4" horiz-adv-x="1032" d="M76 453l633 870l82 -35v-784h163v-125h-163v-379h-162v377h-520zM240 524l10 -20h379v508l-23 12z" />
<glyph unicode="5" horiz-adv-x="933" d="M72 104q0 40 24.5 67.5t71.5 27.5q38 0 71.5 -15t55.5 -33.5t64 -33.5t94 -15q102 0 162.5 66.5t60.5 202.5q0 134 -92.5 224.5t-235.5 90.5q-31 0 -59 -3t-42 -6.5t-30 -8t-18 -4.5l-37 36l57 582h502l53 80h70l-43 -244h-500l-27 -272l21 -21q52 23 127 23 q76 0 148.5 -27t132 -76t95.5 -127t36 -172q0 -210 -144.5 -340.5t-363.5 -130.5q-114 0 -184 35.5t-70 93.5z" />
<glyph unicode="6" horiz-adv-x="993" d="M96 508q0 184 78.5 355.5t231.5 307t356 203.5l20 -61q-188 -94 -311.5 -229t-159.5 -330l33 -17q42 34 107.5 56t138.5 22q56 0 111.5 -22.5t105 -67t80.5 -123t31 -178.5q0 -64 -14 -125t-46 -120.5t-80 -104t-121 -72t-163 -27.5q-175 0 -286.5 140t-111.5 393z M285 399q0 -148 62 -240.5t155 -92.5q107 0 167 99.5t60 266.5q0 142 -59 214.5t-148 72.5q-71 0 -129 -35t-94 -104q-14 -66 -14 -181z" />
<glyph unicode="7" horiz-adv-x="923" d="M57 969l86 313h701l39 -53q-143 -298 -271.5 -621t-183.5 -557q-19 -76 -123 -76q-45 0 -71 20.5t-13 57.5q161 467 512 1037l-14 28h-522l-58 -149h-82z" />
<glyph unicode="8" horiz-adv-x="1032" d="M117 289q0 66 20.5 120.5t59.5 95.5t78.5 69.5t95.5 58.5v18q-98 50 -156.5 132t-58.5 173q0 143 104.5 247t274.5 104q151 0 252.5 -82.5t101.5 -210.5q0 -92 -56 -166.5t-171 -149.5v-16q57 -30 96 -57.5t78 -68t59 -93t20 -117.5q0 -170 -111 -270.5t-296 -100.5 q-172 0 -281.5 85.5t-109.5 228.5zM262 285q0 -98 61 -160t185 -62q115 0 184.5 64.5t69.5 169.5q0 51 -20.5 94t-63 79t-87 63.5t-112.5 60.5q-98 -45 -157.5 -126t-59.5 -183zM307 1022q0 -98 66 -165.5t190 -121.5q87 55 128.5 120.5t41.5 152.5q0 97 -59.5 154 t-153.5 57q-97 0 -155 -58.5t-58 -138.5z" />
<glyph unicode="9" horiz-adv-x="993" d="M76 858q0 85 24.5 159t65.5 126t94.5 90t111.5 56t117 18q181 0 294.5 -144.5t113.5 -388.5q0 -160 -51.5 -307.5t-143.5 -262t-227.5 -191t-296.5 -95.5l10 72q199 47 339.5 182.5t164.5 341.5l-33 16q-104 -84 -225 -84q-146 0 -252 110t-106 302zM266 870 q0 -329 215 -329q69 0 118.5 37t94.5 110q23 102 23 215q0 146 -60.5 233t-175.5 87q-103 0 -159 -90t-56 -263z" />
<glyph unicode=":" horiz-adv-x="518" d="M133 111q0 53 36.5 90t88.5 37t89.5 -37t37.5 -90q0 -52 -37 -88.5t-90 -36.5q-52 0 -88.5 36t-36.5 89zM133 760q0 53 36.5 90t88.5 37t89.5 -37.5t37.5 -89.5t-37 -88.5t-90 -36.5q-52 0 -88.5 36.5t-36.5 88.5z" />
<glyph unicode=";" horiz-adv-x="628" d="M172 152q0 40 31.5 73t85.5 33q84 0 139 -78t55 -205q0 -78 -26 -150t-68 -124t-84 -88.5t-86 -61.5l-47 76q73 53 122.5 124.5t49.5 152.5q0 32 -12.5 57.5t-32 40.5t-41.5 31t-41.5 30t-32 37t-12.5 52zM184 760q0 53 36.5 90t88.5 37q53 0 90 -37.5t37 -89.5 t-37 -88.5t-90 -36.5t-89 36.5t-36 88.5z" />
<glyph unicode="&#x3c;" d="M139 430v127l828 348v-137l-672 -274l672 -275v-137z" />
<glyph unicode="=" d="M139 281v127h828v-127h-828zM139 588v127h828v-127h-828z" />
<glyph unicode="&#x3e;" d="M139 82v137l672 275l-672 274v137l828 -348v-127z" />
<glyph unicode="?" horiz-adv-x="825" d="M170 111q0 53 36.5 90t88.5 37q53 0 90 -37t37 -90q0 -52 -37 -88.5t-90 -36.5t-89 36t-36 89zM190 1415q0 46 31.5 76.5t87.5 30.5q68 0 139.5 -35t132 -96t99.5 -155.5t39 -201.5q0 -99 -34 -175t-90 -118t-122 -60.5t-135 -12.5v-250h-88v422q94 -12 167 3.5 t117.5 53.5t67.5 91t23 118q0 100 -62.5 157.5t-181.5 57.5q-191 0 -191 94z" />
<glyph unicode="@" horiz-adv-x="1671" d="M137 281q0 125 32 256t89 251t140 226.5t180 184.5t213.5 123.5t236.5 45.5q247 0 393 -156.5t146 -412.5q0 -101 -23 -193t-61.5 -163t-89.5 -132t-106.5 -103t-112 -72t-107 -44t-90.5 -14q-39 0 -57.5 25.5t-11 86.5t47.5 154l-26 18q-38 -56 -72 -98.5t-81 -90 t-99 -73.5t-103 -26q-60 0 -92 50t-32 116q0 169 120 374q95 159 222.5 264t242.5 105q61 0 86 -57h11q10 32 23.5 43.5t49.5 11.5q41 0 55.5 -8t8.5 -25l-221 -678q-16 -63 26 -63q29 0 73 24t95 75t95.5 119t74 167t29.5 207q0 57 -10.5 116.5t-40 128.5t-74.5 121.5 t-121.5 87.5t-173.5 35q-120 0 -236 -57.5t-208 -158t-162.5 -227.5t-109 -274.5t-38.5 -291.5q0 -244 89.5 -369t265.5 -125q85 0 178 36t164 91l39 -74q-91 -72 -198 -111.5t-206 -39.5q-229 0 -346 154t-117 440zM604 297q0 -55 12.5 -72.5t36.5 -17.5q72 0 202 165 t220 380q18 143 -59 143q-74 0 -156.5 -70.5t-146.5 -179.5q-109 -202 -109 -348z" />
<glyph unicode="A" horiz-adv-x="1429" d="M31 0v72l149 30l463 1344h117l479 -1344l160 -30v-72h-529v72l179 30l-144 404h-485l-133 -404l190 -30v-72h-446zM455 606h413l-196 555h-33z" />
<glyph unicode="B" horiz-adv-x="1255" d="M55 0v72l185 30v1241l-185 31v72h598q55 0 113.5 -9.5t123.5 -35.5t115.5 -65t83.5 -103.5t33 -145.5q0 -43 -13 -86t-40.5 -86t-78 -77.5t-116.5 -51.5v-28q137 -28 221.5 -127.5t84.5 -245.5q0 -174 -146 -279.5t-387 -105.5h-592zM436 102h240q141 0 218 84.5 t77 216.5q0 84 -36 152t-114 112t-186 44h-199v-609zM436 811h203q71 0 125 22.5t84.5 60t45.5 82t15 93.5q0 74 -22 128.5t-62 85.5t-89 45.5t-109 14.5h-191v-532z" />
<glyph unicode="C" horiz-adv-x="1417" d="M72 721q0 169 59.5 311t161 237t236.5 148t286 53q113 0 241.5 -41t241.5 -104v-289h-55q-40 120 -112 199.5t-150.5 111t-165.5 31.5q-85 0 -161.5 -24.5t-143 -76.5t-115 -128t-76.5 -185t-28 -241q0 -157 44 -283.5t116 -203.5t158.5 -117.5t178.5 -40.5 q171 0 295.5 87.5t178.5 248.5h53v-281q-135 -79 -254.5 -118.5t-294.5 -39.5q-145 0 -270.5 49.5t-220 142t-149 235.5t-54.5 319z" />
<glyph unicode="D" horiz-adv-x="1533" d="M55 0v72l185 30v1241l-185 31v72h611q370 0 583 -194.5t213 -534.5q0 -228 -107.5 -392t-290 -244.5t-419.5 -80.5h-590zM436 102h209q98 0 184.5 21t163.5 68t131.5 117.5t86.5 175.5t32 235q0 153 -43 272.5t-120.5 196t-183 116t-232.5 39.5h-228v-1241z" />
<glyph unicode="E" horiz-adv-x="1263" d="M55 0v72l185 30v1241l-185 31v72h1022l33 -322h-80l-145 234h-449v-547h301l66 188h71v-491h-71l-66 203h-301v-623h512l187 295h79l-73 -383h-1086z" />
<glyph unicode="F" horiz-adv-x="1241" d="M55 0v72l185 30v1241l-185 31v72h1104l33 -322h-80l-149 234h-527v-547h363l65 219h72v-553h-72l-65 234h-363v-609l193 -30v-72h-574z" />
<glyph unicode="G" horiz-adv-x="1513" d="M72 721q0 169 59.5 311t161 237t236.5 148t286 53q111 0 240 -41t239 -104v-289h-51q-40 120 -112 199.5t-150.5 111t-165.5 31.5q-86 0 -162 -22.5t-143 -72.5t-115 -124.5t-76 -186t-28 -249.5q0 -136 27.5 -245.5t74.5 -183t113.5 -123t141.5 -71.5t161 -22 q79 0 157.5 23t133.5 67v440l-244 31v82h602v-82l-162 -31v-516q-260 -117 -551 -117q-140 0 -262 49.5t-213.5 142t-144.5 235.5t-53 319z" />
<glyph unicode="H" horiz-adv-x="1607" d="M55 0v72l185 30v1241l-185 31v72h566v-72l-185 -31v-532h735v532l-184 31v72h565v-72l-184 -31v-1241l184 -30v-72h-565v72l184 30v609h-735v-609l185 -30v-72h-566z" />
<glyph unicode="I" horiz-adv-x="675" d="M55 0v72l185 30v1241l-185 31v72h566v-72l-185 -31v-1241l185 -30v-72h-566z" />
<glyph unicode="J" horiz-adv-x="727" d="M-190 -373q0 50 30.5 77.5t79.5 27.5q42 0 100 -22.5t107 -22.5q149 0 149 219v1437l-221 31v72h617v-72l-199 -31v-1247q0 -123 -45.5 -236.5t-116 -191t-156.5 -124t-167 -46.5q-79 0 -128.5 32.5t-49.5 96.5z" />
<glyph unicode="K" horiz-adv-x="1484" d="M55 0v72l185 30v1241l-185 31v72h563v-72l-182 -31v-565h43l565 565l-147 31v72h455v-72l-170 -31l-570 -565l672 -676l170 -30v-72h-584v72l150 30l-547 566h-37v-566l182 -30v-72h-563z" />
<glyph unicode="L" horiz-adv-x="1230" d="M55 0v72l185 30v1241l-185 31v72h574v-72l-193 -31v-1255h484l206 315h80l-73 -403h-1078z" />
<glyph unicode="M" horiz-adv-x="1900" d="M41 0v72l174 30l98 1225l-202 45v74h389l436 -1131h35l459 1131h391v-74l-207 -49l59 -1221l187 -30v-72h-570v72l187 30l-52 1033h-30l-461 -1135h-78l-438 1139h-25l-82 -1037l176 -30v-72h-446z" />
<glyph unicode="N" horiz-adv-x="1603" d="M55 0v72l166 30v1241l-166 31v72h299l891 -1090h29v987l-184 31v72h458v-72l-182 -31v-1347h-63l-961 1175h-29v-1069l185 -30v-72h-443z" />
<glyph unicode="O" horiz-adv-x="1505" d="M72 721q0 169 54 311t147 237t217 148t264 53q147 0 272 -52t215.5 -147t141.5 -236.5t51 -313.5q0 -181 -54 -325t-147.5 -235t-215.5 -138.5t-263 -47.5t-264 49.5t-216.5 142t-147.5 235.5t-54 319zM291 723q0 -136 24.5 -246t67 -184.5t101.5 -125t126.5 -73 t143.5 -22.5q79 0 143.5 17.5t125 63t101.5 118t65.5 187.5t24.5 265q0 141 -23 252t-63.5 186t-98.5 124t-126 71t-149 22q-76 0 -143.5 -22.5t-126.5 -72.5t-101.5 -124.5t-67 -186t-24.5 -249.5z" />
<glyph unicode="P" horiz-adv-x="1153" d="M55 0v72l185 30v1241l-185 31v72h518q74 0 144.5 -14t137 -45.5t116.5 -78t80 -117t30 -157.5q0 -185 -138 -292t-380 -107h-125v-533l203 -30v-72h-586zM438 729h154q119 0 202 81t83 212q0 317 -304 317h-135v-610z" />
<glyph unicode="Q" horiz-adv-x="1505" d="M72 721q0 169 54 311t147 237t217 148t264 53q147 0 272 -52t215.5 -147t141.5 -236.5t51 -313.5q0 -284 -126 -467.5t-335 -247.5q37 -32 94 -86t96.5 -89.5t89 -72.5t100 -56t101.5 -19q66 0 131.5 20t106.5 45l24 -51q-169 -121 -348 -121q-81 0 -159 26.5 t-148.5 76.5t-122 95t-118 109t-99.5 92q-135 6 -252.5 58.5t-206 144.5t-139.5 232t-51 311zM291 723q0 -136 24.5 -246t67 -184.5t101.5 -125t126.5 -73t143.5 -22.5q79 0 143.5 17.5t125 63t101.5 118t65.5 187.5t24.5 265q0 141 -23 252t-63.5 186t-98.5 124t-126 71 t-149 22q-76 0 -143.5 -22.5t-126.5 -72.5t-101.5 -124.5t-67 -186t-24.5 -249.5z" />
<glyph unicode="R" horiz-adv-x="1320" d="M55 0v72l185 30v1241l-185 31v72h639q48 0 98 -9.5t107 -35.5t101 -66.5t73 -110t29 -157.5q0 -52 -21 -105t-63.5 -104.5t-118 -92t-174.5 -58.5v-23q44 -22 88.5 -76.5t83 -122.5t77 -138t86.5 -138t95 -107l133 -30v-72h-293q-51 39 -104 115.5t-97.5 159.5 t-91.5 164.5t-103 146.5t-114 90h-49v-574l205 -30v-72h-586zM436 768h152q78 0 138.5 27t94.5 71.5t51 94t17 100.5q0 151 -63.5 216.5t-168.5 65.5h-221v-575z" />
<glyph unicode="S" horiz-adv-x="1118" d="M88 14v435h80q42 -186 147.5 -283.5t255.5 -97.5q123 0 201 68t78 179q0 51 -12.5 93t-45.5 86.5t-95.5 86t-155.5 81.5q-225 96 -318.5 189t-93.5 243q0 66 30 132t84 121t138 89t182 34q137 0 291 -63l86 39h41l41 -420h-66q-54 169 -157.5 259.5t-225.5 90.5 q-115 0 -189.5 -58t-74.5 -163q0 -100 85.5 -181.5t254.5 -154.5q96 -41 160.5 -78.5t117.5 -88t78 -115.5t25 -148q0 -196 -129 -305t-330 -109q-75 0 -159 22.5t-142 57.5l-100 -41h-82z" />
<glyph unicode="T" horiz-adv-x="1458" d="M25 1053l94 393h1220l95 -393h-80l-207 305h-320v-1256l193 -30v-72h-582v72l193 30v1256h-320l-207 -305h-79z" />
<glyph unicode="U" horiz-adv-x="1581" d="M55 1374v72h566v-72l-185 -31v-841q0 -168 108.5 -279.5t301.5 -111.5q85 0 159 29.5t130.5 85.5t89 144t32.5 197v776l-178 31v72h447v-72l-166 -31v-811q0 -72 -20 -147t-64 -149t-107 -131.5t-157.5 -93.5t-206.5 -36q-134 0 -244.5 44.5t-178.5 116.5t-105 159 t-37 176v872z" />
<glyph unicode="V" horiz-adv-x="1409" d="M41 1374v72h528v-72l-170 -31l330 -1028h33l352 1028l-192 31v72h446v-72l-154 -31l-458 -1343h-117l-438 1343z" />
<glyph unicode="W" horiz-adv-x="1957" d="M41 1374v72h528v-72l-170 -31l269 -991h32l238 754l-66 237l-139 31v72h508v-72l-170 -31l268 -991h35l287 991l-191 31v72h447v-72l-148 -31l-397 -1343h-123l-272 967l-277 -967h-122l-377 1343z" />
<glyph unicode="X" horiz-adv-x="1384" d="M41 0v72l182 30l385 584l-389 657l-178 31v72h600v-72l-211 -31l289 -489l323 489l-225 31v72h526v-72l-188 -31l-381 -581l391 -660l178 -30v-72h-600v72l211 30l-290 490l-322 -490l225 -30v-72h-526z" />
<glyph unicode="Y" horiz-adv-x="1368" d="M41 1374v72h528v-72l-174 -31l324 -557h22l330 557l-190 31v72h446v-72l-147 -31l-398 -671v-570l185 -30v-72h-566v72l185 30v566l-393 675z" />
<glyph unicode="Z" horiz-adv-x="1257" d="M35 51l891 1276l-15 31h-587l-207 -316h-80l96 404h1051l22 -39l-907 -1292l12 -27h633l209 315h80l-94 -403h-1080z" />
<glyph unicode="[" horiz-adv-x="686" d="M164 -457v1966q101 -11 243 -11t207 13v-92q-59 -12 -151.5 -15t-145.5 5v-1757q47 5 146.5 1t163.5 -13v-99q-78 12 -220 13t-243 -11z" />
<glyph unicode="\" horiz-adv-x="942" d="M96 1503h135l615 -1753h-135z" />
<glyph unicode="]" horiz-adv-x="686" d="M59 -358q188 19 310 10v1757q-134 -9 -297 10v92q166 -27 450 -2v-1966q-252 25 -463 -2v101z" />
<glyph unicode="^" d="M72 643l454 772h56l452 -772l-119 -68l-352 615h-16l-359 -615z" />
<glyph unicode="_" horiz-adv-x="1236" d="M-6 -393h1249v-78h-1249v78z" />
<glyph unicode="`" horiz-adv-x="1024" d="M276 1331v21h173l176 -336v-17h-84z" />
<glyph unicode="a" horiz-adv-x="882" d="M82 688q0 74 57 123q79 55 173.5 104.5t148.5 49.5q107 0 166 -67.5t59 -178.5v-522q0 -88 53 -88q24 0 46 22.5t34 52.5l41 -16q-33 -97 -92 -141.5t-115 -44.5q-53 0 -88 34t-39 95h-20q-68 -71 -122 -103.5t-114 -32.5q-49 0 -93.5 41.5t-68.5 97.5t-24 103 q0 72 40.5 132.5t121.5 94.5l289 125v86q0 195 -158 195q-35 0 -77 -19.5t-60 -46.5q0 -3 6 -47.5t6 -68.5q0 -38 -26 -59t-64 -21q-33 0 -56.5 28.5t-23.5 71.5zM246 254q0 -58 30 -99.5t74 -41.5q63 0 125 51t62 119v204l-177 -79q-42 -17 -78 -58.5t-36 -95.5z" />
<glyph unicode="b" horiz-adv-x="983" d="M10 1374v43l250 86h49v-641l17 -12q150 115 268 115q57 0 111.5 -26t102 -78t76.5 -142.5t29 -206.5q0 -137 -38.5 -243t-103.5 -168.5t-143 -94t-165 -31.5q-123 0 -212 58t-108 149v1133zM309 203q0 -69 47 -105.5t117 -36.5q130 0 201 109t71 301q0 170 -68 265 t-171 95q-56 0 -108.5 -23.5t-88.5 -55.5v-549z" />
<glyph unicode="c" horiz-adv-x="903" d="M70 463q0 212 126 357t320 145q142 0 225.5 -59.5t84.5 -145.5q0 -43 -23.5 -64.5t-75.5 -21.5q-36 0 -58.5 22t-35 53t-26.5 62.5t-42.5 53.5t-72.5 22q-93 0 -168.5 -109t-75.5 -278q0 -192 78.5 -281.5t208.5 -89.5q80 0 146.5 47t106.5 117l64 -31 q-52 -131 -147.5 -209t-223.5 -78q-122 0 -216.5 67t-144.5 178t-50 243z" />
<glyph unicode="d" horiz-adv-x="1062" d="M70 444q0 118 37.5 217.5t99.5 165t141 102t162 36.5q102 0 217 -33v383l-139 59v43l256 86h49v-1353l119 -58v-55l-191 -62h-49l-51 97h-19q-130 -97 -286 -97q-43 0 -89.5 16.5t-92.5 54t-82.5 90.5t-59 133t-22.5 175zM242 494q0 -92 25 -168.5t64.5 -124t86 -73.5 t92.5 -26q61 0 118.5 28t98.5 65v581q-32 44 -88 73.5t-117 29.5q-35 0 -72 -12.5t-74.5 -41.5t-67 -72t-48 -110t-18.5 -149z" />
<glyph unicode="e" horiz-adv-x="917" d="M70 461q0 140 50.5 255t142.5 182t208 67q82 0 153 -32.5t116 -82.5t70.5 -107t25.5 -110q0 -66 -23 -66h-575q-2 -18 -2 -57q0 -185 84.5 -287t205.5 -102q169 0 273 168l57 -39q-141 -275 -379 -275q-91 0 -168.5 41.5t-129 109.5t-80.5 155t-29 180zM248 649h377 q10 29 10 74q0 72 -46.5 115t-119.5 43q-90 0 -144.5 -63.5t-76.5 -168.5z" />
<glyph unicode="f" horiz-adv-x="622" d="M39 831v60l135 84v86q0 119 56 223.5t153 166.5t209 62q108 0 169.5 -45.5t61.5 -111.5q0 -41 -28 -66.5t-72 -25.5q-32 0 -57 15.5t-41 38t-32 44.5t-38 37.5t-51 15.5q-51 0 -90 -55t-56.5 -131t-17.5 -156v-135h248v-107h-248v-733l160 -37v-61h-449v61l123 31v739 h-135z" />
<glyph unicode="g" horiz-adv-x="942" d="M78 625q0 140 92.5 235.5t249.5 95.5q120 0 209 -61l282 16v-145l-188 12q35 -72 35 -141q0 -158 -93 -248t-259 -90q-57 0 -84 10q-20 -6 -35 -35.5t-15 -52.5q0 -42 23.5 -67t71.5 -25h288q113 0 176.5 -48t63.5 -161q0 -86 -46 -165.5t-123 -138t-184.5 -93.5 t-224.5 -35q-104 0 -168.5 60t-64.5 157q0 65 32.5 133t82.5 113v26q-48 42 -67 82q-10 19 -10 40q0 23 11 48l80 179v34q-135 91 -135 265zM221 -197q0 -90 58 -138t176 -48q122 0 219.5 64.5t97.5 171.5q0 124 -192 124h-248q-111 -37 -111 -174zM250 629 q0 -127 45.5 -194.5t120.5 -67.5q83 0 131.5 70t48.5 198q0 98 -48.5 171t-131.5 73q-75 0 -120.5 -67t-45.5 -183z" />
<glyph unicode="h" horiz-adv-x="1067" d="M41 1374v43l250 86h49v-641l16 -12q150 115 269 115q115 0 191.5 -80t76.5 -234v-559l123 -31v-61h-412v61l123 31v494q0 130 -48 189t-142 59q-57 0 -109.5 -22.5t-87.5 -53.5v-666l123 -31v-61h-412v61l123 31v1223z" />
<glyph unicode="i" horiz-adv-x="522" d="M45 836v43l250 86h49v-873l123 -31v-61h-412v61l123 31v686zM139 1364q0 49 36.5 86t84.5 37q50 0 86.5 -36.5t36.5 -86.5q0 -48 -37 -84.5t-86 -36.5q-47 0 -84 37t-37 84z" />
<glyph unicode="j" horiz-adv-x="501" d="M-8 -455q99 84 142.5 194t43.5 255v784l-139 58v43l258 86h47v-938q0 -186 -82 -328t-237 -213zM139 1364q0 49 36.5 86t84.5 37q50 0 86.5 -36.5t36.5 -86.5q0 -48 -37 -84.5t-86 -36.5q-47 0 -84 37t-37 84z" />
<glyph unicode="k" horiz-adv-x="958" d="M41 1374v43l250 86h49v-968h35l297 299v18l-113 25v61h338v-61l-106 -31l-287 -301l346 -459l86 -25v-61h-393v61l100 29l-258 365h-45v-363l102 -31v-61h-391v61l123 31v1223z" />
<glyph unicode="l" horiz-adv-x="522" d="M45 1374v43l250 86h49v-1411l123 -31v-61h-412v61l123 31v1223z" />
<glyph unicode="m" horiz-adv-x="1615" d="M41 836v43l244 86h49l12 -103l16 -12q78 58 139.5 86.5t123.5 28.5q76 0 137 -36.5t94 -107.5q94 70 167 107t151 37q115 0 191.5 -80t76.5 -234v-559l123 -31v-61h-412v61l123 31v504q0 128 -47.5 183t-141.5 55q-83 0 -202 -76q6 -81 6 -84v-582l123 -31v-61h-412v61 l123 31v504q0 129 -46.5 183.5t-141.5 54.5q-57 0 -109.5 -22.5t-87.5 -53.5v-666l123 -31v-61h-412v61l123 31v686z" />
<glyph unicode="n" horiz-adv-x="1067" d="M41 836v43l244 86h49l12 -103l16 -12q78 58 139.5 86.5t123.5 28.5q115 0 191.5 -80t76.5 -234v-559l123 -31v-61h-412v61l123 31v504q0 129 -47.5 183.5t-142.5 54.5q-57 0 -109.5 -22.5t-87.5 -53.5v-666l123 -31v-61h-412v61l123 31v686z" />
<glyph unicode="o" horiz-adv-x="1009" d="M70 469q0 223 125.5 359.5t310.5 136.5q90 0 169 -34.5t138 -97t93 -157t34 -207.5q0 -120 -34 -215t-93.5 -155.5t-137.5 -92t-169 -31.5q-187 0 -311.5 132t-124.5 362zM262 471q0 -208 69 -309t175 -101q244 0 244 410q0 212 -68.5 310t-175.5 98t-175.5 -99 t-68.5 -309z" />
<glyph unicode="p" horiz-adv-x="1062" d="M41 836v43l244 86h49l12 -103l33 -12q138 115 256 115q43 0 90.5 -17t95.5 -55t86 -91.5t62 -134t24 -175.5q0 -117 -38.5 -216.5t-101.5 -164t-142.5 -100.5t-163.5 -36q-120 0 -207 31v-405l172 -31v-62h-461v62l123 31v1177zM340 152q29 -43 83.5 -70t111.5 -27 q44 0 91 21t92 64t74 121.5t29 180.5q0 92 -27 167.5t-69.5 121t-91 70t-96.5 24.5q-54 0 -107.5 -27t-89.5 -63v-583z" />
<glyph unicode="q" horiz-adv-x="1013" d="M70 444q0 118 37 217.5t98.5 165t139.5 102t161 36.5q89 0 201 -33q16 -6 32 -6q39 0 74 39l72 -23v-1341l119 -31v-62h-447v62l162 31v448h-21q-131 -74 -254 -74q-51 0 -102.5 16.5t-101 54t-87 90.5t-60.5 133t-23 175zM246 494q0 -190 86.5 -292t216.5 -102 q43 0 93 19.5t77 56.5v567q-21 68 -79 105t-126 37q-44 0 -89 -22t-86 -66t-67 -123t-26 -180z" />
<glyph unicode="r" horiz-adv-x="737" d="M41 836v43l246 86h47l14 -146l19 -8q70 80 122.5 117t110.5 37q53 0 88 -34.5t35 -94.5q0 -55 -28 -89t-77 -34q-44 0 -70 29.5t-26 82.5l-22 19q-39 -26 -89 -87t-71 -106v-559l162 -31v-61h-451v61l123 31v686z" />
<glyph unicode="s" horiz-adv-x="792" d="M96 0v307h68q26 -120 85 -189t150 -69q65 0 108.5 46.5t43.5 105.5q0 65 -43 109t-174 102q-125 53 -181.5 121.5t-56.5 171.5q0 46 17 91t49.5 83.5t88 62t124.5 23.5q91 0 196 -41l52 24h45v-293h-60q-33 117 -97 174.5t-130 57.5q-65 0 -110.5 -41t-45.5 -103 q0 -59 48 -97.5t167 -94.5q135 -61 201 -126.5t66 -170.5q0 -131 -90.5 -205t-221.5 -74q-88 0 -211 52l-30 -27h-58z" />
<glyph unicode="t" horiz-adv-x="655" d="M45 831v76l119 74l108 188h64v-231h268v-107h-268v-610q0 -67 29 -101t81 -34q88 0 158 41l27 -53q-37 -37 -103.5 -68t-146.5 -31q-110 0 -160.5 63t-50.5 189v604h-125z" />
<glyph unicode="u" horiz-adv-x="1062" d="M41 848v67l299 37v-639q0 -115 45.5 -161t140.5 -46q58 0 114 22.5t87 53.5v643l-133 23v67l299 37v-835l119 -47v-43l-217 -52h-27l-29 80l-16 13q-148 -93 -285 -93q-115 0 -189.5 79.5t-74.5 234.5v536z" />
<glyph unicode="v" horiz-adv-x="976" d="M20 877v61h420v-61l-143 -31l225 -598h21l235 598l-147 31v61h325v-61l-98 -31l-342 -871h-55l-346 871z" />
<glyph unicode="w" horiz-adv-x="1411" d="M20 877v61h400v-61l-123 -31l197 -549h20l156 426l-33 123l-107 31v61h390v-61l-123 -31l180 -549h20l187 549l-121 31v61h328v-61l-121 -31l-301 -871h-54l-200 582h-21l-202 -582h-54l-323 871z" />
<glyph unicode="x" horiz-adv-x="944" d="M33 0v61l119 31l249 344l-251 410l-117 31v61h430v-61l-131 -31l168 -275l198 275l-123 31v61h336v-61l-118 -31l-250 -346l252 -408l116 -31v-61h-430v61l131 31l-168 273l-194 -273l119 -31v-61h-336z" />
<glyph unicode="y" horiz-adv-x="952" d="M4 -406q0 34 27.5 60.5t66.5 26.5q27 0 68.5 -24t75.5 -24q115 0 194 340l-315 873l-101 31v61h392v-61l-121 -31l211 -592h20l201 592l-150 31v61h359v-61l-127 -31l-344 -1032q-57 -175 -131.5 -250.5t-190.5 -75.5q-65 0 -100 30.5t-35 75.5z" />
<glyph unicode="z" horiz-adv-x="886" d="M43 72l573 757l-14 31l-188 -6q-116 -3 -185 -56t-110 -161l-74 18l96 283h682l23 -59l-590 -770l12 -27l254 8q57 2 101.5 20t77.5 52t56.5 72.5t47.5 95.5l59 -15l-65 -315h-731z" />
<glyph unicode="{" horiz-adv-x="890" d="M84 492v135q137 0 230.5 71.5t93.5 167.5q0 71 -42 191t-42 188q0 146 101.5 206t348.5 60v-86q-297 0 -297 -161q0 -64 23 -137.5t46 -139t23 -110.5q0 -110 -89 -190.5t-220 -106.5v-33q128 -18 218.5 -105t90.5 -215q0 -56 -46 -194.5t-46 -220.5q0 -42 14.5 -75 t48 -60.5t96 -42.5t150.5 -15v-86q-139 0 -231 18.5t-143.5 58.5t-72 92.5t-20.5 129.5t44.5 212.5t44.5 199.5q0 120 -89.5 184t-234.5 64z" />
<glyph unicode="|" d="M477 -471v2007h152v-2007h-152z" />
<glyph unicode="}" horiz-adv-x="890" d="M104 -381q310 0 310 193q0 82 -46 220.5t-46 194.5q0 128 90.5 215t218.5 105v33q-131 26 -220 106.5t-89 190.5q0 45 23 110.5t46 139t23 137.5q0 161 -297 161v86q247 0 348.5 -60t101.5 -206q0 -68 -42 -188t-42 -191q0 -96 93.5 -167.5t230.5 -71.5v-135 q-145 0 -234.5 -64t-89.5 -184q0 -64 44 -199.5t44 -212.5q0 -76 -20.5 -128.5t-72 -92.5t-144 -59t-230.5 -19v86z" />
<glyph unicode="~" d="M72 438q36 108 125.5 217t144.5 109q51 0 135.5 -41t168.5 -82t134 -41t104 51.5t77 112.5l73 -29q-42 -126 -129.5 -223.5t-165.5 -97.5q-47 0 -215 80.5t-215 80.5q-24 0 -45.5 -12.5t-42 -41t-33 -50.5t-34.5 -65z" />
<glyph unicode="&#xa1;" horiz-adv-x="681" d="M215 1051q0 52 37 88.5t90 36.5q52 0 88.5 -36t36.5 -89t-36.5 -90t-88.5 -37t-89.5 37t-37.5 90zM219 -342l78 1073h70l77 -1073h-225z" />
<glyph unicode="&#xa2;" horiz-adv-x="886" d="M98 639q0 167 91 290.5t237 151.5v201h70v-195q129 0 206.5 -53.5t77.5 -128.5q0 -78 -90 -78q-37 0 -59.5 18t-33 44t-20.5 53t-29.5 48.5t-51.5 25.5v-680h16q72 0 135.5 42.5t100.5 102.5l55 -26q-41 -107 -121.5 -176t-185.5 -78v-201h-70v201q-147 17 -237.5 142.5 t-90.5 295.5zM254 672q0 -134 46.5 -215t125.5 -109v660q-72 -28 -122 -118.5t-50 -217.5z" />
<glyph unicode="&#xa3;" horiz-adv-x="1122" d="M123 25q0 58 65 105t160 77q45 95 45 231q0 85 -45 211h-188v80h159q-57 147 -57 238q0 85 30.5 152t81.5 107t112 60.5t128 20.5q80 0 147 -22.5t106 -56t60 -69.5t21 -67q0 -41 -24.5 -64.5t-57.5 -23.5q-35 0 -59.5 24t-40 58t-32.5 67.5t-47.5 57.5t-74.5 24 q-69 0 -117.5 -57.5t-48.5 -171.5q0 -36 7.5 -74.5t16 -65.5t24 -70t22.5 -67h287v-80h-266q10 -52 10 -100q0 -197 -101 -309l15 -23q51 31 96 31q38 0 73.5 -19t62.5 -46t53.5 -54.5t57.5 -46.5t64 -19q32 0 52 20.5t20 57.5q0 22 -19.5 42.5t-39 44t-19.5 53.5 q0 28 20 49.5t52 21.5q49 0 77.5 -38.5t28.5 -110.5q0 -110 -72.5 -169t-170.5 -59q-128 0 -243.5 57t-168.5 122h-8q-43 -78 -94.5 -128.5t-104.5 -50.5q-25 0 -40 13.5t-15 36.5z" />
<glyph unicode="&#xa4;" horiz-adv-x="1277" d="M164 941.5q2 20.5 15.5 38.5t32 33t37.5 16.5t32 -9.5l94 -96q120 86 264 86q145 0 258 -80l88 92q21 22 59.5 -0.5t60 -62.5t1.5 -60l-92 -88q78 -115 78 -254q0 -143 -86 -266l98 -94q13 -13 11.5 -34t-15 -39.5t-31.5 -33.5t-37 -16.5t-33 10.5l-102 102 q-114 -82 -258 -82q-141 0 -254 74l-86 -90q-13 -15 -35.5 -13t-42.5 16.5t-36 34t-18.5 40t11.5 35.5l90 88q-82 114 -82 268q0 141 82 260l-92 90q-14 14 -12 34.5zM330 555q0 -143 86 -236.5t225 -93.5q129 0 216 94.5t87 235.5q0 146 -86.5 239t-218.5 93 q-144 0 -226.5 -94t-82.5 -238z" />
<glyph unicode="&#xa5;" horiz-adv-x="1134" d="M27 1200v82h446v-82l-133 -31l262 -503h25l272 503l-156 31v82h365v-82l-113 -31l-329 -606h272v-78h-283v-106h283v-78h-283v-188l164 -31v-82h-504v82l164 31v188h-282v78h282v106h-282v78h272l-313 606z" />
<glyph unicode="&#xa6;" d="M477 246h152v-717h-152v717zM477 819v717h152v-717h-152z" />
<glyph unicode="&#xa7;" horiz-adv-x="1136" d="M156 633q0 100 34 181t107 163q-102 95 -102 203q0 51 22 101t64 93t113 69.5t159 26.5q90 0 183 -27t163 -77v-289h-68q-79 307 -282 307q-86 0 -138.5 -45.5t-52.5 -111.5q0 -50 34.5 -99.5t89.5 -92t121 -86.5t132.5 -90.5t121.5 -95.5t89.5 -111.5t34.5 -129.5 q0 -165 -156 -321q119 -104 119 -232q0 -76 -33 -135.5t-87 -94.5t-118 -53t-133 -18q-85 0 -186 28t-180 77v288h67q23 -83 57.5 -144t76.5 -96t86 -51t92 -16q82 0 134 42t52 116q0 58 -34 112t-88.5 98t-120 87.5t-131 89t-120 93.5t-88.5 110.5t-34 130.5zM289 700 q0 -51 28.5 -98.5t82 -92t106.5 -80t127.5 -83t118.5 -80.5q50 52 69 90t19 86q0 53 -25 101.5t-77.5 95.5t-102.5 83.5t-132 92.5t-134 96q-80 -86 -80 -211z" />
<glyph unicode="&#xa8;" horiz-adv-x="1024" d="M236 1165q0 41 30.5 72t71.5 31q42 0 71 -30.5t29 -72.5q0 -40 -29 -69t-71 -29q-41 0 -71.5 29t-30.5 69zM586 1165q0 41 30.5 72t71.5 31q38 0 69 -31t31 -72q0 -39 -30.5 -68.5t-69.5 -29.5q-41 0 -71.5 29t-30.5 69z" />
<glyph unicode="&#xa9;" horiz-adv-x="1439" d="M90 606q0 169 85 314t230.5 230t315.5 85q133 0 250.5 -50t200 -135t130.5 -201t48 -243q0 -170 -85 -315.5t-230 -230.5t-314 -85q-172 0 -316 79.5t-229.5 225t-85.5 326.5zM201 602q0 -151 65.5 -273t185 -191.5t271.5 -69.5q230 0 373 151t143 383q0 237 -147 391 t-371 154q-150 0 -269 -71.5t-185 -196t-66 -277.5zM377 608q0 156 102 252t254 96q123 0 254 -71v-158h-51q-56 160 -203 160q-98 0 -157.5 -68.5t-59.5 -208.5q0 -68 19.5 -122t52 -87t71 -50t78.5 -17q83 0 133.5 39t77.5 119h47v-152q-63 -39 -122 -59.5t-140 -20.5 q-152 0 -254 93t-102 255z" />
<glyph unicode="&#xaa;" horiz-adv-x="751" d="M78 713q0 129 174 200l176 80v58q0 81 -23 117t-71 36q-28 0 -62.5 -14.5t-50.5 -36.5q12 -36 12 -82q0 -31 -22.5 -47t-60.5 -16q-29 0 -50.5 22t-21.5 57q0 32 9.5 55t39.5 44q168 121 244 121q97 0 148.5 -53t51.5 -142v-399q0 -27 10.5 -47.5t28.5 -20.5q17 0 33 17 t25 38l43 -18q-26 -80 -77.5 -119t-105.5 -39q-41 0 -69 27t-37 78h-14q-55 -56 -100.5 -82.5t-96.5 -26.5q-38 0 -70 34t-47.5 77.5t-15.5 81.5zM233 743q0 -94 68 -94q45 0 87 34.5t42 82.5v158l-102 -52q-35 -21 -65 -55t-30 -74z" />
<glyph unicode="&#xab;" horiz-adv-x="1335" d="M211 444v48l373 448l57 -41l-231 -412v-30l231 -416l-57 -49zM635 444v48l373 448l57 -41l-231 -412v-30l231 -416l-57 -49z" />
<glyph unicode="&#xac;" d="M78 510v131h936v-535h-142v404h-794z" />
<glyph unicode="&#xad;" horiz-adv-x="643" d="M66 426v137h512v-137h-512z" />
<glyph unicode="&#xae;" horiz-adv-x="1040" d="M82 1030q0 180 129 309t309 129q187 0 312.5 -128t125.5 -310q0 -180 -129 -309t-309 -129q-183 0 -310.5 124.5t-127.5 313.5zM162 1028q0 -160 101 -264.5t259 -104.5q149 0 253 106t104 263q0 162 -103.5 266.5t-255.5 104.5q-164 0 -261 -104.5t-97 -266.5zM293 801 v41l55 14v375l-55 14v41h237q24 0 51 -5.5t56.5 -18.5t48.5 -39.5t19 -63.5q0 -41 -31.5 -75t-85.5 -44v-16q28 -12 77.5 -80.5t75.5 -87.5l31 -14v-41h-113q-26 19 -57 66t-62 89t-63 54h-26v-154l75 -14v-41h-233zM451 1063h53q48 0 71 28t23 64q0 40 -24.5 58t-57.5 18 h-65v-168z" />
<glyph unicode="&#xaf;" horiz-adv-x="1024" d="M262 999v134h500v-134h-500z" />
<glyph unicode="&#xb0;" horiz-adv-x="751" d="M82 1012q0 121 86.5 208t206.5 87q121 0 208 -86.5t87 -208.5q0 -120 -87 -206.5t-208 -86.5q-120 0 -206.5 86.5t-86.5 206.5zM205 1012q0 -79 46.5 -134t121.5 -55q76 0 124 55t48 134q0 80 -48 136t-124 56q-75 0 -121.5 -56t-46.5 -136z" />
<glyph unicode="&#xb1;" d="M139 0v127h828v-127h-828zM139 553v127h350v307h127v-307h351v-127h-351v-307h-127v307h-350z" />
<glyph unicode="&#xb2;" horiz-adv-x="712" d="M66 723q70 59 148.5 143t148 192t69.5 179q0 58 -23 85.5t-73 27.5q-81 0 -180 -125l-47 39q52 81 132 143.5t171 62.5q74 0 127 -42.5t53 -122.5q0 -173 -309 -465l8 -17h229l60 74l51 -16l-66 -197h-485z" />
<glyph unicode="&#xb3;" horiz-adv-x="608" d="M68 797q0 28 16 46.5t45 18.5q22 0 43.5 -17.5t36.5 -38.5t40 -38.5t54 -17.5q45 0 77 34.5t32 102.5q0 38 -13 71.5t-33 54t-44 35t-45.5 16t-36.5 -4.5l-35 -15l-23 46q205 87 205 204q0 32 -20.5 55t-55.5 23q-40 0 -92.5 -29.5t-99.5 -76.5l-39 37q38 61 123.5 115.5 t169.5 54.5q61 0 106 -35.5t45 -98.5q0 -115 -149 -196v-13q80 -25 128 -83t48 -134q0 -50 -17 -91.5t-43.5 -68t-61 -45t-67.5 -26.5t-65 -8q-109 0 -169 37t-60 86z" />
<glyph unicode="&#xb4;" horiz-adv-x="1024" d="M399 999v17l176 336h173v-21l-265 -332h-84z" />
<glyph unicode="&#xb6;" horiz-adv-x="1136" d="M45 973q0 131 59.5 238t173 171t261.5 64h569v-111q-67 0 -105 -50.5t-38 -123.5v-1483h-125v1657h-142v-1657h-125v820q-142 0 -247 38t-164.5 105t-88 150t-28.5 182zM315 967q0 -159 69 -259t189 -100v727q-114 0 -186 -102.5t-72 -265.5z" />
<glyph unicode="&#xb7;" horiz-adv-x="518" d="M133 535q0 53 36.5 90t88.5 37t89.5 -37t37.5 -90q0 -52 -37 -88.5t-90 -36.5q-52 0 -88.5 36t-36.5 89z" />
<glyph unicode="&#xb8;" horiz-adv-x="1024" d="M358 -184l119 225h92l-77 -143q94 0 154.5 -37t60.5 -111q0 -77 -86 -135t-207 -74l-17 51q79 12 128.5 46.5t49.5 80.5q0 42 -40 64t-105 22q-33 0 -61 -4z" />
<glyph unicode="&#xb9;" horiz-adv-x="583" d="M55 1343v66q75 2 155 17.5t132 43.5l37 -30v-662l129 -30v-64h-426v64l149 30v555q-40 -9 -94 -5.5t-82 15.5z" />
<glyph unicode="&#xba;" horiz-adv-x="790" d="M68 911q0 178 93 287t234 109q148 0 238 -106t90 -290q0 -190 -88.5 -290.5t-239.5 -100.5q-143 0 -235 104t-92 287zM236 915q0 -162 47 -237.5t112 -75.5q35 0 62 12.5t51 45t36.5 97t12.5 158.5q0 166 -45 238t-117 72q-65 0 -112 -74t-47 -236z" />
<glyph unicode="&#xbb;" horiz-adv-x="1335" d="M270 41l232 416v30l-232 412l58 41l372 -448v-48l-372 -452zM694 41l232 416v30l-232 412l58 41l372 -448v-48l-372 -452z" />
<glyph unicode="&#xbc;" horiz-adv-x="1370" d="M49 1237v66q165 3 277 61l36 -31v-686l130 -31v-63h-416v63l149 31v580q-40 -9 -94 -5.5t-82 15.5zM78 -266l1190 1601l61 -47l-1184 -1607zM629 -94l469 594l53 -19v-528h106v-84h-106v-197h-135v197h-369zM784 -29l13 -18h219v301l-10 6z" />
<glyph unicode="&#xbd;" horiz-adv-x="1370" d="M49 1237v66q165 3 277 61l36 -31v-686l130 -31v-63h-416v63l149 31v580q-40 -9 -94 -5.5t-82 15.5zM78 -266l1190 1601l61 -47l-1184 -1607zM731 -289q51 43 115 109t128 145t107 161t43 138q0 53 -26.5 83t-75.5 30q-89 0 -203 -127l-45 35q151 207 324 207 q83 0 129.5 -46t46.5 -120q0 -93 -116.5 -256t-223.5 -258l8 -17h275l59 80l47 -16l-66 -187h-512z" />
<glyph unicode="&#xbe;" horiz-adv-x="1370" d="M70 666q0 21 16.5 39t44.5 18q29 0 50.5 -17.5t34 -39t35 -39t52.5 -17.5t58.5 12t51.5 45.5t23 84.5q0 62 -39.5 109t-86 63.5t-74.5 3.5l-35 -15l-25 39q96 49 164 110t68 118q0 39 -23 59.5t-61 20.5q-49 0 -107.5 -34t-87.5 -75l-35 41q41 63 123 116.5t168 53.5 q62 0 108 -38.5t46 -111.5q0 -92 -146 -184v-12q74 -22 121 -90t47 -154q0 -59 -26.5 -105t-69.5 -72t-91 -39t-98 -13q-101 0 -153.5 32.5t-52.5 90.5zM78 -266l1190 1601l61 -47l-1184 -1607zM629 -94l469 594l53 -19v-528h106v-84h-106v-197h-135v197h-369zM784 -29 l13 -18h219v301l-10 6z" />
<glyph unicode="&#xbf;" horiz-adv-x="825" d="M170 127q0 80 22.5 145.5t60 108t87.5 70.5t103 38t108 5v249h88v-421q-94 12 -167 -3.5t-117.5 -54t-67.5 -91.5t-23 -118q0 -100 62.5 -157.5t181.5 -57.5q190 0 190 -94q0 -46 -31 -76t-87 -30q-68 0 -139.5 35t-132 95.5t-99.5 155t-39 201.5zM467 1051q0 52 37 88.5 t90 36.5q52 0 88.5 -36t36.5 -89t-36.5 -90t-88.5 -37t-89.5 37t-37.5 90z" />
<glyph unicode="&#xc0;" horiz-adv-x="1429" d="M31 0v72l149 30l463 1344h117l479 -1344l160 -30v-72h-529v72l179 30l-144 404h-485l-133 -404l190 -30v-72h-446zM455 606h413l-196 555h-33zM473 1880v21h172l176 -336v-17h-84z" />
<glyph unicode="&#xc1;" horiz-adv-x="1429" d="M31 0v72l149 30l463 1344h117l479 -1344l160 -30v-72h-529v72l179 30l-144 404h-485l-133 -404l190 -30v-72h-446zM455 606h413l-196 555h-33zM596 1548v17l176 336h172v-21l-264 -332h-84z" />
<glyph unicode="&#xc2;" horiz-adv-x="1429" d="M31 0v72l149 30l463 1344h117l479 -1344l160 -30v-72h-529v72l179 30l-144 404h-485l-133 -404l190 -30v-72h-446zM422 1548v17l237 336h99l237 -336v-17h-73l-213 213l-213 -213h-74zM455 606h413l-196 555h-33z" />
<glyph unicode="&#xc3;" horiz-adv-x="1429" d="M31 0v72l149 30l463 1344h117l479 -1344l160 -30v-72h-529v72l179 30l-144 404h-485l-133 -404l190 -30v-72h-446zM395 1622q23 82 84.5 162t98.5 80q39 0 132.5 -62.5t131.5 -62.5q34 0 73 42.5t56 88.5l53 -21q-28 -99 -87.5 -172t-113.5 -73q-31 0 -130 61t-130 61 q-32 0 -56 -32.5t-52 -96.5zM455 606h413l-196 555h-33z" />
<glyph unicode="&#xc4;" horiz-adv-x="1429" d="M31 0v72l149 30l463 1344h117l479 -1344l160 -30v-72h-529v72l179 30l-144 404h-485l-133 -404l190 -30v-72h-446zM432 1714q0 41 31 72t72 31q42 0 71 -30.5t29 -72.5q0 -40 -29 -69t-71 -29q-41 0 -72 29t-31 69zM455 606h413l-196 555h-33zM782 1714q0 41 31 72t72 31 q37 0 68.5 -31.5t31.5 -71.5q0 -39 -30.5 -68.5t-69.5 -29.5q-41 0 -72 29t-31 69z" />
<glyph unicode="&#xc5;" horiz-adv-x="1429" d="M31 0v72l149 30l463 1344h117l479 -1344l160 -30v-72h-529v72l179 30l-144 404h-485l-133 -404l190 -30v-72h-446zM455 606h413l-196 555h-33zM516 1720q0 80 57 136.5t136 56.5t135.5 -56.5t56.5 -136.5t-56.5 -136t-135.5 -56q-80 0 -136.5 56.5t-56.5 135.5zM600 1720 q0 -50 29 -82t78 -32t78.5 32t29.5 82q0 51 -30 85t-78 34t-77.5 -34t-29.5 -85z" />
<glyph unicode="&#xc6;" horiz-adv-x="1957" d="M31 0v82l147 31l756 1228v2l-184 31v72h1022l32 -322h-80l-145 234h-449v-547h302l65 188h72v-491h-72l-65 203h-302v-623h512l187 295h80l-74 -383h-1085v72l184 30v404h-404l-235 -393l182 -31v-82h-446zM592 606h342v568z" />
<glyph unicode="&#xc7;" horiz-adv-x="1417" d="M72 721q0 169 59.5 311t161 237t236.5 148t286 53q113 0 241.5 -41t241.5 -104v-289h-55q-40 120 -112 199.5t-150.5 111t-165.5 31.5q-85 0 -161.5 -24.5t-143 -76.5t-115 -128t-76.5 -185t-28 -241q0 -157 44 -283.5t116 -203.5t158.5 -117.5t178.5 -40.5 q171 0 295.5 87.5t178.5 248.5h53v-281q-129 -77 -245.5 -116t-283.5 -42l-41 -77q94 0 155 -37t61 -111q0 -77 -86 -135t-207 -74l-17 51q79 12 128.5 46.5t49.5 80.5q0 42 -40 64t-105 22q-33 0 -61 -4l-11 15l86 164q-133 11 -246.5 65t-198.5 146t-133 228t-48 302z" />
<glyph unicode="&#xc8;" horiz-adv-x="1263" d="M55 0v72l185 30v1241l-185 31v72h1022l33 -322h-80l-145 234h-449v-547h301l66 188h71v-491h-71l-66 203h-301v-623h512l187 295h79l-73 -383h-1086zM395 1880v21h172l176 -336v-17h-84z" />
<glyph unicode="&#xc9;" horiz-adv-x="1263" d="M55 0v72l185 30v1241l-185 31v72h1022l33 -322h-80l-145 234h-449v-547h301l66 188h71v-491h-71l-66 203h-301v-623h512l187 295h79l-73 -383h-1086zM518 1548v17l176 336h172v-21l-264 -332h-84z" />
<glyph unicode="&#xca;" horiz-adv-x="1263" d="M55 0v72l185 30v1241l-185 31v72h1022l33 -322h-80l-145 234h-449v-547h301l66 188h71v-491h-71l-66 203h-301v-623h512l187 295h79l-73 -383h-1086zM344 1548v17l238 336h98l238 -336v-17h-74l-213 213l-213 -213h-74z" />
<glyph unicode="&#xcb;" horiz-adv-x="1263" d="M55 0v72l185 30v1241l-185 31v72h1022l33 -322h-80l-145 234h-449v-547h301l66 188h71v-491h-71l-66 203h-301v-623h512l187 295h79l-73 -383h-1086zM354 1714q0 41 31 72t72 31q42 0 71 -30.5t29 -72.5q0 -40 -29 -69t-71 -29q-41 0 -72 29t-31 69zM705 1714 q0 41 30.5 72t71.5 31q37 0 68.5 -31.5t31.5 -71.5q0 -39 -30.5 -68.5t-69.5 -29.5q-41 0 -71.5 29t-30.5 69z" />
<glyph unicode="&#xcc;" horiz-adv-x="675" d="M55 0v72l185 30v1241l-185 31v72h566v-72l-185 -31v-1241l185 -30v-72h-566zM102 1880v21h172l177 -336v-17h-84z" />
<glyph unicode="&#xcd;" horiz-adv-x="675" d="M55 0v72l185 30v1241l-185 31v72h566v-72l-185 -31v-1241l185 -30v-72h-566zM225 1548v17l176 336h172v-21l-264 -332h-84z" />
<glyph unicode="&#xce;" horiz-adv-x="675" d="M51 1548v17l238 336h98l238 -336v-17h-74l-213 213l-213 -213h-74zM55 0v72l185 30v1241l-185 31v72h566v-72l-185 -31v-1241l185 -30v-72h-566z" />
<glyph unicode="&#xcf;" horiz-adv-x="675" d="M55 0v72l185 30v1241l-185 31v72h566v-72l-185 -31v-1241l185 -30v-72h-566zM61 1714q0 41 31 72t72 31q42 0 71 -30.5t29 -72.5q0 -40 -29 -69t-71 -29q-41 0 -72 29t-31 69zM412 1714q0 41 30.5 72t71.5 31q38 0 69 -31.5t31 -71.5q0 -39 -30.5 -68.5t-69.5 -29.5 q-41 0 -71.5 29t-30.5 69z" />
<glyph unicode="&#xd0;" horiz-adv-x="1533" d="M4 664v112h236v567l-185 31v72h611q370 0 583 -194.5t213 -534.5q0 -228 -107.5 -392t-290 -244.5t-419.5 -80.5h-590v72l185 30v562h-236zM436 102h209q98 0 184.5 21t163.5 68t131.5 117.5t86.5 175.5t32 235q0 153 -43 272.5t-120.5 196t-183 116t-232.5 39.5h-228 v-567h348v-112h-348v-562z" />
<glyph unicode="&#xd1;" horiz-adv-x="1603" d="M55 0v72l166 30v1241l-166 31v72h299l891 -1090h29v987l-184 31v72h458v-72l-182 -31v-1347h-63l-961 1175h-29v-1069l185 -30v-72h-443zM487 1622q23 82 84.5 162t98.5 80q39 0 132.5 -62.5t131.5 -62.5q34 0 73 42.5t56 88.5l53 -21q-28 -99 -87.5 -172t-113.5 -73 q-30 0 -129.5 61t-130.5 61q-32 0 -56 -32.5t-52 -96.5z" />
<glyph unicode="&#xd2;" horiz-adv-x="1505" d="M72 721q0 169 54 311t147 237t217 148t264 53q147 0 272 -52t215.5 -147t141.5 -236.5t51 -313.5q0 -181 -54 -325t-147.5 -235t-215.5 -138.5t-263 -47.5t-264 49.5t-216.5 142t-147.5 235.5t-54 319zM291 723q0 -136 24.5 -246t67 -184.5t101.5 -125t126.5 -73 t143.5 -22.5q79 0 143.5 17.5t125 63t101.5 118t65.5 187.5t24.5 265q0 141 -23 252t-63.5 186t-98.5 124t-126 71t-149 22q-76 0 -143.5 -22.5t-126.5 -72.5t-101.5 -124.5t-67 -186t-24.5 -249.5zM516 1880v21h172l176 -336v-17h-84z" />
<glyph unicode="&#xd3;" horiz-adv-x="1505" d="M72 721q0 169 54 311t147 237t217 148t264 53q147 0 272 -52t215.5 -147t141.5 -236.5t51 -313.5q0 -181 -54 -325t-147.5 -235t-215.5 -138.5t-263 -47.5t-264 49.5t-216.5 142t-147.5 235.5t-54 319zM291 723q0 -136 24.5 -246t67 -184.5t101.5 -125t126.5 -73 t143.5 -22.5q79 0 143.5 17.5t125 63t101.5 118t65.5 187.5t24.5 265q0 141 -23 252t-63.5 186t-98.5 124t-126 71t-149 22q-76 0 -143.5 -22.5t-126.5 -72.5t-101.5 -124.5t-67 -186t-24.5 -249.5zM639 1548v17l176 336h172v-21l-264 -332h-84z" />
<glyph unicode="&#xd4;" horiz-adv-x="1505" d="M72 721q0 169 54 311t147 237t217 148t264 53q147 0 272 -52t215.5 -147t141.5 -236.5t51 -313.5q0 -181 -54 -325t-147.5 -235t-215.5 -138.5t-263 -47.5t-264 49.5t-216.5 142t-147.5 235.5t-54 319zM291 723q0 -136 24.5 -246t67 -184.5t101.5 -125t126.5 -73 t143.5 -22.5q79 0 143.5 17.5t125 63t101.5 118t65.5 187.5t24.5 265q0 141 -23 252t-63.5 186t-98.5 124t-126 71t-149 22q-76 0 -143.5 -22.5t-126.5 -72.5t-101.5 -124.5t-67 -186t-24.5 -249.5zM465 1548v17l237 336h99l237 -336v-17h-73l-213 213l-213 -213h-74z" />
<glyph unicode="&#xd5;" horiz-adv-x="1505" d="M72 721q0 169 54 311t147 237t217 148t264 53q147 0 272 -52t215.5 -147t141.5 -236.5t51 -313.5q0 -181 -54 -325t-147.5 -235t-215.5 -138.5t-263 -47.5t-264 49.5t-216.5 142t-147.5 235.5t-54 319zM291 723q0 -136 24.5 -246t67 -184.5t101.5 -125t126.5 -73 t143.5 -22.5q79 0 143.5 17.5t125 63t101.5 118t65.5 187.5t24.5 265q0 141 -23 252t-63.5 186t-98.5 124t-126 71t-149 22q-76 0 -143.5 -22.5t-126.5 -72.5t-101.5 -124.5t-67 -186t-24.5 -249.5zM438 1622q23 82 84.5 162t98.5 80q39 0 132.5 -62.5t131.5 -62.5 q34 0 73 42.5t56 88.5l53 -21q-28 -99 -87.5 -172t-113.5 -73q-31 0 -130.5 61t-129.5 61q-32 0 -56 -32.5t-52 -96.5z" />
<glyph unicode="&#xd6;" horiz-adv-x="1505" d="M72 721q0 169 54 311t147 237t217 148t264 53q147 0 272 -52t215.5 -147t141.5 -236.5t51 -313.5q0 -181 -54 -325t-147.5 -235t-215.5 -138.5t-263 -47.5t-264 49.5t-216.5 142t-147.5 235.5t-54 319zM291 723q0 -136 24.5 -246t67 -184.5t101.5 -125t126.5 -73 t143.5 -22.5q79 0 143.5 17.5t125 63t101.5 118t65.5 187.5t24.5 265q0 141 -23 252t-63.5 186t-98.5 124t-126 71t-149 22q-76 0 -143.5 -22.5t-126.5 -72.5t-101.5 -124.5t-67 -186t-24.5 -249.5zM475 1714q0 41 31 72t72 31q42 0 71 -30.5t29 -72.5q0 -40 -29 -69 t-71 -29q-41 0 -72 29t-31 69zM825 1714q0 41 31 72t72 31q38 0 69 -31.5t31 -71.5q0 -39 -30.5 -68.5t-69.5 -29.5q-41 0 -72 29t-31 69z" />
<glyph unicode="&#xd7;" d="M186 217l277 277l-277 276l90 90l277 -276l276 276l91 -90l-277 -276l277 -277l-91 -90l-276 276l-277 -276z" />
<glyph unicode="&#xd8;" horiz-adv-x="1505" d="M72 721q0 169 54 311t147 237t217 148t264 53q225 0 385 -112l114 158h133l-163 -228q101 -99 156 -243.5t55 -323.5q0 -181 -54 -325t-147.5 -235t-215.5 -138.5t-263 -47.5q-231 0 -396 119l-133 -184h-133l184 254q-204 204 -204 557zM291 723q0 -264 86 -420l686 948 q-118 127 -309 127q-76 0 -143.5 -22.5t-126.5 -72.5t-101.5 -124.5t-67 -186t-24.5 -249.5zM440 209q122 -137 314 -137q79 0 143.5 17.5t125 63t101.5 118t65.5 187.5t24.5 265q0 268 -86 434z" />
<glyph unicode="&#xd9;" horiz-adv-x="1581" d="M55 1374v72h566v-72l-185 -31v-841q0 -168 108.5 -279.5t301.5 -111.5q85 0 159 29.5t130.5 85.5t89 144t32.5 197v776l-178 31v72h447v-72l-166 -31v-811q0 -72 -20 -147t-64 -149t-107 -131.5t-157.5 -93.5t-206.5 -36q-134 0 -244.5 44.5t-178.5 116.5t-105 159 t-37 176v872zM621 1880v21h172l176 -336v-17h-84z" />
<glyph unicode="&#xda;" horiz-adv-x="1581" d="M55 1374v72h566v-72l-185 -31v-841q0 -168 108.5 -279.5t301.5 -111.5q85 0 159 29.5t130.5 85.5t89 144t32.5 197v776l-178 31v72h447v-72l-166 -31v-811q0 -72 -20 -147t-64 -149t-107 -131.5t-157.5 -93.5t-206.5 -36q-134 0 -244.5 44.5t-178.5 116.5t-105 159 t-37 176v872zM743 1548v17l177 336h172v-21l-265 -332h-84z" />
<glyph unicode="&#xdb;" horiz-adv-x="1581" d="M55 1374v72h566v-72l-185 -31v-841q0 -168 108.5 -279.5t301.5 -111.5q85 0 159 29.5t130.5 85.5t89 144t32.5 197v776l-178 31v72h447v-72l-166 -31v-811q0 -72 -20 -147t-64 -149t-107 -131.5t-157.5 -93.5t-206.5 -36q-134 0 -244.5 44.5t-178.5 116.5t-105 159 t-37 176v872zM569 1548v17l238 336h98l238 -336v-17h-74l-213 213l-213 -213h-74z" />
<glyph unicode="&#xdc;" horiz-adv-x="1581" d="M55 1374v72h566v-72l-185 -31v-841q0 -168 108.5 -279.5t301.5 -111.5q85 0 159 29.5t130.5 85.5t89 144t32.5 197v776l-178 31v72h447v-72l-166 -31v-811q0 -72 -20 -147t-64 -149t-107 -131.5t-157.5 -93.5t-206.5 -36q-134 0 -244.5 44.5t-178.5 116.5t-105 159 t-37 176v872zM580 1714q0 41 30.5 72t71.5 31q42 0 71 -30.5t29 -72.5q0 -40 -29 -69t-71 -29q-41 0 -71.5 29t-30.5 69zM930 1714q0 41 30.5 72t71.5 31q38 0 69.5 -31.5t31.5 -71.5q0 -39 -31 -68.5t-70 -29.5q-41 0 -71.5 29t-30.5 69z" />
<glyph unicode="&#xdd;" horiz-adv-x="1368" d="M41 1374v72h528v-72l-174 -31l324 -557h22l330 557l-190 31v72h446v-72l-147 -31l-398 -671v-570l185 -30v-72h-566v72l185 30v566l-393 675zM618 1548v17l177 336h172v-21l-265 -332h-84z" />
<glyph unicode="&#xde;" horiz-adv-x="1153" d="M55 0v72l185 30v1241l-185 31v72h566v-72l-185 -31v-184h137q74 0 144.5 -13.5t137 -45t116.5 -78t80 -117t30 -157.5q0 -186 -138.5 -296t-379.5 -110h-127v-240l185 -30v-72h-566zM436 442h146q124 0 209.5 81t85.5 212q0 314 -314 314h-127v-607z" />
<glyph unicode="&#xdf;" horiz-adv-x="1218" d="M39 831v60l135 84v88q0 182 123.5 316t294.5 134q170 0 273.5 -95t103.5 -218q0 -49 -29.5 -97.5t-71.5 -89t-84.5 -81t-72 -89.5t-29.5 -100q0 -58 55 -101t191 -110q45 -22 78.5 -45t64 -56t46.5 -77.5t16 -99.5q0 -131 -84 -205t-207 -74q-59 0 -160 52l-31 -27h-47 v266h58q21 -101 67.5 -159t116.5 -58q64 0 102.5 41t38.5 107q0 62 -50.5 118t-135.5 95q-144 66 -204 125.5t-60 158.5q0 54 25.5 102.5t61.5 88t72.5 81.5t62 101t25.5 129q0 109 -59.5 164t-138.5 55q-112 0 -179 -98.5t-67 -241.5v-977l160 -37v-61h-449v61l123 31v739 h-135z" />
<glyph unicode="&#xe0;" horiz-adv-x="882" d="M82 688q0 74 57 123q79 55 173.5 104.5t148.5 49.5q107 0 166 -67.5t59 -178.5v-522q0 -88 53 -88q24 0 46 22.5t34 52.5l41 -16q-33 -97 -92 -141.5t-115 -44.5q-53 0 -88 34t-39 95h-20q-68 -71 -122 -103.5t-114 -32.5q-49 0 -93.5 41.5t-68.5 97.5t-24 103 q0 72 40.5 132.5t121.5 94.5l289 125v86q0 195 -158 195q-35 0 -77 -19.5t-60 -46.5q0 -3 6 -47.5t6 -68.5q0 -38 -26 -59t-64 -21q-33 0 -56.5 28.5t-23.5 71.5zM197 1393v20h172l176 -336v-16h-84zM246 254q0 -58 30 -99.5t74 -41.5q63 0 125 51t62 119v204l-177 -79 q-42 -17 -78 -58.5t-36 -95.5z" />
<glyph unicode="&#xe1;" horiz-adv-x="882" d="M82 688q0 74 57 123q79 55 173.5 104.5t148.5 49.5q107 0 166 -67.5t59 -178.5v-522q0 -88 53 -88q24 0 46 22.5t34 52.5l41 -16q-33 -97 -92 -141.5t-115 -44.5q-53 0 -88 34t-39 95h-20q-68 -71 -122 -103.5t-114 -32.5q-49 0 -93.5 41.5t-68.5 97.5t-24 103 q0 72 40.5 132.5t121.5 94.5l289 125v86q0 195 -158 195q-35 0 -77 -19.5t-60 -46.5q0 -3 6 -47.5t6 -68.5q0 -38 -26 -59t-64 -21q-33 0 -56.5 28.5t-23.5 71.5zM246 254q0 -58 30 -99.5t74 -41.5q63 0 125 51t62 119v204l-177 -79q-42 -17 -78 -58.5t-36 -95.5zM319 1061 v16l177 336h172v-20l-265 -332h-84z" />
<glyph unicode="&#xe2;" horiz-adv-x="882" d="M82 688q0 74 57 123q79 55 173.5 104.5t148.5 49.5q107 0 166 -67.5t59 -178.5v-522q0 -88 53 -88q24 0 46 22.5t34 52.5l41 -16q-33 -97 -92 -141.5t-115 -44.5q-53 0 -88 34t-39 95h-20q-68 -71 -122 -103.5t-114 -32.5q-49 0 -93.5 41.5t-68.5 97.5t-24 103 q0 72 40.5 132.5t121.5 94.5l289 125v86q0 195 -158 195q-35 0 -77 -19.5t-60 -46.5q0 -3 6 -47.5t6 -68.5q0 -38 -26 -59t-64 -21q-33 0 -56.5 28.5t-23.5 71.5zM145 1061v16l238 336h98l238 -336v-16h-74l-213 213l-213 -213h-74zM246 254q0 -58 30 -99.5t74 -41.5 q63 0 125 51t62 119v204l-177 -79q-42 -17 -78 -58.5t-36 -95.5z" />
<glyph unicode="&#xe3;" horiz-adv-x="882" d="M82 688q0 74 57 123q79 55 173.5 104.5t148.5 49.5q107 0 166 -67.5t59 -178.5v-522q0 -88 53 -88q24 0 46 22.5t34 52.5l41 -16q-33 -97 -92 -141.5t-115 -44.5q-53 0 -88 34t-39 95h-20q-68 -71 -122 -103.5t-114 -32.5q-49 0 -93.5 41.5t-68.5 97.5t-24 103 q0 72 40.5 132.5t121.5 94.5l289 125v86q0 195 -158 195q-35 0 -77 -19.5t-60 -46.5q0 -3 6 -47.5t6 -68.5q0 -38 -26 -59t-64 -21q-33 0 -56.5 28.5t-23.5 71.5zM119 1135q23 82 84 161.5t98 79.5q39 0 132.5 -62.5t131.5 -62.5q34 0 73 42.5t56 88.5l54 -20 q-28 -99 -87.5 -172.5t-113.5 -73.5q-31 0 -130 61.5t-130 61.5q-32 0 -56.5 -33t-52.5 -96zM246 254q0 -58 30 -99.5t74 -41.5q63 0 125 51t62 119v204l-177 -79q-42 -17 -78 -58.5t-36 -95.5z" />
<glyph unicode="&#xe4;" horiz-adv-x="882" d="M82 688q0 74 57 123q79 55 173.5 104.5t148.5 49.5q107 0 166 -67.5t59 -178.5v-522q0 -88 53 -88q24 0 46 22.5t34 52.5l41 -16q-33 -97 -92 -141.5t-115 -44.5q-53 0 -88 34t-39 95h-20q-68 -71 -122 -103.5t-114 -32.5q-49 0 -93.5 41.5t-68.5 97.5t-24 103 q0 72 40.5 132.5t121.5 94.5l289 125v86q0 195 -158 195q-35 0 -77 -19.5t-60 -46.5q0 -3 6 -47.5t6 -68.5q0 -38 -26 -59t-64 -21q-33 0 -56.5 28.5t-23.5 71.5zM156 1227q0 41 30.5 71.5t71.5 30.5q42 0 71 -30t29 -72q0 -40 -29 -69.5t-71 -29.5q-41 0 -71.5 29.5 t-30.5 69.5zM246 254q0 -58 30 -99.5t74 -41.5q63 0 125 51t62 119v204l-177 -79q-42 -17 -78 -58.5t-36 -95.5zM506 1227q0 41 30.5 71.5t71.5 30.5q38 0 69.5 -31t31.5 -71q0 -39 -31 -69t-70 -30q-41 0 -71.5 29.5t-30.5 69.5z" />
<glyph unicode="&#xe5;" horiz-adv-x="882" d="M82 688q0 74 57 123q79 55 173.5 104.5t148.5 49.5q107 0 166 -67.5t59 -178.5v-522q0 -88 53 -88q24 0 46 22.5t34 52.5l41 -16q-33 -97 -92 -141.5t-115 -44.5q-53 0 -88 34t-39 95h-20q-68 -71 -122 -103.5t-114 -32.5q-49 0 -93.5 41.5t-68.5 97.5t-24 103 q0 72 40.5 132.5t121.5 94.5l289 125v86q0 195 -158 195q-35 0 -77 -19.5t-60 -46.5q0 -3 6 -47.5t6 -68.5q0 -38 -26 -59t-64 -21q-33 0 -56.5 28.5t-23.5 71.5zM240 1233q0 79 56 135.5t136 56.5t136.5 -56.5t56.5 -135.5t-56.5 -136t-136.5 -57q-79 0 -135.5 56.5 t-56.5 136.5zM246 254q0 -58 30 -99.5t74 -41.5q63 0 125 51t62 119v204l-177 -79q-42 -17 -78 -58.5t-36 -95.5zM324 1233q0 -51 28.5 -83t77.5 -32t79 32.5t30 82.5q0 51 -30 85t-79 34q-48 0 -77 -34t-29 -85z" />
<glyph unicode="&#xe6;" horiz-adv-x="1363" d="M82 688q0 74 57 123q79 55 173.5 104.5t148.5 49.5q136 0 201 -105q108 105 256 105q84 0 156 -32.5t116.5 -82.5t69 -107t24.5 -110q0 -21 -0.5 -28t-2 -18.5t-6.5 -15.5t-13 -4h-576q-4 -31 -4 -75q6 -174 92 -272.5t209 -98.5q81 0 143.5 41t118.5 129l58 -41 q-22 -42 -43.5 -75t-56.5 -72.5t-73 -65.5t-91.5 -44t-114.5 -18q-101 0 -183.5 46t-140.5 126q-203 -172 -340 -172q-46 0 -88 41.5t-65 97.5t-23 103q0 69 42 130t120 97l289 119v92q0 195 -158 195q-34 0 -73.5 -19.5t-57.5 -46.5q0 -3 6 -47.5t6 -68.5q0 -37 -29 -58.5 t-67 -21.5q-33 0 -56.5 28.5t-23.5 71.5zM246 254q0 -62 28 -101.5t86 -39.5q60 0 118.5 47.5t58.5 111.5v211l-166 -71q-46 -19 -85.5 -61.5t-39.5 -96.5zM698 655h375q10 23 10 68q0 71 -49 114.5t-119 43.5q-86 0 -141 -61.5t-76 -164.5z" />
<glyph unicode="&#xe7;" horiz-adv-x="903" d="M70 463q0 212 126 357t320 145q142 0 225.5 -59.5t83.5 -145.5q0 -43 -23 -64.5t-75 -21.5q-36 0 -58.5 22t-35 53t-26.5 62.5t-42.5 53.5t-72.5 22q-93 0 -168.5 -109t-75.5 -278q0 -192 78.5 -281.5t208.5 -89.5q80 0 146.5 47t106.5 117l64 -31 q-49 -125 -137.5 -201.5t-208.5 -83.5l-43 -79q94 0 154.5 -37t60.5 -111q0 -77 -86 -135t-207 -74l-16 51q79 12 128.5 46.5t49.5 80.5q0 42 -40.5 64t-105.5 22q-33 0 -61 -4l-10 15l86 166q-157 24 -251.5 160t-94.5 321z" />
<glyph unicode="&#xe8;" horiz-adv-x="917" d="M70 461q0 140 50.5 255t142.5 182t208 67q82 0 153 -32.5t116 -82.5t70.5 -107t25.5 -110q0 -66 -23 -66h-575q-2 -18 -2 -57q0 -185 84.5 -287t205.5 -102q169 0 273 168l57 -39q-141 -275 -379 -275q-91 0 -168.5 41.5t-129 109.5t-80.5 155t-29 180zM227 1393v20h172 l176 -336v-16h-83zM248 649h377q10 29 10 74q0 72 -46.5 115t-119.5 43q-90 0 -144.5 -63.5t-76.5 -168.5z" />
<glyph unicode="&#xe9;" horiz-adv-x="917" d="M70 461q0 140 50.5 255t142.5 182t208 67q82 0 153 -32.5t116 -82.5t70.5 -107t25.5 -110q0 -66 -23 -66h-575q-2 -18 -2 -57q0 -185 84.5 -287t205.5 -102q169 0 273 168l57 -39q-141 -275 -379 -275q-91 0 -168.5 41.5t-129 109.5t-80.5 155t-29 180zM248 649h377 q10 29 10 74q0 72 -46.5 115t-119.5 43q-90 0 -144.5 -63.5t-76.5 -168.5zM350 1061v16l176 336h172v-20l-264 -332h-84z" />
<glyph unicode="&#xea;" horiz-adv-x="917" d="M70 461q0 140 50.5 255t142.5 182t208 67q82 0 153 -32.5t116 -82.5t70.5 -107t25.5 -110q0 -66 -23 -66h-575q-2 -18 -2 -57q0 -185 84.5 -287t205.5 -102q169 0 273 168l57 -39q-141 -275 -379 -275q-91 0 -168.5 41.5t-129 109.5t-80.5 155t-29 180zM176 1061v16 l238 336h98l238 -336v-16h-74l-213 213l-213 -213h-74zM248 649h377q10 29 10 74q0 72 -46.5 115t-119.5 43q-90 0 -144.5 -63.5t-76.5 -168.5z" />
<glyph unicode="&#xeb;" horiz-adv-x="917" d="M70 461q0 140 50.5 255t142.5 182t208 67q82 0 153 -32.5t116 -82.5t70.5 -107t25.5 -110q0 -66 -23 -66h-575q-2 -18 -2 -57q0 -185 84.5 -287t205.5 -102q169 0 273 168l57 -39q-141 -275 -379 -275q-91 0 -168.5 41.5t-129 109.5t-80.5 155t-29 180zM186 1227 q0 41 31 71.5t72 30.5q42 0 71 -30t29 -72q0 -40 -29 -69.5t-71 -29.5q-41 0 -72 29.5t-31 69.5zM248 649h377q10 29 10 74q0 72 -46.5 115t-119.5 43q-90 0 -144.5 -63.5t-76.5 -168.5zM537 1227q0 41 30.5 71.5t71.5 30.5q38 0 69 -31t31 -71q0 -39 -30.5 -69t-69.5 -30 q-41 0 -71.5 29.5t-30.5 69.5z" />
<glyph unicode="&#xec;" horiz-adv-x="522" d="M20 1372v21h173l176 -336v-17h-84zM45 836v43l250 86h49v-873l123 -31v-61h-412v61l123 31v686z" />
<glyph unicode="&#xed;" horiz-adv-x="522" d="M45 836v43l250 86h49v-873l123 -31v-61h-412v61l123 31v686zM143 1040v17l176 336h173v-21l-265 -332h-84z" />
<glyph unicode="&#xee;" horiz-adv-x="522" d="M-31 1040v17l238 336h98l238 -336v-17h-74l-213 213l-213 -213h-74zM45 836v43l250 86h49v-873l123 -31v-61h-412v61l123 31v686z" />
<glyph unicode="&#xef;" horiz-adv-x="522" d="M-20 1206q0 41 30.5 72t71.5 31q42 0 71 -30.5t29 -72.5q0 -40 -29 -69t-71 -29q-41 0 -71.5 29t-30.5 69zM45 836v43l250 86h49v-873l123 -31v-61h-412v61l123 31v686zM330 1206q0 41 30.5 72t71.5 31q38 0 69 -31.5t31 -71.5q0 -39 -30.5 -68.5t-69.5 -29.5 q-41 0 -71.5 29t-30.5 69z" />
<glyph unicode="&#xf0;" horiz-adv-x="1009" d="M70 465q0 117 39 215.5t100 158.5t131 93t137 33q64 0 120.5 -22t94.5 -56l17 10q-57 151 -191 313l-207 -137l-53 68l203 135q-118 124 -213 174l26 55q158 -61 285 -164l195 129l53 -67l-182 -121q150 -146 232.5 -338.5t82.5 -394.5q0 -282 -122.5 -428t-323.5 -146 q-56 0 -112.5 15.5t-113.5 53t-100.5 92t-70.5 140t-27 189.5zM258 473q0 -179 70 -295.5t178 -116.5q244 0 244 441q0 73 -21 207q-39 81 -96.5 125.5t-128.5 44.5q-105 0 -175.5 -108.5t-70.5 -297.5z" />
<glyph unicode="&#xf1;" horiz-adv-x="1067" d="M41 836v43l244 86h49l12 -103l16 -12q78 58 139.5 86.5t123.5 28.5q115 0 191.5 -80t76.5 -234v-559l123 -31v-61h-412v61l123 31v504q0 129 -47.5 183.5t-142.5 54.5q-57 0 -109.5 -22.5t-87.5 -53.5v-666l123 -31v-61h-412v61l123 31v686zM221 1135q23 82 84 161.5 t98 79.5q39 0 133 -62.5t132 -62.5q34 0 73 42.5t56 88.5l53 -20q-28 -99 -87.5 -172.5t-113.5 -73.5q-31 0 -130 61.5t-130 61.5q-32 0 -56 -32.5t-52 -96.5z" />
<glyph unicode="&#xf2;" horiz-adv-x="1009" d="M70 469q0 223 125.5 359.5t310.5 136.5q90 0 169 -34.5t138 -97t93 -157t34 -207.5q0 -120 -34 -215t-93.5 -155.5t-137.5 -92t-169 -31.5q-187 0 -311.5 132t-124.5 362zM262 471q0 -208 69 -309t175 -101q244 0 244 410q0 212 -68.5 310t-175.5 98t-175.5 -99 t-68.5 -309zM268 1393v20h172l176 -336v-16h-84z" />
<glyph unicode="&#xf3;" horiz-adv-x="1009" d="M70 469q0 223 125.5 359.5t310.5 136.5q90 0 169 -34.5t138 -97t93 -157t34 -207.5q0 -120 -34 -215t-93.5 -155.5t-137.5 -92t-169 -31.5q-187 0 -311.5 132t-124.5 362zM262 471q0 -208 69 -309t175 -101q244 0 244 410q0 212 -68.5 310t-175.5 98t-175.5 -99 t-68.5 -309zM391 1061v16l176 336h172v-20l-264 -332h-84z" />
<glyph unicode="&#xf4;" horiz-adv-x="1009" d="M70 469q0 223 125.5 359.5t310.5 136.5q90 0 169 -34.5t138 -97t93 -157t34 -207.5q0 -120 -34 -215t-93.5 -155.5t-137.5 -92t-169 -31.5q-187 0 -311.5 132t-124.5 362zM217 1061v16l238 336h98l238 -336v-16h-74l-213 213l-213 -213h-74zM262 471q0 -208 69 -309 t175 -101q244 0 244 410q0 212 -68.5 310t-175.5 98t-175.5 -99t-68.5 -309z" />
<glyph unicode="&#xf5;" horiz-adv-x="1009" d="M70 469q0 223 125.5 359.5t310.5 136.5q90 0 169 -34.5t138 -97t93 -157t34 -207.5q0 -120 -34 -215t-93.5 -155.5t-137.5 -92t-169 -31.5q-187 0 -311.5 132t-124.5 362zM190 1135q23 82 84.5 161.5t98.5 79.5q39 0 132.5 -62.5t131.5 -62.5q34 0 73 42.5t56 88.5 l53 -20q-28 -99 -87.5 -172.5t-113.5 -73.5q-30 0 -130 61.5t-130 61.5q-32 0 -56 -32.5t-52 -96.5zM262 471q0 -208 69 -309t175 -101q244 0 244 410q0 212 -68.5 310t-175.5 98t-175.5 -99t-68.5 -309z" />
<glyph unicode="&#xf6;" horiz-adv-x="1009" d="M70 469q0 223 125.5 359.5t310.5 136.5q90 0 169 -34.5t138 -97t93 -157t34 -207.5q0 -120 -34 -215t-93.5 -155.5t-137.5 -92t-169 -31.5q-187 0 -311.5 132t-124.5 362zM227 1227q0 41 31 71.5t72 30.5q42 0 71 -30t29 -72q0 -40 -29 -69.5t-71 -29.5q-41 0 -72 29.5 t-31 69.5zM262 471q0 -208 69 -309t175 -101q244 0 244 410q0 212 -68.5 310t-175.5 98t-175.5 -99t-68.5 -309zM578 1227q0 41 30.5 71.5t71.5 30.5q38 0 69 -31t31 -71q0 -39 -30.5 -69t-69.5 -30q-41 0 -71.5 29.5t-30.5 69.5z" />
<glyph unicode="&#xf7;" d="M139 430v127h828v-127h-828zM444 180q0 44 30.5 75.5t74.5 31.5t75 -31.5t31 -75.5t-31 -74t-75 -30t-74.5 30t-30.5 74zM444 805q0 44 30.5 75t74.5 31t75 -31t31 -75t-31 -74.5t-75 -30.5t-74.5 30.5t-30.5 74.5z" />
<glyph unicode="&#xf8;" horiz-adv-x="1009" d="M45 -96l148 205q-123 136 -123 360q0 223 125.5 359.5t310.5 136.5q139 0 250 -82l100 139h113l-146 -201q117 -140 117 -352q0 -120 -34 -215t-93.5 -155.5t-137.5 -92t-169 -31.5q-137 0 -244 72l-104 -143h-113zM262 471q0 -134 31 -225l387 534q-64 99 -174 99 q-107 0 -175.5 -99t-68.5 -309zM338 152q67 -91 168 -91q244 0 244 410q0 117 -27 213z" />
<glyph unicode="&#xf9;" horiz-adv-x="1062" d="M41 848v67l299 37v-639q0 -115 45.5 -161t140.5 -46q58 0 114 22.5t87 53.5v643l-133 23v67l299 37v-835l119 -47v-43l-217 -52h-27l-29 80l-16 13q-148 -93 -285 -93q-115 0 -189.5 79.5t-74.5 234.5v536zM291 1393v20h172l176 -336v-16h-84z" />
<glyph unicode="&#xfa;" horiz-adv-x="1062" d="M41 848v67l299 37v-639q0 -115 45.5 -161t140.5 -46q58 0 114 22.5t87 53.5v643l-133 23v67l299 37v-835l119 -47v-43l-217 -52h-27l-29 80l-16 13q-148 -93 -285 -93q-115 0 -189.5 79.5t-74.5 234.5v536zM414 1061v16l176 336h172v-20l-264 -332h-84z" />
<glyph unicode="&#xfb;" horiz-adv-x="1062" d="M41 848v67l299 37v-639q0 -115 45.5 -161t140.5 -46q58 0 114 22.5t87 53.5v643l-133 23v67l299 37v-835l119 -47v-43l-217 -52h-27l-29 80l-16 13q-148 -93 -285 -93q-115 0 -189.5 79.5t-74.5 234.5v536zM240 1061v16l237 336h98l238 -336v-16h-74l-213 213l-213 -213 h-73z" />
<glyph unicode="&#xfc;" horiz-adv-x="1062" d="M41 848v67l299 37v-639q0 -115 45.5 -161t140.5 -46q58 0 114 22.5t87 53.5v643l-133 23v67l299 37v-835l119 -47v-43l-217 -52h-27l-29 80l-16 13q-148 -93 -285 -93q-115 0 -189.5 79.5t-74.5 234.5v536zM250 1227q0 41 30.5 71.5t71.5 30.5q42 0 71.5 -30t29.5 -72 q0 -40 -29.5 -69.5t-71.5 -29.5q-41 0 -71.5 29.5t-30.5 69.5zM600 1227q0 41 30.5 71.5t71.5 30.5q38 0 69.5 -31t31.5 -71q0 -39 -31 -69t-70 -30q-41 0 -71.5 29.5t-30.5 69.5z" />
<glyph unicode="&#xfd;" horiz-adv-x="952" d="M4 -406q0 34 27.5 60.5t66.5 26.5q27 0 68.5 -24t75.5 -24q115 0 194 340l-315 873l-101 31v61h392v-61l-121 -31l211 -592h20l201 592l-150 31v61h359v-61l-127 -31l-344 -1032q-57 -175 -131.5 -250.5t-190.5 -75.5q-65 0 -100 30.5t-35 75.5zM387 1061v16l176 336h172 v-20l-264 -332h-84z" />
<glyph unicode="&#xfe;" horiz-adv-x="1062" d="M41 1374v43l244 86h55v-641l22 -12q145 115 273 115q43 0 90.5 -17t95.5 -55t86 -91.5t62 -134t24 -175.5q0 -117 -38.5 -216.5t-101.5 -164t-142.5 -100.5t-163.5 -36q-120 0 -207 31v-405l172 -31v-62h-461v62l123 31v1716zM340 152q29 -43 83.5 -70t111.5 -27 q44 0 91 21t92 64t74 121.5t29 180.5q0 92 -27 167.5t-69.5 121t-91 70t-96.5 24.5q-54 0 -108 -24t-89 -56v-593z" />
<glyph unicode="&#xff;" horiz-adv-x="952" d="M4 -406q0 34 27.5 60.5t66.5 26.5q27 0 68.5 -24t75.5 -24q115 0 194 340l-315 873l-101 31v61h392v-61l-121 -31l211 -592h20l201 592l-150 31v61h359v-61l-127 -31l-344 -1032q-57 -175 -131.5 -250.5t-190.5 -75.5q-65 0 -100 30.5t-35 75.5zM223 1227q0 41 31 71.5 t72 30.5q42 0 71 -30t29 -72q0 -40 -29 -69.5t-71 -29.5q-41 0 -72 29.5t-31 69.5zM573 1227q0 41 31 71.5t72 30.5q38 0 69 -31t31 -71q0 -39 -30.5 -69t-69.5 -30q-41 0 -72 29.5t-31 69.5z" />
<glyph unicode="&#x152;" horiz-adv-x="1826" d="M72 719q0 174 58 314t158.5 229t231 136.5t279.5 47.5h841l33 -322h-80l-145 234h-449v-547h301l66 188h72v-491h-72l-66 203h-301v-623h512l187 295h80l-74 -383h-928q-159 0 -287.5 45t-222 133t-144 225.5t-50.5 315.5zM291 721q0 -130 27.5 -236t74.5 -178.5 t112.5 -121.5t139.5 -71.5t158 -23.5v1268q-84 -1 -158 -23.5t-139.5 -71.5t-112.5 -121.5t-74.5 -180t-27.5 -240.5z" />
<glyph unicode="&#x153;" horiz-adv-x="1583" d="M66 469q0 223 125.5 359.5t310.5 136.5q202 0 329 -152q55 71 135 111.5t171 40.5q84 0 155.5 -32.5t115.5 -82.5t68.5 -107t24.5 -110q0 -34 -4 -51t-18 -17l-574 2q-4 -31 -4 -75q6 -170 92 -265.5t209 -95.5q81 0 144.5 39t119.5 123l56 -43q-22 -42 -43.5 -75 t-56.5 -72.5t-73 -65.5t-91.5 -44t-114.5 -18q-183 0 -303 150q-123 -150 -338 -150q-187 0 -311.5 132t-124.5 362zM258 471q0 -208 69 -309t175 -101q243 0 243 410q0 213 -68 310.5t-175 97.5t-175.5 -99t-68.5 -309zM918 655h374q11 32 11 68q0 72 -49.5 118t-118.5 46 q-86 0 -140.5 -63.5t-76.5 -168.5z" />
<glyph unicode="&#x178;" horiz-adv-x="1368" d="M41 1374v72h528v-72l-174 -31l324 -557h22l330 557l-190 31v72h446v-72l-147 -31l-398 -671v-570l185 -30v-72h-566v72l185 30v566l-393 675zM455 1714q0 41 30.5 72t71.5 31q42 0 71 -30.5t29 -72.5q0 -40 -29 -69t-71 -29q-41 0 -71.5 29t-30.5 69zM805 1714 q0 41 30.5 72t71.5 31q38 0 69.5 -31.5t31.5 -71.5q0 -39 -31 -68.5t-70 -29.5q-41 0 -71.5 29t-30.5 69z" />
<glyph unicode="&#x2c6;" horiz-adv-x="1024" d="M225 999v17l238 336h98l238 -336v-17h-74l-213 213l-213 -213h-74z" />
<glyph unicode="&#x2dc;" horiz-adv-x="1024" d="M199 1073q23 82 84 162t98 80q39 0 132.5 -62.5t131.5 -62.5q34 0 73 42.5t56 88.5l53 -21q-28 -99 -87 -172t-113 -73q-31 0 -130 61.5t-130 61.5q-32 0 -56.5 -33t-52.5 -96z" />
<glyph unicode="&#x2000;" horiz-adv-x="956" />
<glyph unicode="&#x2001;" horiz-adv-x="1913" />
<glyph unicode="&#x2002;" horiz-adv-x="956" />
<glyph unicode="&#x2003;" horiz-adv-x="1913" />
<glyph unicode="&#x2004;" horiz-adv-x="637" />
<glyph unicode="&#x2005;" horiz-adv-x="478" />
<glyph unicode="&#x2006;" horiz-adv-x="318" />
<glyph unicode="&#x2007;" horiz-adv-x="318" />
<glyph unicode="&#x2008;" horiz-adv-x="239" />
<glyph unicode="&#x2009;" horiz-adv-x="382" />
<glyph unicode="&#x200a;" horiz-adv-x="106" />
<glyph unicode="&#x2010;" horiz-adv-x="643" d="M66 426v137h512v-137h-512z" />
<glyph unicode="&#x2011;" horiz-adv-x="643" d="M66 426v137h512v-137h-512z" />
<glyph unicode="&#x2012;" horiz-adv-x="643" d="M66 426v137h512v-137h-512z" />
<glyph unicode="&#x2013;" horiz-adv-x="991" d="M86 426v137h819v-137h-819z" />
<glyph unicode="&#x2014;" horiz-adv-x="2088" d="M209 436v117h1671v-117h-1671z" />
<glyph unicode="&#x2018;" horiz-adv-x="780" d="M225 1071q0 75 24 143t63 118t77.5 84.5t79.5 58.5l47 -76q-164 -126 -164 -256q0 -32 12.5 -57.5t32 -40.5t41.5 -31t41.5 -30t32 -37t12.5 -52q0 -47 -26 -77t-72 -30q-85 0 -143 78.5t-58 204.5z" />
<glyph unicode="&#x2019;" horiz-adv-x="780" d="M268 1356q0 49 27 77.5t72 28.5q85 0 142.5 -78t57.5 -204q0 -75 -23.5 -143t-62.5 -118t-77.5 -84.5t-79.5 -58.5l-48 76q164 126 164 256q0 32 -12.5 57.5t-32 40.5t-41.5 31t-41.5 30t-32 37t-12.5 52z" />
<glyph unicode="&#x201a;" horiz-adv-x="780" d="M268 137q0 49 27 78t72 29q85 0 142.5 -78.5t57.5 -204.5q0 -75 -23.5 -143t-62.5 -117.5t-77.5 -84t-79.5 -58.5l-48 75q164 126 164 256q0 32 -12.5 57.5t-32 40.5t-41.5 31t-41.5 30t-32 37t-12.5 52z" />
<glyph unicode="&#x201c;" horiz-adv-x="1271" d="M225 1071q0 75 24 143t63 118t77.5 84.5t79.5 58.5l47 -76q-164 -126 -164 -256q0 -32 12.5 -57.5t32 -40.5t41.5 -31t41.5 -30t32 -37t12.5 -52q0 -47 -26 -77t-72 -30q-85 0 -143 78.5t-58 204.5zM717 1071q0 75 24 143t63 118t77.5 84.5t79.5 58.5l47 -76 q-164 -126 -164 -256q0 -32 12.5 -57.5t32 -40.5t41.5 -31t41.5 -30t32 -37t12.5 -52q0 -47 -26 -77t-72 -30q-85 0 -143 78.5t-58 204.5z" />
<glyph unicode="&#x201d;" horiz-adv-x="1271" d="M268 1356q0 49 27 77.5t72 28.5q85 0 142.5 -78t57.5 -204q0 -75 -23.5 -143t-62.5 -118t-77.5 -84.5t-79.5 -58.5l-48 76q164 126 164 256q0 32 -12.5 57.5t-32 40.5t-41.5 31t-41.5 30t-32 37t-12.5 52zM760 1356q0 49 26.5 77.5t71.5 28.5q85 0 143 -78t58 -204 q0 -75 -24 -143t-63 -118t-77.5 -84.5t-79.5 -58.5l-47 76q164 126 164 256q0 32 -12.5 57.5t-32 40.5t-41.5 31t-41.5 30t-32 37t-12.5 52z" />
<glyph unicode="&#x201e;" horiz-adv-x="1271" d="M268 137q0 49 27 78t72 29q85 0 142.5 -78.5t57.5 -204.5q0 -75 -23.5 -143t-62.5 -117.5t-77.5 -84t-79.5 -58.5l-48 75q164 126 164 256q0 32 -12.5 57.5t-32 40.5t-41.5 31t-41.5 30t-32 37t-12.5 52zM760 137q0 49 26.5 78t71.5 29q85 0 143 -78.5t58 -204.5 q0 -75 -24 -143t-63 -117.5t-77.5 -84t-79.5 -58.5l-47 75q164 126 164 256q0 32 -12.5 57.5t-32 40.5t-41.5 31t-41.5 30t-32 37t-12.5 52z" />
<glyph unicode="&#x2022;" horiz-adv-x="1171" d="M307 541q0 115 81.5 196.5t197.5 81.5t197 -81.5t81 -196.5q0 -116 -81.5 -197.5t-196.5 -81.5q-116 0 -197.5 82t-81.5 197z" />
<glyph unicode="&#x2026;" horiz-adv-x="2033" d="M256 111q0 53 36.5 90t88.5 37q53 0 90 -37t37 -90q0 -52 -37 -88.5t-90 -36.5t-89 36t-36 89zM891 111q0 53 36.5 90t88.5 37t89.5 -37t37.5 -90q0 -52 -37 -88.5t-90 -36.5q-52 0 -88.5 36t-36.5 89zM1526 111q0 53 36.5 90t88.5 37q53 0 90 -37t37 -90 q0 -52 -37 -88.5t-90 -36.5t-89 36t-36 89z" />
<glyph unicode="&#x202f;" horiz-adv-x="382" />
<glyph unicode="&#x2039;" horiz-adv-x="911" d="M211 444v48l373 448l57 -41l-231 -412v-30l231 -416l-57 -49z" />
<glyph unicode="&#x203a;" horiz-adv-x="911" d="M270 41l232 416v30l-232 412l58 41l372 -448v-48l-372 -452z" />
<glyph unicode="&#x205f;" horiz-adv-x="478" />
<glyph unicode="&#x20ac;" horiz-adv-x="1232" d="M82 528l18 78h119v33q0 49 2 74h-139l18 78h131q38 236 184 376t343 140q100 0 204 -33t189 -96l-61 -258h-54q2 69 -16.5 124t-48 88t-68.5 55t-75 30t-70 8q-129 0 -219.5 -110t-114.5 -324h623l-19 -78h-612v-72v-35h590l-19 -78h-567q22 -221 119.5 -341.5 t214.5 -120.5q118 0 201 67.5t126 198.5l70 -27q-108 -330 -418 -330q-199 0 -340 146t-168 407h-143z" />
<glyph unicode="&#x2122;" horiz-adv-x="1372" d="M86 1294l27 152h430l28 -152h-41l-65 97h-78v-400l66 -12v-47h-248v47l65 12v400h-75l-66 -97h-43zM573 932v47l68 12l39 395l-78 13v47h193l127 -338h14l145 338h189v-47l-72 -13l25 -395l63 -12v-47h-242v47l70 12l-18 307h-15l-159 -366h-35l-152 366h-10l-31 -307 l68 -12v-47h-189z" />
<glyph unicode="&#xe000;" horiz-adv-x="942" d="M0 0v942h942v-942h-942z" />
</font>
</defs>
</svg>
