<?xml version="1.0" standalone="no"?>
<!DOCTYPE svg PUBLIC "-//W3C//DTD SVG 1.1//EN" "http://www.w3.org/Graphics/SVG/1.1/DTD/svg11.dtd" >
<svg xmlns="http://www.w3.org/2000/svg">
<metadata></metadata>
<defs>
<font id="equity_caps_bbold" horiz-adv-x="1105" >
<font-face units-per-em="2048" ascent="1524" descent="-524" />
<missing-glyph horiz-adv-x="573" />
<glyph horiz-adv-x="2048" />
<glyph horiz-adv-x="2048" />
<glyph unicode="&#xd;" horiz-adv-x="2048" />
<glyph unicode=" "  horiz-adv-x="573" />
<glyph unicode="&#x09;" horiz-adv-x="573" />
<glyph unicode="&#xa0;" horiz-adv-x="573" />
<glyph unicode="!" horiz-adv-x="933" d="M309 131q0 66 45 113t111 47t113 -47t47 -113t-47 -111t-113 -45t-111 45t-45 111zM309 1503h316l-93 -1032h-131z" />
<glyph unicode="&#x22;" horiz-adv-x="917" d="M166 895l49 481q7 76 36 115t93 25l47 -15q48 -11 62 -61t-13 -125l-157 -449zM532 895l50 481q7 76 36 115t93 25l47 -15q48 -11 62 -61t-13 -125l-158 -449z" />
<glyph unicode="#" horiz-adv-x="1284" d="M154 295v182h227l65 320h-190v182h227l88 426h123l-88 -426h205l88 426h123l-88 -426h196v-182h-233l-66 -320h197v-182h-235l-97 -473h-123l97 473h-205l-96 -473h-123l96 473h-188zM504 477h205l65 320h-205z" />
<glyph unicode="$" horiz-adv-x="1359" d="M225 10v422h90q42 -157 144 -256q82 -85 198 -104v456q-232 92 -323.5 182t-91.5 242q0 139 114 243.5t301 111.5v204h84v-206q94 -7 238 -56l65 35h48l36 -410h-86q-59 163 -143 244q-79 72 -158 88v-420l60 -24q70 -30 118.5 -55t96.5 -60.5t76 -74.5t45.5 -92 t17.5 -118q0 -173 -114 -273t-300 -112v-219h-84v219q-69 3 -142.5 22.5t-127.5 47.5l-90 -37h-72zM455 1026q0 -60 48.5 -105t153.5 -96v389q-89 0 -145.5 -49.5t-56.5 -138.5zM741 66q85 2 143 58.5t58 145.5q0 69 -48 123t-153 101v-428z" />
<glyph unicode="%" horiz-adv-x="1349" d="M168 25l416 550l325 472l-6 6q-49 -27 -106 -27q-60 0 -101 41l-6 -4q0 -167 -89.5 -280t-205.5 -113q-98 0 -159.5 73.5t-61.5 186.5q0 152 96 264.5t207 112.5q140 0 189 -123q12 -31 51.5 -50.5t85.5 -19.5q47 0 96 17.5t84 46.5q63 116 154 116q19 0 34 -14t15 -39 q0 -32 -21 -58t-71 -55l-430 -585l-398 -584zM356 874q0 -55 22 -83.5t62 -28.5q59 0 106.5 73t47.5 209q0 57 -22.5 88t-57.5 31q-57 0 -107.5 -92t-50.5 -197zM676 236q0 152 96 264t207 112q94 0 153.5 -64.5t59.5 -176.5q0 -90 -26.5 -166.5t-68.5 -125.5t-93.5 -76.5 t-102.5 -27.5q-100 0 -162.5 73.5t-62.5 187.5zM858 186q0 -54 22.5 -83t59.5 -29q58 0 107 72t49 210q0 57 -22.5 88t-57.5 31q-57 0 -107.5 -92t-50.5 -197z" />
<glyph unicode="&#x26;" horiz-adv-x="1714" d="M209 391q0 101 32.5 173.5t94.5 124.5t172 108q-75 78 -116.5 159.5t-41.5 147.5q0 58 68.5 130t168.5 122.5t183 50.5q48 0 100 -26.5t90 -64.5t62.5 -80t24.5 -73q0 -92 -64 -164t-178 -139q193 -186 311 -368q85 124 152 260l-135 51v94h397v-94l-144 -51 q-110 -212 -212 -355q47 -81 104 -211q19 -47 65 -47q63 0 132 86l67 -51q-47 -90 -120.5 -144.5t-157.5 -54.5q-47 0 -88.5 19t-65.5 53q-3 4 -106 148q-217 -220 -426 -220q-96 0 -182 59t-136.5 155t-50.5 202zM451 561q0 -93 27 -168.5t70 -119t90.5 -66.5t92.5 -23 q86 0 209 105q-99 144 -182.5 249t-184.5 199q-122 -67 -122 -176zM565 1151q0 -50 40.5 -103t117.5 -118q100 87 100 188q0 60 -48 116t-95 56q-44 0 -79.5 -42.5t-35.5 -96.5z" />
<glyph unicode="'" horiz-adv-x="550" d="M166 895l49 481q7 76 36 115t93 25l47 -15q48 -11 62 -61t-13 -125l-157 -449z" />
<glyph unicode="(" horiz-adv-x="1028" d="M248 539q0 158 42.5 299.5t125 263.5t186 224.5t240.5 203.5l61 -80q-399 -372 -399 -911q0 -291 99 -541t300 -426l-59 -70q-596 450 -596 1037z" />
<glyph unicode=")" horiz-adv-x="1028" d="M125 -438q218 205 308.5 444t90.5 533q0 279 -98.5 518t-298.5 405l63 68q98 -69 182 -144.5t160.5 -170.5t130.5 -197.5t85.5 -225.5t31.5 -253q0 -625 -600 -1037z" />
<glyph unicode="*" horiz-adv-x="1267" d="M243 888q-11 58 46 81q21 9 114.5 43.5t155.5 60.5q-68 30 -161 52.5t-107 27.5q-49 18 -43 78q5 53 45 85q47 39 94 -1q6 -5 30 -27.5t39.5 -36.5t40.5 -35.5t50.5 -41.5t52.5 -39q-11 73 -35.5 159t-29.5 113q-9 53 47 77q52 22 102 2q56 -22 45 -79q-3 -15 -32 -109 t-38 -163q116 82 218 180q41 37 95 -1q44 -32 54 -81q12 -60 -47 -80q-11 -4 -102.5 -27t-165.5 -53q131 -57 270 -100q50 -13 44 -72q-4 -54 -45 -91q-51 -45 -101 -3l-2 2q-15 14 -50 49.5t-74.5 71t-86.5 67.5q12 -65 34.5 -156t28.5 -124q11 -50 -43 -75q-50 -23 -99 -4 q-55 20 -44 79q4 30 25 118t32 162q-52 -32 -91 -67t-72 -72t-46 -49q-41 -36 -93 -1q-45 31 -55 80z" />
<glyph unicode="+" d="M139 410v168h330v329h168v-329h330v-168h-330v-330h-168v330h-330z" />
<glyph unicode="," horiz-adv-x="772" d="M203 -369q73 48 124.5 114t51.5 138q0 44 -18 75t-43.5 49l-51 36t-43.5 46.5t-18 68.5q0 62 42.5 101.5t106.5 39.5q97 0 169.5 -85t72.5 -218q0 -83 -33 -158t-86.5 -130t-108.5 -93.5t-112 -63.5z" />
<glyph unicode="-" horiz-adv-x="827" d="M158 416v198h512v-198h-512z" />
<glyph unicode="." horiz-adv-x="790" d="M227 141q0 71 48 120.5t118 49.5q71 0 120.5 -49.5t49.5 -120.5q0 -70 -49.5 -118t-120.5 -48t-118.5 47.5t-47.5 118.5z" />
<glyph unicode="/" horiz-adv-x="1024" d="M106 -250l615 1753h197l-615 -1753h-197z" />
<glyph unicode="0" horiz-adv-x="1198" d="M113 610q0 177 38 312.5t106 218.5t157 124.5t196 41.5q103 0 188 -41t150 -124t101 -218.5t36 -313.5q0 -164 -36 -288.5t-101.5 -200t-150 -113t-187.5 -37.5q-107 0 -195.5 37.5t-157 113t-106.5 200t-38 288.5zM408 612q0 -134 11 -232.5t28.5 -157t44.5 -93 t54.5 -46t63.5 -11.5q34 0 59.5 12t49.5 47t39.5 93.5t25 156t9.5 231.5q0 180 -13.5 301t-39.5 183t-57 86t-73 24q-45 0 -78.5 -25t-63 -86.5t-45 -183t-15.5 -299.5z" />
<glyph unicode="1" horiz-adv-x="923" d="M96 1145v96q270 -6 457 62l57 -52v-1145l205 -30v-76h-680v76l213 30v1014q-58 -4 -129.5 4t-122.5 21z" />
<glyph unicode="2" horiz-adv-x="1056" d="M43 66q65 57 135 127.5t152.5 167.5t146 190t106 195t42.5 184q0 87 -38 130.5t-110 43.5q-75 0 -150.5 -54t-140.5 -147l-77 78q35 47 67.5 85t83.5 85.5t101.5 79.5t116.5 54t134 22q142 0 219.5 -76t77.5 -195q0 -88 -56.5 -201.5t-143.5 -221.5t-174.5 -197.5 t-167.5 -155.5l12 -29h426l74 140l90 -27l-111 -344h-790z" />
<glyph unicode="3" horiz-adv-x="1052" d="M78 172q0 47 33.5 84t93.5 37q38 0 66.5 -23.5t48 -56.5t39.5 -66.5t51.5 -57t72.5 -23.5q75 0 134 72t59 196q0 59 -17.5 111t-46 84.5t-63.5 55t-70.5 23.5t-66.5 -12l-68 -31l-49 97q138 55 241 148.5t103 184.5q0 63 -38.5 97t-106.5 34q-82 0 -166.5 -49.5 t-139.5 -118.5l-69 66q37 50 82 94.5t106 89.5t137.5 72t155.5 27q136 0 215.5 -65t79.5 -185q0 -91 -75.5 -187.5t-188.5 -148.5v-21q135 -24 223 -116.5t88 -223.5q0 -81 -29.5 -147.5t-78 -110.5t-112 -74t-128.5 -43.5t-131 -13.5q-179 0 -282 55.5t-103 145.5z" />
<glyph unicode="4" horiz-adv-x="1052" d="M55 432l652 868l96 -28v-797h164v-141h-164v-334h-242v332h-459zM217 487l8 -12h336v430l-22 13z" />
<glyph unicode="5" horiz-adv-x="987" d="M70 143q0 46 29 79.5t75 33.5q31 0 59.5 -17.5t51.5 -42t47 -49t56 -42t69 -17.5q77 0 137.5 76t60.5 194q0 130 -87.5 200.5t-209.5 70.5q-79 0 -161 -31l-37 37l57 647h528l54 80h63l-45 -311h-516l-16 -222l16 -16q22 15 66 28t92 13q86 0 162 -27t135 -78t93 -130 t34 -177q0 -145 -73.5 -253t-196.5 -163t-277 -55q-119 0 -192.5 44.5t-73.5 127.5z" />
<glyph unicode="6" horiz-adv-x="1087" d="M106 487q0 298 200.5 543t537.5 352l22 -88q-162 -68 -286 -199t-164 -278l33 -16q84 41 192 41q59 0 117.5 -23t112 -70t87 -131.5t33.5 -193.5q0 -91 -27 -167.5t-71.5 -128.5t-103 -88t-120 -52.5t-124.5 -16.5q-195 0 -317 133.5t-122 382.5zM379 399 q0 -162 46.5 -243.5t127.5 -81.5q87 0 132.5 80.5t45.5 238.5q0 170 -48 251t-124 81q-53 0 -87 -19t-62 -55q-31 -84 -31 -252z" />
<glyph unicode="7" horiz-adv-x="956" d="M80 918l94 364h700l39 -74q-133 -247 -245.5 -559.5t-165.5 -580.5q-8 -41 -54.5 -69t-113.5 -28q-62 0 -99.5 24.5t-21.5 74.5q83 228 218 480.5t284 471.5l-15 29h-475l-65 -133h-80z" />
<glyph unicode="8" horiz-adv-x="1085" d="M123 289q0 107 66.5 191t162.5 124v19q-107 75 -156 151.5t-49 181.5q0 142 112 246.5t288 104.5q163 0 269 -82t106 -211q0 -101 -49 -175t-152 -126v-17q242 -117 242 -350q0 -171 -115.5 -273t-312.5 -102q-179 0 -295.5 85t-116.5 233zM317 285q0 -95 55 -153 t156 -58q88 0 148.5 53t60.5 141q0 53 -25 99.5t-70.5 83.5t-92 64t-107.5 54q-51 -32 -88 -115t-37 -169zM371 1022q0 -106 62.5 -169.5t182.5 -111.5q99 96 99 267q0 96 -46.5 145t-121.5 49q-79 0 -127.5 -49t-48.5 -131z" />
<glyph unicode="9" horiz-adv-x="1087" d="M106 858q0 114 40.5 203t106.5 141t142 78.5t156 26.5q192 0 316 -145t124 -388q0 -161 -53.5 -308t-149.5 -262t-238 -191t-310 -95v80q168 48 275.5 166.5t168.5 306.5l-33 16q-73 -41 -188 -41q-68 0 -129 22.5t-113.5 68.5t-83.5 128.5t-31 192.5zM367 870 q0 -155 42 -236t117 -81q98 0 168 86q25 109 25 223q0 168 -51 258t-136 90q-78 0 -121.5 -87t-43.5 -253z" />
<glyph unicode=":" horiz-adv-x="790" d="M227 141q0 71 48 120.5t118 49.5q71 0 120.5 -49.5t49.5 -120.5q0 -70 -49.5 -118t-120.5 -48t-118.5 47.5t-47.5 118.5zM227 756q0 71 48 120.5t118 49.5q71 0 120.5 -50t49.5 -120t-49.5 -118t-120.5 -48t-118.5 48t-47.5 118z" />
<glyph unicode=";" horiz-adv-x="854" d="M244 -369q73 48 124.5 114t51.5 138q0 44 -18 75t-43.5 49l-51 36t-43.5 46.5t-18 68.5q0 62 42.5 101.5t106.5 39.5q97 0 169.5 -85t72.5 -218q0 -83 -33 -158t-86.5 -130t-108.5 -93.5t-112 -63.5zM256 756q0 71 48 120.5t118 49.5t120 -50t50 -120t-49.5 -118 t-120.5 -48q-70 0 -118 48t-48 118z" />
<glyph unicode="&#x3c;" d="M139 430v127l828 348v-178l-570 -233l570 -234v-178z" />
<glyph unicode="=" d="M139 260v168h828v-168h-828zM139 567v168h828v-168h-828z" />
<glyph unicode="&#x3e;" d="M139 82v178l570 234l-570 233v178l828 -348v-127z" />
<glyph unicode="?" horiz-adv-x="1081" d="M264 131q0 66 45 113t111 47t113 -47t47 -113t-47 -111t-113 -45t-111 45t-45 111zM313 1384q0 60 39 99t121 39q74 0 147 -33.5t131.5 -92t95 -148t36.5 -193.5q0 -96 -36 -168.5t-95.5 -113t-127 -60t-139.5 -19.5v-223h-137v471q393 0 393 164q0 71 -58.5 109 t-174.5 38q-195 0 -195 131z" />
<glyph unicode="@" horiz-adv-x="1957" d="M219 281q0 125 34 256t94 251t147.5 226.5t190 184.5t226 123.5t250.5 45.5q279 0 445 -156.5t166 -412.5q0 -139 -49 -261t-124.5 -204t-166 -141.5t-174 -87t-148.5 -27.5q-32 0 -55 10.5t-38.5 36.5t-8 79t40.5 130l-27 18q-81 -122 -164 -200t-149 -78 q-60 0 -92.5 50.5t-32.5 115.5q0 167 121 383q88 158 197.5 259t211.5 101q61 0 86 -57h14q16 32 37.5 43.5t77.5 11.5q87 0 86 -23q0 -5 -2 -10l-205 -651q-9 -24 4 -44t33 -20q29 0 71 21.5t91 68.5t90.5 111t69.5 160.5t28 204.5q0 55 -11 114t-42 126t-78 118.5t-127 86 t-182 34.5q-120 0 -236 -57t-208 -156t-162.5 -225t-109 -272t-38.5 -289q0 -234 106 -359t290 -125q83 0 179 28.5t165 70.5l47 -87q-83 -48 -188.5 -80t-206.5 -32q-275 0 -424.5 153.5t-149.5 432.5zM778 336q0 -39 13 -53.5t36 -14.5q51 0 161 149t179 335 q9 62 -6.5 96.5t-52.5 34.5q-22 0 -43 -10t-35.5 -20t-38.5 -39t-35 -44t-41 -57q-57 -79 -97 -185t-40 -192z" />
<glyph unicode="A" horiz-adv-x="1624" d="M82 0v72l162 51l489 1323h170l479 -1344l160 -30v-72h-651v72l170 30l-127 359h-442l-115 -338l184 -51v-72h-479zM524 557h377l-174 487h-33z" />
<glyph unicode="B" horiz-adv-x="1550" d="M147 0v76l185 30v1233l-185 31v76h715q55 0 113 -9.5t122 -35.5t113.5 -65t82 -103.5t32.5 -145.5q0 -42 -13.5 -85.5t-41 -86.5t-77.5 -77.5t-116 -51.5v-28q137 -28 221 -127.5t84 -245.5q0 -174 -143 -279.5t-383 -105.5h-709zM641 106h172q115 0 177.5 83t62.5 214 q0 130 -73.5 218t-207.5 88h-131v-603zM641 813h135q58 0 101.5 22t67.5 59.5t35 81t11 93.5q0 272 -227 272h-123v-528z" />
<glyph unicode="C" horiz-adv-x="1656" d="M164 721q0 169 64 311t173 237t254 148t308 53q114 0 245.5 -41t243.5 -104v-330h-84q-22 90 -66.5 162.5t-100.5 117.5t-117 69t-121 24q-95 0 -176.5 -39t-145.5 -116t-100.5 -202.5t-36.5 -287.5q0 -155 38 -279.5t100.5 -200t138 -115.5t155.5 -40q156 0 275 104 t175 263h82v-322q-133 -78 -256.5 -118t-298.5 -40q-158 0 -294 49.5t-237.5 142.5t-159.5 235.5t-58 318.5z" />
<glyph unicode="D" horiz-adv-x="1787" d="M147 0v76l185 30v1233l-185 31v76h707q360 0 565 -194t205 -535q0 -172 -59 -308.5t-164.5 -225.5t-250 -136t-316.5 -47h-687zM641 98h193q96 0 175.5 35t142 107.5t97.5 194.5t35 284q0 303 -119 466t-313 163h-211v-1250z" />
<glyph unicode="E" horiz-adv-x="1523" d="M147 0v76l185 30v1233l-185 31v76h1139l33 -354h-102l-177 262h-399v-541h279l81 197h84v-512h-84l-81 211h-279v-617h463l217 324h102l-73 -416h-1203z" />
<glyph unicode="F" horiz-adv-x="1460" d="M147 0v86l185 31v1212l-185 31v86h1180l33 -342h-103l-170 239h-446v-530h291l78 217h84v-553h-84l-78 232h-291v-592l193 -31v-86h-687z" />
<glyph unicode="G" horiz-adv-x="1765" d="M164 721q0 168 63.5 310.5t170 237.5t246.5 148t294 53q130 0 265.5 -40.5t248.5 -104.5v-330h-94q-52 172 -167 272.5t-251 100.5q-88 0 -164 -36.5t-138 -110.5t-98 -202t-36 -296q0 -134 23.5 -241.5t64 -180t98 -121t124 -70.5t142.5 -22q59 0 117.5 18t95.5 52v456 l-186 31v76h664v-76l-168 -31v-522q-76 -31 -138 -52t-187.5 -43t-260.5 -22q-154 0 -286.5 49.5t-231 142.5t-155 235.5t-56.5 318.5z" />
<glyph unicode="H" horiz-adv-x="1894" d="M147 0v76l185 30v1233l-185 31v76h678v-76l-184 -31v-526h612v526l-184 31v76h678v-76l-184 -31v-1233l184 -30v-76h-678v76l184 30v603h-612v-603l184 -30v-76h-678z" />
<glyph unicode="I" horiz-adv-x="972" d="M147 0v76l185 30v1233l-185 31v76h678v-76l-184 -31v-1233l184 -30v-76h-678z" />
<glyph unicode="J" horiz-adv-x="1062" d="M-98 -348q0 71 39 111t98 40q29 0 57 -13.5t50 -32.5t43 -37.5t44.5 -32t45.5 -13.5q57 0 93 54.5t36 144.5v1466l-222 31v76h729v-76l-198 -31v-1243q0 -99 -35 -192.5t-94.5 -165.5t-133.5 -127t-156 -84t-159 -29q-121 0 -179 42.5t-58 111.5z" />
<glyph unicode="K" horiz-adv-x="1730" d="M147 0v76l185 30v1233l-185 31v76h676v-76l-182 -31v-526h43l537 506l-181 51v76h506v-76l-192 -51l-457 -432l563 -778l189 -33v-76h-717v76l164 30l-400 578h-55v-578l182 -30v-76h-676z" />
<glyph unicode="L" horiz-adv-x="1449" d="M147 0v76l185 30v1233l-185 31v76h687v-76l-193 -31v-1247h393l238 332h102l-74 -424h-1153z" />
<glyph unicode="M" horiz-adv-x="2121" d="M123 0v76l168 51l108 1196l-190 45v78h485l340 -959h29l410 959h477v-78l-197 -49l59 -1213l187 -30v-76h-670v76l187 30l-50 998h-26l-467 -1104h-78l-387 1108h-25l-86 -981l181 -51v-76h-455z" />
<glyph unicode="N" horiz-adv-x="1779" d="M117 0v76l176 51v1212l-176 31v76h393l833 -940h29v813l-205 51v76h496v-76l-172 -51v-1331h-92l-959 1083h-28v-944l204 -51v-76h-499z" />
<glyph unicode="O" horiz-adv-x="1812" d="M164 721q0 169 59.5 311t161 237t236.5 148t286 53q215 0 382.5 -89t263.5 -260t96 -400q0 -145 -38.5 -267.5t-107 -210t-162 -148.5t-203.5 -90.5t-231 -29.5t-232 31t-204 93.5t-161.5 150.5t-107 209t-38.5 262zM514 723q0 -166 30.5 -292t85 -201t124 -111.5 t153.5 -36.5t153 35t123.5 108.5t84.5 200t30 297.5q0 324 -106.5 484.5t-284.5 160.5q-83 0 -153 -38t-124.5 -114.5t-85 -202.5t-30.5 -290z" />
<glyph unicode="P" horiz-adv-x="1447" d="M147 0v76l185 30v1233l-185 31v76h676q71 0 138.5 -14t132.5 -45.5t113.5 -78t78 -117.5t29.5 -157q0 -185 -134.5 -292t-367.5 -107h-170v-529l207 -30v-76h-703zM643 729h127q88 0 157.5 85.5t69.5 207.5q0 166 -66 241.5t-179 75.5h-109v-610z" />
<glyph unicode="Q" horiz-adv-x="1812" d="M164 721q0 169 59.5 311t161 237t236.5 148t286 53q215 0 382.5 -89t263.5 -260t96 -400q0 -149 -40 -273t-112 -212.5t-167.5 -148t-211.5 -87.5q26 -22 82.5 -81.5t99 -100.5t110.5 -76t136 -35q98 0 195 51l45 -71q-36 -22 -58 -34t-71 -34t-108.5 -32.5t-127.5 -10.5 q-81 0 -156 20.5t-130.5 49.5t-115.5 76.5t-99 86.5t-94.5 95.5t-90.5 87.5q-123 25 -226 84.5t-180.5 149.5t-121 217t-43.5 278zM514 723q0 -166 30.5 -292t85 -201t124 -111.5t153.5 -36.5t153 35t123.5 108.5t84.5 200t30 297.5q0 324 -106.5 484.5t-284.5 160.5 q-83 0 -153 -38t-124.5 -114.5t-85 -202.5t-30.5 -290z" />
<glyph unicode="R" horiz-adv-x="1636" d="M147 0v76l185 30v1233l-185 31v76h695q59 0 118.5 -9.5t127 -35.5t118.5 -66.5t85 -110t34 -157.5q0 -54 -16 -108t-49 -107.5t-92.5 -95t-137.5 -60.5v-22q47 -26 96.5 -102.5t87 -157.5t91 -171t104.5 -137l123 -30v-76h-406q-48 33 -93.5 104.5t-82.5 152.5t-74.5 161 t-83 144.5t-94.5 88.5h-57v-545l152 -30v-76h-646zM641 756h94q68 0 121 28.5t83 74.5t45 97.5t15 104.5q0 136 -65.5 207t-169.5 71h-123v-583z" />
<glyph unicode="S" horiz-adv-x="1384" d="M180 14v475h92q45 -171 162 -288q120 -123 285 -123q109 0 176.5 62t67.5 167q0 83 -72.5 155.5t-243.5 141.5q-232 94 -329 196t-97 273q0 70 33 140t92 127.5t151 93.5t199 36q156 0 332 -63l86 39h41l41 -461h-86q-72 193 -160 275q-114 106 -243 106q-102 0 -173 -56 t-71 -155q0 -166 364 -295q188 -68 282.5 -170.5t94.5 -279.5q0 -207 -139.5 -321t-359.5 -114q-85 0 -180 22.5t-163 57.5l-100 -41h-82z" />
<glyph unicode="T" horiz-adv-x="1632" d="M82 1020l88 426h1292l88 -426h-102l-231 338h-246v-1252l192 -30v-76h-694v76l193 30v1252h-246l-232 -338h-102z" />
<glyph unicode="U" horiz-adv-x="1748" d="M117 1370v76h678v-76l-185 -31v-837q0 -168 94.5 -277.5t258.5 -109.5q170 0 281.5 113.5t111.5 318.5v772l-182 51v76h458v-76l-159 -51v-787q0 -85 -19 -164t-61.5 -151t-105 -125.5t-156.5 -85t-209 -31.5q-302 0 -461.5 142t-159.5 375v847z" />
<glyph unicode="V" horiz-adv-x="1644" d="M92 1374v72h653v-72l-176 -31l328 -905h33l342 885l-191 51v72h471v-72l-151 -51l-516 -1323h-135l-498 1343z" />
<glyph unicode="W" horiz-adv-x="2115" d="M92 1374v72h598v-72l-129 -31l238 -847h35l163 536l-92 311l-119 31v72h617v-72l-193 -31l244 -847h35l270 827l-190 51v72h454v-72l-155 -51l-424 -1323h-139l-256 856l-261 -856h-139l-399 1343z" />
<glyph unicode="X" horiz-adv-x="1585" d="M92 0v76l187 51l389 528l-402 684l-174 31v76h707v-76l-207 -31l258 -438l307 418l-192 51v76h528v-76l-197 -51l-383 -524l406 -689l174 -30v-76h-707v76l205 30l-260 441l-307 -420l197 -51v-76h-529z" />
<glyph unicode="Y" horiz-adv-x="1521" d="M92 1370v76h641v-76l-174 -31l289 -563h33l284 543l-202 51v76h467v-76l-156 -51l-348 -668v-545l184 -30v-76h-678v76l184 30v545l-364 688z" />
<glyph unicode="Z" horiz-adv-x="1482" d="M127 51l821 1266l-14 31h-465l-238 -326h-102l96 424h1092l22 -39l-839 -1282l12 -27h512l240 326h102l-94 -424h-1120z" />
<glyph unicode="[" horiz-adv-x="993" d="M256 -477v1986q118 -11 293 -11t250 13v-125q-63 -10 -155 -10t-138 10v-1732q38 9 140 9t165 -9v-133q-89 12 -263.5 13t-291.5 -11z" />
<glyph unicode="\" horiz-adv-x="1024" d="M106 1503h197l615 -1753h-197z" />
<glyph unicode="]" horiz-adv-x="993" d="M182 -348q190 19 305 0v1734q-121 -20 -292 0v125q90 -13 242 -13t300 11v-1986q-305 25 -555 -2v131z" />
<glyph unicode="^" d="M72 643l454 772h56l452 -772l-160 -94l-311 559h-16l-318 -559z" />
<glyph unicode="_" horiz-adv-x="1236" d="M-6 -393h1249v-121h-1249v121z" />
<glyph unicode="`" horiz-adv-x="1024" d="M246 1311v41h233l176 -316v-37h-125z" />
<glyph unicode="a" horiz-adv-x="1292" d="M66 0v72l116 51l385 958h166l379 -979l123 -30v-72h-565v72l145 30l-78 211h-366l-76 -190l172 -51v-72h-401zM406 401h301l-140 383h-16z" />
<glyph unicode="b" horiz-adv-x="1257" d="M123 0v72l151 30v877l-151 31v71h600q155 0 255.5 -64.5t100.5 -189.5q0 -48 -18 -95t-64.5 -91t-113.5 -63v-23q109 -21 178 -92.5t69 -177.5q0 -128 -108 -206.5t-279 -78.5h-620zM553 102h100q93 0 141 54t48 143q0 93 -56 152t-168 59h-65v-408zM553 598h68 q170 0 170 205q0 176 -166 176h-72v-381z" />
<glyph unicode="c" horiz-adv-x="1306" d="M127 535q0 135 48 244t131.5 178.5t192.5 106t234 36.5q97 0 210 -32.5t212 -82.5v-268h-84q-97 282 -338 282q-138 0 -218.5 -120t-80.5 -342q0 -201 89.5 -327t217.5 -126q138 0 219 68t125 210h84v-260q-104 -62 -202 -94.5t-234 -32.5q-124 0 -232 34.5t-192.5 101.5 t-133 176t-48.5 248z" />
<glyph unicode="d" horiz-adv-x="1417" d="M123 0v72l151 30v877l-151 31v71h534q290 0 461.5 -147.5t171.5 -398.5q0 -129 -50 -231.5t-138 -168.5t-206 -100.5t-257 -34.5h-516zM559 102h80q61 0 112 13.5t96 46t76.5 81.5t49.5 124t18 170q0 209 -94 325.5t-242 116.5h-96v-877z" />
<glyph unicode="e" horiz-adv-x="1255" d="M123 0v72l151 30v877l-151 31v71h950l27 -274h-76l-143 180h-322v-385h193l75 141h60v-387h-60l-75 154h-193v-416h367l149 209h78l-43 -303h-987z" />
<glyph unicode="f" horiz-adv-x="1181" d="M123 0v72l151 30v877l-151 31v71h938l29 -274h-68l-156 180h-307v-385h201l76 141h59v-387h-59l-76 154h-201v-408l158 -30v-72h-594z" />
<glyph unicode="g" horiz-adv-x="1382" d="M127 535q0 129 48.5 236.5t131 178.5t192.5 110.5t234 39.5q97 0 210 -32.5t212 -82.5v-268h-84q-97 282 -338 282q-133 0 -216 -116.5t-83 -345.5q0 -206 83.5 -329.5t211.5 -123.5q98 0 152 41v324l-156 30v72h571v-72l-131 -30v-361q-196 -113 -436 -113 q-118 0 -226 38.5t-192 108t-134 177t-50 236.5z" />
<glyph unicode="h" horiz-adv-x="1552" d="M123 0v72l151 30v877l-151 31v71h586v-71l-150 -31v-377h434v377l-151 31v71h588v-71l-152 -31v-877l152 -30v-72h-588v72l151 30v408h-434v-408l150 -30v-72h-586z" />
<glyph unicode="i" horiz-adv-x="872" d="M143 0v72l152 30v877l-152 31v71h586v-71l-149 -31v-877l149 -30v-72h-586z" />
<glyph unicode="j" horiz-adv-x="888" d="M-90 -260q0 56 33 89.5t77 33.5q32 0 57.5 -12.5t42.5 -30.5t33 -35.5t37.5 -30t47.5 -12.5q94 0 94 137v1100l-162 31v71h596v-71l-150 -31v-842q0 -115 -48.5 -217.5t-123 -170t-163.5 -107t-172 -39.5q-90 0 -144.5 37t-54.5 100z" />
<glyph unicode="k" horiz-adv-x="1425" d="M123 0v72l151 30v877l-151 31v71h586v-71l-150 -31v-361h37l420 351l-129 41v71h411v-71l-133 -41l-366 -299l444 -572l121 -26v-72h-576v72l136 30l-328 439h-37v-439l129 -30v-72h-565z" />
<glyph unicode="l" horiz-adv-x="1167" d="M123 0v72l151 30v877l-151 31v71h594v-71l-158 -31v-885h297l168 225h78l-43 -319h-936z" />
<glyph unicode="m" horiz-adv-x="1841" d="M125 0v72l131 51l82 856l-154 31v71h439l282 -729h21l276 729h471v-71l-170 -31l60 -877l153 -30v-72h-586v72l154 30l-49 734h-25l-309 -838h-127l-321 838h-23l-70 -713l148 -51v-72h-383z" />
<glyph unicode="n" horiz-adv-x="1411" d="M113 0v72l114 51v856l-114 31v71h381l546 -704h25v581l-166 52v71h414v-71l-129 -52v-972h-174l-639 825h-25v-688l166 -51v-72h-399z" />
<glyph unicode="o" horiz-adv-x="1441" d="M127 535q0 137 48 246.5t130.5 178t189.5 104.5t228 36q127 0 234.5 -37t187.5 -107t125 -178t45 -243q0 -134 -48 -242t-130 -176.5t-188 -105t-226 -36.5q-123 0 -228.5 33.5t-188.5 100t-131 176t-48 250.5zM434 537q0 -134 29.5 -233.5t96 -159.5t163.5 -60 q135 0 211 123t76 330q0 213 -78 337.5t-209 124.5q-133 0 -211 -123.5t-78 -338.5z" />
<glyph unicode="p" horiz-adv-x="1222" d="M123 0v72l151 30v877l-151 31v71h620q52 0 101 -10t97.5 -33.5t84.5 -58.5t58 -90t22 -123q0 -146 -107.5 -229.5t-296.5 -83.5h-143v-351l168 -30v-72h-604zM559 545h88q71 0 123.5 59t52.5 152q0 111 -49.5 167t-130.5 56h-84v-434z" />
<glyph unicode="q" horiz-adv-x="1441" d="M127 535q0 137 48 246.5t130.5 178t189.5 104.5t228 36q127 0 234.5 -37t187.5 -107t125 -178t45 -243q0 -204 -105 -339.5t-278 -189.5q37 -25 86 -69.5t82 -74.5t80.5 -53.5t95.5 -23.5q121 0 194 43l29 -74q-148 -94 -299 -94q-42 0 -83.5 6t-83.5 21t-74.5 27.5 t-75.5 39.5t-67.5 42t-68.5 49.5t-60.5 47.5t-61 51t-54.5 46q-200 36 -322 173.5t-122 371.5zM434 537q0 -134 29.5 -233.5t96 -159.5t163.5 -60q135 0 211 123t76 330q0 213 -78 337.5t-209 124.5q-133 0 -211 -123.5t-78 -338.5z" />
<glyph unicode="r" horiz-adv-x="1376" d="M123 0v72l151 30v877l-151 31v71h635q42 0 85.5 -7t93.5 -26t88 -48.5t63.5 -80.5t25.5 -116q0 -92 -62.5 -167.5t-166.5 -98.5v-19q31 -15 64 -54.5t63 -90t60 -102t66 -99.5t70 -74l97 -30v-68h-332q-45 24 -85.5 78t-71 116t-60 123.5t-65 110t-73.5 64.5h-65v-390 l149 -30v-72h-579zM553 584h88q91 0 139.5 58t48.5 155q0 96 -45.5 139t-119.5 43h-111v-395z" />
<glyph unicode="s" horiz-adv-x="1165" d="M172 6v373h82q42 -151 128 -230t214 -79q170 0 170 141q0 131 -217 205q-202 70 -283.5 155t-81.5 195q0 62 25 121.5t71.5 107t119.5 76.5t161 29q43 0 85 -7t65 -14t59 -19.5t45 -15.5l76 37h43l37 -342h-80q-45 133 -128.5 199t-180.5 66q-78 0 -122 -35.5t-44 -102.5 q0 -70 61.5 -116t222.5 -101q166 -56 231.5 -136.5t65.5 -199.5q0 -162 -115.5 -250t-299.5 -88q-155 0 -277 68l-65 -37h-68z" />
<glyph unicode="t" horiz-adv-x="1259" d="M66 762l38 319h1051l39 -319h-78l-155 229h-189v-889l158 -30v-72h-600v72l157 30v889h-188l-158 -229h-75z" />
<glyph unicode="u" horiz-adv-x="1376" d="M82 1010v71h586v-71l-150 -31v-629q0 -116 62 -188t180 -72q132 0 212.5 74.5t80.5 216.5v577l-162 52v71h403v-71l-120 -52v-606q0 -52 -16 -104.5t-52 -102t-87.5 -87t-127.5 -60.5t-166 -23q-233 0 -362.5 94t-129.5 277v633z" />
<glyph unicode="v" horiz-adv-x="1292" d="M72 1010v71h567v-71l-154 -31l250 -666h17l262 645l-174 52v71h401v-71l-119 -52l-385 -958h-162l-382 979z" />
<glyph unicode="w" horiz-adv-x="1783" d="M72 1010v71h518v-71l-111 -31l189 -606h26l158 436l-55 170l-97 31v71h549v-71l-168 -31l187 -606h26l209 585l-147 52v71h377v-71l-121 -52l-342 -958h-154l-219 672l-225 -672h-160l-317 979z" />
<glyph unicode="x" horiz-adv-x="1372" d="M92 0v72l166 51l309 358l-336 498l-139 31v71h604v-71l-149 -31l196 -293l236 272l-129 52v71h430v-71l-170 -52l-309 -358l338 -498l141 -30v-72h-604v72l147 30l-198 293l-234 -272l131 -51v-72h-430z" />
<glyph unicode="y" horiz-adv-x="1277" d="M72 1010v71h583v-71l-153 -31l225 -401h29l215 380l-150 52v71h385v-71l-129 -52l-280 -509v-351l151 -30v-68h-588v68l152 30v346l-315 535z" />
<glyph unicode="z" horiz-adv-x="1232" d="M96 41l654 922l-13 24h-364l-176 -246h-78l61 340h924l20 -30l-669 -936l10 -21h414l170 246h77l-61 -340h-948z" />
<glyph unicode="{" horiz-adv-x="1157" d="M190 506v106q132 0 223 82.5t91 192.5q0 67 -42 180.5t-42 177.5q0 146 118 206t404 60v-110q-124 0 -190 -36t-66 -122q0 -76 36 -197.5t36 -168.5q0 -111 -98.5 -192.5t-241.5 -109.5v-24q138 -16 239 -106.5t101 -217.5q0 -53 -36 -185.5t-36 -209.5q0 -88 60 -138 t208 -50v-111q-128 0 -221.5 13t-154.5 36.5t-97 61.5t-50.5 82.5t-14.5 105.5q0 72 44 200.5t44 190.5q0 133 -87.5 208t-226.5 75z" />
<glyph unicode="|" d="M457 -471v2007h192v-2007h-192z" />
<glyph unicode="}" horiz-adv-x="1157" d="M203 -356q148 0 208 50t60 138q0 77 -36 209.5t-36 185.5q0 127 101 217.5t239 106.5v24q-143 28 -241.5 109.5t-98.5 192.5q0 47 36 168.5t36 197.5q0 86 -66 122t-190 36v110q286 0 404 -60t118 -206q0 -64 -42 -177.5t-42 -180.5q0 -110 91 -192.5t223 -82.5v-106 q-139 0 -226.5 -75t-87.5 -208q0 -62 44 -190.5t44 -200.5q0 -77 -23.5 -129.5t-83 -92.5t-165.5 -58.5t-266 -18.5v111z" />
<glyph unicode="~" d="M72 418q36 121 125.5 243.5t144.5 122.5q41 0 103.5 -25.5t116.5 -56t116 -56t102 -25.5q50 0 104 51t77 112l73 -28q-42 -142 -129.5 -252.5t-165.5 -110.5q-47 0 -215 81t-215 81q-24 0 -45.5 -12.5t-42 -41.5t-33 -50.5t-34.5 -65.5z" />
<glyph unicode="&#xa1;" horiz-adv-x="933" d="M309 -342l92 1032h131l93 -1032h-316zM309 1030q0 66 47 111t113 45t111 -45t45 -111t-45 -113t-111 -47t-113 47t-47 113z" />
<glyph unicode="&#xa2;" horiz-adv-x="1116" d="M170 629q0 180 104.5 304t264.5 148v201h69v-197q144 -1 228 -64t84 -151q0 -48 -33.5 -80t-87.5 -32q-37 0 -60 22t-34.5 54.5t-21 66t-28 62t-47.5 36.5v-634q21 -3 43 -3q154 0 244 142l51 -37q-49 -114 -134.5 -183.5t-203.5 -82.5v-201h-69v199q-156 8 -262.5 125 t-106.5 305zM399 678q0 -234 140 -295v612q-62 -22 -101 -102.5t-39 -214.5z" />
<glyph unicode="&#xa3;" horiz-adv-x="1306" d="M195 39q0 55 60 102.5t165 65.5q65 88 65 231q0 84 -51 207h-203v88h166q-63 153 -63 234q0 85 33 152t88.5 107t122 60.5t139.5 20.5q152 0 237.5 -63.5t85.5 -141.5q0 -50 -34 -79.5t-78 -29.5q-49 0 -79 25t-42.5 60.5t-22.5 71t-30.5 60.5t-55.5 25q-50 0 -84 -47.5 t-34 -120.5q0 -48 10.5 -98.5t19.5 -77t33 -85.5t29 -73h243v-88h-217q13 -50 13 -96q0 -59 -15.5 -107t-43.5 -81.5t-50.5 -52.5t-52.5 -38l14 -22q51 31 96 31q39 0 75.5 -18t65 -43.5t55.5 -51.5t59.5 -44t66.5 -18q32 0 52 17.5t20 50.5q0 21 -13.5 39t-32.5 33 t-37.5 30.5t-32 38t-13.5 49.5q0 35 24 62t64 27q64 0 107.5 -72t43.5 -166q0 -112 -82.5 -175t-212.5 -63q-128 0 -243 57t-168 122h-8q-29 -83 -82.5 -131t-104.5 -48q-67 0 -67 64z" />
<glyph unicode="&#xa4;" horiz-adv-x="1462" d="M256 941.5q2 20.5 15.5 38.5t32 33t37.5 16.5t32 -9.5l94 -96q120 86 264 86q145 0 258 -80l88 92q21 22 59.5 -0.5t60 -62.5t1.5 -60l-92 -88q78 -115 78 -254q0 -143 -86 -266l98 -94q13 -13 11.5 -34t-14.5 -39.5t-31 -33.5t-37 -16.5t-33 10.5l-103 102 q-114 -82 -258 -82q-141 0 -254 74l-86 -90q-13 -15 -35.5 -13t-42.5 16.5t-36 34t-18.5 40t11.5 35.5l90 88q-81 113 -81 268q0 142 81 260l-92 90q-14 14 -12 34.5zM422 555q0 -143 86 -236.5t225 -93.5q129 0 216 94.5t87 235.5q0 146 -86.5 239t-218.5 93 q-144 0 -226.5 -94t-82.5 -238z" />
<glyph unicode="&#xa5;" horiz-adv-x="1421" d="M113 1217v65h567v-65l-158 -29l254 -494h29l250 477l-170 46v65h411v-65l-145 -46l-301 -593v-9h237v-84h-237v-100h237v-84h-237v-207l164 -28v-66h-600v66l164 28v207h-238v84h238v100h-238v84h238v9l-330 610z" />
<glyph unicode="&#xa6;" d="M457 246h192v-717h-192v717zM457 819v717h192v-717h-192z" />
<glyph unicode="&#xa7;" horiz-adv-x="1402" d="M248 631q0 88 37 163t114 152q-112 105 -112 223q0 53 26 104.5t75 96.5t132 72.5t187 27.5q92 0 187.5 -27t168.5 -77v-309h-78q-43 163 -120 238t-173 75q-71 0 -115.5 -42t-44.5 -101q0 -45 34.5 -89t89.5 -82.5t121 -78.5t132.5 -86t121.5 -97t89.5 -118.5 t34.5 -143.5q0 -155 -166 -301q129 -114 129 -251q0 -79 -37 -140.5t-99 -98t-135 -55t-151 -18.5q-91 0 -196.5 27.5t-190.5 77.5v309h78q47 -163 132.5 -238t189.5 -75q77 0 126.5 38.5t49.5 104.5q0 46 -35 91.5t-91.5 84.5t-124.5 80.5t-135.5 89.5t-124 100.5 t-91.5 123t-35 149.5zM434 723q0 -51 33.5 -103t105 -108.5t138.5 -100t178 -108.5q51 62 51 131q0 28 -7.5 54t-18 47.5t-36 48t-45.5 45t-64.5 50.5t-74.5 53t-93 64t-105 72q-62 -62 -62 -145z" />
<glyph unicode="&#xa8;" horiz-adv-x="1024" d="M182 1180q0 54 41 95.5t94 41.5q56 0 96 -41t40 -96q0 -53 -40 -93t-96 -40q-53 0 -94 40.5t-41 92.5zM571 1180q0 54 41.5 95.5t96.5 41.5q50 0 91.5 -42t41.5 -95q0 -52 -41.5 -92.5t-91.5 -40.5q-55 0 -96.5 40t-41.5 93z" />
<glyph unicode="&#xa9;" horiz-adv-x="1624" d="M182 606q0 169 85 314t230.5 230t315.5 85q133 0 250.5 -50t200 -135t130.5 -201t48 -243q0 -170 -85 -315.5t-230 -230.5t-314 -85q-172 0 -316 79.5t-229.5 225t-85.5 326.5zM303 602q0 -226 143.5 -375t368.5 -149q226 0 366 148.5t140 375.5q0 232 -144.5 383.5 t-363.5 151.5q-222 0 -366 -153t-144 -382zM463 608q0 156 108 252t269 96q123 0 254 -71v-158h-58q-30 87 -78.5 120.5t-117.5 33.5q-84 0 -135.5 -66t-51.5 -205q0 -131 57.5 -200.5t133.5 -69.5q83 0 130.5 36t74.5 116h53v-152q-64 -40 -120.5 -60t-135.5 -20 q-161 0 -272 93.5t-111 254.5z" />
<glyph unicode="&#xaa;" horiz-adv-x="966" d="M76 535v61l78 35l266 651h141l264 -666l66 -20v-61h-348v61l78 20l-56 144h-264l-51 -129l104 -35v-61h-278zM330 836h207l-95 254h-10z" />
<glyph unicode="&#xab;" horiz-adv-x="1378" d="M231 444v48l383 448l91 -57l-213 -396v-30l213 -406l-91 -59zM655 444v48l383 448l90 -57l-213 -396v-30l213 -406l-90 -59z" />
<glyph unicode="&#xac;" d="M78 469v172h936v-535h-183v363h-753z" />
<glyph unicode="&#xad;" horiz-adv-x="827" d="M158 416v198h512v-198h-512z" />
<glyph unicode="&#xae;" horiz-adv-x="1224" d="M174 1030q0 180 129 309t309 129q187 0 313 -128t126 -310q0 -180 -129.5 -309t-309.5 -129q-183 0 -310.5 124.5t-127.5 313.5zM264 1028q0 -155 98 -256.5t252 -101.5q144 0 245.5 103t101.5 255q0 157 -101 259t-248 102q-159 0 -253.5 -102t-94.5 -259zM385 801v41 l55 14v375l-55 14v41h248q24 0 51 -5.5t56 -18.5t48 -39.5t19 -63.5q0 -39 -32.5 -73.5t-78.5 -45.5v-16q23 -13 71 -81.5t67 -86.5l30 -14v-41h-123q-24 19 -53.5 66t-59 89t-59.5 54h-16v-154l65 -14v-41h-233zM553 1063h43q42 0 63 28t21 64q0 40 -24.5 58t-57.5 18h-45 v-168z" />
<glyph unicode="&#xaf;" horiz-adv-x="1024" d="M262 999v162h500v-162h-500z" />
<glyph unicode="&#xb0;" horiz-adv-x="935" d="M174 1012q0 121 86.5 208t206.5 87q121 0 208 -86.5t87 -208.5q0 -120 -87 -206.5t-208 -86.5q-120 0 -206.5 86.5t-86.5 206.5zM313 1012q0 -69 43 -118.5t109 -49.5q68 0 112 49.5t44 118.5q0 71 -44 121.5t-112 50.5q-66 0 -109 -50.5t-43 -121.5z" />
<glyph unicode="&#xb1;" d="M139 0v168h828v-168h-828zM139 553v168h330v287h168v-287h330v-168h-330v-287h-168v287h-330z" />
<glyph unicode="&#xb2;" horiz-adv-x="905" d="M139 723q66 57 140.5 140t140 189t65.5 175q0 54 -20.5 78t-65.5 24q-79 0 -170 -104l-47 39q57 81 146 143.5t188 62.5q79 0 129.5 -42t50.5 -123q0 -164 -299 -424l9 -17h219l80 94l51 -16l-86 -258h-516z" />
<glyph unicode="&#xb3;" horiz-adv-x="858" d="M160 797q0 32 19 51.5t50 19.5q29 0 51.5 -18t35.5 -39t35.5 -39t51.5 -18q45 0 77 30t32 93q0 58 -29.5 101.5t-64.5 58t-58 1.5l-34 -14l-35 66q196 74 196 184q0 32 -20.5 52t-56.5 20q-88 0 -162 -80l-39 37q37 62 122 116t177 54q70 0 117 -37t47 -107 q0 -96 -140 -176v-12q76 -29 123 -92t47 -146q0 -59 -29 -105t-75.5 -72t-98 -39t-102.5 -13q-110 0 -173.5 37.5t-63.5 85.5z" />
<glyph unicode="&#xb4;" horiz-adv-x="1024" d="M369 999v37l176 316h233v-41l-284 -312h-125z" />
<glyph unicode="&#xb6;" horiz-adv-x="1402" d="M137 983q0 197 145.5 330t379.5 133h610v-131q-68 0 -107 -50.5t-39 -123.5v-1463h-161v1637h-115v-1637h-162v820q-265 0 -408 127t-143 358zM438 979q0 -172 65 -270.5t185 -98.5v705q-112 0 -181 -92.5t-69 -243.5z" />
<glyph unicode="&#xb7;" horiz-adv-x="790" d="M227 565q0 71 48 120.5t118 49.5q71 0 120.5 -49.5t49.5 -120.5q0 -70 -49.5 -118t-120.5 -48t-118.5 47.5t-47.5 118.5z" />
<glyph unicode="&#xb8;" horiz-adv-x="1024" d="M348 -215l127 256h113l-72 -154q93 0 147 -34t54 -103q0 -92 -92.5 -161t-221.5 -89l-16 66q80 16 132 49t52 74q0 42 -40 64t-101 22q-40 0 -72 -4z" />
<glyph unicode="&#xb9;" horiz-adv-x="811" d="M160 1339v70q82 2 185.5 18t152.5 43l37 -30v-656l141 -30v-70h-490v70l150 30v545q-40 -9 -94 -5.5t-82 15.5z" />
<glyph unicode="&#xba;" horiz-adv-x="921" d="M68 915q0 178 112.5 285t282.5 107q173 0 282 -106t109 -286q0 -184 -110.5 -285.5t-280.5 -101.5q-172 0 -283.5 102.5t-111.5 284.5zM285 915q0 -134 53 -213t125 -79q73 0 123.5 73.5t50.5 218.5q0 142 -51 223t-123 81t-125 -81.5t-53 -222.5z" />
<glyph unicode="&#xbb;" horiz-adv-x="1378" d="M250 51l213 406v30l-213 396l90 57l383 -448v-48l-383 -452zM674 51l213 406v30l-213 396l90 57l383 -448v-48l-383 -452z" />
<glyph unicode="&#xbc;" horiz-adv-x="1474" d="M51 1237v66q80 2 169 18t142 43l37 -31v-686l129 -31v-63h-450v63l149 31v580q-40 -9 -94 -5.5t-82 15.5zM102 -246l1188 1602l82 -68l-1182 -1607zM649 -74l469 574l72 -19v-514h108v-98h-108v-197h-172v197h-350zM813 -14l12 -19h193v250l-10 6z" />
<glyph unicode="&#xbd;" horiz-adv-x="1474" d="M51 1237v66q80 2 169 18t142 43l37 -31v-686l129 -31v-63h-450v63l149 31v580q-40 -9 -94 -5.5t-82 15.5zM102 -246l1188 1602l82 -68l-1182 -1607zM752 -289q48 41 109 105.5t122 141t102 155.5t41 133q0 53 -26.5 82.5t-75.5 29.5q-41 0 -94 -40t-90 -89l-45 35 q162 228 344 228q83 0 128.5 -46t45.5 -120q0 -41 -19 -90t-44.5 -91t-67 -94t-70 -83.5t-70.5 -76.5t-53 -57l8 -16h250l56 69l45 -16l-66 -199h-516z" />
<glyph unicode="&#xbe;" horiz-adv-x="1474" d="M84 674q0 21 16.5 39t44.5 18q30 0 54 -19t38 -41.5t39.5 -41.5t57.5 -19q43 0 79 39t36 123q0 77 -63 124.5t-114 25.5l-41 -19l-32 60q99 53 158 105t59 108q0 31 -24.5 53t-63.5 22q-42 0 -89 -30.5t-79 -69.5l-35 41q42 62 125.5 116t165.5 54q75 0 125.5 -38 t50.5 -112q0 -51 -45.5 -99.5t-102.5 -82.5v-12q79 -29 126.5 -87t47.5 -138q0 -64 -28.5 -114.5t-75 -78.5t-99 -42.5t-108.5 -14.5q-105 0 -164 36.5t-59 94.5zM102 -246l1188 1602l82 -68l-1182 -1607zM649 -74l469 574l72 -19v-514h108v-98h-108v-197h-172v197h-350z M813 -14l12 -19h193v250l-10 6z" />
<glyph unicode="&#xbf;" horiz-adv-x="1081" d="M264 106q0 96 36 168.5t95.5 113t127 60t139.5 19.5v223h137v-471q-393 0 -393 -164q0 -71 58.5 -109t174.5 -38q195 0 195 -131q0 -60 -39 -98.5t-121 -38.5q-74 0 -147 33t-131.5 91.5t-95 148t-36.5 193.5zM567 1030q0 66 47 111t113 45t111 -45t45 -111t-45 -113 t-111 -47t-113 47t-47 113z" />
<glyph unicode="&#xc0;" horiz-adv-x="1624" d="M82 0v72l162 51l489 1323h170l479 -1344l160 -30v-72h-651v72l170 30l-127 359h-442l-115 -338l184 -51v-72h-479zM524 557h377l-174 487h-33zM563 1860v41h234l176 -316v-37h-125z" />
<glyph unicode="&#xc1;" horiz-adv-x="1624" d="M82 0v72l162 51l489 1323h170l479 -1344l160 -30v-72h-651v72l170 30l-127 359h-442l-115 -338l184 -51v-72h-479zM524 557h377l-174 487h-33zM686 1548v37l176 316h234v-41l-285 -312h-125z" />
<glyph unicode="&#xc2;" horiz-adv-x="1624" d="M82 0v72l162 51l489 1323h170l479 -1344l160 -30v-72h-651v72l170 30l-127 359h-442l-115 -338l184 -51v-72h-479zM524 557h377l-174 487h-33zM543 1548v37l237 316h99l237 -316v-37h-67l-220 176l-219 -176h-67z" />
<glyph unicode="&#xc3;" horiz-adv-x="1624" d="M82 0v72l162 51l489 1323h170l479 -1344l160 -30v-72h-651v72l170 30l-127 359h-442l-115 -338l184 -51v-72h-479zM496 1608q23 88 84 175t98 87q43 0 148 -57.5t147 -57.5q32 0 69 40.5t50 80.5l73 -21q-28 -106 -87.5 -186t-112.5 -80q-34 0 -145.5 56.5t-145.5 56.5 q-29 0 -50 -29.5t-49 -89.5zM524 557h377l-174 487h-33z" />
<glyph unicode="&#xc4;" horiz-adv-x="1624" d="M82 0v72l162 51l489 1323h170l479 -1344l160 -30v-72h-651v72l170 30l-127 359h-442l-115 -338l184 -51v-72h-479zM500 1729q0 54 41 95.5t94 41.5q56 0 95.5 -41t39.5 -96q0 -53 -39.5 -93.5t-95.5 -40.5q-53 0 -94 41t-41 93zM524 557h377l-174 487h-33zM889 1729 q0 54 41 95.5t96 41.5q50 0 91.5 -42t41.5 -95q0 -52 -41.5 -93t-91.5 -41q-55 0 -96 40.5t-41 93.5z" />
<glyph unicode="&#xc5;" horiz-adv-x="1624" d="M82 0v72l162 51l489 1323h170l479 -1344l160 -30v-72h-651v72l170 30l-127 359h-442l-115 -338l184 -51v-72h-479zM524 557h377l-174 487h-33zM616 1749q0 89 61.5 151t149.5 62q89 0 151 -62t62 -151q0 -88 -62 -149.5t-151 -61.5q-88 0 -149.5 61.5t-61.5 149.5z M721 1749q0 -48 29 -80.5t75 -32.5q50 0 80.5 32.5t30.5 80.5q0 51 -30.5 84t-80.5 33q-46 0 -75 -33.5t-29 -83.5z" />
<glyph unicode="&#xc6;" horiz-adv-x="2119" d="M82 0v72l164 51l682 1202v14l-185 31v76h1139l33 -354h-103l-176 262h-399v-541h279l81 197h84v-512h-84l-81 211h-279v-617h463l217 324h102l-73 -416h-1203v76l185 30v355h-365l-190 -338l188 -51v-72h-479zM616 557h312v551z" />
<glyph unicode="&#xc7;" horiz-adv-x="1656" d="M164 721q0 169 64 311t173 237t254 148t308 53q114 0 245.5 -41t243.5 -104v-330h-84q-22 90 -66.5 162.5t-100.5 117.5t-117 69t-121 24q-95 0 -176.5 -39t-145.5 -116t-100.5 -202.5t-36.5 -287.5q0 -155 38 -279.5t100.5 -200t138 -115.5t155.5 -40q156 0 275 104 t175 263h82v-322q-124 -74 -238.5 -113t-271.5 -43l-40 -90q93 0 146.5 -34t53.5 -103q0 -92 -92 -161t-221 -89l-17 66q80 16 132.5 49t52.5 74q0 42 -40.5 64t-101.5 22q-39 0 -71 -4l-10 14l94 192q-146 10 -269.5 64t-215.5 146.5t-143.5 229.5t-51.5 304z" />
<glyph unicode="&#xc8;" horiz-adv-x="1523" d="M147 0v76l185 30v1233l-185 31v76h1139l33 -354h-102l-177 262h-399v-541h279l81 197h84v-512h-84l-81 211h-279v-617h463l217 324h102l-73 -416h-1203zM569 1860v41h234l176 -316v-37h-125z" />
<glyph unicode="&#xc9;" horiz-adv-x="1523" d="M147 0v76l185 30v1233l-185 31v76h1139l33 -354h-102l-177 262h-399v-541h279l81 197h84v-512h-84l-81 211h-279v-617h463l217 324h102l-73 -416h-1203zM692 1548v37l176 316h234v-41l-285 -312h-125z" />
<glyph unicode="&#xca;" horiz-adv-x="1523" d="M147 0v76l185 30v1233l-185 31v76h1139l33 -354h-102l-177 262h-399v-541h279l81 197h84v-512h-84l-81 211h-279v-617h463l217 324h102l-73 -416h-1203zM549 1548v37l237 316h99l237 -316v-37h-67l-219 176l-220 -176h-67z" />
<glyph unicode="&#xcb;" horiz-adv-x="1523" d="M147 0v76l185 30v1233l-185 31v76h1139l33 -354h-102l-177 262h-399v-541h279l81 197h84v-512h-84l-81 211h-279v-617h463l217 324h102l-73 -416h-1203zM506 1729q0 54 41 95.5t94 41.5q56 0 95.5 -41t39.5 -96q0 -53 -39.5 -93.5t-95.5 -40.5q-53 0 -94 41t-41 93z M895 1729q0 54 41 95.5t96 41.5q50 0 91.5 -42t41.5 -95q0 -52 -41.5 -93t-91.5 -41q-55 0 -96 40.5t-41 93.5z" />
<glyph unicode="&#xcc;" horiz-adv-x="972" d="M147 0v76l185 30v1233l-185 31v76h678v-76l-184 -31v-1233l184 -30v-76h-678zM219 1860v41h234l176 -316v-37h-125z" />
<glyph unicode="&#xcd;" horiz-adv-x="972" d="M147 0v76l185 30v1233l-185 31v76h678v-76l-184 -31v-1233l184 -30v-76h-678zM342 1548v37l176 316h234v-41l-285 -312h-125z" />
<glyph unicode="&#xce;" horiz-adv-x="972" d="M147 0v76l185 30v1233l-185 31v76h678v-76l-184 -31v-1233l184 -30v-76h-678zM199 1548v37l237 316h99l237 -316v-37h-67l-220 176l-219 -176h-67z" />
<glyph unicode="&#xcf;" horiz-adv-x="972" d="M147 0v76l185 30v1233l-185 31v76h678v-76l-184 -31v-1233l184 -30v-76h-678zM156 1729q0 54 41 95.5t94 41.5q56 0 95.5 -41t39.5 -96q0 -53 -39.5 -93.5t-95.5 -40.5q-53 0 -94 41t-41 93zM545 1729q0 54 41 95.5t96 41.5q50 0 91.5 -42t41.5 -95q0 -52 -41.5 -93 t-91.5 -41q-55 0 -96 40.5t-41 93.5z" />
<glyph unicode="&#xd0;" horiz-adv-x="1787" d="M115 664v112h217v563l-185 31v76h707q360 0 565 -194t205 -535q0 -172 -59 -308.5t-164.5 -225.5t-250 -136t-316.5 -47h-687v76l185 30v558h-217zM641 98h193q96 0 175.5 35t142 107.5t97.5 194.5t35 284q0 303 -119 466t-313 163h-211v-572h274v-112h-274v-566z" />
<glyph unicode="&#xd1;" horiz-adv-x="1779" d="M117 0v76l176 51v1212l-176 31v76h393l833 -940h29v813l-205 51v76h496v-76l-172 -51v-1331h-92l-959 1083h-28v-944l204 -51v-76h-499zM573 1608q23 88 84.5 175t98.5 87q43 0 148 -57.5t147 -57.5q32 0 68.5 40.5t49.5 80.5l74 -21q-28 -106 -88 -186t-113 -80 q-34 0 -145 56.5t-145 56.5q-29 0 -50 -29.5t-49 -89.5z" />
<glyph unicode="&#xd2;" horiz-adv-x="1812" d="M164 721q0 169 59.5 311t161 237t236.5 148t286 53q215 0 382.5 -89t263.5 -260t96 -400q0 -145 -38.5 -267.5t-107 -210t-162 -148.5t-203.5 -90.5t-231 -29.5t-232 31t-204 93.5t-161.5 150.5t-107 209t-38.5 262zM514 723q0 -166 30.5 -292t85 -201t124 -111.5 t153.5 -36.5t153 35t123.5 108.5t84.5 200t30 297.5q0 324 -106.5 484.5t-284.5 160.5q-83 0 -153 -38t-124.5 -114.5t-85 -202.5t-30.5 -290zM639 1860v41h233l177 -316v-37h-125z" />
<glyph unicode="&#xd3;" horiz-adv-x="1812" d="M164 721q0 169 59.5 311t161 237t236.5 148t286 53q215 0 382.5 -89t263.5 -260t96 -400q0 -145 -38.5 -267.5t-107 -210t-162 -148.5t-203.5 -90.5t-231 -29.5t-232 31t-204 93.5t-161.5 150.5t-107 209t-38.5 262zM514 723q0 -166 30.5 -292t85 -201t124 -111.5 t153.5 -36.5t153 35t123.5 108.5t84.5 200t30 297.5q0 324 -106.5 484.5t-284.5 160.5q-83 0 -153 -38t-124.5 -114.5t-85 -202.5t-30.5 -290zM762 1548v37l176 316h233v-41l-284 -312h-125z" />
<glyph unicode="&#xd4;" horiz-adv-x="1812" d="M164 721q0 169 59.5 311t161 237t236.5 148t286 53q215 0 382.5 -89t263.5 -260t96 -400q0 -145 -38.5 -267.5t-107 -210t-162 -148.5t-203.5 -90.5t-231 -29.5t-232 31t-204 93.5t-161.5 150.5t-107 209t-38.5 262zM514 723q0 -166 30.5 -292t85 -201t124 -111.5 t153.5 -36.5t153 35t123.5 108.5t84.5 200t30 297.5q0 324 -106.5 484.5t-284.5 160.5q-83 0 -153 -38t-124.5 -114.5t-85 -202.5t-30.5 -290zM618 1548v37l238 316h98l238 -316v-37h-68l-219 176l-219 -176h-68z" />
<glyph unicode="&#xd5;" horiz-adv-x="1812" d="M164 721q0 169 59.5 311t161 237t236.5 148t286 53q215 0 382.5 -89t263.5 -260t96 -400q0 -145 -38.5 -267.5t-107 -210t-162 -148.5t-203.5 -90.5t-231 -29.5t-232 31t-204 93.5t-161.5 150.5t-107 209t-38.5 262zM514 723q0 -166 30.5 -292t85 -201t124 -111.5 t153.5 -36.5t153 35t123.5 108.5t84.5 200t30 297.5q0 324 -106.5 484.5t-284.5 160.5q-83 0 -153 -38t-124.5 -114.5t-85 -202.5t-30.5 -290zM571 1608q23 88 84.5 175t98.5 87q43 0 148 -57.5t147 -57.5q32 0 68.5 40.5t49.5 80.5l74 -21q-28 -106 -88 -186t-113 -80 q-34 0 -145 56.5t-145 56.5q-29 0 -50 -29.5t-49 -89.5z" />
<glyph unicode="&#xd6;" horiz-adv-x="1812" d="M164 721q0 169 59.5 311t161 237t236.5 148t286 53q215 0 382.5 -89t263.5 -260t96 -400q0 -145 -38.5 -267.5t-107 -210t-162 -148.5t-203.5 -90.5t-231 -29.5t-232 31t-204 93.5t-161.5 150.5t-107 209t-38.5 262zM514 723q0 -166 30.5 -292t85 -201t124 -111.5 t153.5 -36.5t153 35t123.5 108.5t84.5 200t30 297.5q0 324 -106.5 484.5t-284.5 160.5q-83 0 -153 -38t-124.5 -114.5t-85 -202.5t-30.5 -290zM575 1729q0 54 41.5 95.5t94.5 41.5q56 0 95.5 -41t39.5 -96q0 -53 -39.5 -93.5t-95.5 -40.5q-53 0 -94.5 41t-41.5 93zM965 1729 q0 54 41 95.5t96 41.5q50 0 91.5 -42t41.5 -95q0 -52 -41.5 -93t-91.5 -41q-55 0 -96 40.5t-41 93.5z" />
<glyph unicode="&#xd7;" d="M172 231l262 263l-262 262l119 118l262 -262l262 262l119 -118l-262 -262l262 -263l-119 -118l-262 262l-262 -262z" />
<glyph unicode="&#xd8;" horiz-adv-x="1812" d="M164 721q0 169 59.5 311t161 237t236.5 148t286 53q250 0 430 -118l131 164h154l-190 -238q217 -204 217 -557q0 -145 -38.5 -267.5t-107 -210t-162 -148.5t-203.5 -90.5t-231 -29.5q-241 0 -424 115l-145 -180h-154l203 254q-223 207 -223 557zM514 723q0 -204 45 -344 l645 807q-102 182 -297 182q-83 0 -153 -38t-124.5 -114.5t-85 -202.5t-30.5 -290zM614 254q104 -172 293 -172q84 0 153 35t123.5 108.5t84.5 200t30 297.5q0 199 -41 336z" />
<glyph unicode="&#xd9;" horiz-adv-x="1748" d="M117 1370v76h678v-76l-185 -31v-837q0 -168 94.5 -277.5t258.5 -109.5q170 0 281.5 113.5t111.5 318.5v772l-182 51v76h458v-76l-159 -51v-787q0 -85 -19 -164t-61.5 -151t-105 -125.5t-156.5 -85t-209 -31.5q-302 0 -461.5 142t-159.5 375v847zM709 1860v41h233 l176 -316v-37h-125z" />
<glyph unicode="&#xda;" horiz-adv-x="1748" d="M117 1370v76h678v-76l-185 -31v-837q0 -168 94.5 -277.5t258.5 -109.5q170 0 281.5 113.5t111.5 318.5v772l-182 51v76h458v-76l-159 -51v-787q0 -85 -19 -164t-61.5 -151t-105 -125.5t-156.5 -85t-209 -31.5q-302 0 -461.5 142t-159.5 375v847zM831 1548v37l177 316h233 v-41l-285 -312h-125z" />
<glyph unicode="&#xdb;" horiz-adv-x="1748" d="M117 1370v76h678v-76l-185 -31v-837q0 -168 94.5 -277.5t258.5 -109.5q170 0 281.5 113.5t111.5 318.5v772l-182 51v76h458v-76l-159 -51v-787q0 -85 -19 -164t-61.5 -151t-105 -125.5t-156.5 -85t-209 -31.5q-302 0 -461.5 142t-159.5 375v847zM688 1548v37l238 316h98 l238 -316v-37h-68l-219 176l-219 -176h-68z" />
<glyph unicode="&#xdc;" horiz-adv-x="1748" d="M117 1370v76h678v-76l-185 -31v-837q0 -168 94.5 -277.5t258.5 -109.5q170 0 281.5 113.5t111.5 318.5v772l-182 51v76h458v-76l-159 -51v-787q0 -85 -19 -164t-61.5 -151t-105 -125.5t-156.5 -85t-209 -31.5q-302 0 -461.5 142t-159.5 375v847zM645 1729q0 54 41 95.5 t94 41.5q56 0 95.5 -41t39.5 -96q0 -53 -39.5 -93.5t-95.5 -40.5q-53 0 -94 41t-41 93zM1034 1729q0 54 41 95.5t96 41.5q50 0 92 -42t42 -95q0 -52 -42 -93t-92 -41q-55 0 -96 40.5t-41 93.5z" />
<glyph unicode="&#xdd;" horiz-adv-x="1521" d="M92 1370v76h641v-76l-174 -31l289 -563h33l284 543l-202 51v76h467v-76l-156 -51l-348 -668v-545l184 -30v-76h-678v76l184 30v545l-364 688zM709 1548v37l176 316h233v-41l-284 -312h-125z" />
<glyph unicode="&#xde;" horiz-adv-x="1447" d="M147 0v76l185 30v1233l-185 31v76h678v-76l-184 -31v-165h182q71 0 138.5 -13t132.5 -44t113.5 -76.5t78 -116t29.5 -156.5q0 -185 -134.5 -292t-367.5 -107h-172v-263l184 -30v-76h-678zM641 463h129q88 0 157.5 85.5t69.5 207.5q0 161 -66 237t-179 76h-111v-606z" />
<glyph unicode="&#xdf;" horiz-adv-x="2289" d="M172 6v373h82q42 -151 128 -230t214 -79q170 0 170 141q0 131 -217 205q-202 70 -283.5 155t-81.5 195q0 62 25 121.5t71.5 107t119.5 76.5t161 29q43 0 85 -7t65 -14t59 -19.5t45 -15.5l76 37h43l37 -342h-80q-45 133 -128.5 199t-180.5 66q-78 0 -122 -35.5t-44 -102.5 q0 -70 61.5 -116t222.5 -101q166 -56 231.5 -136.5t65.5 -199.5q0 -162 -115.5 -250t-299.5 -88q-155 0 -277 68l-65 -37h-68zM1296 6v373h82q42 -151 128 -230t214 -79q170 0 170 141q0 131 -217 205q-104 36 -176 76t-112.5 84.5t-58 90t-17.5 99.5q0 62 25 121.5 t71.5 107t119.5 76.5t161 29q43 0 85 -7t65 -14t58 -19.5t45 -15.5l76 37h43l37 -342h-80q-45 133 -128.5 199t-180.5 66q-78 0 -122 -35.5t-44 -102.5q0 -69 62 -115.5t223 -101.5q166 -56 231.5 -136.5t65.5 -199.5q0 -162 -116 -250t-300 -88q-154 0 -276 68l-66 -37h-68 z" />
<glyph unicode="&#xe0;" horiz-adv-x="1292" d="M66 0v72l116 51l385 958h166l379 -979l123 -30v-72h-565v72l145 30l-78 211h-366l-76 -190l172 -51v-72h-401zM383 1475v41h233l177 -316v-37h-125zM406 401h301l-140 383h-16z" />
<glyph unicode="&#xe1;" horiz-adv-x="1292" d="M66 0v72l116 51l385 958h166l379 -979l123 -30v-72h-565v72l145 30l-78 211h-366l-76 -190l172 -51v-72h-401zM406 401h301l-140 383h-16zM506 1163v37l176 316h233v-41l-284 -312h-125z" />
<glyph unicode="&#xe2;" horiz-adv-x="1292" d="M66 0v72l116 51l385 958h166l379 -979l123 -30v-72h-565v72l145 30l-78 211h-366l-76 -190l172 -51v-72h-401zM362 1163v37l238 316h98l238 -316v-37h-68l-219 176l-219 -176h-68zM406 401h301l-140 383h-16z" />
<glyph unicode="&#xe3;" horiz-adv-x="1292" d="M66 0v72l116 51l385 958h166l379 -979l123 -30v-72h-565v72l145 30l-78 211h-366l-76 -190l172 -51v-72h-401zM315 1223q23 88 84.5 175t98.5 87q43 0 148 -57.5t147 -57.5q32 0 68.5 40.5t49.5 80.5l74 -21q-28 -106 -88 -186t-113 -80q-34 0 -145 56.5t-145 56.5 q-29 0 -50 -29.5t-49 -89.5zM406 401h301l-140 383h-16z" />
<glyph unicode="&#xe4;" horiz-adv-x="1292" d="M66 0v72l116 51l385 958h166l379 -979l123 -30v-72h-565v72l145 30l-78 211h-366l-76 -190l172 -51v-72h-401zM319 1343q0 54 41.5 96t94.5 42q56 0 95.5 -41.5t39.5 -96.5q0 -53 -39.5 -93t-95.5 -40q-53 0 -94.5 40.5t-41.5 92.5zM406 401h301l-140 383h-16zM709 1343 q0 54 41 96t96 42q50 0 91.5 -42.5t41.5 -95.5q0 -52 -41.5 -92.5t-91.5 -40.5q-55 0 -96 40t-41 93z" />
<glyph unicode="&#xe5;" horiz-adv-x="1292" d="M66 0v72l116 51l385 958h166l379 -979l123 -30v-72h-565v72l145 30l-78 211h-366l-76 -190l172 -51v-72h-401zM406 401h301l-140 383h-16zM436 1364q0 89 61.5 151t149.5 62q89 0 151 -62t62 -151q0 -88 -62 -149.5t-151 -61.5q-88 0 -149.5 61.5t-61.5 149.5zM541 1364 q0 -48 29 -80.5t75 -32.5q50 0 80.5 32.5t30.5 80.5q0 51 -30.5 84t-80.5 33q-46 0 -75 -33.5t-29 -83.5z" />
<glyph unicode="&#xe6;" horiz-adv-x="1781" d="M66 0v72l120 51l615 850v6l-152 31v71h950l27 -274h-76l-143 180h-322v-385h193l76 141h59v-387h-59l-76 154h-193v-416h367l150 209h77l-43 -303h-987v72l152 30v211h-361l-135 -190l162 -51v-72h-401zM502 401h299v420z" />
<glyph unicode="&#xe7;" horiz-adv-x="1306" d="M127 535q0 135 48 244t131.5 178.5t192.5 106t234 36.5q97 0 210 -32.5t212 -82.5v-268h-84q-97 282 -338 282q-138 0 -218.5 -120t-80.5 -342q0 -201 89.5 -327t217.5 -126q138 0 219 68t125 210h84v-260q-94 -57 -183 -88t-208 -37l-41 -90q93 0 147 -34t54 -103 q0 -92 -92 -161t-221 -89l-17 66q80 16 132.5 49t52.5 74q0 42 -40.5 64t-101.5 22q-39 0 -71 -4l-11 14l97 195q-113 9 -209 47t-170.5 105t-117 170t-42.5 233z" />
<glyph unicode="&#xe8;" horiz-adv-x="1255" d="M123 0v72l151 30v877l-151 31v71h950l27 -274h-76l-143 180h-322v-385h193l75 141h60v-387h-60l-75 154h-193v-416h367l149 209h78l-43 -303h-987zM369 1475v41h233l176 -316v-37h-125z" />
<glyph unicode="&#xe9;" horiz-adv-x="1255" d="M123 0v72l151 30v877l-151 31v71h950l27 -274h-76l-143 180h-322v-385h193l75 141h60v-387h-60l-75 154h-193v-416h367l149 209h78l-43 -303h-987zM492 1163v37l176 316h233v-41l-285 -312h-124z" />
<glyph unicode="&#xea;" horiz-adv-x="1255" d="M123 0v72l151 30v877l-151 31v71h950l27 -274h-76l-143 180h-322v-385h193l75 141h60v-387h-60l-75 154h-193v-416h367l149 209h78l-43 -303h-987zM348 1163v37l238 316h98l238 -316v-37h-68l-219 176l-219 -176h-68z" />
<glyph unicode="&#xeb;" horiz-adv-x="1255" d="M123 0v72l151 30v877l-151 31v71h950l27 -274h-76l-143 180h-322v-385h193l75 141h60v-387h-60l-75 154h-193v-416h367l149 209h78l-43 -303h-987zM305 1343q0 54 41 96t94 42q56 0 95.5 -41.5t39.5 -96.5q0 -53 -39.5 -93t-95.5 -40q-53 0 -94 40.5t-41 92.5zM694 1343 q0 54 41 96t96 42q50 0 92 -42.5t42 -95.5q0 -52 -42 -92.5t-92 -40.5q-55 0 -96 40t-41 93z" />
<glyph unicode="&#xec;" horiz-adv-x="872" d="M143 0v72l152 30v877l-152 31v71h586v-71l-149 -31v-877l149 -30v-72h-586zM170 1473v40h233l177 -315v-37h-125z" />
<glyph unicode="&#xed;" horiz-adv-x="872" d="M143 0v72l152 30v877l-152 31v71h586v-71l-149 -31v-877l149 -30v-72h-586zM293 1161v37l176 315h233v-40l-284 -312h-125z" />
<glyph unicode="&#xee;" horiz-adv-x="872" d="M143 0v72l152 30v877l-152 31v71h586v-71l-149 -31v-877l149 -30v-72h-586zM150 1161v37l237 315h98l238 -315v-37h-68l-219 176l-219 -176h-67z" />
<glyph unicode="&#xef;" horiz-adv-x="872" d="M106 1341q0 54 41.5 96t94.5 42q56 0 95.5 -41.5t39.5 -96.5q0 -53 -39.5 -93t-95.5 -40q-53 0 -94.5 40.5t-41.5 92.5zM143 0v72l152 30v877l-152 31v71h586v-71l-149 -31v-877l149 -30v-72h-586zM496 1341q0 54 41 96t96 42q50 0 91.5 -42.5t41.5 -95.5 q0 -52 -41.5 -92.5t-91.5 -40.5q-55 0 -96 40t-41 93z" />
<glyph unicode="&#xf0;" horiz-adv-x="1417" d="M117 473v105h157v401l-151 31v71h534q290 0 461.5 -147.5t171.5 -398.5q0 -129 -50 -231.5t-138 -168.5t-206 -100.5t-257 -34.5h-516v72l151 30v371h-157zM559 102h80q61 0 112 13.5t96 46t76.5 81.5t49.5 124t18 170q0 209 -94 325.5t-242 116.5h-96v-401h234v-105 h-234v-371z" />
<glyph unicode="&#xf1;" horiz-adv-x="1411" d="M113 0v72l114 51v856l-114 31v71h381l546 -704h25v581l-166 52v71h414v-71l-129 -52v-972h-174l-639 825h-25v-688l166 -51v-72h-399zM379 1223q23 88 84 175t98 87q43 0 148 -57.5t147 -57.5q32 0 69 40.5t50 80.5l74 -21q-28 -106 -88 -186t-113 -80q-34 0 -145.5 56.5 t-145.5 56.5q-20 0 -39 -19t-29.5 -39t-29.5 -61z" />
<glyph unicode="&#xf2;" horiz-adv-x="1441" d="M127 535q0 137 48 246.5t130.5 178t189.5 104.5t228 36q127 0 234.5 -37t187.5 -107t125 -178t45 -243q0 -134 -48 -242t-130 -176.5t-188 -105t-226 -36.5q-123 0 -228.5 33.5t-188.5 100t-131 176t-48 250.5zM434 537q0 -134 29.5 -233.5t96 -159.5t163.5 -60 q135 0 211 123t76 330q0 213 -78 337.5t-209 124.5q-133 0 -211 -123.5t-78 -338.5zM455 1475v41h233l176 -316v-37h-125z" />
<glyph unicode="&#xf3;" horiz-adv-x="1441" d="M127 535q0 137 48 246.5t130.5 178t189.5 104.5t228 36q127 0 234.5 -37t187.5 -107t125 -178t45 -243q0 -134 -48 -242t-130 -176.5t-188 -105t-226 -36.5q-123 0 -228.5 33.5t-188.5 100t-131 176t-48 250.5zM434 537q0 -134 29.5 -233.5t96 -159.5t163.5 -60 q135 0 211 123t76 330q0 213 -78 337.5t-209 124.5q-133 0 -211 -123.5t-78 -338.5zM578 1163v37l176 316h233v-41l-285 -312h-124z" />
<glyph unicode="&#xf4;" horiz-adv-x="1441" d="M127 535q0 137 48 246.5t130.5 178t189.5 104.5t228 36q127 0 234.5 -37t187.5 -107t125 -178t45 -243q0 -134 -48 -242t-130 -176.5t-188 -105t-226 -36.5q-123 0 -228.5 33.5t-188.5 100t-131 176t-48 250.5zM434 537q0 -134 29.5 -233.5t96 -159.5t163.5 -60 q135 0 211 123t76 330q0 213 -78 337.5t-209 124.5q-133 0 -211 -123.5t-78 -338.5zM434 1163v37l238 316h98l238 -316v-37h-68l-219 176l-219 -176h-68z" />
<glyph unicode="&#xf5;" horiz-adv-x="1441" d="M127 535q0 137 48 246.5t130.5 178t189.5 104.5t228 36q127 0 234.5 -37t187.5 -107t125 -178t45 -243q0 -134 -48 -242t-130 -176.5t-188 -105t-226 -36.5q-123 0 -228.5 33.5t-188.5 100t-131 176t-48 250.5zM387 1223q23 88 84 175t98 87q43 0 148 -57.5t147 -57.5 q32 0 69 40.5t50 80.5l74 -21q-28 -106 -88 -186t-113 -80q-34 0 -145.5 56.5t-145.5 56.5q-20 0 -39 -19t-29.5 -39t-29.5 -61zM434 537q0 -134 29.5 -233.5t96 -159.5t163.5 -60q135 0 211 123t76 330q0 213 -78 337.5t-209 124.5q-133 0 -211 -123.5t-78 -338.5z" />
<glyph unicode="&#xf6;" horiz-adv-x="1441" d="M127 535q0 137 48 246.5t130.5 178t189.5 104.5t228 36q127 0 234.5 -37t187.5 -107t125 -178t45 -243q0 -134 -48 -242t-130 -176.5t-188 -105t-226 -36.5q-123 0 -228.5 33.5t-188.5 100t-131 176t-48 250.5zM391 1343q0 54 41 96t94 42q56 0 96 -41.5t40 -96.5 q0 -53 -40 -93t-96 -40q-53 0 -94 40.5t-41 92.5zM434 537q0 -134 29.5 -233.5t96 -159.5t163.5 -60q135 0 211 123t76 330q0 213 -78 337.5t-209 124.5q-133 0 -211 -123.5t-78 -338.5zM780 1343q0 54 41.5 96t96.5 42q50 0 91.5 -42.5t41.5 -95.5q0 -52 -41.5 -92.5 t-91.5 -40.5q-55 0 -96.5 40t-41.5 93z" />
<glyph unicode="&#xf7;" d="M139 410v168h828v-168h-828zM434 180q0 50 33 83.5t82 33.5t83 -33.5t34 -83.5q0 -49 -33.5 -81.5t-83.5 -32.5t-82.5 32.5t-32.5 81.5zM434 805q0 50 33 83.5t82 33.5t83 -34t34 -83t-33.5 -82t-83.5 -33q-49 0 -82 33t-33 82z" />
<glyph unicode="&#xf8;" horiz-adv-x="1441" d="M127 535q0 137 48 246.5t130.5 178t189.5 104.5t228 36q191 0 330 -80l108 137h127l-153 -194q180 -153 180 -428q0 -134 -48 -242t-130 -176.5t-188 -105t-226 -36.5q-172 0 -313 66l-119 -152h-127l160 205q-197 149 -197 441zM434 537q0 -149 37 -256l463 587 q-76 131 -211 131q-133 0 -211 -123.5t-78 -338.5zM522 184q75 -100 201 -100q135 0 211 123t76 330q0 127 -31 229z" />
<glyph unicode="&#xf9;" horiz-adv-x="1376" d="M82 1010v71h586v-71l-150 -31v-629q0 -116 62 -188t180 -72q132 0 212.5 74.5t80.5 216.5v577l-162 52v71h403v-71l-120 -52v-606q0 -52 -16 -104.5t-52 -102t-87.5 -87t-127.5 -60.5t-166 -23q-233 0 -362.5 94t-129.5 277v633zM516 1475v41h234l176 -316v-37h-125z" />
<glyph unicode="&#xfa;" horiz-adv-x="1376" d="M82 1010v71h586v-71l-150 -31v-629q0 -116 62 -188t180 -72q132 0 212.5 74.5t80.5 216.5v577l-162 52v71h403v-71l-120 -52v-606q0 -52 -16 -104.5t-52 -102t-87.5 -87t-127.5 -60.5t-166 -23q-233 0 -362.5 94t-129.5 277v633zM639 1163v37l176 316h234v-41l-285 -312 h-125z" />
<glyph unicode="&#xfb;" horiz-adv-x="1376" d="M82 1010v71h586v-71l-150 -31v-629q0 -116 62 -188t180 -72q132 0 212.5 74.5t80.5 216.5v577l-162 52v71h403v-71l-120 -52v-606q0 -52 -16 -104.5t-52 -102t-87.5 -87t-127.5 -60.5t-166 -23q-233 0 -362.5 94t-129.5 277v633zM496 1163v37l237 316h98l238 -316v-37 h-68l-219 176l-219 -176h-67z" />
<glyph unicode="&#xfc;" horiz-adv-x="1376" d="M82 1010v71h586v-71l-150 -31v-629q0 -116 62 -188t180 -72q132 0 212.5 74.5t80.5 216.5v577l-162 52v71h403v-71l-120 -52v-606q0 -52 -16 -104.5t-52 -102t-87.5 -87t-127.5 -60.5t-166 -23q-233 0 -362.5 94t-129.5 277v633zM453 1343q0 54 41 96t94 42 q56 0 95.5 -41.5t39.5 -96.5q0 -53 -39.5 -93t-95.5 -40q-53 0 -94 40.5t-41 92.5zM842 1343q0 54 41 96t96 42q50 0 91.5 -42.5t41.5 -95.5q0 -52 -41.5 -92.5t-91.5 -40.5q-55 0 -96 40t-41 93z" />
<glyph unicode="&#xfd;" horiz-adv-x="1277" d="M72 1010v71h583v-71l-153 -31l225 -401h29l215 380l-150 52v71h385v-71l-129 -52l-280 -509v-351l151 -30v-68h-588v68l152 30v346l-315 535zM590 1163v37l176 316h233v-41l-284 -312h-125z" />
<glyph unicode="&#xfe;" horiz-adv-x="1222" d="M123 0v68l151 30v865l-151 30v68h586v-68l-150 -30v-101h184q67 0 128.5 -16.5t115.5 -50t86.5 -93.5t32.5 -139q0 -146 -107.5 -229.5t-296.5 -83.5h-143v-152l150 -30v-68h-586zM559 342h88q73 0 120.5 59.5t47.5 151.5q0 102 -47 159.5t-125 57.5h-84v-428z" />
<glyph unicode="&#xff;" horiz-adv-x="1277" d="M72 1010v71h583v-71l-153 -31l225 -401h29l215 380l-150 52v71h385v-71l-129 -52l-280 -509v-351l151 -30v-68h-588v68l152 30v346l-315 535zM403 1343q0 54 41.5 96t94.5 42q56 0 95.5 -41.5t39.5 -96.5q0 -53 -39.5 -93t-95.5 -40q-53 0 -94.5 40.5t-41.5 92.5z M793 1343q0 54 41 96t96 42q50 0 91.5 -42.5t41.5 -95.5q0 -52 -41.5 -92.5t-91.5 -40.5q-55 0 -96 40t-41 93z" />
<glyph unicode="&#x152;" horiz-adv-x="2170" d="M164 721q0 135 42 252t116.5 203t175.5 147.5t221 92t250 30.5h964l33 -354h-102l-176 262h-400v-541h279l82 197h84v-512h-84l-82 211h-279v-617h463l217 324h103l-74 -416h-1034q-165 0 -308.5 46t-253.5 133.5t-173.5 227t-63.5 314.5zM514 723q0 -138 23.5 -246.5 t65 -179t101 -116.5t127 -65.5t148.5 -19.5v1254q-100 0 -183 -37.5t-147 -112t-99.5 -196.5t-35.5 -281z" />
<glyph unicode="&#x153;" horiz-adv-x="1738" d="M127 535q0 132 50.5 237.5t137.5 172t199 101.5t240 35h802l27 -274h-76l-143 180h-322v-385h193l76 141h59v-387h-59l-76 154h-193v-416h367l150 209h77l-43 -303h-839q-103 0 -194.5 19.5t-171.5 61.5t-137.5 103.5t-90.5 151t-33 199.5zM434 537q0 -200 82.5 -323.5 t241.5 -123.5v901q-148 0 -236 -121.5t-88 -332.5z" />
<glyph unicode="&#x178;" horiz-adv-x="1521" d="M92 1370v76h641v-76l-174 -31l289 -563h33l284 543l-202 51v76h467v-76l-156 -51l-348 -668v-545l184 -30v-76h-678v76l184 30v545l-364 688zM522 1729q0 54 41 95.5t94 41.5q56 0 96 -41t40 -96q0 -53 -40 -93.5t-96 -40.5q-53 0 -94 41t-41 93zM911 1729 q0 54 41.5 95.5t96.5 41.5q50 0 91.5 -42t41.5 -95q0 -52 -41.5 -93t-91.5 -41q-55 0 -96.5 40.5t-41.5 93.5z" />
<glyph unicode="&#x2c6;" horiz-adv-x="1024" d="M225 999v37l238 316h98l238 -316v-37h-68l-219 177l-219 -177h-68z" />
<glyph unicode="&#x2dc;" horiz-adv-x="1024" d="M178 1059q23 88 84 175t98 87q43 0 148 -57.5t147 -57.5q32 0 69 40.5t50 80.5l74 -20q-28 -106 -88 -186.5t-113 -80.5q-34 0 -145.5 56.5t-145.5 56.5q-20 0 -39 -19t-29.5 -39t-29.5 -61z" />
<glyph unicode="&#x2000;" horiz-adv-x="981" />
<glyph unicode="&#x2001;" horiz-adv-x="1962" />
<glyph unicode="&#x2002;" horiz-adv-x="981" />
<glyph unicode="&#x2003;" horiz-adv-x="1962" />
<glyph unicode="&#x2004;" horiz-adv-x="654" />
<glyph unicode="&#x2005;" horiz-adv-x="490" />
<glyph unicode="&#x2006;" horiz-adv-x="327" />
<glyph unicode="&#x2007;" horiz-adv-x="327" />
<glyph unicode="&#x2008;" horiz-adv-x="245" />
<glyph unicode="&#x2009;" horiz-adv-x="392" />
<glyph unicode="&#x200a;" horiz-adv-x="109" />
<glyph unicode="&#x2010;" horiz-adv-x="827" d="M158 416v198h512v-198h-512z" />
<glyph unicode="&#x2011;" horiz-adv-x="827" d="M158 416v198h512v-198h-512z" />
<glyph unicode="&#x2012;" horiz-adv-x="827" d="M158 416v198h512v-198h-512z" />
<glyph unicode="&#x2013;" horiz-adv-x="1175" d="M178 416v198h819v-198h-819z" />
<glyph unicode="&#x2014;" horiz-adv-x="2273" d="M301 444v138h1671v-138h-1671z" />
<glyph unicode="&#x2018;" horiz-adv-x="868" d="M211 1012q0 87 33 165.5t86.5 136t108.5 97.5t112 66l35 -74q-72 -47 -125 -116.5t-53 -141.5q0 -37 12 -66t31 -47.5t42 -34.5t45.5 -31.5t41.5 -33t31 -43.5t12 -60q0 -62 -43 -101.5t-107 -39.5q-104 0 -183 91t-79 233z" />
<glyph unicode="&#x2019;" horiz-adv-x="868" d="M246 1321q0 62 42.5 101.5t106.5 39.5q105 0 183.5 -90.5t78.5 -232.5q0 -87 -33 -165.5t-86.5 -136t-108.5 -97.5t-112 -66l-34 74q72 47 125 116.5t53 141.5q0 43 -16 75t-40 50.5t-51.5 38t-51.5 36.5t-40 46.5t-16 68.5z" />
<glyph unicode="&#x201a;" horiz-adv-x="868" d="M246 164q0 62 42.5 101.5t106.5 39.5q105 0 183.5 -90.5t78.5 -232.5q0 -87 -33 -165.5t-86.5 -136t-108.5 -97.5t-112 -66l-34 73q72 47 125 116.5t53 141.5q0 37 -12 66t-31 47.5t-41.5 34.5t-45.5 31.5t-42 33t-31 43.5t-12 60z" />
<glyph unicode="&#x201c;" horiz-adv-x="1400" d="M211 1012q0 87 33 165.5t86.5 136t108.5 97.5t112 66l35 -74q-72 -47 -125 -116.5t-53 -141.5q0 -37 12 -66t31 -47.5t42 -34.5t45.5 -31.5t41.5 -33t31 -43.5t12 -60q0 -62 -43 -101.5t-107 -39.5q-104 0 -183 91t-79 233zM743 1012q0 87 33 165.5t86.5 136t108.5 97.5 t112 66l35 -74q-72 -47 -125 -116.5t-53 -141.5q0 -37 12 -66t31 -47.5t42 -34.5t45.5 -31.5t41.5 -33t31 -43.5t12 -60q0 -62 -42.5 -101.5t-106.5 -39.5q-105 0 -184 91t-79 233z" />
<glyph unicode="&#x201d;" horiz-adv-x="1400" d="M246 1321q0 62 42.5 101.5t106.5 39.5q105 0 183.5 -90.5t78.5 -232.5q0 -87 -33 -165.5t-86.5 -136t-108.5 -97.5t-112 -66l-34 74q72 47 125 116.5t53 141.5q0 43 -16 75t-40 50.5t-51.5 38t-51.5 36.5t-40 46.5t-16 68.5zM778 1321q0 62 43 101.5t107 39.5 q105 0 183.5 -90.5t78.5 -232.5q0 -87 -33 -165.5t-86.5 -136t-108.5 -97.5t-112 -66l-35 74q72 47 125 116.5t53 141.5q0 43 -16 75t-40 50.5t-51.5 38t-51.5 36.5t-40 46.5t-16 68.5z" />
<glyph unicode="&#x201e;" horiz-adv-x="1400" d="M246 164q0 62 42.5 101.5t106.5 39.5q105 0 183.5 -90.5t78.5 -232.5q0 -87 -33 -165.5t-86.5 -136t-108.5 -97.5t-112 -66l-34 73q72 47 125 116.5t53 141.5q0 37 -12 66t-31 47.5t-41.5 34.5t-45.5 31.5t-42 33t-31 43.5t-12 60zM778 164q0 62 43 101.5t107 39.5 q105 0 183.5 -90.5t78.5 -232.5q0 -87 -33 -165.5t-86.5 -136t-108.5 -97.5t-112 -66l-35 73q72 47 125 116.5t53 141.5q0 37 -12 66t-31 47.5t-41.5 34.5t-45.5 31.5t-42 33t-31 43.5t-12 60z" />
<glyph unicode="&#x2022;" horiz-adv-x="1355" d="M399 541q0 115 81.5 196.5t197.5 81.5t197 -81.5t81 -196.5q0 -116 -81.5 -197.5t-196.5 -81.5q-116 0 -197.5 82t-81.5 197z" />
<glyph unicode="&#x2026;" horiz-adv-x="2306" d="M350 141q0 71 48 120.5t118 49.5t120 -49.5t50 -120.5q0 -70 -49.5 -118t-120.5 -48q-70 0 -118 47.5t-48 118.5zM985 141q0 71 48 120.5t118 49.5q71 0 120.5 -49.5t49.5 -120.5q0 -70 -49.5 -118t-120.5 -48t-118.5 47.5t-47.5 118.5zM1620 141q0 71 48 120.5t118 49.5 t120 -49.5t50 -120.5q0 -70 -49.5 -118t-120.5 -48q-70 0 -118 47.5t-48 118.5z" />
<glyph unicode="&#x202f;" horiz-adv-x="392" />
<glyph unicode="&#x2039;" horiz-adv-x="954" d="M231 444v48l383 448l91 -57l-213 -396v-30l213 -406l-91 -59z" />
<glyph unicode="&#x203a;" horiz-adv-x="954" d="M250 51l213 406v30l-213 396l90 57l383 -448v-48l-383 -452z" />
<glyph unicode="&#x205f;" horiz-adv-x="490" />
<glyph unicode="&#x20ac;" horiz-adv-x="1458" d="M174 528l21 84h116v27q0 49 2 74h-139l21 84h131q42 234 199.5 372t365.5 138q100 0 204 -33t189 -96l-61 -258h-70q0 68 -16.5 122t-42 86.5t-59 54t-64 30t-60.5 8.5q-121 0 -205 -107.5t-108 -316.5h584l-21 -84h-569q-2 -25 -2 -72v-29h551l-21 -84h-526 q18 -239 104.5 -348.5t210.5 -109.5q94 0 170 68.5t115 193.5l90 -27q-108 -330 -418 -330q-139 0 -255 62.5t-195.5 189.5t-98.5 301h-143z" />
<glyph unicode="&#x2122;" horiz-adv-x="1591" d="M178 1294l27 152h440l29 -152h-41l-66 97h-78v-400l66 -12v-47h-258v47l65 12v400h-75l-66 -97h-43zM676 932v47l67 12l39 395l-77 13v47h202l133 -311h15l143 311h199v-47l-72 -13l25 -395l63 -12v-47h-252v47l70 12l-19 307h-14l-170 -366h-35l-151 366h-11l-30 -307 l63 -12v-47h-188z" />
<glyph unicode="&#xe000;" horiz-adv-x="1085" d="M0 0v1085h1085v-1085h-1085z" />
<glyph unicode="&#xfb01;" horiz-adv-x="2054" d="M123 0v72l151 30v877l-151 31v71h938l29 -274h-68l-156 180h-307v-385h201l76 141h59v-387h-59l-76 154h-201v-408l158 -30v-72h-594zM1325 0v72l152 30v877l-152 31v71h586v-71l-150 -31v-877l150 -30v-72h-586z" />
<glyph unicode="&#xfb02;" horiz-adv-x="2349" d="M123 0v72l151 30v877l-151 31v71h938l29 -274h-68l-156 180h-307v-385h201l76 141h59v-387h-59l-76 154h-201v-408l158 -30v-72h-594zM1305 0v72l151 30v877l-151 31v71h593v-71l-157 -31v-885h297l168 225h78l-43 -319h-936z" />
<glyph unicode="&#xfb03;" horiz-adv-x="1024" d="M92 199l70 194l22 -2l-18 -145l45 -84l76 -68l180 -33l98 7l105 63l6 -8l-14 -43l-82 -88l-140 -47l-198 28l-113 99zM213 893l215 582h23l65 -248l-6 -168l139 -17l131 203l17 203h24l15 -203l-35 -264l73 -174l72 -78l2 -12l-14 -17v-36l16 -9l-2 -18l-35 -74l-73 15 l-23 206l-69 115l-27 -4l53 -123l8 -203l-75 -94l6 -45l53 -76l14 -145l-131 -47l-67 33l-72 116l-154 51l-57 97l-6 86l-62 84l-4 119l9 55zM291 897l18 -18l68 69l22 156h-37zM553 625l74 -29l22 27l-6 28l-22 21l-62 -21zM852 481l29 31l49 8l67 -20l13 -19l-6 -75 l-25 -35l-10 -68l47 -16l-6 -21l-47 15l-89 -54l-10 21l80 47l10 74l-73 28l-27 64z" />
<glyph unicode="&#xfb04;" horiz-adv-x="1024" d="M92 199l70 194l22 -2l-18 -145l45 -84l76 -68l180 -33l98 7l105 63l6 -8l-14 -43l-82 -88l-140 -47l-198 28l-113 99zM213 893l215 582h23l65 -248l-6 -168l139 -17l131 203l17 203h24l15 -203l-35 -264l73 -174l72 -78l2 -12l-14 -17v-36l16 -9l-2 -18l-35 -74l-73 15 l-23 206l-69 115l-27 -4l53 -123l8 -203l-75 -94l6 -45l53 -76l14 -145l-131 -47l-67 33l-72 116l-154 51l-57 97l-6 86l-62 84l-4 119l9 55zM291 897l18 -18l68 69l22 156h-37zM553 625l74 -29l22 27l-6 28l-22 21l-62 -21zM852 481l29 31l49 8l67 -20l13 -19l-6 -75 l-25 -35l-10 -68l47 -16l-6 -21l-47 15l-89 -54l-10 21l80 47l10 74l-73 28l-27 64z" />
</font>
</defs>
</svg>
